<?xml version="1.0" encoding="UTF-8" standalone="no"?>
<!-- Created with Inkscape (http://www.inkscape.org/) -->

<svg
   version="1.1"
   id="svg1"
   width="104"
   height="165.54417"
   viewBox="0 0 104 165.54418"
   xml:space="preserve"
   xmlns="http://www.w3.org/2000/svg"
   xmlns:svg="http://www.w3.org/2000/svg"><defs
     id="defs1"><linearGradient
       id="swatch3"><stop
         style="stop-color:#000000;stop-opacity:1;"
         offset="0"
         id="stop3" /></linearGradient></defs><g
     id="g1"
     transform="translate(-4.8359156,-30.743412)"><path
       style="fill:none;stroke:#000000;stroke-width:5.50484;stroke-linecap:square;stroke-dasharray:none;stroke-opacity:1;paint-order:markers stroke fill"
       d="m 65.718244,193.06312 1.93171,-18.32767 h -17.14389 l 2.89756,18.32767"
       id="path8" /><path
       style="fill:none;stroke:#000000;stroke-width:6;stroke-linecap:square;stroke-dasharray:none;stroke-opacity:1;paint-order:markers stroke fill"
       d="m 50.292454,170.35695 v -31.9925 h 17.45045 v 31.99249"
       id="path9" /><path
       style="fill:none;stroke:#000000;stroke-width:6;stroke-linecap:square;stroke-dasharray:none;stroke-opacity:1;paint-order:markers stroke fill"
       d="m 68.106454,138.60682 2.18131,-6.05919 v -27.26632 l -3.02959,-9.331148 V 42.265794 h -16.72335 v 52.714898 l -2.80245,10.458888 v 26.50214 l 1.95895,7.31091"
       id="path10" /><path
       style="fill:none;stroke:#000000;stroke-width:6;stroke-linecap:square;stroke-dasharray:none;stroke-opacity:1;paint-order:markers stroke fill"
       d="m 51.140744,97.162002 15.75388,-0.12118"
       id="path11" /><path
       style="fill:none;stroke:#000000;stroke-width:5.7529;stroke-linecap:square;stroke-dasharray:none;stroke-opacity:1;paint-order:markers stroke fill"
       d="m 53.357324,40.526872 -2.12159,-6.90701 h 15.55737 l -2.23945,7.2907"
       id="path12" /><path
       style="fill:none;stroke:#000000;stroke-width:6;stroke-linecap:square;stroke-dasharray:none;stroke-opacity:1;paint-order:markers stroke fill"
       d="m 47.141684,110.12865 h -24.96384 v 29.44764 h 27.14514"
       id="path13" /><path
       style="fill:none;stroke:#000000;stroke-width:6;stroke-linecap:square;stroke-dasharray:none;stroke-opacity:1;paint-order:markers stroke fill"
       d="m 68.348824,139.33392 h 25.44857 v -29.08408 h -23.02489"
       id="path14" /><path
       style="fill:none;stroke:#000000;stroke-width:4;stroke-linecap:square;stroke-dasharray:none;stroke-opacity:1;paint-order:markers stroke fill"
       d="m 37.931724,110.85576 v 27.26632"
       id="path15" /><path
       style="fill:none;stroke:#000000;stroke-width:4;stroke-linecap:square;stroke-dasharray:none;stroke-opacity:1;paint-order:markers stroke fill"
       d="m 78.891804,111.34049 v 27.26633"
       id="path16" /><path
       style="fill:none;stroke:#000000;stroke-width:4;stroke-linecap:square;stroke-dasharray:none;stroke-opacity:1;paint-order:markers stroke fill"
       d="m 72.590254,132.79 h 18.90465"
       id="path17" /><path
       style="fill:none;stroke:#000000;stroke-width:4;stroke-linecap:square;stroke-dasharray:none;stroke-opacity:1;paint-order:markers stroke fill"
       d="m 71.984334,116.55139 h 19.87413"
       id="path18" /><path
       style="fill:none;stroke:#000000;stroke-width:4;stroke-linecap:square;stroke-dasharray:none;stroke-opacity:1;paint-order:markers stroke fill"
       d="m 46.414584,116.79376 h -22.2978"
       id="path19" /><path
       style="fill:none;stroke:#000000;stroke-width:4;stroke-linecap:square;stroke-dasharray:none;stroke-opacity:1;paint-order:markers stroke fill"
       d="M 46.172214,133.39592 H 24.116784"
       id="path20" /><path
       style="fill:none;stroke:#000000;stroke-width:4;stroke-linecap:square;stroke-dasharray:none;stroke-opacity:1;paint-order:markers stroke fill"
       d="M 65.440414,85.407182 H 51.989024"
       id="path21" /><path
       style="fill:none;stroke:#000000;stroke-width:4;stroke-linecap:square;stroke-dasharray:none;stroke-opacity:1;paint-order:markers stroke fill"
       d="m 53.322054,75.954862 h 12.11836"
       id="path22" /><path
       style="fill:none;stroke:#000000;stroke-width:4;stroke-linecap:square;stroke-dasharray:none;stroke-opacity:1;paint-order:markers stroke fill"
       d="M 65.925154,66.260162 H 51.383114"
       id="path23" /><path
       style="fill:none;stroke:#000000;stroke-width:3.98508;stroke-linecap:square;stroke-dasharray:none;stroke-opacity:1;paint-order:markers stroke fill"
       d="m 48.122011,72.445699 -5.78155,1.42855 -1.84454,-6.34794 -33.1676098,8.19531 2.8780998,9.90494 33.20295,-8.20406 -1.00394,-3.45505"
       id="path29" /><path
       style="fill:none;stroke:#000000;stroke-width:4.27925;stroke-linecap:square;stroke-dasharray:none;stroke-opacity:1;paint-order:markers stroke fill"
       d="m 42.099201,71.545009 5.70219,-2.04089"
       id="path30" /><path
       style="fill:none;stroke:#000000;stroke-width:3;stroke-linecap:square;stroke-dasharray:none;stroke-opacity:1;paint-order:markers stroke fill"
       d="m 51.504294,125.51898 h 15.99625"
       id="path31" /><path
       style="fill:none;stroke:#000000;stroke-width:3;stroke-linecap:square;stroke-dasharray:none;stroke-opacity:1;paint-order:markers stroke fill"
       d="m 50.413644,112.06759 h 17.20808"
       id="path32" /><path
       style="fill:none;stroke:#000000;stroke-width:3;stroke-linecap:square;stroke-dasharray:none;stroke-opacity:1;paint-order:markers stroke fill"
       d="m 52.594944,165.75196 h 12.96666"
       id="path33" /><path
       style="fill:none;stroke:#000000;stroke-width:3.21181;stroke-linecap:square;stroke-dasharray:none;stroke-opacity:1;paint-order:markers stroke fill"
       d="m 55.610144,146.26717 v 13.68418 h 6.93626 v -13.96083 z"
       id="path35" /><path
       style="fill:#94abb9;fill-opacity:1;stroke:#000000;stroke-width:0.363551;stroke-linecap:square;stroke-dasharray:none;stroke-opacity:1;paint-order:markers stroke fill"
       d="m 50.837784,118.79329 v -5.2109 h 8.1799 8.1799 v 5.2109 5.21089 h -8.1799 -8.1799 z"
       id="path46" /><path
       style="fill:#535a63;fill-opacity:1;stroke:#000000;stroke-width:0.514139;stroke-linecap:square;stroke-dasharray:none;stroke-opacity:1;paint-order:markers stroke fill"
       d="m 51.291824,133.28027 c -0.466,-1.75261 -0.54147,-2.32614 -0.54147,-4.11497 v -2.07852 h 8.22622 8.22622 l -1.5e-4,2.44216 c -1.4e-4,2.34197 -0.024,2.50895 -0.58159,4.07027 l -0.58144,1.6281 -7.10316,0.0447 -7.10316,0.0447 z"
       id="path47" /><path
       style="fill:#535a63;fill-opacity:1;stroke:#000000;stroke-width:0.514139;stroke-linecap:square;stroke-dasharray:none;stroke-opacity:1;paint-order:markers stroke fill"
       d="m 50.750354,108.29275 c 0,-2.04555 0.046,-2.34089 0.8005,-5.14139 l 0.8005,-2.97118 6.52598,0.004 6.52598,0.004 0.90931,2.86616 0.90932,2.86615 -0.01,2.27078 -0.01,2.27078 h -8.22622 -8.22622 z"
       id="path48" /><path
       style="fill:#2c2c2c;fill-opacity:1;stroke:#000000;stroke-width:0.514;stroke-linecap:square;stroke-dasharray:none;stroke-opacity:1;paint-order:markers stroke fill"
       d="m 25.214794,125.11592 v -6.25536 h 5.31277 5.31276 v 6.25536 6.25535 h -5.31276 -5.31277 z"
       id="path49" /><path
       style="fill:#464746;fill-opacity:1;stroke:#000000;stroke-width:0.514139;stroke-linecap:square;stroke-dasharray:none;stroke-opacity:1;paint-order:markers stroke fill"
       d="m 39.953434,125.11592 v -6.25536 h 2.31363 2.31362 v 6.25536 6.25535 h -2.31362 -2.31363 z"
       id="path50" /><path
       style="fill:#464746;fill-opacity:1;stroke:#000000;stroke-width:0.514139;stroke-linecap:square;stroke-dasharray:none;stroke-opacity:1;paint-order:markers stroke fill"
       d="m 73.372464,124.68747 v -5.99829 h 1.71379 1.7138 v 5.99829 5.99828 h -1.7138 -1.71379 z"
       id="path51" /><path
       style="fill:#232323;fill-opacity:1;stroke:#000000;stroke-width:0.514139;stroke-linecap:square;stroke-dasharray:none;stroke-opacity:1;paint-order:markers stroke fill"
       d="m 80.913164,124.68747 v -5.99829 h 4.88432 4.88432 v 5.99829 5.99828 h -4.88432 -4.88432 z"
       id="path52" /><path
       style="fill:#30343a;fill-opacity:1;stroke:#000000;stroke-width:0.514139;stroke-linecap:square;stroke-dasharray:none;stroke-opacity:1;paint-order:markers stroke fill"
       d="m 80.913164,113.89055 v -0.51414 h 4.88432 4.88432 v 0.51414 0.51414 h -4.88432 -4.88432 z"
       id="path53" /><path
       style="fill:#4a5058;fill-opacity:1;stroke:#000000;stroke-width:0.514139;stroke-linecap:square;stroke-dasharray:none;stroke-opacity:1;paint-order:markers stroke fill"
       d="m 73.372464,113.89055 v -0.51414 h 1.71379 1.7138 v 0.51414 0.51414 h -1.7138 -1.71379 z"
       id="path54" /><path
       style="fill:#4a5058;fill-opacity:1;stroke:#000000;stroke-width:0.514139;stroke-linecap:square;stroke-dasharray:none;stroke-opacity:1;paint-order:markers stroke fill"
       d="m 39.953434,113.97624 v -0.7712 h 2.31363 2.31362 v 0.7712 0.77121 h -2.31362 -2.31363 z"
       id="path55" /><path
       style="fill:#35383d;fill-opacity:1;stroke:#000000;stroke-width:0.514139;stroke-linecap:square;stroke-dasharray:none;stroke-opacity:1;paint-order:markers stroke fill"
       d="m 25.214794,113.97624 v -0.7712 h 5.31277 5.31276 v 0.7712 0.77121 h -5.31276 -5.31277 z"
       id="path56" /><path
       style="fill:#36393f;fill-opacity:1;stroke:#000000;stroke-width:0.514139;stroke-linecap:square;stroke-dasharray:none;stroke-opacity:1;paint-order:markers stroke fill"
       d="m 25.214794,135.99852 v -0.51414 h 5.31277 5.31276 v 0.51414 0.51414 h -5.31276 -5.31277 z"
       id="path57" /><path
       style="fill:#4a5058;fill-opacity:1;stroke:#000000;stroke-width:0.514139;stroke-linecap:square;stroke-dasharray:none;stroke-opacity:1;paint-order:markers stroke fill"
       d="m 39.953434,135.99428 v -0.51839 l 2.77277,0.0471 2.77276,0.0471 0.12587,0.4713 0.12587,0.47129 h -2.89863 -2.89864 z"
       id="path58" /><path
       style="fill:#4a5058;fill-opacity:1;stroke:#000000;stroke-width:0.514139;stroke-linecap:square;stroke-dasharray:none;stroke-opacity:1;paint-order:markers stroke fill"
       d="m 72.412274,135.89691 c 0.0576,-0.15014 0.15134,-0.45863 0.20829,-0.68552 0.10211,-0.40685 0.13158,-0.41252 2.14151,-0.41252 h 2.03798 v 0.68551 0.68552 h -2.24627 c -1.9845,0 -2.23406,-0.0318 -2.14151,-0.27299 z"
       id="path59" /><path
       style="fill:#2f3438;fill-opacity:1;stroke:#000000;stroke-width:0.514139;stroke-linecap:square;stroke-dasharray:none;stroke-opacity:1;paint-order:markers stroke fill"
       d="m 80.913164,135.48438 v -0.68551 h 4.88432 4.88432 v 0.68551 0.68552 h -4.88432 -4.88432 z"
       id="path60" /><path
       style="fill:#576167;fill-opacity:1;stroke:#000000;stroke-width:0.514139;stroke-linecap:square;stroke-dasharray:none;stroke-opacity:1;paint-order:markers stroke fill"
       d="m 53.663804,90.754312 v -3.25622 h 5.22708 5.22708 v 3.25622 3.25621 h -5.22708 -5.22708 z"
       id="path61" /><path
       style="fill:#576167;fill-opacity:1;stroke:#000000;stroke-width:0.514139;stroke-linecap:square;stroke-dasharray:none;stroke-opacity:1;paint-order:markers stroke fill"
       d="m 53.663804,71.045652 v -2.74207 h 5.22708 5.22708 v 2.74207 2.74208 h -5.22708 -5.22708 z"
       id="path62" /><path
       style="fill:#1f2020;fill-opacity:1;stroke:#000000;stroke-width:0.257069;stroke-linecap:square;stroke-dasharray:none;stroke-opacity:1;paint-order:markers stroke fill"
       d="m 53.535274,80.685752 v -2.65638 h 5.35561 5.35561 v 2.65638 2.65639 h -5.35561 -5.35561 z"
       id="path66" /><path
       style="fill:#2e3439;fill-opacity:1;stroke:#000000;stroke-width:3;stroke-linecap:square;stroke-dasharray:none;stroke-opacity:1;paint-order:markers stroke fill"
       d="m 24.220961,73.136409 2.08301,7.77387"
       id="path69" /><path
       style="fill:#4d5256;fill-opacity:1;stroke:#000000;stroke-width:0.257069;stroke-linecap:square;stroke-dasharray:none;stroke-opacity:1;paint-order:markers stroke fill"
       d="m 10.775671,80.260309 c -0.46362,-1.60881 -0.8478901,-2.95697 -0.8539301,-2.99592 -0.0101,-0.0653 12.5033401,-3.21642 12.8053001,-3.22461 0.10454,-0.003 0.30933,0.65144 0.92689,2.96123 0.43598,1.63067 0.77939,2.97817 0.76313,2.99443 -0.0163,0.0163 -2.86267,0.72695 -6.32535,1.57931 -3.46267,0.85235 -6.33566,1.56344 -6.38443,1.5802 -0.0502,0.0173 -0.45413,-1.23775 -0.93161,-2.89464 z"
       id="path70" /><path
       style="fill:#4d5256;fill-opacity:1;stroke:#000000;stroke-width:0.257069;stroke-linecap:square;stroke-dasharray:none;stroke-opacity:1;paint-order:markers stroke fill"
       d="m 26.670661,76.298179 c -0.43637,-1.63194 -0.76118,-2.99651 -0.72181,-3.03236 0.0394,-0.0359 2.99716,-0.78783 6.57285,-1.67105 4.76849,-1.17784 6.51814,-1.57852 6.56461,-1.50331 0.0814,0.1317 1.73381,5.84164 1.69898,5.87086 -0.0144,0.0121 -2.95679,0.74257 -6.53862,1.62329 -3.58183,0.88072 -6.57322,1.61895 -6.64752,1.64052 -0.11123,0.0323 -0.27527,-0.48502 -0.92849,-2.92795 z"
       id="path71" /><path
       style="fill:#505557;fill-opacity:1;stroke:#000000;stroke-width:0.363551;stroke-linecap:square;stroke-dasharray:none;stroke-opacity:1;paint-order:markers stroke fill"
       d="m 53.625004,80.681022 v -2.60545 h 5.27149 5.27149 v 2.60545 2.60545 h -5.27149 -5.27149 z"
       id="path72" /><path
       style="fill:#a3b2bc;fill-opacity:1;stroke:#000000;stroke-width:0.281716;stroke-linecap:square;stroke-dasharray:none;stroke-opacity:1;paint-order:markers stroke fill"
       d="m 57.219597,153.13427 v -5.32698 l 0.94804,-0.046 c 0.521419,-0.0253 1.357821,-0.046 1.858667,-0.046 h 0.910647 v 5.373 5.373 h -1.858677 -1.858677 z"
       id="path77" /><path
       style="fill:#a3b2bc;fill-opacity:1;stroke:#000000;stroke-width:2.75865;stroke-linecap:square;stroke-dasharray:none;stroke-opacity:1;paint-order:markers stroke fill"
       d="m 51.393835,152.78531 h 4.09879"
       id="path78" /><path
       style="fill:#a3b2bc;fill-opacity:1;stroke:#000000;stroke-width:3;stroke-linecap:square;stroke-dasharray:none;stroke-opacity:1;paint-order:markers stroke fill"
       d="m 62.774374,152.90649 h 3.15078"
       id="path79" /><path
       style="fill:#1f2326;fill-opacity:1;stroke:#000000;stroke-width:0.273345;stroke-linecap:square;stroke-dasharray:none;stroke-opacity:1;paint-order:markers stroke fill"
       d="m 53.33754,169.8722 v -2.65056 h 5.680144 5.680144 v 2.65056 2.65056 H 59.017684 53.33754 Z"
       id="path82" /><path
       style="fill:none;stroke:#000000;stroke-width:4;stroke-linecap:square;stroke-dasharray:none;stroke-opacity:1;paint-order:markers stroke fill"
       d="m 56.065214,44.371072 v 16.72335 h 5.45326 v -17.93519"
       id="path27" /><path
       style="fill:#2e3439;fill-opacity:1;stroke:#000000;stroke-width:0.257069;stroke-linecap:square;stroke-dasharray:none;stroke-opacity:1;paint-order:markers stroke fill"
       d="m 58.133164,51.715652 v -7.36932 h 0.68552 0.68551 v 7.36932 7.36933 h -0.68551 -0.68552 z"
       id="path68" /><path
       style="fill:#2f3438;fill-opacity:1;stroke:#000000;stroke-width:5.98172;stroke-linecap:square;stroke-dasharray:none;stroke-opacity:1;paint-order:markers stroke fill"
       d="m 54.02726,193.12032 11.288542,0.13964"
       id="path145" /><path
       style="fill:#1f2020;fill-opacity:1;stroke:#000000;stroke-width:0.727102;stroke-linecap:square;stroke-dasharray:none;stroke-opacity:1;paint-order:markers stroke fill"
       d="m 47.744952,22.087849 c -0.03082,-0.08448 -0.21376,-0.671663 -0.406536,-1.304848 l -0.350502,-1.151245 3.760521,-0.03205 c 2.068286,-0.01763 3.777556,-0.01501 3.798379,0.0058 0.02082,0.02082 -0.139715,0.607837 -0.356751,1.304477 l -0.394609,1.266618 -2.997234,0.03242 c -2.33324,0.02524 -3.009648,-0.0016 -3.053268,-0.121184 z"
       id="path146"
       transform="translate(8.2290584,16.928472)" /><path
       style="fill:#232323;fill-opacity:1;stroke:#000000;stroke-width:0.727102;stroke-linecap:square;stroke-dasharray:none;stroke-opacity:1;paint-order:markers stroke fill"
       d="m 45.383289,37.8699 c 0,-8.321279 0.02175,-9.452327 0.181775,-9.452327 0.15993,0 0.181776,1.070456 0.181776,8.907001 v 8.907001 h 4.786755 4.786756 v -8.907001 -8.907001 h 0.302959 0.302959 v 9.452327 9.452328 h -5.27149 -5.27149 z"
       id="path147"
       transform="translate(8.2290584,16.928472)" /><path
       style="fill:#3b4347;fill-opacity:1;stroke:#000000;stroke-width:0.727102;stroke-linecap:square;stroke-dasharray:none;stroke-opacity:1;paint-order:markers stroke fill"
       d="m 45.140921,142.26964 v -5.02912 h 0.30296 0.302959 v 3.6961 3.6961 h 5.089714 5.089715 v -3.57491 c 0,-3.49413 0.0055,-3.57492 0.242367,-3.57492 0.238378,0 0.242368,0.0808 0.242368,4.90794 v 4.90793 h -5.635041 -5.635042 z"
       id="path148"
       transform="translate(8.2290584,16.928472)" /><path
       style="fill:#3b4347;fill-opacity:1;stroke:#000000;stroke-width:0.727102;stroke-linecap:square;stroke-dasharray:none;stroke-opacity:1;paint-order:markers stroke fill"
       d="m 45.140921,129.48476 v -4.96853 h 5.635042 5.635041 v 4.96853 c 0,4.88775 -0.0039,4.96853 -0.242368,4.96853 -0.236908,0 -0.242367,-0.0808 -0.242367,-3.58721 v -3.58722 l -0.81799,0.0713 c -0.449894,0.0392 -2.563035,0.1294 -4.695867,0.20036 -2.132833,0.071 -4.055109,0.15593 -4.271725,0.18882 l -0.393847,0.0598 v 3.32706 3.32706 h -0.302959 -0.30296 z"
       id="path149"
       transform="translate(8.2290584,16.928472)" /><path
       style="fill:#a3b2bc;fill-opacity:1;stroke:#000000;stroke-width:0.727102;stroke-linecap:square;stroke-dasharray:none;stroke-opacity:1;paint-order:markers stroke fill"
       d="m 47.837458,173.14658 c -0.156727,-0.0302 -0.297062,-0.16475 -0.330373,-0.31676 -0.09322,-0.42541 -1.882882,-11.88283 -1.882121,-12.04937 5.43e-4,-0.11888 1.151019,-0.15148 5.346534,-0.15148 h 5.345841 l -0.07199,0.51503 c -0.03959,0.28327 -0.317463,2.8872 -0.617488,5.78652 -0.300025,2.89932 -0.577093,5.50326 -0.615707,5.78652 l -0.07021,0.51503 -3.416014,-0.0165 c -1.878807,-0.009 -3.538622,-0.0401 -3.688477,-0.069 z"
       id="path150"
       transform="translate(8.2290584,16.928472)" /></g></svg>
