<svg version="1.2" xmlns="http://www.w3.org/2000/svg" viewBox="-148 -65.00000000000009 148 789.0000000000001" width="148" height="790">
	<style>
		.s0 { fill: #030303 } 
		.s1 { fill: #282828 } 
		.s2 { fill: #6d5f35 } 
		.s3 { fill: #343434 } 
		.s4 { fill: #574b29 } 
		.s5 { fill: #7b673c } 
		.s6 { fill: #5c5c5c } 
		.s7 { fill: #77683c } 
		.s8 { fill: #1f1f1f } 
		.s9 { fill: #6a6a6a } 
		.s10 { fill: #9d894f } 
		.s11 { fill: #9b9b9b } 
		.s12 { fill: #1b1b1b } 
		.s13 { fill: #535353 } 
	</style>
	<g id="Layer 1">
		<path class="s0" d="m-93.38-56.52q1.69-0.02 3.42-0.04c1.82 0.02 1.82 0.02 3.68 0.03q1.86-0.01 3.79-0.01 3.96-0.01 7.93 0.02 5.07 0.03 10.14-0.02 4.85-0.01 9.7 0.01 1.81-0.01 3.68-0.03 1.68 0.02 3.42 0.04c1.48 0.01 1.48 0.01 3 0.01 3.38 0.66 4.57 1.77 6.62 4.51 0.44 2.02 0.44 2.02 0.34 4.25q-0.05 1.32-0.11 2.68-0.73 9.51-1.73 19-0.23 2.28-0.46 4.57-0.48 4.76-0.98 9.51-0.62 6.1-1.24 12.19-0.48 4.71-0.96 9.41-0.23 2.25-0.46 4.49-0.32 3.14-0.64 6.27-0.19 1.77-0.37 3.6c-0.31 2.43-0.72 4.68-1.39 7.03q1.32-0.15 2.69-0.31c3.31 0.31 3.31 0.31 5.98 2.23 3.23 4.27 3 7.43 2.9 12.64q0 1.43 0 2.9-0.01 4.73-0.08 9.47-0.02 3.28-0.02 6.57-0.04 8.63-0.13 17.27-0.07 8.82-0.1 17.64-0.08 17.29-0.24 34.59 1.55-0.07 3.14-0.14 2.06-0.06 4.11-0.11 1.02-0.05 2.07-0.1c3.25-0.06 5.34 0.14 8.13 1.86 2.16 3.47 2.11 6.63 2.07 10.59q0.01 1.22 0.02 2.47 0.02 4.03-0.01 8.05 0.01 2.81 0.01 5.61 0.01 5.87-0.02 11.74-0.03 7.53 0.02 15.05 0.01 5.79 0 11.57-0.01 2.78 0.01 5.55 0.01 3.88-0.03 7.76 0.01 1.14 0.02 2.32c-0.08 5.27-0.51 5.75-4.54 9.78-4.95 0-9.9 0-15 0 0 47.85 0 95.7 0 145q1.97 0.99 4 2c2.37 2.64 3.51 5 4.44 8.4q0.36 1.28 0.73 2.61 0.37 1.38 0.75 2.79 0.39 1.43 0.79 2.9 0.83 3.04 1.64 6.07 1.25 4.63 2.53 9.26 0.8 2.95 1.6 5.9 0.38 1.37 0.77 2.78c1.19 4.5 2.24 8.6 1.75 13.29-1.75 2.87-1.75 2.87-5 5-4.56 0.53-9.8 1.1-14-1q0.1 11.64 0.26 23.28 0.05 3.96 0.09 7.92 0.05 5.69 0.14 11.38 0.01 1.76 0.02 3.58 0.03 1.64 0.06 3.34 0.01 1.44 0.03 2.93c0.46 2.99 1.46 4.31 3.4 6.57 0.86 1.94 0.86 1.94 1.54 3.99q0.4 1.16 0.81 2.36 0.41 1.24 0.84 2.52 0.91 2.69 1.83 5.38 0.47 1.4 0.96 2.84 1.58 4.47 3.25 8.91 0.55 1.46 1.12 2.97 1.07 2.85 2.16 5.69c3.3 8.85 3.3 8.85 2.49 13.34q-1.97 1.97-4 4c-4.95 0-9.9 0-15 0 0 45.54 0 91.08 0 138 2.64 0 5.28 0 8 0 2.56 1.44 2.56 1.44 4 4-0.26 7.97-2.83 14.82-5.56 22.25q-1.27 3.44-2.51 6.89-0.55 1.5-1.12 3.05c-0.82 2.84-1.2 4.88-0.81 7.81q0.74 0.63 1.5 1.27c2.19 2.52 1.88 4.41 1.88 7.72q0.02 1.88 0.03 3.82-0.01 2.11-0.02 4.22 0.01 2.23 0.02 4.47 0.02 6.15 0.01 12.29 0 6.63 0.03 13.26 0.02 12.98 0.02 25.97 0 10.55 0.01 21.11 0 3.03 0.01 6.07 0 1.5 0 3.05 0.02 28.6 0.01 57.2-0.01 26.18 0.05 52.36 0.05 26.86 0.04 53.72 0 15.09 0.03 30.18 0.03 12.84 0.01 25.69-0.02 6.56 0.01 13.11 0.02 6-0.01 12-0.01 2.17 0.01 4.35 0.02 2.95-0.02 5.9 0 1.63 0 3.31c-0.83 3.94-2.53 5.43-5.62 7.93-2.78 0.8-5.17 1.32-8 1.69q-1.13 0.17-2.29 0.34-2.29 0.34-4.59 0.66-2.75 0.41-5.49 0.93c-14.25 2.62-28.04 1.58-42.32-0.25q-1.8-0.2-3.65-0.42-1.72-0.24-3.48-0.49c-1.54-0.2-1.54-0.2-3.1-0.41-4.43-1.51-7.51-3.03-10.08-7.05-1.02-4.86-0.83-9.7-0.72-14.64q0.02-2.37 0.02-4.74 0.03-5.29 0.11-10.58 0.13-8.84 0.18-17.68 0.09-12.17 0.21-24.33c0.21-20.35 0.31-40.7 0.4-61.04q0.06-13.1 0.12-26.19 0.01-1.46 0.02-2.96 0.2-46.37 0.54-92.74 0.02-2.79 0.04-5.58 0.01-1.39 0.02-2.82 0.07-10.61 0.13-21.22 0.09-14.15 0.21-28.31 0.06-7.51 0.1-15.02 0.03-6.97 0.11-13.94 0.02-2.56 0.02-5.13 0.02-3.49 0.07-6.99 0.01-1.94 0.03-3.95c0.43-3.42 0.9-3.99 3.39-6.14-0.15-8.5-3.59-16.62-6.21-24.62q-0.53-1.67-1.08-3.39-0.49-1.5-0.99-3.05c-0.77-3.12-0.96-5.73-0.72-8.94 1.63-2.38 1.63-2.38 4-4q3-0.1 6 0 0-0.98 0-1.99-0.04-24-0.05-48-0.01-11.61-0.03-23.22-0.01-10.12-0.01-20.24-0.01-5.35-0.02-10.71-0.01-5.99 0-11.98-0.01-1.75-0.01-3.55c0-6.19 0.3-12.17 1.12-18.31q-1.76 0.07-3.58 0.14-2.33 0.06-4.67 0.11-1.16 0.05-2.36 0.1c-3.59 0.06-5.81-0.03-9-1.8-2.19-4.01-1.5-7.31-0.39-11.55 1.75-4.95 3.79-9.75 5.87-14.56q1.23-2.88 2.45-5.77 1.17-2.73 2.34-5.45c1.08-2.61 2.06-5.2 2.97-7.87 1.37-3.35 1.37-3.35 3.42-5.2 2.51-2.77 2.46-4.23 2.5-7.93q0.03-1.73 0.06-3.52 0-1.86 0-3.78 0.02-1.91 0.05-3.88 0.06-5.1 0.08-10.2 0.03-5.21 0.1-10.42 0.11-10.21 0.16-20.42-1.65 0.07-3.36 0.14-2.19 0.06-4.39 0.11-1.09 0.05-2.21 0.1c-3.53 0.07-5.63-0.06-8.56-2.1-2.16-3.27-1.68-5.09-1.07-8.82 0.98-4.04 2.56-7.72 4.28-11.49q1.09-2.49 2.17-4.98 0.54-1.23 1.1-2.5c1.86-4.4 3.5-8.89 5.14-13.38 1.14-3.13 2.33-6.14 3.9-9.08q-0.88-1.06-1.79-2.16c-1.19-1.44-1.19-1.44-2.4-2.9q-1.16-1.4-2.35-2.85c-1.22-1.53-1.22-1.53-2.46-3.09q-0.64-0.74-1.31-1.5c-3.96-4.88-4.42-8.78-4.38-14.95q-0.02-1.37-0.05-2.79-0.04-4.55-0.03-9.1-0.02-3.19-0.04-6.38-0.03-6.69-0.01-13.37 0.01-8.51-0.1-17.02-0.05-6.59-0.03-13.18-0.01-3.14-0.05-6.27c-0.16-13.86 1.59-23.66 9-35.44q1.18-1.98 2.36-3.96c4.98-8.38 4.98-8.38 6.64-10.04q0.55-3.49 1-7-1.65 0.07-3.36 0.14-2.19 0.06-4.39 0.11-1.09 0.05-2.21 0.1c-3.17 0.06-5.51-0.03-8.25-1.69-2.88-4.28-2.31-8.63-2.24-13.67q0-1.68-0.01-3.4 0.02-5.57 0.07-11.14 0.01-3.86 0.02-7.71 0.02-9.13 0.08-18.25 0.06-10.38 0.09-20.77 0.06-21.36 0.2-42.72c-0.91-0.29-0.91-0.29-1.85-0.58-1.2-0.39-1.2-0.39-2.44-0.79q-1.18-0.38-2.41-0.77c-4.06-1.52-7.22-3.78-10.3-6.86-1.44-3.75-1.57-8.05-1-12 1.56-2.5 1.56-2.5 4-4 4.82-0.26 9.11 0.27 13.81 1.31q1.85 0.41 3.76 0.82 1.9 0.43 3.87 0.87 1.97 0.43 3.95 0.87 4.81 1.05 9.61 2.13-0.01-0.98-0.03-1.99-0.13-10.21-0.19-20.43-0.03-3.82-0.08-7.63-0.07-5.48-0.09-10.97-0.03-1.69-0.06-3.45 0-1.58 0-3.21-0.02-1.39-0.03-2.83c0.63-3.25 1.93-4.44 4.48-6.49 2.78-0.51 5.15-0.19 8 0q-0.23-1.03-0.46-2.09c-0.59-3.16-0.87-6.25-1.11-9.45q-0.15-1.95-0.31-3.96-0.15-2.13-0.31-4.26-0.17-2.2-0.33-4.4-0.35-4.62-0.69-9.24-0.44-5.87-0.89-11.75-0.34-4.55-0.68-9.1-0.16-2.17-0.32-4.33-0.51-6.71-0.9-13.42-0.1-1.61-0.21-3.27-0.05-1.45-0.11-2.95-0.05-1.25-0.11-2.53c1.06-5.57 4.92-6.75 10.05-6.77zm-24.62 156.52c0.33 10.23 0.66 20.46 1 31 2.64 0.33 5.28 0.66 8 1 0-9.9 0-19.8 0-30-4.45-0.99-4.45-0.99-9-2zm1 44c0 10.56 0 21.12 0 32 2.31 0.33 4.62 0.66 7 1 1.21-10.66 1.1-21.28 1-32-2.64-0.33-5.28-0.66-8-1zm0 46c0 5.94 0 11.88 0 18 3.7 2.22 3.7 2.22 7 2 0-6.27 0-12.54 0-19-2.31-0.33-4.62-0.66-7-1z"/>
		<path class="s1" d="m-90 736c11.22 0 22.44 0 34 0 0 101.97 0 203.94 0 309-18.71 2.88-18.71 2.88-28.78 0.48q-1.74-0.41-3.53-0.83-1.33-0.32-2.69-0.65-0.05-31.44-0.06-62.88 0-1.19 0-2.41c-0.03-56.95 0.18-113.89 0.56-170.84q0.01-1.35 0.02-2.74 0.23-34.57 0.48-69.13z"/>
		<path class="s2" d="m-96 44c2.97 0 5.94 0 9 0q0.02 1.03 0.03 2.08 0.16 10.68 0.34 21.36 0.07 3.99 0.13 7.99 0.08 5.72 0.18 11.44 0.03 1.79 0.05 3.63 0.03 1.64 0.06 3.34 0.03 1.45 0.05 2.95c-0.08 2.18-0.08 2.18 1.16 3.21q3.2 0.14 6.41 0.13c1.95 0 1.95 0 3.94 0.01 1.02-0.01 1.02-0.01 2.06-0.01q3.12-0.01 6.24 0.01 1.94-0.01 3.94-0.01 1.8 0 3.65 0c2.67 0.18 2.67 0.18 3.76-1.13q0.17-2.58 0.21-5.16 0.03-1.65 0.06-3.34 0.02-1.79 0.05-3.63 0.03-1.82 0.06-3.69 0.1-5.87 0.18-11.74 0.07-3.97 0.13-7.94 0.16-9.75 0.31-19.5 2.96 0 6 0c0 23.76 0 47.52 0 72-15.84 0-31.68 0-48 0 0-23.76 0-47.52 0-72z"/>
		<path class="s3" d="m-55-15c0.08 6.07-0.18 11.94-0.88 17.97-0.13 1.22-0.13 1.22-0.26 2.45q-0.43 3.82-0.86 7.64-0.29 2.61-0.58 5.23-0.7 6.35-1.42 12.71c-8.25 0-16.5 0-25 0q-0.65-7.42-1.28-14.83-0.22-2.52-0.44-5.03c-0.76-8.74-1.49-17.37-1.28-26.14 23.22-4.39 23.22-4.39 32 0z"/>
		<path class="s4" d="m-98 509c16.5 0 33 0 50 0 0 11.88 0 23.76 0 36q-1.48 0-3 0-0.09-1.92-0.18-3.9-0.13-2.52-0.26-5.04-0.06-1.27-0.12-2.57-0.06-1.21-0.12-2.45c-0.06-1.13-0.06-1.13-0.11-2.27-0.03-1.79-0.03-1.79-1.21-2.77q-4.08-0.15-8.16-0.13-1.22 0-2.47-0.01-2.6 0-5.2 0.01-3.99 0.01-7.98-0.01-2.52 0-5.03 0.01-1.2-0.01-2.43-0.01c-3.67-0.33-3.67-0.33-6.73 1.14q-0.23 2.01-0.32 4.04-0.06 1.2-0.12 2.45-0.06 1.27-0.12 2.57-0.07 1.28-0.13 2.59-0.16 3.17-0.31 6.35-2.96 0-6 0c0-11.88 0-23.76 0-36z"/>
		<path class="s5" d="m-105 1064q2.18 0.43 4.43 0.88c16.26 3.09 30.83 4.18 47.2 1.56 3.37-0.44 3.37-0.44 10.37-0.44 0 4.95 0 9.9 0 15q-6.19 1.01-12.38 2-1.72 0.28-3.5 0.58c-11.84 1.87-21.93 1.37-33.75-0.58-1.79-0.29-1.79-0.29-3.62-0.58q-4.37-0.7-8.75-1.42c0-5.61 0-11.22 0-17z"/>
		<path class="s2" d="m-99 636c16.83 0 33.66 0 51 0 0 14.52 0 29.04 0 44q-1.97 0-4 0-0.04-1.39-0.08-2.83-0.14-5.18-0.29-10.36-0.07-2.24-0.13-4.49-0.08-3.22-0.18-6.44c-0.06-1.94-0.06-1.94-0.11-3.92 0.12-2.85 0.12-2.85-1.21-3.96q-3.86-0.15-7.72-0.13-1.15 0-2.34-0.01-2.46 0-4.91 0.01-3.78 0.01-7.55-0.01-2.38 0-4.76 0.01-1.13-0.01-2.3-0.01c-3.5-0.3-3.5-0.3-6.42 1.14q-0.23 3.44-0.32 6.88-0.03 1.02-0.06 2.08-0.1 3.3-0.18 6.6-0.07 2.24-0.13 4.47-0.16 5.48-0.31 10.97c-2.64 0-5.28 0-8 0 0-14.52 0-29.04 0-44z"/>
		<path class="s6" d="m-83 554c7.59 0 15.18 0 23 0 0 10.89 0 21.78 0 33-7.59 0-15.18 0-23 0 0-10.89 0-21.78 0-33z"/>
		<path class="s1" d="m-78 44c4.95 0 9.9 0 15 0 0 15.84 0 31.68 0 48-4.95 0-9.9 0-15 0 0-15.84 0-31.68 0-48z"/>
		<path class="s4" d="m-99 596c2.31 0 4.62 0 7 0q0.04 0.9 0.08 1.82 0.17 4.06 0.36 8.12 0.06 1.41 0.12 2.86 0.06 1.34 0.12 2.73 0.06 1.24 0.11 2.52c0 1.95 0 1.95 1.21 2.95q4.08 0.15 8.16 0.13c1.22 0 1.22 0 2.47 0.01q2.6 0 5.2-0.01 3.99-0.01 7.98 0.01 2.52 0 5.03-0.01 1.2 0.01 2.43 0.01c3.67 0.33 3.67 0.33 6.73-1.14q0.23-2.23 0.32-4.47c0.06-1.35 0.06-1.35 0.12-2.73q0.06-1.41 0.12-2.86c0.07-1.43 0.07-1.43 0.13-2.88q0.16-3.53 0.31-7.06 1.48 0 3 0c0 10.23 0 20.46 0 31-16.83 0-33.66 0-51 0 0-10.23 0-20.46 0-31z"/>
		<path class="s1" d="m-106 693c22.11 0 44.22 0 67 0-0.99 2.97-1.98 5.94-3 9-21.17 2.2-40.82 2.09-62 0-0.66-2.97-1.32-5.94-2-9z"/>
		<path class="s2" d="m-97 382c16.17 0 32.34 0 49 0 0 10.56 0 21.12 0 32-16.17 0-32.34 0-49 0 0-10.56 0-21.12 0-32z"/>
		<path class="s7" d="m-97 339c16.17 0 32.34 0 49 0 0 9.57 0 19.14 0 29-16.17 0-32.34 0-49 0 0-9.57 0-19.14 0-29z"/>
		<path class="s7" d="m-97 253c16.17 0 32.34 0 49 0 0 9.9 0 19.8 0 30-16.17 0-32.34 0-49 0 0-9.9 0-19.8 0-30z"/>
		<path class="s8" d="m-89-43c12.21 0 24.42 0 37 0-1 17-1 17-2 18q-2.37 0.1-4.74 0.06-1.47-0.01-2.99-0.02-3.09-0.04-6.18-0.08c-6.76-0.05-13.37 0.3-20.09 1.04-0.99-6.53-1-12.23-1-19z"/>
		<path class="s2" d="m-98 468c16.5 0 33 0 50 0 0 10.89 0 21.78 0 33-16.5 0-33 0-50 0 0-10.89 0-21.78 0-33z"/>
		<path class="s7" d="m-95.02 425.88q1.3 0.01 2.63 0.02 1.47 0 2.97 0 1.6 0.01 3.24 0.03 1.62 0.01 3.29 0.01 5.23 0.03 10.45 0.08 3.54 0.02 7.07 0.03 8.69 0.04 17.37 0.12c0 9.51 0 19.03 0 28.83-16.5 0-33 0-50 0 0-28.69 0-28.69 2.98-29.12z"/>
		<path class="s2" d="m-97 297c16.17 0 32.34 0 49 0 0 9.9 0 19.8 0 30-16.17 0-32.34 0-49 0 0-9.9 0-19.8 0-30z"/>
		<path class="s9" d="m-101 711c1.3 0.11 1.3 0.11 2.62 0.22 17.78 1.31 35.62 1.28 53.38-0.22-0.99 3.96-1.98 7.92-3 12-16.5 0-33 0-50 0-0.99-3.96-1.98-7.92-3-12z"/>
		<path class="s2" d="m-97 213c16.17 0 32.34 0 49 0 0 9.24 0 18.48 0 28-16.17 0-32.34 0-49 0 0-9.24 0-18.48 0-28z"/>
		<path class="s7" d="m-97 174c16.17 0 32.34 0 49 0 0 7.92 0 15.84 0 24-16.17 0-32.34 0-49 0 0-7.92 0-15.84 0-24z"/>
		<path class="s2" d="m-96 132c15.84 0 31.68 0 48 0 0 9.24 0 18.48 0 28-15.84 0-31.68 0-48 0 0-9.24 0-18.48 0-28z"/>
		<path class="s6" d="m-82 656c6.93 0 13.86 0 21 0 0 7.92 0 15.84 0 24-6.93 0-13.86 0-21 0 0-7.92 0-15.84 0-24z"/>
		<path class="s10" d="m-111 259q0.49 0 1 0c0 33.66 0 67.32 0 102-5.57-5.57-5.57-5.57-5.67-11.18 0.02-1.2 0.02-1.2 0.04-2.43q-0.01-1.28-0.02-2.59-0.02-4.24 0.02-8.48 0-2.95-0.01-5.9 0-6.19 0.04-12.38 0.05-7.92 0.01-15.83-0.01-6.1 0.02-12.2 0-2.92-0.01-5.83 0-4.09 0.05-8.18-0.01-1.19-0.02-2.41c0.09-5.81 1.67-9.55 4.55-14.59z"/>
		<path class="s10" d="m-35 147q2.96 0 6 0c0 21.78 0 43.56 0 66q-2.96 0-6 0c0-21.78 0-43.56 0-66z"/>
		<path class="s11" d="m-83 596c7.59 0 15.18 0 23 0 0 3.96 0 7.92 0 12-7.59 0-15.18 0-23 0 0-3.96 0-7.92 0-12z"/>
		<path class="s11" d="m-83 534c7.59 0 15.18 0 23 0 0 3.63 0 7.26 0 11-7.59 0-15.18 0-23 0 0-3.63 0-7.26 0-11z"/>
		<path class="s3" d="m-98 554q2.96 0 6 0c0 10.89 0 21.78 0 33-2.31 0-4.62 0-7 0q-0.04-6.81-0.05-13.62-0.01-2.31-0.03-4.63-0.01-3.33-0.02-6.65-0.01-1.04-0.01-2.11 0.01-2.49 0.11-4.99 0.49-0.49 1-1z"/>
		<path class="s12" d="m-52 693c4.29 0 8.58 0 13 0-0.99 2.97-1.98 5.94-3 9-3.63 0.33-7.26 0.66-11 1 0.33-3.3 0.66-6.6 1-10z"/>
		<path class="s13" d="m-46 711c1.41 2.82 0.51 4.17-0.44 7.13q-0.43 1.35-0.87 2.75-0.34 1.05-0.69 2.12c-3.3 0-6.6 0-10 0 0.99-3.63 1.98-7.26 3-11 4.46-0.49 4.46-0.49 9-1z"/>
		<path class="s12" d="m-106 693c3.63 0 7.26 0 11 0 0.66 3.3 1.32 6.6 2 10-3.63-0.33-7.26-0.66-11-1-0.66-2.97-1.32-5.94-2-9z"/>
		<path class="s3" d="m-51 554q1.48 0 3 0c0 10.89 0 21.78 0 33q-1.48 0-3 0c0-10.89 0-21.78 0-33z"/>
		<path class="s13" d="m-101 711c2.97 0.33 5.94 0.66 9 1 0.66 3.63 1.32 7.26 2 11-2.64 0-5.28 0-8 0-0.99-3.96-1.98-7.92-3-12z"/>
		<path class="s10" d="m-111 406q0.49 0 1 0c0 3.63 0 7.26 0 11q-1.97 0-4 0c0.55-3.95 1.39-7.35 3-11z"/>
		<path class="s10" d="m-112 519q0.49 0 1 0c0 3.3 0 6.6 0 10q-1.97 0-4 0c0.51-3.72 1.12-6.73 3-10z"/>
		<path class="s10" d="m-35 407c2.57 3.85 2.55 6.43 3 11q-1.48 0-3 0c0-3.63 0-7.26 0-11z"/>
	</g>
</svg>