<?xml version="1.0" encoding="UTF-8"?>
<svg version="1.1" xmlns="http://www.w3.org/2000/svg" width="48" height="186">
<path d="M0 0 C0.89460938 -0.00128906 1.78921875 -0.00257812 2.7109375 -0.00390625 C3.65195312 -0.00003906 4.59296875 0.00382812 5.5625 0.0078125 C6.97402344 0.00201172 6.97402344 0.00201172 8.4140625 -0.00390625 C9.75597656 -0.00197266 9.75597656 -0.00197266 11.125 0 C11.95128906 0.00112793 12.77757813 0.00225586 13.62890625 0.00341797 C15.5625 0.1328125 15.5625 0.1328125 16.5625 1.1328125 C16.70979225 3.42818 16.79020452 5.72787863 16.84375 8.02734375 C16.87136414 9.08123543 16.87136414 9.08123543 16.89953613 10.15641785 C16.95843844 12.419295 17.01102861 14.68225497 17.0625 16.9453125 C16.03463089 33.13098193 16.03463089 33.13098193 19.5625 47.1328125 C19.66359266 49.72898638 19.70219694 52.29794898 19.6953125 54.89453125 C19.69674759 56.06965019 19.69674759 56.06965019 19.69821167 57.26850891 C19.69889383 58.93218058 19.69703707 60.59585489 19.69287109 62.25952148 C19.68755893 64.79221697 19.69279625 67.32473221 19.69921875 69.85742188 C19.69855727 71.47395872 19.69727468 73.09049546 19.6953125 74.70703125 C19.69733673 75.46038254 19.69936096 76.21373383 19.70144653 76.98991394 C19.68319268 81.14237364 19.37233187 85.05912498 18.5625 89.1328125 C20.8725 89.1328125 23.1825 89.1328125 25.5625 89.1328125 C26.125 91.0703125 26.125 91.0703125 26.5625 93.1328125 C25.5625 94.1328125 25.5625 94.1328125 22 94.1953125 C20.865625 94.1746875 19.73125 94.1540625 18.5625 94.1328125 C18.5625 98.4228125 18.5625 102.7128125 18.5625 107.1328125 C19.8825 107.4628125 21.2025 107.7928125 22.5625 108.1328125 C22.2325 109.7828125 21.9025 111.4328125 21.5625 113.1328125 C20.9025 113.1328125 20.2425 113.1328125 19.5625 113.1328125 C20.19320732 118.6081076 20.19320732 118.6081076 21.25 124.0078125 C21.353125 124.7090625 21.45625 125.4103125 21.5625 126.1328125 C20.5725 127.1228125 20.5725 127.1228125 19.5625 128.1328125 C16.89345066 139.99737991 17.17087769 152.4168889 17 164.5078125 C16.95599351 167.32134225 16.9094735 170.13476208 16.85719299 172.94815063 C16.8253228 174.68306973 16.79840587 176.41808843 16.77696228 178.15316772 C16.67447916 184.02083334 16.67447916 184.02083334 15.5625 185.1328125 C8.6325 185.1328125 1.7025 185.1328125 -5.4375 185.1328125 C-5.7675 169.2928125 -6.0975 153.4528125 -6.4375 137.1328125 C-7.0975 137.1328125 -7.7575 137.1328125 -8.4375 137.1328125 C-8.46062202 125.28516077 -8.47841437 113.43751436 -8.48931217 101.5898447 C-8.49454131 96.08910388 -8.50163951 90.58837845 -8.51293945 85.08764648 C-8.52376725 79.7838469 -8.5297766 74.48006215 -8.53237724 69.17625237 C-8.53423169 67.14795638 -8.53785267 65.11966124 -8.54323006 63.09137154 C-8.55043906 60.26084736 -8.551491 57.43038532 -8.55102539 54.59985352 C-8.55462067 53.75253159 -8.55821594 52.90520966 -8.56192017 52.0322113 C-8.55155216 46.24686466 -8.55155216 46.24686466 -7.4375 45.1328125 C-6.12873254 34.75249023 -6.13992078 24.18963159 -5.88525391 13.73876953 C-5.83382277 11.67727733 -5.77661206 9.61600765 -5.71875 7.5546875 C-5.68845703 6.34393555 -5.65816406 5.13318359 -5.62695312 3.88574219 C-5.32366278 -0.52134787 -4.01038521 0.00547439 0 0 Z " fill="#020101" transform="translate(17.4375,0.8671875)"/>
<path d="M0 0 C3.63 0 7.26 0 11 0 C11 12.54 11 25.08 11 38 C7.37 38 3.74 38 0 38 C0 25.46 0 12.92 0 0 Z " fill="#2D2D2D" transform="translate(17,93)"/>
<path d="M0 0 C3.96 0 7.92 0 12 0 C12 7.26 12 14.52 12 22 C8.04 22 4.08 22 0 22 C0 14.74 0 7.48 0 0 Z " fill="#532D1B" transform="translate(17,52)"/>
<path d="M0 0 C2.64 0 5.28 0 8 0 C7.67 13.2 7.34 26.4 7 40 C5.02 40 3.04 40 1 40 C0.67 26.8 0.34 13.6 0 0 Z " fill="#532E1D" transform="translate(19,138)"/>
<path d="M0 0 C1.98 0 3.96 0 6 0 C6.33 8.91 6.66 17.82 7 27 C4.36 27 1.72 27 -1 27 C-0.67 18.09 -0.34 9.18 0 0 Z " fill="#2D2D2D" transform="translate(20,18)"/>
<path d="M0 0 C1.98 0 3.96 0 6 0 C6 3.63 6 7.26 6 11 C4.02 11 2.04 11 0 11 C0 7.37 0 3.74 0 0 Z " fill="#4A4B4B" transform="translate(20,78)"/>
<path d="M0 0 C1.98 0 3.96 0 6 0 C6 1.65 6 3.3 6 5 C4.02 5 2.04 5 0 5 C0 3.35 0 1.7 0 0 Z " fill="#2A2A2A" transform="translate(20,84)"/>
<path d="M0 0 C2.31 0 4.62 0 7 0 C7 0.99 7 1.98 7 3 C4.69 3 2.38 3 0 3 C0 2.01 0 1.02 0 0 Z " fill="#020202" transform="translate(19,125)"/>
<path d="M0 0 C1.32 0 2.64 0 4 0 C4 1.65 4 3.3 4 5 C2.68 5 1.36 5 0 5 C0 3.35 0 1.7 0 0 Z " fill="#4B4B4B" transform="translate(21,9)"/>
</svg>
