<svg xmlns="http://www.w3.org/2000/svg" width="56" height="232"><path d="M16 112h24v30H16z" style="fill:#000;fill-opacity:1;stroke:none;stroke-width:3.99999;stroke-linecap:round"/><path d="M437.774 622.484h20.862l3 3v43.557h-26.862v-43.557z" style="fill:#472706;fill-opacity:1;stroke:#000;stroke-width:10.9938;stroke-linecap:round;stroke-dasharray:none;stroke-opacity:1" transform="matrix(.76898 0 0 .6886 -316.662 -285.102)"/><path d="M20 193.177h16v41.647H20z" style="fill:#472706;fill-opacity:1;stroke:#000;stroke-width:7;stroke-linecap:round;stroke-dasharray:none;stroke-opacity:1"/><path d="M423.022 655.918h38.366v31.194l-3 3h-32.366l-3-3z" style="fill:#000;fill-opacity:1;stroke:none;stroke-width:10.593;stroke-linecap:round;stroke-dasharray:none;stroke-opacity:1" transform="matrix(.70375 0 0 .52259 -283.2 -169.136)"/><path d="M25.5 195h5v10h-5z" style="fill:#000;fill-opacity:1;stroke:none;stroke-width:4.64689;stroke-linecap:round;stroke-dasharray:none;stroke-opacity:1"/><path d="M437.234 441.279h9.942a3 3 45 0 1 3 3v178.859h-15.942v-178.86a3 3 135 0 1 3-3z" style="fill:#505050;fill-opacity:1;stroke:#000;stroke-width:10.5486;stroke-linecap:round;stroke-dasharray:none;stroke-opacity:1" transform="matrix(.88494 0 0 .64994 -363.324 -260.243)"/><path d="M24.893 36h6.214v9h-6.214z" style="fill:#000;fill-opacity:1;stroke:none;stroke-width:3.74173;stroke-linecap:round;stroke-dasharray:none;stroke-opacity:1"/><path d="M13 106h30v8H13z" style="fill:#000;fill-opacity:1;stroke:none;stroke-width:3.74171;stroke-linecap:round;stroke-dasharray:none;stroke-opacity:1"/><path d="M440.71 627.106h2.989l3 3v18.315h-8.988v-18.315z" style="fill:#000;fill-opacity:1;stroke:none;stroke-width:5.23152;stroke-linecap:round;stroke-dasharray:none;stroke-opacity:1" transform="matrix(.77882 0 0 .65683 -316.396 -259.904)"/><path d="M15 210h26v18H15z" style="fill:#000;stroke-width:6.01571;stroke-linecap:round"/><path d="m39.5 74 2 32h-2zM16.494 73.572 14.5 105.999l1.994.001Z" style="fill:#000;stroke-width:5.80218;stroke-linecap:round"/></svg>