<?xml version="1.0" encoding="UTF-8" standalone="no"?>
<svg
   width="288"
   height="448"
   viewBox="0 0 76.200005 118.53348"
   version="1.1"
   id="svg139"
   sodipodi:docname="map-building-reserve-sideroom-ceiling-01.svg"
   inkscape:version="1.4 (e7c3feb1, 2024-10-09)"
   xmlns:inkscape="http://www.inkscape.org/namespaces/inkscape"
   xmlns:sodipodi="http://sodipodi.sourceforge.net/DTD/sodipodi-0.dtd"
   xmlns="http://www.w3.org/2000/svg"
   xmlns:svg="http://www.w3.org/2000/svg"
   xmlns:rdf="http://www.w3.org/1999/02/22-rdf-syntax-ns#"
   xmlns:cc="http://creativecommons.org/ns#"
   xmlns:dc="http://purl.org/dc/elements/1.1/">
  <metadata
     id="metadata143">
    <rdf:RDF>
      <cc:Work
         rdf:about="">
        <dc:format>image/svg+xml</dc:format>
        <dc:type
           rdf:resource="http://purl.org/dc/dcmitype/StillImage" />
      </cc:Work>
    </rdf:RDF>
  </metadata>
  <sodipodi:namedview
     pagecolor="#ffffff"
     bordercolor="#666666"
     borderopacity="1"
     objecttolerance="10"
     gridtolerance="10"
     guidetolerance="10"
     inkscape:pageopacity="0"
     inkscape:pageshadow="2"
     inkscape:window-width="1920"
     inkscape:window-height="1022"
     id="namedview141"
     showgrid="true"
     inkscape:showpageshadow="false"
     inkscape:zoom="1.1469832"
     inkscape:cx="47.080026"
     inkscape:cy="86.749307"
     inkscape:window-x="0"
     inkscape:window-y="128"
     inkscape:window-maximized="0"
     inkscape:current-layer="svg139"
     fit-margin-top="0"
     fit-margin-left="0"
     fit-margin-right="0"
     fit-margin-bottom="0"
     inkscape:object-paths="true"
     inkscape:snap-intersection-paths="true"
     inkscape:snap-smooth-nodes="true"
     inkscape:snap-midpoints="true"
     inkscape:pagecheckerboard="0"
     inkscape:deskcolor="#d1d1d1"
     showguides="true">
    <inkscape:grid
       type="xygrid"
       id="grid950"
       empspacing="8"
       spacingy="1.0583347"
       spacingx="1.0583333"
       originx="-5.8025057e-06"
       originy="8.4666796"
       units="px"
       visible="true" />
  </sodipodi:namedview>
  <defs
     id="defs95">
    <clipPath
       clipPathUnits="userSpaceOnUse"
       id="clipPath21">
      <path
         sodipodi:nodetypes="ccccc"
         style="fill:#3a3a3a;fill-opacity:1;stroke-width:2.11702;stroke-opacity:0.706"
         inkscape:connector-curvature="0"
         id="path26"
         d="M 9.3799998e-5,8.4666307 16.933334,25.40001 135.4673,25.399906 152.40033,8.4666058 Z" />
    </clipPath>
    <clipPath
       clipPathUnits="userSpaceOnUse"
       id="clipPath26">
      <path
         sodipodi:nodetypes="ccccc"
         style="fill:#3a3a3a;fill-opacity:1;stroke-width:2.11702;stroke-opacity:0.706"
         inkscape:connector-curvature="0"
         id="path37"
         d="M 152.40057,110.06662 135.46733,93.133244 H 16.933334 L 2.989993e-4,110.06654 Z" />
    </clipPath>
    <clipPath
       clipPathUnits="userSpaceOnUse"
       id="clipPath47">
      <path
         sodipodi:nodetypes="ccccc"
         style="fill:#3a3a3a;fill-opacity:1;stroke-width:2.11702;stroke-opacity:0.706"
         inkscape:connector-curvature="0"
         id="path64"
         d="M -9.9860409e-5,110.06657 16.933285,93.133336 16.933396,-110.06754 9.0640679e-5,-127.00058 Z" />
    </clipPath>
    <clipPath
       clipPathUnits="userSpaceOnUse"
       id="clipPath66">
      <path
         inkscape:connector-curvature="0"
         id="path68"
         d="m 16.933432,228.60085 -4e-6,-203.20079 118.533872,-1.54e-4 V 228.60107 Z"
         style="fill:#565656;stroke-width:0.804076;stroke-opacity:0.706"
         sodipodi:nodetypes="ccccc" />
    </clipPath>
    <clipPath
       clipPathUnits="userSpaceOnUse"
       id="clipPath48">
      <path
         id="path70"
         d="M 270.93174,287.90901 253.99848,270.97575 V 152.40034 l 16.93326,-16.93326 v 59.30902 h -6.34999 l -2.11664,2.03199 v 29.6332 l 2.11664,2.20133 h 6.34999 z"
         style="fill:#3a3a3a;fill-opacity:1;fill-rule:nonzero;stroke:none;stroke-width:0.264584"
         inkscape:connector-curvature="0"
         sodipodi:nodetypes="ccccccccccc" />
    </clipPath>
    <clipPath
       clipPathUnits="userSpaceOnUse"
       id="clipPath1">
      <path
         sodipodi:nodetypes="ccccccccccc"
         style="fill:#3a3a3a;fill-opacity:1;stroke-width:2.11702;stroke-opacity:0.706"
         inkscape:connector-curvature="0"
         id="path2"
         d="M -7.2693269e-5,245.53421 16.933308,228.60098 16.933334,25.400005 3.2799998e-5,8.4669725 -1.6140693e-4,22.224349 3.1751636,25.399358 V 42.332734 L -1.6140693e-4,45.507744 3.1748536,42.332736 -1.6140693e-4,45.507744 Z" />
    </clipPath>
  </defs>
  <path
     inkscape:connector-curvature="0"
     id="path2443-2-1-5-8-1"
     d="m -575.7346,-44.573527 h 237.06694 V -120.77362 H -575.7346 Z"
     style="fill:none;fill-opacity:1;stroke-width:4.049"
     sodipodi:nodetypes="ccccc" />
  <path
     d="m 101.59985,524.93426 -8e-5,389.4667 355.60012,-1e-5 8e-5,-389.4667 H 321.73326 v -25.4 h -84.66668 v 25.4 z"
     id="path208-2"
     inkscape:connector-curvature="0"
     style="fill:none;fill-opacity:1"
     sodipodi:nodetypes="ccccccccc" />
  <path
     sodipodi:nodetypes="ccccccccccccc"
     style="fill:#000000;fill-opacity:1;stroke-width:0.761775"
     d="M 76.199986,-4.7367906e-5 76.199896,118.53329 l -29.633228,2e-4 v -8.46668 H 29.633316 l -0.04234,8.46667 -29.5910802249,-4e-5 L 8.7074094e-5,18.520648 1.5873775,16.933056 1.5875325,8.4664049 8.7074094e-5,6.879002 -9.0284873e-5,1.0589775e-4 Z"
     id="path2443"
     inkscape:connector-curvature="0" />
  <path
     clip-path="url(#clipPath1)"
     sodipodi:nodetypes="ccccccccc"
     style="fill:#3a3a3a;fill-opacity:1;stroke:#000000;stroke-width:2.11667;stroke-miterlimit:4;stroke-dasharray:none;stroke-opacity:1"
     inkscape:connector-curvature="0"
     id="path1091"
     d="M -7.2693268e-5,245.53421 16.933308,228.60098 16.933333,25.400005 3.28e-5,8.4669725 1.5859459e-4,22.224349 3.1751636,25.399358 3.1748536,42.332736 2.5859504e-4,45.507934 Z"
     transform="matrix(0.49999777,0,0,0.49999777,-4.2222847e-5,-4.2332175)" />
  <path
     transform="matrix(-0.49999777,0,0,-0.49999777,76.199966,55.033237)"
     d="M -9.72e-5,110.06657 16.933283,93.133337 16.933389,-110.06754 8.895525e-5,-127.00057 Z"
     id="path1141"
     inkscape:connector-curvature="0"
     style="fill:#3a3a3a;fill-opacity:1;stroke:#000000;stroke-width:2.11667;stroke-miterlimit:4;stroke-dasharray:none;stroke-opacity:1"
     sodipodi:nodetypes="ccccc"
     clip-path="url(#clipPath47)" />
  <path
     transform="matrix(0.49999777,0,0,0.49999777,-4.168509e-5,-4.2332659)"
     clip-path="url(#clipPath21)"
     sodipodi:nodetypes="ccccc"
     style="fill:#3a3a3a;fill-opacity:1;stroke:#000000;stroke-width:2.11667;stroke-miterlimit:4;stroke-dasharray:none;stroke-opacity:1"
     inkscape:connector-curvature="0"
     id="path1018"
     d="M 9.38e-5,8.4666308 16.933333,25.40001 135.4673,25.399905 152.40034,8.4666059 Z" />
  <path
     transform="matrix(0.49999777,0,0,0.49999777,-5.5128266e-5,80.4338)"
     clip-path="url(#clipPath26)"
     sodipodi:nodetypes="ccccc"
     style="fill:#3a3a3a;fill-opacity:1;stroke:#000000;stroke-width:2.11667;stroke-miterlimit:4;stroke-dasharray:none;stroke-opacity:1"
     inkscape:connector-curvature="0"
     id="path1024"
     d="M 152.40057,110.06662 135.46733,93.133246 16.933334,93.133245 2.99e-4,110.06654 Z" />
  <path
     transform="matrix(0.49999777,0,0,0.49999777,-4.168509e-5,-4.2332659)"
     clip-path="url(#clipPath66)"
     inkscape:connector-curvature="0"
     id="path1030"
     d="m 16.933432,228.60084 -4e-6,-203.20078 118.533872,-1.54e-4 V 228.60108 Z"
     style="fill:#565656;stroke:#000000;stroke-width:2.11667;stroke-miterlimit:4;stroke-dasharray:none;stroke-opacity:1"
     sodipodi:nodetypes="ccccc" />
  <path
     sodipodi:nodetypes="ccccccccccc"
     inkscape:connector-curvature="0"
     style="fill:#3a3a3a;fill-opacity:1;fill-rule:nonzero;stroke:#000000;stroke-width:2.11667;stroke-miterlimit:4;stroke-dasharray:none;stroke-opacity:1"
     d="M 270.93174,287.90901 253.99848,270.97575 V 152.40034 l 16.93326,-16.93326 0,59.30902 -6.34997,0 -2.11665,2.03199 v 29.6332 l 2.11665,2.20133 6.34995,0.0847 z"
     id="path867"
     clip-path="url(#clipPath48)"
     transform="matrix(0,0.50000284,-0.50000283,0,143.95527,-16.93315)" />
</svg>
