<?xml version="1.0" encoding="UTF-8" standalone="no"?>
<svg
   width="80"
   height="320"
   viewBox="0 0 21.167 84.667143"
   version="1.1"
   id="svg17"
   sodipodi:docname="map-door-06.svg"
   inkscape:version="1.4.4 (dcaf3e7, 2026-05-05)"
   xmlns:inkscape="http://www.inkscape.org/namespaces/inkscape"
   xmlns:sodipodi="http://sodipodi.sourceforge.net/DTD/sodipodi-0.dtd"
   xmlns="http://www.w3.org/2000/svg"
   xmlns:svg="http://www.w3.org/2000/svg">
  <sodipodi:namedview
     id="namedview17"
     pagecolor="#ffffff"
     bordercolor="#999999"
     borderopacity="1"
     inkscape:showpageshadow="0"
     inkscape:pageopacity="0"
     inkscape:pagecheckerboard="0"
     inkscape:deskcolor="#d1d1d1"
     showgrid="true"
     inkscape:zoom="2.8284271"
     inkscape:cx="-30.759145"
     inkscape:cy="194.9847"
     inkscape:window-width="2560"
     inkscape:window-height="1377"
     inkscape:window-x="-8"
     inkscape:window-y="-8"
     inkscape:window-maximized="1"
     inkscape:current-layer="svg17">
    <inkscape:grid
       id="grid20"
       units="px"
       originx="0"
       originy="0"
       spacingx="0.2645875"
       spacingy="0.26458482"
       empcolor="#0099e5"
       empopacity="0.30196078"
       color="#0099e5"
       opacity="0.14901961"
       empspacing="5"
       enabled="true"
       visible="true" />
  </sodipodi:namedview>
  <defs
     id="defs6">
    <clipPath
       id="g">
      <circle
         cy="-1.1390001"
         cx="152.584"
         fill="#8e8380"
         stroke-width="0.873"
         id="ellipse2"
         r="2.1170001" />
    </clipPath>
    <clipPath
       id="b">
      <path
         d="m -0.998,158.934 h 50.8 c 2.116,0 4.233,2.116 4.233,4.233 v 2.117 H -5.232 v -2.117 c 0,-2.117 2.117,-4.233 4.234,-4.233 z"
         fill="#756b68"
         stroke-width="2.117"
         id="path3" />
    </clipPath>
    <clipPath
       clipPathUnits="userSpaceOnUse"
       id="clipPath33">
      <path
         d="m 54.056,170.84 v -6.88 h -84.687569 v 6.88 z"
         fill="#8e8380"
         stroke-width="1.207"
         id="path33"
         sodipodi:nodetypes="ccccc" />
    </clipPath>
    <clipPath
       clipPathUnits="userSpaceOnUse"
       id="clipPath34">
      <path
         d="m 49.802,175.867 h -76.199568 c -2.116999,0 -4.234001,-2.117 -4.234001,-4.233 v -2.117 H 54.035 v 2.117 c 0,2.116 -2.117,4.233 -4.233,4.233 z"
         fill="#ada5a3"
         stroke-width="2.117"
         id="path34"
         sodipodi:nodetypes="sssccss" />
    </clipPath>
    <clipPath
       clipPathUnits="userSpaceOnUse"
       id="clipPath35">
      <path
         d="m -10.503,129.27843 h 6.8800001 l 2.6449999,2.646 v 27.78156 c 0,2.117 -2.116,4.234 -4.2330001,4.234 H -10.503 Z"
         clip-path="none"
         fill="#8e8380"
         stroke-width="3.08599"
         id="path35"
         sodipodi:nodetypes="cccsscc" />
    </clipPath>
    <clipPath
       clipPathUnits="userSpaceOnUse"
       id="clipPath1">
      <g
         inkscape:label="Clip"
         id="use2">
        <path
           d="M -26.410852,158.934 H 49.802 c 2.116,0 4.233,2.116 4.233,4.233 l -0.01948,0.79456 0.01957,1.32244 h -84.65794 v -2.117 c 0,-2.35739 2.096,-4.233 4.213,-4.233 z"
           clip-path="none"
           transform="matrix(0,-1.00035,1,0,-154.701,54.034)"
           fill="#756b68"
           stroke="#191919"
           stroke-width="3.174"
           id="path1"
           sodipodi:nodetypes="csscccscc"
           style="fill:#2e343a;fill-opacity:1" />
      </g>
    </clipPath>
    <clipPath
       clipPathUnits="userSpaceOnUse"
       id="clipPath2">
      <path
         d="M -26.388938,158.934 H 49.802 c 2.116,0 4.233,2.116 4.233,4.233 v 2.117 h -84.657939 v -2.117 c 0,-2.117 2.117002,-4.233 4.234001,-4.233 z"
         fill="#756b68"
         stroke-width="2.117"
         id="path4"
         sodipodi:nodetypes="sssccss" />
    </clipPath>
  </defs>
  <path
     clip-path="url(#clipPath35)"
     d="m -10.503,129.27843 h 6.88 l 2.645,2.646 v 27.78156 c 0,2.117 -2.116,4.234 -4.233,4.234 h -5.292 z"
     fill="#8e8380"
     stroke="#191919"
     stroke-width="2.117"
     id="path7"
     sodipodi:nodetypes="cccsscc"
     transform="rotate(180,-0.4885,106.973)"
     style="fill:#667380;fill-opacity:1" />
  <path
     d="M -26.410939,158.934 H 49.802 c 2.116,0 4.233,2.116 4.233,4.233 v 2.117 h -84.657939 v -2.117 c 0,-2.117 2.096,-4.233 4.213,-4.233 z"
     clip-path="url(#clipPath2)"
     transform="matrix(0,-1.00035,1,0,-154.9665,54.033912)"
     fill="#756b68"
     stroke="#191919"
     stroke-width="3.174"
     id="path8-8"
     sodipodi:nodetypes="cssccscc"
     style="fill:#2e343a;fill-opacity:1" />
  <path
     d="m 49.802,175.867 -76.199568,0 c -2.117,0 -4.234,-2.117 -4.234,-4.233 v -2.117 l 84.666568,0 v 2.117 c 0,2.116 -2.117,4.233 -4.233,4.233 z"
     clip-path="url(#clipPath34)"
     transform="rotate(-90,-50.3325,104.3685)"
     fill="#ada5a3"
     stroke="#191919"
     stroke-width="3.175"
     id="path9"
     sodipodi:nodetypes="sssccss"
     style="fill:#5e6a75;fill-opacity:1" />
  <path
     clip-path="url(#clipPath33)"
     d="m 54.056,170.84 v -6.88 h -84.687568 v 6.88 z"
     fill="#8e8380"
     stroke="#191919"
     stroke-width="3.175"
     id="path10"
     sodipodi:nodetypes="ccccc"
     style="fill:#4a545f;fill-opacity:1"
     transform="rotate(-90,-50.3325,104.3685)" />
  <ellipse
     cx="-55.034"
     cy="17.990999"
     rx="1.038"
     ry="1.058"
     transform="rotate(-90)"
     fill="#363636"
     id="ellipse10"
     style="fill:#343a41;fill-opacity:1" />
  <ellipse
     ry="1.058"
     rx="1.038"
     cy="17.990999"
     cx="-46.567005"
     transform="rotate(-90)"
     fill="#363636"
     id="ellipse11"
     style="fill:#343a41;fill-opacity:1" />
  <ellipse
     cx="-38.121006"
     cy="17.990999"
     rx="1.038"
     ry="1.058"
     transform="rotate(-90)"
     fill="#363636"
     id="ellipse12"
     style="fill:#343a41;fill-opacity:1" />
  <ellipse
     ry="1.058"
     rx="1.038"
     cy="17.990999"
     cx="-29.612995"
     transform="rotate(-90)"
     fill="#363636"
     id="ellipse13"
     style="fill:#343a41;fill-opacity:1" />
  <ellipse
     cx="-80.455002"
     cy="17.990999"
     rx="1.038"
     ry="1.058"
     transform="rotate(-90)"
     fill="#363636"
     id="ellipse10-9"
     style="fill:#343a41;fill-opacity:1" />
  <ellipse
     ry="1.058"
     rx="1.038"
     cy="17.990999"
     cx="-71.988007"
     transform="rotate(-90)"
     fill="#363636"
     id="ellipse11-4"
     style="fill:#343a41;fill-opacity:1" />
  <ellipse
     cx="-63.542011"
     cy="17.990999"
     rx="1.038"
     ry="1.058"
     transform="rotate(-90)"
     fill="#363636"
     id="ellipse12-8"
     style="fill:#343a41;fill-opacity:1" />
  <ellipse
     cx="-21.147007"
     cy="17.990999"
     rx="1.038"
     ry="1.058"
     transform="rotate(-90)"
     fill="#363636"
     id="ellipse14"
     style="fill:#343a41;fill-opacity:1" />
  <ellipse
     ry="1.058"
     rx="1.038"
     cy="17.990999"
     cx="-12.700993"
     transform="rotate(-90)"
     fill="#363636"
     id="ellipse15"
     style="fill:#343a41;fill-opacity:1" />
  <ellipse
     cx="-4.2130013"
     cy="17.990999"
     rx="1.038"
     ry="1.058"
     transform="rotate(-90)"
     fill="#363636"
     id="ellipse16"
     style="fill:#343a41;fill-opacity:1" />
  <circle
     transform="matrix(0,-1.1227,1.1227,0,3.654,253.69699)"
     clip-path="url(#g)"
     fill="#8e8380"
     stroke="#191919"
     stroke-width="2.117"
     id="ellipse17"
     r="2.1170001"
     cy="-1.1390001"
     cx="152.584"
     style="fill:#667380;fill-opacity:1" />
</svg>
