<?xml version="1.0" encoding="UTF-8" standalone="no"?>
<svg
   width="160"
   height="132"
   viewBox="0 0 42.333 34.925344"
   version="1.1"
   id="svg8"
   sodipodi:docname="map-stairs-broken-03.svg"
   inkscape:version="1.4 (e7c3feb1, 2024-10-09)"
   xmlns:inkscape="http://www.inkscape.org/namespaces/inkscape"
   xmlns:sodipodi="http://sodipodi.sourceforge.net/DTD/sodipodi-0.dtd"
   xmlns="http://www.w3.org/2000/svg"
   xmlns:svg="http://www.w3.org/2000/svg">
  <sodipodi:namedview
     id="namedview8"
     pagecolor="#ffffff"
     bordercolor="#000000"
     borderopacity="0.25"
     inkscape:showpageshadow="2"
     inkscape:pageopacity="0.0"
     inkscape:pagecheckerboard="0"
     inkscape:deskcolor="#d1d1d1"
     inkscape:zoom="2.561792"
     inkscape:cx="55.039597"
     inkscape:cy="78.655879"
     inkscape:window-width="1920"
     inkscape:window-height="1022"
     inkscape:window-x="0"
     inkscape:window-y="128"
     inkscape:window-maximized="1"
     inkscape:current-layer="svg8" />
  <defs
     id="defs4">
    <clipPath
       clipPathUnits="userSpaceOnUse"
       id="clipPath85">
      <path
         d="m -22.25,168.075 1.14e-4,-3.70416 -2.328407,-4.23334 -8.149422,-1.588 -36.090284,5.3e-4 v 9.525 z"
         clip-path="url(#clipPath6865)"
         id="path87"
         inkscape:connector-curvature="0"
         style="fill:#a3977d;stroke-width:2.081"
         sodipodi:nodetypes="ccccccc" />
    </clipPath>
    <clipPath
       id="g-9-9-0-3-3">
      <path
         d="m -22.25,168.075 v -9.525 h -46.568 v 9.525 z"
         clip-path="url(#clipPath6865)"
         id="path5-4-2-7-7-2"
         inkscape:connector-curvature="0"
         style="fill:#a3977d;stroke-width:2.081" />
    </clipPath>
    <clipPath
       clipPathUnits="userSpaceOnUse"
       id="clipPath89">
      <path
         d="m -35.056121,168.07179 -2.328407,-3.70097 2.328407,-2.11668 -4.656813,-3.70106 -29.105065,-0.003 v 9.525 z"
         clip-path="url(#clipPath6865)"
         id="path91"
         inkscape:connector-curvature="0"
         style="fill:#a3977d;stroke-width:2.081"
         sodipodi:nodetypes="ccccccc" />
    </clipPath>
    <clipPath
       clipPathUnits="userSpaceOnUse"
       id="clipPath94">
      <path
         d="m -33.892032,168.075 6.985333,-3.70418 -1.164317,-5.82082 h -34.925967 l -5.821033,3.70414 1.7e-5,5.82086 z"
         clip-path="url(#clipPath6865)"
         id="path95"
         inkscape:connector-curvature="0"
         style="fill:#a3977d;stroke-width:2.081"
         sodipodi:nodetypes="ccccccc" />
    </clipPath>
  </defs>
  <path
     d="m -22.25,168.075 v -3.70416 l -2.328293,-4.23335 -8.149423,-1.58799 -36.090284,5e-4 v 9.525 z"
     clip-path="url(#clipPath85)"
     transform="matrix(-0.90907138,0,0,-1.0000065,-20.227213,176.54286)"
     id="path56-7-8-9-4"
     inkscape:connector-curvature="0"
     style="fill:#542716;fill-opacity:1;stroke:#000000;stroke-width:2.117;stroke-opacity:0.706"
     sodipodi:nodetypes="ccccccc" />
  <path
     transform="matrix(-0.90907138,0,0,-1.0000065,-20.227213,168.07609)"
     clip-path="url(#g-9-9-0-3-3)"
     d="m -22.25,168.075 v -9.525 h -46.568 v 9.525 z"
     id="path58-8-7-0-3"
     inkscape:connector-curvature="0"
     style="fill:#512416;fill-opacity:1;stroke:#000000;stroke-width:2.117;stroke-opacity:0.706" />
  <path
     transform="matrix(-0.90907138,0,0,-1.0000065,-20.227213,185.00958)"
     clip-path="url(#clipPath89)"
     d="m -35.056122,168.0718 -2.328406,-3.70099 2.328406,-2.11667 -4.656813,-3.70106 L -68.818,158.55 v 9.525 z"
     id="path54-9-4-3-5"
     inkscape:connector-curvature="0"
     style="fill:#572917;fill-opacity:1;stroke:#000000;stroke-width:2.11706;stroke-dasharray:none;stroke-opacity:0.706"
     sodipodi:nodetypes="ccccccc" />
  <path
     style="fill:#5a2c1a;fill-opacity:1;stroke:#000000;stroke-width:2.117;stroke-opacity:0.706"
     inkscape:connector-curvature="0"
     id="path916-4-2-4"
     d="m -33.892032,168.075 6.985332,-3.70418 -1.164316,-5.82082 h -34.925968 l -5.821031,3.70414 1.5e-5,5.82086 z"
     clip-path="url(#clipPath94)"
     transform="matrix(-0.90907138,0,0,-1.0000065,-20.227213,193.47633)"
     sodipodi:nodetypes="ccccccc" />
</svg>
