<?xml version="1.0" encoding="UTF-8" standalone="no"?>
<svg
   width="128"
   height="128"
   viewBox="0 0 33.867 33.867"
   version="1.1"
   id="svg9"
   sodipodi:docname="map-toilet-res-03.svg"
   inkscape:version="1.4 (e7c3feb1, 2024-10-09)"
   xmlns:inkscape="http://www.inkscape.org/namespaces/inkscape"
   xmlns:sodipodi="http://sodipodi.sourceforge.net/DTD/sodipodi-0.dtd"
   xmlns="http://www.w3.org/2000/svg"
   xmlns:svg="http://www.w3.org/2000/svg">
  <sodipodi:namedview
     id="namedview9"
     pagecolor="#ffffff"
     bordercolor="#999999"
     borderopacity="1"
     inkscape:showpageshadow="0"
     inkscape:pageopacity="0"
     inkscape:pagecheckerboard="0"
     inkscape:deskcolor="#d1d1d1"
     inkscape:zoom="2.3378906"
     inkscape:cx="7.6992482"
     inkscape:cy="22.456141"
     inkscape:window-width="1920"
     inkscape:window-height="1022"
     inkscape:window-x="0"
     inkscape:window-y="128"
     inkscape:window-maximized="1"
     inkscape:current-layer="svg9" />
  <defs
     id="defs5">
    <clipPath
       id="a">
      <path
         d="M11.392 286.1l-1.216.532c-.002 5.291 3.83 12.166 8.624 12.166 4.26 0 8.625-6.875 8.625-12.166l-.688-.531-1.058.808-1.058-1.337-1.338.315c.078.41.124.835.124 1.274 0 3.103-2.046 7.055-4.607 7.055-2.56 0-4.606-3.952-4.606-7.055 0-.335.028-.662.074-.981l-.76-.608-1.058 1.587z"
         fill="#939393"
         stroke-width="2.96"
         id="path1" />
    </clipPath>
    <clipPath
       id="d">
      <path
         d="M11.392 286.1l-1.216.532c-.002 5.291 3.83 12.166 8.624 12.166 4.26 0 8.625-6.875 8.625-12.166l-.688-.531-1.058.808-1.058-1.337-1.338.315c.078.41.124.835.124 1.274 0 3.103-2.046 7.055-4.607 7.055-2.56 0-4.606-3.952-4.606-7.055 0-.335.028-.662.074-.981l-.76-.608-1.058 1.587z"
         clip-path="url(#a)"
         fill="#939393"
         stroke-width="2.96"
         id="path2" />
    </clipPath>
    <clipPath
       id="e">
      <path
         d="M15.346 274.246c-4.764 0-8.615 4.225-8.62 9.517l1.214-.53 1.058 1.06 1.059-1.588.76.604c.382-2.632 2.263-4.63 4.531-4.63 2.185 0 4.01 1.853 4.484 4.341l1.337-.315 1.059 1.337 1.058-.808.685.53c0-5.293-3.969-9.518-8.625-9.518z"
         fill="#939393"
         stroke-width="2.96"
         id="path3" />
    </clipPath>
    <clipPath
       id="c">
      <path
         d="M28.84 267.61v2.711c0 .904-.807 1.808-1.808 1.808h-9.04l.904-1.356-2.712-2.26 1.808-1.808-.904-2.26.904-1.356c4.068 0 10.848 2.285 10.848 4.52z"
         fill="#424242"
         stroke-width="3.222"
         id="path4" />
    </clipPath>
    <clipPath
       id="b">
      <path
         d="M7.056 272.57c-1-.062-1.808-.904-1.808-1.808v-2.712c0-2.712 6.78-4.52 10.847-4.52l-.904 1.356.904 2.26-1.807 1.808 2.711 2.26-.904 1.356z"
         fill="#424242"
         stroke-width="3.222"
         id="path5" />
    </clipPath>
  </defs>
  <path
     d="m 7.056,272.57 c -1,-0.062 -1.808,-0.904 -1.808,-1.808 v -2.712 c 0,-2.712 6.78,-4.52 10.847,-4.52 l -0.904,1.356 0.904,2.26 -1.807,1.808 2.711,2.26 -0.904,1.356 z"
     clip-path="url(#b)"
     transform="matrix(0.88889287,-0.09400681,0.09400681,0.88889287,-25.814779,-227.65085)"
     fill="#ffffff"
     id="path6"
     style="stroke:#2d2d2d;stroke-width:2.117;fill:#d89d1e;fill-opacity:1" />
  <path
     d="m 28.84,267.61 v 2.711 c 0,0.904 -0.807,1.808 -1.808,1.808 h -9.04 l 0.904,-1.356 -2.712,-2.26 1.808,-1.808 -0.904,-2.26 0.904,-1.356 c 4.068,0 10.848,2.285 10.848,4.52 z"
     clip-path="url(#c)"
     transform="matrix(0.84474973,0.29217412,-0.29217412,0.84474973,83.459988,-225.48969)"
     fill="#fafafa"
     id="path7"
     style="stroke:#2d2d2d;stroke-width:2.117;fill:#d89d1e;fill-opacity:1" />
  <path
     transform="matrix(0.83289417,-0.32443047,0.32443047,0.83289417,-87.788523,-212.8984)"
     clip-path="url(#d)"
     d="m 11.392,286.1 -1.216,0.532 c -0.002,5.291 3.83,12.166 8.624,12.166 4.26,0 8.625,-6.875 8.625,-12.166 l -0.688,-0.531 -1.058,0.808 -1.058,-1.337 -1.338,0.315 c 0.078,0.41 0.124,0.835 0.124,1.274 0,3.103 -2.046,7.055 -4.607,7.055 -2.56,0 -4.606,-3.952 -4.606,-7.055 0,-0.335 0.028,-0.662 0.074,-0.981 l -0.76,-0.608 -1.058,1.587 z"
     fill="#ffffff"
     id="path8"
     style="stroke:#2d2d2d;stroke-width:2.117;fill:#d89d1e;fill-opacity:1" />
  <path
     d="m 15.346,274.246 c -4.764,0 -8.615,4.225 -8.62,9.517 l 1.214,-0.53 1.058,1.06 1.059,-1.588 0.76,0.604 c 0.382,-2.632 2.263,-4.63 4.531,-4.63 2.185,0 4.01,1.853 4.484,4.341 l 1.337,-0.315 1.059,1.337 1.058,-0.808 0.685,0.53 c 0,-5.293 -3.969,-9.518 -8.625,-9.518 z"
     clip-path="url(#e)"
     transform="matrix(0.70468025,-0.54990323,0.54990323,0.70468025,-151.04035,-168.94374)"
     fill="#ffffff"
     id="path9"
     style="stroke:#2d2d2d;stroke-width:2.117;fill:#d89d1e;fill-opacity:1" />
</svg>
