<?xml version="1.0" encoding="UTF-8" standalone="no"?>
<svg width="352" height="1152" viewBox="0 0 93.133338 304.8004" version="1.1" id="svg139" sodipodi:docname="map-building-reserve-basement-floor-03.svg" inkscape:version="1.4.4 (dcaf3e7d9e, 2026-05-05)" xmlns:inkscape="http://www.inkscape.org/namespaces/inkscape" xmlns:sodipodi="http://sodipodi.sourceforge.net/DTD/sodipodi-0.dtd" xmlns:xlink="http://www.w3.org/1999/xlink" xmlns="http://www.w3.org/2000/svg" xmlns:svg="http://www.w3.org/2000/svg" xmlns:rdf="http://www.w3.org/1999/02/22-rdf-syntax-ns#" xmlns:cc="http://creativecommons.org/ns#" xmlns:dc="http://purl.org/dc/elements/1.1/">
  <metadata id="metadata143">
    <rdf:RDF>
      <cc:Work rdf:about="">
        <dc:format>image/svg+xml</dc:format>
        <dc:type rdf:resource="http://purl.org/dc/dcmitype/StillImage" />
      </cc:Work>
    </rdf:RDF>
  </metadata>
  <sodipodi:namedview pagecolor="#ffffff" bordercolor="#666666" borderopacity="1" objecttolerance="10" gridtolerance="10" guidetolerance="10" inkscape:pageopacity="0" inkscape:pageshadow="2" inkscape:window-width="1920" inkscape:window-height="1008" id="namedview141" showgrid="true" inkscape:showpageshadow="false" inkscape:zoom="0.96357786" inkscape:cx="273.9789" inkscape:cy="731.12929" inkscape:window-x="0" inkscape:window-y="44" inkscape:window-maximized="1" inkscape:current-layer="svg139" fit-margin-top="0" fit-margin-left="0" fit-margin-right="0" fit-margin-bottom="0" inkscape:object-paths="true" inkscape:snap-intersection-paths="true" inkscape:snap-smooth-nodes="true" inkscape:snap-midpoints="true" inkscape:pagecheckerboard="0" inkscape:deskcolor="#d1d1d1" showguides="false">
    <inkscape:grid type="xygrid" id="grid950" empspacing="8" spacingy="1.0583347" spacingx="1.0583333" originx="-5.8025057e-06" originy="8.4666796" units="px" visible="true" />
    <inkscape:page x="0" y="0" width="93.133339" height="304.80042" id="page2" margin="0" bleed="0" />
  </sodipodi:namedview>
  <defs id="defs95">
    <filter inkscape:collect="always" style="color-interpolation-filters:sRGB" id="filter1263-7-6" x="-0.0035217393" width="1.0070435" y="-0.0058909086" height="1.0117818">
      <feGaussianBlur inkscape:collect="always" stdDeviation="1.143" id="feGaussianBlur1265-3-2" />
    </filter>
    <pattern inkscape:collect="always" xlink:href="#pattern238-2" preserveAspectRatio="xMidYMid" id="pattern239-3" patternTransform="matrix(0.1873833,0.1873833,-0.1873833,0.1873833,89.533319,1944.5332)" x="0" y="0" />
    <pattern patternUnits="userSpaceOnUse" width="80.000288" height="80.000033" patternTransform="translate(351.99992,2080)" preserveAspectRatio="xMidYMid" id="pattern238-2" inkscape:label="pattern238">
      <rect id="rect225-2" y="2.5122385e-05" x="-80.000031" height="80.000267" width="79.999924" style="fill:none;stroke:none;stroke-width:3.77952" transform="rotate(-90)" />
      <rect style="fill:none;stroke:none;stroke-width:3.77952" width="79.999924" height="80.000267" x="-80.000031" y="2.5122385e-05" id="rect226-1" transform="rotate(-90)" />
      <rect id="rect227-1" y="2.5122385e-05" x="-80.000031" height="80.000267" width="79.999908" style="fill:none;stroke:none;stroke-width:3.77952" transform="rotate(-90)" />
      <rect id="rect228-1" y="2.5122385e-05" x="-80.000031" height="80.000267" width="79.999908" style="fill:none;stroke:none;stroke-width:3.77952" transform="rotate(-90)" />
      <rect style="fill:none;stroke:none;stroke-width:3.77952" width="79.999908" height="80.000267" x="-80.000031" y="2.5122385e-05" id="rect229-2" transform="rotate(-90)" />
      <rect style="fill:#6c6c6c;fill-opacity:1;stroke:none;stroke-width:20;stroke-miterlimit:4;stroke-dasharray:none;stroke-opacity:0.681818" id="rect230-3" width="79.999908" height="79.999969" x="-80.000031" y="0.00025580614" transform="rotate(-90)" />
      <rect style="fill:none;stroke:none;stroke-width:3.77952" width="79.999908" height="80.000031" x="-80.000031" y="0.00025580614" id="rect231-3" transform="rotate(-90)" />
      <rect style="fill:none;stroke:none;stroke-width:3.77952" width="79.999901" height="80.000015" x="-80.000031" y="2.5122385e-05" id="rect232-0" transform="rotate(-90)" />
      <rect style="fill:none;stroke:none;stroke-width:3.77952" width="63.999916" height="63.999981" x="-64.000038" y="2.5122385e-05" id="rect233-0" transform="rotate(-90)" />
      <path style="fill:#4d4d4d;fill-opacity:1;stroke:none;stroke-width:8;stroke-miterlimit:4;stroke-dasharray:none;stroke-opacity:0.681818" d="M 0,79.999986 6.8031409e-5,64.000019 64.00008,64.000095 64.000042,7.5590454e-5 79.999971,0 v 79.999986 z" id="path233-4" inkscape:connector-curvature="0" sodipodi:nodetypes="ccccccc" />
      <rect style="fill:#5e5e5e;fill-opacity:1;stroke:none;stroke-width:8;stroke-miterlimit:4;stroke-dasharray:none;stroke-opacity:0.681818" id="rect234-5" width="31.999971" height="31.999971" x="-32.000278" y="2.5122385e-05" transform="rotate(-90)" />
      <rect style="fill:#5e5e5e;fill-opacity:1;stroke:none;stroke-width:8;stroke-miterlimit:4;stroke-dasharray:none;stroke-opacity:0.681818" id="rect235-7" width="31.999971" height="31.999971" x="-64.000038" y="32.000046" transform="rotate(-90)" />
    </pattern>
    <pattern inkscape:collect="always" xlink:href="#pattern238-2" preserveAspectRatio="xMidYMid" id="pattern240-0" patternTransform="matrix(0.1873833,0.1873833,-0.1873833,0.1873833,89.533339,1944.5332)" x="0" y="0" />
    <clipPath clipPathUnits="userSpaceOnUse" id="clipPath244-7">
      <path d="m 67.600849,-25.66503 v 143.9338 l -67.73320704,2e-5 v 77.78095 l 25.40005504,0.0167 V 126.7353 l 50.799872,1.4e-4 V -17.198468 H 160.73448 V -271.19921 l -84.666593,3e-5 V -499.79994 H -152.53288 v 110.06713 h -110.06733 v 8.46666 h 118.53403 V -491.33314 H 67.601193 v 25.40008 220.13404 h 8.466694 v -16.93344 l 76.067633,-0.26461 0.13229,237.33204 z" fill="#1b1e25" stroke-width="2.22602" id="path244-9" sodipodi:nodetypes="cccccccccccccccccccccccccc" />
    </clipPath>
    <clipPath clipPathUnits="userSpaceOnUse" id="clipPath243-5">
      <path d="m 135.33471,101.33532 h -8.46669 v 16.93341 l -127.00039035,8e-5 v 77.78095 L 25.26769,196.06646 V 126.7354 l 101.60033,3e-5 2.6e-4,135.46705 h -8.46669 v 67.73358 l 16.93308,10e-6 z" fill="#1b1e25" stroke-width="2.22602" id="path243-9" sodipodi:nodetypes="ccccccccccccc" />
    </clipPath>
  </defs>
  <path inkscape:connector-curvature="0" style="fill:#130902;fill-opacity:0.945;stroke-width:1.00507;filter:url(#filter1263-7-6)" d="m 185.20832,-1.0582378 16.93334,-8.87e-5 V 24.341676 h 50.79999 V -60.324999 H 117.47499 v -93.133341 h 262.46666 v 67.733338 H 583.14164 V 176.74169 H 642.4083 V 66.675014 H 896.40829 V 312.20837 H 252.94165 v -50.8 h -50.79999 v 25.4 l -16.93334,9e-5 z" id="path38-1-9-3" sodipodi:nodetypes="ccccccccccccccccccccc" transform="matrix(1.0000012,0,0,1.0000012,-176.74209,9.5250073)" />
  <path inkscape:connector-curvature="0" id="path2443-2-1-8" d="M 381.00021,304.80071 V 194.73389 h -8.46668 V 169.33385 H 254.00006 l 2e-4,-228.600277 H 84.666529 V 304.80071 Z" style="fill:url(#pattern239-3);fill-opacity:1;stroke-width:4.26802" sodipodi:nodetypes="ccccccccc" />
  <path inkscape:connector-curvature="0" id="path2443-2-1-5-3" d="M 84.666529,245.53396 V 59.26706 l -76.4646398,0.1323 v 186.2669 z" style="fill:url(#pattern240-0);fill-opacity:1;stroke-width:4.049" sodipodi:nodetypes="ccccc" />
  <path d="m 67.600499,-25.665038 3.63e-4,143.933798 -67.73324606,1e-5 3.87e-6,77.78095 25.40007919,0.0168 -1e-6,-69.33104 50.799858,-3e-5 3.1e-4,-143.933763 84.666634,-5e-6 V -271.19911 l -84.666637,1e-5 V -499.79981 H -152.53288 v 110.06701 l -110.06733,-10e-6 v 8.46669 l 118.53403,10e-6 v -110.067 H 67.601169 v 245.53409 h 8.466694 v -16.93339 l 76.067637,-0.26456 0.1323,237.331953 z" clip-path="url(#clipPath244-7)" transform="matrix(0,0.99999806,-0.99999806,0,211.40175,237.19967)" fill="#1a1c21" stroke="#000000" stroke-width="3.175" stroke-opacity="0.706" id="path33-8-4-3-3-5-9-4" sodipodi:nodetypes="ccccccccccccccccccccccccc" style="fill:#2b2622;fill-opacity:1" />
  <path d="m 135.33471,101.33533 h -8.46669 v 16.93338 l -127.00040406,6e-5 3.87e-6,77.78095 25.40007919,0.0168 -1e-6,-69.33104 101.600322,-8e-5 3.1e-4,135.46708 h -8.4667 v 67.73354 l 16.93308,1e-5 z" clip-path="url(#clipPath243-5)" transform="matrix(0,-0.99999806,-0.99999806,0,211.40169,67.60134)" fill="#1a1c21" stroke="#000000" stroke-width="3.175" stroke-opacity="0.706" id="path33-8-4-3-3-5-9-6-1" sodipodi:nodetypes="ccccccccccccc" style="opacity:1;fill:#2b2622;fill-opacity:1" />
  <path d="m 23.227173,227.94285 1.018245,-0.35278 q 0.136301,-0.0481 0.216478,-0.12828 0.08819,-0.0802 0.08819,-0.24054 v -6.1255 q 0,-0.16036 -0.08819,-0.24053 -0.08018,-0.0802 -0.216478,-0.12829 l -1.018245,-0.35278 v -0.65745 h 3.848487 l 2.092615,5.90102 0.112248,0.53718 h 0.176389 l 2.236933,-6.4382 h 3.87254 v 0.65745 l -1.018245,0.35278 q -0.136301,0.0481 -0.224495,0.12829 -0.08018,0.0802 -0.08018,0.24053 v 6.1255 q 0,0.16036 0.08018,0.24054 0.08819,0.0802 0.224495,0.12828 l 1.018245,0.35278 v 0.65745 h -4.024876 v -0.65745 l 0.745644,-0.35278 q 0.112248,-0.0561 0.20846,-0.12828 0.10423,-0.0802 0.10423,-0.24054 v -6.54242 h -0.264584 l -0.264583,0.90599 -2.084597,5.66851 -0.561238,1.34697 h -0.777715 l -2.509535,-7.01548 -0.264583,-0.90599 h -0.264584 v 6.54242 q 0,0.16036 0.09621,0.24054 0.10423,0.0721 0.216478,0.12828 l 0.745644,0.35278 v 0.65745 h -3.439585 z" id="text2-5" style="font-size:17.6389px;font-family:'Sitka Small';-inkscape-font-specification:'Sitka Small, Normal';fill:#2e343a;stroke-width:1.5875;stroke-linecap:square;stroke-linejoin:round;stroke-opacity:0.984314;paint-order:fill markers stroke" aria-label="м" />
  <path d="m 82.837518,227.45908 q -0.352778,0.48908 -0.769698,0.78573 -0.408902,0.29666 -0.825821,0.45701 -0.41692,0.16036 -0.817804,0.20846 -0.392866,0.0561 -0.713573,0.0561 -0.62538,0 -1.114458,-0.20846 -0.481061,-0.21648 -0.817804,-0.56124 -0.328725,-0.35278 -0.505114,-0.80177 -0.176389,-0.45701 -0.176389,-0.94609 0,-0.56925 0.200442,-1.01022 0.200442,-0.44899 0.529167,-0.78574 0.336743,-0.33674 0.769698,-0.56925 0.440972,-0.24053 0.914016,-0.38485 0.481061,-0.15234 0.962121,-0.21648 0.489079,-0.0722 0.914016,-0.0722 0.08819,0 0.288637,0.016 0.200442,0.016 0.416919,0.0401 0.224495,0.024 0.41692,0.0481 0.192424,0.0241 0.280619,0.0321 v -1.10644 q 0,-0.47304 -0.136301,-0.79375 -0.128283,-0.32071 -0.360796,-0.51313 -0.232512,-0.20044 -0.55322,-0.28062 -0.320707,-0.0882 -0.697538,-0.0882 -0.408902,0 -0.833839,0.15233 -0.424937,0.14432 -0.817804,0.35278 -0.384848,0.20044 -0.721591,0.42494 -0.328725,0.22449 -0.55322,0.36881 h -0.360796 v -1.65966 q 0.384849,-0.12828 0.76168,-0.25656 0.376831,-0.12829 0.793751,-0.23252 0.424937,-0.10423 0.89798,-0.16837 0.481061,-0.0641 1.074369,-0.0641 0.609344,0 1.186617,0.12027 0.577273,0.11224 1.018246,0.42493 0.44899,0.31269 0.713574,0.86591 0.272601,0.55322 0.272601,1.42715 v 4.52999 q 0,0.16035 0.07216,0.29665 0.07216,0.12829 0.184407,0.2245 0.112247,0.0962 0.256566,0.15234 0.144318,0.0481 0.280618,0.0481 0.09621,0 0.192425,-0.0241 0.09621,-0.024 0.200442,-0.0641 0.10423,-0.0401 0.200442,-0.0882 0.10423,-0.0561 0.200442,-0.10423 h 0.144318 v 0.76168 q -0.120265,0.0882 -0.320707,0.20846 -0.200442,0.12027 -0.440973,0.23251 -0.232512,0.11225 -0.473043,0.19243 -0.232513,0.0802 -0.424937,0.0802 -0.392866,0 -0.689521,-0.0962 -0.296654,-0.0962 -0.497096,-0.28062 -0.192424,-0.19242 -0.296654,-0.47304 -0.09621,-0.28062 -0.09621,-0.65745 z m -0.04811,-3.07077 q -0.873928,0 -1.595519,0.0641 -0.721592,0.0641 -1.234723,0.25657 -0.513132,0.1844 -0.801768,0.53718 -0.280619,0.34476 -0.280619,0.92203 0,0.45701 0.152336,0.76168 0.152336,0.30468 0.384848,0.48107 0.232513,0.17638 0.52115,0.24854 0.288636,0.0722 0.561238,0.0722 0.272601,0 0.593308,-0.0561 0.328725,-0.0561 0.641415,-0.16837 0.320707,-0.12027 0.593308,-0.29666 0.280619,-0.17639 0.465026,-0.42493 z" id="text2-5-5" style="font-size:17.6389px;font-family:'Sitka Small';-inkscape-font-specification:'Sitka Small, Normal';fill:#2e343a;stroke-width:1.5875;stroke-linecap:square;stroke-linejoin:round;stroke-opacity:0.984314;paint-order:fill markers stroke" aria-label="а" />
  <path d="m 25.818043,84.026205 0.801769,-0.384849 q 0.128283,-0.06414 0.264583,-0.176389 0.136301,-0.120265 0.232513,-0.24053 l 2.389269,-2.910419 -2.309092,-3.142931 q -0.10423,-0.144319 -0.216478,-0.248549 -0.104229,-0.104229 -0.248548,-0.160353 l -0.841856,-0.320707 v -0.641415 h 3.704169 v 0.641415 l -0.665468,0.400884 1.234723,1.675695 0.465026,0.914016 H 30.7409 l 1.900191,-2.461428 -0.497096,-0.529167 v -0.641415 h 2.830242 v 0.641415 l -0.801769,0.400884 q -0.112247,0.05612 -0.24053,0.168371 -0.120265,0.10423 -0.232513,0.24053 l -2.31711,2.790154 2.389269,3.263196 q 0.112248,0.152336 0.232513,0.264584 0.120265,0.10423 0.248548,0.152336 l 0.817804,0.304672 v 0.65745 H 31.36628 v -0.65745 L 32.047783,83.641356 30.70883,81.82936 30.251822,80.923362 h -0.112248 l -1.97235,2.581694 0.505114,0.521149 v 0.65745 h -2.854295 z" id="text2-5-9" style="font-size:17.6389px;font-family:'Sitka Small';-inkscape-font-specification:'Sitka Small, Normal';fill:#2e343a;stroke-width:1.5875;stroke-linecap:square;stroke-linejoin:round;stroke-opacity:0.984314;paint-order:fill markers stroke" aria-label="х" />
  <path d="m 76.82773,84.673295 q -0.288636,0 -0.529167,-0.02405 -0.232512,-0.02405 -0.569255,-0.06414 v -1.747854 h 0.368813 q 0.168372,0.01604 0.392867,0.03207 0.224495,0.01604 0.432955,0.03207 0.208459,0.008 0.376831,0.01604 0.168371,0.008 0.216477,0.008 0.144318,0 0.31269,-0.200442 0.176389,-0.20846 0.34476,-0.577273 0.176389,-0.368814 0.336743,-0.881945 0.160353,-0.513132 0.280619,-1.122476 0.128282,-0.609344 0.200442,-1.298864 0.08018,-0.697539 0.08018,-1.435165 0,-0.200442 -0.02405,-0.328725 -0.02405,-0.136301 -0.07216,-0.216478 -0.04009,-0.08819 -0.09621,-0.128283 -0.05612,-0.04009 -0.112248,-0.06414 L 77.58941,76.302835 v -0.65745 h 8.434602 v 0.65745 l -1.098423,0.352778 q -0.1363,0.04009 -0.224495,0.128282 -0.08018,0.08018 -0.08018,0.240531 v 6.125509 q 0,0.160354 0.08018,0.240531 0.08819,0.08018 0.224495,0.128282 l 1.018246,0.352779 v 0.657449 h -4.433778 v -0.657449 l 1.122475,-0.352779 q 0.112248,-0.04009 0.20846,-0.120265 0.10423,-0.08819 0.10423,-0.248548 v -6.50234 h -2.6298 q -0.01604,2.044509 -0.288636,3.559851 -0.272602,1.507324 -0.745645,2.501517 -0.465025,0.986174 -1.098422,1.475253 -0.62538,0.489079 -1.354989,0.489079 z" id="text2-5-7" style="font-size:17.6389px;font-family:'Sitka Small';-inkscape-font-specification:'Sitka Small, Normal';fill:#2e343a;stroke-width:1.5875;stroke-linecap:square;stroke-linejoin:round;stroke-opacity:0.984314;paint-order:fill markers stroke" aria-label="л" />
  <path d="m 51.27683,227.94285 1.018246,-0.35278 q 0.136301,-0.0481 0.216477,-0.12828 0.08819,-0.0802 0.08819,-0.24054 v -6.1255 q 0,-0.16036 -0.08819,-0.24053 -0.08018,-0.0802 -0.216477,-0.12829 l -1.018246,-0.35278 v -0.65745 h 4.016859 v 0.65745 l -0.745644,0.35278 q -0.112248,0.0561 -0.216478,0.1363 -0.09621,0.0722 -0.09621,0.23252 v 4.2173 l -0.152336,1.07437 h 0.152336 l 4.425761,-6.14957 v -0.52115 h 2.926454 v 0.65745 l -1.018246,0.35278 q -0.136301,0.0481 -0.224495,0.12829 -0.08018,0.0802 -0.08018,0.24053 v 6.1255 q 0,0.16036 0.08018,0.24054 0.08819,0.0802 0.224495,0.12828 l 1.018246,0.35278 v 0.65745 h -4.016859 v -0.65745 l 0.745644,-0.35278 q 0.112248,-0.0561 0.20846,-0.12828 0.10423,-0.0802 0.10423,-0.24054 v -4.19324 l 0.152336,-1.07437 h -0.152336 l -4.425761,6.15758 v 0.48908 H 51.27683 Z" id="text2-5-7-8" style="font-size:17.6389px;font-family:'Sitka Small';-inkscape-font-specification:'Sitka Small, Normal';fill:#2e343a;stroke-width:1.5875;stroke-linecap:square;stroke-linejoin:round;stroke-opacity:0.984314;paint-order:fill markers stroke" aria-label="и" />
  <path d="m 50.717352,84.009329 1.018245,-0.352778 q 0.136301,-0.04811 0.216478,-0.128283 0.08819,-0.08018 0.08819,-0.240531 v -6.125509 q 0,-0.160354 -0.08819,-0.24053 -0.08018,-0.08018 -0.216478,-0.128283 l -1.018245,-0.352778 v -0.65745 h 4.016858 v 0.65745 l -0.745644,0.352778 q -0.112248,0.05612 -0.216478,0.1363 -0.09621,0.07216 -0.09621,0.232513 v 4.217301 l -0.152336,1.074369 h 0.152336 l 4.425761,-6.149562 v -0.521149 h 2.926454 v 0.65745 l -1.018246,0.352778 q -0.1363,0.04811 -0.224495,0.128283 -0.08018,0.08018 -0.08018,0.24053 v 6.125509 q 0,0.160354 0.08018,0.240531 0.08819,0.08018 0.224495,0.128283 l 1.018246,0.352778 v 0.65745 h -4.016859 v -0.65745 l 0.745645,-0.352778 q 0.112247,-0.05612 0.208459,-0.128283 0.10423,-0.08018 0.10423,-0.240531 v -4.193248 l 0.152336,-1.074369 h -0.152336 l -4.42576,6.15758 v 0.489079 h -2.926454 z" id="text2-5-54" style="font-size:17.6389px;font-family:'Sitka Small';-inkscape-font-specification:'Sitka Small, Normal';fill:#2e343a;stroke-width:1.5875;stroke-linecap:square;stroke-linejoin:round;stroke-opacity:0.984314;paint-order:fill markers stroke" aria-label="и" />
</svg>
