<svg version="1.2" xmlns="http://www.w3.org/2000/svg" viewBox="0 0 163.80442324371205 99.88074588031223" width="164" height="100">
	<style>
		.s0 { fill: #640504 } 
		.s1 { fill: #9c8424 } 
		.s2 { fill: #e2c333 } 
		.s3 { fill: #1c1c1c } 
		.s4 { fill: #2c2214 } 
	</style>
	<g id="svgg">
		<path id="path0" fill-rule="evenodd" class="s0" d="m7.29 3.3c-0.3 0.3-0.31 4.33 0 4.49 0.36 0.19 29.23 0.14 29.53-0.06l0.25-0.16v-2.03-2.03l-0.27-0.21-0.26-0.2h-14.52c-14.39 0-14.53 0-14.73 0.2zm40.06-0.14c-0.46 0.13-0.66 4.24-0.22 4.57 0.34 0.25 29.41 0.25 29.62 0 0.21-0.26 0.13-4.21-0.09-4.46-0.15-0.16-28.71-0.27-29.31-0.11zm39.87 0.14c-0.3 0.3-0.31 4.33 0 4.49 0.38 0.2 29.34 0.14 29.58-0.07 0.19-0.16 0.2-0.29 0.2-2.19v-2.02l-0.26-0.21-0.27-0.2h-14.52c-14.39 0-14.53 0-14.73 0.2zm40.06-0.14c-0.46 0.13-0.66 4.24-0.22 4.57 0.35 0.26 29.4 0.25 29.62-0.01 0.22-0.26 0.11-4.38-0.12-4.53-0.14-0.09-28.94-0.12-29.28-0.03zm-122.93 8.99c-0.29 0.21-0.37 27.22-0.09 27.53 0.23 0.25 5.24 0.29 5.49 0.04 0.12-0.12 0.14-0.95 0.14-5.2 0-5.51-0.02-5.26 0.57-5.79 0.2-0.19 0.22-0.31 0.27-1.85 0.06-2.27 0.14-2.62 0.73-3.15 0.25-0.23 0.43-0.65 0.43-1.01 0-0.28 0.23-0.67 0.62-1.05 0.15-0.15 0.3-0.44 0.34-0.65 0.09-0.53 0.3-0.91 0.52-0.98 0.11-0.04 0.3-0.21 0.43-0.38 0.13-0.18 0.34-0.41 0.47-0.52 0.13-0.12 0.36-0.33 0.5-0.49 0.15-0.16 0.34-0.36 0.42-0.45 0.09-0.09 0.3-0.27 0.47-0.4 0.18-0.13 0.35-0.33 0.38-0.43 0.07-0.23 0.46-0.43 0.98-0.53 0.21-0.04 0.5-0.19 0.65-0.34 0.39-0.39 0.77-0.61 1.05-0.61 0.36 0 0.78-0.18 1.01-0.44 0.53-0.58 0.88-0.66 3.15-0.73 1.54-0.04 1.66-0.06 1.85-0.27 0.11-0.12 0.32-0.3 0.47-0.39 0.39-0.25 113.95-0.27 114.45-0.02 0.17 0.08 0.38 0.26 0.47 0.4 0.16 0.24 0.21 0.25 1.21 0.25 1.47 0 2.45 0.26 2.81 0.74q0.19 0.25 0.68 0.37c0.73 0.17 1.14 0.37 1.31 0.63 0.13 0.2 0.35 0.3 1.13 0.51 0.2 0.06 0.62 0.42 1.4 1.19 0.06 0.06 0.29 0.3 0.53 0.53 0.24 0.24 0.48 0.48 0.53 0.54 0.06 0.06 0.35 0.36 0.67 0.67 0.47 0.48 0.57 0.65 0.63 1.05 0.06 0.36 0.17 0.56 0.5 0.9 0.4 0.42 0.55 0.78 0.55 1.31 0 0.14 0.18 0.41 0.43 0.67 0.53 0.55 0.67 1.08 0.67 2.58v1.1l0.4 0.4 0.4 0.4v5.63c0 5.32 0.01 5.63 0.18 5.79 0.23 0.21 5.28 0.25 5.49 0.05 0.21-0.21 0.17-27.24-0.03-27.54l-0.16-0.22h-77.45c-68.94 0.01-77.48 0.02-77.65 0.16zm135.48 8.09c0.22 0.1 0.66 0.19 0.98 0.22 0.43 0.03 0.63 0.1 0.81 0.27 0.13 0.13 0.43 0.29 0.67 0.35 0.57 0.14 1.19 0.41 1.19 0.51 0 0.05 0.19 0.27 0.42 0.49 0.23 0.22 0.47 0.45 0.52 0.5 0.06 0.06 0.28 0.29 0.5 0.5 0.22 0.22 0.45 0.45 0.5 0.5 0.42 0.43 0.87 0.87 1 0.98 0.08 0.07 0.15 0.21 0.15 0.32 0 0.1 0.05 0.21 0.1 0.25 0.06 0.03 0.1 0.15 0.1 0.26 0 0.25 0.36 0.95 0.54 1.06 0.09 0.05 0.15 0.34 0.19 0.81 0.02 0.4 0.1 0.78 0.16 0.84 0.19 0.2 0.16 43.41-0.04 43.87-0.08 0.2-0.15 0.63-0.15 0.96 0 0.49-0.03 0.6-0.19 0.65-0.17 0.06-0.27 0.27-0.67 1.41q-0.17 0.5-0.48 0.7c-0.17 0.11-0.39 0.33-0.5 0.5-0.11 0.16-0.34 0.39-0.5 0.5-0.17 0.11-0.39 0.33-0.5 0.5-0.11 0.16-0.33 0.39-0.5 0.5-0.17 0.11-0.39 0.33-0.5 0.5q-0.2 0.31-0.7 0.48c-1.14 0.4-1.35 0.5-1.41 0.67-0.05 0.16-0.16 0.19-0.65 0.19-0.33 0-0.76 0.07-0.96 0.15-0.46 0.2-115.61 0.23-115.8 0.04-0.07-0.06-0.45-0.14-0.85-0.17-0.47-0.03-0.76-0.1-0.81-0.18-0.11-0.18-0.81-0.54-1.06-0.54-0.11 0-0.22-0.04-0.26-0.1-0.03-0.05-0.15-0.1-0.25-0.1-0.1 0-0.25-0.07-0.32-0.15-0.11-0.13-0.55-0.58-0.97-1-0.06-0.05-0.28-0.28-0.5-0.5-0.22-0.22-0.45-0.44-0.5-0.5-0.06-0.05-0.29-0.29-0.51-0.52-0.22-0.23-0.44-0.43-0.48-0.43-0.11 0-0.37-0.61-0.52-1.18-0.06-0.24-0.21-0.54-0.34-0.67-0.18-0.18-0.25-0.38-0.28-0.81-0.03-0.32-0.12-0.76-0.21-0.98l-0.17-0.4 0.05 0.35c0.03 0.19 0.08 0.64 0.12 1 0.05 0.5 0.12 0.7 0.31 0.89q0.41 0.42 0.57 1.24c0.08 0.43 3.39 3.86 3.73 3.86 0.34 0.01 1.08 0.32 1.3 0.56 0.19 0.2 0.32 0.24 0.8 0.24 0.33 0 0.63 0.05 0.7 0.13 0.1 0.1 11.9 0.12 58.32 0.12 46.42 0 58.21-0.02 58.31-0.12 0.07-0.07 0.36-0.13 0.65-0.13 0.44 0 0.57-0.04 0.8-0.28 0.2-0.2 0.48-0.33 0.92-0.42q0.63-0.15 0.85-0.38c0.31-0.33 0.71-0.74 0.93-0.93 0.1-0.09 0.32-0.32 0.5-0.5 0.17-0.19 0.39-0.41 0.5-0.5 0.1-0.09 0.33-0.32 0.5-0.5 0.17-0.19 0.42-0.43 0.55-0.55q0.24-0.22 0.38-0.85c0.09-0.44 0.22-0.72 0.42-0.92 0.24-0.23 0.28-0.36 0.28-0.8 0-0.29 0.06-0.58 0.13-0.65 0.1-0.1 0.12-4.7 0.12-22.34 0-17.65-0.02-22.25-0.12-22.35-0.07-0.07-0.13-0.37-0.13-0.7 0-0.48-0.04-0.61-0.24-0.8-0.24-0.23-0.55-0.96-0.56-1.3 0-0.34-3.43-3.66-3.86-3.74q-0.82-0.15-1.24-0.57c-0.19-0.18-0.39-0.25-0.89-0.3-0.36-0.04-0.81-0.09-1-0.12l-0.35-0.05zm-116.1-0.07c-0.11 0.05-0.45 0.09-0.76 0.1-0.48 0-0.59 0.04-0.72 0.23-0.17 0.26-0.73 0.53-1.31 0.62-0.24 0.04-0.47 0.17-0.6 0.32-0.11 0.14-0.34 0.37-0.5 0.52-0.15 0.14-0.38 0.37-0.49 0.5-0.12 0.13-0.35 0.35-0.5 0.5-0.16 0.14-0.39 0.37-0.5 0.5-0.44 0.48-0.8 0.81-0.88 0.81-0.13 0-0.39 0.64-0.38 0.92 0.01 0.18 0.05 0.14 0.18-0.17 0.44-1.06 3.71-3.95 4.46-3.95 0.08 0 0.3-0.13 0.49-0.3 0.26-0.23 0.43-0.3 0.78-0.3 0.24 0 0.68-0.08 0.98-0.19 0.45-0.16 0.5-0.2 0.25-0.19-0.17 0-0.39 0.04-0.5 0.08zm-6.78 5.47c-0.04 0.12-0.2 0.34-0.36 0.5-0.23 0.23-0.29 0.39-0.34 0.93-0.03 0.36-0.08 0.83-0.11 1.05-0.06 0.38-0.05 0.37 0.14-0.15 0.11-0.3 0.21-0.74 0.21-0.98 0-0.33 0.07-0.52 0.31-0.82 0.17-0.21 0.29-0.46 0.26-0.57-0.03-0.16-0.04-0.16-0.11 0.04zm20.92 2.32c-0.14 0.04 0.85 0.07 2.2 0.07 1.34 0 2.31-0.03 2.14-0.07-0.39-0.09-4.02-0.09-4.34 0zm28.28 0.08c-0.19 0.08-0.42 0.22-0.5 0.32-0.09 0.09-0.4 0.27-0.71 0.4-0.66 0.27-0.79 0.37-1.04 0.76-0.14 0.23-0.1 0.2 0.21-0.12 0.3-0.32 0.5-0.44 0.81-0.49 0.25-0.04 0.57-0.2 0.86-0.44 0.8-0.67 3.63-0.67 4.42-0.01 0.22 0.18 0.66 0.41 0.99 0.52 0.93 0.28 0.8 0.15-0.25-0.27-0.25-0.09-0.52-0.25-0.61-0.35-0.45-0.5-3.28-0.72-4.18-0.32zm28.19-0.09c-0.07 0.05 0.64 0.08 1.57 0.08 0.93 0 1.67-0.03 1.64-0.08-0.06-0.11-3.04-0.1-3.21 0zm27.76 0.09c-0.19 0.08-0.42 0.22-0.5 0.32-0.09 0.09-0.4 0.27-0.7 0.4-0.67 0.27-0.8 0.37-1.04 0.76-0.15 0.23-0.1 0.2 0.2-0.12 0.3-0.32 0.5-0.44 0.81-0.49 0.26-0.04 0.57-0.2 0.86-0.44 0.82-0.68 3.6-0.68 4.42-0.01 0.26 0.22 0.65 0.42 0.95 0.5 0.4 0.1 0.56 0.21 0.77 0.51 0.15 0.21 0.36 0.43 0.47 0.5q0.17 0.1-0.13-0.26c-0.6-0.71-0.74-0.84-0.87-0.84-0.21 0-1.04-0.4-1.12-0.54-0.26-0.46-3.26-0.67-4.12-0.29zm-28.42 0.26c-0.13 0.13-0.53 0.36-0.9 0.52-0.49 0.2-0.71 0.36-0.86 0.61-0.11 0.19-0.35 0.43-0.53 0.54-0.26 0.15-0.41 0.37-0.62 0.87-0.16 0.37-0.37 0.73-0.46 0.8-0.5 0.36-0.49-0.09-0.49 18.22 0 17.9 0 17.82 0.45 18.35 0.12 0.15 0.35 0.52 0.49 0.82 0.15 0.3 0.25 0.47 0.22 0.37-0.03-0.1-0.09-0.31-0.12-0.45-0.09-0.33-0.33-0.71-0.58-0.93-0.32-0.26-0.34-1.46-0.35-17.82-0.01-17.48 0-17.82 0.42-18.3 0.16-0.18 0.4-0.63 0.53-1.01 0.14-0.37 0.3-0.69 0.35-0.71 0.21-0.07 0.78-0.63 0.84-0.81 0.06-0.19 0.71-0.5 1.04-0.5 0.21 0 1.13-0.79 0.93-0.8-0.07 0-0.23 0.1-0.36 0.23zm4.29 0.01c0.3 0.31 0.66 0.5 1.29 0.7 0.88 0.28 0.6 0.05-0.36-0.3-0.26-0.09-0.57-0.27-0.69-0.4-0.13-0.13-0.29-0.24-0.36-0.24-0.07 0-0.02 0.1 0.12 0.24zm-61.44 0.57c-0.22 0.16-0.46 0.39-0.55 0.51-0.16 0.25-0.62 0.68-0.72 0.68-0.04 0-0.18 0.18-0.33 0.4-0.14 0.22-0.22 0.4-0.18 0.4 0.05 0 0.17-0.15 0.27-0.33 0.09-0.18 0.31-0.41 0.48-0.52 0.18-0.12 0.41-0.35 0.52-0.52 0.11-0.17 0.34-0.39 0.52-0.48 0.17-0.1 0.34-0.24 0.37-0.32 0.07-0.17 0.08-0.17-0.38 0.18zm6.63-0.13c0 0.05 0.15 0.17 0.34 0.27 0.18 0.1 0.41 0.32 0.5 0.49 0.1 0.18 0.31 0.4 0.48 0.5 0.17 0.1 0.39 0.33 0.5 0.52 0.11 0.18 0.22 0.34 0.25 0.34 0.15 0-0.45-0.8-0.78-1.03-0.21-0.15-0.39-0.34-0.39-0.42 0-0.08-0.2-0.28-0.45-0.45-0.24-0.17-0.45-0.27-0.45-0.22zm56.74 0.67c0.17 0.32 0.31 0.5 0.31 0.4 0-0.06-0.09-0.22-0.2-0.35q-0.21-0.25-0.11-0.05zm-36.56 0.59q-0.26 0.15-0.55 0.82c-0.16 0.38-0.36 0.75-0.46 0.83-0.09 0.09-0.2 0.26-0.24 0.4-0.16 0.55 0.58-0.5 0.82-1.17 0.13-0.37 0.28-0.69 0.32-0.7 0.12-0.04 0.48-0.32 0.42-0.32-0.03 0-0.17 0.07-0.31 0.14zm55.93 0.03c-0.15 0.09-0.34 0.35-0.43 0.57-0.29 0.75-0.39 0.95-0.46 0.95-0.09 0-0.42 0.6-0.36 0.66 0.1 0.1 0.67-0.79 0.83-1.28q0.18-0.59 0.49-0.83 0.53-0.43-0.07-0.07zm-46.51 0.18c0.09 0.11 0.19 0.33 0.23 0.5 0.1 0.43 0.32 0.9 0.5 1.05 0.32 0.26 0.45 0.68 0.47 1.56l0.02 0.88 0.03-0.83c0.04-0.86-0.15-1.65-0.42-1.75-0.07-0.03-0.23-0.31-0.35-0.63-0.13-0.32-0.33-0.67-0.44-0.78l-0.21-0.2zm27.98 0c0.09 0.11 0.22 0.42 0.28 0.7 0.06 0.27 0.21 0.61 0.33 0.75 0.49 0.53 0.52 0.62 0.58 1.58l0.05 0.96 0.02-0.9c0.01-0.94-0.03-1.06-0.59-1.91-0.15-0.21-0.3-0.53-0.33-0.7-0.04-0.17-0.17-0.4-0.29-0.5q-0.31-0.28-0.05 0.02zm27.98 0c0.09 0.11 0.21 0.42 0.28 0.7 0.06 0.27 0.21 0.61 0.33 0.75 0.48 0.53 0.51 0.62 0.57 1.58l0.06 0.96 0.01-0.9c0.02-0.94-0.02-1.06-0.59-1.91-0.14-0.21-0.29-0.53-0.33-0.7-0.04-0.17-0.16-0.4-0.29-0.5q-0.31-0.28-0.04 0.02zm-89.47 1c-0.29 0.34-0.38 0.43-0.5 0.47q-0.11 0.05-0.06 0.12c0.03 0.03 0.22-0.1 0.42-0.29 0.53-0.52 1.26-0.52 1.76 0 0.19 0.19 0.38 0.35 0.43 0.35 0.05 0-0.1-0.18-0.33-0.4-0.47-0.45-1.43-0.59-1.72-0.25zm27.75 0.27c-0.39 0.4-0.39 0.41-0.07 0.18 0.19-0.12 0.36-0.29 0.39-0.37 0.1-0.26 1.15-0.18 1.43 0.12 0.14 0.15 0.34 0.31 0.45 0.37 0.11 0.06 0-0.08-0.24-0.31-0.64-0.61-1.37-0.61-1.96 0.01zm28.2-0.27c-0.28 0.34-0.38 0.43-0.5 0.47q-0.11 0.05-0.06 0.12c0.03 0.03 0.22-0.1 0.42-0.29 0.53-0.52 1.27-0.52 1.76 0 0.19 0.19 0.38 0.35 0.43 0.35 0.05 0-0.1-0.18-0.33-0.4-0.47-0.45-1.43-0.59-1.72-0.25zm27.75 0.27c-0.39 0.4-0.39 0.41-0.07 0.18 0.19-0.12 0.36-0.29 0.39-0.37 0.1-0.26 1.16-0.18 1.44 0.12 0.13 0.15 0.33 0.31 0.44 0.37 0.11 0.06 0-0.08-0.23-0.31-0.65-0.61-1.38-0.61-1.97 0.01zm-53.27 0.61c0.15 0.15 0.3 0.26 0.33 0.26 0.11 0-0.19-0.3-0.41-0.41q-0.22-0.13 0.08 0.15zm55.95 0c0.15 0.15 0.3 0.26 0.34 0.26 0.1 0-0.2-0.3-0.41-0.41q-0.23-0.13 0.07 0.15zm-91.69 0.34c-0.08 0.52-0.07 34.25 0.02 34.73 0.04 0.22 0.07-7.59 0.07-17.36 0-9.76-0.01-17.74-0.01-17.74-0.01 0-0.04 0.16-0.08 0.37zm12.06 0.37c0 0.44 0.02 0.61 0.04 0.38 0.02-0.24 0.02-0.6 0-0.8-0.02-0.21-0.04-0.02-0.04 0.42zm15.92-0.22c-0.11 0.4-0.07 34.17 0.03 34.76 0.06 0.29 0.2 0.65 0.31 0.78 0.1 0.14 0.33 0.52 0.5 0.85 0.16 0.33 0.28 0.52 0.25 0.42-0.03-0.1-0.09-0.31-0.12-0.45-0.08-0.33-0.32-0.71-0.58-0.93-0.33-0.27-0.37-2.37-0.34-19.49 0.02-8.89 0.03-16.17 0.02-16.17-0.01 0-0.04 0.11-0.07 0.23zm55.95 0c-0.11 0.4-0.07 34.17 0.04 34.75 0.05 0.29 0.21 0.68 0.35 0.86 0.14 0.19 0.37 0.57 0.5 0.86 0.14 0.29 0.23 0.45 0.2 0.35-0.02-0.09-0.1-0.35-0.16-0.58-0.06-0.23-0.24-0.54-0.4-0.7-0.46-0.45-0.45 0.01-0.45-18.31 0-9.6 0-17.46-0.01-17.46-0.01 0-0.04 0.11-0.07 0.23zm-75.75 16.91c0 9.29 0.01 13.07 0.03 8.41 0.01-4.66 0.01-12.26 0-16.89-0.02-4.62-0.03-0.81-0.03 8.48zm27.98 0c0 9.29 0.01 13.07 0.02 8.41 0.02-4.66 0.02-12.26 0-16.89-0.01-4.62-0.02-0.81-0.02 8.48zm27.97 0c0 9.29 0.01 13.07 0.03 8.41 0.01-4.66 0.01-12.26 0-16.89-0.02-4.62-0.03-0.81-0.03 8.48zm27.98 0c0 9.29 0.01 13.07 0.02 8.41 0.02-4.66 0.02-12.26 0-16.89-0.01-4.62-0.02-0.81-0.02 8.48zm-118.75-5.25c-0.31 0.31-0.31 11.33-0.01 11.49 0.31 0.17 2.29 0.13 2.47-0.04 0.24-0.25 0.21-11.25-0.04-11.48-0.3-0.26-2.15-0.24-2.42 0.03zm146.88 0.02c-0.31 0.33-0.32 11.14-0.02 11.41 0.27 0.25 2.32 0.24 2.52-0.01 0.22-0.27 0.11-11.38-0.11-11.52-0.33-0.21-2.17-0.11-2.39 0.12zm-149.83 15.83c-0.28 0.21-0.37 27.22-0.08 27.53 0.21 0.23 155.15 0.3 155.38 0.07 0.2-0.21 0.17-27.24-0.04-27.54-0.15-0.22-0.18-0.22-2.69-0.22h-2.53l-0.21 0.29c-0.2 0.29-0.21 0.39-0.21 5.82 0 5.92 0.01 5.76-0.52 6.18-0.27 0.21-0.28 0.23-0.28 1.37 0 1.46-0.17 2.09-0.7 2.62-0.23 0.23-0.4 0.49-0.4 0.62 0 0.48-0.21 0.97-0.58 1.35-0.28 0.29-0.4 0.51-0.45 0.84-0.08 0.51-0.17 0.63-0.69 1.02-0.2 0.16-0.37 0.33-0.37 0.38 0 0.12-0.38 0.5-0.65 0.65-0.1 0.06-0.24 0.19-0.3 0.29-0.15 0.27-0.53 0.65-0.64 0.65-0.06 0-0.23 0.17-0.38 0.38-0.39 0.52-0.52 0.6-1.03 0.68-0.33 0.05-0.55 0.17-0.84 0.45-0.38 0.38-0.86 0.59-1.34 0.59-0.14 0-0.4 0.17-0.64 0.4-0.53 0.52-0.85 0.61-2.45 0.67-1.3 0.05-1.33 0.06-1.56 0.33-0.13 0.15-0.32 0.32-0.44 0.39-0.16 0.08-15.28 0.11-57.82 0.11h-57.6l-0.39-0.39-0.38-0.38-1.34-0.06c-1.72-0.08-1.82-0.11-2.36-0.63-0.26-0.26-0.54-0.44-0.68-0.44-0.53 0-0.89-0.15-1.31-0.55-0.34-0.33-0.54-0.44-0.9-0.5-0.4-0.06-0.57-0.16-1.05-0.63-0.31-0.31-0.61-0.61-0.67-0.67-0.06-0.05-0.3-0.29-0.54-0.53-0.23-0.23-0.47-0.47-0.53-0.53-0.77-0.78-1.13-1.2-1.19-1.39-0.21-0.79-0.31-1.01-0.51-1.14-0.26-0.17-0.46-0.58-0.63-1.3q-0.12-0.5-0.37-0.69c-0.48-0.36-0.74-1.34-0.74-2.81 0-1-0.01-1.05-0.25-1.21-0.56-0.36-0.55-0.3-0.55-6.28 0-4.82-0.02-5.53-0.16-5.73-0.2-0.29-5.01-0.34-5.39-0.06zm41.64 6.4c-0.01 0.51-0.05 1-0.08 1.1q-0.09 0.25 0.05 0.01c0.07-0.1 0.1-0.53 0.08-1.1l-0.03-0.92zm27.97 0c-0.02 1-0.12 1.39-0.42 1.6-0.21 0.15-0.5 0.75-0.49 1.01 0.01 0.09 0.09 0 0.18-0.21 0.1-0.2 0.25-0.45 0.33-0.54 0.4-0.46 0.49-0.81 0.46-1.81l-0.03-0.97zm27.95 0.15c-0.05 1.04-0.06 1.08-0.37 1.4-0.32 0.33-0.53 0.75-0.53 1.06 0 0.09 0.1-0.02 0.23-0.25 0.12-0.22 0.35-0.61 0.5-0.86 0.26-0.42 0.28-0.51 0.25-1.43l-0.03-0.99zm27.96 0.03c-0.03 1.02-0.04 1.05-0.36 1.37-0.32 0.34-0.6 0.94-0.48 1.05q0.05 0.05 0.06-0.05c0-0.07 0.2-0.41 0.45-0.77l0.45-0.66v-0.99c0-1.31-0.08-1.28-0.12 0.05zm-64.03-0.3c0 0.14 0.04 0.25 0.09 0.25 0.04 0 0.06-0.11 0.04-0.25-0.03-0.13-0.07-0.25-0.09-0.25-0.02 0-0.04 0.12-0.04 0.25zm27.98 0c0 0.14 0.04 0.25 0.08 0.25 0.05 0 0.07-0.11 0.04-0.25-0.02-0.13-0.06-0.25-0.08-0.25-0.03 0-0.04 0.12-0.04 0.25zm27.97 0c0 0.14 0.04 0.25 0.09 0.25 0.05 0 0.06-0.11 0.04-0.25-0.03-0.13-0.07-0.25-0.09-0.25-0.02 0-0.04 0.12-0.04 0.25zm-76.26 1.73c-0.28 0.29-0.54 0.89-0.43 0.99q0.05 0.05 0.06-0.06c0-0.07 0.16-0.35 0.36-0.63 0.41-0.55 0.41-0.72 0.01-0.3zm-11.36-0.09c0 0.04 0.08 0.16 0.19 0.25 0.1 0.1 0.29 0.4 0.4 0.67 0.24 0.56 0.35 0.65 0.19 0.17-0.21-0.67-0.78-1.47-0.78-1.09zm94.72 1.31c0 0.07-0.13 0.28-0.28 0.44l-0.27 0.31 0.34-0.31c0.18-0.18 0.31-0.38 0.28-0.45q-0.06-0.17-0.07 0.01zm-56.05 0.25c-0.08 0.13-0.21 0.27-0.31 0.3-0.09 0.03-0.25 0.15-0.36 0.26-0.15 0.17-0.11 0.16 0.21-0.05 0.39-0.26 0.72-0.63 0.63-0.72-0.02-0.02-0.1 0.07-0.17 0.21zm27.72 0.19c-0.37 0.37-0.37 0.38-0.09 0.22 0.27-0.16 0.61-0.55 0.52-0.59-0.01-0.01-0.21 0.16-0.43 0.37zm18.59 0.06c0.09 0.11 0.21 0.2 0.26 0.2 0.05 0-0.01-0.09-0.11-0.2-0.12-0.11-0.23-0.2-0.27-0.2-0.04 0 0.02 0.09 0.12 0.2zm-74.87 0.17c-0.07 0.02-0.17 0.14-0.23 0.26q-0.13 0.27 0.03 0.07c0.08-0.08 0.2-0.21 0.28-0.27q0.23-0.2-0.08-0.06zm83.66 0.32c-0.03 0.11-0.2 0.32-0.37 0.45-0.29 0.26-0.28 0.36 0.03 0.13 0.21-0.17 0.53-0.66 0.46-0.73-0.03-0.03-0.08 0.04-0.12 0.15zm-28.3 0.41c-0.18 0.17-0.3 0.3-0.25 0.3 0.1-0.01 0.34-0.21 0.51-0.43q0.3-0.38-0.26 0.13zm-62.5 0.51c0.23 0.13 0.5 0.31 0.6 0.39 0.4 0.34 0.73 0.4 2.25 0.4 0.84 0 1.57-0.04 1.64-0.08 0.06-0.04-0.62-0.06-1.53-0.04-1.75 0.03-2.09-0.05-2.46-0.58-0.07-0.1-0.31-0.21-0.53-0.25l-0.39-0.07zm5.47-0.07c-0.29 0.13-0.86 0.65-0.71 0.65 0.05 0 0.29-0.15 0.55-0.33 0.25-0.19 0.53-0.36 0.61-0.39q0.2-0.07 0-0.06c-0.08-0.01-0.29 0.05-0.45 0.13zm22.49 0.06c0.22 0.11 0.5 0.29 0.62 0.4 0.12 0.11 0.27 0.19 0.33 0.19 0.17 0-0.5-0.59-0.79-0.7-0.45-0.18-0.57-0.09-0.16 0.11zm5.55-0.1c-0.25 0.1-0.91 0.69-0.77 0.69 0.04 0 0.22-0.1 0.39-0.22 0.17-0.12 0.47-0.3 0.66-0.4 0.39-0.18 0.15-0.24-0.28-0.07zm22.44 0.11c0.23 0.13 0.5 0.3 0.6 0.38 0.4 0.35 0.73 0.4 2.25 0.4 0.84 0 1.57-0.03 1.64-0.07 0.06-0.04-0.59-0.06-1.44-0.04-1.82 0.03-1.86 0.03-2.39-0.43-0.23-0.2-0.57-0.38-0.75-0.42l-0.33-0.05zm5.47-0.08c-0.29 0.13-0.86 0.66-0.71 0.66 0.05 0 0.22-0.1 0.39-0.23 0.17-0.12 0.47-0.3 0.67-0.39 0.43-0.21 0.11-0.24-0.35-0.04zm22.49 0.06c0.22 0.11 0.5 0.29 0.62 0.4 0.12 0.11 0.27 0.2 0.33 0.2 0.17 0-0.5-0.6-0.79-0.71-0.45-0.17-0.57-0.09-0.16 0.11zm5.55-0.09c-0.25 0.1-0.91 0.69-0.77 0.69 0.04 0 0.22-0.1 0.39-0.23 0.17-0.12 0.47-0.3 0.66-0.39 0.39-0.19 0.15-0.25-0.28-0.07zm-60.3 0.81c0.06 0.1 3.15 0.1 3.3 0 0.06-0.04-0.66-0.07-1.61-0.07-0.95 0-1.71 0.03-1.69 0.07zm55.96 0c0.05 0.1 3.14 0.1 3.29 0 0.07-0.04-0.66-0.07-1.61-0.07-0.95 0-1.71 0.03-1.68 0.07zm-114.97 20.26c-0.29 0.3-0.31 4.17-0.02 4.43 0.3 0.28 29.24 0.25 29.57-0.03 0.22-0.18 0.22-0.23 0.22-2.18v-2l-0.26-0.21-0.26-0.21h-14.53c-14.39 0-14.52 0-14.72 0.2zm40.06-0.12c-0.35 0.14-0.39 0.34-0.39 2.39-0.01 1.97 0 2.02 0.22 2.17 0.32 0.23 29.28 0.24 29.51 0.02 0.24-0.25 0.2-4.27-0.04-4.49-0.19-0.17-28.87-0.26-29.3-0.09zm39.87 0.12c-0.29 0.3-0.31 4.17-0.02 4.43 0.31 0.28 29.24 0.25 29.57-0.03 0.22-0.18 0.22-0.23 0.22-2.18v-2l-0.26-0.21-0.26-0.21h-14.53c-14.39 0-14.52 0-14.72 0.2zm40.07-0.12c-0.36 0.14-0.4 0.34-0.4 2.39 0 1.97 0 2.02 0.22 2.17 0.29 0.21 29.32 0.24 29.53 0.04 0.2-0.2 0.17-4.32-0.04-4.52-0.16-0.16-28.91-0.24-29.31-0.08z"/>
		<path id="path1" fill-rule="evenodd" class="s1" d="m23.98 20.29c-0.3 0.1-0.74 0.19-0.98 0.19-0.35 0-0.52 0.07-0.78 0.3-0.19 0.17-0.41 0.3-0.49 0.3-1.04 0-4.64 3.56-4.64 4.58 0 0.1-0.14 0.33-0.3 0.52-0.23 0.27-0.3 0.45-0.3 0.8 0 0.25-0.09 0.71-0.2 1.02-0.28 0.8-0.31 43.19-0.04 43.89 0.09 0.22 0.18 0.66 0.21 0.98 0.03 0.43 0.1 0.63 0.28 0.81 0.13 0.13 0.28 0.43 0.34 0.67 0.15 0.57 0.41 1.18 0.52 1.18 0.04 0 0.26 0.2 0.48 0.43 0.22 0.23 0.45 0.47 0.51 0.52 0.05 0.06 0.28 0.28 0.5 0.5 0.22 0.22 0.44 0.45 0.5 0.5 0.42 0.42 0.86 0.87 0.97 1 0.07 0.08 0.22 0.15 0.32 0.15 0.1 0 0.22 0.05 0.25 0.1 0.04 0.06 0.15 0.1 0.26 0.1 0.25 0 0.95 0.36 1.06 0.54 0.05 0.08 0.34 0.15 0.81 0.18 0.4 0.03 0.78 0.11 0.85 0.17 0.19 0.19 115.34 0.16 115.8-0.04 0.2-0.08 0.63-0.15 0.96-0.15 0.49 0 0.6-0.03 0.65-0.19 0.06-0.17 0.27-0.27 1.41-0.67q0.5-0.17 0.7-0.48c0.11-0.17 0.33-0.39 0.5-0.5 0.17-0.11 0.39-0.34 0.5-0.5 0.11-0.17 0.33-0.39 0.5-0.5 0.16-0.11 0.39-0.34 0.5-0.5 0.11-0.17 0.33-0.39 0.5-0.5q0.31-0.2 0.48-0.7c0.4-1.14 0.5-1.35 0.67-1.41 0.16-0.05 0.19-0.16 0.19-0.65 0-0.33 0.07-0.76 0.15-0.96 0.2-0.46 0.23-43.67 0.04-43.87-0.06-0.06-0.14-0.44-0.16-0.84-0.04-0.47-0.1-0.76-0.19-0.81-0.18-0.11-0.54-0.81-0.54-1.06 0-0.11-0.04-0.23-0.1-0.26-0.05-0.04-0.1-0.15-0.1-0.25 0-0.11-0.07-0.25-0.15-0.32-0.13-0.11-0.58-0.55-1-0.98-0.05-0.05-0.28-0.28-0.5-0.5-0.22-0.21-0.44-0.44-0.5-0.5-0.05-0.05-0.29-0.28-0.52-0.5-0.23-0.22-0.42-0.44-0.42-0.49 0-0.1-0.62-0.37-1.19-0.51-0.24-0.06-0.54-0.22-0.67-0.35-0.18-0.17-0.38-0.24-0.81-0.27-0.32-0.03-0.76-0.12-0.98-0.21-0.7-0.28-115.07-0.24-115.85 0.04zm18.61 7.78c0.15 0.07 0.29 0.22 0.33 0.31 0.03 0.1 0.28 0.33 0.56 0.5 0.27 0.18 0.54 0.43 0.59 0.56 0.04 0.12 0.24 0.33 0.43 0.46 0.19 0.12 0.45 0.39 0.56 0.6 0.12 0.21 0.35 0.5 0.51 0.66 0.17 0.15 0.34 0.45 0.39 0.67 0.15 0.63 0.13 35.54-0.02 35.88-0.07 0.16-0.26 0.48-0.44 0.73-0.18 0.25-0.35 0.58-0.39 0.72-0.07 0.27-0.26 0.51-0.75 0.94-0.14 0.12-0.39 0.38-0.56 0.57-0.18 0.19-0.44 0.37-0.6 0.41-0.15 0.04-0.48 0.22-0.73 0.4-0.74 0.52-0.9 0.56-2.5 0.56-1.51 0-1.85-0.06-2.24-0.42-0.1-0.09-0.48-0.31-0.85-0.48-0.42-0.21-0.73-0.44-0.86-0.64-0.11-0.17-0.35-0.4-0.52-0.51-0.2-0.13-0.43-0.44-0.63-0.85-0.18-0.36-0.4-0.74-0.5-0.85-0.47-0.53-0.45 0.17-0.48-18.03-0.04-18.64-0.04-18.62 0.48-19.09 0.15-0.13 0.4-0.44 0.55-0.67 0.15-0.24 0.31-0.43 0.35-0.43 0.1 0 0.8-0.69 0.8-0.79 0-0.04 0.22-0.23 0.5-0.41 0.27-0.19 0.52-0.42 0.55-0.52 0.15-0.45 4.65-0.69 5.47-0.28zm27.2-0.04c0.21 0.09 0.45 0.24 0.54 0.34 0.09 0.09 0.36 0.25 0.61 0.35 0.78 0.31 0.85 0.36 1.09 0.74 0.12 0.2 0.39 0.48 0.59 0.62 0.26 0.18 0.42 0.41 0.56 0.79 0.1 0.29 0.27 0.62 0.37 0.72 0.51 0.51 0.49-0.44 0.49 18.43 0 19.26 0.03 17.93-0.55 18.41-0.08 0.08-0.15 0.17-0.15 0.22 0 0.3-0.56 1.2-0.85 1.37-0.18 0.11-0.41 0.33-0.51 0.5-0.18 0.3-0.25 0.36-0.99 0.68-0.22 0.1-0.51 0.26-0.65 0.37-0.54 0.4-0.87 0.47-2.46 0.47-0.91 0-1.55-0.04-1.59-0.1-0.03-0.06-0.13-0.1-0.21-0.1-0.08 0-0.24-0.09-0.36-0.21-0.12-0.11-0.5-0.33-0.83-0.49-0.36-0.17-0.72-0.43-0.88-0.64-0.15-0.19-0.39-0.41-0.54-0.48q-0.27-0.13-0.67-0.9c-0.22-0.42-0.48-0.87-0.58-1-0.36-0.5-0.37-1.03-0.37-18.31 0-18.31-0.02-17.69 0.49-18.14 0.09-0.08 0.29-0.46 0.45-0.83 0.23-0.54 0.36-0.72 0.62-0.84 0.17-0.09 0.4-0.31 0.5-0.49 0.16-0.3 1.18-0.93 1.5-0.93 0.03 0 0.13-0.09 0.23-0.2 0.44-0.5 3.21-0.74 4.15-0.35zm27.78-0.05c0.03 0.05 0.14 0.1 0.23 0.1 0.1 0 0.28 0.1 0.4 0.23 0.13 0.14 0.44 0.32 0.7 0.41 0.75 0.27 0.86 0.35 1.1 0.74 0.13 0.2 0.4 0.48 0.61 0.63q0.38 0.27 0.46 0.6c0.04 0.18 0.19 0.5 0.33 0.72 0.66 0.99 0.6-0.83 0.61 18.61v17.6l-0.32 0.49c-0.33 0.48-0.42 0.66-0.73 1.34-0.09 0.21-0.3 0.44-0.49 0.54-0.18 0.1-0.41 0.32-0.5 0.5-0.18 0.32-0.26 0.38-1.01 0.71-0.22 0.1-0.51 0.26-0.65 0.37-0.53 0.4-0.87 0.47-2.4 0.47-1.48 0-1.84-0.07-2.21-0.4-0.17-0.15-0.54-0.35-1.18-0.65-0.19-0.08-0.45-0.31-0.57-0.5-0.12-0.18-0.35-0.4-0.5-0.47q-0.28-0.12-0.63-0.84c-0.19-0.38-0.45-0.82-0.57-0.97-0.43-0.55-0.43-0.54-0.43-18.34 0-18.31-0.01-17.86 0.48-18.22 0.1-0.07 0.31-0.43 0.47-0.8 0.21-0.51 0.36-0.72 0.62-0.87 0.18-0.11 0.42-0.35 0.53-0.54 0.15-0.25 0.37-0.41 0.88-0.62 0.37-0.15 0.71-0.34 0.75-0.42 0.27-0.44 3.78-0.81 4.02-0.42zm28.17 0.05c0.21 0.09 0.45 0.24 0.54 0.34 0.09 0.09 0.36 0.25 0.61 0.35 0.77 0.31 0.86 0.36 1.04 0.66 0.09 0.16 0.36 0.45 0.61 0.65 0.28 0.23 0.46 0.47 0.5 0.67 0.04 0.18 0.19 0.49 0.34 0.71 0.66 0.99 0.6-0.83 0.6 18.62l0.01 17.6-0.46 0.66c-0.25 0.37-0.48 0.8-0.51 0.96-0.05 0.26-0.62 0.89-0.81 0.89-0.04 0-0.16 0.15-0.26 0.34-0.18 0.33-0.26 0.39-1.01 0.72-0.22 0.1-0.51 0.26-0.65 0.37-0.53 0.4-0.87 0.47-2.45 0.47-0.92 0-1.56-0.04-1.6-0.1-0.03-0.06-0.12-0.1-0.21-0.1-0.08 0-0.24-0.09-0.36-0.21-0.12-0.11-0.49-0.33-0.83-0.49-0.36-0.17-0.72-0.43-0.88-0.64-0.15-0.19-0.39-0.41-0.54-0.48q-0.27-0.13-0.62-0.84c-0.2-0.39-0.45-0.85-0.58-1.02-0.42-0.57-0.42-0.73-0.42-18.36 0-18.59-0.02-17.86 0.53-18.2 0.12-0.07 0.29-0.41 0.56-1.09 0.07-0.18 0.27-0.39 0.46-0.49 0.18-0.1 0.42-0.34 0.52-0.52 0.15-0.29 1.18-0.92 1.49-0.92 0.03 0 0.14-0.09 0.23-0.2 0.44-0.5 3.22-0.74 4.15-0.35zm-86.48 3.35c-0.08 0.12-0.38 0.35-0.67 0.51-0.77 0.44-0.72-0.81-0.72 17.62 0.01 17.53 0 17.21 0.44 17.46 0.15 0.08 0.32 0.25 0.84 0.81 0.2 0.22 0.32 0.26 0.83 0.26h0.59l0.75-0.75 0.74-0.74v-17.06-17.05l-0.31-0.28c-0.18-0.16-0.37-0.29-0.43-0.29-0.07 0-0.27-0.15-0.46-0.35-0.42-0.44-1.33-0.52-1.6-0.14zm28.01-0.02c-0.07 0.11-0.37 0.35-0.68 0.53-0.8 0.48-0.75-0.82-0.75 17.57 0 18.62-0.07 17.04 0.86 17.95 0.95 0.93 1.69 0.91 2.65-0.07 0.76-0.78 0.69 1.09 0.69-17.88 0-16.05-0.01-17.01-0.18-17.18-0.09-0.1-0.35-0.29-0.57-0.43-0.22-0.14-0.49-0.35-0.59-0.46-0.26-0.3-1.25-0.31-1.43-0.03zm27.94 0.02c-0.08 0.12-0.38 0.35-0.66 0.51-0.78 0.44-0.73-0.81-0.73 17.57 0 17.12 0.01 17.58 0.38 17.58 0.04 0 0.31 0.23 0.6 0.5 0.95 0.91 2.13 0.59 3.04-0.82 0.17-0.26 0.17-1.25 0.17-17.28v-17l-0.31-0.28c-0.18-0.16-0.37-0.29-0.43-0.29-0.06 0-0.27-0.15-0.45-0.35-0.43-0.44-1.34-0.52-1.61-0.14zm28.01-0.02c-0.06 0.11-0.37 0.35-0.67 0.53-0.81 0.48-0.75-0.82-0.75 17.57 0 18.62-0.08 17.04 0.86 17.95 0.94 0.93 1.68 0.91 2.64-0.07 0.76-0.78 0.69 1.09 0.69-17.88 0-16.05-0.01-17.01-0.17-17.18-0.1-0.1-0.36-0.29-0.58-0.43-0.22-0.14-0.48-0.35-0.59-0.46-0.26-0.3-1.25-0.31-1.43-0.03zm-82.61 0.81c0.04 0.06 0.26 0.15 0.5 0.21 0.59 0.15 0.55-1 0.55 17.13 0 17.54 0.02 16.99-0.41 17.07-0.38 0.08-0.57 0.27-0.65 0.66-0.11 0.54-1.01 0.45-1.28-0.13-0.15-0.31-0.29-0.44-0.52-0.51-0.46-0.14-0.43 0.79-0.43-17.18 0-18.04-0.03-16.9 0.48-17.05 0.2-0.05 0.43-0.14 0.52-0.2 0.19-0.13 1.17-0.13 1.24 0zm28.08 0.04c0.11 0.07 0.34 0.17 0.51 0.2 0.45 0.1 0.44-0.53 0.44 17.1 0 16.83-0.01 17.03-0.32 17.03-0.25 0-0.78 0.56-0.78 0.81 0 0.38-1.05 0.27-1.19-0.12-0.12-0.36-0.46-0.69-0.71-0.69q-0.17 0-0.23-0.31c-0.08-0.38-0.09-33.23-0.01-33.51 0.12-0.45 1.83-0.83 2.29-0.51zm27.88-0.04c0.03 0.06 0.25 0.15 0.49 0.21 0.59 0.15 0.55-1 0.55 17.13 0 16.81 0 17.03-0.32 17.03-0.25 0-0.77 0.53-0.77 0.79 0 0.37-1.05 0.31-1.18-0.06-0.13-0.37-0.49-0.73-0.71-0.73-0.31 0-0.31-0.06-0.31-17.12 0-18.04-0.03-16.9 0.48-17.05 0.2-0.05 0.43-0.14 0.52-0.2 0.19-0.13 1.17-0.13 1.25 0zm28.07 0.04c0.11 0.07 0.34 0.17 0.51 0.2 0.46 0.1 0.44-0.53 0.44 17.1 0 16.83 0 17.03-0.32 17.03-0.25 0-0.78 0.56-0.78 0.81 0 0.38-1.05 0.27-1.19-0.12-0.12-0.36-0.46-0.69-0.71-0.69q-0.17 0-0.23-0.31c-0.08-0.38-0.09-33.23-0.01-33.51 0.12-0.45 1.83-0.83 2.29-0.51z"/>
		<path id="path2" fill-rule="evenodd" class="s2" d="m39.37 32.17c-0.09 0.06-0.32 0.15-0.52 0.2-0.51 0.15-0.48-0.99-0.48 17.05 0 17.97-0.03 17.04 0.43 17.18 0.23 0.07 0.37 0.2 0.52 0.51 0.27 0.58 1.17 0.67 1.28 0.13 0.08-0.39 0.27-0.58 0.65-0.66 0.43-0.08 0.41 0.47 0.41-17.07 0-18.13 0.04-16.98-0.55-17.13-0.24-0.06-0.46-0.15-0.5-0.21-0.07-0.13-1.05-0.13-1.24 0zm27.6 0.14c-0.32 0.13-0.54 0.29-0.57 0.41-0.08 0.28-0.07 33.13 0.01 33.51q0.06 0.31 0.23 0.31c0.25 0 0.59 0.33 0.71 0.69 0.14 0.39 1.19 0.5 1.19 0.12 0-0.25 0.53-0.81 0.78-0.81 0.31 0 0.32-0.2 0.32-17.03 0-17.63 0.01-17-0.44-17.1-0.17-0.03-0.4-0.13-0.51-0.2-0.28-0.2-1.11-0.15-1.72 0.1zm28.35-0.14c-0.09 0.06-0.32 0.15-0.52 0.2-0.51 0.15-0.48-0.99-0.48 17.05 0 17.06 0 17.12 0.31 17.12 0.22 0 0.58 0.36 0.71 0.73 0.13 0.37 1.18 0.43 1.18 0.06 0-0.26 0.52-0.79 0.77-0.79 0.32 0 0.32-0.22 0.32-17.03 0-18.13 0.04-16.98-0.55-17.13-0.24-0.06-0.46-0.15-0.49-0.21-0.08-0.13-1.06-0.13-1.25 0zm27.6 0.14c-0.32 0.13-0.54 0.29-0.57 0.41-0.08 0.28-0.07 33.13 0.01 33.51q0.06 0.31 0.23 0.31c0.25 0 0.59 0.33 0.71 0.69 0.14 0.39 1.19 0.5 1.19 0.12 0-0.25 0.53-0.81 0.78-0.81 0.32 0 0.32-0.2 0.32-17.03 0-17.63 0.02-17-0.44-17.1-0.17-0.03-0.4-0.13-0.51-0.2-0.28-0.2-1.11-0.15-1.72 0.1z"/>
		<path id="path3" fill-rule="evenodd" class="s3" d="m3.5 3.24v3.24l0.4 0.35 0.41 0.34 1.13 0.02 1.13 0.01 0.06-0.47c0.04-0.25 0.06-1.17 0.06-2.03 0-1.51 0.01-1.58 0.24-1.78l0.23-0.22h14.93 14.93l0.3 0.24c0.69 0.56 0.65 0.42 0.65 2.1 0 1.51 0 1.54 0.26 1.85 0.38 0.46 1.16 0.45 1.56-0.02l0.27-0.33v-3.27l0.01-3.27h-18.29-18.28zm40.46 0.03c0 3.22 0 3.27 0.23 3.59 0.33 0.49 1.18 0.5 1.59 0.01l0.28-0.32v-1.57c0-1.29 0.03-1.6 0.15-1.7 0.09-0.07 0.21-0.18 0.28-0.24 0.39-0.34 0.39-0.34 15.39-0.34 8.16 0 14.91 0.03 15 0.06 0.37 0.14 0.45 0.56 0.45 2.37 0 2.25-0.1 2.06 1.2 2.06h1.07l0.44-0.34q0.44-0.36 0.76-0.35h0.33v-3.25-3.25h-18.58-18.59zm39.47-0.03v3.24l0.4 0.35 0.41 0.35 1.13 0.01 1.13 0.02 0.06-0.47c0.04-0.26 0.06-1.17 0.06-2.04 0-1.51 0.01-1.57 0.24-1.78l0.23-0.22h14.94 14.95l0.27 0.23c0.69 0.57 0.65 0.43 0.65 2.11 0 1.51 0 1.55 0.26 1.85 0.39 0.47 1.21 0.46 1.58-0.03l0.26-0.33v-3.26-3.27h-18.29-18.28zm40.36-0.03v3.21l0.28 0.39c0.26 0.37 0.29 0.38 0.84 0.39 0.96 0 1.08-0.26 1.08-2.22v-1.55l0.29-0.25c0.16-0.14 0.38-0.31 0.49-0.37 0.42-0.22 29.93-0.14 30.21 0.08 0.23 0.19 0.23 0.24 0.26 2.03 0.04 2.51-0.09 2.28 1.2 2.28 1.05 0 1.09-0.01 1.5-0.31l0.42-0.31v-3.29-3.29h-18.28-18.29zm-121.97 4.77l-1.82 0.03v18.23 18.23h1.75 1.75v4.99 4.99l0.4 0.34 0.41 0.35 1.13 0.01 1.13 0.02 0.06-0.47c0.04-0.26 0.06-2.75 0.06-5.53v-5.06l0.24-0.22c0.23-0.22 2.53-0.34 3.01-0.16 0.44 0.17 0.45 0.32 0.45 6.23 0 6 0 5.99-0.51 6.26-0.65 0.33-3.29 0.11-3.29-0.28 0-0.08-0.54-0.09-2.07-0.05-1.14 0.04-2.62 0.07-3.3 0.07h-1.22v18.23 18.24h1.75 1.75v3.75 3.74h18.28 18.29v-3.79c0-4.27-0.02-4.18 0.69-4.05 0.19 0.04 0.43 0.13 0.51 0.21 0.24 0.21 1.08 0.17 1.54-0.06 1.13-0.58 1.15-0.51 1.15 3.95v3.74h18.59 18.58v-3.74-3.75h1.15 1.15v3.75 3.74h18.28 18.29v-3.78c0-3.61 0-3.79 0.19-3.96 0.22-0.19 0.74-0.13 0.98 0.11 0.21 0.21 1.15 0.18 1.6-0.06 1.02-0.55 1.02-0.55 1.02 3.9v3.79h18.29 18.28v-3.74-3.75h1.75 1.75v-18.24-18.24l-1.8 0.01c-0.98 0.01-1.83 0-1.87-0.03-0.18-0.11-2.93-0.08-2.93 0.03 0 0.38-2.65 0.58-3.29 0.25-0.41-0.21-0.42-0.27-0.38-6.56 0.03-5.3 0.04-5.57 0.22-5.77 0.27-0.3 2.8-0.32 3.17-0.02l0.23 0.19 0.06 5.53c0.03 3.04 0.06 5.54 0.07 5.56 0.19 0.21 2.23-0.01 2.6-0.29l0.42-0.31v-5.03-5.04h1.75 1.75v-18.24-18.24l-1.8 0.02c-0.98 0-1.83-0.01-1.87-0.04-0.18-0.11-2.93-0.08-2.93 0.03 0 0.4-0.04 0.4-15.35 0.4-13.1 0-14.71-0.02-15.21-0.16-0.31-0.09-0.72-0.2-0.92-0.26-0.21-0.06-0.67-0.07-1.1-0.03-0.63 0.06-2.64 0.07-5.73 0.03q-1.19-0.01-1.98 0.31c-0.49 0.19-29.61 0.16-30.08-0.04-0.2-0.08-0.36-0.2-0.36-0.26 0-0.1-5.94-0.03-6.12 0.08q-0.07 0.02-0.13-0.07c-0.09-0.14-2.95-0.13-2.95 0.01 0 0.39-0.07 0.39-15.35 0.39-13.1 0-14.71-0.02-15.21-0.16-0.31-0.09-0.72-0.2-0.92-0.26-0.21-0.06-0.67-0.07-1.1-0.03-0.97 0.09-4.5 0.09-5.62 0-0.6-0.05-0.91-0.04-0.99 0.04-0.06 0.06-0.23 0.11-0.38 0.11-0.15 0-0.43 0.07-0.63 0.15-0.54 0.23-29.63 0.23-30.17 0-0.2-0.08-0.37-0.2-0.37-0.25q-0.01-0.11-1.47-0.08c-0.81 0.02-2.29 0.04-3.3 0.06zm157.76 3.14c0.08 0.07 0.26 0.29 0.39 0.48l0.24 0.35 0.03 13.64c0.03 14.99 0.05 14.36-0.39 14.61-0.42 0.24-5.42 0.26-5.88 0.03-0.4-0.21-0.4-0.19-0.41-6.03-0.01-5.97 0.01-5.73-0.45-5.95-0.41-0.19-0.42-0.23-0.48-2.06-0.05-1.66-0.07-1.74-0.47-1.91q-0.59-0.24-0.59-1.18c0-0.52-0.13-0.74-0.5-0.86-0.28-0.09-0.48-0.53-0.56-1.19-0.06-0.5-0.09-0.55-0.34-0.61q-0.52-0.11-0.65-0.72c-0.05-0.25-0.12-0.33-0.28-0.33-0.31-0.01-0.63-0.31-0.71-0.68q-0.07-0.32-0.26-0.32c-0.39 0-0.69-0.22-0.76-0.56-0.05-0.3-0.1-0.33-0.52-0.4-0.78-0.11-1.18-0.32-1.36-0.69-0.15-0.32-0.2-0.35-0.61-0.35-0.67 0-1.2-0.25-1.39-0.65-0.12-0.26-0.23-0.35-0.43-0.35-3.14-0.1-3.56-0.18-3.64-0.73l-0.03-0.21-57.06-0.03-57.05-0.02-0.17 0.35c-0.23 0.48-0.48 0.55-2.01 0.55-2.39 0-2.79 0.06-3.01 0.48-0.23 0.4-0.65 0.6-1.36 0.61-0.43 0-0.48 0.03-0.63 0.36-0.19 0.39-0.67 0.64-1.25 0.64q-0.6 0.01-0.6 0.41c0 0.21-0.31 0.49-0.66 0.58q-0.28 0.07-0.36 0.35c-0.1 0.38-0.26 0.55-0.61 0.64-0.22 0.06-0.33 0.16-0.39 0.36-0.09 0.35-0.36 0.66-0.58 0.66q-0.4 0.01-0.4 0.61c0 0.58-0.25 1.06-0.65 1.25-0.32 0.15-0.35 0.2-0.36 0.63-0.01 0.7-0.2 1.13-0.61 1.35-0.42 0.23-0.48 0.63-0.48 3.01 0 1.54-0.06 1.77-0.54 2l-0.36 0.17v5.09c0 5.52 0 5.5-0.55 5.75-0.41 0.19-5.36 0.17-5.74-0.02-0.42-0.22-0.4 0.44-0.4-14.36v-13.89l0.3-0.43c0.16-0.24 0.35-0.46 0.42-0.48 0.31-0.13 155-0.07 155.16 0.05zm-17.54 8.82c0.13 0.17 0.24 0.37 0.24 0.46 0 0.13 0.14 0.17 0.69 0.22 0.87 0.07 1.04 0.17 1.24 0.67 0.12 0.28 0.22 0.4 0.37 0.4 0.25 0 0.67 0.43 0.71 0.73q0.03 0.22 0.33 0.27c0.24 0.04 0.35 0.15 0.53 0.5 0.17 0.33 0.31 0.47 0.52 0.53q0.6 0.15 0.6 1.26c0 0.6 0.01 0.61 0.31 0.67 0.76 0.15 0.69-2.17 0.69 24.28 0 26.33 0.07 24.17-0.82 24.45-0.14 0.05-0.18 0.17-0.18 0.62 0 0.7-0.2 1.09-0.64 1.25-0.25 0.1-0.37 0.21-0.46 0.5-0.12 0.36-0.42 0.59-0.75 0.59-0.08 0-0.15 0.07-0.15 0.15 0 0.33-0.23 0.63-0.59 0.75-0.28 0.09-0.4 0.2-0.5 0.46-0.15 0.44-0.55 0.64-1.25 0.64-0.45 0-0.57 0.04-0.62 0.17-0.13 0.44-0.28 0.63-0.56 0.72-0.64 0.23-119.36 0.14-119.73-0.08q-0.31-0.19-0.37-0.5c-0.06-0.31-0.07-0.31-0.67-0.31q-1.12 0-1.27-0.6c-0.06-0.22-0.2-0.36-0.53-0.52-0.35-0.18-0.46-0.3-0.5-0.53q-0.04-0.31-0.26-0.33c-0.3-0.04-0.74-0.47-0.74-0.71 0-0.15-0.11-0.26-0.4-0.37-0.5-0.2-0.59-0.37-0.67-1.24-0.04-0.55-0.09-0.7-0.21-0.7-0.09 0-0.3-0.1-0.46-0.24l-0.3-0.24v-23.81c0-25.91-0.04-24.18 0.57-24.34 0.32-0.08 0.33-0.1 0.41-0.83 0.09-0.82 0.3-1.16 0.75-1.21 0.2-0.02 0.27-0.09 0.3-0.29 0.03-0.32 0.38-0.66 0.71-0.71q0.26-0.02 0.29-0.28c0.04-0.34 0.38-0.68 0.7-0.72 0.2-0.02 0.27-0.09 0.29-0.29 0.06-0.46 0.39-0.67 1.22-0.76 0.72-0.08 0.74-0.09 0.82-0.39 0.1-0.4 0.38-0.53 1.28-0.57 0.41-0.02 27.31-0.03 59.78-0.02h59.04zm-104.07 8.53c-0.27 0.05-0.38 0.15-0.55 0.46-0.17 0.35-0.26 0.41-0.6 0.45-0.36 0.05-0.4 0.09-0.43 0.35-0.05 0.38-0.28 0.65-0.57 0.65q-0.44 0.01-0.45 0.52 0.01 0.28-0.31 0.5c-0.69 0.51-0.64-0.96-0.67 17.47-0.04 18.3-0.03 18.68 0.34 18.68 0.32 0 0.64 0.52 0.65 1.05 0.02 0.69 0.11 0.88 0.48 0.96 0.41 0.08 0.47 0.15 0.58 0.59l0.09 0.35 0.73 0.07c0.81 0.08 1.06 0.23 1.16 0.69l0.06 0.29h1.54 1.54v-0.25c0-0.5 0.32-0.64 1.75-0.78 0.15-0.02 0.22-0.12 0.26-0.41 0.07-0.43 0.21-0.56 0.62-0.56 0.32 0 0.34-0.03 0.42-0.91q0.1-1.1 0.7-1.09h0.25v-17.7-17.71l-0.22-0.33c-0.13-0.18-0.26-0.33-0.3-0.33-0.19 0-0.48-0.42-0.48-0.69q0.01-0.41-0.46-0.41c-0.24 0-0.44-0.26-0.51-0.65-0.05-0.31-0.08-0.35-0.37-0.35-0.37 0-0.62-0.22-0.67-0.6-0.05-0.35-3.16-0.56-4.58-0.31zm28.61-0.02q-0.21 0.05-0.27 0.34c-0.08 0.36-0.43 0.55-1.21 0.62-0.6 0.06-0.75 0.17-0.75 0.54-0.01 0.26-0.16 0.39-0.57 0.48-0.32 0.07-0.43 0.33-0.43 1.09-0.01 0.36-0.34 0.84-0.63 0.88-0.36 0.05-0.36 0.08-0.37 17.32 0 18.16-0.01 17.78 0.41 17.87 0.31 0.06 0.58 0.49 0.59 0.93 0 0.73 0.11 1.03 0.38 1.03 0.38 0 0.51 0.12 0.66 0.56l0.13 0.39 0.73 0.08c0.78 0.1 1.03 0.25 1.15 0.69l0.06 0.28h1.54 1.54v-0.24c0-0.43 0.38-0.66 1.23-0.73 0.75-0.06 0.77-0.07 0.77-0.33 0-0.36 0.34-0.7 0.7-0.7 0.28 0 0.3-0.02 0.3-0.44 0-0.92 0.31-1.56 0.77-1.56h0.23v-17.52-17.53l-0.3-0.1c-0.41-0.15-0.62-0.52-0.68-1.27-0.05-0.64-0.05-0.64-0.38-0.71-0.35-0.06-0.64-0.39-0.64-0.72 0-0.24-0.19-0.32-0.76-0.32-0.57 0-0.99-0.21-1.15-0.59-0.07-0.16-0.21-0.31-0.3-0.34-0.22-0.06-2.47-0.06-2.75 0zm27.97 0q-0.21 0.05-0.27 0.34c-0.07 0.36-0.43 0.55-1.2 0.62-0.59 0.06-0.76 0.17-0.76 0.5q-0.01 0.39-0.57 0.52c-0.32 0.07-0.42 0.34-0.43 1.09 0 0.36-0.34 0.84-0.62 0.88-0.37 0.05-0.37 0.08-0.37 17.38-0.01 18-0.01 17.72 0.38 17.81 0.3 0.06 0.61 0.54 0.61 0.94 0.01 0.73 0.12 1.02 0.4 1.02q0.46 0 0.67 0.65c0.09 0.28 0.13 0.3 0.83 0.38 0.79 0.1 1.04 0.25 1.15 0.69l0.07 0.28h1.54 1.54v-0.25c0-0.48 0.58-0.75 1.65-0.75 0.3 0 0.32-0.03 0.37-0.41 0.07-0.5 0.06-0.5 0.57-0.56 0.38-0.05 0.4-0.08 0.4-0.38 0-1.06 0.27-1.65 0.76-1.65h0.24v-17.53-17.54l-0.24-0.06c-0.46-0.11-0.66-0.45-0.73-1.22-0.05-0.7-0.05-0.7-0.39-0.76-0.36-0.07-0.64-0.38-0.64-0.72 0-0.26-0.17-0.34-0.8-0.34-0.59 0-1.07-0.25-1.15-0.61-0.07-0.35-1.88-0.54-3.01-0.32zm27.98 0q-0.21 0.05-0.27 0.34c-0.07 0.36-0.43 0.55-1.21 0.62-0.6 0.06-0.75 0.17-0.75 0.54 0 0.26-0.16 0.39-0.57 0.48-0.33 0.07-0.43 0.33-0.43 1.11 0 0.38-0.32 0.82-0.63 0.86-0.36 0.05-0.36 0.08-0.37 17.32 0 17.08 0.01 17.83 0.29 17.83 0.47 0 0.63 0.3 0.76 1.42 0.06 0.54 0.08 0.58 0.33 0.58 0.38 0 0.51 0.11 0.66 0.56l0.14 0.39 0.72 0.08c0.79 0.1 1.04 0.25 1.15 0.69l0.07 0.28h1.53 1.54v-0.24c0-0.43 0.38-0.66 1.23-0.73 0.75-0.06 0.77-0.07 0.77-0.32 0-0.43 0.26-0.71 0.65-0.71 0.33 0 0.35-0.02 0.35-0.34 0-1.07 0.26-1.66 0.75-1.66h0.25v-17.53-17.54l-0.24-0.06c-0.46-0.11-0.67-0.45-0.73-1.22-0.06-0.7-0.06-0.7-0.39-0.76-0.37-0.07-0.64-0.38-0.64-0.72 0-0.26-0.17-0.34-0.76-0.34-0.57 0-0.98-0.21-1.15-0.59-0.07-0.16-0.21-0.31-0.3-0.34-0.22-0.06-2.47-0.06-2.75 0zm-81.35 2.43c0.1 0.12 0.18 0.33 0.18 0.45 0 0.18 0.07 0.24 0.39 0.29 0.72 0.11 0.66-1.44 0.66 17.9 0 19.15 0.05 17.77-0.6 17.89-0.26 0.05-0.34 0.12-0.39 0.36-0.1 0.55-0.18 0.58-1.41 0.58-1.25 0-1.44-0.08-1.44-0.61 0-0.22-0.05-0.29-0.2-0.29-0.32 0-0.68-0.21-0.74-0.44-0.11-0.38-0.07-34.8 0.03-35.07 0.08-0.2 0.2-0.27 0.5-0.32 0.34-0.05 0.41-0.11 0.46-0.37 0.13-0.58 0.34-0.67 1.54-0.63 0.73 0.02 0.86 0.06 1.02 0.26zm27.97-0.01c0.1 0.13 0.19 0.34 0.19 0.46 0 0.19 0.07 0.24 0.45 0.3 0.38 0.05 0.46 0.11 0.52 0.33 0.1 0.35 0.1 34.76 0.01 35.1-0.04 0.14-0.19 0.31-0.33 0.37-0.14 0.06-0.37 0.29-0.52 0.51l-0.28 0.4-1.18 0.01c-1.14 0-1.47-0.08-1.47-0.36 0-0.13-0.43-0.54-0.56-0.54-0.45 0-0.44 0.49-0.44-17.92 0-18.91-0.03-17.81 0.6-17.91 0.31-0.05 0.38-0.12 0.54-0.49 0.21-0.51 0.28-0.54 1.45-0.51 0.74 0.01 0.85 0.04 1.02 0.25zm27.98 0.01c0.1 0.12 0.19 0.33 0.19 0.45 0 0.18 0.07 0.24 0.38 0.29 0.72 0.11 0.67-1.44 0.67 17.89v17.5l-0.68 0.67-0.67 0.68-1.17-0.03c-1.11-0.03-1.18-0.04-1.29-0.26-0.14-0.28-0.42-0.55-0.67-0.65-0.37-0.14-0.37-0.33-0.37-17.9 0-18.75-0.03-17.8 0.59-17.9 0.34-0.05 0.41-0.11 0.46-0.37 0.13-0.58 0.34-0.67 1.54-0.63 0.73 0.02 0.86 0.06 1.02 0.26zm27.97-0.01c0.11 0.13 0.19 0.34 0.19 0.46 0 0.19 0.07 0.24 0.45 0.3 0.38 0.05 0.46 0.11 0.53 0.33 0.09 0.35 0.09 34.76 0 35.1-0.04 0.14-0.19 0.31-0.33 0.37-0.13 0.06-0.37 0.29-0.52 0.51l-0.28 0.4-1.18 0.01c-1.14 0-1.47-0.08-1.47-0.36 0-0.13-0.42-0.54-0.56-0.54-0.45 0-0.44 0.49-0.44-17.92 0-18.91-0.03-17.81 0.6-17.91 0.31-0.05 0.38-0.12 0.54-0.49 0.21-0.51 0.29-0.54 1.45-0.51 0.74 0.01 0.85 0.04 1.02 0.25zm-115.33 28.29c0.59 0.54 0.57 0.34 0.62 6.64 0.05 5.59 0.06 5.8 0.24 5.83 0.58 0.11 0.66 0.48 0.75 3.63 0.01 0.21 0.09 0.31 0.35 0.44 0.41 0.19 0.66 0.72 0.66 1.39 0 0.41 0.03 0.46 0.34 0.6 0.38 0.18 0.59 0.59 0.7 1.37 0.06 0.42 0.09 0.46 0.4 0.52 0.34 0.06 0.56 0.37 0.56 0.76 0 0.14 0.09 0.21 0.34 0.25 0.37 0.07 0.66 0.4 0.66 0.74q-0.01 0.2 0.32 0.26c0.42 0.09 0.58 0.22 0.74 0.61 0.11 0.27 0.19 0.32 0.65 0.38 0.63 0.08 1.05 0.29 1.13 0.56 0.12 0.36 0.35 0.5 0.87 0.5 0.57 0 1.04 0.2 1.13 0.49 0.15 0.47 0.28 0.51 1.86 0.51 1.67 0 1.97 0.08 2.18 0.58 0.18 0.43-3.6 0.4 57.37 0.41 57.47 0.01 57.94 0 57.94-0.28 0.01-0.57 0.47-0.71 2.18-0.71 1.61 0 1.81-0.04 1.82-0.29 0.01-0.45 0.49-0.71 1.29-0.71 0.59 0 0.6-0.01 0.74-0.33 0.19-0.45 0.52-0.65 1.25-0.73 0.54-0.06 0.61-0.09 0.61-0.29 0-0.31 0.29-0.61 0.68-0.7 0.24-0.05 0.34-0.14 0.39-0.33q0.12-0.56 0.64-0.66c0.23-0.04 0.31-0.12 0.35-0.35 0.08-0.39 0.39-0.71 0.68-0.71 0.21 0 0.24-0.06 0.3-0.61 0.09-0.73 0.28-1.07 0.73-1.25 0.32-0.14 0.33-0.16 0.33-0.75 0-0.79 0.27-1.27 0.71-1.28 0.26-0.01 0.3-0.24 0.36-1.99 0.06-1.73 0.15-2.01 0.63-2.01 0.26 0 0.3-0.73 0.3-6.29 0-5.38 0.01-5.59 0.49-6.09l0.29-0.31h2.54c2.75 0 2.66-0.02 3.08 0.6l0.24 0.35 0.03 13.63c0.03 15 0.05 14.37-0.39 14.62-0.43 0.24-155.27 0.27-155.75 0.03-0.42-0.22-0.4 0.44-0.4-14.36v-13.89l0.3-0.43c0.39-0.57 0.19-0.54 3.05-0.54 2.38-0.01 2.51 0 2.72 0.19zm27.55 32.71c0.7 0.57 0.65 0.36 0.65 2.6v2.04l-0.33 0.27c-0.68 0.58 0.25 0.54-15.61 0.54-15.61 0-15.09 0.02-15.27-0.45-0.2-0.51-0.07-4.78 0.15-5.01l0.22-0.23h14.94 14.95zm39.56-0.18c0.44 0.17 0.71 4.26 0.33 5.09-0.26 0.57 0.61 0.54-15.3 0.54-15.85 0-14.96 0.03-15.58-0.53l-0.27-0.26v-2.09c0-2.18-0.01-2.11 0.42-2.47 0.07-0.06 0.22-0.16 0.33-0.22 0.21-0.13 29.75-0.18 30.07-0.06zm40.37 0.16c0.7 0.59 0.65 0.38 0.64 2.6 0 2.27 0.02 2.21-0.74 2.61l-0.48 0.26h-14.68c-15.64 0-15.12 0.02-15.3-0.45-0.2-0.51-0.06-4.78 0.15-5.01l0.22-0.23h14.96 14.96zm39.73-0.04c0.24 0.2 0.41 3.58 0.24 4.76-0.12 0.81 1.21 0.75-15.35 0.75-17.96 0-15.88 0.38-15.88-2.9v-2.07l0.28-0.25c0.16-0.14 0.37-0.3 0.48-0.36 0.39-0.23 29.95-0.16 30.23 0.07z"/>
		<path id="path4" fill-rule="evenodd" class="s4" d="m40.06 3.27v3.27l-0.27 0.33c-0.4 0.47-1.18 0.48-1.56 0.02-0.26-0.31-0.26-0.34-0.26-1.85 0-1.68 0.04-1.54-0.65-2.1l-0.3-0.24h-14.95-14.94l-0.22 0.23c-0.2 0.22-0.22 0.33-0.22 1.78 0 0.86-0.02 1.77-0.06 2.02l-0.06 0.47-1.13-0.01-1.13-0.02-0.4-0.34-0.39-0.34h-1.76-1.76v0.77 0.76l3.3-0.07c2.3-0.05 3.29-0.04 3.29 0.03 0 0.06 0.17 0.18 0.37 0.26 0.54 0.23 29.63 0.23 30.17 0 0.2-0.08 0.48-0.15 0.63-0.15 0.15 0 0.32-0.05 0.38-0.11 0.08-0.08 0.39-0.09 0.99-0.04 1.12 0.09 4.65 0.09 5.62 0 0.43-0.04 0.89-0.03 1.1 0.03 0.2 0.06 0.61 0.18 0.92 0.26 0.5 0.15 2.11 0.16 15.21 0.16 15.28 0 15.35 0 15.35-0.39 0-0.14 2.86-0.15 2.95-0.01q0.06 0.09 0.13 0.07c0.18-0.11 6.12-0.18 6.12-0.08 0 0.06 0.16 0.18 0.36 0.26 0.47 0.2 29.59 0.23 30.08 0.04q0.79-0.32 1.98-0.31c3.09 0.04 5.1 0.03 5.73-0.03 0.43-0.04 0.89-0.03 1.1 0.03 0.2 0.06 0.61 0.18 0.92 0.26 0.5 0.15 2.11 0.16 15.21 0.16 15.31 0 15.35 0 15.35-0.4 0-0.12 2.87-0.13 2.94-0.01 0.02 0.03 0.86 0.05 1.85 0.03l1.81-0.03v-0.74-0.75h-1.71-1.7l-0.46 0.35-0.46 0.35h-1.08c-1.3 0-1.17 0.24-1.21-2.28-0.03-1.79-0.03-1.84-0.26-2.02-0.28-0.23-29.79-0.31-30.21-0.08-0.11 0.06-0.33 0.22-0.49 0.36l-0.29 0.26v1.55c0 1.96-0.12 2.21-1.08 2.21-0.55 0-0.58-0.02-0.84-0.39l-0.28-0.39v-3.2-3.21h-0.7-0.7v3.25 3.24h-0.5-0.5v-3.24-3.25h-0.69-0.7v3.26 3.27l-0.26 0.33c-0.37 0.48-1.19 0.5-1.58 0.03-0.26-0.31-0.26-0.34-0.26-1.85 0-1.68 0.04-1.54-0.65-2.12l-0.27-0.22h-14.96-14.96l-0.22 0.23c-0.2 0.22-0.22 0.33-0.22 1.78 0 0.86-0.02 1.77-0.06 2.02l-0.06 0.47-1.13-0.01-1.13-0.02-0.4-0.34-0.39-0.34-1.49 0.01h-1.48l-0.44 0.35-0.44 0.34h-1.07c-1.3 0-1.2 0.19-1.2-2.06 0-1.81-0.08-2.23-0.45-2.37-0.32-0.12-29.82-0.07-30.05 0.05-0.21 0.11-0.34 0.21-0.62 0.47-0.12 0.1-0.15 0.45-0.15 1.7v1.56l-0.28 0.33c-0.41 0.49-1.26 0.48-1.59-0.01-0.23-0.32-0.23-0.37-0.23-3.59v-3.27h-0.75-0.75v3.25 3.24h-0.5-0.5v-3.24-3.25h-0.7-0.69zm-3.27 0.03l0.27 0.21v2.03 2.03l-0.25 0.16c-0.3 0.2-29.17 0.25-29.53 0.06-0.31-0.16-0.3-4.19 0-4.5 0.2-0.19 0.34-0.19 14.73-0.19h14.52zm39.86-0.04c0.21 0.25 0.29 4.21 0.08 4.46-0.21 0.25-29.28 0.25-29.61 0-0.44-0.33-0.24-4.44 0.22-4.57 0.6-0.16 29.16-0.05 29.31 0.11zm40.07 0.04l0.27 0.2v2.02c0 1.9-0.02 2.03-0.21 2.19-0.24 0.21-29.19 0.28-29.57 0.07-0.31-0.16-0.3-4.19 0-4.49 0.2-0.2 0.33-0.2 14.73-0.2h14.52zm39.83-0.11c0.23 0.14 0.34 4.27 0.12 4.52-0.23 0.27-29.28 0.27-29.63 0.01-0.44-0.33-0.24-4.44 0.22-4.56 0.35-0.09 29.14-0.06 29.29 0.03zm-152.15 7.86c-0.07 0.03-0.26 0.25-0.42 0.49l-0.3 0.43v13.89c0 14.8-0.02 14.13 0.41 14.35 0.37 0.2 5.32 0.22 5.74 0.03 0.55-0.25 0.55-0.24 0.55-5.76v-5.09l0.35-0.17c0.48-0.23 0.54-0.45 0.54-1.99 0-2.39 0.07-2.79 0.48-3.01 0.41-0.23 0.6-0.65 0.62-1.36 0-0.43 0.03-0.48 0.35-0.63 0.4-0.19 0.65-0.67 0.65-1.25q0.01-0.6 0.41-0.6c0.21 0 0.48-0.31 0.58-0.66 0.05-0.2 0.16-0.31 0.38-0.36 0.36-0.09 0.52-0.26 0.62-0.65q0.07-0.27 0.35-0.35c0.35-0.09 0.66-0.36 0.66-0.58q0.01-0.4 0.61-0.4c0.58 0 1.06-0.25 1.24-0.65 0.16-0.32 0.21-0.35 0.63-0.36 0.71-0.01 1.14-0.2 1.36-0.61 0.23-0.42 0.63-0.48 3.01-0.48 1.54 0 1.78-0.07 2.01-0.55l0.17-0.35 57.06 0.03 57.05 0.02 0.03 0.22c0.08 0.55 0.5 0.63 3.64 0.72 0.21 0.01 0.31 0.09 0.43 0.35 0.19 0.41 0.73 0.66 1.4 0.66 0.4 0 0.45 0.03 0.6 0.34 0.18 0.38 0.58 0.59 1.36 0.7 0.43 0.06 0.47 0.09 0.53 0.4 0.06 0.33 0.36 0.56 0.75 0.56q0.19-0.01 0.26 0.32c0.08 0.37 0.4 0.67 0.71 0.67 0.16 0.01 0.24 0.09 0.29 0.33q0.12 0.62 0.64 0.73c0.25 0.05 0.28 0.11 0.34 0.61 0.08 0.66 0.29 1.1 0.56 1.18 0.37 0.12 0.5 0.35 0.5 0.87q0.01 0.93 0.59 1.18c0.4 0.17 0.42 0.24 0.48 1.9 0.06 1.83 0.06 1.87 0.47 2.07 0.46 0.22 0.45-0.03 0.46 5.95 0.01 5.83 0.01 5.81 0.41 6.02 0.46 0.24 5.45 0.21 5.87-0.03 0.44-0.25 0.43 0.38 0.39-14.61l-0.02-13.64-0.25-0.35c-0.13-0.19-0.3-0.4-0.39-0.47-0.15-0.13-154.85-0.18-155.16-0.06zm155.19 1.16c0.21 0.29 0.24 27.32 0.04 27.53-0.21 0.21-5.26 0.17-5.5-0.05-0.17-0.15-0.18-0.46-0.18-5.79v-5.63l-0.4-0.4-0.4-0.4v-1.09c0-1.51-0.14-2.03-0.67-2.58-0.25-0.26-0.43-0.54-0.43-0.67 0-0.54-0.15-0.9-0.55-1.31-0.33-0.34-0.44-0.54-0.49-0.91-0.06-0.4-0.17-0.56-0.64-1.04-0.31-0.32-0.61-0.62-0.67-0.68-0.05-0.05-0.29-0.3-0.53-0.53-0.23-0.24-0.47-0.48-0.53-0.53-0.77-0.78-1.19-1.14-1.39-1.19-0.78-0.21-1.01-0.31-1.14-0.52-0.17-0.26-0.58-0.46-1.3-0.63q-0.49-0.12-0.68-0.36c-0.37-0.49-1.35-0.75-2.82-0.75-1 0-1.05-0.01-1.21-0.25-0.08-0.13-0.29-0.31-0.46-0.4-0.5-0.25-114.06-0.23-114.46 0.02-0.15 0.1-0.36 0.28-0.47 0.4-0.18 0.21-0.3 0.22-1.85 0.27-2.27 0.06-2.61 0.14-3.14 0.73-0.23 0.25-0.65 0.43-1.01 0.43-0.28 0-0.67 0.23-1.06 0.62-0.14 0.15-0.43 0.3-0.65 0.34-0.52 0.09-0.9 0.3-0.98 0.52-0.03 0.11-0.2 0.3-0.37 0.43-0.18 0.13-0.39 0.31-0.47 0.4-0.09 0.09-0.28 0.3-0.42 0.45-0.15 0.16-0.37 0.38-0.5 0.49-0.13 0.11-0.35 0.35-0.48 0.52-0.13 0.18-0.32 0.35-0.42 0.38-0.23 0.07-0.44 0.46-0.53 0.98-0.04 0.21-0.19 0.5-0.34 0.65-0.39 0.39-0.62 0.77-0.62 1.05 0 0.37-0.18 0.79-0.43 1.01-0.59 0.53-0.67 0.88-0.73 3.15-0.04 1.55-0.06 1.66-0.27 1.85-0.59 0.53-0.56 0.29-0.56 5.8 0 4.25-0.03 5.08-0.15 5.2-0.24 0.24-5.26 0.2-5.49-0.04-0.28-0.32-0.2-27.32 0.09-27.54 0.18-0.13 8.71-0.15 77.65-0.15l77.45-0.01zm-136.62 7.45c-0.9 0.03-1.18 0.16-1.28 0.57-0.08 0.29-0.11 0.31-0.83 0.39-0.82 0.09-1.16 0.3-1.21 0.75-0.02 0.2-0.09 0.27-0.29 0.29-0.32 0.04-0.66 0.39-0.7 0.72q-0.03 0.26-0.29 0.29c-0.33 0.04-0.68 0.38-0.72 0.7-0.02 0.2-0.09 0.27-0.29 0.29-0.45 0.05-0.66 0.39-0.75 1.21-0.08 0.73-0.09 0.75-0.41 0.83-0.62 0.16-0.57-1.57-0.57 24.34v23.82l0.29 0.24c0.17 0.13 0.38 0.24 0.47 0.24 0.12 0 0.17 0.15 0.21 0.69 0.08 0.87 0.17 1.04 0.67 1.24 0.29 0.12 0.4 0.22 0.4 0.37 0 0.25 0.44 0.67 0.74 0.71q0.22 0.03 0.26 0.33c0.04 0.24 0.15 0.35 0.5 0.53 0.33 0.17 0.47 0.31 0.53 0.52q0.15 0.61 1.27 0.6c0.6 0 0.61 0.01 0.67 0.31q0.06 0.31 0.37 0.5c0.36 0.22 119.09 0.31 119.73 0.09 0.28-0.1 0.42-0.29 0.56-0.72 0.05-0.14 0.17-0.18 0.62-0.18 0.7 0 1.09-0.2 1.25-0.63 0.1-0.26 0.22-0.37 0.5-0.47 0.36-0.12 0.59-0.41 0.59-0.75 0-0.08 0.07-0.15 0.15-0.15 0.33 0 0.63-0.23 0.75-0.59 0.09-0.28 0.2-0.4 0.46-0.49 0.44-0.16 0.64-0.56 0.64-1.26 0-0.44 0.04-0.57 0.18-0.61 0.89-0.29 0.82 1.87 0.82-24.46 0-26.44 0.07-24.12-0.69-24.27-0.31-0.06-0.31-0.07-0.31-0.67q0-1.12-0.6-1.27c-0.21-0.06-0.36-0.2-0.52-0.53-0.18-0.35-0.29-0.46-0.53-0.5q-0.3-0.04-0.33-0.26c-0.04-0.3-0.46-0.74-0.71-0.74-0.15 0-0.25-0.11-0.37-0.4-0.2-0.5-0.37-0.59-1.24-0.67-0.55-0.04-0.69-0.09-0.7-0.22 0-0.08-0.1-0.29-0.24-0.46l-0.24-0.29-59.03-0.01c-32.47 0-59.37 0.01-59.78 0.03zm117.85 0.57c0.44 0.06 0.66 0.14 0.84 0.32q0.42 0.42 1.24 0.57c0.43 0.09 3.86 3.4 3.86 3.74 0.01 0.34 0.32 1.07 0.56 1.3 0.2 0.19 0.24 0.32 0.24 0.8 0 0.33 0.05 0.63 0.13 0.7 0.09 0.1 0.12 4.71 0.12 22.35 0 17.64-0.03 22.25-0.12 22.34-0.07 0.07-0.13 0.36-0.13 0.65 0 0.44-0.04 0.57-0.28 0.81-0.2 0.19-0.33 0.47-0.42 0.91q-0.15 0.64-0.38 0.85c-0.13 0.12-0.38 0.37-0.55 0.55-0.18 0.18-0.4 0.41-0.51 0.5-0.1 0.09-0.32 0.32-0.5 0.5-0.17 0.18-0.39 0.41-0.49 0.5-0.22 0.19-0.62 0.6-0.93 0.93q-0.22 0.24-0.85 0.38c-0.44 0.1-0.72 0.23-0.92 0.42-0.23 0.24-0.36 0.28-0.8 0.28-0.29 0-0.58 0.06-0.65 0.13-0.18 0.18-116.44 0.18-116.63 0-0.07-0.07-0.37-0.13-0.7-0.13-0.48 0-0.61-0.04-0.8-0.24-0.23-0.24-0.96-0.55-1.3-0.55-0.34-0.01-3.65-3.43-3.74-3.87q-0.15-0.82-0.56-1.24c-0.41-0.41-0.42-0.77-0.41-23.77 0-23.57 0-23.38 0.43-23.81 0.31-0.3 0.46-0.62 0.55-1.21 0.04-0.24 0.17-0.47 0.32-0.6 0.14-0.11 0.37-0.34 0.52-0.5 0.14-0.16 0.37-0.38 0.5-0.5 0.13-0.11 0.35-0.34 0.5-0.49 0.33-0.36 0.52-0.55 0.88-0.88 0.15-0.15 0.38-0.38 0.49-0.52 0.13-0.15 0.36-0.28 0.6-0.32 0.58-0.09 1.14-0.36 1.31-0.62 0.13-0.19 0.24-0.23 0.72-0.23 0.31-0.01 0.65-0.05 0.76-0.1 0.24-0.1 116.24-0.05 117.1 0.05zm-102.46 7.82c-1.04 0.04-1.13 0.07-1.34 0.46-0.1 0.19-0.33 0.42-0.5 0.52-0.17 0.09-0.4 0.31-0.51 0.48-0.11 0.17-0.35 0.4-0.52 0.51-0.17 0.12-0.38 0.34-0.48 0.51-0.09 0.16-0.33 0.41-0.54 0.56l-0.38 0.26-0.06 2.04c-0.09 2.69-0.08 31.2 0.01 33.04 0.07 1.26 0.1 1.46 0.27 1.6q0.43 0.35 0.64 1.14c0.1 0.34 0.23 0.54 0.45 0.69 0.4 0.28 0.66 0.54 0.66 0.68 0 0.17 0.59 0.48 1.06 0.55 0.24 0.03 0.44 0.1 0.44 0.16 0 0.05 0.19 0.23 0.42 0.4l0.42 0.3 1.66-0.03 1.66-0.03 0.42-0.37q0.41-0.38 0.84-0.44c0.31-0.05 0.51-0.17 0.75-0.43 0.41-0.45 0.55-0.58 0.96-0.96 0.23-0.21 0.35-0.42 0.39-0.72q0.07-0.43 0.44-0.84l0.37-0.41 0.07-1.21c0.09-1.54 0.11-31.39 0.02-33.45l-0.06-1.54-0.41-0.39c-0.23-0.22-0.49-0.53-0.58-0.67-0.1-0.15-0.31-0.35-0.47-0.44-0.16-0.1-0.37-0.32-0.47-0.5-0.09-0.17-0.31-0.39-0.48-0.48-0.17-0.1-0.43-0.34-0.58-0.55l-0.27-0.38-1.28-0.07c-0.7-0.03-1.5-0.05-1.78-0.04-0.27 0.01-0.83 0.03-1.24 0.05zm28.42 0.02c-0.51 0.05-0.68 0.12-1.03 0.42-0.27 0.23-0.57 0.39-0.83 0.43-0.33 0.05-0.52 0.18-0.97 0.65-0.31 0.32-0.62 0.59-0.69 0.62-0.06 0.02-0.23 0.34-0.36 0.71-0.14 0.38-0.38 0.83-0.54 1.01-0.42 0.48-0.43 0.81-0.42 18.3 0.01 16.36 0.04 17.56 0.35 17.82q0.43 0.35 0.64 1.14c0.08 0.3 0.23 0.55 0.39 0.67 0.53 0.39 0.71 0.55 0.71 0.63 0.01 0.23 0.48 0.51 1.01 0.61 0.2 0.03 0.46 0.16 0.59 0.29 0.59 0.55 0.65 0.57 2.27 0.57 1.65 0 1.82-0.04 2.3-0.48 0.18-0.17 0.47-0.33 0.65-0.37 0.59-0.11 0.82-0.25 1.11-0.66 0.16-0.22 0.39-0.45 0.52-0.51q0.36-0.16 0.65-1.15c0.07-0.23 0.25-0.53 0.4-0.67 0.45-0.4 0.44-0.18 0.44-18.29 0-18.75 0.04-17.59-0.49-18.03-0.19-0.16-0.42-0.64-0.5-1.07q-0.07-0.31-0.55-0.72c-0.27-0.23-0.52-0.5-0.55-0.61-0.05-0.14-0.25-0.26-0.67-0.38-0.36-0.1-0.77-0.31-1.01-0.52q-0.78-0.68-3.42-0.41zm27.99-0.02c-0.52 0.03-0.65 0.09-1.04 0.43-0.25 0.22-0.53 0.4-0.63 0.4-0.33 0-0.98 0.31-1.04 0.5-0.06 0.18-0.63 0.74-0.84 0.81-0.06 0.02-0.21 0.34-0.35 0.71-0.13 0.38-0.38 0.83-0.54 1.01-0.41 0.48-0.42 0.81-0.41 18.3 0.01 16.36 0.03 17.56 0.34 17.82q0.43 0.35 0.65 1.14c0.08 0.3 0.23 0.55 0.39 0.67 0.56 0.42 0.71 0.56 0.71 0.67 0 0.18 0.43 0.44 0.91 0.54 0.23 0.06 0.6 0.25 0.82 0.45 0.54 0.45 0.57 0.46 2.39 0.42l1.55-0.03 0.41-0.37q0.41-0.38 0.84-0.44c0.62-0.1 2.01-1.49 2.11-2.12q0.06-0.42 0.43-0.83l0.37-0.41 0.08-1.46c0.05-0.81 0.07-8.73 0.06-17.6l-0.03-16.14-0.22-0.35c-0.12-0.2-0.31-0.44-0.42-0.54-0.11-0.1-0.25-0.42-0.31-0.72-0.1-0.46-0.17-0.59-0.5-0.82-0.21-0.14-0.47-0.41-0.56-0.59-0.14-0.24-0.3-0.36-0.68-0.48q-0.95-0.29-1.27-0.68c-0.23-0.29-1.45-0.4-3.22-0.29zm27.96 0.02c-0.51 0.05-0.68 0.12-1.03 0.42-0.26 0.22-0.57 0.39-0.82 0.43-0.59 0.09-1.82 1.33-2.06 2.07-0.09 0.29-0.31 0.71-0.49 0.91l-0.32 0.38-0.07 1.92c-0.04 1.06-0.06 8.98-0.04 17.61 0.04 16.84 0.01 15.91 0.53 16.38 0.13 0.11 0.31 0.47 0.4 0.8 0.17 0.57 0.26 0.7 0.9 1.2 0.14 0.11 0.25 0.24 0.25 0.28 0.01 0.23 0.48 0.51 1.01 0.61 0.2 0.03 0.46 0.16 0.59 0.29 0.59 0.55 0.65 0.57 2.27 0.57 1.66 0 1.82-0.04 2.31-0.49 0.21-0.2 0.48-0.33 0.75-0.38 0.39-0.06 0.48-0.12 1.14-0.83 0.04-0.05 0.24-0.23 0.44-0.4 0.28-0.23 0.4-0.43 0.49-0.81 0.08-0.33 0.25-0.66 0.48-0.91l0.36-0.4 0.08-1.46c0.05-0.81 0.07-8.73 0.05-17.6l-0.02-16.14-0.23-0.35c-0.12-0.2-0.31-0.44-0.42-0.54-0.1-0.1-0.24-0.42-0.31-0.72-0.09-0.46-0.17-0.59-0.48-0.81-0.2-0.15-0.49-0.43-0.63-0.63-0.21-0.29-0.38-0.4-0.78-0.5-0.3-0.08-0.68-0.28-0.93-0.49-0.53-0.45-1.64-0.59-3.42-0.41zm-80.68 0.39c0.38 0.06 0.46 0.11 0.49 0.32 0.05 0.37 0.3 0.6 0.66 0.6 0.29 0 0.33 0.03 0.38 0.35 0.06 0.38 0.27 0.65 0.51 0.65q0.47-0.01 0.46 0.41c0 0.26 0.29 0.68 0.47 0.69 0.05 0 0.18 0.14 0.3 0.33l0.23 0.33v17.7 17.7h-0.25q-0.6-0.01-0.7 1.09c-0.08 0.88-0.1 0.91-0.42 0.91-0.41 0.01-0.55 0.13-0.62 0.57-0.05 0.28-0.11 0.39-0.26 0.4-1.43 0.14-1.75 0.28-1.75 0.78v0.25h-1.54-1.54l-0.06-0.29c-0.1-0.46-0.35-0.6-1.16-0.69l-0.73-0.07-0.09-0.35c-0.11-0.44-0.18-0.5-0.58-0.59-0.37-0.07-0.46-0.27-0.48-0.96-0.02-0.53-0.33-1.05-0.65-1.05-0.37 0-0.38-0.38-0.34-18.68 0.03-18.43-0.02-16.95 0.67-17.46q0.32-0.23 0.31-0.51 0.01-0.5 0.45-0.51c0.28 0 0.52-0.28 0.56-0.65 0.03-0.27 0.08-0.31 0.44-0.35 0.34-0.05 0.42-0.11 0.6-0.45 0.17-0.32 0.28-0.42 0.55-0.46 0.47-0.09 3.54-0.09 4.09-0.01zm27.26-0.02c0.1 0.03 0.23 0.18 0.31 0.35 0.16 0.37 0.58 0.59 1.14 0.59 0.58 0 0.77 0.07 0.77 0.31 0 0.33 0.29 0.66 0.64 0.73 0.33 0.06 0.33 0.07 0.38 0.71 0.06 0.74 0.26 1.12 0.68 1.26l0.29 0.1v17.53 17.52l-0.22 0.01c-0.46 0-0.77 0.63-0.77 1.56 0 0.41-0.02 0.43-0.3 0.43-0.36 0-0.7 0.34-0.7 0.71 0 0.25-0.02 0.26-0.77 0.33-0.85 0.07-1.23 0.3-1.23 0.73v0.23h-1.54-1.54l-0.07-0.28c-0.11-0.44-0.36-0.59-1.14-0.68l-0.73-0.09-0.13-0.39c-0.15-0.44-0.29-0.55-0.66-0.56-0.27 0-0.38-0.29-0.39-1.03 0-0.44-0.27-0.87-0.59-0.93-0.41-0.08-0.4 0.29-0.4-17.87 0.01-17.24 0.01-17.27 0.37-17.32 0.28-0.04 0.62-0.52 0.62-0.88 0.01-0.75 0.12-1.02 0.44-1.09 0.41-0.09 0.56-0.22 0.56-0.48 0.01-0.37 0.15-0.47 0.76-0.53 0.78-0.08 1.13-0.27 1.21-0.63q0.06-0.29 0.27-0.34c0.28-0.05 2.52-0.05 2.74 0zm27.81 0c0.3 0.05 0.39 0.11 0.43 0.32 0.08 0.36 0.56 0.62 1.15 0.62 0.63 0 0.8 0.07 0.8 0.33 0 0.34 0.28 0.65 0.64 0.72 0.33 0.06 0.33 0.06 0.39 0.77 0.07 0.76 0.27 1.1 0.73 1.22l0.24 0.06v17.53 17.53h-0.25c-0.48 0-0.75 0.59-0.75 1.65 0 0.3-0.02 0.33-0.41 0.38-0.5 0.07-0.49 0.06-0.56 0.56-0.05 0.38-0.07 0.41-0.38 0.41-1.06 0-1.65 0.27-1.65 0.75v0.25h-1.53-1.54l-0.07-0.28c-0.11-0.44-0.36-0.59-1.15-0.68-0.7-0.08-0.74-0.1-0.83-0.39q-0.21-0.65-0.67-0.65c-0.29 0-0.4-0.28-0.4-1.01 0-0.41-0.31-0.89-0.61-0.95-0.4-0.08-0.39 0.19-0.38-17.81 0-17.3 0-17.33 0.36-17.38 0.29-0.04 0.63-0.52 0.63-0.88 0-0.75 0.11-1.02 0.43-1.09q0.56-0.13 0.57-0.51c0-0.34 0.16-0.44 0.76-0.5 0.77-0.08 1.13-0.27 1.2-0.63q0.06-0.29 0.27-0.33c0.35-0.07 2.18-0.08 2.58-0.01zm28.15 0c0.09 0.03 0.23 0.18 0.3 0.35 0.16 0.37 0.58 0.59 1.15 0.59 0.59 0 0.76 0.07 0.76 0.33 0 0.34 0.27 0.65 0.64 0.72 0.33 0.06 0.33 0.06 0.39 0.77 0.06 0.76 0.27 1.1 0.73 1.22l0.24 0.06v17.53 17.53h-0.25c-0.49 0-0.75 0.59-0.75 1.67 0 0.31-0.02 0.33-0.35 0.33-0.39 0-0.65 0.28-0.65 0.71 0 0.25-0.02 0.26-0.77 0.33-0.85 0.07-1.23 0.3-1.23 0.73v0.23h-1.54-1.54l-0.06-0.28c-0.12-0.44-0.37-0.59-1.15-0.68l-0.73-0.09-0.13-0.39c-0.15-0.44-0.28-0.55-0.66-0.56-0.25 0-0.27-0.03-0.33-0.57-0.13-1.13-0.29-1.43-0.76-1.43-0.28 0-0.29-0.75-0.29-17.83 0.01-17.24 0.01-17.27 0.37-17.32 0.31-0.04 0.63-0.48 0.63-0.85 0-0.78 0.1-1.05 0.43-1.12 0.41-0.09 0.56-0.22 0.57-0.48 0-0.37 0.15-0.47 0.75-0.53 0.78-0.08 1.13-0.27 1.21-0.63q0.06-0.29 0.27-0.34c0.28-0.05 2.53-0.05 2.75 0zm-86.16 2.2c-0.28 0.08-0.42 0.25-0.5 0.6-0.06 0.27-0.12 0.32-0.46 0.37-0.31 0.05-0.42 0.13-0.5 0.32-0.1 0.27-0.14 34.69-0.03 35.08 0.06 0.22 0.42 0.43 0.74 0.43 0.15 0 0.2 0.07 0.2 0.3 0 0.52 0.18 0.6 1.44 0.6 1.23 0 1.3-0.03 1.41-0.57 0.05-0.25 0.13-0.32 0.39-0.37 0.65-0.12 0.6 1.26 0.6-17.89 0-19.34 0.06-17.78-0.66-17.9-0.32-0.05-0.39-0.1-0.39-0.29 0-0.58-1.25-0.96-2.24-0.68zm27.95 0q-0.21 0.05-0.39 0.48c-0.16 0.38-0.23 0.44-0.54 0.49-0.63 0.1-0.6-1-0.6 17.91 0 18.41-0.01 17.92 0.44 17.92 0.13 0 0.56 0.41 0.56 0.54 0 0.28 0.32 0.36 1.47 0.36h1.18l0.27-0.4c0.16-0.22 0.39-0.45 0.53-0.52 0.14-0.06 0.29-0.23 0.33-0.37 0.09-0.34 0.09-34.75-0.01-35.09-0.06-0.23-0.15-0.28-0.52-0.34-0.38-0.06-0.45-0.1-0.45-0.3 0-0.6-1.11-0.93-2.27-0.68zm28 0c-0.28 0.08-0.42 0.25-0.5 0.6-0.05 0.27-0.12 0.32-0.46 0.37-0.62 0.1-0.59-0.85-0.59 17.9 0 17.57 0 17.77 0.37 17.91 0.24 0.09 0.53 0.37 0.67 0.64 0.11 0.22 0.17 0.23 1.29 0.26l1.17 0.03 0.67-0.67 0.67-0.67v-17.5c0-19.34 0.06-17.78-0.66-17.9-0.32-0.05-0.39-0.1-0.39-0.29 0-0.58-1.25-0.96-2.24-0.68zm27.95 0q-0.21 0.05-0.39 0.48c-0.16 0.38-0.23 0.44-0.54 0.49-0.63 0.1-0.6-1-0.6 17.91 0 18.41-0.01 17.92 0.44 17.92 0.13 0 0.56 0.41 0.56 0.54 0 0.28 0.33 0.36 1.47 0.36h1.18l0.28-0.4c0.15-0.22 0.38-0.45 0.52-0.52 0.14-0.06 0.29-0.23 0.33-0.37 0.09-0.34 0.09-34.75-0.01-35.09-0.06-0.23-0.14-0.28-0.52-0.34-0.38-0.06-0.45-0.1-0.45-0.3 0-0.6-1.11-0.93-2.27-0.68zm-82.18 0.72c0.15 0.16 0.48 0.42 0.73 0.59 0.64 0.43 0.59-0.93 0.59 17.62 0 18.24 0.04 17.2-0.58 17.51-0.16 0.09-0.39 0.31-0.5 0.51-0.39 0.66-1.68 0.66-2.16-0.02-0.17-0.23-0.39-0.45-0.51-0.48-0.58-0.17-0.54 0.96-0.54-17.68v-17.01l0.26-0.26c0.14-0.15 0.3-0.27 0.36-0.27 0.05 0 0.15-0.05 0.23-0.12 0.28-0.25 0.4-0.37 0.52-0.52 0.25-0.29 1.28-0.21 1.6 0.13zm27.96-0.02c0.13 0.15 0.45 0.41 0.71 0.58 0.27 0.17 0.5 0.41 0.54 0.55 0.11 0.42 0.1 33.72-0.01 34.03-0.06 0.14-0.39 0.55-0.73 0.9l-0.64 0.64h-0.69-0.69l-0.72-0.74-0.73-0.74v-17.08-17.08l0.27-0.26c0.14-0.15 0.31-0.27 0.38-0.27 0.07 0 0.3-0.18 0.51-0.4 0.51-0.52 1.37-0.58 1.8-0.13zm28 0.02c0.14 0.16 0.47 0.42 0.73 0.59 0.33 0.23 0.47 0.4 0.52 0.63 0.11 0.56 0.07 33.62-0.04 33.92-0.06 0.15-0.39 0.56-0.75 0.91l-0.65 0.63h-0.68-0.68l-0.46-0.47c-0.26-0.26-0.52-0.53-0.59-0.6-0.08-0.06-0.19-0.18-0.26-0.27-0.1-0.12-0.12-3.71-0.12-17.22v-17.08l0.26-0.26c0.15-0.15 0.31-0.27 0.36-0.27 0.05 0 0.15-0.05 0.23-0.12 0.28-0.25 0.4-0.37 0.53-0.52 0.24-0.29 1.27-0.21 1.6 0.13zm27.95-0.02c0.13 0.15 0.46 0.41 0.71 0.58 0.27 0.17 0.5 0.41 0.54 0.55 0.12 0.42 0.1 33.72-0.01 34.03-0.06 0.14-0.39 0.55-0.73 0.9l-0.63 0.64h-0.7-0.69l-0.72-0.74-0.73-0.74v-17.08-17.08l0.27-0.26c0.14-0.15 0.32-0.27 0.38-0.27 0.07 0 0.3-0.18 0.51-0.4 0.51-0.52 1.37-0.58 1.8-0.13zm-117.84 12.56c-0.22 0.23-0.22 0.23-0.22 5.28 0 2.77-0.03 5.26-0.06 5.51l-0.07 0.47-1.13-0.01-1.13-0.02-0.39-0.34-0.4-0.34h-1.75-1.76v0.77 0.76l3.3-0.07c2.29-0.05 3.29-0.04 3.29 0.03 0 0.39 2.65 0.6 3.29 0.27 0.51-0.27 0.51-0.26 0.51-6.26 0-5.91-0.01-6.05-0.45-6.22-0.5-0.2-2.81-0.07-3.03 0.17zm146.9-0.03c-0.19 0.2-0.2 0.47-0.22 5.77-0.04 6.29-0.03 6.35 0.38 6.56 0.64 0.34 3.29 0.14 3.29-0.25 0-0.11 2.87-0.13 2.94-0.01 0.02 0.03 0.85 0.05 1.85 0.03l1.81-0.03v-0.74-0.75h-1.71-1.7l-0.46 0.35-0.46 0.35h-1.08c-0.6 0-1.1-0.01-1.11-0.02-0.01-0.01-0.05-2.51-0.07-5.55l-0.06-5.53-0.23-0.2c-0.38-0.3-2.9-0.28-3.17 0.02zm-144.1 0.36c0.25 0.22 0.29 11.23 0.04 11.48-0.17 0.17-2.16 0.2-2.46 0.04-0.31-0.16-0.31-11.18 0-11.49 0.28-0.27 2.12-0.3 2.42-0.03zm146.85-0.07c0.22 0.14 0.33 11.25 0.11 11.52-0.2 0.25-2.25 0.26-2.52 0.01-0.3-0.27-0.28-11.08 0.02-11.41 0.22-0.24 2.06-0.33 2.39-0.12zm-152.14 14.86c-0.07 0.03-0.26 0.24-0.43 0.48l-0.29 0.44v13.88c0 14.8-0.02 14.14 0.4 14.36 0.48 0.25 155.32 0.22 155.75-0.03 0.44-0.25 0.42 0.38 0.39-14.61l-0.03-13.64-0.24-0.35c-0.43-0.62-0.33-0.6-3.09-0.6h-2.53l-0.29 0.31c-0.48 0.51-0.49 0.71-0.49 6.1 0 5.55-0.04 6.28-0.3 6.28-0.48 0-0.57 0.28-0.63 2.01-0.06 1.75-0.1 1.98-0.36 1.99-0.45 0.01-0.71 0.49-0.71 1.29 0 0.59-0.01 0.61-0.33 0.74-0.45 0.19-0.65 0.52-0.73 1.25-0.06 0.56-0.09 0.61-0.3 0.61-0.29 0-0.6 0.33-0.68 0.71-0.04 0.23-0.12 0.31-0.35 0.36q-0.52 0.09-0.65 0.65c-0.04 0.2-0.14 0.28-0.38 0.34-0.39 0.08-0.68 0.38-0.68 0.69 0 0.2-0.07 0.23-0.61 0.29-0.73 0.09-1.07 0.28-1.25 0.73-0.14 0.32-0.16 0.33-0.74 0.33-0.8 0-1.28 0.27-1.29 0.71-0.01 0.26-0.21 0.29-1.82 0.29-1.71 0-2.17 0.15-2.18 0.71 0 0.29-0.47 0.29-57.94 0.28-60.97 0-57.19 0.02-57.37-0.41-0.21-0.5-0.51-0.58-2.18-0.58-1.58 0-1.71-0.04-1.86-0.5-0.09-0.29-0.56-0.5-1.14-0.5-0.51 0-0.74-0.13-0.86-0.5-0.08-0.27-0.5-0.47-1.13-0.56-0.46-0.06-0.54-0.1-0.65-0.38-0.17-0.38-0.33-0.52-0.74-0.61q-0.34-0.06-0.32-0.26c0-0.34-0.3-0.66-0.66-0.73-0.25-0.05-0.34-0.12-0.34-0.26 0-0.39-0.23-0.69-0.56-0.76-0.31-0.05-0.34-0.09-0.4-0.52-0.11-0.78-0.32-1.18-0.7-1.36-0.31-0.15-0.34-0.2-0.34-0.61 0-0.66-0.25-1.2-0.66-1.39-0.26-0.12-0.34-0.23-0.35-0.43-0.09-3.16-0.17-3.52-0.75-3.64-0.18-0.03-0.19-0.23-0.24-5.83-0.07-7.55 0.28-6.84-3.34-6.83-1.38 0-2.56 0.03-2.63 0.06zm5.31 1.15c0.14 0.2 0.16 0.91 0.16 5.73 0 5.98-0.01 5.92 0.55 6.28 0.24 0.16 0.25 0.21 0.25 1.21 0 1.47 0.26 2.45 0.75 2.81q0.24 0.19 0.36 0.69c0.17 0.72 0.37 1.13 0.63 1.3 0.2 0.13 0.3 0.35 0.52 1.13 0.05 0.2 0.41 0.62 1.19 1.4 0.05 0.06 0.29 0.3 0.53 0.53 0.23 0.24 0.47 0.48 0.53 0.53 0.06 0.06 0.36 0.36 0.68 0.67 0.47 0.47 0.64 0.57 1.04 0.63 0.37 0.06 0.56 0.17 0.9 0.5 0.42 0.4 0.78 0.55 1.32 0.55 0.13 0 0.41 0.18 0.67 0.43 0.54 0.53 0.65 0.56 2.36 0.64l1.34 0.06 0.38 0.38 0.39 0.39h57.6c42.54 0 57.67-0.03 57.82-0.12 0.12-0.06 0.32-0.23 0.44-0.38 0.23-0.27 0.27-0.28 1.56-0.33 1.6-0.07 1.92-0.15 2.45-0.67 0.24-0.24 0.5-0.4 0.64-0.4 0.48 0 0.96-0.21 1.34-0.59 0.29-0.28 0.51-0.4 0.84-0.45 0.51-0.08 0.64-0.16 1.03-0.68 0.15-0.21 0.32-0.38 0.38-0.38 0.12 0 0.49-0.38 0.65-0.65 0.05-0.1 0.19-0.23 0.29-0.29 0.27-0.16 0.65-0.53 0.65-0.65 0-0.05 0.17-0.22 0.37-0.38 0.52-0.39 0.61-0.51 0.69-1.02 0.05-0.34 0.17-0.55 0.45-0.84 0.37-0.38 0.58-0.87 0.59-1.35 0-0.14 0.16-0.39 0.39-0.62 0.54-0.53 0.71-1.16 0.71-2.63 0-1.13 0-1.15 0.27-1.36 0.53-0.42 0.52-0.26 0.52-6.18 0-5.43 0.01-5.54 0.21-5.82l0.21-0.29h2.53c2.51 0 2.54 0 2.69 0.22 0.21 0.3 0.25 27.33 0.04 27.54-0.23 0.23-155.17 0.16-155.38-0.07-0.29-0.31-0.2-27.32 0.09-27.53 0.37-0.29 5.18-0.23 5.38 0.06zm-2.82 31.68c-0.22 0.24-0.35 4.51-0.15 5.01 0.18 0.47-0.34 0.46 15.27 0.46 15.86 0 14.93 0.03 15.61-0.55l0.33-0.27v-2.04c0-2.23 0.05-2.03-0.65-2.59l-0.3-0.25h-14.95-14.94zm39.9-0.11c-0.11 0.07-0.26 0.17-0.33 0.22-0.44 0.36-0.42 0.29-0.42 2.47v2.1l0.27 0.25c0.61 0.57-0.28 0.54 15.58 0.54 15.91 0 15.04 0.03 15.3-0.55 0.38-0.83 0.11-4.92-0.34-5.09-0.31-0.12-29.85-0.06-30.06 0.06zm40.03 0.11c-0.22 0.23-0.35 4.51-0.16 5.01 0.18 0.47-0.34 0.46 15.31 0.46h14.67l0.49-0.26c0.75-0.4 0.74-0.35 0.74-2.62 0-2.22 0.06-2.01-0.64-2.59l-0.27-0.23h-14.96-14.96zm39.9-0.11c-0.1 0.06-0.32 0.22-0.47 0.36l-0.29 0.25v2.07c0 3.28-2.08 2.9 15.88 2.9 16.56 0 15.23 0.06 15.35-0.75 0.17-1.18 0-4.56-0.24-4.76-0.28-0.23-29.84-0.3-30.23-0.07zm-89.94 0.49l0.26 0.2v2c0 1.96 0 2.01-0.22 2.19-0.33 0.28-29.27 0.3-29.57 0.03-0.29-0.26-0.28-4.14 0.02-4.43 0.19-0.2 0.33-0.2 14.72-0.2h14.52zm3.43-0.06c-0.15 0.15-0.16 0.56-0.16 3.96v3.79h0.69 0.7v-3.74c0-4.16 0.04-3.97-0.7-4.11-0.27-0.05-0.41-0.02-0.53 0.1zm2.63 0.03l-0.35 0.17-0.02 3.77-0.03 3.78h0.75 0.75v-3.75c0-4.43-0.02-4.51-1.1-3.97zm33.79-0.01c0.25 0.22 0.28 4.24 0.04 4.49-0.23 0.22-29.19 0.21-29.51-0.02-0.22-0.15-0.22-0.2-0.22-2.17 0.01-2.05 0.04-2.25 0.4-2.39 0.42-0.17 29.11-0.08 29.29 0.09zm40.09 0.04l0.26 0.21v2c0 1.95-0.01 2-0.23 2.18-0.33 0.28-29.26 0.31-29.56 0.03-0.29-0.26-0.28-4.13 0.01-4.43 0.2-0.2 0.34-0.2 14.73-0.2h14.52zm3.43-0.03c-0.15 0.17-0.17 0.54-0.17 3.95v3.77h0.7 0.7v-3.73c0-3.56-0.01-3.73-0.19-3.89-0.32-0.27-0.83-0.32-1.04-0.1zm2.63 0.01l-0.35 0.19-0.03 3.76-0.02 3.76h0.7 0.7v-3.79c0-4.43-0.01-4.45-1-3.92zm33.81-0.03c0.21 0.21 0.24 4.32 0.04 4.52-0.2 0.21-29.24 0.17-29.53-0.03-0.22-0.16-0.22-0.2-0.22-2.18 0-2.05 0.04-2.25 0.4-2.39 0.4-0.16 29.15-0.08 29.31 0.08z"/>
	</g>
</svg>