<?xml version="1.0" encoding="UTF-8" standalone="no"?>
<svg
   width="148"
   height="148"
   viewBox="0 0 39.158333 39.158333"
   version="1.1"
   id="svg37"
   sodipodi:docname="map-crate-17.svg"
   inkscape:version="1.4 (e7c3feb1, 2024-10-09)"
   xmlns:inkscape="http://www.inkscape.org/namespaces/inkscape"
   xmlns:sodipodi="http://sodipodi.sourceforge.net/DTD/sodipodi-0.dtd"
   xmlns="http://www.w3.org/2000/svg"
   xmlns:svg="http://www.w3.org/2000/svg"
   xmlns:rdf="http://www.w3.org/1999/02/22-rdf-syntax-ns#"
   xmlns:cc="http://creativecommons.org/ns#"
   xmlns:dc="http://purl.org/dc/elements/1.1/">
  <metadata
     id="metadata41">
    <rdf:RDF>
      <cc:Work
         rdf:about="">
        <dc:format>image/svg+xml</dc:format>
        <dc:type
           rdf:resource="http://purl.org/dc/dcmitype/StillImage" />
        <dc:title />
      </cc:Work>
    </rdf:RDF>
  </metadata>
  <sodipodi:namedview
     pagecolor="#ffffff"
     bordercolor="#666666"
     borderopacity="1"
     objecttolerance="10"
     gridtolerance="10"
     guidetolerance="10"
     inkscape:pageopacity="0"
     inkscape:pageshadow="2"
     inkscape:window-width="1104"
     inkscape:window-height="245"
     id="namedview39"
     showgrid="false"
     inkscape:zoom="3.4441817"
     inkscape:cx="44.713088"
     inkscape:cy="82.167558"
     inkscape:window-x="0"
     inkscape:window-y="128"
     inkscape:window-maximized="0"
     inkscape:current-layer="svg37"
     fit-margin-top="0"
     fit-margin-left="0"
     fit-margin-right="0"
     fit-margin-bottom="0"
     inkscape:snap-nodes="false"
     inkscape:showpageshadow="2"
     inkscape:pagecheckerboard="0"
     inkscape:deskcolor="#d1d1d1">
    <inkscape:grid
       type="xygrid"
       id="grid890"
       empspacing="4"
       spacingx="0.52916667"
       spacingy="0.52916667"
       originx="0.52916899"
       originy="0.529166"
       units="px"
       visible="false" />
  </sodipodi:namedview>
  <defs
     id="defs17">
    <clipPath
       id="a">
      <path
         d="M 0,258.9 H 38.1 V 297 H 0 Z"
         id="path2"
         inkscape:connector-curvature="0"
         style="fill:#4d2600;stroke-width:0.52899998" />
    </clipPath>
    <clipPath
       id="c">
      <path
         d="m -4.763,273.187 v -5.82 h 28.575 v 5.82 z"
         id="path5"
         inkscape:connector-curvature="0"
         style="fill:#4d2600;stroke-width:3.53200006" />
    </clipPath>
    <clipPath
       id="b">
      <path
         d="m 43.392,296.47 h -12.7 v -38.1 h 12.7 z"
         id="path8"
         inkscape:connector-curvature="0"
         style="fill:#4d2600;stroke-width:6.02400017" />
    </clipPath>
    <clipPath
       id="d">
      <path
         d="m -1.587,297 h -5.821 v -38.1 h 5.82 z"
         id="path11"
         inkscape:connector-curvature="0"
         style="fill:#4d2600;stroke-width:4.07800007" />
    </clipPath>
    <clipPath
       clipPathUnits="userSpaceOnUse"
       id="clipPath929">
      <path
         sodipodi:nodetypes="cccccc"
         clip-path="none"
         d="M 39.158333,6.3499997 V -1.0583336 H 31.75 L 30.691667,-1.8e-7 38.1,7.4083331 Z"
         id="path931"
         inkscape:connector-curvature="0"
         style="fill:#272727;fill-opacity:1;stroke:none;stroke-width:1.96800005;stroke-opacity:1" />
    </clipPath>
    <clipPath
       clipPathUnits="userSpaceOnUse"
       id="clipPath1">
      <path
         d="m -45.533999,209.35 c 11.289005,0 23.685409,7.15648 29.329999,16.933 5.644585,9.77651 5.644587,24.09049 0,33.867 -5.64459,9.77652 -18.040994,16.933 -29.33,16.933 -11.289006,0 -23.685412,-7.15648 -29.33,-16.933 -5.644584,-9.77651 -5.644585,-24.09049 10e-7,-33.867 5.644591,-9.77652 18.040992,-16.933 29.33,-16.933 z"
         id="path3"
         inkscape:connector-curvature="0"
         style="fill-opacity:0.506;stroke:#ffffff;stroke-width:2.117;stroke-opacity:0.502"
         sodipodi:nodetypes="sssssss" />
    </clipPath>
  </defs>
  <path
     clip-path="url(#a)"
     d="M 0,258.9 H 38.1 V 297 H 0 Z"
     transform="translate(0.529169,-258.37083)"
     id="path19"
     inkscape:connector-curvature="0"
     style="fill:#4d2600;stroke:#191919;stroke-width:3.9690001" />
  <path
     transform="rotate(90,163.581,133.41917)"
     d="m 43.392,296.47 h -12.7 v -38.1 h 12.7 z"
     clip-path="url(#b)"
     id="path21"
     style="fill:#441616;fill-opacity:1;stroke:#191919;stroke-width:3.9690001"
     inkscape:connector-curvature="0" />
  <path
     transform="matrix(-1.33333,0,0,-1,32.279169,305.99617)"
     clip-path="url(#c)"
     d="m -4.763,273.187 v -5.82 h 28.575 v 5.82 z"
     id="path23"
     inkscape:connector-curvature="0"
     style="fill:#d19200;stroke:#191919;stroke-width:3.43700004" />
  <path
     transform="rotate(90,128.656,168.87317)"
     d="m -1.587,297 h -5.821 v -38.1 h 5.82 z"
     clip-path="url(#d)"
     id="path25"
     inkscape:connector-curvature="0"
     style="fill:#763800;stroke:#191919;stroke-width:3.9690001" />
  <path
     clip-path="url(#d)"
     d="m -1.587,297 h -5.821 v -38.1 h 5.82 z"
     transform="translate(7.937169,-258.37083)"
     id="path27"
     inkscape:connector-curvature="0"
     style="fill:#763800;stroke:#191919;stroke-width:3.9690001" />
  <path
     clip-path="url(#b)"
     d="m 43.392,296.47 h -12.7 v -38.1 h 12.7 z"
     transform="translate(-4.762831,-257.84083)"
     id="path29"
     inkscape:connector-curvature="0"
     style="fill:#763800;stroke:#191919;stroke-width:3.9690001" />
  <path
     style="fill:#dea217;fill-opacity:1;stroke:#191919;stroke-width:3.17499995;stroke-miterlimit:4;stroke-dasharray:none;stroke-opacity:1"
     inkscape:connector-curvature="0"
     id="path927"
     d="m 39.158334,6.3499998 -1e-6,-7.4083334 H 31.75 L 30.691667,-1.8e-7 38.100001,7.4083331 Z"
     clip-path="url(#clipPath929)"
     sodipodi:nodetypes="cccccc"
     transform="translate(2.91e-6,1.0583336)" />
  <path
     transform="rotate(90,19.050001,19.050001)"
     sodipodi:nodetypes="cccccc"
     clip-path="url(#clipPath929)"
     d="m 39.158334,6.3499998 -1e-6,-7.4083334 H 31.75 L 30.691667,-1.8e-7 38.100001,7.4083331 Z"
     id="path933"
     inkscape:connector-curvature="0"
     style="fill:#dea217;fill-opacity:1;stroke:#191919;stroke-width:3.17499995;stroke-miterlimit:4;stroke-dasharray:none;stroke-opacity:1" />
  <path
     transform="rotate(180,19.579166,19.049999)"
     sodipodi:nodetypes="cccccc"
     clip-path="url(#clipPath929)"
     d="m 39.158334,6.3499998 -1e-6,-7.4083334 H 31.75 L 30.691667,-1.8e-7 38.100001,7.4083331 Z"
     id="path935"
     inkscape:connector-curvature="0"
     style="fill:#dea217;fill-opacity:1;stroke:#191919;stroke-width:3.17499995;stroke-miterlimit:4;stroke-dasharray:none;stroke-opacity:1" />
  <path
     style="fill:#dea217;fill-opacity:1;stroke:#191919;stroke-width:3.17499995;stroke-miterlimit:4;stroke-dasharray:none;stroke-opacity:1"
     inkscape:connector-curvature="0"
     id="path937"
     d="m 39.158334,6.3499998 -1e-6,-7.4083334 H 31.75 L 30.691667,-1.8e-7 38.100001,7.4083331 Z"
     clip-path="url(#clipPath929)"
     sodipodi:nodetypes="cccccc"
     transform="rotate(-90,20.108335,19.049999)" />
  <path
     style="fill-opacity:0.502;stroke:#ffffff;stroke-width:4.011"
     inkscape:connector-curvature="0"
     id="path33"
     transform="matrix(-0.22167,-0.12798,0.12798,-0.22167,-25.078747,71.060645)"
     d="m -45.534,209.35 c 11.289008,0 23.68541,7.15648 29.33,16.933 5.644585,9.77651 5.644585,24.09049 0,33.867 -5.64459,9.77652 -18.040992,16.933 -29.33,16.933 -11.289008,0 -23.68541,-7.15648 -29.33,-16.933 -5.644585,-9.77651 -5.644585,-24.09049 0,-33.867 5.64459,-9.77652 18.040992,-16.933 29.33,-16.933 z"
     clip-path="url(#clipPath1)"
     sodipodi:nodetypes="sssssss" />
  <path
     style="fill:#fefefe;fill-opacity:1;stroke:none;stroke-width:1.2409;stroke-linecap:square;stroke-linejoin:bevel;stroke-miterlimit:4;stroke-dasharray:none;stroke-opacity:1;paint-order:normal"
     d="m 22.310306,22.974289 a 6.2048682,6.2048682 0 0 0 -4.696089,-6.012571 v 0.942975 a 5.2920317,5.2920317 0 0 1 3.783313,5.069596 5.2920317,5.2920317 0 0 1 -3.783313,5.068122 v 0.942606 a 6.2048682,6.2048682 0 0 0 4.696089,-6.010728 z M 14.596692,16.96356 a 6.2048682,6.2048682 0 0 0 -4.6960835,6.010729 6.2048682,6.2048682 0 0 0 4.6960835,6.01257 v -0.942974 a 5.2920317,5.2920317 0 0 1 -3.783314,-5.069596 5.2920317,5.2920317 0 0 1 3.783314,-5.068122 z"
     id="circle856"
     inkscape:connector-curvature="0" />
  <g
     id="g992"
     transform="matrix(0.32405536,0,0,0.32405536,-10.130878,18.904898)"
     style="fill:#fefefe;fill-opacity:1;stroke-width:1.40292">
    <circle
       style="fill:#fefefe;fill-opacity:1;stroke:none;stroke-width:0.480977;stroke-linecap:square;stroke-linejoin:bevel;stroke-miterlimit:4;stroke-dasharray:none;stroke-opacity:1;paint-order:normal"
       id="circle980"
       cx="80.962502"
       cy="-6.664412"
       r="1.0285211" />
    <path
       style="fill:#fefefe;fill-opacity:1;stroke:none;stroke-width:1.48475;stroke-linecap:square;stroke-linejoin:bevel;stroke-miterlimit:4;stroke-dasharray:none;stroke-opacity:1;paint-order:normal"
       d="m 79.904168,-5.2916666 h 2.116666 c 0,0 1.5875,2.1166659 0,6.3499997 h -2.116666 c -1.5875,-4.2333338 0,-6.3499997 0,-6.3499997 z"
       id="path982"
       inkscape:connector-curvature="0"
       sodipodi:nodetypes="ccccc" />
    <path
       sodipodi:nodetypes="ccccccc"
       inkscape:connector-curvature="0"
       id="path984"
       d="m 79.904168,1.5874998 h 2.116666 l 0.529167,0.5291667 v 2.1166667 h -3.175 V 2.1166665 Z"
       style="fill:#fefefe;fill-opacity:1;stroke:none;stroke-width:1.48475;stroke-linecap:square;stroke-linejoin:bevel;stroke-miterlimit:4;stroke-dasharray:none;stroke-opacity:1;paint-order:normal" />
    <path
       style="fill:#fefefe;fill-opacity:1;stroke:none;stroke-width:1.48475;stroke-linecap:square;stroke-linejoin:bevel;stroke-miterlimit:4;stroke-dasharray:none;stroke-opacity:1;paint-order:normal"
       d="m 87.114581,1.0583332 c 1.55096,0.9581384 1.191036,2.0203999 0.727087,2.6458333 -0.320159,0.3794475 -1.903227,1.0583333 -2.116667,-1.0583333 0,0 -0.963471,0.4728731 -1.058333,1.5875 h -1.5875 V 2.1166665 c 0,0 2.937484,-1.58750002 4.035413,-1.0583333 z"
       id="path986"
       inkscape:connector-curvature="0"
       sodipodi:nodetypes="ccccccc" />
    <path
       style="fill:#fefefe;fill-opacity:1;stroke:none;stroke-width:1.48475;stroke-linecap:square;stroke-linejoin:bevel;stroke-miterlimit:4;stroke-dasharray:none;stroke-opacity:1;paint-order:normal"
       d="m 80.962501,32.808334 c 0,0 -1.5875,-3.175 -1.5875,-5.291667 V 4.7624998 h 3.175 V 27.516667 c 0,2.116667 -1.5875,5.291667 -1.5875,5.291667 z"
       id="path988"
       inkscape:connector-curvature="0"
       sodipodi:nodetypes="cccccc" />
    <path
       sodipodi:nodetypes="ccccccc"
       inkscape:connector-curvature="0"
       id="path990"
       d="m 74.810421,1.0583332 c -1.55096,0.9581384 -1.191036,2.0203999 -0.727087,2.6458333 0.320159,0.3794475 1.903227,1.0583333 2.116667,-1.0583333 0,0 0.963471,0.4728731 1.058333,1.5875 h 1.5875 V 2.1166665 c 0,0 -2.937484,-1.58750002 -4.035413,-1.0583333 z"
       style="fill:#fefefe;fill-opacity:1;stroke:none;stroke-width:1.48475;stroke-linecap:square;stroke-linejoin:bevel;stroke-miterlimit:4;stroke-dasharray:none;stroke-opacity:1;paint-order:normal" />
  </g>
</svg>
