<?xml version="1.0" encoding="UTF-8" standalone="no"?>
<svg
   width="96"
   height="96"
   viewBox="0 0 25.400143 25.3995"
   version="1.1"
   id="svg31"
   sodipodi:docname="map-chair-01.svg"
   inkscape:version="1.4 (e7c3feb1, 2024-10-09)"
   xmlns:inkscape="http://www.inkscape.org/namespaces/inkscape"
   xmlns:sodipodi="http://sodipodi.sourceforge.net/DTD/sodipodi-0.dtd"
   xmlns="http://www.w3.org/2000/svg"
   xmlns:svg="http://www.w3.org/2000/svg"
   xmlns:rdf="http://www.w3.org/1999/02/22-rdf-syntax-ns#"
   xmlns:cc="http://creativecommons.org/ns#"
   xmlns:dc="http://purl.org/dc/elements/1.1/">
  <metadata
     id="metadata35">
    <rdf:RDF>
      <cc:Work
         rdf:about="">
        <dc:format>image/svg+xml</dc:format>
        <dc:type
           rdf:resource="http://purl.org/dc/dcmitype/StillImage" />
        <dc:title />
      </cc:Work>
    </rdf:RDF>
  </metadata>
  <sodipodi:namedview
     pagecolor="#ffffff"
     bordercolor="#666666"
     borderopacity="1"
     objecttolerance="10"
     gridtolerance="10"
     guidetolerance="10"
     inkscape:pageopacity="0"
     inkscape:pageshadow="2"
     inkscape:window-width="1104"
     inkscape:window-height="245"
     id="namedview33"
     showgrid="true"
     fit-margin-top="0"
     fit-margin-left="0"
     fit-margin-right="0"
     fit-margin-bottom="0"
     inkscape:zoom="6.9550851"
     inkscape:cx="51.904469"
     inkscape:cy="34.938465"
     inkscape:window-x="0"
     inkscape:window-y="128"
     inkscape:window-maximized="0"
     inkscape:current-layer="svg31"
     inkscape:showpageshadow="2"
     inkscape:pagecheckerboard="0"
     inkscape:deskcolor="#d1d1d1">
    <inkscape:grid
       type="xygrid"
       id="grid872"
       empspacing="4"
       spacingy="1.0583125"
       spacingx="1.0583393"
       originx="0"
       originy="0"
       units="px" />
  </sodipodi:namedview>
  <defs
     id="defs11" />
  <rect
     style="fill:#191919;fill-opacity:1;fill-rule:evenodd;stroke-width:0.264585"
     id="rect1"
     width="2.6458483"
     height="5.9766884"
     x="5.2916965"
     y="14.871189"
     rx="0"
     ry="0" />
  <rect
     style="fill:#191919;fill-opacity:1;fill-rule:evenodd;stroke-width:0.264585"
     id="rect1-0"
     width="2.6458483"
     height="5.9766884"
     x="17.462599"
     y="14.871189"
     rx="0"
     ry="0" />
  <path
     id="rect2"
     style="display:inline;fill:#572b11;stroke:#191919;stroke-width:1.58751"
     d="m 4.5180326,1.7198605 c 5.4546938,-1.05834197 10.9093864,-1.05834197 16.3640774,0 0.730409,0.141717 1.372309,0.5906501 1.343014,1.3230143 L 21.695955,16.271935 c -0.0293,0.732364 -0.598984,1.323014 -1.343014,1.323014 H 5.0472023 c -0.7440301,0 -1.3137196,-0.59065 -1.3430145,-1.323014 L 3.1750181,3.0428748 C 3.1457231,2.3105106 3.7876237,1.8615774 4.5180326,1.7198605 Z"
     sodipodi:nodetypes="sssssssss" />
  <path
     id="rect4"
     style="display:inline;fill:#572b11;stroke:#191919;stroke-width:1.58751"
     d="m 2.6681879,19.711739 c 7.0407019,1.422854 13.0230641,1.399345 20.0637661,0 0.717259,-0.142556 1.320015,0.590064 1.320015,1.323014 v 1.371523 c 0,0.73295 -0.595831,1.221332 -1.320015,1.323014 -7.07437,0.993301 -13.0567321,0.993301 -20.0637661,0 C 1.9441387,23.62665 1.3481735,23.139226 1.3481735,22.406276 v -1.371523 c 0,-0.73295 0.603217,-1.467871 1.3200144,-1.323014 z"
     sodipodi:nodetypes="sssssssss" />
</svg>
