<svg version="1.2" xmlns="http://www.w3.org/2000/svg" viewBox="0 0 101 101" width="101" height="101">
	<style>
		.s0 { fill: #1c1c1c } 
		.s1 { fill: #440444 } 
		.s2 { fill: #ea14c2 } 
		.s3 { fill: #050404 } 
		.s4 { fill: #6c0464 } 
	</style>
	<g id="svgg">
		<path id="path0" fill-rule="evenodd" class="s0" d="m48.21 2.19c-0.85 0.07-1.12 0.18-1.57 0.61l-0.3 0.28-2.82 0.01c-3.26 0.02-3.39 0.03-3.89 0.56l-0.37 0.38-1.11 0.07c-0.61 0.03-1.28 0.06-1.48 0.06-0.43-0.01-0.86 0.34-0.85 0.7 0.01 0.22 0.01 0.22 0.09 0.03q0.1-0.25 0.09-0.02c0.01 0.24-0.06 0.26-1.43 0.3-1.34 0.04-1.63 0.15-1.74 0.65-0.07 0.29-0.08 0.3-0.69 0.3-0.35 0-0.65 0.04-0.68 0.09-0.03 0.04-0.14 0.06-0.25 0.03-0.27-0.07-0.52 0.16-0.45 0.41 0.1 0.43-0.15 0.56-1.06 0.56-0.52 0-0.89 0.05-0.95 0.12-0.71 0.83-0.78 0.88-1.17 0.86-0.23-0.01-0.37 0.02-0.34 0.08 0.03 0.05-0.07 0.08-0.22 0.07-0.2-0.01-0.27 0.02-0.25 0.15q0 0.15-0.09 0.11-0.1-0.05-0.06 0.24c0.05 0.32 0.02 0.33-1.22 0.45-0.43 0.04-0.75 0.3-0.75 0.59 0 0.31-0.19 0.45-0.5 0.39-0.28-0.06-0.68 0.1-0.68 0.27 0 0.22-0.57 0.64-1.1 0.8q-0.87 0.26-0.73 0.76 0.04 0.17-0.04 0.13-0.08-0.04-0.09 0.04c0 0.04-0.13 0.06-0.28 0.04-0.47-0.07-0.73 0.13-0.66 0.5q0.06 0.33-0.04 0.16-0.1-0.18-0.1 0.11c0 0.23-0.03 0.25-0.31 0.21q-0.31-0.05-0.23 0.06 0.06 0.11-0.16 0.09c-0.2-0.02-0.23 0.02-0.23 0.35q0 0.54-0.44 0.57c-0.08 0-0.23 0.01-0.33 0.02-0.1 0.01-0.23 0.1-0.29 0.2-0.19 0.3-0.64 0.73-0.82 0.76-0.1 0.02-0.18 0.1-0.18 0.18 0 0.08-0.13 0.27-0.29 0.42-0.25 0.22-0.27 0.28-0.15 0.36q0.17 0.11-0.16 0.04-0.3-0.05-0.38 0.07-0.08 0.13 0.06 0.04 0.12-0.06 0.06 0.01c-0.04 0.04-0.17 0.09-0.28 0.11-0.35 0.05-0.9 0.69-0.92 1.06 0 0.11-0.52 0.63-0.79 0.79-0.1 0.06-0.19 0.2-0.19 0.3-0.04 0.63-0.14 0.76-0.6 0.77-0.33 0-0.37 0.03-0.35 0.23q0.03 0.22-0.09 0.15-0.12-0.08-0.05 0.23c0.06 0.29 0.05 0.3-0.38 0.36-0.49 0.08-0.67 0.3-0.61 0.75 0.04 0.25 0.01 0.29-0.35 0.41-0.37 0.11-0.42 0.17-0.6 0.71-0.2 0.57-0.6 1.13-0.82 1.13-0.17 0-0.33 0.39-0.27 0.68 0.06 0.31-0.08 0.49-0.38 0.49-0.3 0-0.56 0.33-0.6 0.76-0.12 1.27-0.13 1.3-0.46 1.23q-0.29-0.06-0.23 0.04 0.05 0.1-0.11 0.09c-0.12-0.01-0.16 0.06-0.15 0.26 0.01 0.15-0.02 0.25-0.07 0.22-0.05-0.04-0.09 0.11-0.08 0.33 0.02 0.4-0.02 0.46-0.86 1.18-0.08 0.06-0.12 0.42-0.12 0.95-0.01 0.91-0.13 1.16-0.56 1.05-0.25-0.06-0.47 0.19-0.39 0.44 0.04 0.11 0.02 0.22-0.04 0.26-0.06 0.03-0.1 0.34-0.1 0.69 0 0.61 0 0.62-0.3 0.68-0.5 0.11-0.6 0.4-0.65 1.74-0.04 1.37-0.06 1.45-0.3 1.44q-0.23 0.01 0.02-0.09c0.19-0.08 0.19-0.09-0.02-0.09-0.65-0.02-0.74 0.34-0.75 2.86-0.01 0.95-0.03 1.15-0.16 1.15q-0.15 0.01 0.05 0.1 0.25 0.11-0.12 0.05c-0.75-0.11-0.79 0.05-0.8 3.56l-0.01 2.78-0.33 0.37c-0.56 0.62-0.59 0.84-0.59 3.82 0 2.98 0.03 3.2 0.59 3.82l0.33 0.36 0.01 2.78c0.01 3.21 0.11 3.86 0.59 3.56 0.25-0.15 0.48 0.16 0.42 0.59-0.25 1.77 0.16 3.58 0.79 3.58 0.24 0 0.25 0.03 0.26 0.57 0.03 2.01 0.11 2.3 0.67 2.42 0.3 0.06 0.3 0.07 0.3 0.69 0 0.34 0.04 0.65 0.1 0.68 0.05 0.03 0.07 0.16 0.04 0.28-0.03 0.13 0 0.27 0.07 0.32 0.12 0.09 0.25 0.12 0.74 0.16 0.13 0.01 0.18 0.55 0.13 1.41-0.02 0.42 0 0.44 0.62 0.97 0.3 0.25 0.35 0.35 0.35 0.71 0.01 0.23 0.05 0.41 0.1 0.41q0.08 0.02 0.03 0.16c-0.07 0.21 0.22 0.43 0.57 0.43 0.27 0 0.3 0.06 0.44 1.16 0.08 0.58 0.5 0.95 0.83 0.75q0.15-0.09 0.1 0.56c-0.02 0.3 0.14 0.67 0.3 0.67 0.22 0 0.62 0.55 0.82 1.12 0.18 0.55 0.23 0.6 0.6 0.72 0.36 0.11 0.39 0.15 0.35 0.4-0.06 0.42 0.11 0.63 0.59 0.75 0.38 0.09 0.42 0.13 0.39 0.37-0.02 0.14 0.01 0.26 0.06 0.26 0.05 0 0.09 0.08 0.08 0.17-0.01 0.12 0.08 0.17 0.38 0.2 0.48 0.04 0.54 0.09 0.57 0.56q0.02 0.37 0.2 0.48c0.31 0.19 0.75 0.66 0.75 0.81 0 0.07 0.08 0.17 0.17 0.2 0.09 0.03 0.29 0.17 0.44 0.31 0.29 0.26 0.49 0.24 0.22-0.02-0.14-0.14-0.14-0.16-0.01-0.16 0.16 0 0.29 0.29 0.21 0.5-0.06 0.17 0.07 0.38 0.25 0.42 0.19 0.03 0.87 0.73 0.85 0.87-0.02 0.06 0.05 0.12 0.15 0.14 0.18 0.04 0.64 0.48 0.81 0.78q0.12 0.18 0.49 0.21c0.44 0.03 0.65 0.24 0.57 0.57q-0.05 0.22 0.06 0.23 0.1 0.01 0.06 0.09c-0.06 0.09 0.26 0.2 0.6 0.2q0.21 0.01 0.22 0.16 0.01 0.13 0.09 0.1 0.07-0.03 0.04 0.17-0.07 0.43 0.62 0.55c0.3 0.04 0.37 0.11 0.46 0.4 0.1 0.3 0.18 0.36 0.7 0.54 0.57 0.19 1.13 0.59 1.13 0.81 0 0.16 0.2 0.25 0.69 0.31 0.38 0.04 0.44 0.08 0.47 0.31 0.05 0.42 0.32 0.58 1.18 0.69 0.75 0.1 0.79 0.12 0.79 0.34 0 0.34 0.19 0.65 0.35 0.58 0.08-0.02 0.16-0.01 0.2 0.05 0.03 0.05 0.38 0.09 0.78 0.09 0.76 0 0.8 0.02 0.74 0.47-0.06 0.39 0.43 0.55 1.6 0.52 0.33-0.01 0.56 0.24 0.49 0.53-0.09 0.38 0.37 0.52 1.74 0.53 0.21 0.01 0.27 0.06 0.33 0.3 0.03 0.17 0.16 0.37 0.28 0.44 0.23 0.16 2.2 0.4 2.52 0.31 0.14-0.03 0.18 0.01 0.18 0.19 0 0.64 1.31 0.94 3.46 0.81 0.45-0.03 0.56-0.01 0.56 0.11 0 0.13 0.02 0.13 0.11 0q0.11-0.18 0.05 0.17c-0.06 0.37 0.16 0.66 0.44 0.58 0.1-0.02 0.21 0 0.24 0.04 0.03 0.05 1.29 0.09 2.87 0.09h2.82l0.28 0.29c0.88 0.92 6.86 0.92 7.74 0l0.28-0.29h2.77c1.74 0 2.79-0.03 2.83-0.09 0.03-0.06 0.16-0.08 0.28-0.05 0.31 0.08 0.6-0.26 0.46-0.52-0.14-0.27 0.06-0.34 0.86-0.32 0.96 0.03 2.76-0.11 2.7-0.2q-0.03-0.08 0.1-0.03c0.21 0.08 0.47-0.15 0.41-0.37q-0.03-0.16 0.05-0.13 0.08 0.04 0.08-0.13 0-0.21 0.19-0.15c0.32 0.09 2.29-0.15 2.52-0.31 0.12-0.07 0.24-0.27 0.28-0.42 0.06-0.28 0.07-0.29 0.94-0.34 0.97-0.07 1.17-0.16 1.17-0.55 0-0.4 0.11-0.47 0.73-0.48 0.82-0.02 1.12-0.07 1.26-0.22q0.14-0.14-0.03-0.04-0.19 0.11-0.02-0.08c0.07-0.09 0.12-0.22 0.11-0.29-0.04-0.32 0.02-0.35 0.89-0.39 0.95-0.04 1.11-0.12 1.14-0.55 0.01-0.14 0.02-0.29 0.03-0.33 0-0.04 0.27-0.1 0.59-0.14 0.32-0.03 0.59-0.1 0.59-0.15q0.01-0.07 0.14-0.03c0.24 0.1 0.53-0.14 0.6-0.5 0.06-0.32 0.08-0.34 0.49-0.34 0.27 0 0.47-0.06 0.55-0.15 0.5-0.59 0.76-0.79 1.3-0.97 0.52-0.18 0.61-0.24 0.7-0.54 0.1-0.3 0.16-0.35 0.49-0.4 0.52-0.07 0.6-0.14 0.67-0.57 0.06-0.36 0.09-0.38 0.47-0.44 0.45-0.06 0.56-0.18 0.56-0.62 0-0.31 0.23-0.44 0.83-0.47 0.04 0 0.13-0.08 0.19-0.18 0.19-0.32 0.66-0.75 0.81-0.75 0.08 0 0.18-0.1 0.23-0.22 0.12-0.3 0.67-0.86 0.84-0.86 0.08 0 0.14-0.06 0.14-0.14 0-0.18 0.56-0.72 0.86-0.84 0.12-0.05 0.22-0.16 0.22-0.23 0-0.15 0.44-0.62 0.74-0.8 0.09-0.06 0.19-0.21 0.21-0.35 0.02-0.13 0.05-0.32 0.07-0.43 0.02-0.15 0.13-0.21 0.43-0.25 0.5-0.07 0.51-0.08 0.58-0.57 0.05-0.37 0.08-0.4 0.43-0.46 0.44-0.07 0.5-0.15 0.57-0.67 0.05-0.33 0.1-0.39 0.4-0.49 0.3-0.1 0.36-0.18 0.54-0.7 0.19-0.56 0.63-1.14 0.94-1.24 0.07-0.02 0.15-0.26 0.18-0.53 0.05-0.43 0.08-0.48 0.31-0.51 0.42-0.05 0.58-0.33 0.69-1.16 0.11-0.79 0.18-0.92 0.46-0.85 0.38 0.1 0.53-0.19 0.59-1.15l0.06-0.93 0.32 0.04c0.19 0.02 0.32-0.02 0.32-0.08q0.01-0.1 0.09-0.06c0.13 0.09 0.2-0.21 0.22-1.03 0.02-0.77 0.08-0.87 0.48-0.87 0.39 0 0.49-0.2 0.55-1.17 0.06-0.88 0.06-0.88 0.34-0.94 0.16-0.04 0.35-0.16 0.43-0.29 0.15-0.23 0.39-2.19 0.3-2.51q-0.05-0.2 0.15-0.19 0.17-0.01 0.14-0.09-0.04-0.07 0.12-0.04c0.22 0.06 0.45-0.2 0.37-0.41q-0.04-0.14 0.03-0.1c0.08 0.05 0.21-1.31 0.21-2.25 0-0.48 0.03-0.55 0.44-0.96q0.44-0.45 0.45-0.73c0.01-0.15 0.03-1.55 0.05-3.11l0.04-2.84 0.29-0.29c0.91-0.95 0.91-6.87 0-7.75l-0.29-0.27v-2.77c0-1.53-0.04-2.79-0.09-2.82-0.04-0.03-0.06-0.18-0.03-0.34 0.03-0.25-0.04-0.37-0.41-0.75l-0.45-0.46-0.01-0.75c-0.02-2.09-0.2-2.66-0.84-2.66-0.2 0-0.23-0.04-0.18-0.22 0.09-0.36-0.13-2.24-0.29-2.48-0.08-0.12-0.28-0.25-0.44-0.29-0.24-0.05-0.3-0.11-0.3-0.32-0.02-1.37-0.16-1.84-0.53-1.75-0.31 0.08-0.54-0.15-0.53-0.53 0.01-0.82-0.05-1.38-0.17-1.49-0.07-0.07-0.28-0.25-0.47-0.41-0.3-0.25-0.35-0.36-0.36-0.71 0-0.22-0.04-0.43-0.09-0.47-0.05-0.03-0.07-0.12-0.04-0.19 0.06-0.18-0.31-0.38-0.6-0.32-0.21 0.04-0.23-0.01-0.32-0.78-0.11-0.9-0.27-1.18-0.7-1.23-0.23-0.02-0.26-0.08-0.31-0.47-0.06-0.48-0.15-0.68-0.31-0.68-0.22 0-0.62-0.56-0.81-1.13-0.18-0.52-0.24-0.6-0.54-0.7-0.3-0.09-0.35-0.16-0.4-0.49-0.07-0.51-0.17-0.65-0.44-0.6-0.13 0.03-0.21 0.01-0.18-0.04q0.03-0.07-0.15-0.08c-0.15 0-0.2-0.06-0.2-0.24 0-0.5-0.18-0.76-0.47-0.7-0.37 0.08-0.51-0.04-0.59-0.53-0.04-0.25-0.15-0.46-0.25-0.53-0.3-0.18-0.73-0.63-0.77-0.82-0.02-0.09-0.09-0.16-0.15-0.15-0.13 0.03-0.86-0.67-0.83-0.79 0.02-0.04-0.03-0.15-0.1-0.23-0.06-0.08-0.16-0.24-0.22-0.35-0.11-0.22-0.81-0.75-1-0.75-0.13 0-0.61-0.47-0.78-0.75-0.06-0.1-0.21-0.19-0.34-0.19q-0.68-0.01-0.69-0.42c-0.02-0.51-0.04-0.55-0.21-0.54-0.09 0.01-0.17-0.03-0.17-0.08 0-0.05-0.12-0.08-0.26-0.06-0.24 0.02-0.28-0.01-0.37-0.4-0.12-0.47-0.33-0.64-0.74-0.58-0.26 0.04-0.3 0-0.41-0.36-0.12-0.37-0.17-0.41-0.72-0.6-0.57-0.19-1.12-0.59-1.12-0.81 0-0.17-0.4-0.33-0.69-0.27-0.3 0.06-0.49-0.08-0.49-0.39 0-0.41-0.71-0.69-1.83-0.72-0.07 0-0.13-0.13-0.13-0.28 0-0.36-0.22-0.66-0.42-0.58q-0.15 0.05-0.16-0.03c0-0.05-0.19-0.1-0.42-0.1-0.36 0-0.46-0.05-0.71-0.35-0.5-0.6-0.56-0.64-0.87-0.62-1.36 0.09-1.52 0.03-1.55-0.59-0.01-0.26-0.2-0.41-0.43-0.35-0.13 0.03-0.25 0.01-0.29-0.04-0.03-0.06-0.34-0.1-0.68-0.1-0.61 0-0.62-0.01-0.69-0.3-0.11-0.49-0.4-0.6-1.69-0.65-1.34-0.05-1.39-0.06-1.33-0.32 0.15-0.57-1.82-0.99-3.55-0.76-0.43 0.06-0.74-0.16-0.58-0.42 0.29-0.47-0.35-0.57-3.57-0.58l-2.79-0.01-0.3-0.29c-0.61-0.59-3.35-0.86-6.17-0.6zm-1.07 0.64c-0.13 0.14-0.29 0.25-0.37 0.25-0.08-0.01-0.02-0.11 0.14-0.25 0.36-0.31 0.52-0.31 0.23 0zm7.09 0.23c-0.07 0.03-0.16-0.02-0.2-0.09-0.16-0.25-0.1-0.32 0.11-0.13q0.2 0.18 0.09 0.22zm5.23 5.5c0.14 0.05 0.31 0.22 0.38 0.37 0.21 0.47 0.34 0.51 1.51 0.51 1.18 0.01 1.29 0.06 1.8 0.78 0.13 0.18 0.27 0.21 1.27 0.27 1.12 0.06 1.57 0.19 1.57 0.46 0 0.34 0.35 0.56 0.92 0.56q0.94-0.01 1.26 0.66c0.11 0.24 0.19 0.27 0.85 0.35 0.75 0.08 1.08 0.29 1.24 0.77 0.04 0.14 0.16 0.17 0.52 0.17 0.68 0 1.17 0.24 1.33 0.63 0.17 0.39 0.3 0.45 0.94 0.45 0.64 0 0.94 0.16 1.13 0.6 0.12 0.25 0.28 0.42 0.54 0.53 0.21 0.1 0.4 0.25 0.43 0.34 0.08 0.26 0.39 0.59 0.56 0.59 0.18 0 0.66 0.47 0.66 0.64 0 0.07 0.19 0.23 0.42 0.36 0.22 0.12 0.48 0.36 0.56 0.52 0.2 0.38 0.28 0.44 0.7 0.44 0.58 0 1.04 0.25 1.24 0.66 0.1 0.22 0.31 0.43 0.53 0.55 0.21 0.11 0.43 0.33 0.52 0.53 0.11 0.21 0.29 0.39 0.5 0.47q0.33 0.14 0.47 0.47c0.08 0.2 0.27 0.4 0.51 0.52 0.22 0.11 0.45 0.34 0.56 0.56 0.12 0.22 0.31 0.41 0.51 0.5 0.39 0.16 0.63 0.65 0.63 1.28 0 0.38 0.04 0.45 0.32 0.59 0.39 0.21 0.48 0.3 0.69 0.75 0.1 0.22 0.25 0.39 0.39 0.42 0.29 0.07 0.53 0.53 0.61 1.16 0.09 0.63 0.14 0.75 0.33 0.75 0.29 0 0.57 0.27 0.69 0.68 0.06 0.22 0.18 0.4 0.25 0.4 0.36 0 0.74 0.58 0.74 1.13 0 0.55 0.07 0.68 0.66 1.12 0.25 0.19 0.42 0.7 0.42 1.24 0 0.39 0.03 0.44 0.39 0.67 0.41 0.26 0.59 0.65 0.59 1.32 0 0.43 0.08 0.56 0.49 0.77 0.4 0.2 0.46 0.37 0.54 1.71l0.07 1.06 0.38 0.24c0.43 0.27 0.44 0.32 0.53 1.69 0.06 1.11 0.1 1.29 0.29 1.29 0.07 0 0.27 0.14 0.43 0.3l0.31 0.3v8.76c0 9.46 0.01 9.13-0.55 9.4-0.41 0.19-0.42 0.24-0.5 1.58-0.06 1.15-0.26 1.61-0.68 1.61-0.17 0-0.22 0.22-0.32 1.53-0.08 1.15-0.11 1.23-0.65 1.51-0.27 0.13-0.3 0.2-0.36 0.8-0.07 0.72-0.21 0.99-0.65 1.25-0.25 0.16-0.29 0.24-0.34 0.79-0.06 0.65-0.26 1.04-0.66 1.23-0.31 0.17-0.39 0.32-0.39 0.84 0 0.62-0.14 0.9-0.57 1.12-0.25 0.13-0.37 0.28-0.43 0.52-0.11 0.4-0.23 0.53-0.62 0.66-0.27 0.09-0.3 0.15-0.39 0.77-0.1 0.67-0.45 1.22-0.78 1.22-0.07 0-0.18 0.15-0.24 0.33q-0.17 0.52-0.72 0.79c-0.17 0.09-0.23 0.23-0.28 0.65-0.1 0.83-0.2 1.03-0.7 1.24-0.15 0.07-0.34 0.27-0.43 0.46-0.09 0.19-0.31 0.41-0.51 0.52-0.19 0.1-0.44 0.34-0.55 0.54-0.1 0.19-0.33 0.42-0.51 0.51-0.18 0.09-0.39 0.29-0.48 0.48-0.08 0.17-0.31 0.41-0.51 0.51-0.2 0.11-0.44 0.35-0.54 0.55-0.22 0.42-0.47 0.54-1.27 0.63-0.44 0.05-0.56 0.1-0.56 0.24 0 0.22-0.41 0.66-0.73 0.78-0.14 0.05-0.28 0.17-0.32 0.27-0.1 0.3-0.43 0.6-0.78 0.72-0.18 0.06-0.33 0.16-0.33 0.24 0 0.33-0.54 0.68-1.22 0.78-0.62 0.09-0.68 0.12-0.77 0.39-0.12 0.38-0.26 0.51-0.66 0.61-0.23 0.06-0.38 0.19-0.51 0.44-0.23 0.42-0.51 0.57-1.13 0.57-0.52 0-0.67 0.07-0.83 0.39-0.2 0.4-0.59 0.6-1.24 0.66-0.54 0.05-0.63 0.09-0.79 0.34-0.26 0.44-0.53 0.58-1.25 0.65-0.59 0.06-0.66 0.09-0.8 0.36-0.28 0.53-0.35 0.57-1.51 0.65-1.31 0.1-1.53 0.14-1.53 0.32 0 0.42-0.45 0.61-1.61 0.68-1.33 0.08-1.39 0.09-1.58 0.5-0.27 0.56 0.06 0.54-9.4 0.54h-8.75l-0.3-0.3c-0.17-0.16-0.31-0.36-0.31-0.43 0-0.19-0.18-0.23-1.29-0.3-1.37-0.08-1.42-0.09-1.69-0.53l-0.24-0.38-1.06-0.06c-1.34-0.09-1.51-0.14-1.71-0.54-0.21-0.41-0.33-0.49-0.77-0.49-0.66-0.01-1.06-0.19-1.32-0.6-0.22-0.35-0.28-0.38-0.67-0.38-0.77 0-1.15-0.2-1.49-0.76-0.18-0.31-0.21-0.32-0.79-0.32-0.63 0-1.21-0.36-1.21-0.74 0-0.07-0.18-0.19-0.4-0.25-0.41-0.13-0.68-0.4-0.68-0.69 0-0.18-0.51-0.38-1-0.38-0.36 0-0.84-0.3-0.91-0.56-0.03-0.14-0.2-0.3-0.42-0.4-0.45-0.21-0.54-0.29-0.75-0.68-0.14-0.28-0.2-0.32-0.58-0.32-0.64 0-1.13-0.24-1.29-0.63-0.09-0.2-0.27-0.4-0.5-0.51-0.22-0.12-0.44-0.34-0.56-0.57-0.12-0.23-0.31-0.42-0.52-0.5q-0.32-0.14-0.46-0.47c-0.09-0.21-0.27-0.4-0.48-0.5-0.2-0.09-0.42-0.31-0.53-0.52-0.11-0.22-0.33-0.43-0.55-0.54q-0.36-0.17-0.51-0.51-0.14-0.35-0.48-0.49c-0.42-0.18-0.51-0.34-0.64-1.11-0.11-0.68-0.16-0.8-0.34-0.8-0.18 0-0.65-0.48-0.65-0.66 0-0.17-0.33-0.48-0.58-0.56-0.1-0.03-0.25-0.23-0.34-0.43-0.12-0.26-0.28-0.43-0.54-0.54-0.44-0.19-0.6-0.49-0.6-1.17 0-0.6-0.05-0.71-0.49-0.93q-0.56-0.28-0.58-1.3c0-0.4-0.04-0.46-0.33-0.62-0.43-0.23-0.55-0.45-0.63-1.23-0.06-0.57-0.1-0.65-0.34-0.77q-0.67-0.31-0.66-1.25c0-0.57-0.21-0.92-0.55-0.92-0.28 0-0.41-0.45-0.47-1.57-0.05-1-0.08-1.14-0.27-1.28-0.72-0.5-0.77-0.62-0.77-1.79-0.01-1.17-0.05-1.31-0.52-1.51-0.15-0.07-0.31-0.23-0.36-0.36-0.13-0.36-0.23-9.15-0.15-13.72 0.08-4.57 0.02-4.16 0.76-4.71l0.27-0.19v-1.63-1.63l0.26-0.26c0.14-0.14 0.3-0.26 0.36-0.26q0.45 0 0.46-0.96c0-0.66 0.22-1.09 0.57-1.09 0.25 0 0.4-0.33 0.4-0.85 0.01-0.6 0.24-1.06 0.62-1.22 0.28-0.12 0.3-0.16 0.43-1.11 0.08-0.55 0.11-0.61 0.5-0.87 0.39-0.26 0.42-0.3 0.42-0.73 0-0.57 0.25-1.07 0.63-1.28 0.42-0.23 0.44-0.28 0.44-0.96 0-0.65 0.23-1.02 0.74-1.21 0.15-0.06 0.31-0.24 0.4-0.45 0.08-0.19 0.22-0.37 0.31-0.4 0.28-0.1 0.52-0.35 0.66-0.69 0.08-0.18 0.27-0.38 0.46-0.48 0.18-0.09 0.33-0.17 0.34-0.18 0.01-0.01 0.07-0.32 0.13-0.69 0.11-0.71 0.37-1.13 0.68-1.13 0.09 0 0.27-0.19 0.41-0.41 0.14-0.23 0.38-0.49 0.54-0.57 0.36-0.19 0.45-0.28 0.6-0.61 0.07-0.15 0.27-0.34 0.45-0.43 0.2-0.09 0.4-0.3 0.49-0.49 0.09-0.18 0.28-0.39 0.43-0.45 0.33-0.15 0.43-0.24 0.61-0.61 0.08-0.15 0.34-0.4 0.57-0.53 0.23-0.14 0.41-0.33 0.41-0.41 0-0.31 0.43-0.57 1.13-0.68 0.37-0.06 0.69-0.12 0.7-0.13 0-0.01 0.08-0.16 0.18-0.34 0.09-0.19 0.3-0.39 0.48-0.46 0.33-0.14 0.52-0.32 0.69-0.67 0.13-0.24 0.65-0.44 1.19-0.45q0.63-0.02 0.63-0.39c0-0.23 0.4-0.6 0.65-0.6q0.22 0.01 0.52-0.43c0.33-0.47 0.68-0.65 1.34-0.65 0.38 0 0.44-0.03 0.7-0.41 0.25-0.39 0.31-0.42 0.86-0.5 0.95-0.13 0.99-0.15 1.11-0.43 0.16-0.38 0.62-0.61 1.22-0.62 0.52 0 0.85-0.16 0.85-0.39 0-0.36 0.41-0.58 1.07-0.59 1.13-0.02 1.8-0.14 1.91-0.34 0.36-0.63 0.59-0.73 1.76-0.73 1.07 0 1.1-0.01 1.29-0.26 0.54-0.73 0.31-0.67 2.61-0.73 3.25-0.1 15.48-0.02 15.79 0.1zm25.58 8.81c-0.08 0.08-0.34-0.08-0.34-0.23 0-0.13 0.03-0.12 0.19 0.02 0.11 0.09 0.18 0.18 0.15 0.21zm4.31 4.52c0.1 0.11 0.15 0.2 0.12 0.2-0.04 0-0.16-0.09-0.26-0.2-0.11-0.11-0.16-0.2-0.12-0.2 0.05 0 0.17 0.09 0.26 0.2zm-42.32 10.2c-0.17 0.04-0.48 0.28-0.69 0.53l-0.38 0.44h-1.08c-1.17 0-1.21 0.02-1.65 0.61-0.26 0.35-0.3 0.37-0.87 0.37-0.6 0-0.61 0-1.05 0.49-0.34 0.37-0.52 0.49-0.73 0.49-0.5 0-1.06 0.22-1.22 0.48-0.21 0.34-0.56 0.67-0.78 0.73-0.09 0.03-0.27 0.22-0.4 0.43-0.13 0.2-0.36 0.43-0.52 0.51-0.16 0.08-0.37 0.28-0.46 0.44-0.21 0.37-0.3 0.46-0.63 0.63-0.14 0.08-0.29 0.22-0.32 0.32-0.07 0.23-0.4 0.57-0.74 0.79-0.26 0.16-0.48 0.72-0.48 1.21 0 0.22-0.12 0.4-0.49 0.74-0.49 0.44-0.49 0.45-0.49 1.04 0 0.58-0.01 0.61-0.37 0.88-0.59 0.44-0.6 0.48-0.61 1.64v1.08l-0.44 0.39c-0.62 0.53-0.64 0.66-0.63 4.17 0 3.27 0.05 3.76 0.4 4.04 0.69 0.53 0.67 0.49 0.67 1.69v1.11l0.49 0.41c0.49 0.4 0.49 0.41 0.49 0.99 0 0.62 0.08 0.75 0.71 1.21 0.21 0.15 0.27 0.28 0.27 0.55 0 0.58 0.3 1.26 0.56 1.26 0.12 0 0.57 0.5 0.65 0.72 0.03 0.09 0.21 0.26 0.4 0.37 0.19 0.11 0.42 0.34 0.5 0.52 0.08 0.17 0.34 0.42 0.58 0.57 0.25 0.15 0.44 0.33 0.44 0.41 0 0.08 0.24 0.32 0.52 0.53 0.28 0.21 0.57 0.49 0.65 0.63 0.17 0.32 0.5 0.47 1.07 0.47 0.38 0 0.49 0.04 0.65 0.25 0.54 0.7 0.73 0.82 1.31 0.83 0.54 0 0.9 0.15 0.9 0.36 0 0.4 0.59 0.61 1.66 0.61 1.06 0 1.47 0.13 1.47 0.47 0 0.48 0.31 0.51 4.18 0.51h3.65l0.21-0.22c0.11-0.12 0.28-0.33 0.38-0.46 0.18-0.24 0.25-0.25 1.38-0.3 1.29-0.05 1.26-0.04 1.76-0.77 0.12-0.17 0.24-0.21 0.74-0.21 0.65 0 0.81-0.09 1.26-0.71 0.25-0.34 0.3-0.36 0.79-0.36 0.54 0 0.85-0.19 1.24-0.75 0.07-0.11 0.28-0.28 0.46-0.37 0.18-0.09 0.35-0.24 0.38-0.33 0.08-0.21 0.43-0.61 0.54-0.61 0.12 0 0.57-0.46 0.57-0.57 0-0.11 0.4-0.46 0.61-0.54 0.09-0.03 0.24-0.2 0.33-0.38 0.09-0.18 0.26-0.39 0.37-0.47 0.56-0.38 0.75-0.69 0.75-1.23 0-0.49 0.02-0.54 0.37-0.79 0.61-0.46 0.7-0.62 0.7-1.27 0.01-0.49 0.04-0.61 0.22-0.73 0.73-0.5 0.71-0.47 0.77-1.76 0.04-1.13 0.06-1.2 0.29-1.38 0.13-0.1 0.34-0.27 0.46-0.39l0.22-0.2v-3.65c0-3.88-0.03-4.18-0.5-4.18-0.34 0-0.47-0.41-0.47-1.48 0-1.06-0.22-1.65-0.61-1.65-0.22 0-0.37-0.37-0.37-0.9 0-0.58-0.12-0.77-0.82-1.31-0.22-0.16-0.26-0.27-0.26-0.65 0-0.57-0.15-0.9-0.47-1.08-0.14-0.07-0.42-0.36-0.63-0.64-0.21-0.29-0.44-0.52-0.52-0.52-0.08 0-0.27-0.2-0.42-0.44-0.14-0.24-0.4-0.51-0.57-0.59-0.17-0.08-0.4-0.3-0.52-0.49-0.11-0.19-0.28-0.37-0.37-0.4-0.22-0.08-0.71-0.53-0.71-0.65 0-0.26-0.68-0.56-1.27-0.56-0.27 0-0.4-0.06-0.55-0.27-0.46-0.63-0.59-0.71-1.21-0.71-0.58 0-0.58-0.01-0.99-0.49l-0.41-0.49h-1.11c-1.2 0-1.16 0.01-1.69-0.67-0.09-0.12-0.35-0.26-0.56-0.31-0.5-0.12-6.56-0.11-6.96 0.01zm5.88 0.38c1.15 0.1 1.25 0.13 1.37 0.42 0.17 0.38 0.69 0.55 1.68 0.56q1.42 0 1.41 0.32c0 0.32 0.46 0.58 1.21 0.68 0.41 0.06 0.75 0.14 0.75 0.18 0 0.25 0.68 0.76 1.18 0.87 0.59 0.14 0.8 0.26 0.9 0.53 0.04 0.09 0.27 0.26 0.52 0.37 0.24 0.11 0.48 0.29 0.53 0.41 0.13 0.34 0.43 0.64 0.71 0.71 0.16 0.04 0.29 0.16 0.35 0.32 0.13 0.35 0.42 0.67 0.66 0.72 0.11 0.02 0.28 0.22 0.42 0.5 0.12 0.25 0.35 0.53 0.49 0.62q0.28 0.15 0.4 0.61c0.22 0.83 0.33 1.01 0.7 1.26 0.36 0.24 0.38 0.28 0.44 0.93 0.07 0.68 0.26 1.02 0.76 1.31 0.13 0.07 0.18 0.32 0.25 1.28 0.09 1.29 0.17 1.51 0.59 1.76 0.35 0.21 0.45 1.04 0.45 3.72 0 2.79-0.08 3.35-0.56 3.77l-0.39 0.34-0.08 1.17c-0.11 1.41-0.12 1.44-0.47 1.6-0.34 0.15-0.47 0.44-0.56 1.23-0.06 0.47-0.11 0.6-0.33 0.73-0.48 0.31-0.69 0.63-0.69 1.04 0 0.13-0.05 0.27-0.1 0.3-0.06 0.04-0.1 0.15-0.1 0.24 0 0.1-0.15 0.29-0.33 0.43-0.18 0.14-0.4 0.41-0.49 0.59-0.09 0.19-0.32 0.43-0.51 0.55-0.2 0.11-0.41 0.35-0.49 0.54q-0.14 0.35-0.48 0.49c-0.2 0.08-0.43 0.29-0.55 0.49-0.11 0.19-0.36 0.42-0.54 0.51-0.19 0.09-0.46 0.31-0.59 0.49-0.14 0.18-0.34 0.33-0.43 0.33-0.1 0-0.21 0.04-0.24 0.1-0.04 0.05-0.17 0.09-0.31 0.09-0.41 0-0.73 0.22-1.04 0.7-0.13 0.21-0.26 0.27-0.73 0.33-0.78 0.09-1.08 0.22-1.23 0.55-0.15 0.36-0.18 0.37-1.6 0.47l-1.17 0.09-0.34 0.39c-0.42 0.48-0.98 0.56-3.77 0.56-2.68 0-3.51-0.1-3.72-0.45-0.24-0.42-0.47-0.5-1.76-0.59-0.96-0.07-1.2-0.12-1.28-0.26-0.29-0.49-0.62-0.68-1.33-0.75-0.51-0.05-0.71-0.11-0.75-0.23-0.18-0.46-0.5-0.66-1.41-0.91q-0.46-0.13-0.62-0.4c-0.09-0.15-0.36-0.37-0.62-0.49-0.27-0.14-0.48-0.31-0.5-0.43-0.04-0.23-0.36-0.53-0.71-0.65-0.16-0.06-0.29-0.19-0.33-0.35-0.07-0.28-0.37-0.59-0.71-0.72-0.11-0.04-0.3-0.28-0.41-0.53-0.11-0.24-0.27-0.47-0.37-0.51-0.27-0.1-0.39-0.31-0.53-0.91-0.11-0.49-0.62-1.18-0.87-1.18-0.04 0-0.12-0.33-0.17-0.74-0.11-0.75-0.37-1.22-0.68-1.22q-0.33 0.02-0.33-1.4c-0.01-0.99-0.18-1.51-0.56-1.68-0.29-0.13-0.32-0.22-0.42-1.37-0.2-2.21-0.05-5.79 0.25-5.98 0.59-0.36 0.73-0.74 0.73-1.93 0-0.97 0.08-1.18 0.49-1.4 0.31-0.16 0.45-0.49 0.55-1.3 0.06-0.44 0.11-0.54 0.38-0.7 0.36-0.23 0.47-0.42 0.69-1.21 0.11-0.41 0.22-0.6 0.38-0.67 0.12-0.06 0.33-0.31 0.46-0.56 0.14-0.25 0.34-0.5 0.45-0.56 0.35-0.17 0.55-0.38 0.68-0.71 0.08-0.17 0.2-0.32 0.27-0.32 0.2 0 0.63-0.36 0.77-0.66 0.07-0.14 0.33-0.37 0.58-0.5 0.25-0.13 0.51-0.34 0.56-0.47 0.07-0.16 0.27-0.26 0.67-0.38 0.79-0.21 0.99-0.33 1.21-0.69 0.16-0.26 0.27-0.32 0.7-0.37 0.82-0.11 1.14-0.24 1.3-0.56 0.22-0.41 0.43-0.48 1.4-0.48 1.19 0 1.58-0.15 1.93-0.73 0.18-0.29 3.83-0.45 5.98-0.25zm-50.12 14.72c-0.28 0.28-0.3 0.28-0.19 0.07 0.19-0.36 0.43-0.62 0.47-0.49 0.02 0.05-0.1 0.24-0.28 0.42zm95.77 0.6c0.2 0.66 0.12 0.69-0.09 0.04-0.09-0.28-0.24-0.61-0.33-0.71q-0.26-0.29 0.06-0.01c0.12 0.1 0.28 0.41 0.36 0.68zm-13.57 35.95c0 0.03-0.06 0.1-0.14 0.16-0.12 0.1-0.15 0.1-0.15-0.03 0-0.09 0.07-0.16 0.15-0.16q0.13 0 0.14 0.03zm-67.63 1.1c0.09 0.23-0.01 0.25-0.19 0.04-0.14-0.17-0.14-0.19-0.02-0.19 0.09 0 0.18 0.07 0.21 0.15zm66.65-0.12c0 0.02-0.06 0.1-0.14 0.16-0.12 0.1-0.15 0.1-0.15-0.03 0-0.09 0.07-0.16 0.15-0.16q0.13 0 0.14 0.03zm-36.17 13.73c0.5 0.17 0.73 0.32 0.29 0.2q-0.95-0.27-1.14-0.56l-0.13-0.23 0.23 0.22c0.13 0.11 0.47 0.28 0.75 0.37z"/>
		<path id="path1" fill-rule="evenodd" class="s1" d="m43.67 8.46c-2.3 0.06-2.07 0-2.61 0.73-0.19 0.25-0.22 0.26-1.29 0.26-1.17 0-1.4 0.1-1.76 0.73-0.11 0.2-0.78 0.32-1.91 0.34-0.66 0.01-1.07 0.23-1.07 0.59 0 0.23-0.33 0.39-0.85 0.39-0.6 0.01-1.06 0.24-1.22 0.62-0.12 0.28-0.16 0.3-1.11 0.43-0.55 0.08-0.61 0.11-0.86 0.5-0.26 0.38-0.32 0.41-0.7 0.41-0.66 0-1.01 0.18-1.34 0.65q-0.3 0.44-0.52 0.43c-0.25 0-0.65 0.37-0.65 0.6q0 0.37-0.63 0.39c-0.54 0.01-1.06 0.21-1.19 0.45-0.17 0.35-0.36 0.53-0.69 0.67-0.18 0.07-0.39 0.27-0.48 0.46-0.1 0.18-0.18 0.33-0.18 0.34-0.01 0.01-0.33 0.07-0.7 0.13-0.7 0.11-1.13 0.37-1.13 0.68 0 0.08-0.18 0.27-0.41 0.41-0.23 0.13-0.49 0.38-0.57 0.53-0.18 0.37-0.28 0.46-0.61 0.61-0.15 0.06-0.34 0.27-0.43 0.45-0.09 0.19-0.29 0.4-0.49 0.49-0.18 0.09-0.38 0.28-0.45 0.43-0.15 0.33-0.24 0.42-0.6 0.61-0.16 0.08-0.4 0.34-0.54 0.57-0.14 0.22-0.32 0.41-0.41 0.41-0.31 0-0.57 0.42-0.68 1.13-0.06 0.37-0.12 0.68-0.13 0.69-0.01 0.01-0.16 0.09-0.34 0.18-0.19 0.1-0.38 0.3-0.46 0.48-0.14 0.34-0.38 0.59-0.66 0.69-0.09 0.03-0.23 0.21-0.31 0.4-0.09 0.21-0.25 0.39-0.4 0.45-0.51 0.19-0.74 0.56-0.74 1.21 0 0.68-0.02 0.73-0.44 0.96-0.38 0.21-0.63 0.71-0.63 1.28 0 0.43-0.03 0.47-0.42 0.73-0.39 0.26-0.42 0.32-0.5 0.87-0.13 0.95-0.15 0.99-0.43 1.11-0.38 0.16-0.61 0.62-0.62 1.22 0 0.52-0.15 0.85-0.4 0.85-0.35 0-0.57 0.43-0.57 1.09q-0.01 0.96-0.46 0.96c-0.06 0-0.22 0.12-0.36 0.26l-0.26 0.26v1.63 1.63l-0.27 0.19c-0.74 0.55-0.68 0.14-0.76 4.71-0.08 4.57 0.02 13.36 0.15 13.72 0.05 0.13 0.21 0.29 0.36 0.36 0.47 0.2 0.51 0.34 0.52 1.51 0 1.17 0.05 1.29 0.77 1.79 0.19 0.14 0.22 0.28 0.27 1.28 0.06 1.12 0.19 1.57 0.47 1.57 0.34 0 0.55 0.35 0.55 0.92q-0.01 0.94 0.66 1.25c0.24 0.12 0.28 0.2 0.34 0.77 0.08 0.78 0.2 1 0.63 1.23 0.29 0.16 0.33 0.22 0.33 0.62q0.02 1.02 0.58 1.3c0.44 0.22 0.49 0.33 0.49 0.93 0 0.68 0.16 0.98 0.6 1.17 0.26 0.11 0.42 0.28 0.54 0.54 0.09 0.2 0.24 0.4 0.34 0.43 0.25 0.08 0.58 0.39 0.58 0.56 0 0.18 0.47 0.66 0.65 0.66 0.18 0 0.23 0.12 0.34 0.8 0.13 0.77 0.22 0.93 0.64 1.11q0.34 0.14 0.48 0.49 0.15 0.34 0.51 0.51c0.22 0.11 0.44 0.32 0.55 0.54 0.11 0.21 0.33 0.43 0.53 0.52 0.21 0.1 0.39 0.29 0.48 0.5q0.14 0.33 0.46 0.47c0.21 0.08 0.4 0.27 0.52 0.5 0.12 0.23 0.34 0.45 0.56 0.57 0.23 0.11 0.41 0.31 0.5 0.51 0.16 0.39 0.65 0.63 1.29 0.63 0.38 0 0.44 0.04 0.58 0.32 0.21 0.39 0.3 0.47 0.75 0.68 0.22 0.1 0.39 0.26 0.42 0.4 0.07 0.26 0.55 0.56 0.91 0.56 0.49 0 1 0.2 1 0.38 0 0.29 0.27 0.56 0.68 0.69 0.22 0.06 0.4 0.18 0.4 0.25 0 0.38 0.58 0.74 1.21 0.74 0.58 0 0.61 0.01 0.79 0.32 0.34 0.56 0.72 0.76 1.49 0.76 0.39 0 0.45 0.03 0.67 0.38 0.26 0.41 0.66 0.59 1.32 0.6 0.44 0 0.56 0.08 0.77 0.49 0.2 0.4 0.37 0.45 1.71 0.54l1.06 0.06 0.24 0.38c0.27 0.44 0.32 0.45 1.69 0.53 1.11 0.07 1.29 0.11 1.29 0.3 0 0.07 0.14 0.27 0.31 0.43l0.3 0.3h8.75c9.46 0 9.13 0.02 9.4-0.54 0.19-0.41 0.25-0.42 1.58-0.5 1.16-0.07 1.61-0.26 1.61-0.68 0-0.18 0.22-0.22 1.53-0.32 1.16-0.08 1.23-0.12 1.51-0.65 0.14-0.27 0.21-0.3 0.8-0.36 0.72-0.07 0.99-0.21 1.25-0.65 0.16-0.25 0.25-0.29 0.79-0.34 0.65-0.06 1.04-0.26 1.24-0.66 0.16-0.32 0.31-0.39 0.83-0.39 0.62 0 0.9-0.15 1.13-0.57 0.13-0.25 0.28-0.38 0.51-0.44 0.4-0.1 0.54-0.23 0.66-0.61 0.09-0.27 0.15-0.3 0.77-0.39 0.68-0.1 1.22-0.45 1.22-0.78 0-0.08 0.15-0.18 0.33-0.24 0.35-0.12 0.68-0.42 0.78-0.72 0.04-0.1 0.18-0.22 0.32-0.27 0.32-0.12 0.73-0.56 0.73-0.78 0-0.14 0.12-0.19 0.56-0.24 0.8-0.09 1.05-0.21 1.27-0.63 0.1-0.2 0.34-0.44 0.54-0.55 0.2-0.1 0.43-0.34 0.51-0.51 0.09-0.19 0.3-0.39 0.48-0.48 0.18-0.09 0.41-0.32 0.51-0.51 0.11-0.2 0.36-0.44 0.55-0.54 0.2-0.11 0.42-0.33 0.51-0.52 0.09-0.19 0.28-0.39 0.43-0.46 0.5-0.21 0.6-0.41 0.7-1.24 0.05-0.42 0.11-0.56 0.28-0.65q0.55-0.27 0.72-0.79c0.06-0.18 0.17-0.33 0.24-0.33 0.33 0 0.68-0.55 0.78-1.22 0.09-0.62 0.12-0.68 0.39-0.77 0.39-0.13 0.51-0.26 0.62-0.66 0.06-0.24 0.18-0.39 0.43-0.52 0.43-0.22 0.57-0.5 0.57-1.12 0-0.52 0.08-0.67 0.39-0.84 0.4-0.19 0.6-0.58 0.66-1.23 0.05-0.55 0.09-0.63 0.34-0.79 0.44-0.26 0.58-0.53 0.65-1.25 0.06-0.6 0.09-0.67 0.36-0.8 0.54-0.28 0.57-0.36 0.65-1.51 0.1-1.31 0.15-1.53 0.32-1.53 0.42 0 0.62-0.46 0.68-1.61 0.08-1.34 0.09-1.39 0.5-1.58 0.56-0.27 0.55 0.06 0.55-9.4v-8.76l-0.31-0.3c-0.16-0.16-0.36-0.3-0.43-0.3-0.19 0-0.23-0.18-0.29-1.29-0.09-1.37-0.1-1.42-0.53-1.69l-0.38-0.24-0.07-1.06c-0.08-1.34-0.14-1.51-0.54-1.71-0.41-0.21-0.49-0.34-0.49-0.77 0-0.67-0.18-1.06-0.59-1.32-0.36-0.23-0.39-0.28-0.39-0.67 0-0.54-0.17-1.05-0.42-1.24-0.59-0.44-0.66-0.57-0.66-1.12 0-0.55-0.38-1.13-0.74-1.13-0.07 0-0.19-0.18-0.25-0.4-0.12-0.41-0.4-0.68-0.69-0.68-0.19 0-0.24-0.12-0.33-0.75-0.08-0.63-0.32-1.09-0.61-1.16-0.14-0.03-0.29-0.2-0.39-0.42-0.21-0.45-0.3-0.54-0.69-0.75-0.28-0.14-0.32-0.21-0.32-0.59 0-0.63-0.24-1.12-0.63-1.28-0.2-0.09-0.39-0.28-0.51-0.5-0.11-0.22-0.34-0.45-0.56-0.56-0.24-0.12-0.43-0.32-0.51-0.52q-0.14-0.33-0.47-0.47c-0.21-0.08-0.39-0.26-0.5-0.47-0.09-0.2-0.31-0.42-0.52-0.53-0.22-0.12-0.43-0.33-0.53-0.55-0.2-0.41-0.66-0.66-1.24-0.66-0.42 0-0.5-0.06-0.7-0.44-0.08-0.16-0.34-0.4-0.56-0.52-0.23-0.13-0.42-0.29-0.42-0.36 0-0.17-0.48-0.64-0.66-0.64-0.17 0-0.48-0.33-0.56-0.59-0.03-0.09-0.22-0.24-0.43-0.34-0.26-0.11-0.42-0.28-0.54-0.53-0.19-0.44-0.49-0.6-1.13-0.6-0.64 0-0.77-0.06-0.94-0.45-0.16-0.39-0.65-0.63-1.33-0.63-0.36 0-0.48-0.03-0.52-0.17-0.16-0.48-0.49-0.69-1.24-0.77-0.66-0.08-0.74-0.11-0.85-0.35q-0.32-0.67-1.26-0.66c-0.57 0-0.92-0.22-0.92-0.56 0-0.27-0.45-0.4-1.57-0.46-1-0.06-1.14-0.09-1.27-0.27-0.51-0.72-0.62-0.77-1.8-0.78-1.17 0-1.3-0.04-1.51-0.51-0.07-0.15-0.24-0.32-0.38-0.37-0.31-0.12-12.54-0.2-15.79-0.1zm13.3 0.45l2.21 0.05 0.29 0.32c0.45 0.48 1.33 0.76 2.41 0.76 0.37 0 0.49 0.05 0.75 0.32 0.37 0.39 0.85 0.55 1.94 0.63 0.79 0.05 0.84 0.07 1.08 0.38 0.21 0.27 0.35 0.35 1.01 0.49 0.64 0.15 0.81 0.23 0.96 0.45q0.34 0.5 1.31 0.66c0.38 0.06 0.56 0.15 0.85 0.46 0.32 0.32 0.48 0.4 1.03 0.51 0.52 0.11 0.71 0.19 0.93 0.44 0.33 0.38 0.62 0.52 1.22 0.6 0.43 0.06 0.87 0.31 0.87 0.51 0 0.1 0.44 0.52 0.55 0.52 0.03 0 0.19 0.16 0.36 0.35 0.16 0.19 0.43 0.42 0.6 0.5 0.16 0.09 0.5 0.36 0.74 0.61 0.24 0.25 0.53 0.52 0.64 0.61 0.1 0.09 0.32 0.32 0.48 0.52 0.17 0.19 0.39 0.35 0.49 0.35 0.48 0.01 1.23 0.39 1.23 0.63 0 0.06 0.1 0.18 0.22 0.26 0.12 0.07 0.36 0.29 0.53 0.47 0.17 0.18 0.4 0.42 0.52 0.53 0.55 0.56 1.09 1.11 1.15 1.17 1.31 1.2 1.56 1.51 1.69 2.07 0.11 0.47 0.21 0.63 0.55 0.91 0.23 0.18 0.49 0.48 0.57 0.66 0.08 0.18 0.3 0.45 0.48 0.61 0.19 0.16 0.36 0.39 0.39 0.53 0.24 1.02 0.36 1.27 0.62 1.27 0.14 0 0.5 0.45 0.73 0.92 0.07 0.15 0.22 0.32 0.32 0.37 0.21 0.11 0.46 0.65 0.46 1 0 0.34 0.26 0.81 0.58 1.04q0.28 0.19 0.34 0.56c0.15 0.93 0.27 1.17 0.88 1.67 0.08 0.07 0.17 0.33 0.21 0.59 0.09 0.68 0.22 0.97 0.58 1.24 0.31 0.24 0.33 0.27 0.38 1.11 0.06 1.1 0.2 1.53 0.6 1.92 0.3 0.29 0.33 0.37 0.38 1.12 0.08 1.07 0.23 1.54 0.61 1.9l0.32 0.3 0.07 2.07c0.09 2.69 0.09 10.38 0 13.19l-0.07 2.2-0.33 0.3c-0.37 0.35-0.51 0.78-0.6 1.88-0.06 0.75-0.08 0.83-0.42 1.18q-0.59 0.64-0.59 2.12c0 0.54-0.02 0.59-0.39 0.91-0.21 0.19-0.4 0.46-0.43 0.6-0.03 0.15-0.08 0.43-0.11 0.64-0.04 0.25-0.19 0.5-0.48 0.79-0.34 0.35-0.43 0.52-0.54 1.06-0.11 0.54-0.2 0.71-0.56 1.1-0.33 0.35-0.43 0.53-0.43 0.79q0 0.68-0.48 1.12c-0.16 0.14-0.36 0.4-0.46 0.59-0.18 0.38-0.27 0.47-0.65 0.71-0.14 0.09-0.28 0.25-0.3 0.34-0.27 0.99-0.34 1.14-0.68 1.46-0.2 0.19-0.37 0.4-0.37 0.47 0 0.12-0.43 0.65-0.53 0.65-0.2 0-0.52 0.51-0.64 1.03q-0.14 0.59-0.38 0.78-0.52 0.42-0.85 0.86c-0.11 0.15-0.24 0.27-0.3 0.27-0.13 0-0.53 0.45-0.53 0.58 0 0.06-0.18 0.22-0.4 0.37-0.22 0.14-0.53 0.45-0.69 0.68-0.16 0.23-0.34 0.42-0.39 0.42-0.12 0-0.58 0.41-0.58 0.53 0 0.17-0.42 0.45-0.77 0.51-0.2 0.03-0.43 0.08-0.52 0.1-0.19 0.06-0.57 0.38-0.57 0.49 0 0.11-0.41 0.53-0.51 0.53-0.1 0-0.57 0.45-0.57 0.55 0 0.1-0.52 0.53-0.65 0.53-0.07 0-0.28 0.17-0.47 0.38-0.28 0.28-0.5 0.41-0.92 0.51-0.52 0.12-0.74 0.27-1.09 0.75-0.09 0.1-0.31 0.27-0.49 0.36-0.19 0.1-0.46 0.3-0.6 0.45q-0.44 0.49-1.12 0.49c-0.26 0-0.43 0.09-0.79 0.43-0.38 0.36-0.56 0.45-1.1 0.56-0.53 0.11-0.71 0.19-1.05 0.54-0.23 0.22-0.55 0.43-0.7 0.46-0.15 0.03-0.44 0.08-0.64 0.11-0.25 0.04-0.45 0.17-0.69 0.45-0.33 0.37-0.37 0.39-0.91 0.39q-1.49 0-2.12 0.59c-0.36 0.33-0.44 0.36-1.19 0.42-1.1 0.09-1.53 0.22-1.88 0.61l-0.3 0.32-2.25 0.06c-3.27 0.09-10.53 0.09-13.03 0.01l-2.15-0.07-0.31-0.32c-0.38-0.38-0.85-0.53-1.92-0.61-0.75-0.06-0.83-0.08-1.12-0.38-0.39-0.41-0.82-0.54-1.92-0.61-0.83-0.05-0.87-0.06-1.11-0.37-0.27-0.36-0.56-0.49-1.24-0.58-0.26-0.04-0.52-0.13-0.59-0.21-0.5-0.61-0.73-0.73-1.66-0.89q-0.38-0.06-0.57-0.33c-0.22-0.32-0.7-0.58-1.04-0.58-0.34 0-0.88-0.25-1-0.46-0.05-0.11-0.22-0.25-0.37-0.33-0.46-0.23-0.92-0.59-0.92-0.72 0-0.26-0.25-0.38-1.27-0.62-0.13-0.03-0.37-0.21-0.53-0.39-0.15-0.18-0.43-0.4-0.61-0.48-0.17-0.09-0.47-0.34-0.66-0.57-0.28-0.35-0.43-0.44-0.91-0.55-0.56-0.13-0.87-0.39-2.07-1.69-0.06-0.06-0.64-0.64-1.15-1.14-0.1-0.1-0.35-0.34-0.54-0.52-0.18-0.18-0.4-0.42-0.48-0.54-0.08-0.12-0.18-0.22-0.23-0.22-0.2 0-1.54-1.5-1.54-1.73 0-0.41-0.26-0.88-0.63-1.17-0.2-0.15-0.44-0.43-0.54-0.63-0.1-0.19-0.34-0.49-0.54-0.65-0.19-0.17-0.35-0.33-0.35-0.36 0-0.11-0.42-0.56-0.52-0.56-0.2 0-0.45-0.43-0.51-0.86-0.08-0.6-0.22-0.89-0.6-1.22-0.24-0.22-0.33-0.41-0.44-0.93-0.1-0.55-0.19-0.72-0.51-1.03-0.3-0.29-0.4-0.48-0.46-0.85q-0.16-0.98-0.66-1.31c-0.22-0.15-0.3-0.32-0.44-0.96-0.15-0.66-0.22-0.81-0.5-1.02-0.31-0.23-0.33-0.28-0.38-1.07-0.08-1.09-0.23-1.57-0.63-1.95-0.27-0.25-0.32-0.37-0.32-0.74 0-1.08-0.28-1.96-0.76-2.41l-0.31-0.29-0.06-2.35c-0.2-7.21-0.04-14.96 0.3-15.19 0.56-0.36 0.71-0.89 0.81-2.78 0.06-1.06 0.09-1.23 0.26-1.32 0.51-0.3 0.68-0.57 0.72-1.18 0.03-0.53 0.07-0.63 0.37-0.91 0.27-0.24 0.36-0.44 0.5-1.02 0.13-0.6 0.23-0.78 0.53-1.07q0.57-0.54 0.58-1.3-0.01-0.28 0.34-0.63c0.43-0.42 0.47-0.51 0.64-1.23 0.1-0.43 0.22-0.66 0.5-0.94 0.36-0.36 0.4-0.46 0.53-1.22 0.03-0.23 0.16-0.48 0.32-0.62 0.83-0.76 1.45-1.45 1.58-1.75 0.08-0.17 0.31-0.43 0.52-0.58 0.41-0.29 0.66-0.75 0.66-1.19 0-0.23 0.89-1.22 2.22-2.49 0.15-0.14 0.97-0.96 1.11-1.11 1.27-1.33 2.27-2.22 2.49-2.22 0.44 0 0.9-0.26 1.2-0.67 0.15-0.21 0.43-0.45 0.61-0.52 0.18-0.07 0.44-0.28 0.58-0.45 0.13-0.18 0.36-0.35 0.5-0.38 0.78-0.17 1.14-0.35 1.31-0.63 0.09-0.16 0.31-0.37 0.48-0.46 0.18-0.1 0.49-0.33 0.69-0.52 0.26-0.26 0.52-0.39 0.93-0.48 0.72-0.17 0.81-0.22 1.23-0.64q0.35-0.35 0.64-0.35 0.75 0 1.29-0.58c0.29-0.3 0.47-0.39 1.08-0.53 0.61-0.14 0.78-0.22 1-0.49 0.26-0.31 0.31-0.33 1.13-0.39 1.08-0.07 1.45-0.2 1.89-0.61 0.3-0.28 0.42-0.33 0.81-0.33 0.25 0 0.65-0.05 0.88-0.1 0.23-0.05 0.55-0.12 0.71-0.16 0.16-0.03 0.45-0.23 0.65-0.44l0.37-0.38 1.99-0.01c1.09 0 2.18-0.04 2.43-0.09 0.43-0.08 6.38-0.05 10.67 0.05zm-12.12 18.63c-0.07 0.03-0.12 0.15-0.12 0.28 0 0.49-0.39 0.63-1.72 0.63-1.26 0-1.32 0.02-1.32 0.49 0 0.34-0.33 0.5-1.19 0.57-0.8 0.07-0.82 0.08-0.85 0.34q-0.06 0.67-1.19 0.66c-0.71 0-0.84 0.07-0.9 0.49q-0.03 0.24-0.33 0.37c-0.51 0.23-0.57 0.28-0.67 0.57-0.12 0.36-0.26 0.5-0.55 0.55-0.12 0.01-0.26 0.1-0.29 0.18-0.28 0.61-0.38 0.72-0.64 0.81-0.41 0.13-0.54 0.25-0.54 0.51 0 0.26-0.26 0.51-0.59 0.55q-0.24 0.04-0.37 0.33c-0.23 0.53-0.28 0.59-0.57 0.69-0.42 0.14-0.53 0.23-0.53 0.45q0.01 0.37-0.54 0.54c-0.17 0.06-0.34 0.21-0.42 0.39-0.23 0.52-0.28 0.58-0.52 0.61-0.4 0.06-0.48 0.2-0.48 0.9q0.01 1.12-0.66 1.19c-0.26 0.03-0.27 0.05-0.34 0.85-0.07 0.85-0.23 1.19-0.57 1.19-0.46 0-0.48 0.05-0.48 1.32 0 1.33-0.15 1.72-0.65 1.72-0.34 0-0.34-0.06-0.31 5.97l0.03 5.54 0.21 0.03c0.56 0.08 0.71 0.43 0.74 1.76l0.02 1.23 0.31 0.08c0.5 0.13 0.64 0.37 0.7 1.25 0.04 0.56 0.09 0.79 0.18 0.79 0.55 0 0.74 0.3 0.82 1.26 0.05 0.72 0.05 0.72 0.39 0.83 0.32 0.11 0.39 0.2 0.69 0.85 0.04 0.08 0.18 0.16 0.3 0.18 0.32 0.05 0.57 0.28 0.6 0.58 0.02 0.14 0.1 0.28 0.18 0.32 0.65 0.29 0.74 0.37 0.84 0.68 0.08 0.24 0.19 0.36 0.38 0.41 0.36 0.1 0.64 0.36 0.64 0.62 0 0.27 0.18 0.44 0.45 0.44 0.25 0 0.52 0.28 0.61 0.64 0.05 0.19 0.17 0.3 0.41 0.38 0.31 0.1 0.39 0.2 0.69 0.84 0.03 0.09 0.18 0.16 0.31 0.18 0.31 0.04 0.54 0.28 0.58 0.61 0.03 0.23 0.08 0.25 0.72 0.3 1 0.09 1.32 0.26 1.32 0.71 0 0.3 0.16 0.36 0.93 0.36q1.07 0 1.15 0.66l0.03 0.27 1.18 0.06c1.43 0.06 1.81 0.2 1.81 0.66 0 0.41 0.03 0.41 5.88 0.38l5.62-0.02 0.08-0.32c0.14-0.54 0.45-0.66 1.81-0.7 0.93-0.02 1.21-0.06 1.21-0.16 0-0.56 0.29-0.75 1.26-0.82 0.72-0.06 0.72-0.06 0.83-0.4 0.14-0.44 0.5-0.62 1.35-0.67 0.63-0.04 0.65-0.05 0.71-0.33 0.07-0.36 0.27-0.57 0.55-0.57 0.26 0 0.49-0.22 0.49-0.48 0-0.22 0.43-0.6 0.69-0.6q0.17 0 0.3-0.36c0.14-0.43 0.3-0.62 0.54-0.62 0.27 0 0.39-0.11 0.46-0.41q0.13-0.5 0.64-0.63c0.29-0.07 0.4-0.2 0.4-0.46 0.01-0.24 0.19-0.4 0.62-0.55q0.36-0.12 0.37-0.29c0-0.26 0.37-0.69 0.6-0.69 0.25 0 0.47-0.23 0.47-0.49 0-0.28 0.21-0.48 0.57-0.55 0.28-0.06 0.29-0.08 0.33-0.71 0.05-0.85 0.23-1.21 0.67-1.35 0.34-0.11 0.34-0.11 0.4-0.84 0.07-0.96 0.26-1.26 0.82-1.26 0.1 0 0.14-0.27 0.17-1.2 0.04-1.37 0.15-1.67 0.69-1.81l0.32-0.08 0.03-5.62c0.02-5.85 0.02-5.88-0.39-5.88-0.46 0-0.59-0.38-0.66-1.82l-0.06-1.17-0.26-0.03q-0.67-0.08-0.67-1.15c0-0.78-0.06-0.93-0.36-0.93-0.45 0-0.62-0.32-0.7-1.32-0.06-0.64-0.08-0.69-0.31-0.72-0.33-0.04-0.57-0.28-0.61-0.58-0.01-0.14-0.09-0.28-0.17-0.32-0.65-0.29-0.75-0.37-0.85-0.68-0.08-0.24-0.19-0.36-0.38-0.41-0.36-0.1-0.63-0.36-0.63-0.62 0-0.27-0.18-0.44-0.45-0.44-0.25 0-0.52-0.28-0.62-0.64-0.05-0.19-0.17-0.3-0.4-0.38-0.32-0.1-0.39-0.2-0.69-0.84-0.04-0.08-0.18-0.16-0.32-0.18-0.3-0.04-0.53-0.28-0.58-0.6-0.02-0.13-0.1-0.26-0.18-0.3-0.65-0.3-0.74-0.37-0.84-0.69-0.11-0.34-0.11-0.34-0.84-0.39-0.96-0.08-1.26-0.27-1.26-0.82 0-0.09-0.23-0.15-0.79-0.18-0.88-0.07-1.12-0.2-1.25-0.71l-0.08-0.3-1.23-0.02c-1.33-0.03-1.68-0.18-1.76-0.74l-0.03-0.22-5.63-0.01c-3.1-0.01-5.69 0-5.76 0.03zm9.14 4.54c0.21 0.05 0.47 0.19 0.56 0.31 0.53 0.68 0.49 0.67 1.69 0.67h1.11l0.41 0.49c0.41 0.48 0.41 0.49 0.99 0.49 0.62 0 0.75 0.08 1.21 0.71 0.15 0.21 0.28 0.27 0.55 0.27 0.59 0 1.27 0.3 1.27 0.56 0 0.12 0.49 0.57 0.71 0.65 0.09 0.03 0.26 0.21 0.37 0.4 0.12 0.19 0.35 0.41 0.52 0.49 0.17 0.08 0.43 0.35 0.57 0.59 0.15 0.24 0.34 0.44 0.42 0.44 0.08 0 0.31 0.23 0.52 0.52 0.21 0.28 0.49 0.57 0.63 0.64 0.32 0.18 0.47 0.51 0.47 1.08 0 0.38 0.04 0.49 0.26 0.65 0.7 0.54 0.82 0.73 0.82 1.31 0 0.53 0.15 0.9 0.37 0.9 0.39 0 0.61 0.59 0.61 1.65 0 1.07 0.13 1.48 0.47 1.48 0.47 0 0.5 0.3 0.5 4.18v3.65l-0.22 0.2c-0.12 0.12-0.33 0.29-0.46 0.39-0.23 0.18-0.25 0.25-0.29 1.38-0.06 1.29-0.04 1.26-0.77 1.76-0.18 0.12-0.21 0.24-0.22 0.73 0 0.65-0.09 0.81-0.7 1.27-0.35 0.25-0.37 0.3-0.37 0.79 0 0.54-0.19 0.85-0.75 1.23-0.11 0.08-0.28 0.29-0.37 0.47-0.09 0.18-0.24 0.35-0.33 0.38-0.21 0.08-0.61 0.43-0.61 0.54 0 0.11-0.45 0.57-0.57 0.57-0.11 0-0.46 0.4-0.54 0.61-0.03 0.09-0.2 0.24-0.38 0.33-0.18 0.09-0.39 0.26-0.46 0.37-0.39 0.56-0.7 0.75-1.24 0.75-0.49 0-0.54 0.02-0.79 0.36-0.45 0.62-0.61 0.71-1.26 0.71-0.5 0-0.62 0.04-0.74 0.21-0.5 0.73-0.47 0.72-1.76 0.77-1.13 0.05-1.2 0.06-1.38 0.3-0.1 0.13-0.27 0.34-0.38 0.46l-0.21 0.22h-3.65c-3.87 0-4.18-0.03-4.18-0.51 0-0.34-0.41-0.47-1.47-0.47-1.07 0-1.66-0.21-1.66-0.61 0-0.21-0.36-0.36-0.9-0.36-0.58-0.01-0.77-0.13-1.31-0.83-0.16-0.21-0.27-0.25-0.65-0.25-0.57 0-0.9-0.15-1.07-0.47-0.08-0.14-0.37-0.42-0.65-0.63-0.28-0.21-0.52-0.45-0.52-0.53 0-0.08-0.19-0.26-0.44-0.41-0.24-0.15-0.5-0.4-0.58-0.57-0.08-0.18-0.31-0.41-0.5-0.52-0.19-0.11-0.37-0.28-0.4-0.37-0.08-0.22-0.53-0.72-0.65-0.72-0.26 0-0.56-0.68-0.56-1.26 0-0.27-0.06-0.4-0.27-0.55-0.63-0.46-0.71-0.59-0.71-1.21 0-0.58 0-0.59-0.49-0.99l-0.49-0.41v-1.11c0-1.2 0.02-1.16-0.67-1.69-0.35-0.28-0.4-0.77-0.4-4.04-0.01-3.51 0.01-3.64 0.63-4.17l0.44-0.39v-1.08c0.01-1.16 0.02-1.2 0.61-1.64 0.36-0.27 0.37-0.3 0.37-0.88 0-0.59 0-0.6 0.49-1.04 0.37-0.34 0.49-0.52 0.49-0.74 0-0.49 0.22-1.05 0.48-1.21 0.34-0.22 0.67-0.56 0.74-0.79 0.03-0.1 0.18-0.24 0.32-0.32 0.33-0.17 0.42-0.26 0.63-0.63 0.09-0.16 0.3-0.36 0.46-0.44 0.16-0.08 0.39-0.31 0.52-0.51 0.13-0.21 0.31-0.4 0.4-0.43 0.22-0.06 0.57-0.39 0.78-0.73 0.16-0.26 0.72-0.48 1.22-0.48 0.21 0 0.39-0.12 0.73-0.49 0.44-0.49 0.45-0.49 1.05-0.49 0.57 0 0.61-0.02 0.87-0.37 0.44-0.59 0.48-0.61 1.65-0.61h1.08l0.38-0.44c0.21-0.25 0.52-0.49 0.69-0.53 0.4-0.12 6.46-0.13 6.96-0.01z"/>
		<path id="path2" fill-rule="evenodd" class="s2" d="m49.75 13.82c-0.12 0.09-0.22 0.21-0.22 0.26 0 0.15-0.5 0.66-0.65 0.66-0.07 0-0.25 0.18-0.38 0.4-0.14 0.22-0.4 0.48-0.59 0.59-0.18 0.11-0.42 0.34-0.52 0.53-0.11 0.18-0.32 0.4-0.47 0.5-0.45 0.27-0.53 0.43-0.53 1.06v0.59l-0.44 0.3c-0.24 0.16-0.46 0.37-0.49 0.47-0.08 0.24-0.63 0.75-0.8 0.75-0.07 0-0.17 0.11-0.22 0.23-0.11 0.29-0.52 0.71-0.76 0.79-0.1 0.03-0.3 0.25-0.46 0.48-0.15 0.23-0.4 0.48-0.55 0.54-0.31 0.14-0.39 0.35-0.39 1.05 0 0.52-0.15 0.75-0.66 1.01-0.12 0.06-0.27 0.23-0.34 0.38-0.07 0.14-0.3 0.38-0.51 0.52-0.21 0.14-0.44 0.38-0.51 0.52-0.08 0.14-0.34 0.39-0.58 0.56-0.24 0.16-0.44 0.35-0.44 0.42 0 0.15-0.29 0.44-0.6 0.59-0.12 0.06-0.32 0.31-0.44 0.55-0.66 1.33-1.01 1.47-3.7 1.47-2.22 0-2.63 0.06-3.01 0.42-0.6 0.55-0.36 0.51-3.55 0.56-3.07 0.05-3.39 0.1-3.66 0.52-0.25 0.41-0.51 0.45-2.93 0.48-2.06 0.03-2.38 0.05-2.71 0.22-0.81 0.4-1.11 1.6-0.48 1.93 0.5 0.26 0.61 0.44 0.61 1.01 0 0.68 0.18 1.38 0.44 1.67 0.11 0.12 0.28 0.31 0.38 0.42 0.13 0.16 0.21 0.44 0.26 1.02 0.05 0.62 0.11 0.83 0.24 0.91 0.6 0.35 0.73 0.54 0.73 1.09 0 0.7 0.19 1.37 0.48 1.68 0.44 0.48 0.6 0.88 0.6 1.5 0 0.61 0 0.62 0.65 1.12 0.29 0.23 0.31 0.28 0.35 1.06 0.06 0.82 0.26 1.4 0.52 1.5 0.25 0.1 0.54 0.89 0.54 1.5q0 0.88 0.43 0.89c0.61 0 0.86 3.2 0.3 3.76-0.14 0.14-0.31 0.25-0.39 0.25-0.22 0-0.34 0.34-0.34 0.92 0 0.6-0.13 0.97-0.47 1.34-0.4 0.42-0.53 0.8-0.6 1.62-0.06 0.83-0.1 0.9-0.67 1.3-0.3 0.21-0.32 0.26-0.32 0.8 0 0.63-0.12 0.99-0.46 1.37-0.39 0.43-0.56 0.9-0.6 1.69-0.04 0.75-0.04 0.77-0.39 1.03-0.2 0.14-0.4 0.29-0.45 0.33-0.04 0.04-0.12 0.43-0.16 0.86-0.07 0.74-0.11 0.83-0.47 1.24-0.43 0.49-0.6 1.02-0.6 1.85 0 0.53-0.02 0.55-0.42 0.85-0.45 0.32-0.6 0.59-0.51 0.91 0.35 1.26 0.54 1.33 3.41 1.33 2.46 0 2.48 0.01 3.12 0.6 0.44 0.41 0.96 0.48 3.76 0.48 2.67 0 2.8 0.02 3.22 0.41 0.51 0.49 0.66 0.51 3.24 0.58 1.35 0.03 2.47 0.06 2.49 0.07 0.15 0.06 1.08 1.14 1.08 1.26 0 0.2 0.3 0.62 0.45 0.62 0.13 0 0.73 0.63 0.73 0.78 0 0.04 0.15 0.17 0.34 0.28 0.19 0.11 0.43 0.34 0.52 0.5 0.1 0.16 0.37 0.43 0.59 0.59 0.22 0.16 0.47 0.43 0.56 0.59 0.08 0.16 0.21 0.3 0.28 0.3 0.33 0 0.65 0.53 0.65 1.11 0 0.59 0 0.59 0.71 1.19 0.13 0.11 0.33 0.34 0.45 0.51 0.12 0.18 0.28 0.32 0.36 0.32 0.15 0 0.59 0.5 0.68 0.77 0.03 0.11 0.17 0.22 0.3 0.25 0.14 0.04 0.4 0.27 0.6 0.55 0.19 0.27 0.39 0.49 0.43 0.49 0.33 0 0.58 0.44 0.59 1.02 0 0.56 0.14 0.94 0.35 0.94 0.14 0 0.72 0.62 0.72 0.76 0 0.07 0.12 0.18 0.27 0.24 0.34 0.16 0.63 0.44 0.78 0.79 0.07 0.14 0.18 0.27 0.25 0.27 0.16 0 0.76 0.56 0.76 0.71q0.01 0.35 1.05 0.36h0.7l0.3-0.43c0.16-0.24 0.43-0.49 0.59-0.56 0.16-0.07 0.34-0.25 0.4-0.39 0.13-0.32 0.46-0.63 0.74-0.72 0.12-0.03 0.26-0.18 0.33-0.33 0.06-0.14 0.22-0.35 0.36-0.46 0.69-0.53 0.72-0.59 0.72-1.21 0-0.54 0.02-0.6 0.32-0.83 0.18-0.14 0.38-0.32 0.45-0.39 0.07-0.08 0.29-0.3 0.48-0.49 0.43-0.42 0.65-0.64 1.07-1.07 0.19-0.19 0.41-0.41 0.49-0.48 0.07-0.07 0.27-0.3 0.44-0.5 0.16-0.2 0.36-0.37 0.42-0.37 0.25 0 0.45-0.47 0.45-1.03q-0.01-0.86 0.71-1.08c0.09-0.03 0.17-0.11 0.17-0.18 0-0.17 0.52-0.71 0.77-0.79 0.11-0.03 0.23-0.15 0.26-0.27 0.08-0.25 0.4-0.57 0.74-0.74 0.15-0.08 0.33-0.32 0.44-0.59 0.12-0.3 0.45-0.72 0.92-1.19 1.27-1.26 0.78-1.12 4.15-1.18 3.14-0.05 3.22-0.07 3.75-0.57 0.41-0.39 0.56-0.41 2.77-0.41 2.34 0 2.98-0.11 3.31-0.58 0.3-0.43 0.69-0.5 3.07-0.5 2.11 0 2.26-0.01 2.64-0.21 0.72-0.39 1-1.7 0.4-1.89-0.51-0.16-0.69-0.5-0.69-1.27 0-0.68-0.19-1.3-0.48-1.53-0.34-0.27-0.45-0.56-0.51-1.3-0.05-0.69-0.08-0.81-0.29-0.94-0.73-0.49-0.78-0.56-0.78-1.34 0-0.74-0.16-1.19-0.59-1.66-0.26-0.29-0.39-0.68-0.39-1.26 0-0.56-0.06-0.67-0.61-1.07-0.35-0.26-0.37-0.29-0.37-0.87 0-0.78-0.15-1.27-0.55-1.73-0.41-0.48-0.52-0.79-0.52-1.39 0-0.52-0.16-0.98-0.35-0.98-0.06 0-0.23-0.09-0.38-0.2l-0.25-0.2v-1.6-1.6l0.28-0.23c0.15-0.13 0.35-0.28 0.45-0.33 0.13-0.08 0.19-0.31 0.25-0.92q0.08-0.82 0.26-1.02c0.1-0.11 0.27-0.3 0.39-0.43 0.25-0.28 0.42-0.92 0.43-1.62 0-0.56 0.14-0.81 0.6-1.04 0.3-0.16 0.37-0.36 0.37-1.01 0-0.56 0.1-0.82 0.45-1.21 0.39-0.44 0.53-0.88 0.53-1.63 0-0.73 0.12-0.95 0.71-1.25 0.33-0.17 0.37-0.33 0.37-1.58 0-1.05 0.16-1.47 0.56-1.47 0.25 0 0.42-0.37 0.42-0.94 0-0.59 0.24-1.02 0.56-1.02 0.31 0 0.53-0.55 0.4-1.03-0.29-1.07-0.75-1.22-3.64-1.22-2.12 0-2.81-0.12-2.81-0.48 0-0.33-0.75-0.44-3.14-0.5-2.52-0.05-2.58-0.06-2.93-0.5-0.34-0.43-0.71-0.48-3.53-0.48-2.75 0-3.62-0.11-3.62-0.48 0-0.03-0.1-0.17-0.22-0.3-0.12-0.14-0.32-0.46-0.44-0.71-0.12-0.26-0.26-0.47-0.32-0.47-0.15 0-0.78-0.59-0.78-0.73 0-0.07-0.18-0.24-0.4-0.39-0.22-0.14-0.49-0.41-0.6-0.6-0.11-0.18-0.25-0.34-0.32-0.34-0.15 0-0.74-0.6-0.74-0.76 0-0.06-0.1-0.16-0.22-0.22-0.52-0.27-0.66-0.49-0.66-1.05 0-0.55-0.27-1.1-0.53-1.1-0.14 0-0.55-0.44-0.55-0.58 0-0.05-0.22-0.25-0.49-0.44-0.27-0.2-0.51-0.45-0.55-0.59-0.03-0.14-0.14-0.27-0.25-0.3-0.27-0.09-0.77-0.53-0.77-0.69 0-0.07-0.14-0.23-0.32-0.36-0.63-0.44-0.66-0.49-0.66-1.01 0-0.69-0.08-0.9-0.39-1.04-0.15-0.07-0.41-0.33-0.59-0.59-0.18-0.26-0.38-0.47-0.45-0.47-0.16 0-0.72-0.58-0.72-0.74 0-0.06-0.2-0.24-0.44-0.4-0.25-0.15-0.47-0.36-0.5-0.45-0.17-0.55-1.32-0.79-1.88-0.41zm6.81 13.36c0.12 0.11 0.22 0.25 0.22 0.31 0 0.37 0.3 0.47 1.44 0.47 1.23 0 1.17-0.02 1.77 0.78 0.22 0.28 0.28 0.3 0.84 0.3 0.59 0 1.04 0.21 1.04 0.48 0 0.28 0.43 0.5 0.97 0.5 0.61 0 0.72 0.06 1.13 0.61 0.14 0.21 0.32 0.37 0.38 0.37 0.07 0 0.21 0.12 0.32 0.26 0.25 0.33 0.73 0.81 1.06 1.06 0.14 0.11 0.26 0.25 0.26 0.32 0 0.07 0.18 0.26 0.41 0.42 0.22 0.16 0.49 0.43 0.58 0.59 0.1 0.16 0.32 0.38 0.49 0.48 0.16 0.1 0.39 0.32 0.49 0.49 0.1 0.17 0.34 0.4 0.52 0.51 0.19 0.1 0.42 0.34 0.53 0.53 0.11 0.18 0.38 0.44 0.6 0.58 0.22 0.14 0.39 0.31 0.39 0.39 0 0.12 0.12 0.23 0.86 0.81 0.19 0.15 0.22 0.27 0.22 0.81 0 0.62 0.01 0.64 0.36 0.88 0.59 0.4 0.62 0.46 0.62 1.11 0 0.6 0.23 1.05 0.55 1.05 0.31 0 0.43 0.42 0.43 1.53v1.1l0.3 0.25c0.17 0.14 0.34 0.25 0.39 0.25 0.39 0 0.39 0.07 0.39 6.09v5.78l-0.24 0.21c-0.13 0.12-0.37 0.32-0.54 0.45l-0.3 0.22v1.12c0 1.22 0.04 1.13-0.66 1.67-0.29 0.23-0.32 0.3-0.32 0.78 0 0.69-0.04 0.78-0.55 1.13l-0.43 0.29v0.62c0 0.63-0.28 1.14-0.63 1.14-0.06 0-0.24 0.2-0.39 0.44-0.15 0.24-0.35 0.46-0.45 0.49-0.25 0.08-0.55 0.36-0.62 0.6-0.04 0.11-0.28 0.35-0.54 0.52-0.25 0.18-0.52 0.44-0.58 0.58-0.06 0.14-0.25 0.33-0.41 0.43-0.17 0.09-0.38 0.3-0.47 0.46-0.09 0.17-0.28 0.35-0.43 0.42-0.14 0.06-0.4 0.32-0.57 0.58-0.18 0.26-0.42 0.5-0.53 0.54-0.23 0.07-0.52 0.36-0.6 0.62-0.03 0.09-0.25 0.3-0.49 0.45-0.24 0.15-0.44 0.33-0.44 0.39 0 0.35-0.51 0.63-1.13 0.63h-0.62l-0.3 0.43c-0.35 0.5-0.44 0.55-1.13 0.55-0.48 0-0.55 0.03-0.77 0.32-0.55 0.7-0.46 0.66-1.68 0.66h-1.11l-0.23 0.3c-0.13 0.17-0.33 0.41-0.45 0.54l-0.21 0.24h-5.78c-6.02 0-6.09-0.01-6.09-0.39 0-0.05-0.11-0.22-0.25-0.39l-0.25-0.3h-1.1c-1.1 0-1.53-0.12-1.53-0.42 0-0.33-0.43-0.56-1.04-0.56-0.66 0-0.72-0.03-1.12-0.62-0.23-0.35-0.25-0.36-0.88-0.36-0.54 0-0.66-0.03-0.81-0.22-0.58-0.74-0.69-0.86-0.81-0.86-0.08 0-0.25-0.18-0.39-0.4-0.14-0.22-0.4-0.48-0.58-0.59-0.18-0.11-0.42-0.35-0.53-0.53-0.11-0.19-0.34-0.42-0.51-0.52-0.17-0.11-0.39-0.33-0.49-0.5-0.1-0.16-0.32-0.38-0.48-0.48-0.16-0.1-0.43-0.36-0.59-0.59-0.16-0.22-0.35-0.4-0.42-0.41-0.06 0-0.21-0.11-0.31-0.25-0.26-0.33-0.74-0.82-1.07-1.07-0.14-0.1-0.26-0.25-0.26-0.31 0-0.06-0.16-0.24-0.36-0.39-0.56-0.4-0.62-0.51-0.62-1.12 0-0.54-0.22-0.97-0.5-0.97-0.27 0-0.48-0.46-0.48-1.04 0-0.57-0.02-0.63-0.3-0.84-0.8-0.6-0.77-0.55-0.77-1.76 0-1.12-0.11-1.45-0.46-1.45-0.53 0-0.52 0.05-0.52-6.24 0-6.22 0-6.21 0.47-6.21 0.39 0 0.51-0.35 0.51-1.5 0-1.14 0.13-1.53 0.51-1.53 0.3 0 0.56-0.5 0.56-1.08 0-0.62 0-0.62 0.67-1.14 0.29-0.23 0.31-0.29 0.31-0.87 0-0.56 0.03-0.64 0.26-0.8 0.41-0.29 0.67-0.56 0.81-0.84 0.08-0.15 0.23-0.29 0.35-0.33 0.28-0.08 0.6-0.4 0.74-0.73 0.07-0.15 0.2-0.3 0.29-0.34 0.2-0.06 0.59-0.38 0.59-0.47 0-0.1 0.42-0.55 0.51-0.55 0.11 0 0.57-0.46 0.57-0.57 0-0.09 0.45-0.51 0.55-0.51 0.1 0 0.42-0.4 0.48-0.59 0.03-0.1 0.18-0.23 0.33-0.29 0.33-0.14 0.65-0.46 0.73-0.75 0.04-0.11 0.19-0.26 0.33-0.34 0.29-0.14 0.55-0.4 0.84-0.82 0.16-0.22 0.24-0.25 0.8-0.25 0.59 0 0.64-0.02 0.87-0.32 0.52-0.66 0.52-0.66 1.15-0.66 0.57 0 1.07-0.26 1.07-0.56 0-0.38 0.39-0.52 1.54-0.52 1.14 0 1.5-0.12 1.5-0.5 0-0.05 0.09-0.17 0.19-0.28 0.31-0.31 11.7-0.31 12.03 0z"/>
		<path id="path3" fill-rule="evenodd" class="s3" d="m46.9 2.09c-0.78 0.06-0.89 0.15-0.9 0.67 0 0.42 0.25 0.43 0.64 0.03 0.56-0.59 0.88-0.64 3.87-0.64 2.99 0 3.31 0.05 3.87 0.64 0.48 0.5 0.92 0.11 0.54-0.49-0.16-0.26-5.64-0.4-8.02-0.21zm0.01 0.74c-0.16 0.14-0.22 0.24-0.14 0.25 0.08 0 0.24-0.11 0.37-0.25 0.29-0.31 0.13-0.31-0.23 0zm7.03-0.08c0 0.17 0.17 0.35 0.29 0.31q0.11-0.04-0.09-0.22c-0.11-0.1-0.2-0.14-0.2-0.09zm-14.39 0.43c-0.39 0.09-0.56 0.25-0.64 0.61-0.1 0.41 0.25 0.35 0.71-0.13 0.22-0.23 0.53-0.44 0.72-0.48l0.32-0.08h-0.39c-0.21 0-0.54 0.03-0.72 0.08zm2.66-0.03c0.09 0.02 0.24 0.02 0.34 0q0.13-0.04-0.17-0.05-0.3 0.01-0.17 0.05zm16.21 0c0.12 0.02 0.3 0.02 0.39 0 0.1-0.03 0-0.05-0.22-0.05q-0.34 0.01-0.17 0.05zm2.22 0.03q0.49 0.16 0.4 0.49c-0.1 0.31 0.16 0.48 0.61 0.42 1-0.14 0.15-1.03-0.95-1l-0.35 0.01zm-24.8 0.94c-0.06 0.03-0.12 0.14-0.12 0.25 0 0.22-0.41 0.58-0.78 0.68-0.14 0.04 0.03 0.06 0.39 0.05 0.55-0.02 0.64-0.04 0.66-0.21l0.02-0.2-0.09 0.2c-0.08 0.18-0.09 0.18-0.1-0.03-0.01-0.42 0.4-0.7 1.02-0.69 0.31 0 0.58-0.02 0.62-0.06 0.07-0.07-1.44-0.06-1.62 0.01zm28.31 0.02c0.74 0.07 1 0.24 1.01 0.67 0.02 0.26 0.04 0.27 0.6 0.29 0.34 0.01 0.47-0.01 0.32-0.05-0.32-0.08-0.77-0.45-0.77-0.62 0-0.29-0.24-0.38-1.03-0.36l-0.79 0.02zm-31.4 1.05c-0.04 0.04-0.06 0.27-0.06 0.51l0.01 0.45 0.11-0.31c0.16-0.41 0.28-0.52 0.67-0.62 0.31-0.07 0.3-0.08-0.17-0.09-0.27 0-0.52 0.02-0.56 0.06zm34.8 0.03c0.39 0.1 0.52 0.21 0.67 0.62l0.11 0.31 0.01-0.36c0.01-0.6-0.05-0.67-0.62-0.66-0.46 0.01-0.48 0.02-0.17 0.09zm-36.87 0.97c-0.02 0.05-0.18 0.11-0.35 0.14-0.22 0.05-0.34 0.15-0.44 0.41-0.13 0.31-0.18 0.34-0.55 0.34-0.99 0-1.65 0.37-1.65 0.92 0 0.41 0.29 0.23 1.07-0.69 0.06-0.07 0.42-0.11 0.94-0.11 0.92-0.01 1.17-0.14 1.06-0.56-0.06-0.26 0.19-0.48 0.45-0.41 0.11 0.03 0.23 0.01 0.26-0.04 0.03-0.05-0.13-0.09-0.34-0.09-0.22 0-0.42 0.04-0.45 0.09zm38.89 0.01c0.03 0.06 0.16 0.08 0.28 0.04 0.24-0.05 0.42 0.1 0.44 0.35 0.03 0.63 0.19 0.69 1.54 0.6 0.32-0.02 0.37 0.02 0.88 0.62 0.39 0.47 0.75 0.49 0.67 0.03-0.1-0.53-0.62-0.76-1.76-0.76-0.38 0-0.45-0.03-0.58-0.29-0.08-0.16-0.26-0.32-0.39-0.35-0.13-0.03-0.26-0.12-0.29-0.2q-0.06-0.13-0.45-0.14c-0.24 0-0.38 0.04-0.34 0.1zm-42.99 2.03c-0.04 0.03-0.07 0.13-0.07 0.22 0 0.35-0.51 0.69-1.03 0.69-0.85 0-0.93 0.06-0.91 0.58q0.01 0.41 0.05 0.19c0.06-0.36 0.35-0.59 0.79-0.64 1.23-0.11 1.27-0.13 1.22-0.45q-0.04-0.28 0.05-0.23 0.09 0.04 0.09-0.11c-0.01-0.13 0.06-0.17 0.26-0.15 0.15 0.01 0.25-0.03 0.21-0.08-0.06-0.1-0.56-0.12-0.66-0.02zm47.25 0.02c0 0.05 0.08 0.07 0.19 0.04 0.21-0.06 0.31 0.08 0.41 0.55l0.06 0.35 0.02-0.36c0.01-0.52-0.07-0.67-0.39-0.67-0.16 0-0.29 0.04-0.29 0.09zm1.65 0.99c0.58 0.09 0.9 0.31 0.9 0.64 0 0.23 0.25 0.51 0.36 0.4q0.05-0.06-0.04-0.06c-0.05 0-0.13-0.22-0.16-0.48-0.08-0.55-0.17-0.6-1.04-0.59l-0.54 0.02zm-52.59 1.1q-0.24 0.13-0.34 0.49c-0.08 0.33-0.12 0.36-0.44 0.36-0.48 0.01-0.6 0.11-0.66 0.58-0.05 0.35-0.09 0.4-0.31 0.41-0.25 0.01-0.25 0.02 0.03 0.08 0.17 0.04 0.31 0.03 0.33-0.01q0.04-0.07 0.11-0.03 0.07 0.03 0.04-0.14-0.15-0.5 0.72-0.76c0.54-0.16 1.11-0.58 1.11-0.8 0-0.06 0.07-0.15 0.17-0.2 0.26-0.16-0.45-0.14-0.76 0.02zm54.49-0.02c0.1 0.05 0.17 0.15 0.17 0.2 0 0.22 0.56 0.62 1.13 0.82 0.54 0.18 0.6 0.23 0.72 0.59 0.11 0.38 0.14 0.4 0.44 0.35 0.29-0.05 0.3-0.06 0.05-0.09-0.22-0.02-0.26-0.09-0.31-0.43-0.06-0.46-0.18-0.56-0.66-0.57-0.33 0-0.36-0.03-0.47-0.38q-0.18-0.61-0.98-0.59c-0.22 0-0.24 0.01-0.09 0.1zm-56.94 2.22c0 0.15 0.05 0.33 0.1 0.42q0.11 0.16 0.03-0.14c-0.05-0.22-0.02-0.32 0.12-0.42 0.17-0.12 0.17-0.13-0.04-0.13-0.17 0-0.21 0.06-0.21 0.27zm59.71-0.18q-0.04 0.09 0.06 0.16 0.12 0.07 0.04-0.05-0.08-0.13 0.06-0.08c0.07 0.02 0.16 0.15 0.2 0.28 0.06 0.21 0.06 0.2 0.07-0.08 0.01-0.32-0.28-0.47-0.43-0.23zm-60.75 1.04c-0.03 0.08-0.11 0.14-0.18 0.14-0.14 0-0.54 0.41-0.54 0.56 0 0.06-0.24 0.16-0.52 0.24-0.48 0.12-0.52 0.16-0.64 0.54-0.11 0.35-0.17 0.41-0.48 0.46-0.46 0.08-0.62 0.23-0.62 0.61 0 0.34-0.12 0.43-0.6 0.43-0.3 0-0.48 0.27-0.48 0.74 0 0.18-0.08 0.25-0.41 0.36-0.39 0.12-0.43 0.16-0.55 0.64-0.08 0.29-0.19 0.52-0.26 0.52-0.14 0-0.54 0.41-0.54 0.56 0 0.06-0.06 0.13-0.15 0.16-0.16 0.06-0.19 0.41-0.05 0.5q0.09 0.04 0.08-0.16c-0.02-0.2 0.02-0.23 0.35-0.23 0.46-0.01 0.56-0.13 0.59-0.77 0.01-0.1 0.1-0.24 0.2-0.3 0.26-0.16 0.79-0.68 0.79-0.79 0.02-0.38 0.57-1 0.94-1.06 0.13-0.03 0.23-0.1 0.21-0.17q-0.04-0.13 0.29-0.06 0.35 0.07 0.18-0.04c-0.12-0.08-0.1-0.14 0.15-0.36 0.16-0.15 0.29-0.34 0.29-0.42 0-0.08 0.08-0.16 0.17-0.17 0.18-0.04 0.64-0.47 0.82-0.77 0.06-0.1 0.19-0.19 0.3-0.2 0.1-0.01 0.25-0.02 0.33-0.02q0.44-0.03 0.44-0.57c0-0.33 0.02-0.37 0.22-0.35q0.21 0.02 0.17-0.07c-0.09-0.15-0.44-0.12-0.5 0.05zm61.78-0.06c0 0.04 0.08 0.08 0.17 0.07 0.17-0.01 0.19 0.03 0.21 0.54q0 0.41 0.69 0.42c0.13 0 0.28 0.09 0.34 0.19 0.17 0.28 0.65 0.75 0.78 0.75 0.19 0.01 0.89 0.53 1 0.75 0.05 0.11 0.15 0.27 0.22 0.35 0.07 0.08 0.11 0.19 0.1 0.23-0.04 0.12 0.69 0.82 0.83 0.8 0.06-0.02 0.12 0.05 0.14 0.14 0.04 0.19 0.47 0.64 0.77 0.82 0.11 0.07 0.21 0.28 0.26 0.53 0.08 0.5 0.21 0.61 0.6 0.53q0.3-0.07 0.21 0.06-0.08 0.12 0.02 0.06c0.06-0.03 0.13 0.01 0.16 0.11q0.04 0.2 0.05-0.05c0.01-0.12-0.05-0.25-0.13-0.28-0.08-0.03-0.15-0.11-0.15-0.18 0-0.14-0.41-0.54-0.56-0.54-0.05 0-0.16-0.23-0.24-0.52-0.12-0.47-0.16-0.52-0.54-0.64-0.37-0.12-0.4-0.16-0.45-0.53-0.06-0.45-0.19-0.56-0.62-0.56-0.32-0.01-0.43-0.17-0.43-0.66 0-0.26-0.26-0.42-0.66-0.42-0.25 0-0.29-0.05-0.4-0.44-0.11-0.42-0.12-0.43-0.65-0.54-0.31-0.07-0.55-0.17-0.55-0.24 0-0.14-0.4-0.55-0.55-0.55-0.06 0-0.14-0.06-0.17-0.14-0.06-0.16-0.45-0.21-0.45-0.06zm3.53 3.78c0 0.09 0.06 0.18 0.15 0.21 0.23 0.09 0.25-0.01 0.04-0.19-0.17-0.14-0.19-0.14-0.19-0.02zm-72.4 3.5c0 0.2 0 0.2 0.13 0.03 0.1-0.14 0.2-0.16 0.42-0.11q0.3 0.07 0.13-0.04c-0.28-0.19-0.68-0.12-0.68 0.12zm75.78-0.13c-0.02 0.04 0.06 0.06 0.18 0.03 0.28-0.05 0.38 0.09 0.45 0.61 0.05 0.34 0.09 0.4 0.37 0.47 0.36 0.09 0.55 0.38 0.46 0.69q-0.06 0.23 0.04 0.08c0.07-0.1 0.11-0.05 0.16 0.19 0.07 0.33 0.53 0.88 0.72 0.88 0.06 0 0.15 0.08 0.2 0.17 0.09 0.15 0.1 0.14 0.11-0.08q0.01-0.81-0.6-0.99c-0.35-0.1-0.38-0.14-0.38-0.46 0-0.49-0.1-0.61-0.57-0.67-0.39-0.05-0.41-0.07-0.41-0.38 0-0.55-0.49-0.92-0.73-0.54zm-75.87 0.61c-0.01 0.22-0.06 0.26-0.42 0.31-0.47 0.06-0.57 0.18-0.57 0.67 0 0.33-0.03 0.36-0.33 0.42-0.44 0.08-0.57 0.25-0.62 0.82-0.03 0.36-0.02 0.43 0.07 0.29 0.06-0.09 0.15-0.17 0.21-0.17 0.22 0 0.64-0.57 0.8-1.11 0.12-0.4 0.24-0.59 0.39-0.65 0.62-0.24 0.62-0.24 0.55-0.54-0.06-0.29-0.07-0.29-0.08-0.04zm76.99 0.77c0.11 0.11 0.23 0.2 0.26 0.2 0.04 0-0.01-0.09-0.11-0.2-0.1-0.11-0.21-0.2-0.26-0.2-0.05 0 0.01 0.09 0.11 0.2zm-79.98 2.87c-0.03 0.12-0.06 0.44-0.06 0.71 0 0.53-0.3 0.96-0.73 1.04-0.22 0.04-0.33 0.53-0.16 0.7q0.1 0.11 0.08-0.18c-0.02-0.22 0.02-0.29 0.15-0.28q0.15 0.01 0.11-0.09-0.06-0.1 0.23-0.04c0.32 0.07 0.33 0.04 0.46-1.23 0.04-0.44 0.28-0.73 0.63-0.78q0.22-0.04-0.19-0.06c-0.4-0.01-0.46 0.02-0.52 0.21zm81.86-0.15c0.43 0.06 0.59 0.34 0.69 1.23l0.1 0.81 0.3-0.04q0.28-0.04 0.23 0.06-0.04 0.09 0.11 0.08 0.16 0 0.17 0.15c0 0.1 0.04 0.21 0.08 0.25 0.05 0.04 0.07-0.07 0.05-0.26-0.02-0.25-0.08-0.35-0.23-0.38-0.43-0.08-0.73-0.51-0.73-1.04-0.01-0.86-0.06-0.94-0.58-0.92q-0.41 0.02-0.19 0.06zm-83.51 3.18c-0.21 0.16-0.46 0.98-0.46 1.52 0 0.38-0.03 0.43-0.35 0.56-0.26 0.11-0.36 0.22-0.4 0.44-0.04 0.17-0.1 0.33-0.15 0.36-0.05 0.03-0.08 0.23-0.08 0.44q0 0.37 0.09 0.33c0.06-0.03 0.08-0.16 0.05-0.28-0.07-0.26 0.16-0.49 0.41-0.42 0.39 0.12 0.53-0.15 0.53-1.05 0-0.53 0.05-0.89 0.12-0.95 0.94-0.8 1.11-1.07 0.67-1.07-0.15 0-0.34 0.06-0.43 0.12zm85.26 0.05c0 0.1 0.16 0.31 0.35 0.47 0.2 0.16 0.41 0.35 0.48 0.41 0.12 0.11 0.18 0.67 0.16 1.49 0 0.39 0.22 0.61 0.53 0.53q0.37-0.08 0.46 0.51 0.05 0.36 0.06-0.13 0.02-0.42-0.12-0.47c-0.08-0.03-0.17-0.16-0.2-0.29-0.03-0.13-0.19-0.3-0.35-0.39-0.27-0.14-0.29-0.19-0.3-0.66 0-0.59-0.23-1.34-0.46-1.52-0.24-0.18-0.61-0.15-0.61 0.05zm-44.87 4.64c-0.71 0.06-0.96 0.11-1.03 0.24-0.35 0.58-0.74 0.73-1.93 0.73-0.98 0-1.19 0.07-1.4 0.49-0.16 0.31-0.49 0.45-1.3 0.55-0.44 0.05-0.54 0.11-0.71 0.38-0.22 0.35-0.42 0.47-1.2 0.69-0.41 0.11-0.6 0.22-0.67 0.37-0.06 0.13-0.31 0.34-0.56 0.47-0.25 0.13-0.52 0.36-0.59 0.5-0.14 0.3-0.56 0.67-0.76 0.67-0.08 0-0.2 0.14-0.27 0.31-0.14 0.34-0.33 0.54-0.68 0.71-0.12 0.06-0.32 0.31-0.45 0.56-0.14 0.25-0.35 0.5-0.47 0.56-0.16 0.07-0.27 0.26-0.38 0.67-0.22 0.79-0.33 0.98-0.69 1.21-0.26 0.16-0.32 0.26-0.37 0.7-0.11 0.82-0.25 1.14-0.56 1.3-0.41 0.22-0.48 0.43-0.48 1.4 0 1.19-0.15 1.57-0.73 1.93-0.3 0.19-0.45 3.77-0.25 5.98 0.1 1.15 0.13 1.24 0.42 1.37 0.38 0.17 0.55 0.69 0.55 1.68q0.01 1.42 0.33 1.41c0.32 0 0.58 0.46 0.68 1.21 0.06 0.41 0.14 0.74 0.18 0.74 0.25 0 0.75 0.69 0.87 1.18 0.14 0.6 0.26 0.81 0.53 0.91 0.09 0.04 0.26 0.27 0.37 0.51 0.11 0.25 0.29 0.49 0.41 0.53 0.34 0.13 0.64 0.44 0.71 0.72 0.04 0.16 0.16 0.29 0.32 0.35 0.35 0.12 0.67 0.42 0.72 0.66 0.02 0.11 0.22 0.28 0.5 0.42 0.25 0.12 0.53 0.35 0.62 0.49q0.15 0.27 0.61 0.4c0.92 0.25 1.24 0.46 1.41 0.91 0.05 0.12 0.25 0.18 0.76 0.23 0.7 0.07 1.04 0.26 1.32 0.76 0.08 0.13 0.33 0.18 1.29 0.25 1.29 0.09 1.51 0.17 1.76 0.59 0.21 0.35 1.04 0.45 3.71 0.45 2.8 0 3.36-0.08 3.78-0.56l0.34-0.39 1.17-0.09c1.41-0.1 1.44-0.11 1.6-0.47 0.15-0.33 0.44-0.46 1.23-0.55 0.47-0.06 0.59-0.11 0.73-0.33 0.31-0.48 0.63-0.7 1.04-0.7 0.13 0 0.27-0.04 0.3-0.09 0.04-0.06 0.14-0.1 0.24-0.1 0.1 0 0.29-0.15 0.43-0.33 0.14-0.18 0.4-0.4 0.59-0.49 0.19-0.09 0.43-0.32 0.55-0.51 0.11-0.2 0.35-0.41 0.54-0.49q0.35-0.14 0.49-0.48c0.08-0.2 0.29-0.43 0.49-0.55 0.19-0.12 0.42-0.36 0.51-0.55 0.09-0.18 0.31-0.45 0.49-0.59 0.18-0.13 0.33-0.33 0.33-0.43 0-0.09 0.04-0.2 0.09-0.23 0.06-0.04 0.1-0.18 0.1-0.31 0-0.41 0.21-0.73 0.7-1.04 0.21-0.13 0.27-0.26 0.32-0.73 0.09-0.78 0.23-1.08 0.56-1.23 0.36-0.16 0.37-0.19 0.47-1.6l0.09-1.17 0.39-0.34c0.47-0.42 0.56-0.98 0.56-3.77 0-2.68-0.1-3.51-0.45-3.72-0.42-0.25-0.5-0.47-0.59-1.76-0.07-0.96-0.12-1.2-0.26-1.28-0.49-0.29-0.68-0.63-0.75-1.31-0.07-0.65-0.08-0.69-0.44-0.93-0.37-0.25-0.48-0.43-0.71-1.26q-0.12-0.46-0.39-0.61c-0.15-0.09-0.37-0.37-0.5-0.62-0.13-0.28-0.3-0.48-0.42-0.5-0.23-0.05-0.53-0.37-0.65-0.72-0.06-0.15-0.2-0.28-0.35-0.32-0.28-0.07-0.59-0.37-0.72-0.71-0.04-0.12-0.28-0.3-0.53-0.41-0.24-0.11-0.47-0.28-0.51-0.37-0.1-0.27-0.31-0.39-0.91-0.53-0.5-0.11-1.18-0.62-1.18-0.87 0-0.04-0.33-0.12-0.74-0.18-0.75-0.1-1.22-0.36-1.22-0.68q0.02-0.32-1.4-0.32c-0.99-0.01-1.51-0.18-1.68-0.56-0.2-0.46-3.27-0.66-6.32-0.41zm-42.69 0.25q-0.12 0.06-0.11 0.56c0.01 0.47 0.01 0.48 0.08 0.18 0.1-0.4 0.21-0.52 0.62-0.67l0.31-0.12h-0.39c-0.21 0-0.44 0.03-0.51 0.05zm89.89 0.06c0.46 0.15 0.6 0.42 0.7 1.31l0.09 0.77-0.02-1.01c-0.03-1.13-0.06-1.2-0.7-1.18l-0.39 0.01zm-90.1 2.13c-0.03 0.31-0.44 0.78-0.69 0.78-0.1 0-0.22 0.07-0.25 0.15-0.08 0.21-0.08 1.66 0 1.59 0.03-0.04 0.06-0.31 0.05-0.62 0-0.62 0.27-1.03 0.7-1.02 0.21 0.01 0.21 0.02 0.02 0.1q-0.25 0.09-0.02 0.09c0.24 0.01 0.29-0.16 0.24-0.79-0.02-0.29-0.04-0.42-0.05-0.28zm90.9 0.4c0 0.09-0.03 0.24-0.06 0.32q-0.08 0.17 0.18 0.16c0.48 0 0.7 0.3 0.77 1.04l0.05 0.67 0.02-0.79c0.02-0.78-0.07-1.02-0.35-1.02-0.07 0-0.24-0.12-0.37-0.27-0.18-0.2-0.24-0.23-0.24-0.11zm0.98 3.7c0 0.1 0.2 0.39 0.45 0.64 0.37 0.38 0.44 0.51 0.4 0.75-0.02 0.16 0 0.32 0.04 0.35 0.23 0.13 0.01-1.46-0.23-1.68-0.24-0.23-0.66-0.27-0.66-0.06zm-93.44 0.06c-0.24 0.17-0.42 0.71-0.41 1.22l0.01 0.35 0.08-0.29c0.11-0.37 0.26-0.46 0.69-0.4q0.38 0.06 0.14-0.04c-0.18-0.09-0.18-0.09-0.01-0.1 0.14 0 0.17-0.06 0.12-0.23-0.03-0.12-0.06-0.32-0.06-0.44 0-0.26-0.24-0.29-0.56-0.07zm-0.39 3.23q0 0.34 0.04 0.17c0.02-0.12 0.02-0.3 0-0.39-0.03-0.09-0.04 0.01-0.04 0.22zm-0.4 3.33c-0.17 0.17-0.38 0.35-0.45 0.41-0.2 0.17-0.29 2.47-0.23 5.79 0.05 3.1 0.06 3.16 0.72 3.16 0.43 0 0.44-0.25 0.04-0.64-0.59-0.56-0.64-0.88-0.64-3.87 0.01-2.98 0.04-3.2 0.61-3.82 0.3-0.34 0.33-0.43 0.3-0.85l-0.03-0.47zm95.2 0.52c0 0.1 0.13 0.3 0.29 0.46 0.5 0.47 0.64 1.37 0.64 3.87 0 2.5-0.14 3.4-0.64 3.87-0.51 0.5-0.13 0.92 0.45 0.5 0.48-0.35 0.48-8.39 0-8.74-0.28-0.21-0.74-0.18-0.74 0.04zm-95.04 0.67c-0.36 0.41-0.43 0.69-0.09 0.35 0.17-0.17 0.3-0.36 0.28-0.42q-0.04-0.09-0.19 0.07zm95.26 0.28c0.08 0.11 0.23 0.43 0.33 0.71 0.21 0.66 0.29 0.62 0.09-0.04-0.08-0.27-0.24-0.58-0.37-0.68q-0.31-0.28-0.05 0.01zm-0.31 13.18c-0.02 0.08-0.02 0.24-0.01 0.36q0.01 0.22-0.43 0.67c-0.52 0.53-0.6 0.87-0.18 0.77 0.4-0.09 0.59-0.37 0.67-0.96 0.05-0.45 0.01-1.22-0.05-0.84zm-94.73 0.39c-0.03 1.1 0.86 1.95 1 0.95 0.06-0.45-0.11-0.71-0.42-0.61q-0.33 0.1-0.49-0.4l-0.08-0.29zm93.76 3.32c-0.01 0.37-0.05 0.59-0.11 0.56q-0.09-0.05-0.04 0.09c0.08 0.21-0.16 0.47-0.37 0.41q-0.16-0.03-0.13 0.04c0.03 0.04-0.05 0.1-0.17 0.12-0.12 0.02-0.02 0.05 0.24 0.06 0.59 0.01 0.68-0.14 0.64-1.14-0.04-0.74-0.04-0.75-0.06-0.14zm-92.78 0.27c-0.01 0.9 0.05 1.02 0.59 1.02h0.37l0.03 0.51 0.04 0.52 0.02-0.57c0.01-0.53 0-0.56-0.22-0.56-0.46 0-0.69-0.31-0.75-1.04l-0.06-0.67zm91.76 2.62c-0.07 0.88-0.22 1.17-0.68 1.31l-0.33 0.11 0.47 0.01c0.59 0.01 0.68-0.17 0.64-1.36l-0.03-0.84zm-90.69 0.82c-0.01 0.56 0.06 0.63 0.66 0.61h0.36l-0.32-0.12c-0.41-0.15-0.52-0.27-0.62-0.67-0.07-0.3-0.07-0.29-0.08 0.18zm0.97 2.18c0 0.21 0.04 0.41 0.08 0.44 0.05 0.03 0.11 0.19 0.15 0.36 0.04 0.22 0.14 0.33 0.4 0.44 0.32 0.13 0.35 0.18 0.35 0.54 0 0.57 0.27 1.45 0.49 1.56 0.6 0.32 0.78-0.08 0.23-0.54-0.62-0.52-0.64-0.55-0.62-0.97 0.07-1.35 0.04-1.42-0.59-1.45-0.26-0.01-0.41-0.2-0.35-0.43 0.03-0.12 0.01-0.25-0.04-0.28q-0.1-0.04-0.1 0.33zm88.67-0.13q-0.02 0.54-0.5 0.53c-0.4 0.01-0.45 0.11-0.47 0.88-0.02 0.81-0.09 1.11-0.22 1.03q-0.09-0.04-0.1 0.05c0 0.07-0.12 0.1-0.31 0.08l-0.32-0.03-0.03 0.53-0.03 0.52 0.27-0.06c0.32-0.08 0.62-0.39 0.62-0.65 0-0.1 0.04-0.21 0.1-0.24 0.05-0.04 0.1-0.32 0.1-0.64 0-0.54 0.02-0.59 0.28-0.73 0.16-0.08 0.32-0.25 0.36-0.37 0.04-0.12 0.13-0.27 0.21-0.32q0.14-0.1 0.1-0.49-0.04-0.47-0.06-0.09zm-86.62 4.34c0 0.33 0.15 0.41 0.67 0.39l0.36-0.01-0.34-0.07c-0.48-0.09-0.61-0.19-0.56-0.41 0.03-0.1 0.01-0.18-0.04-0.18-0.05 0-0.09 0.13-0.09 0.28zm84.56-0.11c-0.01 0.23-0.34 0.46-0.54 0.38-0.07-0.02-0.19 0-0.26 0.04q-0.14 0.09 0.33 0.09c0.5 0 0.61-0.1 0.53-0.5q-0.05-0.34-0.06-0.01zm-83.57 1.45c0 0.92 0.04 1 0.57 1.08 0.25 0.04 0.49 0.12 0.54 0.18q0.07 0.09 0.02-0.07c-0.03-0.1-0.06-0.23-0.06-0.28q-0.01-0.08-0.09-0.04c-0.37 0.23-0.76-0.17-0.84-0.89q-0.14-1-0.14 0.02zm82.57 0.02c-0.06 0.58-0.3 0.91-0.63 0.91-0.13 0-0.26 0.04-0.29 0.09-0.07 0.11 0.36 0.13 0.71 0.04q0.37-0.1 0.3-1.12l-0.03-0.43zm-81.5 1.99q-0.01 0.8 0.6 0.98c0.35 0.11 0.38 0.14 0.38 0.47 0 0.48 0.1 0.6 0.57 0.66 0.34 0.05 0.4 0.1 0.43 0.31 0.03 0.25 0.04 0.24 0.09-0.05 0.05-0.3 0.03-0.32-0.35-0.44-0.37-0.12-0.41-0.17-0.6-0.72-0.19-0.57-0.59-1.12-0.81-1.12-0.06 0-0.15-0.08-0.2-0.18-0.09-0.14-0.1-0.13-0.11 0.09zm80.38-0.11c-0.7 0.64-0.79 0.77-0.97 1.32-0.18 0.52-0.24 0.6-0.54 0.7-0.31 0.1-0.35 0.16-0.4 0.52-0.06 0.44-0.14 0.55-0.44 0.62q-0.19 0.05 0.11 0.06c0.35 0.01 0.43-0.11 0.43-0.62 0-0.3 0.03-0.32 0.4-0.37 0.5-0.07 0.51-0.08 0.58-0.64 0.04-0.41 0.08-0.47 0.31-0.49 0.35-0.04 0.54-0.28 0.62-0.78 0.07-0.44 0.06-0.46-0.1-0.32zm-78.32 3.02c0 0.18 0.05 0.21 0.32 0.2q0.3-0.01 0.12-0.06c-0.11-0.02-0.25-0.11-0.32-0.2-0.11-0.14-0.12-0.13-0.12 0.06zm1 1.02q0.03 0.22 0.23 0.25c0.35 0.05 0.67 0.49 0.83 1.13 0.14 0.58 0.16 0.61 0.55 0.73 0.37 0.12 0.41 0.16 0.45 0.53 0.07 0.48 0.08 0.5 0.59 0.56 0.4 0.06 0.42 0.07 0.47 0.47 0.07 0.51 0.08 0.52 0.57 0.59 0.36 0.05 0.4 0.09 0.52 0.46 0.12 0.37 0.16 0.41 0.64 0.54 0.28 0.07 0.52 0.19 0.52 0.25 0 0.14 0.41 0.54 0.56 0.54 0.05 0 0.13 0.07 0.16 0.15 0.03 0.08 0.15 0.14 0.28 0.13q0.25-0.01 0.05-0.05-0.15-0.05-0.12-0.14 0.04-0.08-0.06-0.09-0.11-0.01-0.05-0.23c0.08-0.33-0.13-0.54-0.57-0.57q-0.38-0.03-0.49-0.21c-0.18-0.3-0.63-0.74-0.82-0.78-0.09-0.02-0.16-0.08-0.15-0.14 0.03-0.14-0.65-0.84-0.84-0.87-0.19-0.04-0.31-0.25-0.25-0.44 0.07-0.23-0.05-0.48-0.22-0.48-0.12 0-0.12 0.02 0.02 0.16 0.26 0.26 0.06 0.28-0.22 0.02-0.15-0.14-0.35-0.28-0.44-0.31-0.1-0.03-0.17-0.13-0.17-0.2 0-0.15-0.44-0.62-0.75-0.81q-0.18-0.11-0.21-0.48c-0.02-0.47-0.08-0.52-0.56-0.56-0.3-0.03-0.39-0.08-0.38-0.2 0.01-0.09-0.03-0.17-0.08-0.17-0.05 0-0.08 0.1-0.06 0.22zm74.34-0.07c0 0.14-0.18 0.21-0.68 0.26q-0.23 0.04-0.27 0.23c-0.01 0.11-0.04 0.3-0.06 0.43-0.02 0.14-0.12 0.29-0.21 0.35-0.31 0.18-0.74 0.65-0.74 0.8 0 0.07-0.1 0.18-0.22 0.23-0.3 0.12-0.86 0.66-0.86 0.84 0 0.08-0.07 0.14-0.14 0.14-0.18 0-0.72 0.56-0.85 0.86-0.04 0.12-0.15 0.22-0.23 0.22-0.14 0-0.62 0.43-0.8 0.75-0.06 0.1-0.15 0.18-0.2 0.18-0.59 0.03-0.82 0.16-0.82 0.47 0 0.35-0.08 0.5-0.29 0.58q-0.12 0.06 0.12 0.07c0.22 0 0.27-0.04 0.27-0.22 0-0.33 0.46-0.71 1.03-0.85 0.61-0.16 0.71-0.24 0.81-0.63 0.07-0.26 0.14-0.31 0.51-0.37 0.52-0.09 0.51-0.09 0.58-0.6 0.06-0.4 0.07-0.41 0.47-0.47 0.51-0.06 0.51-0.06 0.6-0.58 0.06-0.37 0.11-0.44 0.37-0.51 0.37-0.09 0.45-0.19 0.62-0.74 0.08-0.23 0.19-0.41 0.25-0.41 0.15 0 0.54-0.42 0.54-0.57 0-0.07 0.07-0.12 0.15-0.12q0.14-0.01 0.14-0.24c0-0.14-0.02-0.25-0.05-0.25q-0.04 0.01-0.04 0.15zm-2.94 2.56c0 0.13 0.02 0.13 0.14 0.03 0.08-0.06 0.15-0.13 0.15-0.16q-0.01-0.03-0.15-0.03c-0.08 0-0.14 0.07-0.14 0.16zm-67.53 1.01c0.18 0.21 0.28 0.19 0.19-0.04-0.03-0.08-0.13-0.15-0.21-0.15-0.13 0-0.12 0.03 0.02 0.19zm66.55-0.03c0 0.13 0.02 0.13 0.14 0.03 0.08-0.06 0.15-0.14 0.15-0.16q-0.01-0.03-0.15-0.03c-0.08 0-0.14 0.07-0.14 0.16zm-63.23 3.14c-0.33 0.33 0.01 0.81 0.57 0.81 0.3 0 0.33 0.03 0.38 0.41 0.06 0.47 0.18 0.57 0.66 0.57 0.33 0 0.37 0.03 0.47 0.38q0.18 0.61 0.98 0.6c0.22 0 0.24-0.02 0.09-0.1-0.1-0.06-0.17-0.15-0.17-0.21 0-0.22-0.56-0.62-1.13-0.81-0.52-0.18-0.6-0.24-0.7-0.54-0.09-0.29-0.17-0.36-0.46-0.4q-0.7-0.12-0.63-0.55c0.05-0.25 0.05-0.26-0.06-0.16zm60.01 0.29c-0.02 0.27-0.15 0.35-0.64 0.42-0.33 0.05-0.39 0.1-0.49 0.4-0.1 0.3-0.18 0.36-0.71 0.54-0.54 0.18-0.79 0.37-1.3 0.98-0.13 0.15-0.1 0.16 0.29 0.09 0.52-0.08 0.76-0.27 0.8-0.62 0.02-0.23 0.08-0.26 0.49-0.31 0.56-0.07 0.57-0.08 0.63-0.58 0.06-0.4 0.06-0.4 0.49-0.4 0.46 0 0.57-0.11 0.49-0.5q-0.05-0.33-0.05-0.02zm-4.13 2.68q-0.01 0.18-0.09 0.15-0.08-0.03-0.04 0.13c0.06 0.22-0.28 0.45-0.51 0.36q-0.13-0.04-0.14 0.04c0 0.05-0.17 0.11-0.37 0.13-0.2 0.03-0.03 0.04 0.38 0.03 0.42-0.01 0.79-0.04 0.82-0.08 0.13-0.13 0.18-0.96 0.06-0.96-0.06 0-0.11 0.09-0.11 0.2zm-51.81 0.3c-0.02 0.53 0.07 0.58 0.96 0.57l0.54-0.02-0.52-0.07c-0.58-0.09-0.87-0.29-0.93-0.67q-0.03-0.22-0.05 0.19zm1.96 0.89c-0.02 0.53 0.06 0.67 0.4 0.67 0.17 0 0.27-0.03 0.23-0.07-0.04-0.04-0.15-0.08-0.24-0.08q-0.15-0.01-0.15-0.17 0.01-0.15-0.07-0.12c-0.04 0.03-0.09-0.09-0.12-0.27l-0.04-0.32zm47.9-0.21c-0.01 0.08-0.02 0.2-0.01 0.27 0.03 0.22-0.19 0.5-0.41 0.54q-0.24 0.04 0.1 0.06c0.37 0.01 0.44-0.1 0.39-0.64-0.02-0.21-0.05-0.31-0.07-0.23zm-46.57 1.08c0.03 0.11 0.16 0.28 0.29 0.37 0.13 0.09 0.33 0.24 0.44 0.34q0.21 0.17 0.73 0.17c0.48 0 0.54 0.02 0.68 0.29 0.08 0.16 0.25 0.32 0.38 0.35 0.13 0.03 0.26 0.12 0.29 0.2q0.05 0.14 0.48 0.12 0.48-0.01 0.12-0.06-0.59-0.08-0.5-0.45c0.07-0.3-0.16-0.55-0.49-0.54-1.17 0.03-1.65-0.12-1.6-0.52 0.06-0.41 0-0.47-0.44-0.47-0.38 0-0.42 0.02-0.38 0.2zm44.5-0.08c-0.01 0.07-0.01 0.18 0 0.25 0.01 0.08-0.04 0.21-0.11 0.29q-0.16 0.19 0.02 0.08 0.17-0.1 0.03 0.04c-0.13 0.15-0.44 0.2-1.25 0.22-0.63 0.01-0.73 0.08-0.74 0.48 0 0.31-0.15 0.45-0.54 0.5q-0.36 0.05 0.13 0.06 0.42 0.02 0.47-0.12c0.03-0.08 0.16-0.17 0.29-0.2 0.13-0.03 0.3-0.19 0.39-0.35 0.14-0.27 0.18-0.29 0.73-0.29 0.32 0 0.6-0.05 0.64-0.1 0.03-0.05 0.14-0.1 0.24-0.1 0.25 0 0.57-0.3 0.65-0.61 0.06-0.27 0.06-0.27-0.44-0.27q-0.5 0-0.51 0.12zm-39.66 2.28c-0.01 0.64 0.05 0.68 1.19 0.7l1.01 0.02-0.78-0.09c-0.89-0.1-1.16-0.24-1.3-0.69l-0.11-0.33zm35.52-0.07c-0.11 0.44-0.41 0.6-1.3 0.7l-0.77 0.08 0.74 0.01c1.33 0.02 1.53-0.1 1.44-0.83l-0.03-0.28zm-32.48 1.12c-0.02 0.58 0.12 0.67 1.08 0.65l0.72-0.02-0.66-0.06c-0.74-0.06-0.94-0.2-1.06-0.71-0.07-0.31-0.07-0.31-0.08 0.14zm29.49-0.24c-0.01 0.12-0.06 0.2-0.1 0.17q-0.08-0.03-0.05 0.13c0.06 0.21-0.2 0.45-0.41 0.37q-0.13-0.05-0.09 0.03c0.03 0.05-0.21 0.11-0.56 0.13-0.59 0.03-0.58 0.03 0.17 0.05 1 0.03 1.15-0.07 1.1-0.67-0.02-0.24-0.05-0.33-0.06-0.21zm-25.85 0.88c-0.67 0.05-0.49 0.7 0.24 0.9 0.45 0.12 1.13 0.13 1.06 0.01-0.03-0.05-0.15-0.06-0.27-0.03q-0.2 0.05-0.15-0.05c0.04-0.06-0.01-0.16-0.1-0.23q-0.23-0.19-0.04 0.03 0.12 0.16 0.04 0.17c-0.15 0-0.21-0.21-0.15-0.54q0.05-0.3-0.05-0.15c-0.09 0.12-0.1 0.12-0.13 0q-0.03-0.14-0.45-0.11zm21.68 0.07q-0.15 0.1-0.04 0.28c0.14 0.25-0.18 0.58-0.47 0.51-0.12-0.03-0.25-0.01-0.28 0.04-0.2 0.32 1.43 0.01 1.66-0.32 0.32-0.46-0.37-0.87-0.87-0.51zm-15.05 1.21c0 0.72 0.35 0.78 4.51 0.78 4.16 0 4.51-0.06 4.51-0.78 0-0.38-0.27-0.37-0.64 0.01-0.47 0.49-1.37 0.64-3.87 0.64-2.5 0-3.4-0.15-3.87-0.64-0.37-0.38-0.64-0.39-0.64-0.01zm0.99-0.11q0.19 0.3 1.14 0.57c0.44 0.12 0.21-0.04-0.29-0.2-0.28-0.09-0.62-0.26-0.75-0.38l-0.23-0.21z"/>
		<path id="path4" fill-rule="evenodd" class="s4" d="m46.3 8.86c-0.25 0.05-1.34 0.09-2.43 0.09l-1.99 0.01-0.37 0.38c-0.2 0.21-0.49 0.41-0.65 0.44-0.16 0.04-0.48 0.11-0.71 0.16-0.23 0.05-0.63 0.1-0.88 0.1-0.39 0-0.51 0.05-0.81 0.33-0.44 0.41-0.81 0.54-1.89 0.61-0.82 0.06-0.87 0.08-1.13 0.39-0.22 0.27-0.39 0.35-1 0.49-0.61 0.14-0.79 0.23-1.08 0.53q-0.54 0.58-1.29 0.58-0.29 0-0.64 0.35c-0.42 0.42-0.51 0.47-1.23 0.64-0.41 0.09-0.67 0.22-0.93 0.48-0.2 0.19-0.51 0.42-0.69 0.52-0.17 0.09-0.39 0.3-0.48 0.46-0.17 0.28-0.53 0.46-1.31 0.63-0.14 0.03-0.37 0.2-0.5 0.38-0.14 0.17-0.4 0.38-0.58 0.45-0.18 0.07-0.46 0.31-0.61 0.52-0.3 0.41-0.76 0.67-1.2 0.67-0.22 0-1.22 0.89-2.49 2.22-0.14 0.15-0.96 0.97-1.11 1.11-1.33 1.27-2.22 2.26-2.22 2.49 0 0.44-0.25 0.9-0.66 1.19-0.21 0.15-0.44 0.41-0.52 0.58-0.13 0.3-0.75 0.99-1.58 1.75-0.16 0.14-0.29 0.39-0.32 0.62-0.13 0.76-0.17 0.86-0.53 1.22-0.28 0.28-0.4 0.51-0.5 0.94-0.17 0.72-0.21 0.81-0.64 1.23q-0.35 0.35-0.34 0.63-0.01 0.76-0.58 1.3c-0.3 0.29-0.4 0.47-0.53 1.07-0.14 0.58-0.23 0.78-0.5 1.02-0.3 0.28-0.34 0.38-0.37 0.91-0.04 0.61-0.21 0.88-0.72 1.18-0.17 0.09-0.2 0.26-0.26 1.32-0.1 1.89-0.25 2.42-0.81 2.78-0.34 0.23-0.5 7.98-0.3 15.19l0.06 2.35 0.31 0.29c0.48 0.45 0.76 1.33 0.76 2.41 0 0.37 0.05 0.49 0.32 0.74 0.4 0.38 0.55 0.86 0.63 1.95 0.05 0.79 0.07 0.84 0.38 1.07 0.28 0.21 0.35 0.36 0.5 1.02 0.14 0.64 0.22 0.81 0.44 0.96q0.5 0.33 0.66 1.31c0.06 0.37 0.16 0.56 0.46 0.85 0.32 0.31 0.41 0.48 0.51 1.03 0.11 0.52 0.2 0.71 0.44 0.93 0.38 0.33 0.52 0.62 0.6 1.22 0.06 0.43 0.31 0.86 0.51 0.86 0.1 0 0.52 0.45 0.52 0.56 0 0.03 0.16 0.19 0.35 0.36 0.2 0.16 0.44 0.46 0.54 0.65 0.1 0.2 0.34 0.48 0.54 0.63 0.37 0.29 0.63 0.76 0.63 1.17 0 0.23 1.34 1.73 1.54 1.73 0.05 0 0.15 0.1 0.23 0.22 0.08 0.12 0.3 0.36 0.48 0.54 0.19 0.18 0.44 0.42 0.54 0.52 0.51 0.5 1.09 1.08 1.15 1.14 1.2 1.3 1.51 1.56 2.07 1.69 0.48 0.11 0.63 0.2 0.91 0.55 0.19 0.23 0.49 0.48 0.66 0.57 0.18 0.08 0.46 0.3 0.61 0.48 0.16 0.18 0.4 0.36 0.53 0.39 1.02 0.24 1.27 0.36 1.27 0.62 0 0.13 0.46 0.49 0.92 0.72 0.15 0.08 0.32 0.22 0.37 0.33 0.12 0.21 0.66 0.46 1 0.46 0.34 0 0.82 0.26 1.04 0.58q0.19 0.27 0.57 0.33c0.93 0.16 1.16 0.28 1.66 0.89 0.07 0.08 0.33 0.17 0.59 0.21 0.68 0.09 0.97 0.22 1.24 0.58 0.24 0.31 0.28 0.32 1.11 0.37 1.1 0.07 1.53 0.2 1.92 0.61 0.29 0.3 0.37 0.32 1.12 0.38 1.07 0.08 1.54 0.23 1.92 0.61l0.31 0.32 2.15 0.07c2.5 0.08 9.76 0.08 13.03-0.01l2.25-0.06 0.3-0.32c0.35-0.39 0.78-0.52 1.88-0.61 0.75-0.06 0.83-0.09 1.19-0.42q0.63-0.59 2.12-0.59c0.54 0 0.58-0.02 0.91-0.39 0.24-0.28 0.44-0.41 0.69-0.45 0.2-0.03 0.49-0.08 0.64-0.11 0.15-0.03 0.47-0.24 0.7-0.46 0.34-0.35 0.52-0.43 1.05-0.54 0.54-0.11 0.72-0.2 1.1-0.56 0.36-0.34 0.53-0.43 0.79-0.43q0.68 0 1.12-0.49c0.14-0.15 0.41-0.35 0.6-0.45 0.18-0.09 0.4-0.26 0.49-0.36 0.35-0.48 0.57-0.63 1.09-0.75 0.42-0.1 0.64-0.23 0.92-0.51 0.19-0.21 0.4-0.38 0.47-0.38 0.13 0 0.65-0.43 0.65-0.53 0-0.1 0.47-0.55 0.57-0.55 0.1 0 0.51-0.42 0.51-0.53 0-0.11 0.38-0.43 0.57-0.49 0.09-0.02 0.32-0.07 0.52-0.1 0.35-0.06 0.77-0.34 0.77-0.51 0-0.12 0.46-0.53 0.58-0.53 0.05 0 0.23-0.19 0.39-0.42 0.16-0.23 0.47-0.54 0.69-0.68 0.22-0.15 0.4-0.31 0.4-0.37 0-0.13 0.4-0.58 0.53-0.58 0.06 0 0.19-0.12 0.3-0.27q0.33-0.44 0.85-0.86 0.24-0.19 0.38-0.78c0.12-0.52 0.44-1.03 0.64-1.03 0.1 0 0.53-0.53 0.53-0.65 0-0.07 0.17-0.28 0.37-0.47 0.34-0.32 0.41-0.47 0.68-1.46 0.02-0.09 0.16-0.25 0.3-0.34 0.38-0.24 0.47-0.33 0.65-0.71 0.1-0.19 0.3-0.45 0.46-0.59q0.48-0.44 0.48-1.12c0-0.26 0.1-0.44 0.43-0.79 0.36-0.39 0.45-0.56 0.56-1.1 0.11-0.54 0.2-0.71 0.54-1.06 0.29-0.29 0.44-0.54 0.48-0.79 0.03-0.21 0.08-0.49 0.11-0.64 0.03-0.14 0.22-0.41 0.43-0.6 0.37-0.32 0.39-0.37 0.39-0.91q0-1.48 0.59-2.12c0.34-0.35 0.36-0.43 0.42-1.18 0.09-1.1 0.23-1.53 0.6-1.88l0.33-0.3 0.07-2.2c0.09-2.81 0.09-10.5 0-13.19l-0.07-2.07-0.32-0.3c-0.38-0.36-0.53-0.83-0.61-1.9-0.05-0.75-0.08-0.83-0.38-1.12-0.4-0.39-0.54-0.82-0.6-1.92-0.05-0.84-0.07-0.87-0.38-1.11-0.36-0.27-0.49-0.56-0.58-1.24-0.04-0.26-0.13-0.52-0.21-0.59-0.61-0.5-0.73-0.74-0.88-1.67q-0.06-0.37-0.34-0.56c-0.32-0.23-0.58-0.7-0.58-1.04 0-0.35-0.25-0.89-0.46-1-0.1-0.05-0.25-0.22-0.32-0.37-0.23-0.47-0.59-0.92-0.73-0.92-0.26 0-0.38-0.25-0.62-1.27-0.03-0.14-0.2-0.37-0.39-0.53-0.18-0.16-0.4-0.43-0.48-0.61-0.08-0.18-0.34-0.48-0.57-0.66-0.34-0.28-0.44-0.44-0.55-0.91-0.13-0.56-0.38-0.87-1.69-2.07-0.06-0.06-0.6-0.61-1.15-1.17-0.12-0.11-0.35-0.35-0.52-0.53-0.17-0.18-0.41-0.4-0.53-0.47-0.12-0.08-0.22-0.2-0.22-0.26 0-0.24-0.75-0.62-1.23-0.63-0.1 0-0.32-0.16-0.49-0.35-0.16-0.2-0.38-0.43-0.48-0.52-0.11-0.09-0.4-0.36-0.64-0.61-0.24-0.25-0.58-0.52-0.74-0.61-0.17-0.08-0.44-0.31-0.6-0.5-0.17-0.19-0.33-0.35-0.36-0.35-0.11 0-0.55-0.42-0.55-0.52 0-0.2-0.44-0.45-0.87-0.51-0.6-0.08-0.89-0.22-1.22-0.6-0.22-0.25-0.41-0.33-0.93-0.44-0.55-0.11-0.71-0.19-1.03-0.51-0.29-0.31-0.47-0.4-0.85-0.46q-0.97-0.16-1.31-0.66c-0.15-0.22-0.32-0.3-0.96-0.45-0.66-0.14-0.8-0.22-1.01-0.49-0.24-0.31-0.29-0.33-1.08-0.38-1.09-0.08-1.57-0.24-1.94-0.63-0.26-0.27-0.38-0.32-0.75-0.32-1.08 0-1.96-0.28-2.41-0.76l-0.29-0.32-2.21-0.05c-4.29-0.1-10.24-0.13-10.67-0.05zm5.06 4.99c0.12 0.11 0.24 0.28 0.27 0.38 0.03 0.09 0.25 0.3 0.5 0.45 0.24 0.16 0.44 0.34 0.44 0.4 0 0.16 0.56 0.74 0.72 0.74 0.07 0 0.27 0.21 0.45 0.47 0.18 0.26 0.44 0.52 0.59 0.59 0.31 0.14 0.39 0.35 0.39 1.04 0 0.52 0.03 0.57 0.66 1.01 0.18 0.13 0.32 0.29 0.32 0.36 0 0.16 0.5 0.6 0.77 0.69 0.11 0.03 0.22 0.16 0.25 0.3 0.04 0.14 0.28 0.39 0.55 0.59 0.27 0.19 0.49 0.39 0.49 0.44 0 0.14 0.41 0.58 0.55 0.58 0.26 0 0.53 0.55 0.53 1.1 0 0.56 0.14 0.78 0.66 1.05 0.12 0.06 0.22 0.16 0.22 0.22 0 0.16 0.59 0.76 0.74 0.76 0.07 0 0.21 0.16 0.32 0.34 0.11 0.19 0.38 0.46 0.6 0.6 0.22 0.15 0.4 0.32 0.4 0.39 0 0.14 0.63 0.73 0.78 0.73 0.06 0 0.2 0.21 0.32 0.47 0.12 0.25 0.32 0.57 0.44 0.71 0.12 0.13 0.22 0.27 0.22 0.3 0 0.37 0.87 0.48 3.62 0.48 2.82 0 3.19 0.05 3.53 0.48 0.35 0.44 0.41 0.45 2.93 0.5 2.39 0.06 3.14 0.17 3.14 0.5 0 0.36 0.69 0.48 2.81 0.48 2.89 0 3.35 0.15 3.64 1.22 0.13 0.48-0.09 1.03-0.4 1.03-0.32 0-0.56 0.43-0.56 1.02 0 0.57-0.17 0.94-0.42 0.94-0.4 0-0.56 0.42-0.56 1.47 0 1.25-0.04 1.41-0.37 1.58-0.59 0.3-0.71 0.52-0.71 1.25 0 0.75-0.14 1.19-0.53 1.63-0.35 0.39-0.45 0.65-0.45 1.21 0 0.65-0.07 0.85-0.37 1.01-0.46 0.23-0.6 0.48-0.6 1.04-0.01 0.7-0.18 1.34-0.43 1.62-0.12 0.13-0.29 0.32-0.39 0.43q-0.18 0.2-0.26 1.02c-0.06 0.61-0.12 0.84-0.25 0.92-0.1 0.05-0.3 0.2-0.45 0.33l-0.28 0.23v1.6 1.6l0.25 0.2c0.15 0.11 0.32 0.2 0.38 0.2 0.19 0 0.35 0.46 0.35 0.98 0 0.6 0.11 0.91 0.52 1.39 0.4 0.46 0.55 0.95 0.55 1.73 0 0.58 0.02 0.61 0.37 0.87 0.55 0.4 0.61 0.51 0.61 1.07 0 0.58 0.13 0.97 0.39 1.26 0.43 0.47 0.59 0.92 0.59 1.66 0 0.78 0.05 0.85 0.78 1.34 0.21 0.13 0.24 0.25 0.29 0.94 0.06 0.74 0.17 1.03 0.51 1.3 0.29 0.23 0.48 0.85 0.48 1.53 0 0.77 0.18 1.11 0.69 1.27 0.6 0.19 0.32 1.5-0.4 1.89-0.38 0.2-0.53 0.21-2.64 0.21-2.38 0-2.77 0.07-3.07 0.5-0.33 0.47-0.97 0.58-3.31 0.58-2.21 0-2.36 0.02-2.77 0.41-0.53 0.5-0.61 0.52-3.75 0.57-3.37 0.06-2.88-0.08-4.15 1.18-0.47 0.47-0.8 0.89-0.92 1.19-0.11 0.27-0.29 0.51-0.44 0.59-0.34 0.17-0.66 0.49-0.74 0.74-0.03 0.12-0.15 0.24-0.26 0.27-0.25 0.08-0.77 0.62-0.77 0.79 0 0.07-0.08 0.15-0.17 0.18q-0.72 0.22-0.71 1.08c0 0.56-0.2 1.03-0.45 1.03-0.06 0-0.26 0.17-0.42 0.37-0.17 0.2-0.37 0.43-0.44 0.5-0.08 0.07-0.3 0.29-0.49 0.48-0.42 0.43-0.64 0.65-1.07 1.07-0.19 0.19-0.41 0.41-0.48 0.49-0.07 0.07-0.27 0.25-0.45 0.39-0.3 0.23-0.32 0.29-0.32 0.83 0 0.62-0.03 0.68-0.72 1.21-0.14 0.11-0.3 0.32-0.36 0.46-0.07 0.15-0.21 0.3-0.33 0.33-0.28 0.09-0.61 0.4-0.74 0.72-0.06 0.14-0.24 0.32-0.4 0.39-0.16 0.07-0.43 0.32-0.59 0.56l-0.3 0.43h-0.7q-1.04-0.01-1.05-0.36c0-0.15-0.6-0.71-0.76-0.71-0.07 0-0.18-0.13-0.25-0.27-0.15-0.35-0.44-0.63-0.78-0.79-0.15-0.06-0.27-0.17-0.27-0.24 0-0.14-0.58-0.76-0.72-0.76-0.21 0-0.35-0.38-0.35-0.94-0.01-0.58-0.26-1.02-0.59-1.02-0.04 0-0.24-0.22-0.43-0.49-0.2-0.28-0.46-0.51-0.6-0.55-0.13-0.03-0.27-0.14-0.3-0.25-0.09-0.27-0.53-0.77-0.68-0.77-0.08 0-0.24-0.14-0.36-0.32-0.12-0.17-0.32-0.4-0.45-0.51-0.71-0.6-0.71-0.6-0.71-1.19 0-0.58-0.32-1.11-0.65-1.11-0.07 0-0.2-0.14-0.28-0.3-0.09-0.16-0.34-0.43-0.56-0.59-0.22-0.16-0.49-0.43-0.59-0.59-0.09-0.16-0.33-0.39-0.52-0.5-0.19-0.11-0.34-0.24-0.34-0.28 0-0.15-0.6-0.78-0.73-0.78-0.15 0-0.45-0.42-0.45-0.62 0-0.12-0.93-1.2-1.08-1.26-0.02-0.01-1.14-0.04-2.49-0.07-2.58-0.07-2.73-0.09-3.24-0.58-0.42-0.39-0.55-0.41-3.22-0.41-2.8 0-3.32-0.07-3.76-0.48-0.64-0.59-0.66-0.6-3.12-0.6-2.87 0-3.06-0.07-3.41-1.33-0.09-0.32 0.06-0.59 0.51-0.91 0.4-0.3 0.42-0.32 0.42-0.85 0-0.83 0.17-1.36 0.6-1.85 0.36-0.41 0.4-0.5 0.47-1.24 0.04-0.43 0.12-0.82 0.16-0.86 0.05-0.04 0.25-0.19 0.45-0.33 0.35-0.26 0.35-0.28 0.39-1.03 0.04-0.79 0.21-1.26 0.6-1.69 0.34-0.38 0.46-0.74 0.46-1.37 0-0.54 0.02-0.59 0.32-0.8 0.57-0.4 0.61-0.47 0.67-1.3 0.07-0.82 0.2-1.2 0.6-1.62 0.34-0.37 0.47-0.74 0.47-1.34 0-0.58 0.12-0.92 0.34-0.92 0.08 0 0.25-0.11 0.39-0.25 0.56-0.56 0.31-3.76-0.3-3.76q-0.43-0.01-0.43-0.89c0-0.61-0.29-1.4-0.54-1.5-0.26-0.1-0.46-0.68-0.52-1.5-0.04-0.78-0.06-0.83-0.35-1.06-0.65-0.5-0.65-0.51-0.65-1.12 0-0.62-0.16-1.02-0.6-1.5-0.29-0.31-0.48-0.98-0.48-1.68 0-0.55-0.13-0.74-0.73-1.09-0.13-0.08-0.19-0.29-0.24-0.91-0.05-0.58-0.13-0.86-0.26-1.02-0.1-0.11-0.27-0.3-0.38-0.42-0.26-0.29-0.44-0.99-0.44-1.67 0-0.57-0.11-0.75-0.61-1.01-0.63-0.33-0.33-1.53 0.48-1.93 0.33-0.17 0.65-0.19 2.71-0.22 2.42-0.03 2.68-0.07 2.93-0.48 0.27-0.42 0.59-0.47 3.66-0.52 3.19-0.05 2.95-0.01 3.55-0.56 0.38-0.36 0.79-0.42 3.01-0.42 2.69 0 3.04-0.14 3.7-1.47 0.12-0.24 0.32-0.49 0.44-0.55 0.31-0.15 0.6-0.44 0.6-0.59 0-0.07 0.2-0.26 0.44-0.42 0.24-0.17 0.5-0.42 0.58-0.56 0.07-0.14 0.3-0.38 0.51-0.52 0.21-0.14 0.44-0.38 0.51-0.52 0.07-0.15 0.22-0.32 0.34-0.38 0.51-0.26 0.66-0.49 0.66-1.01 0-0.7 0.08-0.91 0.39-1.05 0.15-0.06 0.4-0.31 0.55-0.54 0.16-0.23 0.36-0.45 0.46-0.48 0.24-0.08 0.65-0.5 0.76-0.79 0.05-0.12 0.15-0.23 0.22-0.23 0.17 0 0.72-0.51 0.8-0.75 0.03-0.1 0.25-0.31 0.49-0.47l0.44-0.3v-0.59c0-0.63 0.08-0.79 0.53-1.06 0.15-0.1 0.36-0.32 0.47-0.5 0.1-0.19 0.34-0.42 0.52-0.53 0.19-0.11 0.45-0.37 0.59-0.59 0.13-0.22 0.31-0.4 0.38-0.4 0.15 0 0.65-0.51 0.65-0.66 0-0.41 1.44-0.59 1.83-0.23zm-6.83 13.33c-0.1 0.11-0.19 0.23-0.19 0.28 0 0.38-0.36 0.5-1.5 0.5-1.15 0-1.54 0.14-1.54 0.52 0 0.3-0.5 0.56-1.07 0.56-0.63 0-0.63 0-1.15 0.66-0.23 0.3-0.28 0.32-0.87 0.32-0.56 0-0.64 0.03-0.8 0.25-0.29 0.42-0.55 0.68-0.84 0.82-0.14 0.08-0.29 0.23-0.33 0.34-0.08 0.29-0.4 0.61-0.73 0.75-0.15 0.06-0.3 0.19-0.33 0.29-0.06 0.19-0.38 0.59-0.48 0.59-0.1 0-0.55 0.42-0.55 0.51 0 0.11-0.46 0.57-0.57 0.57-0.09 0-0.51 0.45-0.51 0.55 0 0.09-0.39 0.41-0.59 0.47-0.09 0.04-0.22 0.19-0.29 0.34-0.14 0.33-0.46 0.65-0.74 0.73-0.12 0.04-0.27 0.18-0.35 0.33-0.14 0.28-0.4 0.55-0.81 0.84-0.23 0.16-0.26 0.24-0.26 0.8 0 0.58-0.02 0.64-0.31 0.87-0.67 0.52-0.67 0.52-0.67 1.14 0 0.58-0.26 1.08-0.56 1.08-0.38 0-0.51 0.39-0.51 1.53 0 1.15-0.12 1.5-0.51 1.5-0.47 0-0.47-0.01-0.47 6.21 0 6.29-0.01 6.24 0.52 6.24 0.35 0 0.46 0.33 0.46 1.45 0 1.21-0.03 1.16 0.77 1.76 0.28 0.21 0.3 0.27 0.3 0.84 0 0.58 0.21 1.04 0.48 1.04 0.28 0 0.5 0.43 0.5 0.97 0 0.61 0.06 0.72 0.62 1.12 0.2 0.15 0.36 0.33 0.36 0.39 0 0.06 0.12 0.21 0.26 0.31 0.33 0.25 0.81 0.74 1.07 1.07 0.1 0.14 0.25 0.25 0.31 0.25 0.07 0.01 0.26 0.19 0.42 0.41 0.16 0.23 0.43 0.49 0.59 0.59 0.16 0.1 0.38 0.32 0.48 0.48 0.1 0.17 0.32 0.39 0.49 0.5 0.17 0.1 0.4 0.33 0.51 0.52 0.11 0.18 0.35 0.42 0.53 0.53 0.18 0.11 0.44 0.37 0.58 0.59 0.14 0.22 0.31 0.4 0.39 0.4 0.12 0 0.23 0.12 0.81 0.86 0.15 0.19 0.27 0.22 0.81 0.22 0.63 0 0.65 0.01 0.88 0.36 0.4 0.59 0.46 0.62 1.12 0.62 0.61 0 1.04 0.23 1.04 0.56 0 0.3 0.43 0.42 1.53 0.42h1.1l0.25 0.3c0.14 0.17 0.25 0.34 0.25 0.39 0 0.38 0.07 0.39 6.09 0.39h5.78l0.21-0.24c0.12-0.13 0.32-0.37 0.45-0.54l0.23-0.3h1.11c1.22 0 1.13 0.04 1.68-0.66 0.22-0.29 0.29-0.32 0.77-0.32 0.69 0 0.78-0.05 1.13-0.55l0.3-0.43h0.62c0.62 0 1.13-0.28 1.13-0.63 0-0.06 0.2-0.24 0.44-0.39 0.24-0.15 0.46-0.36 0.49-0.45 0.08-0.26 0.37-0.55 0.6-0.62 0.11-0.04 0.35-0.28 0.53-0.54 0.17-0.26 0.43-0.52 0.57-0.58 0.15-0.07 0.34-0.25 0.43-0.42 0.09-0.16 0.3-0.37 0.47-0.46 0.16-0.1 0.35-0.29 0.41-0.43 0.06-0.14 0.33-0.4 0.58-0.58 0.26-0.17 0.5-0.41 0.54-0.52 0.07-0.24 0.37-0.52 0.62-0.6 0.1-0.03 0.3-0.25 0.45-0.49 0.15-0.24 0.33-0.44 0.39-0.44 0.35 0 0.63-0.51 0.63-1.14v-0.62l0.43-0.29c0.51-0.35 0.55-0.44 0.55-1.13 0-0.48 0.03-0.55 0.32-0.78 0.7-0.54 0.66-0.45 0.66-1.67v-1.12l0.3-0.22c0.17-0.13 0.41-0.33 0.54-0.45l0.24-0.21v-5.78c0-6.02 0-6.09-0.39-6.09-0.05 0-0.22-0.11-0.39-0.25l-0.3-0.25v-1.1c0-1.11-0.12-1.53-0.43-1.53-0.32 0-0.55-0.45-0.55-1.05 0-0.65-0.03-0.71-0.62-1.11-0.35-0.24-0.36-0.26-0.36-0.88 0-0.54-0.03-0.66-0.22-0.81-0.74-0.58-0.86-0.69-0.86-0.81 0-0.08-0.17-0.25-0.39-0.39-0.22-0.14-0.49-0.4-0.6-0.58-0.11-0.19-0.34-0.43-0.53-0.53-0.18-0.11-0.42-0.34-0.52-0.51-0.1-0.17-0.33-0.39-0.49-0.49-0.17-0.1-0.39-0.32-0.49-0.48-0.09-0.16-0.36-0.43-0.58-0.59-0.23-0.16-0.41-0.35-0.41-0.42 0-0.07-0.12-0.21-0.26-0.32-0.33-0.25-0.81-0.73-1.06-1.06-0.11-0.14-0.25-0.26-0.32-0.26-0.06 0-0.24-0.16-0.38-0.37-0.41-0.55-0.52-0.61-1.13-0.61-0.54 0-0.97-0.22-0.97-0.5 0-0.27-0.45-0.48-1.04-0.48-0.56 0-0.62-0.02-0.84-0.3-0.6-0.8-0.54-0.78-1.77-0.78-1.14 0-1.44-0.1-1.44-0.47 0-0.06-0.1-0.2-0.22-0.31-0.33-0.31-11.72-0.31-12.03 0zm11.74 0.56c0.08 0.56 0.43 0.71 1.76 0.74l1.23 0.02 0.08 0.3c0.13 0.51 0.37 0.64 1.25 0.71 0.56 0.03 0.79 0.09 0.79 0.18 0 0.55 0.3 0.74 1.26 0.82 0.73 0.05 0.73 0.05 0.84 0.39 0.1 0.32 0.19 0.39 0.84 0.69 0.08 0.04 0.16 0.17 0.18 0.3 0.05 0.32 0.28 0.56 0.58 0.6 0.14 0.02 0.28 0.1 0.32 0.18 0.3 0.64 0.37 0.74 0.69 0.84 0.23 0.08 0.35 0.19 0.4 0.38 0.1 0.36 0.37 0.64 0.62 0.64 0.27 0 0.45 0.17 0.45 0.44 0 0.26 0.27 0.52 0.63 0.62 0.19 0.05 0.3 0.17 0.38 0.41 0.1 0.31 0.2 0.39 0.85 0.68 0.08 0.04 0.16 0.18 0.17 0.32 0.04 0.3 0.28 0.54 0.61 0.58 0.23 0.03 0.25 0.08 0.31 0.72 0.08 1 0.25 1.32 0.7 1.32 0.3 0 0.36 0.15 0.36 0.93q0 1.07 0.67 1.15l0.26 0.03 0.06 1.17c0.07 1.44 0.2 1.82 0.66 1.82 0.41 0 0.41 0.03 0.39 5.88l-0.03 5.62-0.32 0.08c-0.54 0.14-0.65 0.44-0.69 1.81-0.03 0.93-0.07 1.2-0.17 1.2-0.56 0-0.75 0.3-0.82 1.26-0.06 0.73-0.06 0.73-0.4 0.84-0.44 0.14-0.62 0.5-0.67 1.35-0.04 0.63-0.05 0.65-0.33 0.71-0.36 0.07-0.57 0.27-0.57 0.55 0 0.26-0.22 0.49-0.47 0.49-0.23 0-0.6 0.43-0.6 0.69q-0.01 0.17-0.37 0.29c-0.43 0.15-0.61 0.31-0.62 0.55 0 0.26-0.11 0.39-0.4 0.46q-0.51 0.13-0.64 0.63c-0.07 0.3-0.19 0.41-0.46 0.41-0.24 0-0.4 0.19-0.54 0.62q-0.13 0.36-0.3 0.36c-0.26 0-0.69 0.38-0.69 0.6 0 0.26-0.23 0.48-0.49 0.48-0.28 0-0.48 0.21-0.55 0.57-0.06 0.28-0.08 0.29-0.71 0.33-0.85 0.05-1.21 0.23-1.35 0.67-0.11 0.34-0.11 0.34-0.83 0.4-0.97 0.07-1.26 0.26-1.26 0.82 0 0.1-0.28 0.14-1.21 0.16-1.36 0.04-1.67 0.16-1.81 0.7l-0.08 0.32-5.62 0.02c-5.85 0.03-5.88 0.03-5.88-0.38 0-0.46-0.38-0.6-1.81-0.66l-1.18-0.06-0.03-0.27q-0.08-0.66-1.15-0.66c-0.77 0-0.93-0.06-0.93-0.36 0-0.45-0.32-0.62-1.32-0.71-0.64-0.05-0.69-0.07-0.72-0.3-0.04-0.33-0.27-0.57-0.58-0.61-0.13-0.02-0.28-0.09-0.31-0.18-0.3-0.64-0.38-0.74-0.69-0.84-0.24-0.08-0.36-0.19-0.41-0.38-0.09-0.36-0.36-0.64-0.61-0.64-0.27 0-0.45-0.17-0.45-0.44 0-0.26-0.28-0.52-0.64-0.62-0.19-0.05-0.3-0.17-0.38-0.41-0.1-0.31-0.19-0.39-0.84-0.68-0.08-0.04-0.16-0.18-0.18-0.32-0.03-0.3-0.28-0.53-0.6-0.58-0.12-0.02-0.26-0.1-0.3-0.18-0.3-0.65-0.37-0.74-0.69-0.85-0.34-0.11-0.34-0.11-0.39-0.83-0.08-0.96-0.27-1.26-0.82-1.26-0.09 0-0.14-0.23-0.18-0.79-0.06-0.88-0.2-1.12-0.7-1.25l-0.31-0.08-0.02-1.23c-0.03-1.33-0.18-1.68-0.74-1.76l-0.21-0.03-0.03-5.54c-0.03-6.03-0.03-5.97 0.31-5.97 0.5 0 0.65-0.39 0.65-1.72 0-1.27 0.02-1.32 0.48-1.32 0.34 0 0.5-0.34 0.57-1.19 0.07-0.8 0.08-0.82 0.34-0.85q0.67-0.07 0.66-1.19c0-0.7 0.08-0.84 0.48-0.9 0.24-0.03 0.29-0.09 0.52-0.61 0.08-0.18 0.25-0.33 0.42-0.39q0.55-0.17 0.54-0.54c0-0.22 0.11-0.31 0.53-0.45 0.29-0.1 0.34-0.16 0.57-0.69q0.13-0.29 0.37-0.33c0.33-0.04 0.59-0.29 0.59-0.55 0-0.26 0.13-0.38 0.54-0.51 0.26-0.09 0.36-0.2 0.64-0.81 0.03-0.08 0.17-0.17 0.29-0.18 0.29-0.05 0.43-0.19 0.55-0.55 0.1-0.29 0.16-0.34 0.67-0.57q0.3-0.13 0.33-0.37c0.06-0.42 0.19-0.49 0.9-0.49q1.13 0.01 1.19-0.66c0.03-0.26 0.05-0.27 0.85-0.34 0.86-0.07 1.19-0.23 1.19-0.57 0-0.47 0.06-0.49 1.32-0.49 1.33 0 1.72-0.14 1.72-0.63 0-0.34-0.18-0.33 5.88-0.31l5.63 0.01z"/>
	</g>
</svg>