<?xml version="1.0" encoding="UTF-8" standalone="no"?>
<svg
   width="128"
   height="128"
   viewBox="0 0 33.867 33.867"
   version="1.1"
   id="svg9"
   sodipodi:docname="map-toilet-05.svg"
   inkscape:version="1.4 (e7c3feb1, 2024-10-09)"
   xmlns:inkscape="http://www.inkscape.org/namespaces/inkscape"
   xmlns:sodipodi="http://sodipodi.sourceforge.net/DTD/sodipodi-0.dtd"
   xmlns="http://www.w3.org/2000/svg"
   xmlns:svg="http://www.w3.org/2000/svg">
  <sodipodi:namedview
     id="namedview9"
     pagecolor="#ffffff"
     bordercolor="#000000"
     borderopacity="0.25"
     inkscape:showpageshadow="2"
     inkscape:pageopacity="0.0"
     inkscape:pagecheckerboard="0"
     inkscape:deskcolor="#d1d1d1"
     inkscape:zoom="3.0507812"
     inkscape:cx="43.267606"
     inkscape:cy="49.659412"
     inkscape:current-layer="svg9"
     inkscape:window-width="1920"
     inkscape:window-height="1022"
     inkscape:window-x="0"
     inkscape:window-y="128"
     inkscape:window-maximized="1" />
  <defs
     id="defs4" />
  <path
     style="baseline-shift:baseline;display:inline;overflow:visible;vector-effect:none;fill:#d89d1e;stroke-width:1.1856;enable-background:accumulate;stop-color:#000000;fill-opacity:1"
     d="M 9.448399,5.6449396 H 24.418985 V 19.106612 H 9.448399 Z"
     id="path20" />
  <path
     id="path21"
     style="baseline-shift:baseline;display:inline;overflow:visible;vector-effect:none;fill:#2d2d2d;stroke-width:1.34101;enable-background:accumulate;stop-color:#000000"
     d="M 8.467008,4.7625469 V 19.989158 H 25.399991 V 4.7625469 Z M 10.05349,7.6187314 H 23.813509 V 17.13349 H 10.05349 Z" />
  <path
     style="baseline-shift:baseline;display:inline;overflow:visible;vector-effect:none;fill:#d2ca95;stroke-width:0.839115;enable-background:accumulate;stop-color:#000000;fill-opacity:1"
     d="m 24.170803,21.380012 c 0,4.414582 -3.213809,10.208669 -7.237364,10.208669 -4.023555,0 -7.237364,-5.794087 -7.237364,-10.208669 0,-4.415421 3.239822,-7.986693 7.237364,-7.986693 3.996703,0 7.237364,3.571272 7.237364,7.986693 z"
     id="path17" />
  <path
     id="path18"
     style="baseline-shift:baseline;display:inline;overflow:visible;vector-effect:none;fill:#d89d1e;enable-background:accumulate;stop-color:#000000;fill-opacity:1"
     d="m 16.933261,12.496985 c -4.391403,0 -7.950321,3.923004 -7.950321,8.773459 0,4.849532 3.530342,11.214764 7.950321,11.214764 4.419979,0 7.950799,-6.365232 7.950799,-11.214764 0,-4.850455 -3.560317,-8.773459 -7.950799,-8.773459 z m 9.8e-4,3.384889 c 2.241091,0 4.39099,2.094938 4.39099,5.285518 0,1.60317 -0.7363,4.071334 -1.826264,5.740274 -1.089964,1.66895 -2.199365,2.191103 -2.564726,2.191103 -0.365361,0 -1.476313,-0.522153 -2.566277,-2.191103 -1.089963,-1.66894 -1.826263,-4.137104 -1.826263,-5.740274 0,-3.19111 2.149919,-5.285518 4.39254,-5.285518 z"
     sodipodi:nodetypes="ssssssssssss" />
  <path
     d="m 18.4685,20.637 c 0,1.192 -0.687,2.766 -1.535,2.766 -0.847,0 -1.535,-1.574 -1.535,-2.766 0,-1.191 0.688,-1.55 1.535,-1.55 0.848,0 1.535,0.359 1.535,1.55 z"
     fill="#2d2d2d"
     id="path8"
     style="fill:#5e552a;fill-opacity:1" />
  <path
     style="baseline-shift:baseline;display:inline;overflow:visible;vector-effect:none;fill:#d89d1e;enable-background:accumulate;stop-color:#000000;fill-opacity:1"
     d="m 16.933378,1.1370279 c 4.059851,0 11.242936,1.8732325 11.242936,4.6839665 v 2.8107339 c 0,0.9375016 -0.835695,1.8741177 -1.873233,1.8741177 H 7.56456 C 6.528793,10.441221 5.690442,9.5692299 5.690442,8.6317283 V 5.8209944 c 0,-2.810734 7.183085,-4.6839665 11.242936,-4.6839665 z"
     id="path13"
     sodipodi:nodetypes="sssscsss" />
  <path
     id="path14"
     style="baseline-shift:baseline;display:inline;overflow:visible;vector-effect:none;fill:#2d2d2d;enable-background:accumulate;stop-color:#000000"
     d="m 16.9335,0.53014241 c -4.586,0 -12.700125,2.11568519 -12.700125,5.29068519 v 3.1750313 c 0,1.0590001 0.947205,2.0442041 2.117205,2.1172041 h 21.166875 c 1.172,0 2.11617,-1.058204 2.11617,-2.1172041 V 5.8208276 c 0,-3.175 -8.114125,-5.29068519 -12.700125,-5.29068519 z m 5.17e-4,1.58699889 c 2.04884,0 5.139724,0.5100977 7.537082,1.3632377 1.198679,0.42657 2.227333,0.9479009 2.849466,1.4299009 0.622134,0.48199 0.724511,0.792451 0.724511,0.910031 v 3.1760647 c 0,0.1156 -0.310495,0.5291719 -0.527105,0.5291719 H 6.445665 C 6.111218,9.4996475 5.820891,9.1082256 5.820891,8.9963756 V 5.8203109 c 0,-0.11758 0.102378,-0.428041 0.724511,-0.910031 0.622133,-0.482 1.650787,-1.0033309 2.849466,-1.4299009 2.397359,-0.85314 5.490309,-1.3632377 7.539149,-1.3632377 z" />
  <path
     id="path15"
     style="baseline-shift:baseline;display:inline;overflow:visible;opacity:1;vector-effect:none;fill:#2d2d2d;enable-background:accumulate;stop-color:#000000;stop-opacity:1"
     d="m 16.932983,11.64892 c -4.763,0 -8.6238477,4.25582 -8.6238477,9.51682 0,5.262 3.8298477,12.16734 8.6238477,12.16734 4.795,0 8.624881,-6.90534 8.624881,-12.16734 0,-5.261 -3.860881,-9.51682 -8.624881,-9.51682 z m 0,1.47951 c 3.882545,0 7.144337,3.4999 7.144337,8.03679 0,2.27192 -0.879622,5.11416 -2.273269,7.24821 -1.393646,2.13405 -3.183988,3.43962 -4.871068,3.43962 -1.686431,0 -3.477521,-1.30555 -4.871069,-3.43962 -1.393548,-2.13407 -2.2737847,-4.97629 -2.2737847,-7.24821 0,-4.53689 3.2634947,-8.03679 7.1448537,-8.03679 z" />
</svg>
