<?xml version="1.0" encoding="UTF-8" standalone="no"?>
<svg
   width="160"
   height="160"
   viewBox="0 0 42.333 42.333"
   version="1.1"
   id="svg51"
   sodipodi:docname="map-airdrop-05.svg"
   inkscape:version="1.4 (e7c3feb1, 2024-10-09)"
   xmlns:inkscape="http://www.inkscape.org/namespaces/inkscape"
   xmlns:sodipodi="http://sodipodi.sourceforge.net/DTD/sodipodi-0.dtd"
   xmlns="http://www.w3.org/2000/svg"
   xmlns:svg="http://www.w3.org/2000/svg">
  <sodipodi:namedview
     id="namedview51"
     pagecolor="#ffffff"
     bordercolor="#000000"
     borderopacity="0.25"
     inkscape:showpageshadow="2"
     inkscape:pageopacity="0.0"
     inkscape:pagecheckerboard="0"
     inkscape:deskcolor="#d1d1d1"
     inkscape:zoom="2.1884096"
     inkscape:cx="36.099275"
     inkscape:cy="92.761428"
     inkscape:window-width="1104"
     inkscape:window-height="245"
     inkscape:window-x="0"
     inkscape:window-y="128"
     inkscape:window-maximized="0"
     inkscape:current-layer="svg51" />
  <defs
     id="defs13">
    <clipPath
       id="l">
      <path
         d="M0 0l10.054 10.054H32.28L42.333 0z"
         fill="#595959"
         stroke-width=".286"
         id="path12" />
    </clipPath>
    <clipPath
       id="m">
      <path
         fill="#2b2b2b"
         stroke-width="3.757"
         stroke-linecap="round"
         stroke-miterlimit="10"
         d="M17.462 3.704h7.408v2.117h-7.408z"
         id="path13" />
    </clipPath>
    <clipPath
       id="a-0">
      <path
         d="M 0,258.9 H 38.1 V 297 H 0 Z"
         id="path2-3"
         inkscape:connector-curvature="0"
         style="fill:#4d2600;stroke-width:0.529" />
    </clipPath>
    <clipPath
       id="b-2">
      <path
         d="m 43.392,296.47 h -12.7 v -38.1 h 12.7 z"
         id="path8-6"
         inkscape:connector-curvature="0"
         style="fill:#4d2600;stroke-width:6.024" />
    </clipPath>
    <clipPath
       id="c-9">
      <path
         d="m -4.763,273.187 v -5.82 h 28.575 v 5.82 z"
         id="path5-4"
         inkscape:connector-curvature="0"
         style="fill:#4d2600;stroke-width:3.532" />
    </clipPath>
    <clipPath
       id="d-1">
      <path
         d="m -1.587,297 h -5.821 v -38.1 h 5.82 z"
         id="path11-3"
         inkscape:connector-curvature="0"
         style="fill:#4d2600;stroke-width:4.078" />
    </clipPath>
    <clipPath
       id="clipPath1">
      <path
         d="m -1.587,297 h -5.821 v -38.1 h 5.82 z"
         id="path1-7"
         inkscape:connector-curvature="0"
         style="fill:#4d2600;stroke-width:4.078" />
    </clipPath>
    <clipPath
       clipPathUnits="userSpaceOnUse"
       id="clipPath929">
      <path
         sodipodi:nodetypes="cccccc"
         clip-path="none"
         d="M 39.158333,6.3499997 V -1.0583336 H 31.75 L 30.691667,-1.8e-7 38.1,7.4083331 Z"
         id="path931"
         inkscape:connector-curvature="0"
         style="fill:#272727;fill-opacity:1;stroke:none;stroke-width:1.968;stroke-opacity:1" />
    </clipPath>
    <clipPath
       clipPathUnits="userSpaceOnUse"
       id="clipPath1-9">
      <path
         d="m -45.533999,209.35 c 11.289005,0 23.685409,7.15648 29.329999,16.933 5.644585,9.77651 5.644587,24.09049 0,33.867 -5.64459,9.77652 -18.040994,16.933 -29.33,16.933 -11.289006,0 -23.685412,-7.15648 -29.33,-16.933 -5.644584,-9.77651 -5.644585,-24.09049 10e-7,-33.867 5.644591,-9.77652 18.040992,-16.933 29.33,-16.933 z"
         id="path3-5"
         inkscape:connector-curvature="0"
         style="fill-opacity:0.506;stroke:#ffffff;stroke-width:2.117;stroke-opacity:0.502"
         sodipodi:nodetypes="sssssss" />
    </clipPath>
  </defs>
  <path
     clip-path="url(#a-0)"
     d="M 0,258.9 H 38.1 V 297 H 0 Z"
     transform="translate(2.117333,-256.78266)"
     id="path19-5"
     inkscape:connector-curvature="0"
     style="fill:#4d2600;stroke:#191919;stroke-width:3.969" />
  <path
     transform="rotate(90,163.581,135.00734)"
     d="m 43.392,296.47 h -12.7 v -38.1 h 12.7 z"
     clip-path="url(#b-2)"
     id="path21-3"
     style="fill:#441616;fill-opacity:1;stroke:#191919;stroke-width:3.969"
     inkscape:connector-curvature="0" />
  <path
     transform="matrix(-1.33333,0,0,-1,33.867333,307.58434)"
     clip-path="url(#c-9)"
     d="m -4.763,273.187 v -5.82 h 28.575 v 5.82 z"
     id="path23-5"
     inkscape:connector-curvature="0"
     style="fill:#d19200;stroke:#191919;stroke-width:3.437" />
  <path
     transform="rotate(90,128.656,170.46134)"
     d="m -1.587,297 h -5.821 v -38.1 h 5.82 z"
     clip-path="url(#d-1)"
     id="path25-4"
     inkscape:connector-curvature="0"
     style="fill:#763800;stroke:#191919;stroke-width:3.969" />
  <path
     clip-path="url(#d-1)"
     d="m -1.587,297 h -5.821 v -38.1 h 5.82 z"
     transform="translate(9.525333,-256.78266)"
     id="path27-3"
     inkscape:connector-curvature="0"
     style="fill:#763800;stroke:#191919;stroke-width:3.969" />
  <path
     clip-path="url(#b-2)"
     d="m 43.392,296.47 h -12.7 v -38.1 h 12.7 z"
     transform="translate(-3.174667,-256.25266)"
     id="path29-6"
     inkscape:connector-curvature="0"
     style="fill:#763800;stroke:#191919;stroke-width:3.969" />
  <path
     style="fill-opacity:0.502;stroke:#ffffff;stroke-width:4.011"
     inkscape:connector-curvature="0"
     id="path33-4"
     transform="matrix(-0.22166826,-0.12797899,0.12797899,-0.22166826,-23.49019,72.648434)"
     d="m -45.534,209.35 c 11.289008,0 23.68541,7.15648 29.33,16.933 5.644585,9.77651 5.644585,24.09049 0,33.867 -5.64459,9.77652 -18.040992,16.933 -29.33,16.933 -11.289008,0 -23.68541,-7.15648 -29.33,-16.933 -5.644585,-9.77651 -5.644585,-24.09049 0,-33.867 5.64459,-9.77652 18.040992,-16.933 29.33,-16.933 z"
     clip-path="url(#clipPath1-9)"
     sodipodi:nodetypes="sssssss" />
  <path
     style="fill:#2f0f0f;fill-opacity:1;stroke:#191919;stroke-width:3.175;stroke-miterlimit:4;stroke-dasharray:none;stroke-opacity:1"
     inkscape:connector-curvature="0"
     id="path927"
     d="m 39.158334,6.3499998 -1e-6,-7.4083334 H 31.75 L 30.691667,-1.8e-7 38.100001,7.4083331 Z"
     clip-path="url(#clipPath929)"
     sodipodi:nodetypes="cccccc"
     transform="translate(1.588167,2.6464994)" />
  <path
     transform="rotate(90,19.05,20.638166)"
     sodipodi:nodetypes="cccccc"
     clip-path="url(#clipPath929)"
     d="m 39.158334,6.3499998 -1e-6,-7.4083334 H 31.75 L 30.691667,-1.8e-7 38.100001,7.4083331 Z"
     id="path933"
     inkscape:connector-curvature="0"
     style="fill:#2f0f0f;fill-opacity:1;stroke:#191919;stroke-width:3.175;stroke-miterlimit:4;stroke-dasharray:none;stroke-opacity:1" />
  <path
     transform="rotate(180,20.373249,19.844082)"
     sodipodi:nodetypes="cccccc"
     clip-path="url(#clipPath929)"
     d="m 39.158334,6.3499998 -1e-6,-7.4083334 H 31.75 L 30.691667,-1.8e-7 38.100001,7.4083331 Z"
     id="path935"
     inkscape:connector-curvature="0"
     style="fill:#2f0f0f;fill-opacity:1;stroke:#191919;stroke-width:3.175;stroke-miterlimit:4;stroke-dasharray:none;stroke-opacity:1" />
  <path
     style="fill:#2f0f0f;fill-opacity:1;stroke:#191919;stroke-width:3.175;stroke-miterlimit:4;stroke-dasharray:none;stroke-opacity:1"
     inkscape:connector-curvature="0"
     id="path937"
     d="m 39.158334,6.3499998 -1e-6,-7.4083334 H 31.75 L 30.691667,-1.8e-7 38.100001,7.4083331 Z"
     clip-path="url(#clipPath929)"
     sodipodi:nodetypes="cccccc"
     transform="rotate(-90,21.6965,19.05)" />
  <path
     style="fill-opacity:0.502;stroke:#ffffff;stroke-width:4.011"
     inkscape:connector-curvature="0"
     id="path33-5"
     transform="matrix(-0.22167,-0.12798,0.12798,-0.22167,-23.490583,72.648811)"
     d="m -45.534,209.35 c 11.289008,0 23.68541,7.15648 29.33,16.933 5.644585,9.77651 5.644585,24.09049 0,33.867 -5.64459,9.77652 -18.040992,16.933 -29.33,16.933 -11.289008,0 -23.68541,-7.15648 -29.33,-16.933 -5.644585,-9.77651 -5.644585,-24.09049 0,-33.867 5.64459,-9.77652 18.040992,-16.933 29.33,-16.933 z"
     clip-path="url(#clipPath1)"
     sodipodi:nodetypes="sssssss" />
  <path
     style="fill:#fefefe;fill-opacity:1;stroke:none;stroke-width:1.2409;stroke-linecap:square;stroke-linejoin:bevel;stroke-miterlimit:4;stroke-dasharray:none;stroke-opacity:1;paint-order:normal"
     d="m 23.89847,24.562455 a 6.2048682,6.2048682 0 0 0 -4.696089,-6.012571 v 0.942975 a 5.2920317,5.2920317 0 0 1 3.783313,5.069596 5.2920317,5.2920317 0 0 1 -3.783313,5.068122 v 0.942606 a 6.2048682,6.2048682 0 0 0 4.696089,-6.010728 z m -7.713614,-6.010729 a 6.2048682,6.2048682 0 0 0 -4.696084,6.010729 6.2048682,6.2048682 0 0 0 4.696084,6.01257 v -0.942974 a 5.2920317,5.2920317 0 0 1 -3.783314,-5.069596 5.2920317,5.2920317 0 0 1 3.783314,-5.068122 z"
     id="circle856"
     inkscape:connector-curvature="0" />
  <g
     id="g992"
     transform="matrix(0.32405536,0,0,0.32405536,-8.542714,20.493064)"
     style="fill:#fefefe;fill-opacity:1;stroke-width:1.40292">
    <circle
       style="fill:#fefefe;fill-opacity:1;stroke:none;stroke-width:0.480977;stroke-linecap:square;stroke-linejoin:bevel;stroke-miterlimit:4;stroke-dasharray:none;stroke-opacity:1;paint-order:normal"
       id="circle980"
       cx="80.962502"
       cy="-6.664412"
       r="1.0285211" />
    <path
       style="fill:#fefefe;fill-opacity:1;stroke:none;stroke-width:1.48475;stroke-linecap:square;stroke-linejoin:bevel;stroke-miterlimit:4;stroke-dasharray:none;stroke-opacity:1;paint-order:normal"
       d="m 79.904168,-5.2916666 h 2.116666 c 0,0 1.5875,2.1166659 0,6.3499997 h -2.116666 c -1.5875,-4.2333338 0,-6.3499997 0,-6.3499997 z"
       id="path982"
       inkscape:connector-curvature="0"
       sodipodi:nodetypes="ccccc" />
    <path
       sodipodi:nodetypes="ccccccc"
       inkscape:connector-curvature="0"
       id="path984"
       d="m 79.904168,1.5874998 h 2.116666 l 0.529167,0.5291667 v 2.1166667 h -3.175 V 2.1166665 Z"
       style="fill:#fefefe;fill-opacity:1;stroke:none;stroke-width:1.48475;stroke-linecap:square;stroke-linejoin:bevel;stroke-miterlimit:4;stroke-dasharray:none;stroke-opacity:1;paint-order:normal" />
    <path
       style="fill:#fefefe;fill-opacity:1;stroke:none;stroke-width:1.48475;stroke-linecap:square;stroke-linejoin:bevel;stroke-miterlimit:4;stroke-dasharray:none;stroke-opacity:1;paint-order:normal"
       d="m 87.114581,1.0583332 c 1.55096,0.9581384 1.191036,2.0203999 0.727087,2.6458333 -0.320159,0.3794475 -1.903227,1.0583333 -2.116667,-1.0583333 0,0 -0.963471,0.4728731 -1.058333,1.5875 h -1.5875 V 2.1166665 c 0,0 2.937484,-1.58750002 4.035413,-1.0583333 z"
       id="path986"
       inkscape:connector-curvature="0"
       sodipodi:nodetypes="ccccccc" />
    <path
       style="fill:#fefefe;fill-opacity:1;stroke:none;stroke-width:1.48475;stroke-linecap:square;stroke-linejoin:bevel;stroke-miterlimit:4;stroke-dasharray:none;stroke-opacity:1;paint-order:normal"
       d="m 80.962501,32.808334 c 0,0 -1.5875,-3.175 -1.5875,-5.291667 V 4.7624998 h 3.175 V 27.516667 c 0,2.116667 -1.5875,5.291667 -1.5875,5.291667 z"
       id="path988"
       inkscape:connector-curvature="0"
       sodipodi:nodetypes="cccccc" />
    <path
       sodipodi:nodetypes="ccccccc"
       inkscape:connector-curvature="0"
       id="path990"
       d="m 74.810421,1.0583332 c -1.55096,0.9581384 -1.191036,2.0203999 -0.727087,2.6458333 0.320159,0.3794475 1.903227,1.0583333 2.116667,-1.0583333 0,0 0.963471,0.4728731 1.058333,1.5875 h 1.5875 V 2.1166665 c 0,0 -2.937484,-1.58750002 -4.035413,-1.0583333 z"
       style="fill:#fefefe;fill-opacity:1;stroke:none;stroke-width:1.48475;stroke-linecap:square;stroke-linejoin:bevel;stroke-miterlimit:4;stroke-dasharray:none;stroke-opacity:1;paint-order:normal" />
  </g>
  <g
     stroke="#000000"
     id="g50">
    <g
       id="g37">
      <path
         d="M 0,0 10.054,10.054 H 32.28 L 42.333,0 Z"
         clip-path="url(#l)"
         fill="#595959"
         stroke-width="2.117"
         id="path34" />
      <circle
         transform="matrix(0,1,1,0,0,0)"
         cx="2.6459999"
         cy="6.5359998"
         fill="#363636"
         stroke-width="0.367"
         stroke-linecap="round"
         id="ellipse34"
         r="0.52899998" />
      <circle
         cy="11.113"
         cx="6.8790002"
         transform="matrix(0,1,1,0,0,0)"
         fill="#363636"
         stroke-width="0.367"
         stroke-linecap="round"
         id="ellipse35"
         r="0.52899998" />
      <circle
         cy="-35.797001"
         cx="2.6459999"
         transform="rotate(90)"
         fill="#363636"
         stroke-width="0.367"
         stroke-linecap="round"
         id="ellipse36"
         r="0.52899998" />
      <circle
         transform="rotate(90)"
         cx="6.8790002"
         cy="-31.221001"
         fill="#363636"
         stroke-width="0.367"
         stroke-linecap="round"
         id="ellipse37"
         r="0.52899998" />
    </g>
    <g
       transform="rotate(90,21.167,21.167)"
       id="g41">
      <path
         clip-path="url(#l)"
         d="M 0,0 10.054,10.054 H 32.28 L 42.333,0 Z"
         fill="#595959"
         stroke-width="2.117"
         id="path37" />
      <circle
         cy="6.5359998"
         cx="2.6459999"
         transform="matrix(0,1,1,0,0,0)"
         fill="#363636"
         stroke-width="0.367"
         stroke-linecap="round"
         id="ellipse38"
         r="0.52899998" />
      <circle
         transform="matrix(0,1,1,0,0,0)"
         cx="6.8790002"
         cy="11.113"
         fill="#363636"
         stroke-width="0.367"
         stroke-linecap="round"
         id="ellipse39"
         r="0.52899998" />
      <circle
         transform="rotate(90)"
         cx="2.6459999"
         cy="-35.797001"
         fill="#363636"
         stroke-width="0.367"
         stroke-linecap="round"
         id="ellipse40"
         r="0.52899998" />
      <circle
         cy="-31.221001"
         cx="6.8790002"
         transform="rotate(90)"
         fill="#363636"
         stroke-width="0.367"
         stroke-linecap="round"
         id="ellipse41"
         r="0.52899998" />
    </g>
    <g
       transform="rotate(180,21.167,21.167)"
       id="g45">
      <path
         d="M 0,0 10.054,10.054 H 32.28 L 42.333,0 Z"
         clip-path="url(#l)"
         fill="#595959"
         stroke-width="2.117"
         id="path41" />
      <circle
         transform="matrix(0,1,1,0,0,0)"
         cx="2.6459999"
         cy="6.5359998"
         fill="#363636"
         stroke-width="0.367"
         stroke-linecap="round"
         id="ellipse42"
         r="0.52899998" />
      <circle
         cy="11.113"
         cx="6.8790002"
         transform="matrix(0,1,1,0,0,0)"
         fill="#363636"
         stroke-width="0.367"
         stroke-linecap="round"
         id="ellipse43"
         r="0.52899998" />
      <circle
         cy="-35.797001"
         cx="2.6459999"
         transform="rotate(90)"
         fill="#363636"
         stroke-width="0.367"
         stroke-linecap="round"
         id="ellipse44"
         r="0.52899998" />
      <circle
         transform="rotate(90)"
         cx="6.8790002"
         cy="-31.221001"
         fill="#363636"
         stroke-width="0.367"
         stroke-linecap="round"
         id="ellipse45"
         r="0.52899998" />
    </g>
    <g
       transform="rotate(-90,21.167,21.167)"
       id="g49">
      <path
         clip-path="url(#l)"
         d="M 0,0 10.054,10.054 H 32.28 L 42.333,0 Z"
         fill="#595959"
         stroke-width="2.117"
         id="path45" />
      <circle
         cy="6.5359998"
         cx="2.6459999"
         transform="matrix(0,1,1,0,0,0)"
         fill="#363636"
         stroke-width="0.367"
         stroke-linecap="round"
         id="ellipse46"
         r="0.52899998" />
      <circle
         transform="matrix(0,1,1,0,0,0)"
         cx="6.8790002"
         cy="11.113"
         fill="#363636"
         stroke-width="0.367"
         stroke-linecap="round"
         id="ellipse47"
         r="0.52899998" />
      <circle
         transform="rotate(90)"
         cx="2.6459999"
         cy="-35.797001"
         fill="#363636"
         stroke-width="0.367"
         stroke-linecap="round"
         id="ellipse48"
         r="0.52899998" />
      <circle
         cy="-31.221001"
         cx="6.8790002"
         transform="rotate(90)"
         fill="#363636"
         stroke-width="0.367"
         stroke-linecap="round"
         id="ellipse49"
         r="0.52899998" />
    </g>
  </g>
  <rect
     y="3.704"
     x="17.462"
     height="2.1170001"
     width="7.408"
     clip-path="url(#m)"
     rx="1.058"
     ry="1.058"
     fill="#2b2b2b"
     stroke="#000000"
     stroke-width="1.058"
     stroke-linecap="round"
     stroke-miterlimit="10"
     id="rect50" />
  <rect
     ry="1.058"
     rx="1.058"
     clip-path="url(#m)"
     width="7.408"
     height="2.1170001"
     x="17.462"
     y="3.704"
     transform="translate(0,32.808001)"
     fill="#2b2b2b"
     stroke="#000000"
     stroke-width="1.058"
     stroke-linecap="round"
     stroke-miterlimit="10"
     id="rect51" />
</svg>
