<svg version="1.2" xmlns="http://www.w3.org/2000/svg" viewBox="0 0 137.08838821490468 99.8786828422877" width="138" height="100">
	<style>
		.s0 { fill: #ac0cac } 
		.s1 { fill: #f4f4f4 } 
		.s2 { fill: #5c0c5c } 
		.s3 { fill: #220822 } 
		.s4 { fill: #8c8c8c } 
	</style>
	<g id="svgg">
		<path id="path0" fill-rule="evenodd" class="s0" d="m14.76 12.16c-0.67 0.24-0.81 0.61-0.73 1.95 0.05 0.93 0.18 1.12 0.83 1.29 0.62 0.15 107.09 0.15 107.65 0 1.01-0.28 1.25-2.57 0.33-3.14-0.43-0.27-107.34-0.37-108.08-0.1zm-0.01 17.62c-0.75 0.16-1.05 2.37-0.41 3.01l0.27 0.28h5.94c4.85 0 5.98-0.03 6.19-0.14 0.71-0.38 0.74-2.56 0.05-3.02-0.22-0.14-11.4-0.26-12.04-0.13zm95.96 0.08c-0.85 0.37-0.83 2.77 0.02 3.12 0.26 0.11 1.41 0.14 6.01 0.14 6.45 0 6.27 0.02 6.5-0.75 0.3-1.02 0.07-2.2-0.47-2.48-0.47-0.23-11.53-0.26-12.06-0.03zm-96.06 18.62c-0.88 0.38-0.92 2.72-0.06 3.16 0.44 0.23 11.31 0.26 11.91 0.03 0.71-0.27 1.04-1.45 0.69-2.44-0.34-0.94-0.06-0.9-6.62-0.89-4.47 0-5.67 0.03-5.92 0.14zm96.1-0.03c-0.85 0.34-0.93 2.59-0.11 3.15 0.26 0.17 0.62 0.18 6.08 0.18h5.8l0.31-0.22c0.85-0.6 0.72-2.71-0.19-3.11-0.36-0.16-11.48-0.16-11.89 0zm-95.99 18.64c-0.67 0.24-0.81 0.61-0.73 1.96 0.08 1.44-0.16 1.39 6.66 1.39 6.28 0 6.18 0.01 6.49-0.87 0.35-1.01 0.04-2.19-0.66-2.47-0.57-0.23-11.12-0.24-11.76-0.01zm96.23-0.08c-1.22 0.24-1.28 3.02-0.06 3.32 0.59 0.15 11.04 0.15 11.58 0 1.01-0.28 1.25-2.57 0.33-3.14-0.3-0.19-10.99-0.35-11.85-0.18zm-96.24 17.71c-0.7 0.13-1.06 2.36-0.47 2.94 0.51 0.52-2.88 0.49 54.46 0.49l53.48-0.01 0.45-0.22c0.91-0.45 0.98-2.65 0.1-3.1-0.33-0.16-107.2-0.27-108.02-0.1z"/>
		<path id="path1" fill-rule="evenodd" class="s1" d="m53.81 23.79c-0.44 0.04-0.5 0.11-0.72 0.84-0.1 0.32-0.29 0.67-0.46 0.84-0.16 0.15-0.37 0.49-0.46 0.76-0.08 0.27-0.31 0.67-0.49 0.88-0.18 0.22-0.41 0.62-0.51 0.88-0.09 0.26-0.3 0.6-0.45 0.75-0.16 0.15-0.4 0.57-0.54 0.93-0.14 0.37-0.38 0.79-0.54 0.94-0.17 0.15-0.33 0.41-0.37 0.57-0.11 0.44-0.42 1.01-0.63 1.16-0.11 0.08-0.23 0.26-0.27 0.41-0.03 0.15-0.1 0.3-0.15 0.33-0.05 0.03-0.09 0.13-0.09 0.23 0 0.1-0.13 0.31-0.28 0.47-0.28 0.3-0.37 0.46-0.71 1.26-0.11 0.25-0.31 0.54-0.45 0.63-0.15 0.1-0.26 0.26-0.26 0.36 0 0.1-0.04 0.2-0.09 0.23-0.05 0.03-0.12 0.21-0.16 0.41-0.03 0.2-0.2 0.47-0.4 0.67-0.19 0.17-0.38 0.45-0.41 0.62-0.08 0.36-0.4 0.95-0.63 1.16-0.18 0.17-0.37 0.52-0.47 0.9-0.04 0.14-0.21 0.41-0.39 0.6-0.18 0.2-0.43 0.64-0.56 0.99-0.14 0.4-0.33 0.71-0.51 0.84-0.15 0.12-0.33 0.37-0.39 0.57-0.19 0.61-0.42 1.04-0.64 1.22-0.11 0.09-0.3 0.4-0.4 0.7-0.11 0.29-0.34 0.69-0.52 0.89-0.18 0.19-0.36 0.47-0.39 0.62-0.09 0.41-0.34 0.86-0.55 1.01-0.2 0.14-0.59 0.91-0.6 1.18 0 0.08-0.18 0.32-0.4 0.53-0.59 0.54-0.59 1.23 0 1.79 0.22 0.2 0.4 0.44 0.4 0.53 0 0.25 0.4 1.05 0.56 1.11 0.16 0.06 0.48 0.62 0.58 1.03 0.03 0.14 0.22 0.43 0.41 0.65 0.19 0.22 0.42 0.62 0.51 0.88 0.09 0.27 0.29 0.61 0.44 0.77 0.16 0.16 0.36 0.5 0.45 0.77 0.27 0.74 0.36 0.9 0.59 1.03 0.14 0.07 0.31 0.36 0.45 0.76 0.13 0.37 0.38 0.81 0.57 1.01 0.19 0.2 0.37 0.51 0.4 0.69 0.04 0.18 0.21 0.5 0.39 0.71q0.54 0.64 0.69 1.25c0.04 0.15 0.21 0.43 0.39 0.62 0.18 0.19 0.41 0.6 0.52 0.91 0.11 0.32 0.29 0.65 0.4 0.74 0.29 0.23 0.52 0.61 0.6 0.98 0.04 0.17 0.22 0.49 0.41 0.71 0.19 0.22 0.43 0.64 0.55 0.94 0.11 0.3 0.28 0.61 0.38 0.69q0.39 0.34 0.65 1.15c0.09 0.28 0.26 0.56 0.37 0.63 0.21 0.13 0.7 1.08 0.7 1.36 0 0.08 0.14 0.25 0.3 0.39 0.18 0.13 0.38 0.43 0.46 0.68 0.17 0.48 0.52 1.09 0.63 1.09 0.09 0 0.39 0.59 0.47 0.92 0.03 0.15 0.19 0.42 0.36 0.6 0.3 0.33 0.59 0.9 0.71 1.4 0.05 0.19 0.15 0.28 0.38 0.32 0.51 0.1 29.87 0.07 30.14-0.03 0.17-0.07 0.28-0.24 0.41-0.67 0.12-0.37 0.31-0.71 0.52-0.92 0.19-0.19 0.37-0.46 0.4-0.61q0.15-0.6 0.69-1.24c0.18-0.21 0.36-0.54 0.39-0.72 0.04-0.2 0.21-0.49 0.4-0.67 0.19-0.19 0.42-0.6 0.56-0.98q0.24-0.65 0.57-0.94c0.18-0.16 0.33-0.38 0.33-0.5 0-0.26 0.36-0.96 0.6-1.16 0.21-0.18 0.47-0.66 0.54-1 0.03-0.14 0.21-0.44 0.41-0.65 0.19-0.22 0.38-0.49 0.41-0.6 0.13-0.49 0.38-0.95 0.54-1 0.16-0.05 0.5-0.64 0.5-0.87 0-0.24 0.45-0.98 0.62-1.04 0.1-0.03 0.21-0.18 0.24-0.33 0.11-0.47 0.42-1.08 0.74-1.43 0.17-0.18 0.34-0.45 0.37-0.59 0.08-0.4 0.37-0.89 0.54-0.95 0.08-0.02 0.27-0.34 0.4-0.71 0.16-0.41 0.36-0.76 0.58-0.95q0.32-0.29 0.38-0.64c0.04-0.19 0.1-0.38 0.15-0.41 0.05-0.03 0.08-0.13 0.08-0.22 0-0.09 0.19-0.34 0.41-0.54 0.23-0.23 0.4-0.47 0.4-0.61 0-0.28 0.36-0.98 0.6-1.14 0.1-0.07 0.27-0.38 0.39-0.68 0.11-0.31 0.33-0.68 0.48-0.83 0.16-0.15 0.38-0.54 0.5-0.88 0.13-0.35 0.35-0.72 0.53-0.87 0.46-0.42 0.44-1.26-0.05-1.72-0.2-0.19-0.38-0.5-0.45-0.75-0.14-0.52-0.28-0.76-0.62-1.09-0.14-0.15-0.34-0.48-0.44-0.75-0.09-0.27-0.3-0.63-0.47-0.8-0.16-0.17-0.34-0.51-0.41-0.75-0.07-0.27-0.26-0.6-0.48-0.83q-0.36-0.38-0.54-0.99-0.19-0.62-0.45-0.8c-0.15-0.11-0.33-0.34-0.4-0.52q-0.39-1.04-0.74-1.36c-0.14-0.13-0.3-0.41-0.36-0.63-0.06-0.22-0.25-0.56-0.43-0.77-0.33-0.38-0.67-1.02-0.67-1.27 0-0.08-0.16-0.31-0.36-0.52-0.21-0.23-0.44-0.62-0.56-0.98-0.11-0.34-0.31-0.71-0.48-0.85-0.15-0.14-0.37-0.5-0.49-0.8-0.12-0.3-0.34-0.69-0.5-0.86-0.15-0.16-0.32-0.41-0.35-0.55-0.14-0.47-0.37-0.89-0.56-1.02-0.21-0.15-0.59-0.91-0.6-1.19 0-0.09-0.15-0.31-0.34-0.49q-0.34-0.32-0.56-0.97-0.22-0.65-0.55-0.94c-0.19-0.16-0.37-0.44-0.41-0.61-0.07-0.36-0.3-0.74-0.56-0.98-0.1-0.09-0.28-0.43-0.4-0.75-0.12-0.33-0.36-0.74-0.54-0.92-0.18-0.17-0.36-0.47-0.4-0.65-0.16-0.76-0.33-0.95-0.88-1.01-0.54-0.07-28.97-0.06-29.6 0.01zm29.17 1.54c0.31 0.17 0.41 0.29 0.62 0.74 0.1 0.22 0.28 0.49 0.4 0.6 0.25 0.24 0.51 0.73 0.6 1.13 0.03 0.16 0.19 0.42 0.36 0.58 0.29 0.28 0.69 1.02 0.69 1.29 0 0.07 0.18 0.32 0.4 0.55 0.22 0.23 0.4 0.48 0.4 0.55 0 0.24 0.33 0.89 0.58 1.12 0.12 0.12 0.32 0.48 0.44 0.8 0.13 0.31 0.36 0.71 0.53 0.88 0.16 0.18 0.38 0.56 0.49 0.86 0.1 0.3 0.31 0.66 0.46 0.8 0.16 0.15 0.37 0.5 0.47 0.79 0.1 0.28 0.33 0.68 0.51 0.89 0.18 0.2 0.36 0.47 0.39 0.61 0.08 0.33 0.37 0.84 0.73 1.29 0.15 0.2 0.31 0.51 0.35 0.7 0.04 0.18 0.22 0.5 0.4 0.7 0.32 0.36 0.57 0.82 0.71 1.31 0.04 0.14 0.22 0.4 0.41 0.58 0.18 0.19 0.33 0.38 0.33 0.43 0 0.22 0.44 1.06 0.71 1.37 0.16 0.18 0.33 0.49 0.39 0.7 0.05 0.21 0.26 0.56 0.46 0.78 0.2 0.22 0.38 0.52 0.41 0.67 0.04 0.16 0.1 0.3 0.15 0.33 0.05 0.03 0.08 0.14 0.08 0.25 0 0.1 0.11 0.26 0.23 0.36q0.47 0.39 0.67 1.12c0.07 0.24 0.26 0.55 0.47 0.75 0.59 0.56 0.58 2.12-0.02 2.39-0.16 0.07-0.28 0.28-0.41 0.7-0.11 0.36-0.33 0.77-0.55 1.02-0.2 0.23-0.44 0.63-0.53 0.9-0.09 0.26-0.31 0.64-0.5 0.84-0.2 0.21-0.38 0.5-0.41 0.65-0.09 0.39-0.28 0.74-0.52 0.95-0.2 0.17-0.45 0.66-0.58 1.12-0.1 0.35-0.35 0.7-0.49 0.7-0.07 0-0.24 0.32-0.39 0.71-0.16 0.39-0.42 0.84-0.61 1.03-0.19 0.19-0.37 0.49-0.41 0.67-0.08 0.37-0.27 0.71-0.6 1.1-0.12 0.13-0.31 0.47-0.41 0.75-0.1 0.27-0.33 0.65-0.5 0.83-0.18 0.18-0.36 0.47-0.39 0.63-0.1 0.44-0.33 0.86-0.6 1.07-0.13 0.1-0.31 0.41-0.4 0.69-0.09 0.28-0.32 0.69-0.5 0.91-0.19 0.21-0.44 0.63-0.55 0.92-0.11 0.29-0.36 0.71-0.55 0.93-0.19 0.22-0.35 0.48-0.35 0.56 0 0.23-0.39 0.94-0.6 1.08-0.1 0.07-0.28 0.4-0.4 0.74-0.13 0.34-0.39 0.77-0.57 0.95-0.19 0.19-0.36 0.49-0.4 0.67q-0.1 0.53-0.59 1.07c-0.13 0.14-0.3 0.41-0.38 0.6-0.08 0.2-0.26 0.47-0.41 0.6l-0.27 0.25-13.37 0.03c-16.27 0.04-15.56 0.08-15.78-0.8-0.04-0.15-0.21-0.42-0.38-0.61-0.35-0.37-0.67-0.97-0.67-1.26 0-0.11-0.17-0.37-0.39-0.58q-0.38-0.38-0.56-0.93c-0.09-0.31-0.29-0.66-0.45-0.81-0.16-0.14-0.37-0.5-0.47-0.79-0.1-0.29-0.33-0.68-0.51-0.87-0.17-0.19-0.35-0.47-0.39-0.61-0.09-0.4-0.33-0.85-0.58-1.07-0.25-0.23-0.55-0.84-0.55-1.12 0-0.11-0.18-0.36-0.39-0.57q-0.38-0.38-0.57-0.94c-0.1-0.32-0.33-0.71-0.5-0.88-0.16-0.17-0.36-0.5-0.43-0.74-0.07-0.23-0.27-0.58-0.44-0.79-0.41-0.46-0.57-0.76-0.57-1.02 0-0.11-0.18-0.4-0.41-0.64-0.27-0.29-0.46-0.64-0.61-1.09-0.11-0.37-0.24-0.67-0.29-0.67-0.18 0-0.48-0.44-0.69-1.02-0.13-0.33-0.33-0.7-0.46-0.82-0.13-0.11-0.33-0.45-0.44-0.74-0.11-0.29-0.36-0.69-0.55-0.88-0.2-0.21-0.38-0.53-0.45-0.81-0.07-0.26-0.24-0.58-0.43-0.76-0.33-0.34-0.67-1-0.67-1.32-0.01-0.11-0.17-0.35-0.38-0.53-0.37-0.32-0.38-0.35-0.41-1.12l-0.04-0.8 0.41-0.4c0.23-0.23 0.41-0.49 0.42-0.58 0-0.3 0.38-1.03 0.68-1.31 0.16-0.15 0.35-0.47 0.41-0.71 0.13-0.47 0.35-0.86 0.63-1.1 0.09-0.09 0.26-0.4 0.38-0.7 0.11-0.3 0.31-0.63 0.44-0.75 0.13-0.11 0.32-0.45 0.42-0.75 0.1-0.29 0.35-0.72 0.56-0.94 0.21-0.22 0.38-0.46 0.38-0.53 0-0.28 0.4-1.04 0.68-1.29 0.17-0.15 0.33-0.4 0.37-0.56 0.09-0.41 0.35-0.91 0.57-1.11 0.11-0.09 0.3-0.43 0.43-0.75 0.13-0.31 0.37-0.71 0.53-0.88 0.16-0.16 0.32-0.41 0.36-0.55 0.14-0.5 0.39-0.95 0.71-1.27 0.19-0.19 0.36-0.5 0.4-0.7 0.07-0.39 0.3-0.79 0.58-1.03 0.09-0.08 0.28-0.42 0.41-0.74 0.13-0.33 0.36-0.72 0.5-0.87 0.14-0.15 0.35-0.52 0.46-0.83 0.12-0.31 0.34-0.66 0.49-0.79 0.17-0.13 0.35-0.45 0.47-0.82 0.11-0.35 0.32-0.71 0.51-0.9 0.17-0.17 0.4-0.56 0.52-0.89 0.11-0.31 0.34-0.74 0.52-0.94 0.17-0.2 0.38-0.51 0.46-0.7 0.33-0.79-0.97-0.72 14.87-0.73 10.48 0 14.15 0.03 14.31 0.12zm-16.14 7.15c-1.67 0.07-2.61 0.25-3.46 0.65-0.45 0.22-0.91 0.39-1.01 0.39-0.4 0-1.17 0.29-1.43 0.55-0.15 0.14-0.56 0.36-0.92 0.48-0.41 0.15-0.77 0.36-1 0.6-0.2 0.2-0.46 0.37-0.57 0.37-0.11 0-0.33 0.17-0.52 0.4-0.17 0.22-0.36 0.4-0.42 0.4-0.09 0-0.75 0.61-1.81 1.67-0.54 0.54-0.77 0.81-0.77 0.93 0 0.04-0.18 0.23-0.4 0.4-0.23 0.18-0.4 0.41-0.4 0.52 0 0.11-0.17 0.37-0.37 0.57-0.23 0.23-0.45 0.59-0.59 0.99-0.12 0.34-0.36 0.78-0.52 0.97q-0.3 0.34-0.42 0.92c-0.15 0.71-0.39 1.43-0.55 1.64-0.89 1.14-0.83 8.5 0.09 10.42 0.2 0.42 0.36 0.83 0.36 0.92 0 0.53 0.24 1.17 0.56 1.5 0.19 0.19 0.34 0.44 0.34 0.55 0 0.11 0.04 0.23 0.09 0.26 0.05 0.03 0.13 0.2 0.16 0.38 0.04 0.18 0.21 0.44 0.38 0.58 0.17 0.15 0.36 0.4 0.42 0.57 0.17 0.51 2.77 3.29 3.45 3.69 0.17 0.1 0.33 0.26 0.36 0.35 0.03 0.1 0.26 0.27 0.52 0.4 0.49 0.23 0.82 0.51 0.82 0.68 0 0.05 0.15 0.12 0.33 0.16 0.18 0.04 0.37 0.1 0.42 0.15 0.06 0.04 0.23 0.1 0.37 0.13 0.15 0.04 0.44 0.22 0.64 0.41 0.28 0.25 0.5 0.35 0.87 0.4 0.57 0.08 1.51 0.41 1.88 0.67 0.89 0.62 9.9 0.62 9.9 0 0-0.16 1.65-0.71 2.12-0.71 0.1 0 0.35-0.15 0.56-0.33 0.21-0.19 0.66-0.44 1.02-0.57 0.41-0.15 0.75-0.36 0.93-0.57 0.16-0.17 0.42-0.35 0.58-0.38 0.17-0.04 0.42-0.23 0.6-0.46 0.17-0.22 0.37-0.39 0.45-0.39 0.16 0 1.75-1.53 1.75-1.68 0-0.06 0.08-0.14 0.18-0.17 0.1-0.03 0.31-0.26 0.47-0.51 0.15-0.25 0.41-0.55 0.56-0.65 0.15-0.11 0.3-0.33 0.34-0.49 0.03-0.16 0.21-0.42 0.39-0.58 0.2-0.18 0.4-0.52 0.55-0.93 0.13-0.36 0.37-0.79 0.53-0.96 0.17-0.18 0.33-0.5 0.39-0.75 0.22-1.04 0.43-1.69 0.6-1.88 0.77-0.82 0.8-8.98 0.03-10.12-0.21-0.31-0.64-1.7-0.64-2.07 0-0.09-0.16-0.32-0.35-0.54-0.19-0.21-0.38-0.51-0.41-0.66-0.04-0.15-0.1-0.32-0.14-0.38-0.05-0.05-0.11-0.23-0.14-0.4-0.04-0.18-0.16-0.34-0.29-0.4-0.12-0.05-0.34-0.32-0.48-0.6-0.14-0.27-0.38-0.64-0.55-0.81-0.16-0.17-0.47-0.52-0.69-0.78-0.64-0.76-1.63-1.73-2.01-1.96-0.2-0.12-0.42-0.33-0.51-0.46-0.08-0.13-0.37-0.33-0.63-0.45-0.27-0.12-0.58-0.35-0.7-0.5-0.12-0.16-0.29-0.29-0.38-0.29-0.1 0-0.3-0.07-0.46-0.15-0.16-0.08-0.35-0.15-0.43-0.15-0.08 0-0.3-0.15-0.48-0.34-0.32-0.31-0.98-0.56-1.51-0.56-0.18 0-1.04-0.39-1.25-0.56-0.39-0.32-4.2-0.59-6.8-0.48zm9.5 6.82c0.12 0.09 0.27 0.29 0.34 0.42 0.06 0.14 0.24 0.31 0.39 0.38 0.29 0.14 0.67 0.62 0.68 0.84 0 0.07 0.09 0.28 0.19 0.46l0.2 0.33-0.36 0.52c-0.42 0.61-0.76 0.96-1.2 1.22l-0.31 0.18 0.22 0.56c0.16 0.4 0.32 0.61 0.52 0.72 0.49 0.24 0.69 0.43 0.82 0.75 0.06 0.16 0.25 0.36 0.4 0.42 0.15 0.07 0.38 0.22 0.5 0.33q0.23 0.22 0.35 0.12c0.39-0.33 1.68-0.33 2 0 0.66 0.66 0.63 2.56-0.05 3.49-0.13 0.19-0.33 0.59-0.43 0.89-0.11 0.32-0.35 0.71-0.57 0.94-0.21 0.22-0.38 0.46-0.38 0.53q-0.01 0.12-0.1 0.13-0.1 0.01-0.1 0.15c0 0.08-0.2 0.26-0.43 0.39-0.24 0.14-0.54 0.37-0.66 0.51-0.23 0.27-1 0.65-1.31 0.65-0.1 0-0.34 0.11-0.55 0.25-1.09 0.74-2.93 0.83-3.68 0.17-0.23-0.19-0.24-1.34-0.03-1.72 0.28-0.49-0.06-1.09-0.99-1.73-0.14-0.1-0.32-0.33-0.4-0.52-0.08-0.18-0.25-0.39-0.38-0.46-0.31-0.16-0.54-0.41-0.63-0.68-0.11-0.35-0.38-0.22-0.5 0.24-0.05 0.22-0.16 0.5-0.23 0.62-0.25 0.45-10.27 10.4-10.6 10.53-0.61 0.24-1.01 0.17-1.41-0.27-0.2-0.22-0.49-0.47-0.63-0.57-0.15-0.09-0.34-0.32-0.43-0.51-0.09-0.19-0.25-0.39-0.35-0.44-0.46-0.25-0.45-1.1 0.02-1.32 0.13-0.06 0.32-0.25 0.42-0.42q0.34-0.59 0.71-0.7c0.11-0.04 0.28-0.22 0.38-0.4 0.09-0.18 0.33-0.41 0.52-0.51 0.18-0.1 0.37-0.28 0.4-0.38 0.08-0.25 0.37-0.54 0.62-0.62 0.11-0.03 0.28-0.22 0.38-0.4 0.1-0.19 0.35-0.44 0.56-0.56 0.21-0.12 0.38-0.27 0.38-0.33 0-0.15 0.48-0.67 0.62-0.67 0.05 0 0.16-0.06 0.24-0.14 0.08-0.08 0.15-0.19 0.15-0.25 0-0.14 0.51-0.61 0.67-0.61 0.06 0 0.22-0.18 0.35-0.4 0.12-0.22 0.31-0.43 0.41-0.46 0.24-0.08 0.57-0.36 0.57-0.48 0-0.14 0.41-0.56 0.54-0.56 0.14 0 0.42-0.32 0.5-0.57 0.03-0.1 0.22-0.27 0.41-0.38 0.2-0.1 0.43-0.32 0.51-0.47 0.08-0.15 0.26-0.36 0.42-0.45 0.15-0.1 0.34-0.26 0.42-0.37 0.43-0.57 0.7-0.74 1.25-0.81 0.58-0.07 0.79-0.36 0.35-0.5-0.52-0.17-0.91-1.59-0.59-2.19 0.26-0.5 2.65-2.89 3.17-3.17 0.36-0.19 0.91-0.19 1.17 0.01 0.06 0.04 0.3 0.1 0.55 0.14 0.24 0.04 0.51 0.14 0.59 0.23 0.13 0.13 0.16 0.1 0.29-0.24 0.08-0.21 0.18-0.49 0.23-0.61 0.04-0.12 0.27-0.33 0.49-0.47 0.22-0.14 0.4-0.3 0.4-0.34 0-0.53 1.49-0.86 2-0.44zm1.57 8.07c-0.09 0.23-0.07 0.75 0.03 1.01 0.1 0.26 0.21-0.71 0.11-0.99-0.07-0.18-0.08-0.18-0.14-0.02zm-1.05 2.09c-0.09 0.11-0.08 0.17 0.04 0.27 0.13 0.11 0.17 0.11 0.25-0.01 0.18-0.28-0.08-0.51-0.29-0.26zm-0.97 1.01c-0.18 0.13-0.18 0.15-0.03 0.21 0.26 0.1 0.54-0.08 0.36-0.23-0.11-0.09-0.19-0.08-0.33 0.02zm-1.92 1.08c0.05 0.14 0.72 0.12 0.97-0.03q0.15-0.08-0.43-0.09c-0.42 0-0.57 0.03-0.54 0.12z"/>
		<path id="path2" fill-rule="evenodd" class="s2" d="m7.2 6.13c-0.25 0.29-0.78 0.82-1.07 1.07l-0.23 0.2v42.63c0 45.74-0.02 43.11 0.44 43.13 0.15 0 0.56 0.35 0.56 0.47 0 0.05 0.09 0.19 0.19 0.31l0.19 0.21 61.42-0.02 61.42-0.03 0.23-0.35c0.13-0.19 0.4-0.46 0.6-0.6l0.38-0.26 0.02-42.8 0.03-42.81-0.22-0.19c-0.12-0.1-0.26-0.19-0.31-0.19-0.12 0-0.47-0.41-0.47-0.56-0.02-0.47 4.05-0.44-61.74-0.44h-61.24zm116.45 2.07c0.34 0.36 0.64 0.5 1.42 0.65 0.15 0.03 0.32 0.19 0.44 0.41 0.11 0.2 0.37 0.45 0.58 0.57q0.38 0.22 0.44 0.48c0.15 0.78 0.29 1.07 0.65 1.42l0.39 0.38v1.65 1.65l-0.39 0.38c-0.36 0.35-0.5 0.65-0.65 1.43-0.04 0.16-0.18 0.33-0.4 0.44-0.18 0.1-0.44 0.36-0.57 0.57-0.15 0.24-0.34 0.41-0.49 0.44-0.78 0.16-1.08 0.3-1.42 0.66l-0.38 0.39h-54.58-54.58l-0.4-0.39c-0.22-0.21-0.6-0.44-0.83-0.5-0.24-0.07-0.54-0.16-0.68-0.2-0.13-0.04-0.31-0.19-0.38-0.34-0.07-0.15-0.33-0.41-0.57-0.58-0.35-0.24-0.45-0.37-0.5-0.67-0.03-0.21-0.08-0.47-0.1-0.58-0.02-0.11-0.22-0.39-0.44-0.62l-0.41-0.42v-1.66-1.66l0.4-0.4c0.39-0.39 0.43-0.47 0.55-1.21 0.05-0.3 0.15-0.44 0.5-0.68 0.24-0.17 0.5-0.42 0.57-0.57 0.07-0.15 0.25-0.31 0.38-0.35 1-0.28 1.19-0.36 1.53-0.7l0.37-0.38h54.59 54.58zm-109.04 3.38c-0.92 0.1-1.1 0.47-1.1 2.18 0 1.38 0.12 1.82 0.55 2.06 0.41 0.22 108.74 0.22 109.14 0 0.87-0.46 0.93-3.5 0.08-4.08-0.24-0.16-107.18-0.32-108.67-0.16zm108.23 0.68c0.92 0.57 0.68 2.86-0.33 3.14-0.56 0.16-107.03 0.16-107.65 0-0.65-0.16-0.78-0.35-0.83-1.28-0.08-1.34 0.06-1.72 0.73-1.96 0.74-0.26 107.65-0.16 108.08 0.1zm-38.56 11.28c0.13 0.13 0.27 0.36 0.31 0.52 0.04 0.16 0.24 0.49 0.45 0.73q0.39 0.44 0.46 0.85 0.07 0.41 0.42 0.77c0.49 0.5 0.6 0.69 0.68 1.2 0.05 0.33 0.13 0.47 0.36 0.6 0.28 0.16 0.69 0.91 0.69 1.27 0 0.09 0.16 0.31 0.36 0.49 0.26 0.25 0.37 0.44 0.41 0.75 0.04 0.32 0.16 0.53 0.49 0.86 0.37 0.38 0.64 0.92 0.64 1.31 0 0.07 0.16 0.25 0.35 0.4 0.38 0.28 0.57 0.64 0.69 1.26q0.07 0.39 0.3 0.47c0.22 0.09 0.38 0.35 0.66 1.11 0.07 0.19 0.26 0.48 0.41 0.65 0.15 0.16 0.35 0.54 0.43 0.85 0.12 0.39 0.26 0.63 0.52 0.85 0.28 0.23 0.39 0.42 0.5 0.9 0.07 0.33 0.18 0.61 0.23 0.63 0.3 0.1 0.62 0.48 0.72 0.85 0.2 0.75 0.3 0.94 0.53 1.05 0.14 0.06 0.3 0.29 0.41 0.58 0.1 0.27 0.35 0.72 0.56 0.99 0.23 0.31 0.41 0.67 0.45 0.92 0.06 0.4 0.35 0.83 0.55 0.83 0.14 0 0.46 0.69 0.54 1.16 0.05 0.32 0.13 0.44 0.39 0.58 0.27 0.14 0.37 0.3 0.55 0.84q0.22 0.66 0.57 1c0.54 0.52 0.53 1.91-0.02 2.49-0.22 0.24-0.43 0.61-0.55 0.98-0.21 0.66-0.33 0.84-0.64 0.96q-0.22 0.08-0.29 0.46c-0.07 0.44-0.35 1.14-0.46 1.14-0.17 0-0.6 0.51-0.6 0.72 0 0.28-0.3 0.86-0.64 1.23-0.14 0.15-0.26 0.33-0.26 0.38 0 0.29-0.34 0.96-0.55 1.07-0.25 0.14-0.4 0.41-0.5 0.93-0.06 0.32-0.16 0.46-0.72 0.96-0.13 0.12-0.24 0.38-0.29 0.68-0.05 0.38-0.15 0.56-0.48 0.88-0.3 0.28-0.46 0.56-0.56 0.9-0.07 0.29-0.25 0.61-0.41 0.77-0.15 0.14-0.35 0.5-0.45 0.8q-0.17 0.53-0.55 0.9c-0.22 0.2-0.39 0.45-0.39 0.56 0 0.37-0.3 0.91-0.64 1.17-0.26 0.2-0.36 0.37-0.41 0.69-0.09 0.53-0.18 0.7-0.64 1.16-0.27 0.26-0.4 0.5-0.45 0.79-0.04 0.29-0.15 0.47-0.35 0.62-0.17 0.13-0.33 0.38-0.4 0.63-0.19 0.67-0.43 1.17-0.57 1.17q-0.36 0.01-0.54 0.84c-0.09 0.45-0.18 0.61-0.5 0.85-0.29 0.23-0.41 0.43-0.54 0.88-0.1 0.35-0.3 0.74-0.51 0.97-0.19 0.22-0.37 0.51-0.4 0.65-0.04 0.14-0.16 0.37-0.27 0.51l-0.21 0.25h-15.45-15.46l-0.24-0.3c-0.13-0.16-0.26-0.42-0.3-0.57-0.03-0.16-0.14-0.34-0.24-0.41-0.25-0.18-0.6-0.78-0.6-1.05 0-0.33-0.27-0.8-0.5-0.87-0.22-0.07-0.6-0.8-0.6-1.18 0-0.18-0.12-0.35-0.39-0.56-0.29-0.23-0.43-0.45-0.56-0.89-0.12-0.36-0.31-0.7-0.52-0.9-0.21-0.21-0.34-0.43-0.34-0.6q0-0.52-0.52-0.93c-0.3-0.23-0.57-0.78-0.57-1.16 0-0.13-0.1-0.32-0.22-0.41-0.54-0.44-0.66-0.63-0.79-1.22-0.1-0.45-0.19-0.62-0.34-0.67-0.29-0.09-0.53-0.44-0.61-0.85-0.03-0.19-0.21-0.53-0.4-0.75-0.19-0.21-0.37-0.5-0.41-0.64-0.13-0.56-0.29-0.87-0.65-1.18-0.31-0.27-0.39-0.42-0.45-0.82-0.03-0.27-0.13-0.56-0.22-0.64-0.09-0.08-0.29-0.26-0.43-0.39-0.26-0.24-0.49-0.8-0.49-1.22 0-0.13-0.12-0.27-0.33-0.38-0.26-0.14-0.37-0.31-0.52-0.75-0.11-0.31-0.3-0.66-0.43-0.77q-0.4-0.35-0.56-1.17c-0.05-0.27-0.15-0.43-0.41-0.58-0.32-0.2-0.48-0.52-0.69-1.4-0.03-0.14-0.21-0.34-0.38-0.45q-0.32-0.21-0.43-0.57c-0.05-0.2-0.13-0.4-0.17-0.44-0.05-0.04-0.08-0.18-0.08-0.29 0-0.14-0.1-0.28-0.26-0.36-0.74-0.4-0.75-2.24-0.02-2.72q0.23-0.16 0.41-0.77c0.18-0.61 0.34-0.84 0.73-1.07 0.1-0.06 0.2-0.19 0.22-0.3 0.1-0.66 0.35-1.2 0.65-1.39 0.3-0.19 0.4-0.37 0.52-0.97 0.03-0.15 0.18-0.42 0.34-0.6 0.26-0.3 0.38-0.53 0.69-1.3 0.06-0.14 0.24-0.32 0.39-0.4 0.22-0.1 0.3-0.24 0.38-0.63 0.15-0.68 0.31-0.96 0.68-1.2 0.27-0.17 0.33-0.29 0.4-0.74 0.07-0.51 0.41-1.01 0.67-1.01 0.1 0 0.4-0.74 0.4-0.99 0-0.11 0.18-0.41 0.4-0.67 0.22-0.26 0.43-0.62 0.46-0.79q0.15-0.63 0.6-0.84c0.13-0.06 0.24-0.19 0.24-0.29 0-0.47 0.34-1.13 0.71-1.43 0.24-0.19 0.4-0.4 0.4-0.53 0-0.38 0.31-1.04 0.55-1.17 0.26-0.14 0.55-0.66 0.55-0.98 0-0.11 0.15-0.36 0.34-0.55 0.18-0.19 0.37-0.49 0.4-0.66q0.21-0.92 0.8-1.27 0.19-0.11 0.31-0.67c0.09-0.48 0.19-0.64 0.58-1.02q0.46-0.45 0.47-0.69-0.01-0.55 0.49-1.05c0.17-0.17 0.33-0.44 0.37-0.59 0.03-0.15 0.18-0.39 0.32-0.55l0.26-0.27h15.38 15.39zm-56.98 2.12c0.16 0.08 0.35 0.25 0.44 0.38 0.11 0.17 0.32 0.27 0.8 0.36 0.58 0.12 0.67 0.17 0.88 0.52 0.14 0.21 0.39 0.47 0.57 0.57 0.32 0.17 0.63 0.82 0.63 1.31 0 0.08 0.18 0.31 0.4 0.53l0.4 0.39v1.7 1.7l-0.4 0.39c-0.22 0.21-0.4 0.45-0.4 0.53 0 0.49-0.32 1.16-0.63 1.33-0.19 0.09-0.43 0.34-0.55 0.55-0.19 0.33-0.28 0.38-0.84 0.5-0.52 0.11-0.7 0.2-0.99 0.52l-0.36 0.38h-6.61-6.62l-0.39-0.4c-0.22-0.22-0.46-0.4-0.54-0.4-0.54 0-1.14-0.31-1.36-0.7-0.13-0.22-0.29-0.4-0.36-0.4-0.26 0-0.56-0.47-0.67-1.01-0.07-0.4-0.17-0.61-0.39-0.79-0.47-0.41-0.51-0.58-0.51-2.2 0-1.62 0.04-1.78 0.52-2.2 0.2-0.18 0.31-0.4 0.38-0.79 0.12-0.64 0.15-0.68 0.51-0.91 0.16-0.09 0.43-0.35 0.59-0.58 0.25-0.35 0.37-0.42 0.87-0.53q0.59-0.12 0.84-0.39c0.47-0.51 0.25-0.5 7.08-0.5 5.43 0 6.48 0.02 6.71 0.14zm96.35 0.22c0.28 0.28 0.52 0.4 1 0.51 0.56 0.13 0.65 0.19 0.92 0.58 0.17 0.24 0.43 0.49 0.57 0.57 0.15 0.07 0.31 0.24 0.35 0.38 0.04 0.13 0.12 0.44 0.19 0.67 0.07 0.23 0.29 0.6 0.51 0.83l0.38 0.41v1.54c0 1.61-0.11 2.07-0.51 2.2-0.18 0.06-0.49 0.77-0.49 1.12 0 0.25-0.36 0.73-0.55 0.73-0.08 0-0.28 0.2-0.44 0.44-0.28 0.4-0.37 0.46-0.95 0.59-0.52 0.12-0.71 0.22-0.96 0.51l-0.32 0.36h-6.63-6.64l-0.32-0.36c-0.25-0.29-0.44-0.39-0.96-0.51-0.58-0.13-0.67-0.19-0.95-0.59-0.16-0.24-0.36-0.44-0.44-0.44-0.19 0-0.55-0.48-0.55-0.73 0-0.35-0.31-1.06-0.49-1.12-0.4-0.13-0.51-0.59-0.51-2.2v-1.54l0.38-0.41c0.22-0.23 0.45-0.6 0.51-0.83 0.07-0.23 0.16-0.54 0.19-0.67 0.04-0.14 0.2-0.31 0.35-0.38 0.14-0.08 0.4-0.33 0.57-0.57 0.27-0.39 0.36-0.45 0.92-0.58 0.49-0.11 0.72-0.23 1-0.51l0.36-0.37h6.58 6.57zm-68.73-0.19c-0.49 0.05-0.8 0.26-0.8 0.55 0 0.25-0.26 0.74-0.61 1.13-0.14 0.17-0.34 0.53-0.44 0.8-0.1 0.28-0.28 0.59-0.39 0.7-0.12 0.11-0.29 0.38-0.39 0.6-0.1 0.22-0.23 0.51-0.29 0.65-0.07 0.14-0.24 0.39-0.38 0.55-0.15 0.17-0.35 0.53-0.46 0.8-0.2 0.54-0.27 0.65-0.61 0.98-0.13 0.12-0.28 0.38-0.33 0.59-0.06 0.21-0.3 0.67-0.54 1.01-0.24 0.35-0.48 0.8-0.55 1-0.07 0.21-0.26 0.5-0.42 0.65-0.16 0.15-0.29 0.32-0.29 0.38 0 0.05-0.09 0.28-0.2 0.5-0.11 0.22-0.19 0.44-0.2 0.5 0 0.06-0.16 0.25-0.35 0.43-0.19 0.18-0.35 0.41-0.35 0.5 0 0.23-0.37 0.9-0.71 1.29-0.16 0.18-0.32 0.45-0.35 0.6q-0.13 0.56-0.58 1.08c-0.14 0.16-0.34 0.52-0.43 0.78-0.1 0.27-0.3 0.6-0.45 0.72-0.16 0.13-0.28 0.3-0.28 0.37 0 0.08-0.04 0.18-0.09 0.23-0.05 0.06-0.14 0.27-0.21 0.48-0.07 0.21-0.27 0.54-0.46 0.72-0.19 0.19-0.34 0.41-0.34 0.5 0 0.24-0.46 1.07-0.74 1.33-0.14 0.13-0.28 0.36-0.31 0.53-0.08 0.33-0.29 0.79-0.42 0.88-0.18 0.13-0.61 0.89-0.68 1.2-0.04 0.18-0.19 0.41-0.36 0.54-0.43 0.31-0.43 1.19 0.01 1.62 0.16 0.16 0.3 0.33 0.3 0.38 0 0.19 0.39 0.94 0.69 1.31 0.17 0.22 0.35 0.55 0.41 0.75 0.05 0.2 0.23 0.52 0.4 0.72 0.3 0.34 0.7 1.11 0.7 1.33 0 0.07 0.17 0.3 0.37 0.53 0.21 0.23 0.46 0.66 0.57 0.97 0.1 0.31 0.29 0.64 0.42 0.74 0.13 0.09 0.33 0.42 0.45 0.72 0.13 0.31 0.37 0.74 0.54 0.96 0.17 0.22 0.39 0.6 0.48 0.85 0.09 0.25 0.28 0.57 0.42 0.73 0.28 0.3 0.64 1.02 0.65 1.29 0 0.09 0.14 0.29 0.31 0.45 0.28 0.26 0.79 1.18 0.79 1.43 0 0.06 0.15 0.26 0.33 0.44 0.18 0.18 0.38 0.51 0.45 0.74 0.07 0.22 0.27 0.59 0.46 0.81 0.18 0.21 0.39 0.54 0.45 0.73 0.22 0.57 0.3 0.72 0.64 1.14 0.18 0.22 0.39 0.6 0.47 0.85 0.08 0.24 0.24 0.53 0.35 0.64q0.42 0.4 0.65 1.09c0.07 0.21 0.25 0.53 0.41 0.71 0.15 0.17 0.38 0.56 0.49 0.85 0.12 0.29 0.37 0.71 0.56 0.94 0.19 0.22 0.37 0.54 0.4 0.71 0.15 0.78-1.41 0.71 14.54 0.71 15.41 0 14.44 0.03 14.57-0.56 0.09-0.42 0.33-0.87 0.54-1.02 0.17-0.11 0.61-0.95 0.61-1.15 0-0.05 0.16-0.26 0.35-0.48 0.19-0.22 0.35-0.43 0.35-0.48 0-0.19 0.51-1.16 0.65-1.24 0.09-0.05 0.27-0.35 0.4-0.68 0.13-0.33 0.38-0.76 0.55-0.97 0.17-0.2 0.4-0.61 0.51-0.9 0.11-0.29 0.35-0.7 0.53-0.91 0.19-0.21 0.39-0.56 0.46-0.78 0.06-0.21 0.24-0.54 0.4-0.71 0.26-0.31 0.7-1.16 0.7-1.36 0-0.06 0.16-0.26 0.35-0.45 0.18-0.2 0.37-0.46 0.4-0.59 0.14-0.47 0.39-0.94 0.71-1.31 0.18-0.21 0.35-0.53 0.39-0.71 0.03-0.18 0.21-0.5 0.39-0.72 0.36-0.42 0.67-0.99 0.67-1.22 0-0.07 0.14-0.28 0.31-0.45 0.17-0.17 0.44-0.63 0.59-1.01 0.26-0.63 0.42-0.86 0.61-0.86 0.04 0 0.17-0.3 0.3-0.67 0.13-0.37 0.38-0.82 0.55-1 0.17-0.19 0.41-0.6 0.54-0.93 0.12-0.32 0.28-0.61 0.35-0.64 0.15-0.06 0.65-0.98 0.65-1.2 0-0.07 0.16-0.29 0.35-0.48 0.5-0.49 0.51-1.19 0.01-1.72-0.19-0.19-0.37-0.47-0.4-0.62-0.04-0.15-0.19-0.45-0.34-0.67-0.52-0.78-0.72-1.13-0.72-1.3 0-0.1-0.13-0.31-0.28-0.48-0.28-0.28-0.43-0.54-0.77-1.35-0.09-0.21-0.26-0.45-0.36-0.53-0.18-0.12-0.37-0.48-0.69-1.29-0.07-0.17-0.21-0.4-0.32-0.5-0.11-0.1-0.33-0.45-0.49-0.78-0.16-0.33-0.43-0.78-0.59-1-0.16-0.22-0.33-0.55-0.36-0.73-0.04-0.18-0.22-0.48-0.4-0.67-0.34-0.35-0.58-0.8-0.69-1.28-0.03-0.15-0.21-0.43-0.39-0.61-0.18-0.19-0.43-0.6-0.55-0.92-0.12-0.31-0.32-0.65-0.44-0.74-0.13-0.1-0.31-0.42-0.42-0.71-0.17-0.47-0.32-0.71-0.71-1.13-0.06-0.07-0.2-0.37-0.32-0.69-0.12-0.32-0.38-0.73-0.56-0.92-0.19-0.19-0.38-0.49-0.42-0.68-0.11-0.5-0.36-0.97-0.55-1.03-0.1-0.03-0.27-0.32-0.4-0.64-0.12-0.33-0.37-0.77-0.55-0.99-0.19-0.21-0.37-0.52-0.41-0.68-0.08-0.34-0.27-0.67-0.65-1.11-0.16-0.18-0.34-0.52-0.41-0.75-0.07-0.24-0.19-0.5-0.27-0.58-0.14-0.14-26.54-0.26-28.03-0.13zm27.8 0.29c0.12 0.04 0.22 0.12 0.22 0.2 0 0.44 0.37 1.28 0.65 1.47 0.38 0.27 0.45 0.36 0.45 0.65 0 0.32 0.33 0.92 0.68 1.24q0.29 0.28 0.36 0.66c0.04 0.28 0.16 0.48 0.39 0.68q0.34 0.29 0.55 0.92c0.22 0.67 0.36 0.86 0.69 0.96 0.16 0.05 0.22 0.18 0.26 0.54 0.08 0.61 0.3 1.05 0.62 1.23 0.19 0.09 0.3 0.29 0.42 0.69 0.19 0.66 0.38 0.98 0.63 1.06q0.18 0.06 0.3 0.52c0.13 0.52 0.26 0.74 0.55 0.9 0.11 0.06 0.28 0.37 0.4 0.74 0.22 0.69 0.4 0.98 0.71 1.15 0.11 0.06 0.21 0.19 0.22 0.3 0.1 0.63 0.38 1.22 0.69 1.43 0.18 0.13 0.34 0.28 0.34 0.35 0 0.34 0.24 0.88 0.54 1.2 0.19 0.2 0.4 0.53 0.46 0.74 0.24 0.73 0.3 0.83 0.58 0.93 0.24 0.08 0.3 0.17 0.35 0.54 0.06 0.44 0.35 1.15 0.47 1.15 0.19 0 0.6 0.52 0.6 0.75 0 0.36 0.35 1.02 0.64 1.21q0.24 0.16 0.37 0.66c0.07 0.28 0.19 0.53 0.26 0.56 0.15 0.05 0.18 1.22 0.03 1.22-0.05 0-0.17 0.25-0.26 0.56-0.09 0.3-0.23 0.61-0.31 0.67-0.52 0.43-0.59 0.56-0.78 1.5-0.03 0.16-0.16 0.32-0.33 0.4-0.33 0.15-0.59 0.65-0.68 1.3-0.05 0.37-0.11 0.48-0.25 0.48-0.21 0-0.59 0.45-0.59 0.7 0 0.19-0.24 0.69-0.38 0.79-0.24 0.17-0.61 0.8-0.67 1.16-0.05 0.3-0.14 0.45-0.4 0.62-0.21 0.14-0.36 0.33-0.4 0.52-0.04 0.17-0.11 0.33-0.16 0.36-0.05 0.04-0.09 0.22-0.09 0.41 0 0.26-0.06 0.36-0.23 0.43-0.33 0.13-0.52 0.39-0.71 1.03-0.1 0.33-0.27 0.65-0.41 0.75-0.27 0.22-0.5 0.65-0.6 1.1-0.04 0.18-0.15 0.35-0.24 0.38-0.2 0.06-0.55 0.72-0.71 1.31q-0.1 0.41-0.36 0.53c-0.28 0.12-0.64 0.8-0.65 1.21 0 0.31-0.07 0.42-0.41 0.59-0.2 0.1-0.33 0.31-0.49 0.78-0.13 0.4-0.35 0.78-0.56 1q-0.33 0.35-0.4 0.74-0.06 0.39-0.38 0.67c-0.38 0.33-0.66 0.85-0.66 1.24 0 0.28-0.03 0.32-0.49 0.67-0.24 0.19-0.61 1.01-0.61 1.38 0 0.33-0.16 0.34-14.26 0.34-14.67 0-14.22 0.01-14.31-0.44-0.03-0.17-0.09-0.4-0.14-0.51-0.04-0.11-0.13-0.32-0.19-0.47-0.06-0.15-0.23-0.33-0.38-0.4-0.22-0.1-0.3-0.23-0.35-0.57-0.08-0.46-0.4-1.04-0.68-1.24-0.23-0.17-0.41-0.51-0.41-0.79 0-0.13-0.15-0.42-0.34-0.64-0.2-0.22-0.45-0.64-0.57-0.95q-0.36-0.9-0.64-0.9c-0.07 0-0.15-0.11-0.19-0.25-0.19-0.77-0.49-1.35-0.76-1.52-0.17-0.09-0.3-0.23-0.3-0.31 0-0.36-0.26-0.95-0.55-1.25-0.39-0.4-0.55-0.68-0.55-0.97 0-0.13-0.17-0.39-0.4-0.61-0.22-0.21-0.4-0.48-0.4-0.58 0-0.11-0.04-0.22-0.09-0.25-0.05-0.03-0.12-0.21-0.15-0.4-0.06-0.33-0.27-0.58-0.57-0.69-0.09-0.03-0.19-0.2-0.23-0.39q-0.2-1.02-0.72-1.36-0.35-0.22-0.34-0.47c0-0.36-0.15-0.69-0.49-1.07-0.16-0.19-0.4-0.61-0.53-0.94q-0.24-0.6-0.5-0.72c-0.19-0.09-0.29-0.25-0.37-0.6-0.18-0.7-0.38-1.08-0.64-1.2-0.18-0.08-0.28-0.27-0.42-0.74-0.13-0.48-0.27-0.73-0.56-1.01-0.22-0.22-0.39-0.48-0.39-0.6 0-0.13-0.09-0.37-0.2-0.55-0.26-0.43-0.26-1.11 0-1.58 0.11-0.19 0.2-0.44 0.2-0.55 0-0.11 0.17-0.37 0.38-0.58 0.29-0.29 0.43-0.54 0.57-1.05q0.18-0.67 0.36-0.72c0.27-0.09 0.54-0.53 0.68-1.12 0.1-0.41 0.2-0.57 0.42-0.7 0.2-0.12 0.33-0.32 0.45-0.69 0.09-0.29 0.32-0.7 0.51-0.91 0.38-0.41 0.53-0.71 0.53-1.08 0-0.14 0.12-0.32 0.31-0.47 0.32-0.24 0.63-0.81 0.74-1.35 0.04-0.19 0.19-0.42 0.39-0.57 0.3-0.23 0.66-0.97 0.66-1.36 0-0.14 0.19-0.34 0.4-0.42q0.26-0.09 0.49-0.95c0.07-0.26 0.19-0.45 0.31-0.48 0.2-0.07 0.54-0.69 0.66-1.21 0.04-0.16 0.24-0.46 0.45-0.67 0.28-0.28 0.41-0.5 0.5-0.92 0.1-0.43 0.2-0.61 0.45-0.81q0.32-0.25 0.49-0.75c0.1-0.28 0.35-0.71 0.56-0.96 0.22-0.25 0.39-0.55 0.39-0.67 0-0.33 0.22-0.76 0.42-0.82 0.23-0.08 0.57-0.68 0.65-1.16 0.05-0.31 0.14-0.46 0.38-0.61 0.3-0.2 0.65-0.91 0.65-1.31 0-0.49-0.73-0.47 14.24-0.47 7.66 0 14.03 0.03 14.16 0.06zm-68.64 3.4c-0.9 0.49-0.83 3.8 0.08 4.15 0.17 0.06 2.57 0.09 6.61 0.07l6.33-0.03 0.28-0.27c0.28-0.28 0.28-0.3 0.31-1.7 0.06-2.6 0.71-2.38-7.09-2.37-5.33 0-6.29 0.02-6.52 0.15zm96.15-0.02c-0.56 0.25-0.62 0.47-0.62 2.06 0 2.4-0.62 2.2 7.1 2.2 7.71 0 7.1 0.19 7.1-2.16 0-1.6-0.08-1.86-0.63-2.1-0.47-0.19-12.51-0.19-12.95 0zm-83.45 0.56c0.69 0.46 0.66 2.64-0.04 3.02-0.22 0.11-1.34 0.13-6.2 0.13h-5.93l-0.28-0.27c-0.64-0.64-0.34-2.86 0.41-3.01 0.64-0.13 11.83-0.01 12.04 0.13zm95.98-0.02c0.41 0.2 0.59 0.66 0.59 1.52 0 0.86-0.18 1.32-0.59 1.53-0.47 0.24-11.48 0.27-12.04 0.04-0.85-0.36-0.87-2.76-0.02-3.13 0.53-0.23 11.6-0.2 12.06 0.04zm-74.14 0.97c0 0.28-0.11 0.33-0.28 0.12q-0.13-0.13 0-0.25 0.28-0.28 0.28 0.13zm40.37-0.12c0.11 0.11 0.1 0.16-0.05 0.25-0.2 0.12-0.31-0.01-0.22-0.25 0.06-0.16 0.11-0.16 0.27 0zm-22.11 0.63c-0.42 0.07-1.15 0.34-1.15 0.44 0 0.05-0.26 0.12-0.57 0.15-2.31 0.23-2.5 0.28-3.15 0.81-0.15 0.12-0.48 0.25-0.75 0.29-0.69 0.09-0.99 0.23-1.45 0.67-0.22 0.21-0.49 0.38-0.6 0.38-0.29 0-0.76 0.31-0.82 0.52-0.02 0.1-0.13 0.21-0.23 0.24-0.5 0.16-1.08 0.54-1.4 0.92-0.19 0.23-0.4 0.43-0.47 0.43-0.15 0-0.56 0.41-0.56 0.55 0 0.06-0.19 0.21-0.41 0.35-0.25 0.15-0.49 0.41-0.62 0.67-0.12 0.24-0.27 0.43-0.34 0.43-0.2 0-0.68 0.73-0.87 1.32-0.04 0.1-0.14 0.21-0.24 0.25-0.25 0.09-0.41 0.32-0.53 0.78-0.06 0.23-0.26 0.54-0.46 0.72-0.28 0.27-0.37 0.46-0.55 1.2-0.13 0.56-0.27 0.92-0.39 1-0.34 0.24-0.5 0.75-0.6 1.94-0.1 1.28-0.11 1.3-0.49 2.09-0.4 0.85-0.4 4.26 0 5.11 0.38 0.78 0.38 0.8 0.49 2.06 0.11 1.2 0.18 1.42 0.56 1.84 0.14 0.15 0.31 0.58 0.44 1.1 0.18 0.69 0.28 0.91 0.56 1.16 0.18 0.18 0.36 0.45 0.4 0.6 0.1 0.47 0.27 0.74 0.56 0.92 0.16 0.09 0.28 0.22 0.28 0.3 0 0.07 0.09 0.29 0.2 0.5 0.17 0.33 0.31 0.51 0.72 0.89q0.23 0.21 0.44 0.58c0.06 0.1 0.2 0.24 0.3 0.29 0.22 0.12 0.75 0.66 0.75 0.76 0 0.04 0.2 0.2 0.45 0.36 0.24 0.15 0.45 0.32 0.45 0.36 0 0.22 0.72 0.68 1.42 0.92 0.1 0.03 0.18 0.12 0.18 0.19 0 0.22 0.31 0.44 0.78 0.57 0.24 0.06 0.54 0.24 0.68 0.4 0.28 0.31 0.9 0.6 1.29 0.6q0.48 0.01 1.15 0.51c0.45 0.34 0.99 0.47 2.33 0.55 0.59 0.03 1.07 0.1 1.07 0.15 0 0.59 4.8 0.71 5.64 0.14 0.29-0.19 0.53-0.24 1.33-0.3 1.33-0.08 1.92-0.22 2.34-0.54 0.5-0.39 0.53-0.4 1.16-0.52 0.55-0.1 0.97-0.32 1.36-0.71 0.09-0.09 0.34-0.22 0.55-0.28 0.43-0.13 0.63-0.27 0.79-0.55 0.06-0.11 0.3-0.26 0.54-0.34 0.26-0.08 0.62-0.32 0.89-0.6 0.25-0.25 0.58-0.51 0.73-0.58 0.15-0.07 0.39-0.3 0.53-0.52 0.14-0.22 0.38-0.47 0.53-0.55 0.16-0.08 0.36-0.32 0.46-0.54 0.1-0.22 0.29-0.45 0.42-0.51 0.26-0.11 0.62-0.65 0.79-1.16 0.06-0.16 0.2-0.35 0.33-0.4 0.22-0.1 0.52-0.6 0.52-0.87 0-0.08 0.16-0.32 0.34-0.53q0.54-0.61 0.71-1.57c0.03-0.2 0.22-0.57 0.41-0.82 0.31-0.41 0.37-0.57 0.44-1.29 0.05-0.45 0.12-1.12 0.16-1.47 0.05-0.47 0.15-0.75 0.33-1l0.26-0.34v-2.26c0-2.25-0.11-3.01-0.44-3.01-0.04 0-0.11-0.3-0.14-0.67-0.21-2.18-0.25-2.35-0.54-2.72q-0.52-0.67-0.53-1.16c0-0.36-0.35-1.07-0.68-1.37-0.18-0.17-0.31-0.41-0.35-0.64-0.06-0.4-0.32-0.74-0.54-0.74-0.07 0-0.18-0.13-0.23-0.28-0.26-0.7-0.67-1.32-0.88-1.32-0.05 0-0.23-0.23-0.4-0.51-0.17-0.27-0.39-0.53-0.49-0.56-0.22-0.09-0.5-0.4-0.58-0.64-0.03-0.1-0.15-0.21-0.25-0.25-0.11-0.03-0.44-0.28-0.72-0.55-0.54-0.5-1.03-0.8-1.32-0.8-0.09 0-0.16-0.04-0.16-0.09 0-0.16-0.61-0.71-0.8-0.71-0.26 0-0.7-0.24-0.86-0.48-0.2-0.28-0.68-0.49-1.33-0.57-0.37-0.05-0.63-0.15-0.85-0.34-0.55-0.48-0.7-0.52-3.09-0.76-0.32-0.03-0.58-0.1-0.58-0.14 0-0.34-3.25-0.65-4.65-0.45zm3.85 0.59c0.58 0.09 1.37 0.2 1.75 0.25 1.25 0.16 1.78 0.3 2.1 0.54 0.17 0.12 0.62 0.31 1 0.41 0.73 0.2 1.21 0.4 1.32 0.57 0.03 0.06 0.39 0.25 0.79 0.44 0.4 0.18 0.79 0.42 0.86 0.53 0.08 0.1 0.33 0.28 0.57 0.4 0.23 0.13 0.59 0.37 0.8 0.54 0.2 0.18 0.57 0.48 0.82 0.67 0.25 0.19 0.54 0.46 0.64 0.59 0.11 0.14 0.35 0.39 0.54 0.56 0.19 0.17 0.48 0.51 0.65 0.76 0.17 0.24 0.43 0.56 0.58 0.7 0.15 0.14 0.34 0.42 0.42 0.62 0.09 0.2 0.29 0.49 0.45 0.65 0.17 0.15 0.37 0.48 0.47 0.73 0.09 0.24 0.32 0.65 0.5 0.9 0.2 0.27 0.4 0.72 0.51 1.15 0.16 0.64 0.37 1.11 0.56 1.25 0.12 0.09 0.28 0.88 0.43 2.05 0.08 0.61 0.2 1.39 0.27 1.75 0.15 0.82 0.16 3.14 0 4-0.06 0.36-0.18 1.17-0.26 1.81-0.16 1.3-0.3 1.84-0.56 2.17-0.1 0.13-0.26 0.49-0.35 0.81-0.09 0.31-0.21 0.7-0.26 0.87-0.05 0.16-0.21 0.44-0.36 0.62-0.16 0.18-0.36 0.55-0.46 0.84-0.1 0.28-0.34 0.67-0.53 0.85-0.19 0.19-0.4 0.49-0.48 0.67-0.07 0.17-0.28 0.48-0.47 0.68-0.19 0.19-0.41 0.45-0.49 0.58-0.22 0.33-1.7 1.83-2.05 2.06-0.16 0.11-0.49 0.37-0.73 0.58-0.24 0.21-0.59 0.44-0.78 0.52-0.19 0.08-0.37 0.21-0.41 0.3-0.03 0.09-0.4 0.32-0.81 0.52-0.42 0.2-0.85 0.44-0.96 0.55-0.19 0.17-1.32 0.58-1.61 0.58-0.07 0-0.29 0.11-0.48 0.25-0.48 0.32-1.23 0.5-2.88 0.7-0.74 0.09-1.53 0.21-1.76 0.27-0.51 0.13-2.45 0.05-3.84-0.16-0.58-0.08-1.27-0.18-1.55-0.21-0.63-0.08-1.78-0.35-1.85-0.43-0.12-0.16-0.58-0.4-0.9-0.46-0.64-0.13-1.05-0.3-1.6-0.67-0.3-0.2-0.73-0.42-0.94-0.5-0.21-0.07-0.49-0.26-0.61-0.41-0.13-0.14-0.4-0.34-0.6-0.42-0.2-0.09-0.49-0.28-0.64-0.43-0.14-0.15-0.42-0.4-0.61-0.55-0.2-0.15-0.62-0.52-0.94-0.82-0.33-0.3-0.62-0.57-0.66-0.58-0.03-0.02-0.21-0.23-0.4-0.48-0.19-0.25-0.5-0.62-0.69-0.84-0.18-0.21-0.4-0.54-0.48-0.72-0.08-0.19-0.26-0.45-0.4-0.57-0.23-0.2-0.74-1.12-0.74-1.35 0-0.05-0.09-0.17-0.2-0.27-0.25-0.23-0.46-0.65-0.55-1.08q-0.17-0.86-0.52-1.33-0.35-0.47-0.62-2.79c-0.06-0.5-0.18-1.29-0.26-1.76-0.19-1.02-0.16-1.99 0.14-3.65 0.12-0.66 0.21-1.33 0.21-1.5 0-0.59 0.32-1.81 0.56-2.16 0.13-0.19 0.24-0.42 0.24-0.51 0-0.09 0.04-0.19 0.09-0.22 0.05-0.03 0.12-0.27 0.16-0.53 0.04-0.3 0.18-0.62 0.35-0.83 0.3-0.39 0.7-1.16 0.7-1.37 0-0.07 0.18-0.31 0.4-0.53 0.22-0.22 0.43-0.5 0.46-0.63 0.03-0.13 0.22-0.42 0.43-0.64 0.2-0.23 0.48-0.56 0.61-0.74 0.31-0.41 0.44-0.54 1.46-1.45 1.23-1.11 1.57-1.38 1.93-1.58 0.18-0.1 0.46-0.31 0.63-0.47 0.16-0.16 0.35-0.3 0.42-0.3 0.19 0 0.95-0.4 1.37-0.71 0.19-0.14 0.46-0.29 0.6-0.32 0.71-0.15 1.18-0.32 1.5-0.53 0.37-0.24 1-0.4 2.1-0.53 1.17-0.14 2.95-0.42 3-0.47 0.09-0.09 1.79 0.03 2.9 0.21zm-26.05 5.93c-0.19 0.19-0.38-0.09-0.2-0.29l0.19-0.21 0.03 0.22c0.02 0.12 0.01 0.25-0.02 0.28zm48.24-0.14c-0.07 0.2-0.27 0.18-0.27-0.02q-0.01-0.21 0.15-0.15c0.09 0.03 0.14 0.11 0.12 0.17zm-18.08 2.01c0 0.16-0.42 0.62-0.79 0.86-0.45 0.3-0.59 1.7-0.16 1.7 0.32 0 0.67 0.31 0.59 0.53-0.15 0.4-0.69 0.25-0.86-0.24-0.08-0.23-0.17-0.29-0.38-0.29-0.25 0-0.61-0.21-0.99-0.57-0.24-0.24-1.12-0.44-1.35-0.31-0.34 0.18-3.17 3.05-3.17 3.22 0 0.08 0.04 0.25 0.09 0.38 0.06 0.13 0.12 0.35 0.15 0.49 0.03 0.14 0.17 0.31 0.31 0.39 0.13 0.07 0.33 0.32 0.45 0.56 0.11 0.23 0.33 0.51 0.49 0.6 0.19 0.11 0.36 0.34 0.47 0.62 0.1 0.26 0.26 0.48 0.4 0.55 0.14 0.06 0.24 0.14 0.24 0.18 0 0.04 0.06 0.14 0.13 0.21 0.07 0.08 0.21 0.29 0.31 0.48 0.1 0.2 0.35 0.51 0.55 0.7 0.2 0.2 0.45 0.52 0.56 0.73 0.1 0.21 0.26 0.37 0.35 0.37 0.08 0 0.28 0.07 0.44 0.15 0.32 0.17 0.63 0.2 0.71 0.07 0.03-0.05 0.27-0.12 0.53-0.16 0.59-0.09 0.93-0.27 1.39-0.71 0.19-0.19 0.46-0.37 0.59-0.41 0.15-0.03 0.31-0.21 0.43-0.47 0.11-0.23 0.33-0.53 0.49-0.67 0.28-0.23 0.45-0.63 0.72-1.65 0.16-0.63-0.2-1.48-0.74-1.74-0.22-0.1-0.56-0.37-0.76-0.58-0.19-0.22-0.54-0.51-0.77-0.64-0.75-0.42-0.7-0.73 0.13-0.83 1.74-0.2 2.68-2.11 1.39-2.81-0.18-0.09-0.4-0.33-0.51-0.51-0.2-0.38-1.43-0.55-1.43-0.2zm1.34 0.6c0.2 0.19 0.39 0.36 0.43 0.37 0.58 0.26 0.71 1.01 0.24 1.35-0.21 0.15-0.45 0.41-0.54 0.56-0.22 0.38-1.31 0.37-1.45-0.01-0.09-0.27-0.45-0.61-0.64-0.61-0.41 0-0.4-0.77 0.02-1.16 0.12-0.1 0.36-0.34 0.53-0.51q0.69-0.69 1.41 0.01zm-4.73 1.28c0.12 0.07 0.31 0.23 0.43 0.35 0.21 0.22 0.92 0.63 1.1 0.63 0.06 0 0.2 0.15 0.32 0.34 0.13 0.19 0.34 0.36 0.5 0.4 0.35 0.09 0.53 0.24 0.64 0.53 0.05 0.12 0.24 0.29 0.42 0.38 0.18 0.09 0.48 0.34 0.68 0.54 0.43 0.45 0.75 0.66 1.17 0.75 0.6 0.14 0.74 2.05 0.18 2.51-0.34 0.28-0.72 0.87-0.8 1.24q-0.07 0.32-0.26 0.31c-0.28 0-1.17 0.58-1.24 0.81q-0.07 0.18-0.41 0.24c-0.19 0.03-0.51 0.08-0.72 0.12-0.21 0.04-0.42 0.05-0.48 0.04-0.05-0.02-0.29-0.08-0.52-0.14-0.25-0.06-0.43-0.16-0.43-0.24 0-0.24-0.31-0.76-0.7-1.14-0.21-0.21-0.46-0.56-0.56-0.78-0.1-0.24-0.31-0.49-0.49-0.6-0.18-0.1-0.35-0.3-0.39-0.46-0.08-0.32-0.34-0.61-0.59-0.66-0.11-0.02-0.24-0.2-0.32-0.44-0.08-0.22-0.3-0.54-0.5-0.72-0.62-0.54-0.65-1.05-0.07-1.38 0.18-0.11 0.35-0.28 0.39-0.4 0.07-0.22 0.4-0.55 0.56-0.55 0.12 0 0.47-0.42 0.47-0.57 0-0.06 0.17-0.22 0.38-0.34 0.2-0.13 0.39-0.27 0.41-0.31 0.2-0.47 0.51-0.64 0.83-0.46zm-44.13 2.66c0.15 0.09 0.35 0.27 0.45 0.4 0.12 0.13 0.37 0.25 0.66 0.31 0.55 0.1 0.96 0.34 1.07 0.63 0.04 0.11 0.25 0.33 0.47 0.47 0.34 0.23 0.41 0.35 0.54 0.88 0.12 0.47 0.25 0.71 0.53 0.98l0.37 0.36v1.84c0 1.93-0.08 2.39-0.49 2.68-0.1 0.07-0.29 0.32-0.41 0.56-0.12 0.23-0.35 0.49-0.51 0.57-0.16 0.08-0.4 0.32-0.53 0.53-0.13 0.21-0.39 0.45-0.57 0.52-0.18 0.07-0.47 0.29-0.65 0.49l-0.33 0.36-6.97 0.02-6.97 0.03-0.37-0.39c-0.29-0.32-0.46-0.41-0.86-0.47-0.53-0.08-0.95-0.29-0.95-0.48-0.01-0.15-0.36-0.56-0.48-0.56-0.2 0-0.52-0.4-0.58-0.72-0.03-0.18-0.07-0.43-0.1-0.55-0.02-0.12-0.22-0.41-0.44-0.64l-0.4-0.41v-1.59c0-1.62 0.08-2.05 0.39-2.15 0.22-0.07 0.51-0.57 0.51-0.88q0-0.66 0.55-0.98c0.2-0.12 0.42-0.34 0.51-0.5 0.17-0.35 0.53-0.54 1.16-0.63q0.47-0.07 0.53-0.24c0.03-0.09 0.2-0.27 0.38-0.39l0.32-0.23h6.45c5.97 0 6.48 0.01 6.72 0.18zm96.35 0.23c0.3 0.32 0.47 0.42 0.81 0.46 0.61 0.08 0.92 0.26 1.14 0.67 0.1 0.2 0.28 0.39 0.39 0.43 0.29 0.08 0.56 0.42 0.56 0.68 0 0.42 0.23 0.9 0.61 1.28l0.39 0.37v1.65 1.65l-0.38 0.38q-0.63 0.61-0.62 1.2c0 0.27-0.35 0.73-0.56 0.73-0.07 0-0.29 0.22-0.49 0.5-0.19 0.27-0.42 0.5-0.51 0.5-0.08 0-0.36 0.19-0.61 0.42l-0.46 0.43-6.94 0.02-6.94 0.03-0.37-0.4c-0.31-0.34-0.45-0.4-0.91-0.46-0.51-0.06-0.57-0.1-0.89-0.56-0.2-0.26-0.4-0.48-0.46-0.48-0.22 0-0.58-0.44-0.58-0.72 0-0.41-0.19-0.79-0.62-1.21l-0.38-0.38v-1.65-1.65l0.39-0.37c0.38-0.38 0.61-0.86 0.61-1.28 0-0.26 0.27-0.6 0.56-0.68 0.11-0.04 0.29-0.23 0.39-0.43 0.22-0.41 0.53-0.59 1.14-0.67 0.34-0.04 0.51-0.14 0.81-0.46l0.38-0.41h6.58 6.58zm-82.95 0.04c0 0.08-0.07 0.15-0.16 0.15-0.14 0-0.14-0.03-0.04-0.15 0.07-0.08 0.14-0.15 0.16-0.15q0.04 0.01 0.04 0.15zm56.03 0c0.1 0.12 0.1 0.15-0.04 0.15-0.09 0-0.16-0.07-0.16-0.15q0-0.14 0.04-0.15c0.02 0 0.09 0.07 0.16 0.15zm-17.32 2.59c-0.57 0.18-0.76 0.41-0.84 1.02-0.05 0.46-0.13 0.62-0.44 0.92-0.2 0.21-0.45 0.54-0.56 0.74-0.1 0.21-0.28 0.42-0.4 0.49-0.12 0.06-0.29 0.24-0.38 0.39-0.09 0.15-0.34 0.36-0.54 0.46-0.21 0.1-0.51 0.33-0.67 0.51q-0.28 0.33-0.65 0.39c-0.86 0.14-1.06 0.28-1.38 0.97-0.61 1.28 0.45 1.94 1.92 1.2 0.22-0.11 0.56-0.23 0.75-0.27 0.73-0.14 1.26-0.36 1.51-0.63 0.15-0.15 0.5-0.41 0.78-0.57 0.3-0.18 0.54-0.4 0.57-0.53 0.04-0.12 0.1-0.22 0.15-0.22 0.04 0 0.1-0.09 0.14-0.19 0.03-0.1 0.21-0.36 0.4-0.57 0.21-0.24 0.44-0.66 0.56-1.05 0.12-0.35 0.3-0.85 0.42-1.1 0.49-1.08 0.37-1.82-0.33-1.98-0.58-0.13-0.53-0.13-1.01 0.02zm1.04 0.32c0.21 0.05 0.27 0.11 0.22 0.23-0.16 0.39-0.45 1.67-0.51 2.28-0.06 0.6-0.09 0.68-0.39 0.85-0.19 0.11-0.41 0.39-0.56 0.68-0.13 0.27-0.29 0.5-0.36 0.5-0.06 0-0.21 0.14-0.32 0.3-0.12 0.16-0.4 0.37-0.62 0.47-0.22 0.1-0.49 0.32-0.59 0.49-0.18 0.29-0.26 0.32-1.02 0.43-1.17 0.16-2.01 0.33-2.14 0.42q-0.1 0.07-0.29-0.25c-0.33-0.63 0.36-1.55 1.16-1.55 0.3 0 0.73-0.26 0.87-0.52 0.07-0.14 0.3-0.31 0.5-0.4 0.5-0.22 1.2-0.93 1.42-1.43 0.09-0.22 0.29-0.47 0.43-0.55q0.39-0.2 0.62-1.37c0.09-0.44 0.68-0.79 1.15-0.68 0.08 0.02 0.28 0.06 0.43 0.1zm-13.04 0.02c-0.14 0.02-0.36 0.2-0.52 0.43-0.15 0.22-0.34 0.39-0.42 0.39-0.09 0-0.29 0.19-0.46 0.42-0.16 0.23-0.45 0.52-0.64 0.65-0.19 0.13-0.37 0.31-0.4 0.42-0.03 0.1-0.21 0.29-0.38 0.42-0.18 0.13-0.5 0.42-0.71 0.66-0.2 0.23-0.46 0.45-0.57 0.49-0.11 0.03-0.2 0.11-0.2 0.18 0 0.15-0.61 0.77-0.75 0.77-0.06 0-0.2 0.16-0.32 0.35-0.13 0.19-0.39 0.45-0.58 0.57-0.19 0.13-0.35 0.27-0.35 0.32 0 0.11-0.78 0.86-0.9 0.86-0.04 0-0.1 0.08-0.13 0.19-0.02 0.11-0.23 0.32-0.45 0.48-0.22 0.15-0.48 0.4-0.57 0.56-0.09 0.15-0.34 0.39-0.56 0.52-0.21 0.14-0.39 0.3-0.39 0.35 0 0.14-0.26 0.4-0.68 0.69-0.18 0.12-0.32 0.28-0.32 0.35 0 0.07-0.17 0.29-0.38 0.5-0.32 0.33-0.35 0.39-0.22 0.49 0.09 0.07 0.26 0.32 0.39 0.57 0.12 0.25 0.36 0.54 0.53 0.65 0.17 0.11 0.36 0.29 0.42 0.4 0.24 0.43 0.46 0.53 0.8 0.37 0.36-0.18 10.45-10.25 10.72-10.7 0.2-0.35 0.08-0.85-0.26-1.03-0.1-0.05-0.3-0.35-0.45-0.67-0.36-0.76-0.43-0.79-1.25-0.65zm-52.93 0.41c-0.86 0.13-1 0.43-1 2.17 0 2.36-0.54 2.2 7.11 2.2 7.73 0 7.15 0.19 7.09-2.41-0.04-1.7-0.11-1.83-1.01-1.96-0.64-0.09-11.55-0.09-12.19 0zm96.36-0.03c-0.08 0.01-0.31 0.06-0.5 0.09-0.63 0.1-0.75 0.45-0.75 2.1 0 2.38-0.56 2.21 7.1 2.21 7.66 0 7.1 0.17 7.11-2.21 0-1.5-0.12-1.94-0.6-2.11-0.2-0.07-12.06-0.15-12.36-0.08zm-42.44 0.55c0.14 0.31 0.35 0.58 0.52 0.68q0.74 0.41-0.01 0.84c-0.16 0.09-0.33 0.25-0.36 0.35-0.09 0.25-0.45 0.63-0.6 0.63-0.07 0-0.25 0.18-0.39 0.41-0.15 0.22-0.34 0.43-0.43 0.45-0.09 0.03-0.26 0.16-0.37 0.3-0.25 0.33-0.65 0.73-0.98 0.98-0.14 0.11-0.28 0.28-0.3 0.37-0.03 0.1-0.18 0.26-0.36 0.36-0.16 0.11-0.41 0.34-0.53 0.53-0.13 0.18-0.36 0.41-0.53 0.5-0.16 0.09-0.34 0.25-0.4 0.36q-0.3 0.58-0.61 0.68c-0.11 0.03-0.29 0.21-0.39 0.4-0.1 0.18-0.33 0.41-0.51 0.51-0.19 0.1-0.42 0.33-0.53 0.51-0.11 0.18-0.32 0.39-0.48 0.48-0.16 0.08-0.37 0.3-0.47 0.49-0.11 0.19-0.34 0.42-0.52 0.52-0.19 0.1-0.37 0.27-0.4 0.38-0.09 0.27-0.27 0.45-0.59 0.57-0.14 0.05-0.34 0.23-0.43 0.4q-0.35 0.58-0.63-0.02c-0.09-0.2-0.28-0.4-0.51-0.51-0.3-0.15-0.39-0.25-0.44-0.55-0.04-0.2-0.11-0.42-0.16-0.49q-0.1-0.12 0.11-0.42c0.11-0.16 0.21-0.33 0.21-0.38 0-0.05 0.18-0.2 0.4-0.33 0.22-0.14 0.42-0.32 0.45-0.42 0.03-0.09 0.24-0.31 0.47-0.5 0.23-0.18 0.46-0.39 0.52-0.47 0.14-0.18 0.6-0.63 0.77-0.77 0.08-0.06 0.27-0.27 0.43-0.47 0.16-0.21 0.35-0.37 0.4-0.37 0.06 0 0.2-0.12 0.31-0.27 0.28-0.38 0.61-0.73 0.69-0.73 0.1 0 0.46-0.39 0.46-0.5q0.01-0.09 0.08-0.1c0.04 0 1.17-1.08 2.51-2.4 2.47-2.43 2.43-2.41 3.22-2.49 0.09-0.01 0.24 0.18 0.38 0.49zm-41.88 0.04c0.4 0.17 0.46 0.25 0.64 0.75 0.36 1 0.02 2.18-0.69 2.45-0.59 0.22-11.46 0.2-11.91-0.03-0.86-0.45-0.81-2.78 0.07-3.17 0.48-0.21 11.39-0.21 11.89 0zm96.1-0.02c0.9 0.4 1.03 2.5 0.18 3.11l-0.3 0.22h-5.81c-5.46 0-5.82-0.02-6.07-0.19-0.82-0.56-0.75-2.8 0.11-3.14 0.4-0.16 11.52-0.16 11.89 0zm-81.95 7.14q-0.06 0.05-0.18-0.01-0.13-0.08 0.02-0.16c0.14-0.08 0.27 0.06 0.16 0.17zm56.1-0.05c-0.08 0.14-0.24 0.1-0.24-0.06q0.01-0.14 0.15-0.09 0.13 0.06 0.09 0.15zm-52.11 7.06c-0.03 0.04-0.13 0-0.22-0.07-0.14-0.13-0.14-0.15 0.03-0.27 0.18-0.14 0.36 0.18 0.19 0.34zm48.21-0.28c0.03 0.05-0.01 0.14-0.09 0.21-0.13 0.11-0.15 0.09-0.15-0.09 0-0.21 0.14-0.28 0.24-0.12zm-65.37 0.8c0.36 0.35 0.71 0.51 1.42 0.66 0.18 0.04 0.36 0.18 0.48 0.39 0.11 0.19 0.37 0.46 0.59 0.6 0.34 0.23 0.4 0.33 0.54 0.93 0.08 0.38 0.2 0.7 0.26 0.72 0.07 0.02 0.17 0.1 0.23 0.18 0.07 0.08 0.18 0.2 0.25 0.28 0.09 0.1 0.12 0.62 0.12 1.83v1.7l-0.38 0.39c-0.29 0.3-0.41 0.52-0.51 0.97-0.11 0.5-0.17 0.61-0.53 0.84-0.22 0.15-0.44 0.37-0.48 0.49-0.12 0.31-0.51 0.55-1.08 0.65-0.28 0.05-0.55 0.18-0.67 0.32-0.54 0.61-0.08 0.57-7.17 0.57h-6.48l-0.42-0.4c-0.3-0.29-0.54-0.42-0.83-0.47-0.56-0.08-0.95-0.3-1.06-0.58-0.05-0.13-0.29-0.37-0.54-0.55-0.36-0.24-0.46-0.38-0.51-0.68-0.03-0.2-0.08-0.46-0.1-0.57-0.02-0.11-0.22-0.39-0.44-0.63l-0.41-0.42v-1.64-1.65l0.4-0.42c0.22-0.23 0.42-0.51 0.45-0.63 0.02-0.12 0.06-0.37 0.09-0.55 0.06-0.35 0.14-0.45 0.63-0.8 0.18-0.12 0.38-0.35 0.45-0.49 0.07-0.15 0.25-0.3 0.38-0.34 1-0.28 1.19-0.37 1.53-0.71l0.37-0.38h6.52 6.51zm96.11 0.01c0.35 0.36 0.66 0.49 1.44 0.65 0.15 0.03 0.32 0.18 0.43 0.39 0.1 0.19 0.35 0.45 0.54 0.58 0.41 0.27 0.46 0.35 0.62 1.03 0.08 0.35 0.23 0.6 0.51 0.88l0.4 0.38v1.65 1.65l-0.39 0.38c-0.36 0.35-0.5 0.65-0.66 1.43-0.03 0.16-0.18 0.33-0.39 0.44-0.18 0.1-0.44 0.36-0.57 0.57-0.25 0.4-0.49 0.53-1.13 0.62-0.27 0.04-0.49 0.17-0.77 0.46l-0.4 0.4h-6.55-6.55l-0.4-0.4c-0.28-0.29-0.5-0.42-0.77-0.46-0.63-0.09-0.88-0.22-1.13-0.62-0.13-0.21-0.38-0.47-0.57-0.57-0.21-0.11-0.36-0.28-0.39-0.44-0.16-0.78-0.3-1.08-0.66-1.43l-0.39-0.38v-1.65-1.65l0.4-0.38c0.29-0.28 0.43-0.53 0.51-0.88 0.16-0.68 0.21-0.76 0.62-1.03 0.19-0.13 0.44-0.39 0.54-0.58 0.11-0.21 0.28-0.36 0.44-0.39 0.77-0.16 1.08-0.29 1.43-0.65l0.38-0.39h6.54 6.54zm-109.08 3.4c-0.89 0.14-1.05 0.47-1.05 2.15 0 1.39 0.12 1.83 0.56 2.07 0.46 0.25 12.79 0.21 13.16-0.04 0.73-0.49 0.7-3.58-0.04-4.07-0.23-0.16-11.7-0.26-12.63-0.11zm96.08-0.02c-1.25 0.14-1.59 3.61-0.41 4.24 0.39 0.21 12.58 0.21 12.98 0 0.87-0.46 0.92-3.5 0.07-4.08-0.25-0.17-11.31-0.31-12.64-0.16zm-84.12 0.6c0.7 0.27 1.01 1.45 0.66 2.46-0.31 0.89-0.21 0.87-6.49 0.87-6.82 0-6.58 0.05-6.66-1.39-0.08-1.34 0.06-1.72 0.73-1.96 0.64-0.23 11.19-0.21 11.76 0.02zm96.32 0.08c0.92 0.57 0.68 2.86-0.33 3.14-0.53 0.15-10.99 0.15-11.58 0.01-1.21-0.31-1.16-3.09 0.06-3.33 0.86-0.17 11.55-0.01 11.85 0.18zm-74.21 2.1c0 0.3-0.15 0.33-0.3 0.06q-0.11-0.2 0.02-0.24c0.24-0.1 0.28-0.07 0.28 0.18zm40.35 0.07c-0.16 0.19-0.17 0.19-0.24 0.01q-0.14-0.36 0.22-0.26c0.19 0.06 0.19 0.07 0.02 0.25zm34.68 11.45c0.28 0.29 0.51 0.4 0.99 0.51 0.56 0.13 0.66 0.19 0.93 0.58 0.16 0.24 0.42 0.5 0.57 0.57 0.15 0.07 0.3 0.24 0.34 0.38 0.04 0.14 0.12 0.44 0.19 0.67 0.07 0.23 0.3 0.61 0.51 0.83l0.38 0.42v1.55c0 1.63-0.09 2.06-0.51 2.19-0.17 0.05-0.49 0.76-0.49 1.11 0 0.25-0.36 0.73-0.55 0.73-0.07 0-0.27 0.2-0.44 0.45-0.28 0.4-0.36 0.45-0.98 0.59-0.37 0.09-0.69 0.21-0.71 0.27-0.02 0.06-0.16 0.22-0.3 0.35l-0.27 0.25h-54.65-54.66l-0.39-0.4c-0.21-0.22-0.45-0.4-0.53-0.4-0.53 0-1.14-0.32-1.36-0.7-0.13-0.22-0.28-0.41-0.35-0.41-0.3-0.01-0.56-0.38-0.66-0.96-0.09-0.44-0.18-0.65-0.4-0.84-0.47-0.4-0.51-0.58-0.51-2.2 0-1.61 0.03-1.78 0.51-2.2 0.2-0.18 0.31-0.4 0.38-0.78 0.13-0.64 0.15-0.69 0.52-0.91 0.16-0.1 0.42-0.36 0.58-0.58 0.26-0.36 0.37-0.43 0.88-0.54q0.58-0.12 0.83-0.39c0.14-0.14 0.34-0.32 0.45-0.38 0.15-0.09 13.97-0.12 54.77-0.12h54.56zm-109.57 3.49c-0.9 0.49-0.83 3.8 0.08 4.15 0.38 0.14 108.57 0.13 108.98-0.01 0.58-0.2 0.67-0.48 0.67-2.05 0.01-1.6-0.07-1.87-0.63-2.1-0.52-0.22-108.69-0.21-109.1 0.01zm108.68 0.52c0.89 0.44 0.82 2.65-0.09 3.1l-0.45 0.22h-53.48c-57.34 0-53.95 0.03-54.47-0.48-0.58-0.58-0.22-2.81 0.47-2.95 0.83-0.16 107.7-0.05 108.02 0.11z"/>
		<path id="path3" fill-rule="evenodd" class="s3" d="m3.4 0.24c0 0.23-0.03 0.24-0.81 0.28-0.89 0.04-1.09 0.16-1.09 0.7 0 0.24-0.04 0.28-0.28 0.28-0.54 0-0.66 0.2-0.7 1.09-0.04 0.78-0.05 0.81-0.28 0.81h-0.24v46.63 46.63h0.25c0.24 0 0.25 0.02 0.26 0.62 0.02 0.97 0.08 1.11 0.55 1.22 0.37 0.08 0.42 0.12 0.5 0.49 0.11 0.48 0.25 0.54 1.22 0.56 0.59 0.01 0.62 0.02 0.62 0.26v0.25h65.24 65.24v-0.25c0-0.25 0-0.25 0.95-0.25h0.95v-0.5-0.5h0.5 0.5v-0.95c0-0.95 0-0.95 0.25-0.95h0.25v-46.63-46.63h-0.25c-0.24 0-0.25-0.03-0.26-0.62-0.02-0.97-0.08-1.11-0.55-1.22-0.37-0.08-0.42-0.13-0.5-0.5-0.11-0.47-0.25-0.53-1.22-0.55-0.6-0.01-0.62-0.02-0.62-0.26v-0.25h-65.24-65.24zm126.73 5.83c0.13 0.08 0.25 0.21 0.25 0.27 0 0.15 0.35 0.56 0.47 0.56 0.05 0 0.19 0.09 0.31 0.19l0.22 0.19-0.03 42.81-0.02 42.8-0.38 0.26c-0.2 0.14-0.47 0.41-0.6 0.6l-0.23 0.35-61.42 0.03-61.42 0.02-0.19-0.21c-0.1-0.12-0.19-0.26-0.19-0.31 0-0.12-0.41-0.47-0.56-0.47-0.46-0.02-0.44 2.61-0.44-43.13v-42.63l0.23-0.2c0.12-0.11 0.37-0.34 0.55-0.52 0.18-0.18 0.41-0.43 0.52-0.55l0.2-0.23h61.24c56.21 0 61.26 0.02 61.49 0.17zm-116.4 2.11c-0.34 0.34-0.52 0.43-1.52 0.71-0.14 0.04-0.31 0.19-0.38 0.34-0.07 0.15-0.33 0.41-0.57 0.58-0.36 0.24-0.46 0.38-0.51 0.67-0.11 0.74-0.15 0.83-0.55 1.22l-0.39 0.39v1.66 1.67l0.4 0.42c0.22 0.23 0.42 0.51 0.44 0.62 0.03 0.11 0.07 0.37 0.1 0.57 0.05 0.3 0.15 0.44 0.51 0.68 0.24 0.17 0.5 0.43 0.57 0.58 0.07 0.14 0.24 0.3 0.38 0.34 0.13 0.04 0.44 0.12 0.67 0.19 0.24 0.07 0.61 0.3 0.83 0.51l0.41 0.38h54.57 54.58l0.38-0.39c0.35-0.36 0.64-0.49 1.42-0.65 0.15-0.03 0.35-0.2 0.49-0.44 0.13-0.21 0.39-0.47 0.58-0.57 0.21-0.11 0.36-0.28 0.39-0.44 0.16-0.79 0.29-1.08 0.65-1.43l0.39-0.38v-1.65-1.65l-0.39-0.38c-0.36-0.35-0.49-0.65-0.65-1.43q-0.06-0.25-0.44-0.47c-0.21-0.12-0.47-0.38-0.58-0.57-0.12-0.23-0.28-0.38-0.44-0.41-0.77-0.16-1.07-0.3-1.42-0.66l-0.38-0.38h-54.58-54.58zm109.55 3.55c0.85 0.58 0.79 3.62-0.08 4.08-0.4 0.22-108.73 0.21-109.14 0-0.44-0.24-0.56-0.68-0.56-2.06 0-1.71 0.19-2.08 1.11-2.18 1.49-0.16 108.43-0.01 108.67 0.16zm-109.33 13.9c-0.11 0.06-0.31 0.23-0.45 0.38q-0.24 0.27-0.83 0.39c-0.5 0.11-0.62 0.18-0.87 0.54-0.17 0.22-0.43 0.48-0.59 0.58-0.36 0.22-0.39 0.27-0.51 0.91-0.07 0.38-0.18 0.6-0.38 0.78-0.48 0.42-0.52 0.59-0.52 2.2 0 1.62 0.04 1.8 0.51 2.2 0.21 0.19 0.32 0.4 0.39 0.8 0.1 0.54 0.41 1 0.67 1 0.07 0 0.23 0.19 0.36 0.41 0.21 0.38 0.82 0.7 1.36 0.7 0.08 0 0.32 0.18 0.54 0.4l0.39 0.4h6.61 6.62l0.36-0.39c0.29-0.32 0.46-0.41 0.98-0.51 0.57-0.12 0.66-0.17 0.85-0.51 0.12-0.2 0.36-0.45 0.55-0.55 0.31-0.17 0.62-0.83 0.62-1.33 0-0.07 0.18-0.31 0.4-0.53l0.4-0.39v-1.7-1.7l-0.4-0.39c-0.22-0.21-0.4-0.45-0.4-0.53 0-0.49-0.31-1.14-0.62-1.31-0.18-0.1-0.43-0.35-0.57-0.57-0.21-0.35-0.3-0.4-0.88-0.51-0.49-0.1-0.69-0.19-0.8-0.37-0.35-0.53-0.21-0.52-7.15-0.52-4.65 0-6.49 0.04-6.64 0.12zm95.82 0.24c-0.28 0.28-0.51 0.4-0.99 0.51-0.56 0.13-0.65 0.19-0.92 0.58-0.17 0.24-0.43 0.5-0.58 0.57-0.15 0.07-0.3 0.24-0.34 0.38-0.04 0.14-0.12 0.44-0.19 0.67-0.07 0.23-0.29 0.61-0.51 0.83l-0.38 0.42v1.53c0 1.61 0.11 2.08 0.51 2.21 0.17 0.05 0.49 0.77 0.49 1.11 0 0.25 0.36 0.73 0.55 0.73 0.08 0 0.28 0.2 0.44 0.45 0.28 0.4 0.37 0.45 0.95 0.59 0.52 0.11 0.71 0.21 0.96 0.5l0.32 0.37h6.63 6.64l0.31-0.37c0.26-0.29 0.45-0.39 0.97-0.5 0.58-0.14 0.67-0.19 0.94-0.59 0.17-0.25 0.37-0.45 0.45-0.45 0.19 0 0.55-0.48 0.55-0.73 0-0.34 0.31-1.06 0.49-1.11 0.4-0.13 0.51-0.6 0.51-2.21v-1.53l-0.39-0.42c-0.21-0.22-0.44-0.6-0.5-0.83-0.07-0.23-0.16-0.53-0.2-0.67-0.03-0.14-0.19-0.31-0.34-0.38-0.15-0.07-0.4-0.33-0.57-0.57-0.27-0.39-0.36-0.45-0.93-0.58-0.48-0.11-0.71-0.23-0.99-0.51l-0.36-0.36h-6.58-6.57zm-55.29 0.19c-0.09 0.09-0.16 0.23-0.16 0.31 0 0.41-0.35 1.11-0.65 1.31-0.24 0.16-0.34 0.31-0.38 0.61-0.08 0.48-0.42 1.09-0.65 1.16-0.2 0.06-0.42 0.5-0.42 0.82 0 0.12-0.17 0.43-0.39 0.68-0.21 0.24-0.47 0.67-0.56 0.95q-0.17 0.51-0.49 0.76c-0.25 0.19-0.36 0.37-0.45 0.8-0.09 0.42-0.22 0.65-0.5 0.93-0.21 0.2-0.41 0.5-0.45 0.67-0.12 0.51-0.46 1.14-0.66 1.2-0.12 0.04-0.24 0.22-0.31 0.48q-0.23 0.86-0.49 0.95c-0.21 0.08-0.4 0.28-0.4 0.42 0 0.39-0.36 1.14-0.66 1.36-0.2 0.16-0.35 0.38-0.39 0.57-0.11 0.54-0.42 1.11-0.75 1.36-0.18 0.14-0.3 0.33-0.3 0.47 0 0.36-0.15 0.66-0.53 1.08-0.19 0.21-0.42 0.61-0.51 0.9-0.12 0.37-0.25 0.57-0.46 0.69-0.22 0.13-0.31 0.3-0.41 0.7-0.14 0.59-0.41 1.03-0.68 1.12q-0.19 0.05-0.37 0.73c-0.13 0.51-0.27 0.76-0.56 1.04-0.21 0.21-0.38 0.47-0.38 0.58 0 0.11-0.09 0.36-0.2 0.56-0.27 0.46-0.27 1.14-0.01 1.57 0.11 0.18 0.21 0.43 0.21 0.55 0 0.13 0.16 0.39 0.39 0.6 0.29 0.28 0.43 0.54 0.56 1.01 0.13 0.48 0.24 0.67 0.42 0.75 0.26 0.12 0.46 0.49 0.63 1.2 0.09 0.34 0.19 0.5 0.38 0.6q0.26 0.12 0.5 0.72c0.13 0.33 0.37 0.75 0.53 0.93 0.34 0.39 0.49 0.72 0.49 1.08q-0.01 0.24 0.34 0.47 0.52 0.33 0.72 1.36c0.04 0.18 0.14 0.36 0.23 0.39 0.3 0.1 0.5 0.35 0.57 0.69 0.03 0.18 0.1 0.36 0.15 0.39 0.05 0.03 0.09 0.14 0.09 0.25 0 0.11 0.18 0.37 0.4 0.58 0.23 0.22 0.4 0.49 0.4 0.61 0 0.29 0.16 0.57 0.55 0.97 0.29 0.3 0.55 0.89 0.55 1.25 0 0.08 0.13 0.22 0.29 0.32 0.28 0.16 0.58 0.75 0.77 1.51 0.03 0.14 0.12 0.26 0.19 0.26q0.28-0.01 0.64 0.9c0.12 0.3 0.37 0.73 0.56 0.95 0.2 0.22 0.35 0.5 0.35 0.63 0 0.29 0.18 0.63 0.41 0.79 0.28 0.2 0.59 0.78 0.67 1.25 0.06 0.33 0.14 0.46 0.36 0.56 0.15 0.08 0.32 0.26 0.38 0.4 0.06 0.15 0.14 0.36 0.19 0.47 0.04 0.11 0.11 0.34 0.14 0.51 0.09 0.45-0.36 0.44 14.31 0.44 14.1 0 14.26 0 14.26-0.34 0-0.37 0.37-1.19 0.61-1.38 0.46-0.35 0.49-0.39 0.49-0.67 0-0.39 0.28-0.91 0.66-1.24q0.32-0.27 0.38-0.66 0.06-0.39 0.4-0.75c0.21-0.21 0.43-0.6 0.56-0.99 0.16-0.48 0.29-0.68 0.49-0.79 0.33-0.17 0.41-0.27 0.41-0.58 0.01-0.41 0.37-1.09 0.65-1.22q0.26-0.11 0.36-0.53c0.16-0.59 0.51-1.25 0.71-1.31 0.09-0.03 0.2-0.2 0.24-0.37 0.1-0.46 0.33-0.89 0.6-1.1 0.14-0.11 0.31-0.43 0.41-0.76 0.19-0.63 0.37-0.9 0.71-1.03 0.17-0.06 0.22-0.16 0.22-0.43 0-0.19 0.05-0.37 0.1-0.4 0.05-0.03 0.12-0.2 0.16-0.36 0.04-0.19 0.19-0.39 0.4-0.53 0.26-0.17 0.35-0.31 0.4-0.62 0.06-0.35 0.43-0.99 0.67-1.16 0.14-0.09 0.37-0.59 0.37-0.79 0-0.25 0.39-0.7 0.6-0.7 0.14 0 0.2-0.11 0.25-0.47 0.09-0.65 0.35-1.15 0.68-1.31 0.17-0.08 0.3-0.24 0.33-0.4 0.19-0.93 0.26-1.07 0.78-1.49 0.08-0.07 0.22-0.37 0.31-0.68 0.09-0.3 0.21-0.55 0.26-0.55 0.15 0 0.12-1.17-0.03-1.23-0.07-0.03-0.19-0.28-0.26-0.55q-0.13-0.51-0.37-0.67c-0.29-0.19-0.64-0.85-0.64-1.21 0-0.23-0.42-0.74-0.6-0.74-0.12 0-0.41-0.72-0.47-1.16-0.05-0.36-0.11-0.45-0.35-0.54-0.28-0.09-0.35-0.2-0.58-0.93-0.06-0.21-0.27-0.54-0.46-0.74-0.3-0.32-0.54-0.85-0.55-1.2 0-0.06-0.15-0.21-0.33-0.34-0.32-0.22-0.6-0.8-0.69-1.44-0.01-0.1-0.12-0.24-0.22-0.3-0.31-0.17-0.49-0.45-0.71-1.15-0.12-0.36-0.29-0.68-0.4-0.74-0.29-0.16-0.42-0.37-0.55-0.89q-0.12-0.46-0.3-0.53c-0.25-0.08-0.44-0.4-0.63-1.06-0.12-0.4-0.24-0.59-0.42-0.69-0.32-0.17-0.55-0.62-0.62-1.22-0.04-0.37-0.1-0.49-0.26-0.54-0.33-0.11-0.47-0.3-0.69-0.97q-0.21-0.63-0.55-0.91c-0.23-0.2-0.35-0.41-0.39-0.68q-0.07-0.39-0.36-0.66c-0.35-0.33-0.68-0.93-0.68-1.25 0-0.28-0.07-0.38-0.45-0.64-0.28-0.2-0.65-1.04-0.65-1.48 0-0.25-0.4-0.25-14.38-0.26-12.52 0-13.94 0.02-14.08 0.16zm-27.3 3.35c0.48 0.29 0.55 0.57 0.51 2.17-0.03 1.4-0.04 1.43-0.31 1.7l-0.28 0.28-6.34 0.03c-4.03 0.01-6.43-0.01-6.6-0.08-0.92-0.35-0.98-3.66-0.08-4.15 0.49-0.26 12.66-0.22 13.1 0.05zm96-0.06c0.55 0.23 0.63 0.5 0.63 2.1-0.01 2.35 0.61 2.16-7.1 2.16-7.72 0-7.1 0.19-7.1-2.2 0-1.6 0.06-1.82 0.62-2.07 0.44-0.19 12.48-0.19 12.95 0.01zm-74.84 1.37q-0.13 0.12-0.01 0.25c0.17 0.21 0.29 0.16 0.29-0.11q0-0.41-0.28-0.14zm40.38 0.01c-0.09 0.25 0.02 0.38 0.22 0.26 0.15-0.1 0.16-0.14 0.05-0.25-0.17-0.17-0.21-0.17-0.27-0.01zm-17.61 0.83c0.23 0.1 0.42 0.21 0.42 0.26 0 0.04 0.26 0.1 0.58 0.13 2.39 0.25 2.54 0.29 3.09 0.76 0.22 0.19 0.48 0.3 0.85 0.34 0.65 0.09 1.13 0.29 1.32 0.57 0.17 0.24 0.61 0.49 0.87 0.49 0.19 0 0.8 0.54 0.8 0.71 0 0.05 0.07 0.09 0.16 0.09 0.29 0 0.78 0.3 1.31 0.79 0.29 0.27 0.62 0.52 0.72 0.56 0.11 0.03 0.22 0.14 0.26 0.24 0.07 0.25 0.36 0.56 0.58 0.64 0.09 0.04 0.32 0.29 0.49 0.57 0.17 0.27 0.35 0.5 0.39 0.5 0.21 0 0.63 0.63 0.88 1.33 0.06 0.15 0.17 0.27 0.24 0.27 0.22 0 0.47 0.35 0.54 0.74 0.04 0.23 0.17 0.48 0.35 0.64 0.33 0.3 0.68 1.01 0.68 1.38q0.01 0.48 0.53 1.15c0.29 0.38 0.32 0.55 0.53 2.72 0.04 0.37 0.11 0.68 0.15 0.68 0.33 0 0.44 0.75 0.44 3.01v2.25l-0.26 0.35c-0.19 0.24-0.28 0.52-0.33 0.99-0.04 0.36-0.11 1.02-0.16 1.47-0.07 0.72-0.13 0.89-0.44 1.29-0.19 0.26-0.38 0.63-0.42 0.83q-0.16 0.96-0.7 1.56c-0.19 0.22-0.34 0.45-0.34 0.53 0 0.27-0.3 0.78-0.53 0.87-0.12 0.06-0.27 0.24-0.32 0.41-0.17 0.5-0.53 1.04-0.79 1.16-0.13 0.06-0.32 0.29-0.42 0.5-0.1 0.22-0.3 0.46-0.46 0.54-0.16 0.09-0.4 0.33-0.54 0.55-0.13 0.22-0.37 0.46-0.52 0.52-0.15 0.07-0.48 0.33-0.73 0.59-0.27 0.27-0.64 0.51-0.89 0.6-0.24 0.07-0.48 0.23-0.54 0.33-0.16 0.29-0.36 0.42-0.79 0.55-0.21 0.07-0.46 0.2-0.56 0.29-0.38 0.39-0.8 0.6-1.35 0.71-0.63 0.11-0.66 0.12-1.17 0.52-0.41 0.32-1 0.45-2.33 0.54-0.8 0.05-1.04 0.1-1.33 0.3-0.84 0.57-5.64 0.44-5.64-0.15 0-0.05-0.48-0.11-1.08-0.15-1.33-0.08-1.87-0.2-2.32-0.54q-0.67-0.51-1.16-0.51c-0.38 0-1-0.29-1.28-0.6-0.14-0.17-0.44-0.34-0.69-0.41-0.46-0.12-0.77-0.35-0.77-0.56 0-0.08-0.08-0.17-0.18-0.2-0.7-0.23-1.43-0.7-1.43-0.91 0-0.05-0.2-0.21-0.45-0.37-0.24-0.16-0.45-0.31-0.45-0.35 0-0.1-0.52-0.64-0.74-0.76-0.11-0.06-0.24-0.19-0.3-0.3q-0.21-0.37-0.44-0.58c-0.41-0.38-0.55-0.55-0.73-0.89-0.1-0.2-0.19-0.43-0.19-0.5 0-0.07-0.12-0.21-0.28-0.3-0.29-0.17-0.46-0.45-0.56-0.91-0.04-0.16-0.22-0.43-0.41-0.6-0.27-0.26-0.38-0.47-0.55-1.17-0.13-0.52-0.3-0.95-0.44-1.1-0.39-0.41-0.45-0.63-0.56-1.83-0.11-1.27-0.11-1.28-0.49-2.07-0.4-0.85-0.4-4.26 0-5.1 0.38-0.8 0.39-0.82 0.49-2.1 0.1-1.19 0.25-1.69 0.6-1.93 0.12-0.09 0.26-0.45 0.39-1.01 0.18-0.73 0.27-0.93 0.55-1.2 0.2-0.18 0.39-0.49 0.46-0.72 0.12-0.46 0.28-0.68 0.53-0.78 0.1-0.03 0.2-0.14 0.23-0.24 0.2-0.6 0.68-1.33 0.88-1.33 0.07 0 0.22-0.19 0.34-0.42 0.13-0.26 0.37-0.53 0.62-0.68 0.22-0.14 0.4-0.29 0.4-0.34 0-0.15 0.42-0.56 0.56-0.56 0.07 0 0.29-0.19 0.48-0.43 0.31-0.38 0.9-0.76 1.4-0.92 0.1-0.03 0.21-0.13 0.23-0.23 0.06-0.22 0.53-0.52 0.82-0.52 0.11 0 0.38-0.17 0.6-0.39 0.45-0.43 0.76-0.57 1.45-0.67 0.26-0.04 0.6-0.16 0.75-0.28 0.65-0.53 0.84-0.58 3.14-0.82 0.32-0.03 0.58-0.1 0.58-0.14 0-0.48 4.34-0.68 5.38-0.25zm-26.63 6.04c-0.17 0.19-0.18 0.21-0.02 0.27q0.31 0.14 0.24-0.26l-0.03-0.22zm48.16 0.12c0 0.12 0.06 0.19 0.12 0.17 0.19-0.06 0.21-0.25 0.04-0.31q-0.16-0.07-0.16 0.14zm-17.87 2.62c-0.17 0.18-0.41 0.41-0.53 0.52-0.42 0.39-0.44 1.15-0.02 1.15 0.19 0 0.55 0.34 0.64 0.61 0.13 0.39 1.23 0.39 1.44 0.01 0.09-0.15 0.34-0.4 0.55-0.55 0.47-0.34 0.34-1.09-0.24-1.35-0.04-0.02-0.23-0.19-0.43-0.38q-0.73-0.69-1.41-0.01zm-3.92 1.43c-0.12 0.14-0.22 0.29-0.24 0.33-0.01 0.04-0.2 0.17-0.4 0.3-0.21 0.13-0.38 0.28-0.38 0.35-0.01 0.15-0.35 0.56-0.48 0.56-0.15 0-0.49 0.34-0.56 0.56-0.03 0.11-0.21 0.29-0.39 0.39-0.57 0.34-0.55 0.84 0.08 1.39 0.2 0.17 0.42 0.5 0.5 0.72 0.08 0.24 0.2 0.41 0.32 0.43 0.25 0.05 0.51 0.34 0.59 0.67 0.04 0.15 0.21 0.35 0.38 0.46 0.18 0.1 0.4 0.36 0.5 0.59 0.1 0.23 0.35 0.58 0.56 0.78 0.38 0.38 0.7 0.9 0.7 1.15 0 0.08 0.18 0.18 0.43 0.24 0.23 0.05 0.47 0.11 0.52 0.13 0.06 0.02 0.27 0 0.48-0.03 0.2-0.04 0.53-0.1 0.72-0.13q0.34-0.05 0.4-0.24c0.07-0.22 0.97-0.8 1.25-0.8q0.19 0 0.26-0.31c0.08-0.38 0.46-0.97 0.8-1.25 0.56-0.46 0.41-2.37-0.19-2.5-0.41-0.09-0.74-0.3-1.17-0.76-0.19-0.2-0.49-0.44-0.68-0.53-0.18-0.09-0.36-0.27-0.41-0.39-0.11-0.29-0.29-0.43-0.64-0.52-0.16-0.04-0.38-0.22-0.5-0.41-0.12-0.18-0.26-0.33-0.32-0.34-0.18 0-0.89-0.4-1.11-0.63-0.48-0.51-0.75-0.56-1.02-0.21zm-57.03 2.57c-0.17 0.12-0.35 0.3-0.38 0.39q-0.05 0.17-0.52 0.24c-0.63 0.09-0.99 0.29-1.17 0.63-0.08 0.16-0.31 0.39-0.5 0.5q-0.55 0.33-0.55 0.98c0 0.32-0.29 0.82-0.51 0.89-0.32 0.1-0.39 0.52-0.39 2.14v1.59l0.4 0.42c0.22 0.23 0.42 0.51 0.44 0.63 0.02 0.12 0.07 0.37 0.1 0.56 0.05 0.32 0.37 0.71 0.58 0.71 0.12 0 0.47 0.42 0.47 0.56 0.01 0.19 0.43 0.41 0.96 0.49 0.4 0.06 0.57 0.15 0.86 0.46l0.36 0.4 6.98-0.03 6.97-0.03 0.33-0.36c0.18-0.19 0.47-0.41 0.65-0.49 0.18-0.07 0.43-0.3 0.57-0.51 0.13-0.21 0.37-0.45 0.53-0.53 0.15-0.09 0.38-0.34 0.51-0.58 0.12-0.23 0.3-0.49 0.41-0.56 0.4-0.28 0.49-0.74 0.49-2.68v-1.83l-0.37-0.36c-0.28-0.28-0.41-0.52-0.53-0.98-0.13-0.53-0.21-0.65-0.55-0.88-0.21-0.15-0.42-0.36-0.47-0.48-0.1-0.29-0.51-0.53-1.06-0.63-0.29-0.05-0.54-0.17-0.66-0.31-0.5-0.61-0.1-0.57-7.17-0.58h-6.45zm95.92 0.19c-0.3 0.32-0.47 0.42-0.81 0.46-0.61 0.08-0.92 0.26-1.14 0.67-0.1 0.2-0.28 0.39-0.39 0.43-0.29 0.08-0.56 0.42-0.56 0.68 0 0.42-0.23 0.9-0.61 1.28l-0.39 0.37v1.65 1.65l0.38 0.38c0.43 0.42 0.62 0.8 0.62 1.21 0 0.28 0.36 0.71 0.58 0.71 0.06 0 0.26 0.22 0.46 0.49 0.32 0.46 0.38 0.49 0.89 0.56 0.46 0.06 0.6 0.12 0.91 0.46l0.36 0.4 6.95-0.03 6.94-0.02 0.46-0.43c0.25-0.23 0.53-0.42 0.61-0.42 0.09 0 0.32-0.23 0.51-0.5 0.2-0.28 0.42-0.51 0.49-0.51 0.21 0 0.56-0.45 0.56-0.72q-0.01-0.59 0.62-1.2l0.38-0.38v-1.65-1.65l-0.39-0.37c-0.38-0.38-0.61-0.86-0.61-1.28 0-0.26-0.27-0.6-0.56-0.68-0.11-0.04-0.29-0.23-0.39-0.43-0.22-0.41-0.53-0.59-1.14-0.67-0.34-0.04-0.51-0.14-0.81-0.46l-0.38-0.41h-6.58-6.58zm-69.24 0.04c-0.1 0.12-0.09 0.15 0.04 0.15 0.09 0 0.16-0.07 0.16-0.15q0-0.14-0.03-0.15c-0.02 0-0.1 0.07-0.17 0.15zm56.04 0c0 0.08 0.07 0.15 0.16 0.15 0.13 0 0.14-0.03 0.04-0.15-0.07-0.08-0.15-0.15-0.17-0.15q-0.03 0.01-0.03 0.15zm-17.01 2.87c-0.47 0.13-0.58 0.24-0.65 0.61q-0.24 1.18-0.62 1.38c-0.15 0.08-0.34 0.33-0.44 0.55-0.21 0.5-0.92 1.21-1.41 1.43-0.21 0.08-0.43 0.26-0.5 0.39-0.14 0.27-0.57 0.53-0.88 0.53-0.8 0-1.49 0.92-1.15 1.55q0.18 0.32 0.29 0.25c0.12-0.09 0.96-0.26 2.13-0.42 0.77-0.11 0.84-0.14 1.02-0.43 0.11-0.17 0.38-0.39 0.6-0.49 0.22-0.1 0.49-0.31 0.61-0.47 0.12-0.16 0.26-0.3 0.33-0.3 0.06 0 0.22-0.23 0.36-0.5 0.14-0.3 0.37-0.57 0.56-0.68 0.29-0.18 0.32-0.25 0.38-0.85 0.07-0.61 0.35-1.9 0.51-2.28 0.07-0.16 0.05-0.17-0.64-0.33-0.09-0.02-0.31 0.01-0.5 0.06zm-52.85 0.47c0.89 0.13 0.96 0.26 1 1.96 0.06 2.6 0.64 2.41-7.09 2.41-6.7 0-6.64 0-6.93-0.61-0.37-0.77-0.19-3.34 0.25-3.61 0.34-0.21 11.42-0.34 12.77-0.15zm96.53 0.05c0.47 0.17 0.59 0.6 0.59 2.11 0 2.38 0.56 2.21-7.1 2.21-7.66 0-7.1 0.17-7.11-2.21 0-1.65 0.13-2 0.75-2.1 0.19-0.03 0.42-0.08 0.5-0.1 0.31-0.06 12.17 0.02 12.37 0.09zm-55.66 0.03c-0.26 0.04-0.77 0.49-2.75 2.44-1.34 1.32-2.46 2.4-2.51 2.4q-0.07 0-0.07 0.1c0 0.11-0.37 0.5-0.47 0.5-0.07 0-0.4 0.35-0.68 0.73-0.11 0.15-0.25 0.27-0.31 0.27-0.06 0-0.24 0.16-0.4 0.37-0.16 0.2-0.36 0.41-0.43 0.47-0.17 0.14-0.63 0.59-0.77 0.77-0.06 0.08-0.3 0.29-0.53 0.47-0.22 0.19-0.43 0.41-0.46 0.5-0.03 0.09-0.23 0.28-0.46 0.42-0.22 0.13-0.4 0.28-0.4 0.33 0 0.05-0.09 0.22-0.21 0.38q-0.21 0.3-0.11 0.42c0.05 0.06 0.13 0.28 0.16 0.49 0.06 0.29 0.14 0.4 0.44 0.55 0.23 0.11 0.43 0.3 0.52 0.5q0.28 0.61 0.63 0.03c0.09-0.17 0.28-0.35 0.43-0.4 0.32-0.12 0.5-0.3 0.58-0.57 0.04-0.11 0.22-0.28 0.4-0.38 0.19-0.1 0.42-0.34 0.52-0.52 0.1-0.19 0.31-0.41 0.47-0.5 0.16-0.08 0.38-0.29 0.48-0.47 0.11-0.18 0.35-0.41 0.53-0.51 0.19-0.1 0.42-0.33 0.52-0.52 0.1-0.18 0.27-0.36 0.39-0.4q0.31-0.09 0.61-0.67c0.05-0.11 0.23-0.27 0.4-0.36 0.16-0.09 0.4-0.32 0.52-0.5 0.13-0.19 0.37-0.42 0.54-0.53 0.17-0.1 0.33-0.26 0.35-0.36 0.03-0.09 0.16-0.26 0.3-0.37 0.33-0.25 0.73-0.65 0.99-0.98 0.11-0.14 0.27-0.27 0.36-0.3 0.1-0.02 0.29-0.23 0.43-0.45 0.14-0.23 0.32-0.42 0.39-0.42 0.16 0 0.51-0.37 0.6-0.62 0.04-0.1 0.2-0.26 0.37-0.35q0.74-0.43 0.01-0.84c-0.17-0.1-0.38-0.37-0.52-0.68-0.15-0.31-0.3-0.5-0.39-0.49-0.08 0.01-0.29 0.03-0.47 0.05zm-27.03 7.43q-0.15 0.08-0.02 0.15c0.14 0.09 0.24 0.01 0.19-0.13q-0.04-0.1-0.17-0.02zm56.02 0.06c0 0.16 0.15 0.2 0.24 0.06q0.04-0.09-0.09-0.15-0.15-0.05-0.15 0.09zm-52.07 6.78c-0.17 0.12-0.17 0.14-0.02 0.27q0.3 0.24 0.24-0.2c-0.03-0.18-0.06-0.19-0.22-0.07zm48.16 0.18c0 0.18 0.03 0.19 0.15 0.09 0.15-0.12 0.12-0.3-0.05-0.3-0.05 0-0.1 0.1-0.1 0.21zm-78.92 0.67c-0.34 0.34-0.52 0.42-1.52 0.71-0.14 0.03-0.31 0.19-0.38 0.33-0.07 0.15-0.27 0.38-0.45 0.5-0.49 0.35-0.57 0.44-0.63 0.8-0.03 0.18-0.08 0.43-0.1 0.55-0.02 0.12-0.22 0.4-0.44 0.63l-0.4 0.42v1.65 1.64l0.4 0.42c0.22 0.24 0.42 0.52 0.45 0.63 0.02 0.11 0.06 0.36 0.09 0.57 0.05 0.3 0.15 0.43 0.52 0.68 0.25 0.17 0.49 0.42 0.54 0.55 0.11 0.28 0.49 0.5 1.05 0.58 0.29 0.05 0.54 0.18 0.83 0.47l0.43 0.4h6.47c7.1 0 6.64 0.03 7.18-0.58 0.12-0.13 0.38-0.26 0.67-0.31 0.56-0.1 0.95-0.34 1.07-0.65 0.05-0.12 0.27-0.34 0.49-0.49 0.35-0.23 0.42-0.34 0.53-0.84 0.09-0.45 0.21-0.67 0.5-0.97l0.39-0.4v-1.69c0-1.21-0.04-1.73-0.13-1.83-0.07-0.08-0.18-0.2-0.24-0.28-0.07-0.08-0.17-0.16-0.23-0.18-0.06-0.02-0.18-0.34-0.27-0.72-0.13-0.6-0.19-0.7-0.54-0.93-0.21-0.14-0.47-0.41-0.58-0.6-0.13-0.21-0.31-0.35-0.48-0.39-0.72-0.15-1.06-0.31-1.43-0.66l-0.39-0.39h-6.51-6.51zm96.06 0.01c-0.35 0.36-0.65 0.5-1.43 0.66-0.15 0.03-0.32 0.18-0.44 0.39-0.1 0.19-0.34 0.45-0.54 0.58-0.41 0.27-0.45 0.35-0.61 1.03-0.09 0.35-0.23 0.6-0.52 0.87l-0.39 0.39v1.65 1.65l0.39 0.38c0.36 0.35 0.49 0.64 0.65 1.43 0.03 0.16 0.18 0.33 0.39 0.44 0.19 0.1 0.45 0.35 0.58 0.56 0.24 0.4 0.49 0.54 1.12 0.63 0.28 0.04 0.49 0.17 0.78 0.46l0.39 0.4h6.55 6.56l0.39-0.4c0.28-0.29 0.5-0.42 0.78-0.46 0.63-0.09 0.87-0.23 1.12-0.63 0.13-0.21 0.39-0.46 0.58-0.56 0.21-0.11 0.35-0.28 0.39-0.44 0.16-0.79 0.29-1.08 0.65-1.43l0.39-0.38v-1.65-1.65l-0.4-0.39c-0.28-0.27-0.43-0.52-0.51-0.87-0.16-0.68-0.21-0.76-0.61-1.03-0.2-0.13-0.44-0.39-0.55-0.58-0.11-0.21-0.28-0.36-0.43-0.39-0.78-0.16-1.08-0.3-1.43-0.66l-0.39-0.38h-6.54-6.53zm-82.61 3.51c0.74 0.49 0.77 3.57 0.04 4.07-0.37 0.25-12.7 0.28-13.16 0.03-0.77-0.4-0.82-3.59-0.07-4.05 0.46-0.29 12.76-0.34 13.19-0.05zm96.09 0.02c0.47 0.32 0.54 0.6 0.54 2.07 0 2.35 0.6 2.16-7.1 2.16-7.44 0-6.97 0.1-7.11-1.48-0.17-1.87 0.16-2.8 1.03-2.9 1.33-0.15 12.39-0.01 12.64 0.15zm-74.93 2.45q-0.13 0.04-0.02 0.24c0.15 0.27 0.3 0.24 0.3-0.06 0-0.25-0.04-0.28-0.28-0.18zm40.36 0.01c-0.13 0.23 0.1 0.43 0.27 0.24 0.17-0.19 0.17-0.2-0.02-0.25-0.12-0.03-0.23-0.02-0.25 0.01zm-74.75 11.45c-0.11 0.06-0.31 0.23-0.45 0.38q-0.25 0.27-0.83 0.39c-0.51 0.11-0.62 0.18-0.88 0.53-0.16 0.23-0.43 0.49-0.58 0.59-0.37 0.22-0.4 0.26-0.52 0.9-0.07 0.39-0.18 0.61-0.38 0.79-0.48 0.42-0.51 0.58-0.51 2.2 0 1.62 0.04 1.8 0.51 2.2 0.22 0.19 0.31 0.39 0.39 0.84 0.11 0.58 0.37 0.95 0.67 0.96 0.07 0 0.22 0.18 0.35 0.4 0.22 0.39 0.83 0.7 1.36 0.7 0.08 0 0.32 0.18 0.53 0.4l0.39 0.4h54.66 54.65l0.27-0.24c0.14-0.14 0.28-0.3 0.3-0.36 0.02-0.06 0.34-0.18 0.71-0.26 0.62-0.14 0.7-0.19 0.98-0.6 0.17-0.24 0.36-0.44 0.44-0.44 0.19 0 0.55-0.48 0.55-0.73 0-0.35 0.32-1.06 0.49-1.12 0.41-0.13 0.51-0.55 0.51-2.18v-1.55l-0.38-0.42c-0.21-0.23-0.44-0.6-0.51-0.83-0.07-0.23-0.15-0.53-0.19-0.67-0.04-0.14-0.19-0.31-0.34-0.38-0.15-0.07-0.41-0.33-0.58-0.57-0.27-0.39-0.36-0.45-0.92-0.58-0.48-0.11-0.71-0.23-0.99-0.51l-0.37-0.36h-54.57c-40.8 0-54.61 0.03-54.76 0.12zm109.23 3.72c0.55 0.23 0.63 0.5 0.63 2.1-0.01 1.58-0.09 1.85-0.67 2.05-0.41 0.15-108.61 0.16-108.99 0.01-0.91-0.34-0.97-3.66-0.08-4.15 0.41-0.22 108.58-0.23 109.11-0.01z"/>
		<path id="path4" fill-rule="evenodd" class="s4" d="m53.01 23.59c-0.14 0.15-0.28 0.4-0.32 0.55-0.03 0.15-0.2 0.41-0.37 0.58q-0.5 0.51-0.49 1.05 0 0.25-0.47 0.7c-0.39 0.37-0.49 0.54-0.58 1.01q-0.12 0.57-0.3 0.68-0.6 0.34-0.8 1.26c-0.04 0.17-0.22 0.47-0.41 0.66-0.19 0.2-0.34 0.45-0.34 0.56 0 0.32-0.29 0.84-0.55 0.98-0.24 0.13-0.55 0.79-0.55 1.17 0 0.13-0.16 0.34-0.39 0.52-0.38 0.3-0.71 0.97-0.71 1.43 0 0.1-0.12 0.24-0.25 0.3q-0.45 0.21-0.59 0.84c-0.04 0.17-0.25 0.52-0.47 0.78-0.22 0.27-0.39 0.57-0.39 0.67 0 0.25-0.31 0.99-0.41 0.99-0.26 0-0.6 0.51-0.67 1.01-0.07 0.46-0.13 0.57-0.39 0.74-0.38 0.24-0.54 0.53-0.68 1.2-0.09 0.4-0.17 0.53-0.39 0.64-0.15 0.07-0.33 0.25-0.39 0.4-0.31 0.76-0.43 0.99-0.69 1.29-0.16 0.18-0.31 0.45-0.34 0.6-0.12 0.61-0.21 0.78-0.52 0.98-0.3 0.18-0.55 0.72-0.65 1.39-0.01 0.1-0.11 0.24-0.22 0.3-0.39 0.22-0.54 0.45-0.72 1.06q-0.19 0.62-0.42 0.78c-0.73 0.48-0.72 2.32 0.02 2.72 0.16 0.08 0.26 0.22 0.26 0.35 0 0.12 0.04 0.25 0.08 0.29 0.04 0.04 0.12 0.24 0.18 0.44q0.1 0.37 0.42 0.57c0.18 0.11 0.35 0.31 0.38 0.45 0.21 0.88 0.37 1.2 0.7 1.4 0.25 0.16 0.35 0.31 0.41 0.58q0.15 0.83 0.55 1.18c0.13 0.11 0.32 0.46 0.43 0.77 0.15 0.44 0.26 0.6 0.52 0.74 0.21 0.11 0.33 0.26 0.34 0.38 0 0.42 0.22 0.99 0.48 1.22 0.14 0.14 0.34 0.31 0.43 0.4 0.09 0.08 0.19 0.36 0.23 0.63 0.05 0.41 0.13 0.55 0.44 0.83 0.36 0.31 0.53 0.61 0.66 1.18 0.03 0.13 0.21 0.42 0.4 0.64 0.19 0.22 0.37 0.55 0.41 0.75 0.07 0.41 0.32 0.75 0.61 0.84 0.14 0.05 0.23 0.23 0.33 0.68 0.13 0.58 0.25 0.77 0.79 1.21 0.12 0.1 0.22 0.28 0.22 0.42 0 0.37 0.27 0.92 0.57 1.16q0.52 0.4 0.52 0.92c0.01 0.17 0.13 0.39 0.34 0.6 0.21 0.21 0.41 0.55 0.52 0.91 0.13 0.44 0.27 0.65 0.56 0.88 0.27 0.22 0.39 0.39 0.39 0.57 0 0.37 0.38 1.1 0.61 1.17 0.23 0.08 0.49 0.54 0.49 0.87 0 0.27 0.35 0.88 0.61 1.06 0.09 0.07 0.2 0.25 0.24 0.4 0.03 0.15 0.16 0.41 0.29 0.58l0.24 0.29h15.46 15.46l0.2-0.25c0.12-0.13 0.24-0.36 0.27-0.5 0.03-0.14 0.21-0.43 0.4-0.65 0.21-0.24 0.41-0.63 0.51-0.97 0.13-0.45 0.25-0.65 0.55-0.88 0.31-0.25 0.4-0.4 0.49-0.85q0.18-0.84 0.54-0.85c0.14 0 0.38-0.49 0.57-1.17 0.07-0.25 0.23-0.5 0.4-0.62 0.21-0.15 0.31-0.34 0.36-0.63 0.04-0.29 0.17-0.52 0.44-0.79 0.46-0.46 0.55-0.62 0.64-1.16 0.05-0.32 0.15-0.48 0.41-0.68 0.35-0.27 0.64-0.81 0.64-1.18 0-0.11 0.18-0.36 0.39-0.56q0.38-0.36 0.55-0.9c0.1-0.29 0.3-0.65 0.45-0.8 0.16-0.15 0.34-0.47 0.42-0.76 0.09-0.35 0.26-0.62 0.55-0.9 0.33-0.33 0.43-0.51 0.49-0.89 0.04-0.3 0.15-0.55 0.29-0.68 0.55-0.5 0.65-0.64 0.71-0.96 0.1-0.51 0.25-0.79 0.51-0.93 0.2-0.11 0.54-0.77 0.54-1.06 0-0.06 0.12-0.23 0.26-0.38 0.34-0.37 0.65-0.95 0.65-1.24 0-0.21 0.42-0.72 0.6-0.72 0.1 0 0.38-0.69 0.46-1.13q0.06-0.39 0.28-0.47c0.31-0.12 0.43-0.29 0.64-0.96 0.12-0.36 0.33-0.74 0.56-0.97 0.54-0.58 0.55-1.97 0.01-2.5q-0.35-0.34-0.57-1c-0.18-0.54-0.28-0.69-0.55-0.84-0.26-0.14-0.34-0.26-0.39-0.58-0.08-0.46-0.4-1.15-0.54-1.15-0.2 0-0.48-0.43-0.55-0.83-0.04-0.25-0.21-0.62-0.45-0.92-0.21-0.28-0.46-0.72-0.56-0.99-0.11-0.29-0.27-0.53-0.41-0.59-0.23-0.1-0.32-0.3-0.53-1.05-0.1-0.37-0.42-0.75-0.71-0.85-0.06-0.01-0.17-0.3-0.24-0.63-0.11-0.47-0.22-0.66-0.5-0.9-0.25-0.21-0.4-0.45-0.51-0.85-0.09-0.3-0.29-0.68-0.44-0.85-0.15-0.16-0.33-0.46-0.41-0.65-0.28-0.76-0.44-1.02-0.66-1.1q-0.23-0.08-0.3-0.47c-0.12-0.63-0.31-0.98-0.68-1.27-0.2-0.15-0.36-0.33-0.36-0.39 0-0.4-0.26-0.94-0.64-1.32-0.33-0.33-0.44-0.54-0.49-0.85-0.04-0.32-0.14-0.51-0.41-0.75-0.2-0.18-0.36-0.41-0.36-0.5 0-0.35-0.41-1.11-0.69-1.27-0.22-0.13-0.31-0.26-0.36-0.6-0.08-0.5-0.19-0.7-0.68-1.19q-0.35-0.36-0.42-0.77-0.07-0.42-0.45-0.85c-0.22-0.25-0.42-0.57-0.46-0.73-0.04-0.17-0.18-0.4-0.31-0.52l-0.24-0.23h-15.39-15.38zm30.4 0.19c0.55 0.07 0.71 0.26 0.88 1.02 0.04 0.18 0.22 0.47 0.39 0.65 0.18 0.17 0.43 0.59 0.55 0.91 0.12 0.33 0.3 0.66 0.4 0.75 0.26 0.24 0.48 0.63 0.56 0.98 0.04 0.18 0.22 0.45 0.4 0.62q0.34 0.28 0.55 0.94 0.23 0.64 0.57 0.97c0.18 0.17 0.34 0.39 0.34 0.49 0 0.27 0.39 1.04 0.6 1.18 0.19 0.14 0.42 0.56 0.55 1.03 0.04 0.13 0.2 0.38 0.36 0.55 0.16 0.17 0.38 0.55 0.5 0.85 0.12 0.31 0.34 0.67 0.49 0.81 0.16 0.14 0.36 0.5 0.48 0.85 0.12 0.36 0.35 0.75 0.56 0.97 0.2 0.21 0.36 0.44 0.36 0.52 0 0.26 0.33 0.89 0.67 1.28 0.17 0.2 0.37 0.54 0.43 0.76 0.05 0.22 0.21 0.51 0.35 0.63q0.35 0.33 0.75 1.37c0.07 0.18 0.25 0.41 0.39 0.51q0.27 0.19 0.45 0.81 0.19 0.61 0.55 0.99c0.21 0.22 0.41 0.56 0.48 0.82 0.07 0.25 0.25 0.59 0.41 0.75 0.16 0.17 0.37 0.53 0.47 0.8 0.1 0.27 0.3 0.61 0.44 0.75 0.34 0.34 0.47 0.57 0.61 1.09 0.07 0.26 0.26 0.56 0.46 0.75 0.49 0.46 0.51 1.31 0.04 1.72-0.17 0.16-0.39 0.53-0.52 0.88-0.12 0.33-0.35 0.73-0.5 0.88-0.15 0.15-0.37 0.52-0.49 0.82-0.11 0.31-0.28 0.61-0.38 0.68-0.24 0.17-0.61 0.87-0.61 1.15 0 0.13-0.16 0.38-0.4 0.6-0.22 0.21-0.4 0.45-0.4 0.55 0 0.09-0.04 0.19-0.09 0.22-0.04 0.03-0.11 0.21-0.14 0.4q-0.06 0.35-0.39 0.65c-0.21 0.18-0.42 0.53-0.57 0.95-0.14 0.36-0.32 0.68-0.41 0.71-0.17 0.05-0.45 0.55-0.54 0.95-0.03 0.14-0.19 0.4-0.36 0.59-0.32 0.34-0.64 0.96-0.74 1.43-0.03 0.15-0.14 0.29-0.24 0.33-0.18 0.05-0.62 0.8-0.62 1.03 0 0.23-0.34 0.82-0.51 0.87-0.15 0.05-0.4 0.52-0.54 1-0.03 0.11-0.21 0.38-0.41 0.6-0.19 0.22-0.37 0.51-0.4 0.65-0.08 0.35-0.33 0.82-0.55 1-0.24 0.21-0.59 0.9-0.59 1.17 0 0.11-0.15 0.34-0.33 0.5q-0.33 0.29-0.57 0.94c-0.14 0.37-0.38 0.78-0.57 0.97-0.18 0.18-0.35 0.48-0.39 0.67-0.04 0.19-0.21 0.52-0.39 0.73q-0.54 0.63-0.69 1.24c-0.03 0.14-0.22 0.41-0.4 0.6-0.22 0.21-0.41 0.55-0.52 0.92-0.13 0.44-0.24 0.61-0.42 0.68-0.27 0.1-29.62 0.13-30.13 0.03-0.23-0.05-0.33-0.14-0.38-0.33-0.12-0.5-0.41-1.06-0.71-1.4-0.17-0.18-0.33-0.45-0.37-0.6-0.08-0.33-0.38-0.91-0.47-0.91-0.11 0-0.45-0.61-0.62-1.1-0.09-0.25-0.29-0.54-0.46-0.68-0.17-0.13-0.31-0.31-0.31-0.39 0-0.27-0.49-1.23-0.69-1.36-0.11-0.07-0.28-0.35-0.37-0.62q-0.27-0.82-0.66-1.16c-0.09-0.08-0.26-0.39-0.38-0.69-0.11-0.29-0.36-0.71-0.55-0.93-0.18-0.22-0.37-0.54-0.4-0.71-0.09-0.37-0.32-0.75-0.6-0.99-0.12-0.09-0.3-0.42-0.4-0.73-0.11-0.32-0.34-0.73-0.52-0.92-0.18-0.19-0.36-0.46-0.39-0.61q-0.15-0.61-0.69-1.25c-0.18-0.21-0.36-0.53-0.39-0.72-0.04-0.18-0.22-0.49-0.4-0.69-0.19-0.2-0.44-0.64-0.57-1-0.15-0.41-0.32-0.7-0.45-0.77-0.23-0.12-0.33-0.28-0.59-1.03-0.1-0.26-0.3-0.61-0.45-0.76-0.15-0.16-0.35-0.51-0.44-0.77-0.09-0.27-0.32-0.66-0.52-0.88-0.19-0.22-0.37-0.52-0.41-0.65-0.1-0.41-0.41-0.98-0.57-1.04-0.16-0.06-0.56-0.85-0.56-1.11 0-0.08-0.18-0.32-0.4-0.53-0.59-0.55-0.59-1.24 0-1.79 0.22-0.2 0.4-0.44 0.4-0.53 0-0.26 0.39-1.03 0.6-1.18 0.21-0.15 0.45-0.59 0.54-1 0.04-0.15 0.21-0.44 0.39-0.63 0.18-0.19 0.42-0.59 0.53-0.89 0.1-0.29 0.28-0.61 0.4-0.7 0.22-0.17 0.44-0.61 0.63-1.22 0.06-0.2 0.24-0.45 0.4-0.57 0.18-0.13 0.36-0.43 0.51-0.84 0.13-0.35 0.38-0.79 0.56-0.98 0.17-0.19 0.35-0.46 0.39-0.6 0.1-0.38 0.28-0.74 0.46-0.9 0.23-0.22 0.56-0.81 0.63-1.17 0.04-0.16 0.22-0.44 0.41-0.62 0.21-0.19 0.37-0.46 0.41-0.67 0.04-0.19 0.11-0.37 0.15-0.4 0.05-0.03 0.09-0.14 0.09-0.24 0-0.1 0.12-0.26 0.26-0.35 0.14-0.1 0.35-0.38 0.46-0.64 0.34-0.8 0.42-0.95 0.71-1.25 0.15-0.16 0.27-0.38 0.27-0.47 0-0.1 0.04-0.21 0.09-0.24 0.05-0.03 0.12-0.18 0.16-0.33 0.04-0.15 0.16-0.33 0.26-0.4 0.22-0.16 0.53-0.73 0.64-1.17 0.03-0.16 0.2-0.41 0.36-0.56 0.16-0.16 0.41-0.58 0.55-0.94 0.13-0.36 0.37-0.78 0.53-0.93 0.16-0.16 0.37-0.49 0.46-0.76 0.1-0.26 0.32-0.65 0.51-0.87 0.18-0.22 0.4-0.62 0.49-0.88 0.09-0.27 0.29-0.61 0.45-0.77 0.17-0.16 0.37-0.51 0.47-0.84 0.22-0.72 0.28-0.79 0.72-0.84 0.62-0.07 29.05-0.07 29.6-0.01zm-29.16 1.64c-0.17 0.1-0.38 0.34-0.46 0.53-0.08 0.18-0.28 0.5-0.46 0.7-0.17 0.2-0.41 0.62-0.52 0.94-0.11 0.32-0.34 0.72-0.52 0.89-0.19 0.18-0.39 0.54-0.51 0.9-0.12 0.36-0.3 0.68-0.47 0.82-0.15 0.12-0.37 0.48-0.48 0.79-0.12 0.31-0.33 0.68-0.47 0.83-0.14 0.15-0.36 0.54-0.49 0.86-0.13 0.33-0.32 0.66-0.42 0.74-0.28 0.24-0.51 0.64-0.58 1.04-0.04 0.2-0.21 0.5-0.39 0.69-0.32 0.33-0.57 0.77-0.71 1.28-0.04 0.13-0.2 0.38-0.37 0.55-0.16 0.16-0.39 0.56-0.52 0.88-0.13 0.32-0.33 0.65-0.43 0.75-0.23 0.2-0.49 0.7-0.57 1.1-0.04 0.16-0.2 0.41-0.37 0.56-0.28 0.25-0.69 1.02-0.69 1.3 0 0.06-0.17 0.3-0.37 0.52-0.21 0.23-0.46 0.65-0.56 0.95-0.11 0.3-0.29 0.63-0.42 0.75-0.13 0.11-0.33 0.45-0.45 0.75-0.11 0.3-0.28 0.61-0.38 0.69-0.27 0.24-0.49 0.64-0.62 1.1-0.06 0.24-0.25 0.56-0.41 0.71-0.3 0.28-0.68 1.01-0.69 1.31 0 0.1-0.19 0.36-0.41 0.58l-0.41 0.41 0.03 0.79c0.04 0.77 0.05 0.8 0.41 1.13 0.21 0.18 0.38 0.42 0.38 0.53 0.01 0.32 0.35 0.98 0.68 1.31 0.18 0.18 0.36 0.5 0.43 0.77 0.07 0.27 0.25 0.6 0.45 0.81 0.19 0.19 0.43 0.58 0.54 0.88 0.12 0.29 0.31 0.62 0.44 0.74 0.13 0.11 0.34 0.48 0.46 0.82 0.21 0.58 0.51 1.02 0.7 1.02 0.04 0 0.18 0.3 0.29 0.66 0.14 0.45 0.34 0.8 0.61 1.1 0.22 0.24 0.4 0.53 0.4 0.64 0 0.26 0.17 0.55 0.57 1.02 0.18 0.2 0.38 0.56 0.45 0.79 0.07 0.23 0.26 0.56 0.43 0.73 0.17 0.17 0.39 0.57 0.49 0.88q0.19 0.57 0.58 0.95c0.21 0.2 0.38 0.46 0.38 0.56 0 0.28 0.31 0.89 0.56 1.12 0.24 0.23 0.48 0.67 0.58 1.07 0.04 0.15 0.21 0.43 0.39 0.62 0.18 0.19 0.41 0.58 0.51 0.87 0.1 0.29 0.31 0.64 0.47 0.78 0.16 0.15 0.35 0.5 0.45 0.82q0.17 0.54 0.56 0.93c0.21 0.21 0.39 0.47 0.39 0.57 0 0.29 0.31 0.9 0.66 1.27 0.17 0.18 0.35 0.45 0.38 0.6 0.23 0.88-0.49 0.85 15.78 0.81l13.38-0.03 0.26-0.25c0.15-0.14 0.34-0.41 0.42-0.6 0.08-0.2 0.25-0.47 0.37-0.6q0.5-0.54 0.6-1.08c0.03-0.18 0.21-0.48 0.4-0.66 0.18-0.19 0.43-0.61 0.56-0.95 0.13-0.34 0.31-0.68 0.41-0.74 0.2-0.15 0.6-0.86 0.6-1.08 0-0.09 0.15-0.34 0.34-0.56 0.19-0.23 0.44-0.65 0.56-0.94 0.11-0.29 0.36-0.7 0.54-0.92 0.19-0.21 0.41-0.62 0.51-0.9 0.09-0.28 0.27-0.59 0.4-0.7 0.26-0.2 0.5-0.63 0.6-1.07 0.03-0.16 0.2-0.44 0.38-0.62 0.18-0.19 0.41-0.56 0.51-0.84 0.1-0.27 0.28-0.61 0.4-0.75 0.34-0.38 0.52-0.72 0.61-1.09 0.04-0.19 0.22-0.49 0.4-0.67 0.19-0.19 0.46-0.64 0.61-1.04 0.15-0.39 0.33-0.7 0.4-0.7 0.14 0 0.38-0.35 0.48-0.7 0.14-0.47 0.39-0.95 0.59-1.13 0.24-0.2 0.43-0.56 0.51-0.94 0.04-0.16 0.22-0.45 0.41-0.65 0.19-0.2 0.42-0.58 0.51-0.85 0.09-0.26 0.33-0.67 0.53-0.9 0.21-0.25 0.44-0.66 0.54-1.01 0.13-0.43 0.25-0.63 0.42-0.71 0.6-0.27 0.61-1.83 0.01-2.39-0.21-0.2-0.4-0.5-0.46-0.75q-0.2-0.73-0.67-1.11c-0.13-0.1-0.23-0.27-0.23-0.37 0-0.1-0.04-0.21-0.09-0.24-0.04-0.03-0.11-0.18-0.14-0.33-0.03-0.15-0.22-0.46-0.41-0.68-0.2-0.22-0.41-0.57-0.47-0.78-0.05-0.2-0.23-0.52-0.38-0.7-0.27-0.31-0.71-1.15-0.71-1.36 0-0.06-0.15-0.25-0.34-0.43-0.18-0.18-0.37-0.44-0.41-0.58-0.14-0.5-0.39-0.96-0.71-1.32-0.17-0.2-0.35-0.51-0.39-0.7-0.04-0.18-0.2-0.5-0.36-0.7-0.35-0.45-0.64-0.96-0.72-1.28-0.04-0.14-0.21-0.42-0.39-0.62-0.18-0.2-0.42-0.6-0.52-0.89-0.1-0.29-0.31-0.64-0.46-0.78-0.16-0.15-0.37-0.51-0.47-0.81-0.1-0.29-0.32-0.68-0.49-0.85-0.16-0.17-0.4-0.57-0.52-0.89-0.12-0.31-0.32-0.67-0.45-0.79-0.24-0.24-0.57-0.89-0.57-1.12 0-0.08-0.18-0.33-0.4-0.56-0.22-0.23-0.4-0.47-0.4-0.54 0-0.27-0.4-1.02-0.69-1.3-0.17-0.16-0.33-0.42-0.37-0.57-0.09-0.41-0.34-0.9-0.59-1.14-0.12-0.11-0.3-0.38-0.4-0.6-0.21-0.44-0.31-0.57-0.63-0.73-0.44-0.24-28.32-0.16-28.72 0.08zm28.7 0.4c0.08 0.08 0.21 0.34 0.28 0.58 0.07 0.23 0.25 0.57 0.4 0.75 0.38 0.44 0.57 0.77 0.65 1.11 0.04 0.16 0.23 0.47 0.41 0.68 0.18 0.22 0.43 0.66 0.56 0.99 0.12 0.32 0.29 0.61 0.39 0.64 0.19 0.06 0.44 0.53 0.55 1.03 0.04 0.19 0.23 0.49 0.42 0.68 0.19 0.19 0.44 0.6 0.56 0.92 0.12 0.32 0.27 0.62 0.32 0.69 0.39 0.42 0.55 0.66 0.71 1.13 0.11 0.29 0.3 0.61 0.42 0.71 0.12 0.09 0.32 0.43 0.44 0.74 0.12 0.32 0.37 0.73 0.55 0.92 0.18 0.18 0.36 0.46 0.4 0.61 0.1 0.48 0.34 0.93 0.68 1.28 0.19 0.19 0.36 0.49 0.4 0.67 0.04 0.18 0.2 0.51 0.36 0.73 0.17 0.22 0.43 0.67 0.59 1 0.16 0.33 0.38 0.68 0.49 0.78 0.11 0.1 0.26 0.33 0.33 0.5 0.31 0.81 0.5 1.17 0.68 1.29 0.11 0.08 0.27 0.32 0.36 0.53 0.35 0.81 0.49 1.07 0.77 1.35 0.15 0.17 0.28 0.38 0.28 0.48 0 0.17 0.2 0.52 0.72 1.3 0.15 0.22 0.3 0.53 0.34 0.67 0.04 0.15 0.22 0.43 0.4 0.62 0.5 0.53 0.49 1.23-0.01 1.72-0.19 0.19-0.35 0.41-0.35 0.48 0 0.22-0.49 1.14-0.64 1.2-0.08 0.03-0.24 0.32-0.36 0.64-0.12 0.33-0.36 0.74-0.54 0.93-0.17 0.18-0.42 0.63-0.54 1-0.13 0.37-0.27 0.67-0.3 0.67-0.19 0-0.36 0.23-0.61 0.86-0.16 0.38-0.43 0.84-0.6 1.01-0.17 0.17-0.31 0.38-0.31 0.46 0 0.22-0.31 0.79-0.67 1.21-0.18 0.22-0.36 0.54-0.39 0.72-0.03 0.18-0.21 0.5-0.39 0.71-0.31 0.37-0.57 0.84-0.7 1.31-0.04 0.13-0.22 0.39-0.41 0.59-0.19 0.19-0.34 0.39-0.34 0.45 0 0.2-0.44 1.05-0.71 1.36-0.16 0.17-0.34 0.5-0.4 0.71-0.07 0.22-0.27 0.57-0.45 0.78-0.18 0.21-0.43 0.62-0.54 0.91-0.11 0.29-0.34 0.7-0.51 0.9-0.17 0.21-0.42 0.64-0.55 0.97-0.13 0.33-0.31 0.63-0.4 0.68-0.14 0.08-0.64 1.05-0.65 1.24 0 0.05-0.15 0.26-0.35 0.48-0.19 0.22-0.35 0.43-0.35 0.48 0 0.2-0.44 1.04-0.6 1.15-0.21 0.15-0.45 0.6-0.54 1.02-0.14 0.59 0.83 0.56-14.58 0.56-15.95 0-14.39 0.07-14.54-0.71-0.03-0.17-0.21-0.49-0.4-0.71-0.19-0.22-0.44-0.65-0.56-0.94-0.11-0.29-0.33-0.68-0.49-0.85-0.16-0.18-0.34-0.5-0.41-0.71q-0.22-0.69-0.64-1.09c-0.12-0.11-0.28-0.4-0.36-0.64-0.08-0.25-0.29-0.63-0.47-0.85-0.33-0.42-0.42-0.57-0.63-1.14-0.07-0.19-0.28-0.52-0.46-0.73-0.18-0.22-0.39-0.59-0.45-0.81-0.07-0.23-0.28-0.56-0.46-0.74-0.18-0.18-0.33-0.38-0.33-0.44 0-0.25-0.5-1.17-0.79-1.43-0.17-0.16-0.31-0.36-0.31-0.45 0-0.27-0.36-0.99-0.64-1.29-0.14-0.16-0.33-0.48-0.43-0.73-0.09-0.25-0.3-0.63-0.48-0.85-0.17-0.22-0.41-0.65-0.53-0.96-0.12-0.3-0.33-0.63-0.46-0.72-0.12-0.1-0.31-0.43-0.42-0.74-0.1-0.31-0.35-0.74-0.56-0.97-0.21-0.23-0.38-0.46-0.38-0.53 0-0.22-0.4-0.99-0.7-1.33-0.17-0.2-0.35-0.52-0.4-0.72-0.06-0.2-0.24-0.53-0.41-0.75-0.29-0.37-0.69-1.12-0.69-1.31 0-0.05-0.13-0.22-0.3-0.38-0.44-0.43-0.44-1.31-0.01-1.62 0.17-0.13 0.32-0.36 0.36-0.54 0.07-0.31 0.5-1.07 0.68-1.2 0.13-0.09 0.35-0.54 0.42-0.88 0.03-0.16 0.18-0.4 0.31-0.53 0.28-0.26 0.74-1.09 0.74-1.33 0-0.09 0.15-0.31 0.34-0.5 0.19-0.18 0.4-0.51 0.46-0.72 0.07-0.21 0.17-0.42 0.21-0.48 0.05-0.05 0.09-0.15 0.09-0.23 0-0.07 0.13-0.24 0.28-0.37 0.15-0.12 0.35-0.45 0.45-0.72 0.1-0.26 0.29-0.62 0.43-0.78q0.45-0.52 0.58-1.08c0.04-0.15 0.19-0.42 0.35-0.6 0.35-0.39 0.71-1.06 0.71-1.29 0-0.09 0.16-0.32 0.35-0.5 0.2-0.18 0.36-0.37 0.36-0.43 0-0.06 0.09-0.28 0.19-0.5 0.11-0.22 0.2-0.45 0.2-0.5 0-0.06 0.14-0.23 0.3-0.38 0.16-0.15 0.34-0.44 0.41-0.65 0.07-0.2 0.32-0.65 0.56-1 0.23-0.34 0.47-0.8 0.53-1.01 0.06-0.21 0.2-0.47 0.33-0.59 0.35-0.33 0.42-0.44 0.62-0.98 0.1-0.27 0.3-0.63 0.45-0.8 0.15-0.16 0.32-0.41 0.38-0.55 0.06-0.14 0.19-0.43 0.29-0.65 0.1-0.22 0.28-0.49 0.39-0.6 0.11-0.11 0.29-0.42 0.39-0.7 0.1-0.27 0.3-0.63 0.45-0.8 0.34-0.39 0.61-0.88 0.61-1.13 0-0.29 0.3-0.5 0.8-0.55 1.48-0.13 27.88-0.01 28.02 0.13zm-15.12 5.94c-0.05 0.05-1.83 0.33-3 0.47-1.1 0.13-1.73 0.29-2.1 0.53-0.31 0.21-0.79 0.38-1.5 0.53-0.14 0.03-0.41 0.18-0.6 0.32-0.42 0.31-1.18 0.71-1.36 0.71-0.07 0-0.27 0.14-0.43 0.3-0.16 0.16-0.45 0.37-0.63 0.47-0.36 0.2-0.69 0.47-1.93 1.58-1.02 0.91-1.15 1.04-1.45 1.45-0.14 0.18-0.42 0.52-0.62 0.74-0.2 0.22-0.4 0.51-0.43 0.64-0.03 0.13-0.24 0.41-0.46 0.63-0.21 0.22-0.39 0.46-0.39 0.53 0 0.21-0.4 0.98-0.71 1.37-0.17 0.21-0.31 0.53-0.35 0.83-0.04 0.26-0.11 0.5-0.16 0.53-0.04 0.03-0.08 0.13-0.08 0.22 0 0.09-0.11 0.32-0.25 0.51-0.24 0.35-0.55 1.57-0.56 2.16 0 0.17-0.09 0.84-0.21 1.5-0.29 1.66-0.33 2.63-0.14 3.65 0.09 0.47 0.2 1.26 0.26 1.76q0.27 2.32 0.63 2.79 0.34 0.47 0.52 1.33c0.08 0.43 0.3 0.85 0.55 1.08 0.11 0.1 0.2 0.22 0.2 0.27 0 0.23 0.5 1.15 0.73 1.35 0.15 0.12 0.33 0.38 0.4 0.57 0.08 0.18 0.3 0.51 0.49 0.72 0.18 0.22 0.49 0.59 0.68 0.84 0.19 0.25 0.37 0.46 0.41 0.48 0.03 0.01 0.32 0.28 0.65 0.58 0.32 0.3 0.75 0.67 0.94 0.82 0.19 0.15 0.47 0.4 0.62 0.55 0.14 0.15 0.43 0.34 0.63 0.43 0.21 0.08 0.48 0.28 0.6 0.42 0.12 0.15 0.4 0.34 0.61 0.41 0.22 0.08 0.64 0.3 0.94 0.5 0.56 0.37 0.96 0.54 1.6 0.67 0.32 0.06 0.78 0.3 0.9 0.46 0.07 0.08 1.22 0.35 1.85 0.43 0.28 0.03 0.98 0.13 1.55 0.21 1.39 0.21 3.33 0.29 3.85 0.16 0.22-0.06 1.01-0.18 1.76-0.27 1.64-0.2 2.4-0.38 2.87-0.7 0.2-0.14 0.41-0.25 0.48-0.25 0.29 0 1.42-0.41 1.61-0.58 0.11-0.11 0.54-0.35 0.96-0.55 0.42-0.2 0.78-0.43 0.82-0.52 0.03-0.09 0.21-0.22 0.4-0.3 0.19-0.08 0.54-0.31 0.78-0.52 0.25-0.21 0.58-0.47 0.74-0.58 0.34-0.23 1.83-1.73 2.04-2.06 0.09-0.13 0.31-0.39 0.49-0.58 0.19-0.2 0.4-0.5 0.48-0.68 0.07-0.18 0.29-0.48 0.48-0.67 0.18-0.18 0.42-0.57 0.52-0.85 0.1-0.29 0.31-0.66 0.46-0.84 0.15-0.18 0.31-0.46 0.36-0.62 0.05-0.17 0.17-0.56 0.26-0.87 0.1-0.32 0.25-0.68 0.35-0.81 0.26-0.33 0.4-0.87 0.56-2.17 0.08-0.64 0.2-1.45 0.26-1.81 0.16-0.86 0.16-3.18 0-4-0.07-0.36-0.19-1.14-0.27-1.75-0.14-1.17-0.31-1.96-0.43-2.05-0.19-0.14-0.4-0.61-0.56-1.25-0.11-0.43-0.31-0.88-0.51-1.15-0.18-0.25-0.41-0.66-0.5-0.9-0.09-0.25-0.3-0.58-0.46-0.73-0.17-0.16-0.37-0.45-0.45-0.65-0.09-0.2-0.28-0.47-0.43-0.62-0.14-0.14-0.41-0.46-0.58-0.7-0.17-0.25-0.46-0.59-0.65-0.76-0.19-0.17-0.43-0.42-0.53-0.56-0.11-0.13-0.4-0.4-0.65-0.59-0.25-0.19-0.61-0.49-0.82-0.66-0.2-0.18-0.56-0.42-0.8-0.55-0.24-0.12-0.49-0.3-0.56-0.4-0.08-0.11-0.46-0.35-0.87-0.53-0.4-0.19-0.76-0.38-0.79-0.44-0.1-0.17-0.58-0.37-1.32-0.57-0.38-0.1-0.83-0.29-1-0.41-0.32-0.24-0.85-0.38-2.09-0.54-0.39-0.05-1.18-0.16-1.75-0.25-1.11-0.18-2.82-0.3-2.91-0.21zm4.76 0.93c0.49 0.08 0.97 0.21 1.05 0.28 0.21 0.17 1.07 0.55 1.24 0.55 0.53 0 1.2 0.25 1.51 0.56 0.19 0.19 0.41 0.34 0.49 0.34 0.07 0 0.27 0.07 0.42 0.15 0.16 0.09 0.37 0.15 0.46 0.15 0.1 0 0.27 0.13 0.39 0.29 0.11 0.16 0.43 0.39 0.69 0.51 0.27 0.12 0.55 0.32 0.64 0.45 0.08 0.13 0.31 0.33 0.5 0.45 0.39 0.24 1.37 1.2 2.01 1.96 0.22 0.26 0.54 0.62 0.7 0.79 0.16 0.17 0.41 0.53 0.55 0.81 0.14 0.27 0.35 0.54 0.48 0.6 0.13 0.05 0.25 0.22 0.28 0.4 0.04 0.16 0.1 0.34 0.14 0.4 0.04 0.05 0.11 0.22 0.14 0.38 0.04 0.15 0.23 0.45 0.42 0.66 0.19 0.21 0.34 0.45 0.34 0.53 0 0.37 0.43 1.76 0.65 2.08 0.76 1.14 0.74 9.29-0.03 10.12-0.17 0.18-0.39 0.84-0.61 1.87-0.05 0.25-0.22 0.58-0.38 0.76-0.16 0.17-0.4 0.6-0.53 0.95-0.15 0.41-0.35 0.75-0.56 0.93-0.18 0.16-0.35 0.42-0.39 0.58-0.03 0.16-0.18 0.38-0.34 0.49-0.15 0.11-0.4 0.4-0.56 0.65-0.16 0.25-0.37 0.49-0.47 0.52-0.1 0.03-0.18 0.1-0.18 0.16 0 0.15-1.59 1.68-1.75 1.68-0.07 0-0.27 0.18-0.44 0.39-0.19 0.24-0.43 0.42-0.61 0.46-0.16 0.04-0.42 0.21-0.57 0.39-0.18 0.2-0.53 0.41-0.93 0.56-0.36 0.13-0.82 0.39-1.03 0.57-0.2 0.18-0.45 0.33-0.55 0.33-0.48 0-2.12 0.55-2.12 0.71 0 0.63-9.01 0.63-9.91 0-0.36-0.25-1.31-0.59-1.88-0.66-0.36-0.05-0.59-0.16-0.86-0.41-0.2-0.18-0.49-0.36-0.64-0.4-0.15-0.04-0.31-0.1-0.37-0.14-0.05-0.04-0.25-0.11-0.42-0.14-0.18-0.04-0.33-0.12-0.33-0.17 0-0.17-0.34-0.45-0.82-0.68-0.26-0.12-0.5-0.3-0.53-0.39-0.03-0.1-0.19-0.26-0.36-0.36-0.68-0.4-3.28-3.17-3.45-3.68-0.06-0.17-0.24-0.43-0.41-0.57-0.17-0.14-0.34-0.41-0.38-0.59-0.04-0.17-0.11-0.35-0.16-0.38-0.05-0.03-0.09-0.14-0.09-0.25 0-0.11-0.16-0.36-0.35-0.56-0.31-0.32-0.55-0.97-0.55-1.5 0-0.08-0.17-0.5-0.37-0.92-0.91-1.92-0.97-9.28-0.08-10.42 0.15-0.2 0.4-0.93 0.54-1.63q0.12-0.58 0.42-0.93c0.17-0.18 0.4-0.62 0.53-0.97 0.14-0.39 0.35-0.76 0.59-0.99 0.2-0.2 0.37-0.45 0.37-0.56 0-0.12 0.17-0.34 0.4-0.52 0.22-0.18 0.4-0.36 0.4-0.41 0-0.11 0.22-0.38 0.77-0.93 1.06-1.06 1.72-1.66 1.81-1.66 0.06 0 0.25-0.18 0.42-0.4 0.18-0.23 0.4-0.4 0.52-0.4 0.11 0 0.36-0.17 0.56-0.37 0.24-0.24 0.6-0.46 1.01-0.6 0.35-0.12 0.76-0.34 0.91-0.49 0.27-0.25 1.04-0.55 1.43-0.55 0.11 0 0.56-0.17 1.01-0.38 0.85-0.41 1.8-0.59 3.46-0.66 1.5-0.06 4.87 0.06 5.76 0.21zm2.01 6.7c-0.14 0.15-0.26 0.3-0.26 0.35 0 0.05-0.18 0.2-0.41 0.34-0.22 0.14-0.44 0.35-0.49 0.48-0.05 0.12-0.15 0.39-0.23 0.6-0.12 0.34-0.16 0.37-0.29 0.24-0.08-0.08-0.34-0.18-0.59-0.22-0.24-0.04-0.49-0.11-0.54-0.15-0.26-0.2-0.81-0.2-1.18 0-0.51 0.27-2.91 2.67-3.17 3.17-0.31 0.59 0.08 2.02 0.59 2.18 0.44 0.14 0.24 0.43-0.35 0.51-0.54 0.06-0.81 0.24-1.25 0.8-0.08 0.11-0.27 0.28-0.42 0.37-0.15 0.1-0.34 0.3-0.42 0.45-0.08 0.16-0.3 0.37-0.5 0.48-0.2 0.1-0.38 0.27-0.42 0.38-0.08 0.25-0.35 0.56-0.49 0.56-0.13 0-0.55 0.43-0.55 0.56 0 0.13-0.32 0.41-0.56 0.48-0.1 0.04-0.29 0.24-0.42 0.46-0.12 0.22-0.28 0.4-0.35 0.4-0.15 0-0.67 0.48-0.67 0.62 0 0.05-0.06 0.16-0.14 0.24-0.08 0.08-0.19 0.15-0.25 0.15-0.14 0-0.61 0.51-0.61 0.66 0 0.07-0.17 0.22-0.38 0.34-0.21 0.12-0.47 0.36-0.57 0.55-0.1 0.19-0.27 0.37-0.37 0.4-0.25 0.08-0.54 0.37-0.62 0.62-0.04 0.11-0.22 0.28-0.41 0.38-0.19 0.1-0.42 0.34-0.52 0.52-0.1 0.18-0.26 0.36-0.37 0.39q-0.38 0.12-0.71 0.7c-0.1 0.18-0.29 0.37-0.42 0.43-0.47 0.21-0.49 1.06-0.03 1.31 0.11 0.06 0.26 0.26 0.35 0.44 0.09 0.19 0.29 0.42 0.43 0.52 0.15 0.09 0.43 0.35 0.63 0.56 0.41 0.44 0.81 0.52 1.42 0.27 0.32-0.13 10.34-10.08 10.6-10.52 0.07-0.13 0.17-0.41 0.23-0.63 0.12-0.45 0.39-0.58 0.5-0.24 0.09 0.28 0.32 0.52 0.63 0.69 0.13 0.07 0.3 0.27 0.37 0.46 0.08 0.18 0.26 0.41 0.41 0.51 0.92 0.65 1.27 1.25 0.99 1.74-0.22 0.37-0.2 1.52 0.02 1.72 0.75 0.65 2.6 0.57 3.69-0.17 0.2-0.14 0.45-0.25 0.55-0.25 0.31 0 1.07-0.38 1.31-0.65 0.12-0.14 0.41-0.37 0.65-0.51 0.24-0.14 0.43-0.32 0.43-0.4q0.01-0.13 0.1-0.15 0.09-0.01 0.1-0.12c0-0.08 0.17-0.31 0.38-0.53 0.23-0.23 0.46-0.63 0.57-0.95 0.11-0.3 0.3-0.7 0.44-0.88 0.67-0.93 0.7-2.84 0.05-3.5-0.32-0.32-1.61-0.32-2.01 0q-0.12 0.1-0.34-0.11c-0.13-0.11-0.35-0.26-0.51-0.33-0.15-0.07-0.33-0.26-0.4-0.43-0.13-0.31-0.33-0.5-0.81-0.75-0.21-0.11-0.36-0.32-0.52-0.71l-0.22-0.56 0.31-0.19c0.43-0.25 0.78-0.6 1.2-1.21l0.36-0.53-0.2-0.32c-0.11-0.18-0.2-0.39-0.2-0.47 0-0.22-0.39-0.7-0.68-0.83-0.14-0.07-0.32-0.24-0.39-0.38-0.33-0.67-1.54-0.87-2.07-0.34zm1.68 0.58c0.1 0.18 0.33 0.42 0.5 0.51 1.3 0.7 0.35 2.61-1.38 2.81-0.83 0.1-0.88 0.41-0.14 0.83 0.23 0.13 0.58 0.42 0.78 0.64 0.19 0.21 0.53 0.48 0.75 0.58 0.54 0.26 0.91 1.11 0.74 1.74-0.27 1.02-0.44 1.42-0.72 1.65-0.16 0.14-0.38 0.44-0.49 0.67-0.12 0.26-0.28 0.44-0.43 0.47-0.13 0.04-0.39 0.22-0.59 0.41-0.46 0.44-0.8 0.62-1.39 0.71-0.26 0.04-0.5 0.11-0.53 0.16-0.08 0.13-0.38 0.1-0.71-0.07-0.15-0.08-0.35-0.15-0.44-0.15-0.09 0-0.25-0.16-0.35-0.37-0.11-0.21-0.36-0.53-0.56-0.73-0.2-0.19-0.44-0.5-0.55-0.7-0.1-0.19-0.24-0.4-0.31-0.48-0.07-0.07-0.12-0.17-0.12-0.21 0-0.04-0.11-0.12-0.24-0.18-0.15-0.07-0.31-0.29-0.41-0.55-0.1-0.28-0.28-0.51-0.46-0.62-0.17-0.09-0.39-0.37-0.5-0.6-0.11-0.24-0.31-0.49-0.45-0.56-0.14-0.08-0.27-0.25-0.3-0.39-0.03-0.14-0.1-0.36-0.15-0.49-0.05-0.13-0.1-0.3-0.1-0.38 0-0.17 2.83-3.04 3.17-3.22 0.24-0.13 1.11 0.07 1.36 0.31 0.37 0.36 0.73 0.57 0.98 0.57 0.22 0 0.3 0.06 0.38 0.29 0.17 0.49 0.71 0.64 0.86 0.24 0.09-0.22-0.27-0.53-0.59-0.53-0.42 0-0.29-1.4 0.17-1.7 0.36-0.24 0.78-0.7 0.78-0.86 0-0.35 1.23-0.18 1.44 0.2zm4.16 7.18c0.7 0.16 0.82 0.9 0.33 1.98-0.12 0.25-0.3 0.75-0.42 1.1-0.12 0.39-0.35 0.81-0.56 1.05-0.19 0.21-0.37 0.47-0.4 0.57-0.04 0.1-0.1 0.18-0.14 0.18-0.05 0-0.11 0.11-0.15 0.23-0.03 0.13-0.27 0.35-0.57 0.53-0.28 0.16-0.63 0.42-0.78 0.57-0.25 0.27-0.78 0.49-1.51 0.63-0.19 0.04-0.53 0.16-0.75 0.27-1.47 0.74-2.53 0.08-1.92-1.2 0.32-0.69 0.52-0.83 1.38-0.97q0.37-0.06 0.65-0.39c0.16-0.19 0.46-0.41 0.67-0.51 0.2-0.1 0.45-0.31 0.54-0.46 0.09-0.15 0.26-0.33 0.38-0.4 0.12-0.06 0.3-0.28 0.4-0.48 0.11-0.2 0.36-0.53 0.56-0.74 0.31-0.31 0.39-0.47 0.44-0.92 0.08-0.62 0.27-0.84 0.84-1.02 0.48-0.16 0.43-0.15 1.01-0.02zm-2.37 0.94c-0.05 0.37-0.08 0.44-0.14 0.29-0.1-0.25-0.11-0.78-0.02-1.01 0.12-0.3 0.22 0.16 0.16 0.72zm-9.77-0.58c0.06 0.04 0.23 0.33 0.38 0.65 0.15 0.31 0.35 0.62 0.45 0.67 0.34 0.18 0.46 0.68 0.26 1.03-0.27 0.45-10.36 10.52-10.72 10.7-0.34 0.16-0.56 0.06-0.8-0.38-0.06-0.1-0.25-0.28-0.42-0.39-0.17-0.11-0.41-0.4-0.53-0.65-0.13-0.25-0.3-0.5-0.38-0.57-0.14-0.1-0.11-0.16 0.21-0.49 0.21-0.21 0.38-0.43 0.38-0.5 0-0.07 0.15-0.23 0.32-0.35 0.42-0.29 0.68-0.55 0.68-0.69 0-0.05 0.18-0.21 0.39-0.35 0.22-0.13 0.47-0.37 0.56-0.52 0.09-0.16 0.35-0.41 0.57-0.57 0.22-0.15 0.43-0.36 0.45-0.47 0.03-0.11 0.09-0.19 0.13-0.19 0.12 0 0.9-0.75 0.9-0.86 0-0.05 0.16-0.2 0.35-0.32 0.19-0.12 0.45-0.38 0.58-0.57 0.12-0.2 0.26-0.35 0.32-0.35 0.14-0.01 0.75-0.63 0.75-0.77 0-0.07 0.09-0.15 0.2-0.18 0.11-0.04 0.37-0.26 0.57-0.49 0.21-0.24 0.53-0.54 0.71-0.67 0.18-0.13 0.35-0.32 0.38-0.42 0.03-0.1 0.21-0.28 0.4-0.41 0.19-0.13 0.48-0.42 0.64-0.65 0.17-0.23 0.37-0.42 0.46-0.42 0.08 0 0.27-0.17 0.42-0.39 0.16-0.24 0.38-0.41 0.52-0.44 0.44-0.07 0.75-0.07 0.87 0.01zm8.91 1.98c0.07 0.22-0.15 0.39-0.31 0.25-0.13-0.1-0.14-0.16-0.05-0.27 0.13-0.15 0.31-0.14 0.36 0.02zm-1.02 1.17c-0.28 0.15-0.55-0.01-0.31-0.18 0.15-0.11 0.23-0.12 0.33-0.03 0.12 0.1 0.12 0.13-0.02 0.21zm-1.25 0.87c-0.26 0.15-0.93 0.17-0.98 0.03-0.03-0.09 0.12-0.12 0.55-0.12q0.57 0 0.43 0.09z"/>
	</g>
</svg>