<?xml version="1.0" encoding="UTF-8" standalone="no"?>
<svg
   width="160"
   height="74"
   viewBox="0 0 42.333 19.579"
   version="1.1"
   id="svg4"
   sodipodi:docname="map-deposit-box-03.svg"
   inkscape:version="1.4 (e7c3feb1, 2024-10-09)"
   xmlns:inkscape="http://www.inkscape.org/namespaces/inkscape"
   xmlns:sodipodi="http://sodipodi.sourceforge.net/DTD/sodipodi-0.dtd"
   xmlns="http://www.w3.org/2000/svg"
   xmlns:svg="http://www.w3.org/2000/svg">
  <sodipodi:namedview
     id="namedview4"
     pagecolor="#ffffff"
     bordercolor="#000000"
     borderopacity="0.25"
     inkscape:showpageshadow="2"
     inkscape:pageopacity="0.0"
     inkscape:pagecheckerboard="0"
     inkscape:deskcolor="#d1d1d1"
     showgrid="false"
     inkscape:zoom="4.5857726"
     inkscape:cx="73.488162"
     inkscape:cy="56.806131"
     inkscape:window-width="1920"
     inkscape:window-height="1022"
     inkscape:window-x="0"
     inkscape:window-y="128"
     inkscape:window-maximized="1"
     inkscape:current-layer="svg4">
    <inkscape:grid
       id="grid4"
       units="px"
       originx="0"
       originy="0"
       spacingx="0.26458125"
       spacingy="0.26458108"
       empcolor="#0099e5"
       empopacity="0.30196078"
       color="#0099e5"
       opacity="0.14901961"
       empspacing="5"
       enabled="true"
       visible="false" />
  </sodipodi:namedview>
  <defs
     id="defs1">
    <clipPath
       id="a">
      <rect
         width="42.333"
         height="16.933"
         x="-4.233"
         y="282.183"
         rx="2.117"
         ry="2.117"
         fill="#2d2d2d"
         stroke-width="2.822"
         id="rect1" />
    </clipPath>
  </defs>
  <rect
     width="24.341999"
     height="4.2329998"
     x="8.9960003"
     y="14.533988"
     rx="2.1170001"
     ry="2.1170001"
     fill="none"
     stroke-width="1.587"
     stroke-linecap="round"
     id="rect2"
     style="stroke:#191919" />
  <rect
     ry="2.1170001"
     rx="2.1170001"
     y="282.18301"
     x="-4.2329998"
     height="16.933001"
     width="42.333"
     clip-path="url(#a)"
     transform="translate(4.233,-282.184)"
     fill="#a67b1b"
     stroke-width="3.175"
     id="rect3"
     style="stroke:#191919;fill:#b3b3b3;fill-opacity:1" />
  <circle
     cx="33.073002"
     cy="11.905997"
     fill="#f1b023"
     stroke-width="1.058"
     stroke-miterlimit="10"
     id="ellipse3"
     r="1.852"
     style="stroke:#191919;fill:#d9d9d9;fill-opacity:1" />
  <path
     d="M 21.166,15.346 V 1.588"
     fill="none"
     stroke-width="1.587"
     id="path3"
     style="stroke:#191919" />
  <circle
     cy="5.027"
     cx="33.073002"
     fill="#f1b023"
     stroke-width="1.058"
     stroke-miterlimit="10"
     id="ellipse4"
     r="1.852"
     style="stroke:#191919;fill:#d9d9d9;fill-opacity:1" />
  <path
     style="fill:#341010;fill-opacity:1;stroke:none;stroke-width:1.24089;stroke-linecap:square;stroke-linejoin:bevel;stroke-miterlimit:4;stroke-dasharray:none;stroke-opacity:1;paint-order:normal"
     d="M 16.043472,8.6353747 A 5.4602393,5.4602393 0 0 0 11.910948,3.3443555 v 0.8298111 a 4.6569498,4.6569498 0 0 1 3.329287,4.4612081 4.6569498,4.6569498 0 0 1 -3.329287,4.4599123 v 0.829485 A 5.4602393,5.4602393 0 0 0 16.043472,8.6353747 Z M 9.2555471,3.3459763 A 5.4602393,5.4602393 0 0 0 5.1230273,8.6353747 5.4602393,5.4602393 0 0 0 9.2555471,13.926394 V 13.096583 A 4.6569498,4.6569498 0 0 1 5.9262579,8.6353747 4.6569498,4.6569498 0 0 1 9.2555471,4.1754638 Z"
     id="circle856"
     inkscape:connector-curvature="0" />
  <g
     id="g992"
     transform="matrix(0.28516639,0,0,0.28516639,-12.504536,5.0543398)"
     style="fill:#341010;fill-opacity:1;stroke-width:1.59423">
    <circle
       style="fill:#341010;fill-opacity:1;stroke:none;stroke-width:0.546565;stroke-linecap:square;stroke-linejoin:bevel;stroke-miterlimit:4;stroke-dasharray:none;stroke-opacity:1;paint-order:normal"
       id="circle980"
       cx="80.962502"
       cy="-6.664412"
       r="1.0285211" />
    <path
       style="fill:#341010;fill-opacity:1;stroke:none;stroke-width:1.68722;stroke-linecap:square;stroke-linejoin:bevel;stroke-miterlimit:4;stroke-dasharray:none;stroke-opacity:1;paint-order:normal"
       d="m 79.904168,-5.2916666 h 2.116666 c 0,0 1.5875,2.1166659 0,6.3499997 h -2.116666 c -1.5875,-4.2333338 0,-6.3499997 0,-6.3499997 z"
       id="path982"
       inkscape:connector-curvature="0"
       sodipodi:nodetypes="ccccc" />
    <path
       sodipodi:nodetypes="ccccccc"
       inkscape:connector-curvature="0"
       id="path984"
       d="m 79.904168,1.5874998 h 2.116666 l 0.529167,0.5291667 v 2.1166667 h -3.175 V 2.1166665 Z"
       style="fill:#341010;fill-opacity:1;stroke:none;stroke-width:1.68722;stroke-linecap:square;stroke-linejoin:bevel;stroke-miterlimit:4;stroke-dasharray:none;stroke-opacity:1;paint-order:normal" />
    <path
       style="fill:#341010;fill-opacity:1;stroke:none;stroke-width:1.68722;stroke-linecap:square;stroke-linejoin:bevel;stroke-miterlimit:4;stroke-dasharray:none;stroke-opacity:1;paint-order:normal"
       d="m 87.114581,1.0583332 c 1.55096,0.9581384 1.191036,2.0203999 0.727087,2.6458333 -0.320159,0.3794475 -1.903227,1.0583333 -2.116667,-1.0583333 0,0 -0.963471,0.4728731 -1.058333,1.5875 h -1.5875 V 2.1166665 c 0,0 2.937484,-1.58750002 4.035413,-1.0583333 z"
       id="path986"
       inkscape:connector-curvature="0"
       sodipodi:nodetypes="ccccccc" />
    <path
       style="fill:#341010;fill-opacity:1;stroke:none;stroke-width:1.68722;stroke-linecap:square;stroke-linejoin:bevel;stroke-miterlimit:4;stroke-dasharray:none;stroke-opacity:1;paint-order:normal"
       d="m 80.962501,32.808334 c 0,0 -1.5875,-3.175 -1.5875,-5.291667 V 4.7624998 h 3.175 V 27.516667 c 0,2.116667 -1.5875,5.291667 -1.5875,5.291667 z"
       id="path988"
       inkscape:connector-curvature="0"
       sodipodi:nodetypes="cccccc" />
    <path
       sodipodi:nodetypes="ccccccc"
       inkscape:connector-curvature="0"
       id="path990"
       d="m 74.810421,1.0583332 c -1.55096,0.9581384 -1.191036,2.0203999 -0.727087,2.6458333 0.320159,0.3794475 1.903227,1.0583333 2.116667,-1.0583333 0,0 0.963471,0.4728731 1.058333,1.5875 h 1.5875 V 2.1166665 c 0,0 -2.937484,-1.58750002 -4.035413,-1.0583333 z"
       style="fill:#341010;fill-opacity:1;stroke:none;stroke-width:1.68722;stroke-linecap:square;stroke-linejoin:bevel;stroke-miterlimit:4;stroke-dasharray:none;stroke-opacity:1;paint-order:normal" />
  </g>
</svg>
