<?xml version="1.0" encoding="UTF-8" standalone="no"?>
<svg
   style="isolation:isolate"
   width="128"
   height="128"
   version="1.1"
   id="svg6"
   sodipodi:docname="proj-frag-nopin-nolever-03.svg"
   inkscape:version="1.4.2 (f4327f4, 2025-05-13)"
   xmlns:inkscape="http://www.inkscape.org/namespaces/inkscape"
   xmlns:sodipodi="http://sodipodi.sourceforge.net/DTD/sodipodi-0.dtd"
   xmlns="http://www.w3.org/2000/svg"
   xmlns:svg="http://www.w3.org/2000/svg"
   xmlns:rdf="http://www.w3.org/1999/02/22-rdf-syntax-ns#"
   xmlns:cc="http://creativecommons.org/ns#"
   xmlns:dc="http://purl.org/dc/elements/1.1/">
  <metadata
     id="metadata12">
    <rdf:RDF>
      <cc:Work
         rdf:about="">
        <dc:format>image/svg+xml</dc:format>
        <dc:type
           rdf:resource="http://purl.org/dc/dcmitype/StillImage" />
      </cc:Work>
    </rdf:RDF>
  </metadata>
  <defs
     id="defs10" />
  <sodipodi:namedview
     pagecolor="#ffffff"
     bordercolor="#666666"
     borderopacity="1"
     objecttolerance="10"
     gridtolerance="10"
     guidetolerance="10"
     inkscape:pageopacity="0"
     inkscape:pageshadow="2"
     inkscape:window-width="3440"
     inkscape:window-height="1351"
     id="namedview8"
     showgrid="false"
     inkscape:zoom="7.375"
     inkscape:cx="73.627119"
     inkscape:cy="61.898305"
     inkscape:window-x="-9"
     inkscape:window-y="-9"
     inkscape:window-maximized="1"
     inkscape:current-layer="svg6"
     inkscape:showpageshadow="2"
     inkscape:pagecheckerboard="0"
     inkscape:deskcolor="#d1d1d1" />
  <path
     fill="#63590d"
     stroke="#202020"
     stroke-width="11.8"
     d="M 43.292,12 94.679404,14.684609 84.708,48 H 43.292 Z"
     id="path2"
     style="fill:#250101;fill-opacity:1;stroke:#3e1010;stroke-opacity:1"
     sodipodi:nodetypes="ccccc" />
  <path
     id="path1"
     style="fill:#250101;fill-opacity:1;stroke:#3e1010;stroke-width:10;stroke-linejoin:round;paint-order:fill markers stroke;stroke-dasharray:none"
     d="M 22.410156 42.494141 L 5.5410156 67.130859 L 25.443359 76.216797 A 38.903999 38.903999 0 0 0 25.095703 81.398438 A 38.903999 38.903999 0 0 0 32.068359 103.62305 L 26.548828 118.94336 L 44.248047 114.91406 A 38.903999 38.903999 0 0 0 64 120.30273 A 38.903999 38.903999 0 0 0 92.931641 107.4082 L 116.33203 116.48633 L 110.41016 87.220703 L 101.80664 90.576172 A 38.903999 38.903999 0 0 0 102.9043 81.398438 A 38.903999 38.903999 0 0 0 102.33594 74.767578 L 119.23633 45.984375 L 91.970703 54.359375 A 38.903999 38.903999 0 0 0 64 42.494141 A 38.903999 38.903999 0 0 0 30.505859 61.607422 L 22.410156 42.494141 z " />
  <g
     style="isolation:isolate;fill:#b70505;fill-opacity:1"
     transform="matrix(0.23224288,0,0,0.25666244,23.764153,30.193549)"
     id="g18">
    <polygon
       style="fill:#b70505;fill-opacity:1"
       points="199.249,279.77 173.249,258.17 147.249,279.77 102.849,250.57 88.849,264.97 44.449,196.57 88.849,224.97 102.849,210.57 147.249,239.77 173.249,218.17 199.249,239.77 243.649,210.57 257.249,224.97 302.049,196.57 257.249,264.97 243.649,250.57 "
       id="polygon12" />
    <polygon
       style="fill:#b70505;fill-opacity:1"
       points="271.649,194.17 247.649,162.17 271.649,130.57 198.449,162.17 "
       id="polygon14" />
    <polygon
       style="fill:#b70505;fill-opacity:1"
       points="79.249,194.17 103.249,162.17 79.249,130.57 152.049,162.17 "
       id="polygon16" />
  </g>
</svg>
