<?xml version="1.0" encoding="UTF-8" standalone="no"?>
<svg
   width="124.84341"
   height="72.759552"
   version="1.1"
   id="svg2"
   sodipodi:docname="duo-player.svg"
   inkscape:version="1.4.2 (ebf0e940d0, 2025-05-08)"
   xmlns:inkscape="http://www.inkscape.org/namespaces/inkscape"
   xmlns:sodipodi="http://sodipodi.sourceforge.net/DTD/sodipodi-0.dtd"
   xmlns="http://www.w3.org/2000/svg"
   xmlns:svg="http://www.w3.org/2000/svg">
  <defs
     id="defs2" />
  <sodipodi:namedview
     id="namedview2"
     pagecolor="#ffffff"
     bordercolor="#000000"
     borderopacity="0.25"
     inkscape:showpageshadow="2"
     inkscape:pageopacity="0.0"
     inkscape:pagecheckerboard="0"
     inkscape:deskcolor="#d1d1d1"
     showguides="true"
     inkscape:zoom="4.4801844"
     inkscape:cx="63.05544"
     inkscape:cy="70.867619"
     inkscape:window-width="1920"
     inkscape:window-height="1017"
     inkscape:window-x="0"
     inkscape:window-y="0"
     inkscape:window-maximized="1"
     inkscape:current-layer="svg2">
    <inkscape:page
       x="0"
       y="0"
       width="124.84341"
       height="72.759552"
       id="page2"
       margin="0"
       bleed="0" />
  </sodipodi:namedview>
  <g
     id="g1"
     transform="translate(-1.455284,1.6630801)">
    <path
       d="M 32.406808,6.3042329 A 24.801066,24.801066 0 0 0 7.6057427,31.105299 24.801066,24.801066 0 0 0 9.9463433,41.555331 11.367155,11.345454 0 0 1 14.839387,40.43825 a 11.367155,11.345454 0 0 1 11.367156,11.344938 11.367155,11.345454 0 0 1 -0.463988,3.18487 24.801066,24.801066 0 0 0 6.664253,0.938307 24.801066,24.801066 0 0 0 6.664254,-0.938307 11.367155,11.345454 0 0 1 -0.463987,-3.18487 A 11.367155,11.345454 0 0 1 49.974231,40.43825 11.367155,11.345454 0 0 1 54.866757,41.558432 24.801066,24.801066 0 0 0 57.207874,31.105816 24.801066,24.801066 0 0 0 32.406808,6.3047499 Z"
       fill="#fff"
       stroke-width="12.6144"
       id="path1"
       style="fill:#ffffff;fill-opacity:1" />
    <path
       d="m 22.125734,53.846326 a 9.3003998,9.2828324 0 0 1 -9.3004,9.282833 9.3003998,9.2828324 0 0 1 -9.3003993,-9.282833 9.3003998,9.2828324 0 0 1 9.3003993,-9.282315 9.3003998,9.2828324 0 0 1 9.3004,9.282315 z m 39.215652,0 a 9.3003998,9.2828324 0 0 1 -9.3004,9.282833 9.3003998,9.2828324 0 0 1 -9.300399,-9.282833 9.3003998,9.2828324 0 0 1 9.300399,-9.282315 9.3003998,9.2828324 0 0 1 9.3004,9.282315 z"
       fill="#fff"
       stroke-width="4.72564"
       id="path2"
       style="fill:#ffffff;fill-opacity:1" />
    <path
       d="m 95.294463,6.3042329 a 24.801066,24.801066 0 0 0 -24.801066,24.8010661 24.801066,24.801066 0 0 0 2.340601,10.450032 11.367155,11.345454 0 0 1 4.893044,-1.117081 11.367155,11.345454 0 0 1 11.367156,11.344936 11.367155,11.345454 0 0 1 -0.463988,3.184872 24.801066,24.801066 0 0 0 6.664253,0.938307 24.801066,24.801066 0 0 0 6.664247,-0.938307 11.367155,11.345454 0 0 1 -0.46398,-3.184872 11.367155,11.345454 0 0 1 11.36716,-11.344936 11.367155,11.345454 0 0 1 4.89252,1.120182 24.801066,24.801066 0 0 0 2.34112,-10.452616 A 24.801066,24.801066 0 0 0 95.294463,6.3047499 Z"
       fill="#fff"
       stroke-width="12.6144"
       id="path1-6"
       style="fill:#ffffff;fill-opacity:1" />
    <path
       d="m 85.013388,53.846326 a 9.3003998,9.2828324 0 0 1 -9.300399,9.282833 9.3003998,9.2828324 0 0 1 -9.3004,-9.282833 9.3003998,9.2828324 0 0 1 9.3004,-9.282315 9.3003998,9.2828324 0 0 1 9.300399,9.282315 z m 39.215652,0 a 9.3003998,9.2828324 0 0 1 -9.3004,9.282833 9.3003998,9.2828324 0 0 1 -9.3004,-9.282833 9.3003998,9.2828324 0 0 1 9.3004,-9.282315 9.3003998,9.2828324 0 0 1 9.3004,9.282315 z"
       fill="#fff"
       stroke-width="4.72564"
       id="path2-7"
       style="fill:#ffffff;fill-opacity:1" />
  </g>
</svg>
