<?xml version="1.0" encoding="UTF-8" standalone="no"?>
<svg
   width="128"
   height="128"
   version="1.1"
   id="svg2"
   sodipodi:docname="squad-player.svg"
   inkscape:version="1.4.2 (ebf0e940d0, 2025-05-08)"
   xmlns:inkscape="http://www.inkscape.org/namespaces/inkscape"
   xmlns:sodipodi="http://sodipodi.sourceforge.net/DTD/sodipodi-0.dtd"
   xmlns="http://www.w3.org/2000/svg"
   xmlns:svg="http://www.w3.org/2000/svg">
  <defs
     id="defs2" />
  <sodipodi:namedview
     id="namedview2"
     pagecolor="#ffffff"
     bordercolor="#000000"
     borderopacity="0.25"
     inkscape:showpageshadow="2"
     inkscape:pageopacity="0.0"
     inkscape:pagecheckerboard="0"
     inkscape:deskcolor="#d1d1d1"
     showguides="true"
     inkscape:zoom="3.1679688"
     inkscape:cx="38.352651"
     inkscape:cy="64.868064"
     inkscape:window-width="1920"
     inkscape:window-height="1017"
     inkscape:window-x="0"
     inkscape:window-y="0"
     inkscape:window-maximized="1"
     inkscape:current-layer="svg2" />
  <path
     d="M 32.406808,5.5568984 A 24.801066,24.801066 0 0 0 7.6057427,30.357964 a 24.801066,24.801066 0 0 0 2.3406006,10.450032 11.367155,11.345454 0 0 1 4.8930437,-1.117081 11.367155,11.345454 0 0 1 11.367156,11.344938 11.367155,11.345454 0 0 1 -0.463988,3.18487 24.801066,24.801066 0 0 0 6.664253,0.938307 24.801066,24.801066 0 0 0 6.664254,-0.938307 11.367155,11.345454 0 0 1 -0.463987,-3.18487 11.367155,11.345454 0 0 1 11.367156,-11.344938 11.367155,11.345454 0 0 1 4.892526,1.120182 A 24.801066,24.801066 0 0 0 57.207874,30.358481 24.801066,24.801066 0 0 0 32.406808,5.5574154 Z"
     fill="#fff"
     stroke-width="12.6144"
     id="path1"
     style="fill:#ffffff;fill-opacity:1" />
  <path
     d="m 22.125734,53.098991 a 9.3003998,9.2828324 0 0 1 -9.3004,9.282833 9.3003998,9.2828324 0 0 1 -9.3003993,-9.282833 9.3003998,9.2828324 0 0 1 9.3003993,-9.282315 9.3003998,9.2828324 0 0 1 9.3004,9.282315 z m 39.215652,0 a 9.3003998,9.2828324 0 0 1 -9.3004,9.282833 9.3003998,9.2828324 0 0 1 -9.300399,-9.282833 9.3003998,9.2828324 0 0 1 9.300399,-9.282315 9.3003998,9.2828324 0 0 1 9.3004,9.282315 z"
     fill="#fff"
     stroke-width="4.72564"
     id="path2"
     style="fill:#ffffff;fill-opacity:1" />
  <path
     d="m 95.294463,5.5568984 a 24.801066,24.801066 0 0 0 -24.801066,24.8010656 24.801066,24.801066 0 0 0 2.340601,10.450032 11.367155,11.345454 0 0 1 4.893044,-1.117081 11.367155,11.345454 0 0 1 11.367156,11.344936 11.367155,11.345454 0 0 1 -0.463988,3.184872 24.801066,24.801066 0 0 0 6.664253,0.938307 24.801066,24.801066 0 0 0 6.664247,-0.938307 11.367155,11.345454 0 0 1 -0.46398,-3.184872 11.367155,11.345454 0 0 1 11.36716,-11.344936 11.367155,11.345454 0 0 1 4.89252,1.120182 24.801066,24.801066 0 0 0 2.34112,-10.452616 A 24.801066,24.801066 0 0 0 95.294463,5.5574154 Z"
     fill="#fff"
     stroke-width="12.6144"
     id="path1-6"
     style="fill:#ffffff;fill-opacity:1" />
  <path
     d="m 85.013388,53.098991 a 9.3003998,9.2828324 0 0 1 -9.300399,9.282833 9.3003998,9.2828324 0 0 1 -9.3004,-9.282833 9.3003998,9.2828324 0 0 1 9.3004,-9.282315 9.3003998,9.2828324 0 0 1 9.300399,9.282315 z m 39.215652,0 a 9.3003998,9.2828324 0 0 1 -9.3004,9.282833 9.3003998,9.2828324 0 0 1 -9.3004,-9.282833 9.3003998,9.2828324 0 0 1 9.3004,-9.282315 9.3003998,9.2828324 0 0 1 9.3004,9.282315 z"
     fill="#fff"
     stroke-width="4.72564"
     id="path2-7"
     style="fill:#ffffff;fill-opacity:1" />
  <path
     d="m 32.40688,64.49972 a 24.801066,24.801066 0 0 0 -24.8010699,24.80107 24.801066,24.801066 0 0 0 2.3406,10.450029 11.367155,11.345454 0 0 1 4.8930499,-1.117079 11.367155,11.345454 0 0 1 11.36715,11.34493 11.367155,11.345454 0 0 1 -0.46399,3.18487 24.801066,24.801066 0 0 0 6.66426,0.93831 24.801066,24.801066 0 0 0 6.66425,-0.93831 11.367155,11.345454 0 0 1 -0.46399,-3.18487 A 11.367155,11.345454 0 0 1 49.9743,98.63374 11.367155,11.345454 0 0 1 54.86683,99.753919 24.801066,24.801066 0 0 0 57.20794,89.3013 24.801066,24.801066 0 0 0 32.40688,64.500237 Z"
     fill="#fff"
     stroke-width="12.6144"
     id="path1-3"
     style="fill:#ffffff;fill-opacity:1" />
  <path
     d="m 22.1258,112.04181 a 9.3003998,9.2828324 0 0 1 -9.3004,9.28284 9.3003998,9.2828324 0 0 1 -9.3004,-9.28284 9.3003998,9.2828324 0 0 1 9.3004,-9.28231 9.3003998,9.2828324 0 0 1 9.3004,9.28231 z m 39.21566,0 a 9.3003998,9.2828324 0 0 1 -9.3004,9.28284 9.3003998,9.2828324 0 0 1 -9.3004,-9.28284 9.3003998,9.2828324 0 0 1 9.3004,-9.28231 9.3003998,9.2828324 0 0 1 9.3004,9.28231 z"
     fill="#fff"
     stroke-width="4.72564"
     id="path2-5"
     style="fill:#ffffff;fill-opacity:1" />
  <path
     d="m 95.294531,64.49972 a 24.801066,24.801066 0 0 0 -24.801061,24.80107 24.801066,24.801066 0 0 0 2.3406,10.450029 11.367155,11.345454 0 0 1 4.89304,-1.117079 11.367155,11.345454 0 0 1 11.36716,11.34493 11.367155,11.345454 0 0 1 -0.46399,3.18487 24.801066,24.801066 0 0 0 6.664251,0.93831 24.801066,24.801066 0 0 0 6.664249,-0.93831 11.367155,11.345454 0 0 1 -0.46398,-3.18487 11.367155,11.345454 0 0 1 11.36716,-11.34493 11.367155,11.345454 0 0 1 4.89252,1.120179 A 24.801066,24.801066 0 0 0 120.0956,89.3013 24.801066,24.801066 0 0 0 95.294531,64.500237 Z"
     fill="#fff"
     stroke-width="12.6144"
     id="path1-6-6"
     style="fill:#ffffff;fill-opacity:1" />
  <path
     d="m 85.01346,112.04181 a 9.3003998,9.2828324 0 0 1 -9.3004,9.28284 9.3003998,9.2828324 0 0 1 -9.3004,-9.28284 9.3003998,9.2828324 0 0 1 9.3004,-9.28231 9.3003998,9.2828324 0 0 1 9.3004,9.28231 z m 39.21565,0 a 9.3003998,9.2828324 0 0 1 -9.3004,9.28284 9.3003998,9.2828324 0 0 1 -9.3004,-9.28284 9.3003998,9.2828324 0 0 1 9.3004,-9.28231 9.3003998,9.2828324 0 0 1 9.3004,9.28231 z"
     fill="#fff"
     stroke-width="4.72564"
     id="path2-7-2"
     style="fill:#ffffff;fill-opacity:1" />
</svg>
