<?xml version="1.0" encoding="UTF-8"?>
<svg width="128" height="128" version="1.1" xml:space="preserve" xmlns="http://www.w3.org/2000/svg"><g><circle transform="rotate(-45)" cx="3.9939e-6" cy="90.51" r="64" fill="#ffda44" stroke-width=".25"/><path d="m27.308 116.44a64 64 0 0 0 81.947-7.1816 64 64 0 0 0 7.183-81.948z" fill="#496e2d"/><path d="m18.746 18.746a64 64 0 0 0-7.1788 81.95l89.129-89.131a64 64 0 0 0-81.95 7.1816z" fill="#0052b4"/></g><g fill="#f0f0f0"><path d="m30.795 32.429-4.1049-2.9824-4.1049 2.9824 1.5682-4.8252-4.1049-2.9824h5.0738l1.5678-4.8252 1.5682 4.8252h5.0734l-4.1049 2.9824z"/><path d="m30.795 53.255-4.1049-2.9824-4.1049 2.9824 1.5682-4.8252-4.1049-2.9824h5.0738l1.5678-4.8252 1.5682 4.8252 5.0734-1e-5 -4.1049 2.9824z"/><path d="m51.621 32.429-4.1049-2.9824-4.1049 2.9824 1.5682-4.8252-4.1049-2.9824h5.0738l1.5678-4.8252 1.5682 4.8252 5.0734 1e-5 -4.1049 2.9824z"/><path d="m51.621 53.255-4.1049-2.9824-4.1049 2.9824 1.5682-4.8252-4.1049-2.9824h5.0738l1.5678-4.8252 1.5682 4.8252h5.0734l-4.1049 2.9824z"/><path d="m41.208 42.842-4.1049-2.9824-4.1049 2.9824 1.5682-4.8252-4.1049-2.9824h5.0738l1.5678-4.8252 1.5682 4.8252h5.0734l-4.1049 2.9824z"/></g></svg>
