<svg xmlns="http://www.w3.org/2000/svg" xmlns:xlink="http://www.w3.org/1999/xlink" width="128" height="128"><path fill="#f0f0f0" d="M3.98 41.74A63.864 63.864 0 0 0 0 64a63.862 63.862 0 0 0 3.98 22.26L64 91.827l60.02-5.565A63.862 63.862 0 0 0 128 64a63.864 63.864 0 0 0-3.98-22.26L64 36.173z"/><path fill="#d80027" d="M64 0C36.483 0 13.023 17.368 3.981 41.74H124.02C114.977 17.367 91.518 0 64 0" style="fill:#6da544;fill-opacity:1"/><path fill="#6da544" d="M64 128c27.518 0 50.977-17.368 60.02-41.74H3.98C13.024 110.633 36.483 128 64 128" style="fill:#d80027;fill-opacity:1"/><path d="M17.33065 39.39488h10v49.21113h-10zM29.23618 39.39488h10v49.21113h-10zM41.14171 39.39488h10v49.21113h-10zM53.04724 39.39488h10v49.21113h-10zM64.95277 39.39488h10v49.21113h-10zM76.85829 39.39488h10v49.21113h-10zM88.76382 39.39488h10v49.21113h-10zM100.66935 39.39488h10v49.21113h-10z" style="fill:#f0f0f0;fill-opacity:1;stroke:none;stroke-width:.609334;stroke-dasharray:none;stroke-opacity:1"/><path fill="#f0f0f0" d="M15.42512 39.39488H7.27398c-2.91834 7.8747-4.7079 16.20695-4.69907 24.60502-.00888 8.39806 1.78068 16.73033 4.69907 24.605l8.15114.0022zM112.57488 39.39488h8.15114c2.91834 7.8747 4.7079 16.20695 4.69907 24.60502.009 8.39806-1.78069 16.73033-4.69907 24.605l-8.15114.0022z" style="fill:#f0f0f0;fill-opacity:1"/><g fill="#da0000" style="fill:#d80027;fill-opacity:1" transform="translate(64 64)scale(16.7)"><g id="a" style="fill:#d80027;fill-opacity:1"><path d="M1.01568-.01556a.77528.77529 0 0 1-.41369.68608 1.00407 1.00407 0 0 0-.15764-1.4112Q.4222-.75838.39907-.7748a.77576.77576 0 0 1 .6166.75925" style="fill:#d80027;fill-opacity:1"/><path d="M.6559-.04684A.9269.9269 0 0 1-.5571.83422Q-.5326.8354-.50784.8354A1.01588 1.01588 0 0 0 .334-.7488a.9242.9242 0 0 1 .3219.70196M.26154-.94393A.14154.14154 0 0 1 0-.86888l-.01707-.01715L0-.9693a.13215.13215 0 0 0 .24983-.03089.14.14 0 0 1 .01171.05627" style="fill:#d80027;fill-opacity:1"/><path d="M.11993-.71445A.315.315 0 0 1 0-.81025l-.05069.79382.0507 1.01663.07882-.10853L.0892.64144.09997.38092l.00141-.0334L.10185.3351.10413.28095.1109.11694l.0055-.13242.00157-.03828L.12-.10248v-.61197ZM0-.54965l.00009.00016L0-.54934Zm0 .86448V.31459l.0004.00009Z" style="fill:#d80027;fill-opacity:1"/></g><use xlink:href="#a" style="fill:#d80027;fill-opacity:1" transform="scale(-1 1)"/></g><path d="m9.102 35.48828-1.06067 2h111.91734l-1.06067-2zM9.102 92.512l-1.06067-2h111.91734l-1.06067 2z" style="baseline-shift:baseline;display:inline;overflow:visible;vector-effect:none;fill:#f0f0f0;stop-color:#000"/></svg>