<?xml version="1.0" encoding="UTF-8"?>
<svg width="128" height="128" version="1.1" xml:space="preserve" xmlns="http://www.w3.org/2000/svg" xmlns:xlink="http://www.w3.org/1999/xlink"><defs><path id="b" d="m0 0 0.30902 0.95106-0.80902-0.58779h1l-0.80902 0.58779z"/></defs><g stroke-width=".25"><circle cx="64" cy="64" r="64" fill="#f0f0f0"/><path d="m61.218 64h66.782c0-5.7765-0.77-11.372-2.2048-16.696h-64.578zm0-33.391h57.389a64.338 64.338 0 0 0-14.768-16.696h-42.622zm2.7825 97.391c15.062 0 28.906-5.206 39.839-13.913h-79.678c10.932 8.707 24.777 13.913 39.839 13.913zm-54.606-30.609h109.21a63.618 63.618 0 0 0 7.1888-16.696h-123.59a63.618 63.618 0 0 0 7.1888 16.696z" fill="#d80027"/><path d="m64 0a64 64 0 0 0-64 64h64z" fill="#0052b4"/></g><use transform="matrix(32.776 0 0 32.776 36.751 21.487)" fill="#f0f0f0" stroke-width="1.9069" xlink:href="#b"/></svg>
