<?xml version="1.0" encoding="UTF-8"?>
<svg width="128" height="128" version="1.1" xml:space="preserve" xmlns="http://www.w3.org/2000/svg" xmlns:xlink="http://www.w3.org/1999/xlink"><defs><path id="a" d="m150 259.5-11.462 35.276 30.007-21.802h-37.091l30.007 21.802z"/></defs><g><g stroke-width=".25"><circle cx="64" cy="64" r="64" fill="#6da544"/><path d="m18.745 18.745a64 64 0 0 1 90.51-3e-6l-45.255 45.255z" fill="#ffda44"/><path d="m109.25 109.25a64 64 0 0 1-45.255 18.745 64 64 0 0 1-45.255-18.745l45.255-45.255z" fill="#ffda44"/></g><circle cx="64" cy="64" r="18.194" fill="#d80027" fill-rule="evenodd" stroke-linecap="square" stroke-miterlimit="40" stroke-width="2"/></g><style>.st1{fill:#ffda44}</style><path class="st1" d="m55.35 76.071 8.65-6.2746 8.65 6.2746-3.3166-10.159 8.65-6.2896h-10.682l-3.3016-10.159-3.3016 10.159h-10.682l8.6351 6.2896z" fill="#ffda44" stroke-width=".25"/><path d="m18.059 63.728c1.8185 3.6331 5.443 7.6343 8.6669 9.097 0.15659-3.6322-0.99883-8.3264-2.6556-12.087z" fill="#ce1126" stroke-width="2"/><g><path d="m14.791 51.514c2.7093 5.8432-7.4807 19.565 9.1533 23.03-2.0207-2.8343-3.1275-7.5742-2.5771-11.288 3.4539 1.4711 6.9171 4.8913 8.2782 8.0947 5.7361-15.993-11.288-14.473-14.854-19.837z" fill="#ffda44" stroke-width="2"/><path d="m64 0a64 64 0 0 0-44.414 17.92h88.828a64 64 0 0 0-44.414-17.92zm-44.414 110.08a64 64 0 0 0 44.414 17.92 64 64 0 0 0 44.414-17.92z" fill="#d80027" stroke-width="2"/><use transform="matrix(.42667 0 0 .42667 -42.666 .4834)" x="100" fill="#ffda44" stroke-width="4.6875" xlink:href="#a"/><use transform="matrix(.42667 0 0 .42667 -42.666 .86269)" x="100" y="-258" fill="#ffda44" stroke-width="4.6875" xlink:href="#a"/></g></svg>
