<?xml version="1.0" encoding="UTF-8"?>
<svg width="128" height="128" version="1.1" xml:space="preserve" xmlns="http://www.w3.org/2000/svg"><g stroke-width=".25"><path d="M 86.26,3.98 A 63.87,63.87 0 0 0 64,0 63.862,63.862 0 0 0 41.74,3.98 L 36.173,64 41.738,124.019 A 63.85,63.85 0 0 0 64,128 63.852,63.852 0 0 0 86.26,124.019 L 91.827,64 Z" fill="#fecb00"/><path d="m128 64c0-27.517-17.368-50.977-41.74-60.02v120.04c24.373-9.044 41.74-32.502 41.74-60.02z" fill="#a2001d"/><path d="m 0,64 c 0,27.518 17.368,50.976 41.739,60.02 V 3.98 C 17.368,13.024 0,36.482 0,64 Z" fill="#002664"/></g></svg>
