<?xml version="1.0" encoding="UTF-8"?>
<svg width="128" height="128" version="1.1" xml:space="preserve" xmlns="http://www.w3.org/2000/svg"><circle cx="64" cy="64" r="64" fill="#f0f0f0"/><style>.st1{fill:#ffda44}</style><g transform="matrix(2.0545 0 0 2.0545 -16.209 2.3665)" stroke-width="4.8675"><path d="m39.041-1.1519a31.152 31.152 0 0 0-11.459 2.1847l12.418 4.9673-15 5.9997 15 5.9997-15 6.0007 15 5.9997-15 5.9997 15 6.0007-15 5.9997 15 5.9997-12.418 4.9673a31.152 31.152 0 0 0 11.459 2.1847 31.152 31.152 0 0 0 31.152-31.152 31.152 31.152 0 0 0-31.152-31.152z" fill="#d80027" stroke-width="4.8675"/></g></svg>
