<svg xmlns="http://www.w3.org/2000/svg" width="128" height="128"><path d="M0 64a63.9 63.9 0 0 0 3.98 22.26L64 89.044l60.02-2.782A63.9 63.9 0 0 0 128 64a63.9 63.9 0 0 0-3.98-22.26L64 38.955 3.98 41.74A63.9 63.9 0 0 0 0 64" style="fill:#f0f0f0;fill-opacity:1"/><path fill="#0052b4" d="M64 0C36.482 0 13.023 17.368 3.98 41.74h120.04C114.976 17.367 91.517 0 64 0" style="fill:#d80027;fill-opacity:1"/><path fill="#f0f0f0" d="M124.02 86.26H3.98C13.024 110.633 36.483 128 64 128s50.977-17.368 60.02-41.74" style="fill:#000;fill-opacity:1"/></svg>