<?xml version="1.0" encoding="UTF-8"?>
<svg width="128" height="128" version="1.1" xml:space="preserve" xmlns="http://www.w3.org/2000/svg"><g><path d="m0 64c0-35.346 28.654-64 64-64s64 28.654 64 64l-64 5.565z" fill="#338af3"/><path d="m8.564 96c11.066 19.129 31.747 32 55.436 32s44.37-12.871 55.436-32l-55.436-4.174z" fill="#6da544"/><path d="m119.44 96c5.445-9.413 8.564-20.342 8.564-32h-128c0 11.658 3.119 22.587 8.564 32z" fill="#ffda44"/></g><style>.st1{fill:#ffda44}</style><style>.st1{fill:#ffda44}</style><path d="m94.08 47.382-4.6539-4.9641-4.6539 4.9641-0.84624-6.7495-6.681 1.2776 3.2763-5.9591-6.1528-2.8938 6.1528-2.8937-3.2763-5.9591 6.681 1.2776 0.84703-6.7487 4.6539 4.9641 4.6531-4.9641 0.84624 6.7487 6.6818-1.2776-3.2763 5.9591 6.1528 2.8937-6.1528 2.8945 3.2763 5.9591-6.681-1.2776z" fill="#ffda44"/></svg>
