<?xml version="1.0" encoding="UTF-8"?>
<svg width="128" height="128" version="1.1" xml:space="preserve" xmlns="http://www.w3.org/2000/svg"><g><path d="m128 64c1e-5 35.346-28.654 64-64 64-35.346 1e-5 -64-28.654-64-64 0 0.015004 64-63.993 64-64 35.346-2.8284e-6 64 28.654 64 64z" fill="#d80027" stroke-width=".25"/><path d="m64-5.2332e-5h-0.01004c-35.343 0.0060007-63.99 28.657-63.99 64l63.83-2.3e-5 0.171-0.171z" fill="#f0f0f0"/><path d="m30.344 30.344h-12.76v12.759h12.759v12.76h12.76l1e-6 -12.759h12.76l-1e-6 -12.76h-12.759v-12.76h-12.76z" fill="#d80027"/></g></svg>
