<?xml version="1.0" encoding="UTF-8"?>
<svg width="128" height="128" version="1.1" xml:space="preserve" xmlns="http://www.w3.org/2000/svg"><circle cx="64" cy="64" r="64" fill="#d80027"/><g stroke-width="10"><circle cx="64" cy="64" r="23.968" fill="#fff"/><path d="m64 46.023a17.976 17.976 0 0 0-17.977 17.977 17.976 17.976 0 0 0 17.977 17.977 17.976 17.976 0 0 0 14.527-7.3906 14.381 14.381 0 0 1-9.7344 3.7949 14.381 14.381 0 0 1-14.381-14.381 14.381 14.381 0 0 1 14.381-14.381 14.381 14.381 0 0 1 9.7344 3.7949 17.976 17.976 0 0 0-14.527-7.3906z" fill="#d80027"/><path d="m58.008 64 19.511-6.3394-12.057 16.598v-20.516l12.056 16.598z" fill="#d80027"/></g></svg>
