<?xml version="1.0" encoding="UTF-8"?>
<svg width="128" height="128" version="1.1" xml:space="preserve" xmlns="http://www.w3.org/2000/svg"><defs><clipPath id="clipPath1-4"><circle cx="64" cy="64" r="64"/></clipPath></defs><g><circle cx="64" cy="64" r="64" fill="#d80027"/><path d="M 64,0 C 36.482,0 13.023,17.368 3.98,41.74 H 124.02 C 114.976,17.367 91.517,0 64,0 Z"/><path d="m64 128c27.518 0 50.977-17.368 60.02-41.74h-120.04c9.044 24.373 32.503 41.74 60.02 41.74z" fill="#6da544"/></g><style>.st1{fill:#ffda44}</style><path d="m5.332 38.426a64 64 0 0 0-2.5781 7h122.49a64 64 0 0 0-2.5781-7zm-2.5781 44.148a64 64 0 0 0 2.5781 7h117.34a64 64 0 0 0 2.5781-7z" fill="#f0f0f0" fill-rule="evenodd" stop-color="#000000" stroke-linecap="square" stroke-miterlimit="40"/><polygon points="64 64 0 0 0 128" clip-path="url(#clipPath1-4)" fill="#338af3"/><path d="m33.169 76.079-8.1317-5.9079-8.1322 5.9079 3.1062-9.5596-8.1317-5.9083h10.052l3.1062-9.5596 3.1062 9.56h10.052l-8.1317 5.9074z" fill="#ffda44"/></svg>
