<?xml version="1.0" encoding="UTF-8"?>
<svg width="128" height="128" version="1.1" xml:space="preserve" xmlns="http://www.w3.org/2000/svg"><g><circle cx="64" cy="64" r="64" fill="#6da544"/><path d="m64 0c-25.373 0-47.297 14.766-57.65 36.174h115.3c-10.354-21.408-32.278-36.174-57.65-36.174zm-57.65 91.826c10.353 21.408 32.277 36.174 57.65 36.174s47.297-14.766 57.65-36.174z" fill="#d80027"/><path d="m54.713 52.175h7.0695l2.2179-6.6537 2.2179 6.6537h7.0695l-5.822 4.251 2.3565 6.7461-5.822-4.1586-5.822 4.1586 2.3565-6.7461zm-25.367-3.4193a35.121 29.017 0 0 0 69.309 0 34.655 33.731 0 0 1-69.309 0z" fill="#ffda44" stroke-width=".4"/></g><style>.st1{fill:#ffda44}</style></svg>
