<?xml version="1.0" encoding="UTF-8"?>
<svg width="128" height="128" version="1.1" xml:space="preserve" xmlns="http://www.w3.org/2000/svg"><circle cx="64" cy="64" r="64" fill="#f0f0f0" stroke-width=".25"/><path d="m64 0c-27.518 0-50.977 17.368-60.02 41.74h120.04c-9.044-24.373-32.503-41.74-60.02-41.74zm-60.02 86.26c9.044 24.373 32.503 41.74 60.02 41.74 27.518 0 50.977-17.368 60.02-41.74z" fill="#0052b4"/><g fill-rule="evenodd"><path d="m52.397 50.25c-4.6808 4.6741-6.087 11.734-3.5508 17.842 2.5373 6.1103 8.533 10.105 15.154 10.105 6.6213 0 12.617-3.9951 15.154-10.105 2.5361-6.1075 1.1278-13.168-3.5527-17.842l-4.9551 4.9453 0.0059 0.0059c2.6954 2.6887 3.4944 6.6974 2.0371 10.207-1.4573 3.5096-4.8724 5.7891-8.6895 5.7891-3.8171 0-7.2321-2.2795-8.6895-5.7891-1.4573-3.5096-0.65829-7.5183 2.0371-10.207l0.0059-0.0059z" fill="#6da544" stop-color="#000000" stroke-linecap="square" stroke-miterlimit="40" style="paint-order:stroke fill markers"/><path d="m73.124 52.723a12.904 12.872 0 0 1 2.7972 14.028 12.904 12.872 0 0 1-11.922 7.9462 12.904 12.872 0 0 1-11.922-7.9462 12.904 12.872 0 0 1 2.7972-14.028l9.1245 9.1019z" fill="#0052b4" style="paint-order:stroke fill markers"/><path transform="matrix(.39741 0 0 .39742 -31.976 37.87)" d="m241.5 30.025 23.364 40.468-46.729-1e-6z" fill="#ff9811" style="paint-order:stroke fill markers"/></g></svg>
