<?xml version="1.0" encoding="UTF-8"?>
<svg width="128" height="128" version="1.1" xml:space="preserve" xmlns="http://www.w3.org/2000/svg" xmlns:xlink="http://www.w3.org/1999/xlink"><defs><path id="A" transform="rotate(30)" d="m-1 55.426h2v-93.426c2-2 2-5 2-8 0-2 0-10-3-18.663-3 8.663-3 16.663-3 18.663 0 3 0 6 2 8z" stroke-miterlimit="10"/></defs><g><circle cx="64" cy="64" r="64" fill="#d80027"/><path d="M 64,0 C 36.482,0 13.023,17.368 3.98,41.74 H 124.02 C 114.976,17.367 91.517,0 64,0 Z"/><path d="m64 128c27.518 0 50.977-17.368 60.02-41.74h-120.04c9.044 24.373 32.503 41.74 60.02 41.74z" fill="#496e2d"/></g><style>.st1{fill:#ffda44}</style><path d="m5.332 38.426a64 64 0 0 0-2.5781 7h122.49a64 64 0 0 0-2.5781-7zm-2.5781 44.148a64 64 0 0 0 2.5781 7h117.34a64 64 0 0 0 2.5781-7z" fill="#f0f0f0" fill-rule="evenodd" stop-color="#000000" stroke-linecap="square" stroke-miterlimit="40"/><g transform="translate(-.41313)" fill="#f0f0f0"><use transform="matrix(-.8 0 0 .8 64.826 64)" xlink:href="#A"/><use transform="matrix(.8 0 0 .8 64 64)" xlink:href="#A"/></g><path d="m79.2 44.8c-2.4-6.4-10.4-19.2-15.2-19.2s-12.8 12.8-15.2 19.2v38.4c2.4 6.4 10.4 19.2 15.2 19.2s12.8-12.8 15.2-19.2z" fill="#d80027" stroke-width=".8"/><path id="C" d="m79.2 83.2c2.4-6.4 4-12.8 4-19.2s-1.6-12.8-4-19.2c-2.4 6.4-4 12.8-4 19.2s1.6 12.8 4 19.2" stroke-width=".8"/><use transform="matrix(-1,0,0,1,128,0)" xlink:href="#C"/><g transform="matrix(.8 0 0 .8 64 64)" fill="#f0f0f0"><ellipse rx="4" ry="6"/><path id="D" d="m1 5.85s4 8 4 21-4 21-4 21z" fill="#f0f0f0"/><use transform="scale(-1)" xlink:href="#D"/><use transform="scale(-1,1)" xlink:href="#D"/><use transform="scale(1,-1)" xlink:href="#D"/></g></svg>
