<?xml version="1.0" encoding="UTF-8"?>
<svg width="128" height="128" version="1.1" xml:space="preserve" xmlns="http://www.w3.org/2000/svg"><style>.st1{fill:#ffda44}</style><g><circle cx="64.037" cy="64" r="64" fill="#d80027"/><path d="m18.745 18.62c-24.993 24.994-24.993 65.516 0 90.51l45.255-45.255z"/><path d="m64 63.875s-45.255 45.255-45.217 45.376c11.582 11.582 27.582 18.745 45.255 18.745 35.346 0 64-28.654 64-64z" fill="#0052b4"/></g><path d="m33.5 7.7535c-10.845 5.888-19.756 14.786-25.66 25.621l30.596 30.596-30.617 30.617v2e-3c5.8977 10.838 14.803 19.74 25.643 25.635l38.08-38.08h53.869c1.7419-5.8908 2.6266-12.002 2.627-18.145-4.2e-4 -6.1334-0.88248-12.235-2.6191-18.117h-53.789z" fill="#f0f0f0" stop-color="#000000" style="paint-order:stroke fill markers"/><path d="m18.827 18.703c-4.3243 4.3164-8.0325 9.2512-10.986 14.672l30.596 30.596-30.609 30.609c2.8571 5.2216 6.4966 10.129 10.918 14.551l45.256-45.256z" fill="#ffda44"/><path d="m27.295 11.447a64.388 64.388 0 0 0-8.5547 7.1875 64.381 64.381 0 0 0-7.1856 8.5547l36.781 36.781-36.746 36.746a64.381 64.381 0 0 0 7.1856 8.5527 64.388 64.388 0 0 0 8.5547 7.1875l41.312-41.312h58.428c0.64444-3.6753 0.96757-7.3995 0.9668-11.131 7.9e-4 -3.7314-0.32235-7.4556-0.9668-11.131h-58.34l-4.6543-4.6543z" fill="#6da544" stop-color="#000000" style="paint-order:stroke fill markers"/></svg>
