<?xml version="1.0" encoding="UTF-8"?>
<svg width="128" height="128" version="1.1" xml:space="preserve" xmlns="http://www.w3.org/2000/svg"><g><circle cx="64" cy="64" r="64" fill="#f0f0f0"/><path d="M 64,0 C 36.482,0 13.023,17.368 3.98,41.74 H 124.02 C 114.976,17.367 91.517,0 64,0 Z" fill="#338af3"/><path d="m64 128c27.518 0 50.977-17.368 60.02-41.74h-120.04c9.044 24.373 32.503 41.74 60.02 41.74z" fill="#6da544"/></g><style>.st1{fill:#ffda44}</style><path d="m4.7441 39.816a64 64 0 0 0-1.4785 4h121.47a64 64 0 0 0-1.4785-4zm-1.4785 44.367a64 64 0 0 0 1.4785 4h118.51a64 64 0 0 0 1.4785-4z" fill="#d80027" fill-rule="evenodd" stop-color="#000000" stroke-linecap="square" stroke-miterlimit="40"/><path d="m47.328 5.1191-0.68945 2.123h-2.2324l1.8066 1.3125-0.68945 2.123 1.8047-1.3125 1.8066 1.3125-0.68945-2.123 1.8047-1.3125h-2.2305zm-11.787 1.541c-0.82795 0.41176-1.646 0.84101-2.4531 1.2871l0.83594 0.60742-0.68945 2.123 1.8066-1.3125 1.8047 1.3125-0.68945-2.123 1.8066-1.3125h-2.2324zm-12.789 10.748-0.68945 2.123h-2.2324l1.8066 1.3105-0.68945 2.123 1.8047-1.3105 1.8066 1.3105-0.68945-2.123 1.8047-1.3105h-2.2305zm12.289 0-0.68945 2.123h-2.2324l1.8047 1.3105-0.68945 2.123 1.8066-1.3105 1.8047 1.3105-0.68945-2.123 1.8066-1.3105h-2.2324zm12.287 0-0.68945 2.123h-2.2324l1.8066 1.3105-0.68945 2.123 1.8047-1.3125 1.8066 1.3125-0.68945-2.123 1.8047-1.3105h-2.2305zm-36.863 12.287-0.68945 2.123h-1.1055c-0.11191 0.192-0.22207 0.38487-0.33203 0.57812l1.0098 0.73438-0.68945 2.123 1.8066-1.3125 1.8047 1.3125-0.68945-2.123 1.8066-1.3125h-2.2324zm12.287 0-0.68945 2.123h-2.2324l1.8066 1.3125-0.68945 2.123 1.8047-1.3125 1.8066 1.3125-0.68945-2.123 1.8047-1.3125h-2.2305zm12.289 0-0.68945 2.123h-2.2324l1.8047 1.3125-0.68945 2.123 1.8066-1.3125 1.8047 1.3125-0.68945-2.123 1.8066-1.3125h-2.2324zm12.287 0-0.68945 2.123h-2.2324l1.8066 1.3125-0.68945 2.1211 1.8047-1.3105 1.8066 1.3105-0.68945-2.123 1.8047-1.3105h-2.2305z" fill="#f0f0f0"/></svg>
