<?xml version="1.0" encoding="UTF-8"?>
<svg width="128" height="128" version="1.1" xml:space="preserve" xmlns="http://www.w3.org/2000/svg"><g stroke-width=".25"><path d="M 3.98,41.74 A 63.864,63.864 0 0 0 0,64 63.862,63.862 0 0 0 3.98,86.26 L 64,91.827 124.02,86.262 A 63.862,63.862 0 0 0 128,64 63.864,63.864 0 0 0 124.02,41.74 L 64,36.173 Z" fill="#ffda44"/><path d="M 64,0 C 36.483,0 13.023,17.368 3.981,41.74 H 124.02 C 114.977,17.367 91.518,0 64,0 Z" fill="#6da544"/><path d="m64 128c27.518 0 50.977-17.368 60.02-41.74h-120.04c9.044 24.373 32.503 41.74 60.02 41.74z" fill="#0052b4"/></g></svg>
