<?xml version="1.0" encoding="UTF-8"?>
<svg width="128" height="128" version="1.1" xml:space="preserve" xmlns="http://www.w3.org/2000/svg"><circle cx="64" cy="64" r="64" fill="#f0f0f0" stroke-width=".25"/><path d="m2.205 80.696c3.703 13.74 11.864 25.648 22.838 34.08v-34.08zm56.23 47.061c1.834 0.157 3.69 0.243 5.565 0.243 29.57 0 54.451-20.055 61.795-47.304h-67.36zm67.36-80.453c-7.344-27.249-32.225-47.304-61.795-47.304-1.876 0-3.73 0.086-5.565 0.243v47.061zm-100.75-34.08c-10.975 8.432-19.136 20.34-22.84 34.08h22.84z" fill="#02529c"/><path d="m127.46 55.652h-77.371v-54.13a63.564 63.564 0 0 0-16.696 6.26v47.87h-32.85a64.55 64.55 0 0 0 0 16.696h32.85v47.87a63.564 63.564 0 0 0 16.696 6.26v-54.13h77.371a64.639 64.639 0 0 0 0-16.696z" fill="#dc1e35" stroke-width=".25"/></svg>
