<?xml version="1.0" encoding="UTF-8"?>
<svg width="128" height="128" version="1.1" xml:space="preserve" xmlns="http://www.w3.org/2000/svg"><circle cx="64" cy="64" r="64" fill="#496e2d"/><g fill="#f0f0f0"><path d="m 0,64 c 0,27.518 17.368,50.977 41.74,60.02 V 3.98 C 17.367,13.024 0,36.483 0,64 Z"/><path d="m76.248 37.488a27.16 27.16 0 0 0-18.87 25.864 27.16 27.16 0 0 0 27.16 27.16 27.16 27.16 0 0 0 24.714-15.895 24.897 24.897 0 0 1-1.2304 1.1715 24.897 24.897 0 0 1-35.149-2.0677 24.897 24.897 0 0 1 2.0677-35.149 24.897 24.897 0 0 1 1.3076-1.0845z" stroke-width="7.5"/><polygon transform="matrix(1.6147e-5,-7.0656e-6,7.0656e-6,1.6147e-5,98.072,51.322)" points="0 -513674 301930 415571 -488533 -158734 488533 -158734 -301930 415571" stroke-width="6.6273"/></g></svg>
