<?xml version="1.0" encoding="UTF-8"?>
<svg width="128" height="128" version="1.1" xml:space="preserve" xmlns="http://www.w3.org/2000/svg"><g><path d="m124.98 44.52a63.962 63.962 0 0 1 3.0222 19.478 63.956 63.956 0 0 1-3.0215 19.48l-60.98 2.7839-60.981-2.7832a63.964 63.964 0 0 1-3.0222-19.478 63.962 63.962 0 0 1 3.0229-19.48l60.979-2.7832z" fill="#f0f0f0"/><path d="m-0.0037909 64a64.388 64.388 0 0 1 0.96732-11.131l126.07-7.08e-4a64.367 64.367 0 0 1 0.96732 11.131 64.374 64.374 0 0 1-0.96732 11.131l-126.07 1e-6a64.381 64.381 0 0 1-0.96803-11.131z" fill="#0052b4"/><path d="m3.0195 83.479c8.2413 25.821 32.425 44.523 60.98 44.523 28.555-7.1e-4 52.739-18.701 60.98-44.523z" fill="#6da544"/><path d="m64-0.0039062c-28.555 7.0718e-4 -52.738 18.703-60.98 44.525l121.96-2e-3c-8.2413-25.821-32.425-44.523-60.98-44.523z" fill="#d80027"/></g><style>.st1{fill:#ffda44}</style></svg>
