<?xml version="1.0" encoding="UTF-8"?>
<svg width="128" height="128" version="1.1" xml:space="preserve" xmlns="http://www.w3.org/2000/svg"><path d="m128 64c0 35.346-28.654 64-64 64s-64-28.654-64-64c0 0.015 64-63.993 64-64 35.346 0 64 28.654 64 64z" fill="#338af3" stroke-width=".25"/><path d="m0 64a64 64 0 0 1 64-64v64z" fill="#0052b4" fill-rule="evenodd" style="paint-order:stroke fill markers"/><g fill="#f0f0f0"><path d="m64 0h-0.01zm-0.171 64h0.171v-0.171z"/><path d="m64 33.391v-33.391h-0.01c-35.343 6e-3 -63.99 28.657-63.99 64h33.391v-18.803l18.803 18.803h11.636l0.171-0.171v-11.635l-18.804-18.803z"/></g><path d="m32.379 8.3477a64.305 64.305 0 0 0-24.031 24.031v31.621h16.695v-38.955h38.957v-16.697zm1.0137 25.043 30.607 30.609v-7.8691l-22.738-22.74z" fill="#d80027"/><path d="m94.92 91.651s18.434-6.2551 18.434-16.609v-30.861h-36.869v30.861c0 10.354 18.434 16.609 18.434 16.609" fill="#f0f0f0"/><path d="m76.486 44.181v11.78h15.8v13.047h-15.8v5.2691h15.8v16.341c1.5906 0.67915 2.634 1.0331 2.634 1.0331s1.0435-0.35394 2.634-1.0331v-16.341h15.801v-5.2691h-15.801v-13.047h15.801v-11.78z" fill="#d80027" fill-rule="evenodd" style="paint-order:stroke fill markers"/></svg>
