<?xml version="1.0" encoding="UTF-8"?>
<svg width="128" height="128" version="1.1" xml:space="preserve" xmlns="http://www.w3.org/2000/svg"><path d="m128 64c0 35.346-28.654 64-64 64s-64-28.654-64-64c0 0.015 64-63.993 64-64 35.346 0 64 28.654 64 64z" fill="#338af3" stroke-width=".25"/><path d="m0 64a64 64 0 0 1 64-64v64z" fill="#0052b4" fill-rule="evenodd" style="paint-order:stroke fill markers"/><g fill="#f0f0f0"><path d="m64 0h-0.01zm-0.171 64h0.171v-0.171z"/><path d="m64 33.391v-33.391h-0.01c-35.343 6e-3 -63.99 28.657-63.99 64h33.391v-18.803l18.803 18.803h11.636l0.171-0.171v-11.635l-18.804-18.803z"/></g><path d="m32.379 8.3477a64.305 64.305 0 0 0-24.031 24.031v31.621h16.695v-38.955h38.957v-16.697zm1.0137 25.043 30.607 30.609v-7.8691l-22.738-22.74z" fill="#d80027"/><style>.st1{fill:#ffda44}</style><path class="st1" d="m60.447 120.15-5.9594-4.3229-5.9594 4.3229 2.285-6.999-5.9594-4.3332h7.3592l2.2747-6.999 2.2747 6.999h7.3592l-5.9491 4.3332z" fill="#ffda44" stroke-width=".25"/><style>.st1{fill:#ffda44}</style><g fill="#ffda44" stroke-width=".25"><path class="st1" d="m85.461 73.292-5.9594 4.3229-5.9594-4.3229 2.285 6.999-5.9594 4.3332h7.3592l2.2747 6.999 2.2747-6.999h7.3592l-5.9491-4.3332z"/><path class="st1" d="m85.461 98.275-5.9594 4.3229-5.9594-4.3229 2.285 6.999-5.9594 4.3332h7.3592l2.2747 6.999 2.2747-6.999h7.3592l-5.9491-4.3332z"/><path class="st1" d="m110.53 39.386-5.9594 4.3229-5.9594-4.3229 2.285 6.999-5.9594 4.3332h7.3592l2.2747 6.999 2.2747-6.999h7.3592l-5.9491-4.3332z"/><path class="st1" d="m110.53 91.196-5.9594 4.3229-5.9594-4.3229 2.285 6.999-5.9594 4.3332h7.3592l2.2747 6.999 2.2747-6.999h7.3592l-5.9491-4.3332z"/><path class="st1" d="m125.6 71.064-2.2734 6.998h-7.3594l5.9492 4.334-2.2754 6.998 4.4004-3.1914c1.2885-3.4834 2.2837-7.1109 2.9531-10.85v-2e-3z"/><path class="st1" d="m119.92 32.855 2.0039 6.1387-5.959 4.332h7.3594l2.2734 7 0.54492-1.6758c-1.376-5.5896-3.486-10.891-6.2226-15.795z"/></g></svg>
