<?xml version="1.0" encoding="UTF-8"?>
<svg width="128" height="128" version="1.1" xml:space="preserve" xmlns="http://www.w3.org/2000/svg"><circle cx="64" cy="64" r="64" fill="#f0f0f0" stroke-width=".25"/><path d="m3.9805 86.26c9.044 24.373 32.503 41.74 60.02 41.74 27.518 0 50.977-17.368 60.02-41.74z" fill="#0052b4"/><circle cx="64" cy="64" r="8.5607" fill="#6da544" fill-rule="evenodd" style="paint-order:normal"/><path d="m64 0c-27.518 0-50.977 17.368-60.02 41.74h120.04c-9.044-24.373-32.503-41.74-60.02-41.74z" fill="#d80027"/><ellipse cx="64" cy="64" rx="16.03" ry="15.99" fill="none" stroke="#000" stroke-linecap="square" stroke-miterlimit="40" stroke-width="2" style="paint-order:stroke fill markers"/><style>.st1{fill:#ffda44}</style><path class="st1" d="m66.464 67.616-2.4629-1.7865-2.4629 1.7865 0.94431-2.8925-2.4629-1.7908h3.0414l0.94006-2.8925 0.94006 2.8925h3.0414l-2.4586 1.7908z" fill="#ffda44" style="paint-order:stroke fill markers"/><ellipse cx="64" cy="64" rx="11.882" ry="11.853" fill="none" stroke="#000" stroke-linecap="square" stroke-miterlimit="40" stroke-width="2" style="paint-order:stroke fill markers"/></svg>
