<?xml version="1.0" encoding="UTF-8"?>
<svg width="128" height="128" version="1.1" xml:space="preserve" xmlns="http://www.w3.org/2000/svg"><circle cx="64" cy="64" r="64" fill="#d80027"/><path d="m128 64a64 64 0 0 1-32 55.426 64 64 0 0 1-64-1e-5 64 64 0 0 1-32-55.426h64z"/><style>.st1{fill:#ffda44}</style><path class="st1" d="m64.772 56.796-6.4726-4.6951-6.4726 4.6951 2.4817-7.6016-6.4726-4.7063h7.9929l2.4705-7.6016 2.4705 7.6016h7.9929l-6.4614 4.7063z" fill="#ffda44" stroke-width=".25"/><path d="m63.993 28.981a31.11 31.05 0 0 1 20.259 25.573 31.11 31.05 0 0 1-13.804 29.546 31.11 31.05 0 0 1-32.65 0.94819" fill="none" stroke="#ffda44" stroke-linecap="square" stroke-miterlimit="40" stroke-width="6" style="paint-order:stroke fill markers"/><path d="m45.222 59.632 49.077 39.692-2 3.5385-44.769-30.154c-6.7146-4.5226-2.3077-13.077-2.3077-13.077z" fill="#ffda44"/></svg>
