<svg width="128" height="128" version="1.1" xml:space="preserve" xmlns="http://www.w3.org/2000/svg"><path d="M 124.02,86.26 A 63.856,63.856 0 0 0 128,64 63.858,63.858 0 0 0 124.02,41.74 L 64,36.173 3.98,41.739 A 63.864,63.864 0 0 0 0,64 63.862,63.862 0 0 0 3.98,86.26 L 64,91.827 Z" fill="#ffda44"/><path d="m 64,128 c 27.517,0 50.977,-17.368 60.019,-41.74 H 3.981 C 13.024,110.633 36.482,128 64,128 Z M 64,0 C 36.482,0 13.023,17.368 3.98,41.74 H 124.02 C 114.976,17.367 91.517,0 64,0 Z" fill="#00778b"/><path d="m 18.745,18.745 c -24.993,24.994 -24.993,65.516 0,90.51 L 64,64 Z"/></svg>
