<?xml version="1.0" encoding="UTF-8"?>
<svg width="128" height="128" version="1.1" xml:space="preserve" xmlns="http://www.w3.org/2000/svg"><g><path d="m124.02 86.26a63.856 63.856 0 0 0 3.98-22.26 63.858 63.858 0 0 0-3.98-22.26l-60.02-5.567-60.02 5.566a63.864 63.864 0 0 0-3.98 22.261 63.862 63.862 0 0 0 3.98 22.26l60.02 5.567z" fill="#ffda44"/><path d="m64 128c27.517 0 50.977-17.368 60.019-41.74h-120.04c9.043 24.373 32.501 41.74 60.019 41.74zm0-128c-27.518 0-50.977 17.368-60.02 41.74h120.04c-9.044-24.373-32.503-41.74-60.02-41.74z" fill="#6da544"/><path d="m 18.745,18.745 c -24.993,24.994 -24.993,65.516 0,90.51 L 64,64 Z" fill="#d80027"/><path class="st1" d="m88.106 75.998-7.9274-5.7505-7.9274 5.7505 3.0395-9.3103-7.9274-5.7642h9.7895l3.0258-9.3103 3.0258 9.3103h9.7895l-7.9137 5.7642z" stroke-width=".25"/><path class="st1" d="m119.03 76-7.9274-5.7505-7.9274 5.7505 3.0396-9.3103-7.9274-5.7642h9.7895l3.0258-9.3103 3.0258 9.3103h9.7895l-7.9137 5.7642z" stroke-width=".25"/></g></svg>
