<?xml version="1.0" encoding="UTF-8"?>
<svg width="128" height="128" version="1.1" xml:space="preserve" xmlns="http://www.w3.org/2000/svg"><circle cx="64" cy="64" r="64" fill="#0052b4"/><path d="m8.5742 32a64 64 0 0 0-8.5742 31.969 64 64 0 0 0 0 0.03125h128a64 64 0 0 0-8.5742-32z" fill="#f0f0f0"/><path d="m0 64a64 64 0 0 0 8.5742 32h110.85a64 64 0 0 0 8.5742-32z" fill="#6da544"/><path d="m8.5742 96a64 64 0 0 0 55.426 32 64 64 0 0 0 55.426-32z" fill="#ffda44"/><path d="m44.926 27.173-5.5252-4.0143-5.5252 4.0143 2.1108-6.4948-5.5252-4.0143h6.8293l2.1103-6.4948 2.1108 6.4948h6.8288l-5.5252 4.0143z" fill="#ffda44"/><path d="m64 0a64 64 0 0 0-12 1.1348v125.73a64 64 0 0 0 12 1.1348 64 64 0 0 0 12-1.1348v-125.73a64 64 0 0 0-12-1.1348z" fill="#d80027"/></svg>
