<?xml version="1.0" encoding="UTF-8"?>
<svg width="128" height="128" version="1.1" xml:space="preserve" xmlns="http://www.w3.org/2000/svg"><g><circle transform="rotate(-45)" cx="1.1802e-14" cy="90.51" r="64"/><path d="m18.745 18.745c-19.458 19.458-23.765 48.327-12.926 71.955l84.881-84.881c-23.629-10.839-52.498-6.5315-71.955 12.926z" fill="#6da544"/><path d="m109.25 109.25c19.458-19.458 23.765-48.327 12.926-71.955l-84.881 84.881c23.629 10.839 52.498 6.5315 71.955-12.926z" fill="#d80027"/><path d="m4.4318 87.401a64 64 0 0 0 3.1267 6.7728l86.615-86.615a64 64 0 0 0-6.7728-3.1267zm29.395 33.041a64 64 0 0 0 6.7728 3.1267l82.969-82.969a64 64 0 0 0-3.1267-6.7728z" fill="#ffda44" fill-rule="evenodd" stop-color="#000000" stroke-linecap="square" stroke-miterlimit="40"/><path class="st1" d="m63.489 85.013-11.849 1.8859-1.8859 11.849-5.4324-10.699-11.861 1.8741 8.4808-8.4808-5.4443-10.687 10.687 5.4443 8.4808-8.4808-1.8622 11.849z" fill="#fff" stroke-width=".25"/><path class="st1" d="m100.04 48.461-11.849 1.8859-1.8859 11.849-5.4324-10.699-11.861 1.8741 8.4808-8.4808-5.4443-10.687 10.687 5.4443 8.4808-8.4808-1.8622 11.849z" fill="#fff" stroke-width=".25"/></g></svg>
