<?xml version="1.0" encoding="UTF-8"?>
<svg width="128" height="128" version="1.1" xml:space="preserve" xmlns="http://www.w3.org/2000/svg"><g><circle cx="64" cy="64" r="64" fill="#ffda44" stroke-width=".25"/><path d="m64 0a64 64 0 0 0-63.023 52.871l126.05-2e-3a64 64 0 0 0-63.025-52.869zm-63.023 75.133a64 64 0 0 0 63.023 52.867 64 64 0 0 0 63.025-52.867z" fill="#0052b4"/><path d="m26.378 95.598 4.1201-3.8625-4.1201-3.8627 5.6019-0.70253-1.0607-5.5454 4.9458 2.7193 2.4021-5.1067 2.4022 5.1068 4.9456-2.7195-1.0607 5.5452 5.6019 0.70285-4.1201 3.8625 4.1201 3.8627-5.6019 0.70253 1.0607 5.5456-4.9458-2.7194-2.4021 5.1067-2.4022-5.1068-4.9458 2.7195 1.0609-5.5454z" fill="#f0f0f0" stroke-width=".25"/></g></svg>
