<?xml version="1.0" encoding="UTF-8"?>
<svg width="128" height="128" version="1.1" xml:space="preserve" xmlns="http://www.w3.org/2000/svg" xmlns:xlink="http://www.w3.org/1999/xlink"><path d="M 128,64 A 63.856,63.856 0 0 0 124.02,41.74 L 64,38.955 3.98,41.74 A 63.858,63.858 0 0 0 0,64 63.856,63.856 0 0 0 3.98,86.26 L 64,89.044 124.02,86.262 A 63.858,63.858 0 0 0 128,64 Z" fill="#ffda44"/><g><path d="m64 128c27.518 0 50.977-17.368 60.02-41.74h-120.04c9.044 24.373 32.503 41.74 60.02 41.74z" fill="#d80027"/><path d="m3.98 41.74h120.04c-9.044-24.373-32.503-41.74-60.02-41.74s-50.977 17.368-60.02 41.74z" fill="#6da544"/><circle cx="64" cy="64" r="33.846" fill="#0052b4"/><rect id="rect4" transform="rotate(90)" x="76.691" y="-65" width="14.085" height="2" fill="#ffda44" fill-rule="evenodd" stroke-linecap="square" stroke-miterlimit="40" stroke-width="6" style="paint-order:stroke fill markers"/></g><use transform="rotate(-72 64 64.309)" xlink:href="#rect4"/><path d="m64 42.639-4.9004 15.082-15.855-0.001953 12.828 9.3203-4.8984 15.078 12.826-9.3184 12.828 9.3184-4.9004-15.078 12.828-9.3203-15.857 2e-3zm0 7.3809 2.502 7.7012h-5.0039zm-13.736 9.9805h8.0957l-1.5449 4.7578zm10.494 0h6.4844l2.0039 6.168-5.2461 3.8125-5.2461-3.8125zm8.8828 0h8.0957l-6.5488 4.7578zm0.34766 8.4473 2.5 7.7012-6.5488-4.7598zm-11.977 2e-3 4.0488 2.9395-6.5508 4.7598z" fill="#ffda44" stop-color="#000000"/><use transform="rotate(216 64 64.463)" xlink:href="#rect4"/><use transform="matrix(.80902 -.58779 -.58779 -.80902 50.113 154.23)" xlink:href="#rect4"/><use transform="matrix(-.30902 -.95106 -.95106 .30902 144.94 105.3)" xlink:href="#rect4"/></svg>
