<?xml version="1.0" encoding="UTF-8"?>
<svg width="128" height="128" version="1.1" xml:space="preserve" xmlns="http://www.w3.org/2000/svg"><circle cx="64" cy="64" r="64" fill="#ffda44"/><path d="m8.5742 32a64 64 0 0 0-8.5742 31.969 64 64 0 0 0 0 0.03125h128a64 64 0 0 0-8.5742-32z" fill="#f0f0f0"/><path d="m0 64a64 64 0 0 0 8.5742 32h110.85a64 64 0 0 0 8.5742-32z" fill="#d80027"/><path d="m8.5742 96a64 64 0 0 0 55.426 32 64 64 0 0 0 55.426-32z" fill="#0052b4"/><path d="m 18.745,18.745 c -24.993,24.994 -24.993,65.516 0,90.51 L 64,64 Z" fill="#6da544"/><g fill="#f0f0f0"><path d="m34.477 44.044a20.1 20.1 0 0 0 0 39.912 20.709 20.709 0 1 1 0-39.912z"/><path id="s" d="m34.477 46.337 2.507 7.7134-6.561-4.7679h8.1105l-6.561 4.7679z"/><path d="m34.477 55.473 2.507 7.7134-6.561-4.7679h8.1105l-6.561 4.7679z"/><path d="m34.477 64.609 2.507 7.7134-6.561-4.7679h8.1105l-6.561 4.7679z"/><path d="m34.477 73.745 2.507 7.7134-6.561-4.7679h8.1105l-6.561 4.7679z"/></g></svg>
