<?xml version="1.0" encoding="UTF-8"?>
<svg width="128" height="128" version="1.1" xml:space="preserve" xmlns="http://www.w3.org/2000/svg"><circle cx="64" cy="64" r="64" fill="#f0f0f0"/><path d="M 124.02,41.74 H 3.98 A 63.857,63.857 0 0 0 0,64 63.857,63.857 0 0 0 3.98,86.26 H 124.02 A 63.862,63.862 0 0 0 128,64 63.857,63.857 0 0 0 124.02,41.74 Z" fill="#d80027"/><path d="m64 0c-19.398 0-36.779 8.631-48.515 22.26h97.03c-11.737-13.628-29.117-22.26-48.515-22.26zm48.515 105.74h-97.03c11.735 13.628 29.117 22.26 48.515 22.26s36.779-8.631 48.515-22.26z" fill="#6da544"/><path d="m74.484 80.134-10.484-7.6169-10.485 7.6169 4.0047-12.325-10.484-7.6175h12.959l4.0047-12.325 4.0047 12.326h12.959l-10.484 7.6163z" fill="#ffda44"/></svg>
