<svg width="128" height="128" version="1.1" xmlns="http://www.w3.org/2000/svg"><circle cx="64" cy="64" r="64" fill="#d80027"/><path d="m64 128c35.346 0 64-28.654 64-64a63.856 63.856 0 0 0-3.98-22.26h-120.04a63.862 63.862 0 0 0-3.98 22.26c0 35.346 28.654 64 64 64z" fill="#ffda44"/>
<path d="m64 128c27.518 0 50.977-17.368 60.02-41.74h-120.04c9.044 24.373 32.503 41.74 60.02 41.74z" fill="#6da544"/><path d="m53.43 80.086 4.0374-12.426-10.571-7.6793h13.065l4.0394-12.428 4.0374 12.428h13.065l-10.571 7.6773 4.0374 12.428-10.569-7.6793z"/></svg>
