<?xml version="1.0" encoding="UTF-8"?>
<svg width="128" height="128" version="1.1" xml:space="preserve" xmlns="http://www.w3.org/2000/svg"><circle cx="64" cy="64" r="64" fill="#f0f0f0"/><g><path d="m0 64a64 64 0 0 0 64 64v-64z" fill="#0052b4" fill-rule="evenodd" stroke-linecap="square" stroke-miterlimit="40" stroke-width="2"/><path d="m64 0v64h64a64 64 0 0 0-64-64z" fill="#d80027" fill-rule="evenodd" stroke-linecap="square" stroke-miterlimit="40" stroke-width="2"/><path class="st1" d="m101.29 103.95-9.2846-6.735-9.2846 6.735 3.5599-10.904-9.2846-6.751h11.466l3.5439-10.904 3.5439 10.904h11.465l-9.2686 6.751z" fill="#d80027" opacity=".99" stroke-width=".25"/><path class="st1" d="m45.281 52.611-9.2847-6.735-9.2846 6.735 3.5599-10.904-9.2846-6.751h11.466l3.5439-10.904 3.5439 10.904h11.466l-9.2686 6.751z" fill="#0052b4" opacity=".99" stroke-width=".25"/></g></svg>
