<?xml version="1.0" encoding="UTF-8"?>
<svg width="128" height="128" version="1.1" xml:space="preserve" xmlns="http://www.w3.org/2000/svg"><path d="m93.346 7.106a63.962 63.962 0 0 1 15.91 11.636 63.956 63.956 0 0 1 11.638 15.911l-41.151 45.088-45.088 41.152a63.964 63.964 0 0 1-15.91-11.636 63.962 63.962 0 0 1-11.637-15.912l41.151-45.087z" fill="#ffda44"/><path d="m18.743 109.26a64.388 64.388 0 0 1-7.187-8.555l89.146-89.147a64.367 64.367 0 0 1 8.555 7.187 64.374 64.374 0 0 1 7.187 8.555l-89.146 89.146a64.381 64.381 0 0 1-8.555-7.186z"/><path d="m120.89 34.652-86.238 86.24c24.086 12.431 54.41 8.5562 74.602-11.635 20.191-20.192 24.069-50.518 11.637-74.605z" fill="#338af3"/><path d="m64.48 0.0019531c-16.539-0.12477-33.118 6.1209-45.738 18.74-20.191 20.192-24.066 50.517-11.635 74.604l86.238-86.24c-9.0322-4.6616-18.942-7.0287-28.865-7.1035z" fill="#6da544"/></svg>
