<?xml version="1.0" encoding="UTF-8"?>
<svg width="128" height="128" version="1.1" xml:space="preserve" xmlns="http://www.w3.org/2000/svg"><circle cx="64" cy="64" r="64" fill="#ffda44"/><style>.st1{fill:#ffda44}</style><g><path d="m128 64a64 64 0 0 1-32 55.426 64 64 0 0 1-64-1e-5 64 64 0 0 1-32-55.426h64z" fill="#6da544"/><path d="m49.846 1.584a64 64 0 0 0-49.846 62.416 64 64 0 0 0 49.846 62.416z" fill="#d80027" fill-rule="evenodd" stroke-linecap="square" stroke-miterlimit="40" stroke-width="2"/><path d="m15.153 79.036 3.7319-11.486-9.7711-7.0982h12.077l3.7337-11.488 3.7319 11.488h12.077l-9.7711 7.0964 3.7319 11.488-9.7693-7.0982z"/></g></svg>
