<?xml version="1.0" encoding="UTF-8"?>
<svg width="128" height="128" version="1.1" xml:space="preserve" xmlns="http://www.w3.org/2000/svg"><g stroke-width=".25"><circle cx="64" cy="64" r="64" fill="#f0f0f0"/><path d="m64 128c35.346 0 64-28.654 64-64a63.856 63.856 0 0 0-3.98-22.26h-120.04a63.862 63.862 0 0 0-3.98 22.26c0 35.346 28.654 64 64 64z" fill="#0052b4"/><path d="m64 128c27.518 0 50.977-17.368 60.02-41.74h-120.04c9.044 24.373 32.503 41.74 60.02 41.74z" fill="#d80027"/></g><path d="m26.182 33.026a34.18 34.18 0 0 1 27.564 0q2.1594 30.537-13.782 34.615-15.941-4.0781-13.782-34.615z" fill="#0052b4" stroke-width="5"/><path d="m39.964 42.06-4.7138 9.4296-3.1418-4.1912-4.6766 6.2341c1.64e-4 6.3e-4 -1.63e-4 0.0015 0 0.0021 2.0619 7.7949 6.2391 12.496 12.532 14.106 6.2934-1.6099 10.47-6.3131 12.532-14.108l-4.6766-6.2341-3.1418 4.1912z" fill="#f0f0f0" stroke-width="5"/><g transform="matrix(.37073 0 0 .37073 39.964 68.011)" fill="#d80027" stroke-width="13.487"><path d="m-40-93.066a92.195 92.195 0 0 1 2.8247-1.302l2.9706 47.449a49.301 49.301 0 0 0 34.205 43.883 49.301 49.301 0 0 0 34.205-43.883l2.9706-47.449a92.195 92.195 0 0 1 2.8247 1.302l-2.9005 46.328a52.202 52.202 0 0 1-37.1 46.738 52.202 52.202 0 0 1-37.1-46.738z" stop-color="#000000"/><path d="m-33.001-96.188a93.694 93.694 0 0 0-11.166 5.0536l2.797 44.663c1.4764 23.582 17.507 43.78 40.139 50.57l1.2314 0.36774 1.2314-0.36774c22.632-6.7895 38.663-26.987 40.139-50.57l2.797-44.663a93.694 93.694 0 0 0-11.166-5.0536l-3.0701 48.998c-1.1306 18.058-12.963 33.538-29.932 39.549-16.968-6.0102-28.807-21.49-29.937-39.549z" stop-color="#000000"/></g></svg>
