<?xml version="1.0" encoding="UTF-8"?>
<svg width="128" height="128" version="1.1" xml:space="preserve" xmlns="http://www.w3.org/2000/svg"><g><g stroke-width=".25"><circle cx="64" cy="64" r="64"/><path d="m18.745 18.745a64 64 0 0 1 90.51-3e-6l-45.255 45.255z" fill="#6da544"/><path d="m109.25 109.25a64 64 0 0 1-45.255 18.745 64 64 0 0 1-45.255-18.745l45.255-45.255z" fill="#6da544"/></g><path d="m25.559 12.832a64 64 0 0 0-12.727 12.727l38.441 38.441-38.441 38.441a64 64 0 0 0 12.727 12.727l38.441-38.441 38.441 38.441a64 64 0 0 0 12.727-12.727l-38.441-38.441 38.441-38.441a64 64 0 0 0-12.727-12.727l-38.441 38.441z" fill="#ffda44" fill-rule="evenodd" stroke-linecap="square" stroke-miterlimit="40" stroke-width="2"/></g></svg>
