<?xml version="1.0" encoding="UTF-8"?>
<svg width="128" height="128" version="1.1" xml:space="preserve" xmlns="http://www.w3.org/2000/svg"><path d="M 128,64 A 63.856,63.856 0 0 0 124.02,41.74 L 64,38.955 3.98,41.74 A 63.858,63.858 0 0 0 0,64 63.856,63.856 0 0 0 3.98,86.26 L 64,89.044 124.02,86.262 A 63.858,63.858 0 0 0 128,64 Z" fill="#0052b4"/><path d="m64 128c27.518 0 50.977-17.368 60.02-41.74h-120.04c9.044 24.373 32.503 41.74 60.02 41.74z" fill="#ff9811"/><path d="m3.98 41.74h120.04c-9.044-24.373-32.503-41.74-60.02-41.74s-50.977 17.368-60.02 41.74z" fill="#d80027"/><style>.st1{fill:#ffda44}</style></svg>
