<?xml version="1.0" encoding="UTF-8"?>
<svg width="128" height="128" version="1.1" xml:space="preserve" xmlns="http://www.w3.org/2000/svg"><circle cx="64" cy="64" r="64" fill="#d80027" stroke-width=".25"/><path d="m64 33.806 5.1675 11.192 9.2732-8.1225 0.16873 12.326 11.775-3.6486-4.8595 11.329 12.241 1.4563-9.0474 8.3733 10.591 6.3093-11.671 3.9695 7.1085 10.071-12.276-1.1207 2.3977 12.092-10.759-6.0171-2.7279 12.022-7.3815-9.8728-7.3818 9.8729-2.7279-12.022-10.76 6.0173 2.3977-12.092-12.276 1.1206 7.1087-10.071-11.671-3.9695 10.591-6.3096-9.0473-8.3734 12.241-1.4563-4.8593-11.329 11.775 3.6485 0.16875-12.326 9.2731 8.1225z" fill="#ffda44" fill-rule="evenodd" stroke-width="1.2122" style="paint-order:normal"/><path d="m0.68555 73.348a64 64 0 0 0 63.314 54.652 64 64 0 0 0 63.314-54.652z" fill="#0052b4" stroke-width=".48313"/><path d="m36.146 67.723c-5.1265 0.0017-10.167 0.95837-15.008 2.8945-7.0911 2.8365-13.706 2.9704-20.752 0.40039a64 64 0 0 0 2.2715 11.238c7.4249 1.4915 15.004 0.78063 22.283-2.1309 7.3859-2.9543 14.825-2.9971 23.229 0.05859 10.417 3.788 21.243 3.788 31.66 0 8.4032-3.0557 15.843-3.0129 23.229-0.05859 7.2787 2.9115 14.858 3.6224 22.283 2.1309a64 64 0 0 0 2.2715-11.238c-7.0464 2.5701-13.661 2.4361-20.752-0.40039-9.6808-3.8723-20.161-3.8276-30.531-0.05664-8.3564 3.0387-16.304 3.0387-24.66 0-5.185-1.8855-10.397-2.8397-15.523-2.8379zm0 26.189c-5.1265 0.0017-10.167 0.96032-15.008 2.8965-3.6493 1.4597-7.1725 2.2047-10.693 2.2324a64 64 0 0 0 7.4844 9.3848c2.3575-0.48064 4.7003-1.1848 7.0117-2.1094 7.3859-2.9544 14.825-2.999 23.229 0.0566 10.417 3.788 21.243 3.788 31.66 0 8.4032-3.0557 15.843-3.011 23.229-0.0566 2.3114 0.92457 4.6542 1.6287 7.0117 2.1094a64 64 0 0 0 7.4844-9.3848c-3.5209-0.02777-7.044-0.77269-10.693-2.2324-9.6808-3.8723-20.161-3.8295-30.531-0.05859-8.3564 3.0387-16.304 3.0387-24.66 0-5.185-1.8855-10.397-2.8397-15.523-2.8379z" fill="#f0f0f0" stop-color="#000000" stroke-width=".42667"/><path d="m70.289 12.238-4.5371 4.5371-2.293-2.293h-27.377c-1e-6 1.3568 0.5386 2.6577 1.498 3.6172 0.95938 0.95938 2.2604 1.5 3.6172 1.5h21.732l-3.127 3.127h-9.9473c-1.3568 0-2.6578 0.53867-3.6172 1.498-0.95945 0.95945-1.498 2.2604-1.498 3.6172h28.625c1.3568 0 2.6578-0.53867 3.6172-1.498 0.95945-0.95945 1.498-2.2604 1.498-3.6172h-9.9766l5.3711-5.3711h11.082c1.3568 0 2.6598-0.54062 3.6191-1.5 0.95945-0.95938 1.4961-2.2604 1.4961-3.6172z" fill="#ffda44" stroke-width=".73804"/></svg>
