<?xml version="1.0" encoding="UTF-8"?>
<svg width="128" height="128" version="1.1" xml:space="preserve" xmlns="http://www.w3.org/2000/svg"><style>.st1{fill:#ffda44}</style><g stroke-width=".25"><path d="m86.26 3.98a63.87 63.87 0 0 0-22.26-3.98 63.862 63.862 0 0 0-22.26 3.98l-5.567 60.02 5.565 60.019a63.85 63.85 0 0 0 22.262 3.981 63.852 63.852 0 0 0 22.26-3.981l5.567-60.019z" fill="#ffda44"/><path d="m128 64c0-27.517-17.368-50.977-41.74-60.02v120.04c24.373-9.044 41.74-32.502 41.74-60.02z" fill="#d80027"/><path d="m0 64c0 27.518 17.368 50.976 41.739 60.02v-120.04c-24.371 9.044-41.739 32.502-41.739 60.02z" fill="#6da544"/></g></svg>
