<?xml version="1.0" encoding="UTF-8"?>
<svg width="128" height="128" version="1.1" xml:space="preserve" xmlns="http://www.w3.org/2000/svg"><defs><clipPath id="clipPath4"><path d="m49.846 1.584a64 64 0 0 0-49.846 62.416 64 64 0 0 0 49.846 62.416z" fill="#d80027" fill-rule="evenodd" stroke-linecap="square" stroke-miterlimit="40" stroke-width="2"/></clipPath></defs><circle cx="64" cy="64" r="64" fill="#d80027"/><style>.st1{fill:#ffda44}</style><g transform="translate(94.01 -.61538)"><path d="m-30.01 128.62c27.518 0 50.977-17.368 60.02-41.74h-120.04c9.044 24.373 32.503 41.74 60.02 41.74z" fill="#6da544"/></g><g><path d="m64 5.38e-6c27.518 0 50.977 17.368 60.02 41.74h-120.04c9.044-24.373 32.503-41.74 60.02-41.74z" fill="#f0f0f0"/><path d="m49.846 1.584a64 64 0 0 0-49.846 62.416 64 64 0 0 0 49.846 62.416z" fill="#d80027" fill-rule="evenodd" stroke-linecap="square" stroke-miterlimit="40" stroke-width="2"/><path d="m10.013-0.81866-3.416 2.8672 12.57 14.98h-8.2109v4.4609h9.334l-2.0176 2.4043h-3.627v4.3223l-8.0488 9.5938 3.416 2.8672 10.342-12.324h6.7129v-1.9062l11.941 14.23 3.418-2.8672-13.695-16.32h9.334v-4.4609h-8.209l12.57-14.98-3.418-2.8672-11.941 14.23v-12.313h-4.459v13.092z" clip-path="url(#clipPath4)" fill="#f0f0f0" fill-rule="evenodd" style="paint-order:stroke fill markers"/></g></svg>
