<?xml version="1.0" encoding="UTF-8"?>
<svg width="128" height="128" version="1.1" xml:space="preserve" xmlns="http://www.w3.org/2000/svg"><circle cx="64" cy="64" r="64" fill="#f0f0f0" stroke-width=".25"/><path d="m3.9805 86.26c9.044 24.373 32.503 41.74 60.02 41.74 27.518 0 50.977-17.368 60.02-41.74z" fill="#6da544"/><path d="m64 0c-27.518 0-50.977 17.368-60.02 41.74h120.04c-9.044-24.373-32.503-41.74-60.02-41.74z" fill="#0052b4"/><path d="m64 47.432c-1.9808 0-3.5762 1.5953-3.5762 3.5762v8.4199l-11.521 16.414a26.322 26.257 0 0 0 30.195 0l-11.521-16.414v-8.4199c0-1.9808-1.5953-3.5762-3.5762-3.5762z" fill-rule="evenodd" style="paint-order:stroke fill markers"/></svg>
