<?xml version="1.0" encoding="UTF-8"?>
<svg width="128" height="128" version="1.1" xml:space="preserve" xmlns="http://www.w3.org/2000/svg"><circle cx="64" cy="64" r="64" fill="#338af3"/><g fill="#f0f0f0" stroke-width=".25"><path class="st1" d="m71.084 46.669-7.0863-5.1403-7.0863 5.1403 2.717-8.3224-7.0863-5.1525h8.7507l2.7048-8.3224 2.7048 8.3224h8.7507l-7.074 5.1525z"/><path class="st1" d="m71.086 81.33-7.0863 5.1403-7.0863-5.1403 2.717 8.3224-7.0863 5.1525h8.7507l2.7048 8.3224 2.7048-8.3224h8.7507l-7.074-5.1525z"/><path class="st1" d="m81.331 71.084 5.1403-7.0863-5.1403-7.0863 8.3224 2.717 5.1525-7.0863v8.7507l8.3224 2.7048-8.3224 2.7048v8.7507l-5.1525-7.074z"/><path class="st1" d="m46.67 71.086-5.1403-7.0863 5.1403-7.0863-8.3224 2.717-5.1525-7.0863v8.7507l-8.3224 2.7048 8.3224 2.7048v8.7507l5.1525-7.074z"/></g></svg>
