<?xml version="1.0" encoding="UTF-8"?>
<svg width="128" height="128" version="1.1" xml:space="preserve" xmlns="http://www.w3.org/2000/svg"><circle cx="64" cy="64" r="64" fill="#0052b4"/><style>.st1{fill:#ffda44}</style><g><path d="m64 0a64 64 0 0 0-13.365 1.4102l-39.477 98.695a64 64 0 0 0 5.5469 7.0137l78.98-98.725a64 64 0 0 0-31.686-8.3945z" fill="#ffda44"/><path d="m95.686 8.3945-78.98 98.725a64 64 0 0 0 4.1758 4.1758l98.725-78.98a64 64 0 0 0-23.92-23.92z" fill="#d80027"/><path d="m119.61 32.314-98.725 78.98a64 64 0 0 0 7.0137 5.5469l98.695-39.477a64 64 0 0 0 1.4102-13.365 64 64 0 0 0-8.3945-31.686z" fill="#f0f0f0"/><path d="m126.59 77.365-98.695 39.477a64 64 0 0 0 36.105 11.158 64 64 0 0 0 62.59-50.635z" fill="#6da544"/></g></svg>
