<?xml version="1.0" encoding="UTF-8"?>
<svg width="128" height="128" version="1.1" xml:space="preserve" xmlns="http://www.w3.org/2000/svg"><circle cx="64" cy="64" r="64" fill="#f0f0f0"/><style>.st1{fill:#ffda44}</style><path d="m63.998 0a64 64 0 0 0-18.646 2.7773l15.885 4.334-26.066 7.1113 26.066 7.1113-26.066 7.1113 26.066 7.1094-26.066 7.1113 26.066 7.1113-26.066 7.1113 26.066 7.1113-26.066 7.1113 26.066 7.1113-26.066 7.1113 26.066 7.1113-26.066 7.1094 26.066 7.1113-26.066 7.1113 26.066 7.1113-15.885 4.334a64 64 0 0 0 18.648 2.7773 64 64 0 0 0 64-64 64 64 0 0 0-63.998-64z" fill="#a2001d" stroke-width="23.882"/></svg>
