<?xml version="1.0" encoding="UTF-8"?>
<svg width="128" height="128" version="1.1" xml:space="preserve" xmlns="http://www.w3.org/2000/svg"><g><circle cx="64" cy="64" r="64" fill="#6da544"/><path d="m12.801 25.6a64 64 0 0 0-11.508 25.6h125.41a64 64 0 0 0-11.508-25.6zm-11.508 51.201a64 64 0 0 0 11.508 25.6h102.4a64 64 0 0 0 11.508-25.6z" fill="#ffda44" fill-rule="evenodd" stroke-linecap="square" stroke-miterlimit="40" stroke-width="2"/><path d="m64 0a64 64 0 0 0-64 64 64 64 0 0 0 1.293 12.801h62.707z" fill="#d80027" fill-rule="evenodd" stroke-linecap="square" stroke-miterlimit="40" stroke-width="2"/><path d="m23.442 63.948 4.4867-13.809-11.747-8.5338h14.519l4.4888-13.811 4.4867 13.811h14.519l-11.747 8.5316 4.4867 13.811-11.745-8.5338z" fill="#f0f0f0"/></g></svg>
