<?xml version="1.0" encoding="UTF-8"?>
<svg width="128" height="128" version="1.1" xml:space="preserve" xmlns="http://www.w3.org/2000/svg"><path d="M 91.826,6.35 C 83.412,2.283 73.973,0 64,0 54.028,0 44.588,2.282 36.174,6.35 L 30.609,64 36.174,121.65 C 44.588,125.718 54.028,128 64,128 c 9.973,0 19.412,-2.282 27.826,-6.35 L 97.391,64 Z" fill="#ffda44"/><path d="m36.174 6.353c-21.407 10.351-36.174 32.274-36.174 57.647s14.767 47.295 36.174 57.647z" fill="#0052b4"/><path d="m91.826 6.353v115.29c21.408-10.352 36.174-32.274 36.174-57.647s-14.766-47.296-36.174-57.647z" fill="#d80027"/><path d="m67.553 76.57c1.6689 0.10331 9.3204 1.7971 9.3204-4.2441v-22.003h-25.747v22.003c0 6.0411 7.6515 4.3474 9.3204 4.2441 1.7119-0.10597 3.553 0.81335 3.553 0.81335s1.8411-0.91931 3.553-0.81335z" fill="#ffda44" stroke="#ff9811" stroke-width="6" style="paint-order:stroke fill markers"/><path d="m51.127 50.322v13.334h2.5742v12.721c0.79334 0.30978 1.6912 0.44253 2.5742 0.47852v-13.199h2.5742v13.09c0.69745-0.07298 1.2659-0.15525 1.5977-0.17578 0.32612-0.02019 0.65663-0.0037 0.97852 0.03711v-12.951h2.5742v-13.334zm15.447 0v13.334h2.5742v-13.334zm5.1504 0v13.334h2.5742v-13.334z" fill="#d80027" fill-rule="evenodd" stroke-linecap="square" stroke-miterlimit="40" stroke-width=".78333"/></svg>
