<?xml version="1.0" encoding="UTF-8"?>
<svg width="128" height="128" version="1.1" xmlns="http://www.w3.org/2000/svg">
 <g stroke-width=".25">
  <circle cx="64" cy="64" r="64" fill="#6da544"/>
  <path d="m64 128c35.346 0 64-28.654 64-64a63.856 63.856 0 0 0-3.98-22.26h-120.04a63.862 63.862 0 0 0-3.98 22.26c0 35.346 28.654 64 64 64z" fill="#f0f0f0"/>
  <path d="m64 128c27.518 0 50.977-17.368 60.02-41.74h-120.04c9.044 24.373 32.503 41.74 60.02 41.74z"/>
 </g>
 <g transform="matrix(.9044 0 0 .9044 4.2984 5.6054)" fill="#d80027" stroke-width="1.1057">
  <path d="m57.139 77.542 3.3894-10.432-8.8742-6.4467h10.968l3.391-10.433 3.3894 10.433h10.968l-8.8742 6.4451 3.3894 10.433-8.8726-6.4467z"/>
  <path d="m18.485 77.542 3.3894-10.432-8.8742-6.4467h10.968l3.391-10.433 3.3894 10.433h10.968l-8.8742 6.4451 3.3894 10.433-8.8726-6.4467z"/>
  <path d="m95.793 77.542 3.3894-10.432-8.8742-6.4467h10.968l3.391-10.433 3.3894 10.433h10.968l-8.8742 6.4451 3.3894 10.433-8.8726-6.4467z"/>
 </g>
</svg>
