<svg xmlns="http://www.w3.org/2000/svg" xml:space="preserve" width="128" height="128"><path d="M0 64a64 64 0 0 0 4 22.3L64 89l60-2.7a64 64 0 0 0 4-22.3 64 64 0 0 0-4-22.3L64 39 4 41.7A64 64 0 0 0 0 64" style="fill:#f0f0f0;fill-opacity:1"/><path fill="#0052b4" d="M64 0A64 64 0 0 0 4 41.7h120A64 64 0 0 0 64 0" style="fill:#d80027;fill-opacity:1"/><path fill="#f0f0f0" d="M124 86.3H4a64 64 0 0 0 120 0" style="fill:#d80027;fill-opacity:1"/><path d="M64 41.7 45.7 76.4h13.7l-5.2 9.9h19.6l-5.2-9.9h13.7z" style="fill:#6da544;fill-opacity:1;stroke-width:0;stroke-linecap:butt;stroke-linejoin:miter;stroke-miterlimit:4;stroke-dasharray:none;stroke-dashoffset:0"/></svg>