<?xml version="1.0" encoding="UTF-8"?>
<svg width="128" height="128" version="1.1" xml:space="preserve" xmlns="http://www.w3.org/2000/svg"><circle cx="64" cy="64" r="64" fill="#0052b4"/><path d="m128 64c0 35.346-28.654 64-64 64s-64-28.654-64-64" fill="#d80027"/><path d="m42.467 13.154c-1.1108 0-2.0059 0.89313-2.0059 2.0039v0.88086h-0.88086c-1.1108 0-2.0039 0.89508-2.0039 2.0059s0.89313 2.0039 2.0039 2.0039h0.88086v1.9512h-7.5352a9.536 9.536 0 0 0-9.5371 9.5352 9.536 9.536 0 0 0 1.0938 4.4336l3.9922 9.5371h27.975l4.1035-9.7578a9.536 9.536 0 0 0 0.98047-4.2129 9.536 9.536 0 0 0-9.5352-9.5352h-7.5274v-1.9512h0.88086c1.1108 0 2.0059-0.89313 2.0059-2.0039s-0.89508-2.0059-2.0059-2.0059h-0.88086v-0.88086c0-1.1108-0.89313-2.0039-2.0039-2.0039z" fill="#ffda44" fill-rule="evenodd" stroke-linecap="square" stroke-miterlimit="40" stroke-width="6.574"/></svg>
