<?xml version="1.0" encoding="UTF-8"?>
<svg width="128" height="128" version="1.1" xml:space="preserve" xmlns="http://www.w3.org/2000/svg"><circle cx="64" cy="64" r="64" fill="#d80027"/><g fill-rule="evenodd" stroke-linecap="square" stroke-miterlimit="40" stroke-width="2"><path d="m8.5742 32a64 64 0 0 0-8.5742 31.969 64 64 0 0 0 0 0.03125h128a64 64 0 0 0-8.5742-32z" fill="#0052b4"/><path d="m0 64a64 64 0 0 0 8.5742 32h110.85a64 64 0 0 0 8.5742-32z" fill="#ffda44"/><path d="m8.5742 96a64 64 0 0 0 55.426 32 64 64 0 0 0 55.426-32z" fill="#6da544"/></g></svg>
