<?xml version="1.0" encoding="UTF-8"?>
<svg width="128" height="128" version="1.1" xml:space="preserve" xmlns="http://www.w3.org/2000/svg"><circle cx="64" cy="64" r="64" fill="#0052b4"/><path d="m12.801 25.6a64 64 0 0 0-11.508 25.6h125.41a64 64 0 0 0-11.508-25.6zm-11.508 51.201a64 64 0 0 0 11.508 25.6h102.4a64 64 0 0 0 11.508-25.6z" fill="#f0f0f0" fill-rule="evenodd" stroke-linecap="square" stroke-miterlimit="40" stroke-width="2"/><path d="m 18.745,18.745 c -24.993,24.994 -24.993,65.516 0,90.51 L 64,64 Z" fill="#d80027"/><path class="st1" d="m32.524 76.192-7.9274-5.7505-7.9274 5.7505 3.0395-9.3103-7.9274-5.7642h9.7895l3.0258-9.3103 3.0258 9.3103h9.7895l-7.9137 5.7642z" fill="#f0f0f0" stroke-width=".25"/></svg>
