<?xml version="1.0" encoding="UTF-8"?>
<svg width="128" height="128" version="1.1" xml:space="preserve" xmlns="http://www.w3.org/2000/svg"><g><path d="m93.346 7.106a63.962 63.962 0 0 1 15.91 11.636 63.956 63.956 0 0 1 11.638 15.911l-41.151 45.088-45.088 41.152a63.964 63.964 0 0 1-15.91-11.636 63.962 63.962 0 0 1-11.637-15.912l41.151-45.087z" fill="#ffda44"/><path d="m18.743 109.26a64.388 64.388 0 0 1-7.187-8.555l89.146-89.147a64.367 64.367 0 0 1 8.555 7.187 64.374 64.374 0 0 1 7.187 8.555l-89.146 89.146a64.381 64.381 0 0 1-8.555-7.186z" fill="#d80027"/><path d="m109.26 109.26c-20.192 20.191-50.516 24.067-74.602 11.636l86.238-86.24c12.432 24.087 8.555 54.412-11.636 74.604zm-90.514-90.515c20.192-20.191 50.517-24.067 74.603-11.636l-86.239 86.24c-12.431-24.087-8.555-54.412 11.636-74.604z" fill="#4493f3"/><path d="m26.636 46.532 3.3501-10.311-8.7713-6.3719h10.841l3.3517-10.312 3.3501 10.312h10.841l-8.7713 6.3703 3.3501 10.312-8.7697-6.3719z" fill="#ffda44"/></g></svg>
