<?xml version="1.0" encoding="UTF-8"?>
<svg width="128" height="128" version="1.1" xml:space="preserve" xmlns="http://www.w3.org/2000/svg"><style>.st1{fill:#ffda44}</style><circle cx="64" cy="64" r="64" fill="#ffda44"/><path d="m36.174 6.3496c-21.408 10.353-36.174 32.277-36.174 57.65 0 25.374 14.766 47.297 36.174 57.65zm55.652 0v115.3c21.408-10.354 36.174-32.277 36.174-57.65s-14.766-47.297-36.174-57.65z" fill="#02529c"/><path id="A" d="m64 42.686c-1.4298 3.8989-2.8858 7.9575-6.0039 11.064 0.96786-0.31895 2.6612-0.60562 3.75-0.57812v16.4l-4.6309 0.6875c-0.16498-0.0165-0.21875-0.27501-0.21875-0.62695-0.44544-5.0922-1.6513-9.3722-3.0371-13.799-0.09898-0.60491-1.8528-2.9128-0.5-2.5059 0.14693 0.01959 1.5992 0.60296 1.7129 0.48242h2e-3l2e-3 -2e-3v-4e-3l2e-3 -2e-3v-2e-3c0.0027-0.01521-0.0058-0.03753-0.0293-0.06641-2.4636-2.5516-6.0668-4.3892-9.5645-4.9336-0.30796-0.07699-0.4898 0.0781-0.21484 0.43555 4.6413 7.1435 8.5252 15.573 8.4922 25.576 1.8037 0 6.1752-1.0664 7.9844-1.0664v11.57h4.5098v-11.57c1.8092 0 6.1806 1.0664 7.9844 1.0664-0.03299-10.003 3.8489-18.433 8.4902-25.576 0.27496-0.35745 0.09311-0.51254-0.21484-0.43555-3.4977 0.54438-7.0989 2.382-9.5625 4.9336-0.02346 0.02887-0.03197 0.05119-0.0293 0.06641v4e-3l2e-3 2e-3v2e-3l2e-3 2e-3c0.11368 0.12054 1.566-0.46283 1.7129-0.48242 1.3528-0.40694-0.40102 1.9009-0.5 2.5059-1.3858 4.4266-2.5897 8.7066-3.0352 13.799 0 0.35195-0.05573 0.61045-0.2207 0.62695l-4.6289-0.6875v-16.401c1.0888-0.0275 2.7821 0.25917 3.75 0.57812-3.1183-3.107-4.5763-7.1656-6.0061-11.064z"/></svg>
