<?xml version="1.0" encoding="UTF-8"?>
<svg width="128" height="128" version="1.1" xml:space="preserve" xmlns="http://www.w3.org/2000/svg"><circle cx="64" cy="64" r="64" fill="#d80027" stroke-width=".25"/><path d="m64 0a64 64 0 0 0-10.012 0.78711l7.3945 40.168c0.8596-0.0978 1.7327-0.14844 2.6172-0.14844s1.7576 0.05064 2.6172 0.14844l7.3945-40.168a64 64 0 0 0-10.012-0.78711zm-37.619 12.225a64 64 0 0 0-14.156 14.156l33.629 23.174c0.53868-0.67699 1.1206-1.3296 1.7461-1.9551 0.62545-0.62545 1.2781-1.2074 1.9551-1.7461zm75.238 0-23.174 33.629c0.67699 0.53868 1.3296 1.1206 1.9551 1.7461 0.62545 0.62545 1.2074 1.2781 1.7461 1.9551l33.629-23.174a64 64 0 0 0-14.156-14.156zm-37.619 33.582a18.194 18.194 0 0 0-18.193 18.193 18.194 18.194 0 0 0 18.193 18.193 18.194 18.194 0 0 0 18.193-18.193 18.194 18.194 0 0 0-18.193-18.193zm-63.213 8.1816a64 64 0 0 0-0.78711 10.012 64 64 0 0 0 0.78711 10.012l40.168-7.3945c-0.0978-0.8596-0.14844-1.7327-0.14844-2.6172s0.05064-1.7576 0.14844-2.6172zm126.43 0-40.168 7.3945c0.0978 0.8596 0.14844 1.7327 0.14844 2.6172s-0.05064 1.7576-0.14844 2.6172l40.168 7.3945a64 64 0 0 0 0.78711-10.012 64 64 0 0 0-0.78711-10.012zm-81.359 24.457-33.629 23.174a64 64 0 0 0 14.156 14.156l23.174-33.629c-0.67699-0.53868-1.3296-1.1206-1.9551-1.7461-0.62545-0.62545-1.2074-1.2781-1.7461-1.9551zm36.293 0c-0.53868 0.67699-1.1206 1.3296-1.7461 1.9551-0.62545 0.62545-1.2781 1.2074-1.9551 1.7461l23.174 33.629a64 64 0 0 0 14.156-14.156zm-20.764 8.5996-7.3945 40.168a64 64 0 0 0 10.012 0.78711 64 64 0 0 0 10.012-0.78711l-7.3945-40.168c-0.8596 0.0978-1.7327 0.14844-2.6172 0.14844s-1.7576-0.05064-2.6172-0.14844z" fill="#ffda44"/><style>.st1{fill:#ffda44}</style></svg>
