<?xml version="1.0" encoding="UTF-8"?>
<svg width="128" height="128" version="1.1" xml:space="preserve" xmlns="http://www.w3.org/2000/svg" xmlns:xlink="http://www.w3.org/1999/xlink"><defs><path id="a" d="M 0,-0.951057 0.309017,0 -0.5,-0.587785 h 1 L -0.309017,0 Z"/><path id="b" d="m0 0 0.30902 0.95106-0.80902-0.58779h1l-0.80902 0.58779z"/></defs><path d="m128 64c0 35.346-28.654 64-64 64s-64-28.654-64-64c0 0.015 64-63.993 64-64 35.346 0 64 28.654 64 64z" fill="#d80027" stroke-width=".25"/><g fill="#f0f0f0"><path d="m64 0h-0.01zm-0.171 64h0.171v-0.171z"/><path d="m64 0h-0.01c-35.343 6e-3 -63.99 28.657-63.99 64h63.83l0.171-0.171z" fill="#0052b4"/></g><g transform="matrix(.14292 0 0 .14292 46.442 118.97)" fill="#f0f0f0" stroke-width="6.9971"><use transform="matrix(83.333 0 0 83.333 -51.538 -437.04)" xlink:href="#a"/><use transform="matrix(66.667 0 0 66.667 -143.21 -637.04)" xlink:href="#b"/><use transform="matrix(66.667 0 0 66.667 -51.538 -712.04)" xlink:href="#b"/><use transform="matrix(62.5 0 0 62.5 42.212 -649.54)" xlink:href="#b"/><use transform="matrix(41.667 0 0 41.667 -5.7051 -532.87)" xlink:href="#a"/></g></svg>
