<?xml version="1.0" encoding="UTF-8"?>
<svg width="128" height="128" version="1.1" xml:space="preserve" xmlns="http://www.w3.org/2000/svg"><circle cx="64" cy="64" r="64" fill="#d80027"/><g><path d="m64 13.925a57.038 57.038 0 0 0-54.756 41.067l54.756 73.008 54.756-73.008a57.038 57.038 0 0 0-54.756-41.067z" fill="#f0f0f0" stroke-width="6.5217"/><path d="m64 0c-28.444 2.5318e-4 -53.475 18.774-61.439 46.08l9.3626 12.484h104.15l9.3626-12.484c-7.9644-27.307-32.995-46.08-61.439-46.08z"/><path d="m64 70.962-37.199-12.4 18.956-3.6281-16.124-10.608 18.902 3.9021-10.838-15.969 15.969 10.838-3.9021-18.902 10.608 16.124 3.6281-18.956 3.6281 18.956 10.608-16.124-3.9021 18.902 15.969-10.838-10.838 15.969 18.902-3.9021-16.124 10.608 18.956 3.6281z" fill="#ffda44" stroke-width="6.5217"/><path d="m11.923 58.564 18.597 24.797h66.959l18.597-24.797z" fill="#0052b4" stroke-width="6.5217"/></g></svg>
