<?xml version="1.0" encoding="UTF-8" standalone="no"?>
<!-- Created with Inkscape (http://www.inkscape.org/) -->

<svg
   width="128"
   height="128"
   viewBox="0 0 33.866666 33.866666"
   version="1.1"
   id="svg1"
   xml:space="preserve"
   inkscape:version="1.4.3 (0d15f75, 2025-12-25)"
   sodipodi:docname="Leaf Emoji.svg"
   xmlns:inkscape="http://www.inkscape.org/namespaces/inkscape"
   xmlns:sodipodi="http://sodipodi.sourceforge.net/DTD/sodipodi-0.dtd"
   xmlns="http://www.w3.org/2000/svg"
   xmlns:svg="http://www.w3.org/2000/svg"><sodipodi:namedview
     id="namedview1"
     pagecolor="#ffffff"
     bordercolor="#999999"
     borderopacity="1"
     inkscape:showpageshadow="false"
     inkscape:pageopacity="0"
     inkscape:pagecheckerboard="true"
     inkscape:deskcolor="#d1d1d1"
     inkscape:document-units="mm"
     borderlayer="false"
     inkscape:zoom="3.8954759"
     inkscape:cx="74.573688"
     inkscape:cy="70.979775"
     inkscape:window-width="1920"
     inkscape:window-height="991"
     inkscape:window-x="-9"
     inkscape:window-y="-9"
     inkscape:window-maximized="1"
     inkscape:current-layer="layer2" /><defs
     id="defs1"><inkscape:path-effect
       effect="spiro"
       id="path-effect4"
       is_visible="true"
       lpeversion="1" /><inkscape:path-effect
       effect="bspline"
       id="path-effect79-8"
       is_visible="true"
       lpeversion="1.3"
       weight="33.333333"
       steps="2"
       helper_size="0"
       apply_no_weight="true"
       apply_with_weight="true"
       only_selected="false"
       uniform="false" /><filter
       id="mask-powermask-path-effect3_inverse"
       inkscape:label="filtermask-powermask-path-effect3"
       style="color-interpolation-filters:sRGB"
       height="100"
       width="100"
       x="-50"
       y="-50"><feColorMatrix
         id="mask-powermask-path-effect3_primitive1"
         values="1"
         type="saturate"
         result="fbSourceGraphic" /><feColorMatrix
         id="mask-powermask-path-effect3_primitive2"
         values="-1 0 0 0 1 0 -1 0 0 1 0 0 -1 0 1 0 0 0 1 0 "
         in="fbSourceGraphic" /></filter><filter
       id="mask-powermask-path-effect20_inverse"
       inkscape:label="filtermask-powermask-path-effect20"
       style="color-interpolation-filters:sRGB"
       height="100"
       width="100"
       x="-50"
       y="-50"><feColorMatrix
         id="mask-powermask-path-effect20_primitive1"
         values="1"
         type="saturate"
         result="fbSourceGraphic" /><feColorMatrix
         id="mask-powermask-path-effect20_primitive2"
         values="-1 0 0 0 1 0 -1 0 0 1 0 0 -1 0 1 0 0 0 1 0 "
         in="fbSourceGraphic" /></filter><inkscape:path-effect
       effect="fill_between_many"
       method="originald"
       linkedpaths="#path19,0,1 | #path20,0,1"
       id="path-effect22"
       is_visible="true"
       lpeversion="0"
       join="true"
       close="true"
       autoreverse="true" /><clipPath
       clipPathUnits="userSpaceOnUse"
       id="clipPath24"><g
         inkscape:label="Clip"
         id="use24"><ellipse
           style="fill:#a02c2c;fill-opacity:1;stroke:none;stroke-width:1.8"
           id="ellipse24"
           cx="68.942177"
           cy="103.46004"
           rx="13.002663"
           ry="15.528359"
           transform="translate(16.463803,-24.134439)" /></g></clipPath><clipPath
       clipPathUnits="userSpaceOnUse"
       id="clipPath26"><g
         inkscape:label="Clip"
         id="use26"><path
           id="path3"
           style="fill:#009d50;fill-opacity:1;stroke:none;stroke-width:1.2;stroke-dasharray:none;stroke-opacity:1"
           d="m 77.678004,62.394121 c 0.800875,-0.559914 3.404749,-2.710873 3.404749,-2.710873 l -2.231742,1.755761 C 91.495356,52.071674 97.473036,39.112441 92.500642,31.847473 87.764082,24.991475 74.69158,25.445533 61.889718,32.910706 l -0.0134,-0.02215 c -12.961612,6.372562 -48.632787,35.97046 -48.632787,35.97046 21.780939,6.247902 38.539766,4.10515 49.670999,0.558355 3.702696,-1.011809 7.517239,-2.64753 11.185046,-4.796281 1.581488,-0.885968 2.777553,-1.667058 3.578428,-2.226972 z"
           sodipodi:nodetypes="sccccccccss"
           mask="none" /></g></clipPath></defs><g
     inkscape:label="Layer 1"
     inkscape:groupmode="layer"
     id="layer1"
     style="display:inline;opacity:0.5" /><g
     inkscape:groupmode="layer"
     id="layer2"
     inkscape:label="Layer 2"><path
       style="fill:#009d50;fill-opacity:1;stroke-width:1.8"
       d="M 1.4929644,29.689824 13.567675,15.056516 c 0,0 3.573464,-4.586775 5.986416,-6.1111029 1.466688,-0.926547 2.564679,-1.7404468 4.903087,-2.070546 1.179102,-0.1664469 2.12586,-0.030996 2.12586,-0.030996 0,0 3.190198,-3.0043844 4.202376,-4.0102684 0.415403,-0.4128199 2.069813,0.2583561 1.632924,0.6483667 -2.099419,1.8741517 -4.082309,3.9142141 -4.082309,3.9142141 0,0 1.140027,0.9193945 1.524862,1.668944 0.307348,0.5986264 0.524154,1.4743105 0.60034,2.2452705 0.07967,0.806203 -0.01411,1.627779 -0.156088,2.425371 -0.138262,0.776724 -0.382791,1.535421 -0.672381,2.269284 -0.463183,1.173773 -1.013342,2.322711 -1.692957,3.385916 -0.766868,1.199706 -1.686929,2.303594 -2.665508,3.337888 -0.623383,0.658875 -1.308869,1.261735 -2.029148,1.813025 -0.826867,0.632871 -1.712407,1.190108 -2.61748,1.704965 -0.945922,0.538094 -1.921463,1.031108 -2.929657,1.440814 -1.513689,0.615127 -3.073936,1.128411 -4.660656,1.518227 -1.276369,0.313571 -2.581378,0.51462 -3.8881807,0.655002 -1.266846,0.13609 -2.544026,0.181675 -3.81816,0.180102 -1.130027,-0.0014 -3.3859149,-0.168095 -3.3859149,-0.168095 l -0.540306,-0.06003 z"
       id="path2"
       sodipodi:nodetypes="ccsscsscssssssssssssccc" /><path
       style="fill:#00773d;fill-opacity:1;stroke-width:1.8"
       d="m 1.4021438,29.809286 c 0,0 6.2706853,-0.866329 9.2953612,-1.75805 2.70793,-0.79834 5.423127,-1.741221 7.844838,-3.192271 2.385878,-1.429579 4.645251,-3.18895 6.418503,-5.331772 1.327663,-1.604367 2.50223,-3.451174 3.022471,-5.467614 0.367637,-1.424953 0.364807,-2.989163 0,-4.4148438 -0.01365,-0.053336 -0.03258,-0.1105505 -0.05558,-0.1703061 -0.203487,-0.5286007 -0.725506,-1.256028 -0.725506,-1.256028 0,0 0.121221,-1.0815609 0.594306,-1.0527704 0.647613,0.039412 1.554815,0.9925705 1.880554,1.5536853 0.494319,0.8515076 0.731183,1.846559 0.819292,2.827198 0.106173,1.181693 -0.09767,2.39633 -0.441484,3.531875 -0.476786,1.574718 -1.302565,3.04069 -2.207421,4.414843 -1.148653,1.744393 -2.68451,3.456349 -4.279002,4.805388 -1.526581,1.291582 -3.103562,2.212569 -4.924249,3.03945 -1.747021,0.793424 -3.597596,1.370204 -5.467614,1.799897 -1.164824,0.267653 -2.796276,0.572265 -4.4328788,0.745659 -1.0379448,0.109967 -2.15409,0.13163 -2.9110437,0.171269 -1.9452163,0.101866 -4.4305437,-0.245609 -4.4305437,-0.245609 z"
       id="path4"
       sodipodi:nodetypes="csssssscssssssssssc" /><path
       style="fill:#00773d;fill-opacity:1;stroke-width:1.8"
       d="m 9.1090748,24.978862 c 0,0 17.4962712,-18.270004 21.6250282,-22.4997576 C 31.197469,2.0044034 32.999659,2.8556607 32.534,3.3281127 24.609095,11.368622 9.1090748,24.978862 9.1090748,24.978862 Z"
       id="path5"
       sodipodi:nodetypes="cssc" /><path
       style="fill:#00773d;fill-opacity:1;stroke-width:1.74452"
       d="m 19.17636,14.622077 -4.581541,1.946453 6.829122,-4.295204 z"
       id="path6" /><path
       style="fill:#00773d;fill-opacity:1;stroke-width:2.82087"
       d="M 22.235039,12.768916 19.491484,20.215447 25.874753,8.9760715 Z"
       id="path6-5" /><path
       style="fill:#03ff86;fill-opacity:0.239216;stroke-width:1.8"
       d="m 15.008489,13.303525 c 0,0 -2.832924,4.020827 -4.346458,7.444211 -0.500843,1.132831 -0.9728388,2.364898 -0.9125163,3.602037 0.041433,0.849733 0.3078863,1.757964 0.8644893,2.401358 0.712233,0.823292 1.859555,1.162106 2.88163,1.53687 0.56898,0.208628 1.878886,0.256866 1.878886,0.256866 L 14.421557,28.830953 12.684455,29.308972 9.4613517,29.872897 5.4969839,30.067605 3.5679914,30.032377 1.409768,29.815048 11.706113,17.32346 Z"
       id="path7"
       sodipodi:nodetypes="cssssccccccccc" /></g></svg>
