<?xml version="1.0" encoding="UTF-8" standalone="no"?>
<svg
   width="128"
   height="128"
   viewBox="0 0 33.866666 33.866667"
   version="1.1"
   id="svg4"
   sodipodi:docname="part-boost-gearshift-01.svg"
   inkscape:version="1.4 (e7c3feb1, 2024-10-09)"
   xmlns:inkscape="http://www.inkscape.org/namespaces/inkscape"
   xmlns:sodipodi="http://sodipodi.sourceforge.net/DTD/sodipodi-0.dtd"
   xmlns:xlink="http://www.w3.org/1999/xlink"
   xmlns="http://www.w3.org/2000/svg"
   xmlns:svg="http://www.w3.org/2000/svg"
   xmlns:rdf="http://www.w3.org/1999/02/22-rdf-syntax-ns#"
   xmlns:cc="http://creativecommons.org/ns#"
   xmlns:dc="http://purl.org/dc/elements/1.1/">
  <metadata
     id="metadata10">
    <rdf:RDF>
      <cc:Work
         rdf:about="">
        <dc:format>image/svg+xml</dc:format>
        <dc:type
           rdf:resource="http://purl.org/dc/dcmitype/StillImage" />
        <dc:title />
      </cc:Work>
    </rdf:RDF>
  </metadata>
  <defs
     id="defs8">
    <linearGradient
       id="linearGradient3"
       inkscape:collect="always">
      <stop
         style="stop-color:#7d7d7d;stop-opacity:1;"
         offset="0"
         id="stop3" />
      <stop
         style="stop-color:#ffffff;stop-opacity:1;"
         offset="1"
         id="stop4" />
    </linearGradient>
    <linearGradient
       inkscape:collect="always"
       xlink:href="#linearGradient3"
       id="linearGradient4"
       x1="-0.26458263"
       y1="9.7895832"
       x2="43.920837"
       y2="10.054166"
       gradientUnits="userSpaceOnUse"
       gradientTransform="matrix(0.74246212,-0.74246212,0.74246212,0.74246212,-6.6398403,25.773275)" />
  </defs>
  <sodipodi:namedview
     pagecolor="#ffffff"
     bordercolor="#666666"
     borderopacity="1"
     objecttolerance="10"
     gridtolerance="10"
     guidetolerance="10"
     inkscape:pageopacity="0"
     inkscape:pageshadow="2"
     inkscape:window-width="1920"
     inkscape:window-height="1022"
     id="namedview6"
     showgrid="true"
     inkscape:zoom="3.309561"
     inkscape:cx="82.941513"
     inkscape:cy="24.625622"
     inkscape:window-x="0"
     inkscape:window-y="118"
     inkscape:window-maximized="1"
     inkscape:current-layer="svg4"
     inkscape:showpageshadow="2"
     inkscape:pagecheckerboard="0"
     inkscape:deskcolor="#d1d1d1">
    <inkscape:grid
       type="xygrid"
       id="grid819"
       empspacing="4"
       spacingy="0.52916667"
       spacingx="0.52916667"
       originx="0"
       originy="0"
       units="px" />
  </sodipodi:namedview>
  <g
     transform="matrix(0.26458333,0,0,0.26458333,8.4666667,-21.482051)"
     id="g6" />
  <g
     transform="matrix(0.26458333,0,0,0.26458333,8.4666667,-21.482051)"
     id="g8" />
  <g
     transform="matrix(0.26458333,0,0,0.26458333,8.4666667,-21.482051)"
     id="g10" />
  <g
     transform="matrix(0.26458333,0,0,0.26458333,8.4666667,-21.482051)"
     id="g12" />
  <g
     transform="matrix(0.26458333,0,0,0.26458333,8.4666667,-21.482051)"
     id="g14" />
  <g
     transform="matrix(0.26458333,0,0,0.26458333,8.4666667,-21.482051)"
     id="g16" />
  <g
     transform="matrix(0.26458333,0,0,0.26458333,8.4666667,-21.482051)"
     id="g18" />
  <g
     transform="matrix(0.26458333,0,0,0.26458333,8.4666667,-21.482051)"
     id="g20" />
  <g
     transform="matrix(0.26458333,0,0,0.26458333,8.4666667,-21.482051)"
     id="g22" />
  <g
     transform="matrix(0.26458333,0,0,0.26458333,8.4666667,-21.482051)"
     id="g24" />
  <g
     transform="matrix(0.26458333,0,0,0.26458333,8.4666667,-21.482051)"
     id="g26" />
  <g
     transform="matrix(0.26458333,0,0,0.26458333,8.4666667,-21.482051)"
     id="g28" />
  <g
     transform="matrix(0.26458333,0,0,0.26458333,8.4666667,-21.482051)"
     id="g30" />
  <g
     transform="matrix(0.26458333,0,0,0.26458333,8.4666667,-21.482051)"
     id="g32" />
  <g
     transform="matrix(0.26458333,0,0,0.26458333,8.4666667,-21.482051)"
     id="g34" />
  <path
     id="path1-7-6-9"
     style="fill:url(#linearGradient4);stroke-width:0.948267"
     d="m 15.754673,29.309249 -3.928861,3.928863 0.392886,-11.393701 H 0.43211153 l 3.92886227,-3.928862 11.7865862,-10e-7 z m 8.643497,-7.071952 -3.928861,3.928862 0.392886,-12.965244 -13.358131,-1e-6 3.928862,-3.9288616 13.358132,-5e-7 z m 8.6435,-7.071953 -3.928862,3.928863 0.392886,-14.5367903 -14.929677,-3e-7 3.928861,-3.92886194 h 14.929677 z"
     sodipodi:nodetypes="ccccccccccccccccccccc" />
</svg>
