<?xml version="1.0" encoding="UTF-8" standalone="no"?>
<svg
   width="128"
   height="128"
   viewBox="0 0 33.866666 33.866667"
   version="1.1"
   id="svg4"
   sodipodi:docname="part-heal-diamond.svg"
   inkscape:version="1.4 (e7c3feb1, 2024-10-09)"
   xml:space="preserve"
   xmlns:inkscape="http://www.inkscape.org/namespaces/inkscape"
   xmlns:sodipodi="http://sodipodi.sourceforge.net/DTD/sodipodi-0.dtd"
   xmlns="http://www.w3.org/2000/svg"
   xmlns:svg="http://www.w3.org/2000/svg"
   xmlns:rdf="http://www.w3.org/1999/02/22-rdf-syntax-ns#"
   xmlns:cc="http://creativecommons.org/ns#"
   xmlns:dc="http://purl.org/dc/elements/1.1/"><metadata
     id="metadata10"><rdf:RDF><cc:Work
         rdf:about=""><dc:format>image/svg+xml</dc:format><dc:type
           rdf:resource="http://purl.org/dc/dcmitype/StillImage" /><dc:title /></cc:Work></rdf:RDF></metadata><defs
     id="defs8" /><sodipodi:namedview
     pagecolor="#ffffff"
     bordercolor="#666666"
     borderopacity="1"
     objecttolerance="10"
     gridtolerance="10"
     guidetolerance="10"
     inkscape:pageopacity="0"
     inkscape:pageshadow="2"
     inkscape:window-width="1920"
     inkscape:window-height="1022"
     id="namedview6"
     showgrid="false"
     inkscape:zoom="1.3908643"
     inkscape:cx="8.6277288"
     inkscape:cy="137.68417"
     inkscape:window-x="0"
     inkscape:window-y="128"
     inkscape:window-maximized="1"
     inkscape:current-layer="svg4"
     inkscape:showpageshadow="2"
     inkscape:pagecheckerboard="0"
     inkscape:deskcolor="#d1d1d1"><inkscape:grid
       type="xygrid"
       id="grid819"
       empspacing="4"
       spacingy="0.52916667"
       spacingx="0.52916667"
       originx="0"
       originy="0"
       units="px"
       visible="false" /></sodipodi:namedview><g
     transform="matrix(0.26458333,0,0,0.26458333,8.4666667,-21.482051)"
     id="g6" /><g
     transform="matrix(0.26458333,0,0,0.26458333,8.4666667,-21.482051)"
     id="g8" /><g
     transform="matrix(0.26458333,0,0,0.26458333,8.4666667,-21.482051)"
     id="g10" /><g
     transform="matrix(0.26458333,0,0,0.26458333,8.4666667,-21.482051)"
     id="g12" /><g
     transform="matrix(0.26458333,0,0,0.26458333,8.4666667,-21.482051)"
     id="g14" /><g
     transform="matrix(0.26458333,0,0,0.26458333,8.4666667,-21.482051)"
     id="g16" /><g
     transform="matrix(0.26458333,0,0,0.26458333,8.4666667,-21.482051)"
     id="g18" /><g
     transform="matrix(0.26458333,0,0,0.26458333,8.4666667,-21.482051)"
     id="g20" /><g
     transform="matrix(0.26458333,0,0,0.26458333,8.4666667,-21.482051)"
     id="g22" /><g
     transform="matrix(0.26458333,0,0,0.26458333,8.4666667,-21.482051)"
     id="g24" /><g
     transform="matrix(0.26458333,0,0,0.26458333,8.4666667,-21.482051)"
     id="g26" /><g
     transform="matrix(0.26458333,0,0,0.26458333,8.4666667,-21.482051)"
     id="g28" /><g
     transform="matrix(0.26458333,0,0,0.26458333,8.4666667,-21.482051)"
     id="g30" /><g
     transform="matrix(0.26458333,0,0,0.26458333,8.4666667,-21.482051)"
     id="g32" /><g
     transform="matrix(0.26458333,0,0,0.26458333,8.4666667,-21.482051)"
     id="g34" /><path
     d="m 16.925373,33.261904 c 0.877048,0 1.323498,-0.590005 2.216467,-1.801857 l 9.519693,-12.708868 c 0.43053,-0.590005 0.685664,-1.180011 0.685664,-1.817846 0,-0.653823 -0.255134,-1.227841 -0.685664,-1.817846 L 19.14184,2.3906995 C 18.248871,1.1947678 17.802421,0.604762 16.925373,0.604762 c -0.86106,0 -1.307579,0.5900058 -2.200547,1.7859375 L 5.2051332,15.115487 c -0.43053,0.590005 -0.685664,1.164023 -0.685664,1.817846 0,0.637835 0.255134,1.227841 0.685664,1.817846 l 9.5196928,12.708868 c 0.892968,1.211852 1.339487,1.801857 2.200547,1.801857 z"
     id="path1"
     style="stroke-width:3.77977;fill:#ffffff;fill-opacity:1" /></svg>
