<?xml version="1.0" encoding="UTF-8" standalone="no"?>
<svg
   width="76"
   height="76"
   viewBox="0 0 52.413793 52.413793"
   version="1.1"
   id="svg1"
   sodipodi:docname="player-hands-outfitPotatoskin.svg"
   xml:space="preserve"
   inkscape:version="1.4 (86a8ad7, 2024-10-11)"
   xmlns:inkscape="http://www.inkscape.org/namespaces/inkscape"
   xmlns:sodipodi="http://sodipodi.sourceforge.net/DTD/sodipodi-0.dtd"
   xmlns="http://www.w3.org/2000/svg"
   xmlns:svg="http://www.w3.org/2000/svg"><defs
     id="defs1" /><sodipodi:namedview
     id="namedview1"
     pagecolor="#ffffff"
     bordercolor="#000000"
     borderopacity="0.25"
     inkscape:showpageshadow="2"
     inkscape:pageopacity="0.0"
     inkscape:pagecheckerboard="0"
     inkscape:deskcolor="#d1d1d1"
     inkscape:zoom="5.3680556"
     inkscape:cx="36.605433"
     inkscape:cy="32.134541"
     inkscape:window-width="1920"
     inkscape:window-height="991"
     inkscape:window-x="-9"
     inkscape:window-y="-9"
     inkscape:window-maximized="1"
     inkscape:current-layer="svg1" /><ellipse
     cx="-24.524"
     cy="27.676001"
     transform="matrix(0.06036912,-0.99817612,0.99817717,0.0603517,0,0)"
     rx="22.113001"
     ry="22.117001"
     fill="#ffffff"
     stroke="#333333"
     stroke-width="8.056"
     stroke-miterlimit="10"
     id="ellipse1"
     style="display:none" /><g
     id="g864"
     transform="matrix(2.0849034,0,0,2.0775499,6.3598197,6.2828443)"
     style="stroke-width:7.0335;stroke-dasharray:none"><path
       sodipodi:nodetypes="cccccscccccc"
       inkscape:connector-curvature="0"
       style="fill:#907155;fill-opacity:1;stroke:#2d2d2d;stroke-width:7.0335;stroke-miterlimit:4;stroke-dasharray:none;paint-order:stroke fill markers"
       id="path2"
       d="m 11.849837,1.1646119 c 2.529672,0.4065544 2.955402,1.5894985 4.392895,3.1077674 1.437493,1.5177545 1.937575,2.3931567 2.052822,4.8189918 0.115761,2.4253199 -0.03772,4.0361899 -1.588918,5.6542699 -2.228274,1.889117 -3.137903,3.186211 -5.332216,3.301972 C 9.1795931,18.162859 6.4328407,18.328614 4.9289777,17.502338 3.4251145,16.676061 2.888113,15.558961 2.300562,14.337555 1.7130109,13.116663 0.75921573,11.701634 0.72988967,10.286263 0.70107805,8.870893 0.89298386,7.3268992 1.5067741,5.9614347 2.1205643,4.5964847 3.2170357,4.050446 4.2393333,3.2416628 5.2611166,2.4328797 6.2071825,1.3613525 7.3364948,1.0598595 9.9394912,0.65063059 11.0819,1.0742663 11.849837,1.1646119 Z" /><path
       sodipodi:nodetypes="sssss"
       inkscape:connector-curvature="0"
       id="path832"
       d="m 3.9233442,12.904847 c -0.5711366,0.150166 -1.2014561,-0.28947 -1.3613412,-0.825891 -0.1598853,-0.53642 0.2112089,-0.966495 0.7823455,-1.116662 0.5711368,-0.150166 1.0752225,0.28368 1.2351076,0.820101 0.1598853,0.53642 -0.084975,0.972286 -0.6561119,1.122452 z"
       style="fill:#785b44;fill-opacity:1;stroke:none;stroke-width:7.0335;stroke-linecap:square;stroke-linejoin:miter;stroke-miterlimit:4;stroke-dasharray:none;stroke-opacity:1;paint-order:fill markers stroke" /><path
       style="fill:#785b44;fill-opacity:1;stroke:none;stroke-width:7.0335;stroke-linecap:square;stroke-linejoin:miter;stroke-miterlimit:4;stroke-dasharray:none;stroke-opacity:1;paint-order:fill markers stroke"
       d="m 16.171638,13.559069 c 0,1.379064 -1.439551,2.497019 -2.815125,2.497019 -1.375572,0 -2.166267,-1.117956 -2.166267,-2.497019 0,-1.379067 1.346859,-2.21823 2.722432,-2.21823 1.375574,0 2.25896,0.839163 2.25896,2.21823 z"
       id="path835"
       inkscape:connector-curvature="0"
       sodipodi:nodetypes="sssss" /><path
       sodipodi:nodetypes="sssss"
       inkscape:connector-curvature="0"
       id="path837"
       d="M 8.3158436,16.276218 C 7.9025265,16.746722 7.0601505,16.686821 6.5753835,16.265138 6.090616,15.843434 6.147027,15.219617 6.5603465,14.749115 c 0.413318,-0.470502 1.1394718,-0.343904 1.6242387,0.0778 0.484768,0.421703 0.5445784,0.978821 0.1312603,1.449324 z"
       style="fill:#785b44;fill-opacity:1;stroke:none;stroke-width:7.0335;stroke-linecap:square;stroke-linejoin:miter;stroke-miterlimit:4;stroke-dasharray:none;stroke-opacity:1;paint-order:fill markers stroke" /><path
       style="fill:#785b44;fill-opacity:1;stroke:none;stroke-width:7.0335;stroke-linecap:square;stroke-linejoin:miter;stroke-miterlimit:4;stroke-dasharray:none;stroke-opacity:1;paint-order:fill markers stroke"
       d="M 9.7264867,3.4262287 C 9.3854653,3.8084654 8.789869,3.6710132 8.4849083,3.2435777 8.1799478,2.8161423 8.2811064,2.2605838 8.6221278,1.8783473 8.9631491,1.4961107 9.4692556,1.6820317 9.7742153,2.1094671 10.079176,2.5369026 10.067508,3.0439919 9.7264867,3.4262287 Z"
       id="path839"
       inkscape:connector-curvature="0"
       sodipodi:nodetypes="sssss" /><path
       style="fill:#785b44;fill-opacity:1;stroke:none;stroke-width:7.0335;stroke-linecap:square;stroke-linejoin:miter;stroke-miterlimit:4;stroke-dasharray:none;stroke-opacity:1;paint-order:fill markers stroke"
       d="M 13.741779,9.2283264 C 13.988692,9.9946324 12.487797,10.743896 10.86238,10.866258 9.2369609,10.988624 8.1025092,10.437739 7.8556167,9.6714273 7.6087182,8.9051238 9.0499818,8.3190179 10.675401,8.1966582 c 1.62542,-0.1223654 2.819502,0.265362 3.066392,1.0316682 z"
       id="path841"
       inkscape:connector-curvature="0"
       sodipodi:nodetypes="sssss" /><path
       style="fill:#785b44;fill-opacity:1;stroke:none;stroke-width:7.0335;stroke-linecap:square;stroke-linejoin:miter;stroke-miterlimit:4;stroke-dasharray:none;stroke-opacity:1;paint-order:fill markers stroke"
       d="M 4.2255513,8.366701 C 3.6883449,7.4942704 3.9674814,6.0606225 4.650349,5.3665033 5.3332164,4.6723842 6.1612269,4.9806422 6.6984327,5.8530725 7.2356392,6.7255031 6.8939179,7.9360081 6.2110505,8.630127 5.5281831,9.3242469 4.7627573,9.2391298 4.2255513,8.366701 Z"
       id="path843"
       inkscape:connector-curvature="0"
       sodipodi:nodetypes="sssss" /><path
       sodipodi:nodetypes="sssss"
       inkscape:connector-curvature="0"
       id="path906"
       d="M 14.002672,6.6252941 C 13.408707,6.5653151 13.161973,6.116483 13.386307,5.7340585 c 0.224334,-0.3824242 0.834788,-0.5536233 1.428752,-0.493645 0.593965,0.059979 0.735741,0.4709161 0.511408,0.8533399 -0.224336,0.3824245 -0.72983,0.5915184 -1.323795,0.5315407 z"
       style="fill:#785b44;fill-opacity:1;stroke:none;stroke-width:7.0335;stroke-linecap:square;stroke-linejoin:miter;stroke-miterlimit:4;stroke-dasharray:none;stroke-opacity:1;paint-order:fill markers stroke" /></g></svg>
