<svg xmlns="http://www.w3.org/2000/svg" width="128" height="128" viewBox="0 0 33.86667 33.86667"><path d="M20.36878 4.55528 7.6414 17.34933l-.43408.01137-1.09037 1.09037s-.8011.73422-.1447 1.39061l3.03341 3.00912c.14004.11568.80202.4315 1.27228-.03876L24.36285 8.72712s.21124-.09987-.07803-.38913l-1.74666-1.74666-2.16938-2.03605z" style="font-variation-settings:normal;opacity:1;fill:#fff;fill-opacity:1;stroke:#323232;stroke-width:.754;stroke-linecap:butt;stroke-linejoin:miter;stroke-miterlimit:4;stroke-dasharray:none;stroke-dashoffset:0;stroke-opacity:1;paint-order:fill markers stroke;stop-color:#000;stop-opacity:1"/><path d="M7.64114 17.34941h3.96064s.42833-.0055.75097-.3282l3.60463-3.60462.07475-.27898 6.51507-6.51507" style="font-variation-settings:normal;opacity:1;fill:none;fill-opacity:1;stroke:#323232;stroke-width:.654;stroke-linecap:butt;stroke-linejoin:miter;stroke-miterlimit:4;stroke-dasharray:none;stroke-dashoffset:0;stroke-opacity:1;paint-order:fill markers stroke;stop-color:#000;stop-opacity:1"/><path d="m17.6847 16.7907-3.53776 3.53777c.9595.211 1.43733.50738 1.86138 1.1529.28715.49955.82241 1.44367 1.14102 1.96681.31861.52315 2.02967 2.59605 2.21847 2.64325.18877.04717 1.1959-1.0264 1.25884-1.08934.0629-.06293.03514-.14986.03514-.14986l2.54248-2.54248-5.51956-5.51904zM23.828 23.09368l-2.25774 2.25774s5.318 5.27098 5.672 5.62498c.35401.35401.46416.33826.5979.2832.13374-.05508 1.82474-1.93517 1.92702-2.08464.10226-.14947 0-.22014 0-.22014L23.828 23.09368z" style="font-variation-settings:normal;opacity:1;fill:#fff;fill-opacity:1;stroke:#323232;stroke-width:.754;stroke-linecap:butt;stroke-linejoin:miter;stroke-miterlimit:4;stroke-dasharray:none;stroke-dashoffset:0;stroke-opacity:1;paint-order:fill markers stroke;stop-color:#000;stop-opacity:1"/><path d="m15.14832 19.36064 5.48482 5.48482-1.14592 1.14592-1.6855-1.87463-1.56868-2.55884-1.01797-.95122-.81215-.33377z" style="font-variation-settings:normal;opacity:1;fill:#323232;fill-opacity:1;stroke:#323232;stroke-width:.0692192;stroke-linecap:butt;stroke-linejoin:miter;stroke-miterlimit:4;stroke-dasharray:none;stroke-dashoffset:0;stroke-opacity:1;paint-order:fill markers stroke;stop-color:#000;stop-opacity:1"/><path d="m27.58306 31.23911 2.12495-2.12495" style="font-variation-settings:normal;opacity:1;fill:none;fill-opacity:1;stroke:#323232;stroke-width:.654;stroke-linecap:butt;stroke-linejoin:miter;stroke-miterlimit:4;stroke-dasharray:none;stroke-dashoffset:0;stroke-opacity:1;paint-order:fill markers stroke;stop-color:#000;stop-opacity:1"/><path d="m7.91863 23.12506.52792.53855c.17964.16583.5309.27529.7744.30542l.08207.01016c.399.04938.74046-.02346.74046-.02346s.5737.51955.79064.81438c.21695.29482.4172.5062.25588.66752-.16131.16132-.60633.58409-.92897.78434-.32263.20022-.77321.48392-1.05135.43942-.27813-.0445-.68977-.34489-.75096-.68421-.06119-.33933-.68978-2.2807-.72315-2.40309-.03337-.12238-.00556-.16132.07788-.24476.08344-.08344.20518-.20427.20518-.20427z" style="font-variation-settings:normal;opacity:1;fill:#fff;fill-opacity:1;stroke:#323232;stroke-width:.754;stroke-linecap:butt;stroke-linejoin:miter;stroke-miterlimit:4;stroke-dasharray:none;stroke-dashoffset:0;stroke-opacity:1;paint-order:fill markers stroke;stop-color:#000;stop-opacity:1"/><path d="M18.63009 17.59716c.59394.18487.60968.27927 1.26263-.23208.65294-.51134 1.44356-1.12889 1.67957-1.4829.236-.354.53887-1.02662-.1062-1.79757-.64509-.77095-1.1289-1.38063-1.1289-1.38063" style="font-variation-settings:normal;opacity:1;fill:none;fill-opacity:1;stroke:#323232;stroke-width:.446;stroke-linecap:butt;stroke-linejoin:miter;stroke-miterlimit:4;stroke-dasharray:none;stroke-dashoffset:0;stroke-opacity:1;paint-order:fill markers stroke;stop-color:#000;stop-opacity:1"/><path d="M19.46397 13.80534c.60182-.0118.55855.03147.69622-.07474.13767-.1062.31074-.21634.40514-.46022.0944-.24387.14554-.6018.14554-.6018z" style="font-variation-settings:normal;opacity:1;fill:#323232;fill-opacity:1;stroke:#323232;stroke-width:.169;stroke-linecap:butt;stroke-linejoin:miter;stroke-miterlimit:4;stroke-dasharray:none;stroke-dashoffset:0;stroke-opacity:1;paint-order:fill markers stroke;stop-color:#000;stop-opacity:1"/><path d="M18.8611 14.40675c.58409 1.44074 1.36287 1.47411 1.46856 1.5798.1057.1057.09457.20583.09457.20583s-.25588.10013-.81216-.14463c-.55626-.24476-1.51861-.87335-1.51861-.87335z" style="font-variation-settings:normal;opacity:1;fill:#323232;fill-opacity:1;stroke:#323232;stroke-width:.169;stroke-linecap:butt;stroke-linejoin:round;stroke-miterlimit:4;stroke-dasharray:none;stroke-dashoffset:0;stroke-opacity:1;paint-order:fill markers stroke;stop-color:#000;stop-opacity:1"/><path d="M7.9115 25.0982c-1.14855-1.2115-.87321-1.17216-1.4239-1.67564-.55067-.50348-3.02873-2.8714-3.1546-3.1074-.12587-.23601-.44054-1.0227.27534-1.64418s2.64326-1.74644 3.62662-2.57246c.98335-.82602 2.06111-1.95098 2.41512-2.05324.354-.10227.32026.02062.36746.09929.04721.07866 0 0-.3304.31467-.24737.21713-2.00377 1.82022-2.97926 2.54397-.97549.72375-2.57246 1.77004-2.79273 2.03752-.22027.26747-.43268.79455.14947 1.36096.58214.56641 3.46928 3.18607 3.46928 3.18607z" style="font-variation-settings:normal;opacity:1;fill:#323232;fill-opacity:1;stroke:#323232;stroke-width:.169;stroke-linecap:butt;stroke-linejoin:miter;stroke-miterlimit:4;stroke-dasharray:none;stroke-dashoffset:0;stroke-opacity:1;paint-order:fill markers stroke;stop-color:#000;stop-opacity:1"/><path d="M5.14483 18.9079c.0236-.25174.21815-.48243.21815-.48243l-.4111-.40879-.24583.20257s.12587.22027.27337.41104c.08126.10507.08546.17154.1654.2776zM19.39985 3.90777c-.1346-.00369-.33982.01736-.4775.15503-.22026.22027-.25975.63675-.30695.91209-.04714.275.01947.42854.01964.42891l1.19166-1.19165-.29094-.29094s-.05515-.01123-.13591-.01344z" style="font-variation-settings:normal;opacity:1;fill:#323232;fill-opacity:1;stroke:#323232;stroke-width:.169;stroke-linecap:butt;stroke-linejoin:miter;stroke-miterlimit:4;stroke-dasharray:none;stroke-dashoffset:0;stroke-opacity:1;paint-order:fill markers stroke;stop-color:#000;stop-opacity:1"/><path d="M16.30937 8.40868c-.2242-.2242-.32676-.54549-.28321-.70802.04355-.16253.56248-.68834.74342-.81421.18094-.12587.32254-.18881.45234-.059l.31468.31467zM22.0256 5.28916l.8803.82745.72455.74958.07231-.07231-.22675-.39274 1.59138-1.59138.19018-.05096.99197-.99197s-.14926-.37733-.46911-.68606c-.31988-.3087-.59799-.3421-.59799-.3421l-.97625.97625-.0351.131-.47322.47322s-.37059.05774-.43178.11893c-.06119.06119-.15297.16966-.16966.24198-.0167.07231-.08066.14185-.08066.14185l.06675.06675-.40052.40051-.03063-.0082-.18904.18905-.26706-.26706-.08867.0059zM11.32134 14.38775l2.18058-2.18058s.34489-.37826.7009-.02225l.92341.92341s.22251.2225-.0445.48952l-2.44202 2.44203s-.17801.28926-.44502.02225l-1.06248-1.06248s-.25033-.17244.18913-.6119z" style="font-variation-settings:normal;opacity:1;fill:#323232;fill-opacity:1;stroke:#323232;stroke-width:.0692192;stroke-linecap:butt;stroke-linejoin:miter;stroke-miterlimit:4;stroke-dasharray:none;stroke-dashoffset:0;stroke-opacity:1;paint-order:fill markers stroke;stop-color:#000;stop-opacity:1"/><circle cx="-7.45234" cy="21.53351" r=".22251" style="font-variation-settings:normal;opacity:1;fill:#323232;fill-opacity:1;fill-rule:evenodd;stroke:#323232;stroke-width:.138;stroke-linecap:round;stroke-linejoin:round;stroke-miterlimit:4;stroke-dasharray:none;stroke-dashoffset:0;stroke-opacity:1;stop-color:#000;stop-opacity:1" transform="rotate(-45)"/><circle cx="2.3992" cy="21.79495" r=".27814" style="font-variation-settings:normal;opacity:1;fill:#323232;fill-opacity:1;fill-rule:evenodd;stroke:#323232;stroke-width:.138;stroke-linecap:round;stroke-linejoin:round;stroke-miterlimit:4;stroke-dasharray:none;stroke-dashoffset:0;stroke-opacity:1;stop-color:#000;stop-opacity:1" transform="rotate(-45)"/><circle cx="10.10043" cy="22.06197" r=".44153" style="font-variation-settings:normal;opacity:1;fill:none;fill-opacity:1;fill-rule:evenodd;stroke:#323232;stroke-width:.415315;stroke-linecap:round;stroke-linejoin:round;stroke-miterlimit:4;stroke-dasharray:none;stroke-dashoffset:0;stroke-opacity:1;stop-color:#000;stop-opacity:1" transform="rotate(-45)"/></svg>