<svg xmlns="http://www.w3.org/2000/svg" width="128" height="128"><path d="M105.116 9.194l-3.715 3.133 3.123 3.601-.063.049 1.672 1.966 5.176-4.49L109.195 11l-1.437 1.245-2.642-3.051zm-6.684 5.684L59.885 46.654c.009.13.002.25.01.374l-.143 5.55a3.882 3.882 0 0 1-1.388 2.883l-9.638 8.08a3.882 3.882 0 0 1-5.47-.48l-1.31-1.563-6.855 5.696c-.384.323-.424.938-.096 1.466l.571.921a1.189 1.189 0 0 1 .052 1.303L24.974 85.895a.43.43 0 0 1-.063.07L4.126 104.522c-.422.377-.388 1.111.076 1.639l10.783 12.437a1.38 1.38 0 0 0 1.108.51l.044-.003a.842.842 0 0 0 .66-.433l18.588-28.348a1.02 1.02 0 0 0 .249-1.08s-1.003-3.84-.846-4.094c0 0 6.31-9.771 6.367-9.821l62.096-54.801-4.82-5.65zm-42.429 32.06l-12.45 10.436 2.68 3.2 9.638-8.082zm5.944 15.218l-8.859 7.809 2.07 3.596a1.247 1.247 0 0 0 1.192.616l.06-.004a1.456 1.456 0 0 0 1.066-.67l5.003-7.783a1.366 1.366 0 0 0 .167-1.109l-.699-2.455zm-13.63 12.028l-1.36 1.21a3.108 3.108 0 0 1-3.687 4.67l-.497.765-.497.763a4.919 4.919 0 0 0 7.035-4.085 4.877 4.877 0 0 0-.994-3.323z" fill="#fff" stroke="#323232" stroke-width="2.912"/></svg>