<?xml version="1.0" encoding="UTF-8" standalone="no"?>
<svg
   version="1.1"
   viewBox="0 0 120.56992 128"
   fill="none"
   stroke="none"
   stroke-linecap="square"
   stroke-miterlimit="10"
   id="svg133"
   width="120.56992"
   height="128"
   xmlns="http://www.w3.org/2000/svg"
   xmlns:svg="http://www.w3.org/2000/svg">
  <defs
     id="defs133" />
  <clipPath
     id="p.0">
    <path
       d="M 0,0 H 1428 V 1516 H 0 Z"
       clip-rule="nonzero"
       id="path1" />
  </clipPath>
  <g
     clip-path="url(#p.0)"
     id="g133"
     transform="scale(0.08443272)">
    <path
       fill="#000000"
       fill-opacity="0"
       d="M 0,0 H 1428 V 1516 H 0 Z"
       fill-rule="evenodd"
       id="path2" />
    <path
       fill="#323232"
       d="m 518.06737,766.19332 36.35937,-36.35942 6.90299,6.90299 -36.35937,36.35942 z"
       fill-rule="evenodd"
       id="path3"
       style="stroke-width:1.25488" />
    <path
       fill="#323232"
       d="m 1079.2214,370.06083 202.3102,-202.31013 17.6347,17.63472 -202.3102,202.31012 z"
       fill-rule="evenodd"
       id="path4"
       style="stroke-width:1.25488" />
    <path
       fill="#323232"
       d="m 1018.0878,453.16773 12.1921,-12.19195 v -18.7666 l -36.38372,-36.38368 -21.57529,21.57528 z"
       fill-rule="evenodd"
       id="path5"
       style="stroke-width:1.25488" />
    <path
       stroke="#323232"
       stroke-width="55.8668"
       stroke-miterlimit="8"
       stroke-linecap="round"
       d="m 1018.0878,453.16773 12.1921,-12.19195 v -18.7666 l -36.38372,-36.38368 -21.57529,21.57528 z"
       fill-rule="evenodd"
       id="path6" />
    <path
       fill="#ffffff"
       d="m 1018.0878,453.16773 10.7877,-10.78765 V 420.8048 l -34.97932,-34.9793 -21.57529,21.57528 z"
       fill-rule="evenodd"
       id="path7"
       style="stroke-width:1.25488" />
    <path
       stroke="#ffffff"
       stroke-width="5.01952"
       stroke-linejoin="round"
       stroke-linecap="butt"
       d="m 1018.0878,453.16773 10.7877,-10.78765 V 420.8048 l -34.97932,-34.9793 -21.57529,21.57528 z"
       fill-rule="evenodd"
       id="path8" />
    <path
       fill="#323232"
       d="m 1296.0106,93.567033 24.8451,-24.845099 17.6347,17.634678 -24.8451,24.845138 z"
       fill-rule="evenodd"
       id="path9"
       style="stroke-width:1.25488" />
    <path
       fill="#323232"
       d="m 1249.0081,103.3534 33.6296,33.62953 v 16.81526 l -242.4189,242.41893 v 0 l -50.44485,-50.44478 v 0 L 1232.1929,103.3534 Z"
       fill-rule="evenodd"
       id="path10"
       style="stroke-width:1.25488" />
    <path
       stroke="#323232"
       stroke-width="55.8668"
       stroke-miterlimit="8"
       stroke-linecap="round"
       d="m 1249.0081,103.3534 33.6296,33.62953 v 16.81526 l -242.4189,242.41893 v 0 l -50.44485,-50.44478 v 0 L 1232.1929,103.3534 Z"
       fill-rule="evenodd"
       id="path11" />
    <path
       fill="#ffffff"
       d="m 1249.0081,103.3534 33.6296,33.62953 v 16.81526 l -242.4189,242.41893 v 0 l -50.44485,-50.44478 v 0 L 1232.1929,103.3534 Z"
       fill-rule="evenodd"
       id="path12"
       style="stroke-width:1.25488" />
    <path
       stroke="#ffffff"
       stroke-width="5.01952"
       stroke-linejoin="round"
       stroke-linecap="butt"
       d="m 1249.0081,103.3534 33.6296,33.62953 v 16.81526 l -242.4189,242.41893 v 0 l -50.44485,-50.44478 v 0 L 1232.1929,103.3534 Z"
       fill-rule="evenodd"
       id="path13" />
    <path
       fill="#323232"
       d="M 781.53625,603.23449 949.41421,435.35654 1003.9393,489.88159 836.06132,657.75955 Z"
       fill-rule="evenodd"
       id="path14"
       style="stroke-width:1.25488" />
    <path
       stroke="#323232"
       stroke-width="55.8668"
       stroke-miterlimit="8"
       stroke-linecap="round"
       d="M 781.53625,603.23449 949.41421,435.35654 1003.9393,489.88159 836.06132,657.75955 Z"
       fill-rule="evenodd"
       id="path15" />
    <path
       fill="#282828"
       d="M 781.53625,603.23449 949.41421,435.35654 1003.9393,489.88159 836.06132,657.75955 Z"
       fill-rule="evenodd"
       id="path16"
       style="stroke-width:1.25488" />
    <path
       stroke="#282828"
       stroke-width="5.01952"
       stroke-linejoin="round"
       stroke-linecap="butt"
       d="M 781.53625,603.23449 949.41421,435.35654 1003.9393,489.88159 836.06132,657.75955 Z"
       fill-rule="evenodd"
       id="path17" />
    <path
       fill="#323232"
       d="m 755.38498,769.98369 23.51528,23.51528 1.77463,22.18075 -38.5975,46.58579 -16.85915,4.43657 6.65376,4.87913 13.75236,-3.10442 42.14913,-49.24773 -3.10679,-30.61159 -28.39441,-28.3944 z"
       fill-rule="evenodd"
       id="path18"
       style="stroke-width:1.25488" />
    <path
       stroke="#323232"
       stroke-width="5.01952"
       stroke-linejoin="round"
       stroke-linecap="butt"
       d="m 755.38498,769.98369 23.51528,23.51528 1.77463,22.18075 -38.5975,46.58579 -16.85915,4.43657 6.65376,4.87913 13.75236,-3.10442 42.14913,-49.24773 -3.10679,-30.61159 -28.39441,-28.3944 z"
       fill-rule="evenodd"
       id="path19" />
    <path
       fill="#323232"
       d="m 597.5453,1017.9762 17.94652,13.5977 11.02094,4.0658 55.79978,92.3231 35.97024,-31.8612 -11.95795,-5.8691 -56.28407,-84.9835 2.40711,-10.63689 -22.87956,-23.74835 z"
       fill-rule="evenodd"
       id="path20"
       style="stroke-width:1.25488" />
    <path
       stroke="#323232"
       stroke-width="55.8668"
       stroke-miterlimit="8"
       stroke-linecap="round"
       d="m 597.5453,1017.9762 17.94652,13.5977 11.02094,4.0658 55.79978,92.3231 35.97024,-31.8612 -11.95795,-5.8691 -56.28407,-84.9835 2.40711,-10.63689 -22.87956,-23.74835 z"
       fill-rule="evenodd"
       id="path21" />
    <path
       fill="#ffffff"
       d="m 597.5453,1017.9762 17.94652,13.5977 11.02094,4.0658 55.79978,92.3231 35.97024,-31.8612 -11.95795,-5.8691 -56.28407,-84.9835 2.40711,-10.63689 -22.87956,-23.74835 z"
       fill-rule="evenodd"
       id="path22"
       style="stroke-width:1.25488" />
    <path
       stroke="#ffffff"
       stroke-width="5.01952"
       stroke-linejoin="round"
       stroke-linecap="butt"
       d="m 597.5453,1017.9762 17.94652,13.5977 11.02094,4.0658 55.79978,92.3231 35.97024,-31.8612 -11.95795,-5.8691 -56.28407,-84.9835 2.40711,-10.63689 -22.87956,-23.74835 z"
       fill-rule="evenodd"
       id="path23" />
    <path
       fill="#323232"
       d="M 507.66984,995.41542 663.83906,839.2462 700.21938,875.6266 556.47273,1037.1198 Z"
       fill-rule="evenodd"
       id="path24"
       style="stroke-width:1.25488" />
    <path
       stroke="#323232"
       stroke-width="55.8668"
       stroke-miterlimit="8"
       stroke-linecap="round"
       d="M 507.66984,995.41542 663.83906,839.2462 700.21938,875.6266 556.47273,1037.1198 Z"
       fill-rule="evenodd"
       id="path25" />
    <path
       fill="#ffffff"
       d="M 507.66984,995.41542 663.83906,839.2462 700.21938,875.6266 556.47273,1037.1198 Z"
       fill-rule="evenodd"
       id="path26"
       style="stroke-width:1.25488" />
    <path
       stroke="#ffffff"
       stroke-width="5.01952"
       stroke-linejoin="round"
       stroke-linecap="butt"
       d="M 507.66984,995.41542 663.83906,839.2462 700.21938,875.6266 556.47273,1037.1198 Z"
       fill-rule="evenodd"
       id="path27" />
    <path
       fill="#323232"
       fill-opacity="0.6045"
       d="m 494.39373,993.70729 67.43671,58.56341 20.85329,-22.628 -66.54938,-57.67614 z"
       fill-rule="evenodd"
       id="path28"
       style="stroke-width:1.25488" />
    <path
       fill="#323232"
       d="m 72.61614,1231.1051 -2.962628,-29.7356 47.538708,-47.5387 29.73566,2.9626 z"
       fill-rule="evenodd"
       id="path29"
       style="stroke-width:1.25488" />
    <path
       fill="#323232"
       d="m 320.3197,1014.3634 -167.36716,158.9995 -2.11807,8.0535 -49.50062,49.5006 60.54596,65.4586 138.68874,96.1423 16.77536,-26.5925 -112.5069,-128.8717 3.2697,-40.9114 139.92093,-139.0996 z"
       fill-rule="evenodd"
       id="path30"
       style="stroke-width:1.25488" />
    <path
       stroke="#323232"
       stroke-width="55.8668"
       stroke-miterlimit="8"
       stroke-linecap="round"
       d="m 320.3197,1014.3634 -167.36716,158.9995 -2.11807,8.0535 -49.50062,49.5006 60.54596,65.4586 138.68874,96.1423 16.77536,-26.5925 -112.5069,-128.8717 3.2697,-40.9114 139.92093,-139.0996 z"
       fill-rule="evenodd"
       id="path31" />
    <path
       fill="#ffffff"
       d="m 320.3197,1014.3634 -167.36716,158.9995 -2.11807,8.0535 -49.50062,49.5006 60.54596,65.4586 138.68874,96.1423 16.77536,-26.5925 -112.5069,-128.8717 3.2697,-40.9114 139.92093,-139.0996 z"
       fill-rule="evenodd"
       id="path32"
       style="stroke-width:1.25488" />
    <path
       stroke="#ffffff"
       stroke-width="5.01952"
       stroke-linejoin="round"
       stroke-linecap="butt"
       d="m 320.3197,1014.3634 -167.36716,158.9995 -2.11807,8.0535 -49.50062,49.5006 60.54596,65.4586 138.68874,96.1423 16.77536,-26.5925 -112.5069,-128.8717 3.2697,-40.9114 139.92093,-139.0996 z"
       fill-rule="evenodd"
       id="path33" />
    <path
       fill="#323232"
       d="m 71.438919,1221.2083 -27.623528,27.6235 17.578819,17.5789 h 5.85961 l 6.069208,6.0693 v 5.6499 l 7.429314,7.4293 h 7.219701 l 8.52857,8.5286 v 7.0614 l 7.769347,7.7693 h 6.51636 l 8.67064,8.6706 0.002,6.1647 9.4718,9.4719 166.84974,120.6948 31.39173,-53.1535 z"
       fill-rule="evenodd"
       id="path34"
       style="stroke-width:1.25488" />
    <path
       fill="#323232"
       d="m 225.58659,1188.8058 -1.30152,-13.0634 20.93645,-20.9365 13.06336,1.3016 z"
       fill-rule="evenodd"
       id="path35"
       style="stroke-width:1.25488" />
    <path
       fill="#323232"
       d="m 313.47255,1100.9198 -1.30152,-13.0633 20.93643,-20.9366 13.06337,1.3017 z"
       fill-rule="evenodd"
       id="path36"
       style="stroke-width:1.25488" />
    <path
       fill="#323232"
       d="m 394.69911,1005.0537 -22.42818,-34.2559 53.08882,-53.08882 23.27624,35.55084 z"
       fill-rule="evenodd"
       id="path37"
       style="stroke-width:1.25488" />
    <path
       stroke="#323232"
       stroke-width="55.8668"
       stroke-miterlimit="8"
       stroke-linecap="round"
       d="m 394.69911,1005.0537 -22.42818,-34.2559 53.08882,-53.08882 23.27624,35.55084 z"
       fill-rule="evenodd"
       id="path38" />
    <path
       fill="#ffffff"
       d="m 394.69911,1005.0537 -22.42818,-34.2559 53.08882,-53.08882 23.27624,35.55084 z"
       fill-rule="evenodd"
       id="path39"
       style="stroke-width:1.25488" />
    <path
       stroke="#ffffff"
       stroke-width="5.01952"
       stroke-linejoin="round"
       stroke-linecap="butt"
       d="m 394.69911,1005.0537 -22.42818,-34.2559 53.08882,-53.08882 23.27624,35.55084 z"
       fill-rule="evenodd"
       id="path40" />
    <path
       fill="#323232"
       d="m 461.5359,948.55974 -31.94605,-50.42856 49.6623,-49.66225 v 82.76575 z"
       fill-rule="evenodd"
       id="path41"
       style="stroke-width:1.25488" />
    <path
       stroke="#323232"
       stroke-width="55.8668"
       stroke-miterlimit="8"
       stroke-linecap="round"
       d="m 461.5359,948.55974 -31.94605,-50.42856 49.6623,-49.66225 v 82.76575 z"
       fill-rule="evenodd"
       id="path42" />
    <path
       fill="#ffffff"
       d="m 462.69746,949.91425 -33.10621,-51.784 49.66217,-49.66217 v 82.76835 z"
       fill-rule="evenodd"
       id="path43"
       style="stroke-width:1.25488" />
    <path
       stroke="#ffffff"
       stroke-width="5.01952"
       stroke-linejoin="round"
       stroke-linecap="butt"
       d="m 462.69746,949.91425 -33.10621,-51.784 49.66217,-49.66217 v 82.76835 z"
       fill-rule="evenodd"
       id="path44" />
    <path
       fill="#323232"
       d="m 424.66004,910.15021 61.73549,-61.73549 7.18247,7.18247 -61.73548,61.73541 z"
       fill-rule="evenodd"
       id="path45"
       style="stroke-width:1.25488" />
    <path
       fill="#323232"
       d="m 431.96773,931.94036 52.17749,-52.17752 7.18247,7.18239 -52.17752,52.1776 z"
       fill-rule="evenodd"
       id="path46"
       style="stroke-width:1.25488" />
    <path
       fill="#323232"
       d="m 445.47557,947.53023 45.05097,-45.05104 7.18243,7.18246 -45.05096,45.05089 z"
       fill-rule="evenodd"
       id="path47"
       style="stroke-width:1.25488" />
    <path
       fill="#323232"
       d="m 544.26033,917.81356 0.004,-132.05669 420.0657,-420.06567 15.45293,15.45293 L 764.833,596.09415 826.64477,657.90592 568.1428,916.40794 Z"
       fill-rule="evenodd"
       id="path48"
       style="stroke-width:1.25488" />
    <path
       stroke="#323232"
       stroke-width="55.8668"
       stroke-miterlimit="8"
       stroke-linecap="round"
       d="m 544.26033,917.81356 0.004,-132.05669 420.0657,-420.06567 15.45293,15.45293 L 764.833,596.09415 826.64477,657.90592 568.1428,916.40794 Z"
       fill-rule="evenodd"
       id="path49" />
    <path
       fill="#ffffff"
       d="m 544.26033,917.81356 0.004,-132.05669 420.0657,-420.06567 15.45293,15.45293 L 764.833,596.09415 826.64477,657.90592 568.1428,916.40794 Z"
       fill-rule="evenodd"
       id="path50"
       style="stroke-width:1.25488" />
    <path
       stroke="#ffffff"
       stroke-width="5.01952"
       stroke-linejoin="round"
       stroke-linecap="butt"
       d="m 544.26033,917.81356 0.004,-132.05669 420.0657,-420.06567 15.45293,15.45293 L 764.833,596.09415 826.64477,657.90592 568.1428,916.40794 Z"
       fill-rule="evenodd"
       id="path51" />
    <path
       fill="#323232"
       d="m 957.52485,637.38578 4.66719,-8.07675 85.93776,49.60642 -4.6671,8.07675 z"
       fill-rule="evenodd"
       id="path52"
       style="stroke-width:1.25488" />
    <path
       fill="#323232"
       d="m 990.11776,623.35911 45.49814,-78.81123 35.0459,20.23378 -45.4981,78.81124 z"
       fill-rule="evenodd"
       id="path53"
       style="stroke-width:1.25488" />
    <path
       fill="#323232"
       d="m 1164.6218,758.94683 79.7376,-138.10598 62.3617,36.00548 -79.7377,138.10598 z"
       fill-rule="evenodd"
       id="path54"
       style="stroke-width:1.25488" />
    <path
       fill="#323232"
       d="m 1093.3729,717.8064 79.7376,-138.1059 62.3615,36.0054 -79.7376,138.10598 z"
       fill-rule="evenodd"
       id="path55"
       style="stroke-width:1.25488" />
    <path
       fill="#323232"
       d="m 1022.1222,676.66874 79.7376,-138.1059 62.3616,36.0054 -79.7376,138.10598 z"
       fill-rule="evenodd"
       id="path56"
       style="stroke-width:1.25488" />
    <path
       fill="#323232"
       d="m 1039.5869,652.18036 -1.355,-5.05706 46.0969,-79.84001 5.0571,-1.35499 199.8741,115.40051 1.355,5.05704 -46.0969,79.8401 -5.057,1.3549 z"
       fill-rule="evenodd"
       id="path57"
       style="stroke-width:1.25488" />
    <path
       stroke="#323232"
       stroke-width="55.8668"
       stroke-miterlimit="8"
       stroke-linecap="round"
       d="m 1039.5869,652.18036 -1.355,-5.05706 46.0969,-79.84001 5.0571,-1.35499 199.8741,115.40051 1.355,5.05704 -46.0969,79.8401 -5.057,1.3549 z"
       fill-rule="evenodd"
       id="path58" />
    <path
       fill="#ffffff"
       d="m 1039.5869,652.18036 -1.355,-5.05706 46.0969,-79.84001 5.0571,-1.35499 199.8741,115.40051 1.355,5.05704 -46.0969,79.8401 -5.057,1.3549 z"
       fill-rule="evenodd"
       id="path59"
       style="stroke-width:1.25488" />
    <path
       stroke="#ffffff"
       stroke-width="5.01952"
       stroke-linejoin="round"
       stroke-linecap="butt"
       d="m 1039.5869,652.18036 -1.355,-5.05706 46.0969,-79.84001 5.0571,-1.35499 199.8741,115.40051 1.355,5.05704 -46.0969,79.8401 -5.057,1.3549 z"
       fill-rule="evenodd"
       id="path60" />
    <path
       fill="#323232"
       fill-opacity="0.6045"
       d="m 1029.5239,652.44314 2.1738,-3.76495 214.7401,123.98361 -2.1737,3.76502 z"
       fill-rule="evenodd"
       id="path61"
       style="stroke-width:1.25488" />
    <path
       fill="#323232"
       fill-opacity="0.6045"
       d="m 1082.4076,560.85182 2.1737,-3.76495 214.7402,123.98367 -2.1738,3.76496 z"
       fill-rule="evenodd"
       id="path62"
       style="stroke-width:1.25488" />
    <path
       fill="#323232"
       d="m 1052.9001,697.76669 v 0 c -5.4441,-3.14317 -7.3093,-10.1046 -4.1661,-15.54867 l 71.2402,-123.38833 c 1.5094,-2.6143 3.9956,-4.52197 6.9115,-5.30329 2.9161,-0.78123 6.0229,-0.37215 8.6372,1.13725 v 0 0 c 5.444,3.14324 7.3093,10.10459 4.1661,15.54866 l -71.2402,123.38832 c -3.1432,5.44415 -10.1046,7.30931 -15.5487,4.16606 z"
       fill-rule="evenodd"
       id="path63"
       style="stroke-width:1.25488" />
    <path
       fill="#323232"
       d="m 1193.3233,778.84613 v 0 c -5.4441,-3.14325 -7.3093,-10.10468 -4.1661,-15.54874 l 71.2402,-123.38833 c 1.5094,-2.61431 3.9956,-4.52198 6.9115,-5.30329 2.9161,-0.78123 6.0229,-0.37216 8.6373,1.13723 v 0 0 c 5.4439,3.14325 7.3092,10.10461 4.166,15.54867 L 1208.8719,774.68 c -3.1431,5.44414 -10.1045,7.3093 -15.5486,4.16613 z"
       fill-rule="evenodd"
       id="path64"
       style="stroke-width:1.25488" />
    <path
       fill="#323232"
       d="m 823.84907,686.86187 188.39243,-188.39236 33.3801,33.37998 -188.39246,188.39245 z"
       fill-rule="evenodd"
       id="path65"
       style="stroke-width:1.25488" />
    <path
       stroke="#323232"
       stroke-width="55.8668"
       stroke-miterlimit="8"
       stroke-linecap="round"
       d="m 823.84907,686.86187 188.39243,-188.39236 33.3801,33.37998 -188.39246,188.39245 z"
       fill-rule="evenodd"
       id="path66" />
    <path
       fill="#ffffff"
       d="m 823.84907,686.86187 188.39243,-188.39236 33.3801,33.37998 -188.39246,188.39245 z"
       fill-rule="evenodd"
       id="path67"
       style="stroke-width:1.25488" />
    <path
       stroke="#ffffff"
       stroke-width="5.01952"
       stroke-linejoin="round"
       stroke-linecap="butt"
       d="m 823.84907,686.86187 188.39243,-188.39236 33.3801,33.37998 -188.39246,188.39245 z"
       fill-rule="evenodd"
       id="path68" />
    <path
       fill="#323232"
       d="m 697.97601,823.37108 6.88981,0.72425 7.83863,4.14071 10.14128,5.45899 7.06184,2.37275 11.6051,0.0122 9.61051,-2.72063 -9.70011,-0.82083 -8.34322,-2.17766 -14.64741,-7.49074 -7.33604,-5.3674 -2.97735,-7.90573 -6.85282,7.93912 z"
       fill-rule="evenodd"
       id="path69"
       style="stroke-width:1.25488" />
    <path
       stroke="#323232"
       stroke-width="2.69091"
       stroke-linejoin="round"
       stroke-linecap="butt"
       d="m 697.97601,823.37108 6.88981,0.72425 7.83863,4.14071 10.14128,5.45899 7.06184,2.37275 11.6051,0.0122 9.61051,-2.72063 -9.70011,-0.82083 -8.34322,-2.17766 -14.64741,-7.49074 -7.33604,-5.3674 -2.97735,-7.90573 -6.85282,7.93912 z"
       fill-rule="evenodd"
       id="path70" />
    <path
       fill="#323232"
       d="m 550.90654,1026.3926 v 0 c -1.98333,-1.9834 -1.98333,-5.199 0,-7.1824 v 0 c 0.95247,-0.9524 2.24426,-1.4874 3.59124,-1.4874 1.34699,0 2.63878,0.535 3.59124,1.4874 v 0 c 1.98338,1.9834 1.98338,5.199 0,7.1824 v 0 c -1.98339,1.9835 -5.19909,1.9835 -7.18248,0 z"
       fill-rule="evenodd"
       id="path71"
       style="stroke-width:1.25488" />
    <path
       fill="#000000"
       fill-opacity="0"
       d="m 831.24081,609.98335 45.05096,-45.05096 54.52507,54.52506 -45.05096,45.05097 z"
       fill-rule="evenodd"
       id="path72"
       style="stroke-width:1.25488" />
    <path
       stroke="#323232"
       stroke-width="15.0585"
       stroke-linejoin="round"
       stroke-linecap="butt"
       d="m 831.24081,609.98335 45.05096,-45.05096 54.52507,54.52506 -45.05096,45.05097 z"
       fill-rule="evenodd"
       id="path73" />
    <path
       fill="#000000"
       fill-opacity="0"
       d="m 921.34271,519.88139 -22.52549,22.52547 31.99958,31.99958 -22.52548,22.52549 22.52548,22.52548 45.05097,-45.05097 z"
       fill-rule="evenodd"
       id="path74"
       style="stroke-width:1.25488" />
    <path
       stroke="#323232"
       stroke-width="15.0585"
       stroke-linejoin="round"
       stroke-linecap="butt"
       d="m 921.34271,519.88139 -22.52549,22.52547 31.99958,31.99958 -22.52548,22.52549 22.52548,22.52548 45.05097,-45.05097 z"
       fill-rule="evenodd"
       id="path75" />
    <path
       fill="#000000"
       fill-opacity="0"
       d="m 961.27237,479.95175 -22.52549,22.52548 31.99958,31.99958 -22.52548,22.52549 22.52548,22.52547 45.05094,-45.05096 z"
       fill-rule="evenodd"
       id="path76"
       style="stroke-width:1.25488" />
    <path
       stroke="#323232"
       stroke-width="15.0585"
       stroke-linejoin="round"
       stroke-linecap="butt"
       d="m 961.27237,479.95175 -22.52549,22.52548 31.99958,31.99958 -22.52548,22.52549 22.52548,22.52547 45.05094,-45.05096 z"
       fill-rule="evenodd"
       id="path77" />
    <path
       fill="#323232"
       d="m 823.28513,728.66596 v 0 c -1.92161,-1.92161 -1.92161,-5.03721 0,-6.95882 l 29.4005,-29.40051 c 0.92287,-0.92286 2.17445,-1.44124 3.47942,-1.44124 1.30505,0 2.55663,0.51838 3.47949,1.44124 v 0 0 c 1.92161,1.92161 1.92161,5.03721 0,6.95881 l -29.40052,29.40052 c -1.92169,1.92169 -5.03721,1.92169 -6.95889,0 z"
       fill-rule="evenodd"
       id="path78"
       style="stroke-width:1.25488" />
    <path
       fill="#323232"
       d="m 1025.034,527.38292 v 0 c -1.9216,-1.9216 -1.9216,-5.0372 0,-6.95889 l 22.218,-22.21805 c 0.923,-0.92277 2.1745,-1.44122 3.4795,-1.44122 1.305,0 2.5566,0.51845 3.4794,1.44122 v 0 0 c 1.9217,1.92169 1.9217,5.03722 0,6.95891 l -22.218,22.21803 c -1.9217,1.92162 -5.0373,1.92162 -6.9589,0 z"
       fill-rule="evenodd"
       id="path79"
       style="stroke-width:1.25488" />
    <path
       fill="#323232"
       d="m 955.8984,374.12137 12.19195,-12.19195 h 18.76667 l 36.38358,36.38361 -21.5753,21.57528 z"
       fill-rule="evenodd"
       id="path80"
       style="stroke-width:1.25488" />
    <path
       stroke="#323232"
       stroke-width="55.8668"
       stroke-miterlimit="8"
       stroke-linecap="round"
       d="m 955.8984,374.12137 12.19195,-12.19195 h 18.76667 l 36.38358,36.38361 -21.5753,21.57528 z"
       fill-rule="evenodd"
       id="path81" />
    <path
       fill="#ffffff"
       d="m 955.8984,374.12137 10.78764,-10.78765 h 21.57528 l 34.97928,34.97931 -21.5753,21.57528 z"
       fill-rule="evenodd"
       id="path82"
       style="stroke-width:1.25488" />
    <path
       stroke="#ffffff"
       stroke-width="5.01952"
       stroke-linejoin="round"
       stroke-linecap="butt"
       d="m 955.8984,374.12137 10.78764,-10.78765 h 21.57528 l 34.97928,34.97931 -21.5753,21.57528 z"
       fill-rule="evenodd"
       id="path83" />
    <path
       fill="#323232"
       d="m 993.59573,406.59255 v 0 c -4.5147,-4.5147 -4.5147,-11.83443 0,-16.34912 v 0 c 2.16801,-2.16808 5.10852,-3.38604 8.17457,-3.38604 3.066,0 6.0065,1.21796 8.1745,3.38604 v 0 c 4.5148,4.51469 4.5148,11.83442 0,16.34912 v 0 c -4.5146,4.5147 -11.83438,4.5147 -16.34907,0 z"
       fill-rule="evenodd"
       id="path84"
       style="stroke-width:1.25488" />
    <path
       fill="#323232"
       d="m 1102.1068,288.25236 v 0 c 1.366,-2.35383 4.3841,-3.15919 6.7412,-1.79876 l 36.0123,20.785 c 1.1319,0.65334 1.9568,1.72884 2.2934,2.99007 0.3365,1.26124 0.157,2.60481 -0.4989,3.73515 v 0 0 c -1.366,2.35383 -4.3841,3.15911 -6.7412,1.79868 l -36.0123,-20.785 c -2.3571,-1.36035 -3.1604,-4.37133 -1.7945,-6.72514 z"
       fill-rule="evenodd"
       id="path85"
       style="stroke-width:1.25488" />
    <path
       fill="#323232"
       d="m 1091.3867,298.97316 v 0 c 1.366,-2.35381 4.3839,-3.15895 6.7409,-1.79844 l 17.5115,10.10866 v 0 c 1.1319,0.65332 1.9569,1.72897 2.2935,2.9902 0.3363,1.26133 0.1569,2.6049 -0.499,3.73524 v 0 0 c -1.3661,2.35381 -4.3842,3.15902 -6.741,1.79845 l -17.5116,-10.10858 c -2.3569,-1.36058 -3.1603,-4.37171 -1.7943,-6.72553 z"
       fill-rule="evenodd"
       id="path86"
       style="stroke-width:1.25488" />
    <path
       fill="#323232"
       d="m 1125.005,265.35425 v 0 c 1.3659,-2.35382 4.3841,-3.15915 6.7411,-1.79873 l 36.0123,20.78501 c 1.1319,0.65334 1.9569,1.72883 2.2934,2.99007 0.3366,1.26123 0.157,2.60481 -0.4989,3.73516 v 0 0 c -1.366,2.35381 -4.3841,3.1591 -6.7412,1.79867 l -36.0123,-20.78501 c -2.357,-1.36039 -3.1604,-4.37136 -1.7944,-6.72517 z"
       fill-rule="evenodd"
       id="path87"
       style="stroke-width:1.25488" />
    <path
       fill="#323232"
       d="m 1147.5864,242.77289 v 0 c 1.3659,-2.35382 4.3841,-3.15915 6.7411,-1.79876 l 36.0123,20.78505 c 1.1319,0.6533 1.9569,1.72883 2.2934,2.99003 0.3365,1.26123 0.1571,2.60481 -0.4989,3.73515 v 0 0 c -1.366,2.35382 -4.3841,3.15911 -6.7412,1.79872 l -36.0123,-20.78501 c -2.357,-1.36043 -3.1604,-4.37136 -1.7944,-6.72518 z"
       fill-rule="evenodd"
       id="path88"
       style="stroke-width:1.25488" />
    <path
       fill="#323232"
       d="m 1158.898,231.46124 v 0 c 1.366,-2.35381 4.3841,-3.15914 6.7412,-1.79876 l 36.0123,20.78502 c 1.1318,0.65329 1.9568,1.72886 2.2934,2.99006 0.3365,1.26124 0.157,2.60481 -0.4989,3.73516 v 0 0 c -1.3661,2.35377 -4.3841,3.1591 -6.7412,1.79871 l -36.0123,-20.78501 c -2.3571,-1.36043 -3.1605,-4.3714 -1.7945,-6.72518 z"
       fill-rule="evenodd"
       id="path89"
       style="stroke-width:1.25488" />
    <path
       fill="#323232"
       d="m 1170.1689,220.19267 v 0 c 1.366,-2.35381 4.3841,-3.15914 6.7412,-1.79875 l 36.0123,20.78501 c 1.1318,0.65329 1.9568,1.72887 2.2933,2.99007 0.3365,1.26123 0.1571,2.60481 -0.4989,3.73515 v 0 0 c -1.366,2.35377 -4.3841,3.1591 -6.7411,1.79872 l -36.0123,-20.78502 c -2.357,-1.36042 -3.1605,-4.3714 -1.7945,-6.72518 z"
       fill-rule="evenodd"
       id="path90"
       style="stroke-width:1.25488" />
    <path
       fill="#323232"
       d="m 1181.7553,208.60619 v 0 c 1.3661,-2.35382 4.3841,-3.1591 6.7411,-1.79873 l 36.0123,20.78502 c 1.132,0.65329 1.9569,1.72886 2.2934,2.99006 0.3366,1.26125 0.1571,2.60478 -0.4988,3.73512 v 0 0 c -1.366,2.35382 -4.3841,3.15914 -6.7412,1.79875 l -36.0123,-20.78505 c -2.357,-1.36038 -3.1604,-4.37136 -1.7945,-6.72517 z"
       fill-rule="evenodd"
       id="path91"
       style="stroke-width:1.25488" />
    <path
       fill="#323232"
       d="m 1193.067,197.29455 v 0 c 1.3659,-2.35382 4.3841,-3.15914 6.7411,-1.79871 l 36.0123,20.78501 c 1.1319,0.65328 1.9569,1.72887 2.2934,2.99006 0.3366,1.2612 0.1571,2.60477 -0.4989,3.73511 v 0 0 c -1.3659,2.35382 -4.3841,3.15914 -6.7412,1.79876 l -36.0123,-20.78505 c -2.357,-1.36038 -3.1604,-4.37136 -1.7944,-6.72518 z"
       fill-rule="evenodd"
       id="path92"
       style="stroke-width:1.25488" />
    <path
       fill="#323232"
       d="m 1204.0619,186.29964 v 0 c 1.3661,-2.35382 4.3841,-3.15915 6.7411,-1.79872 l 36.0123,20.78501 c 1.1319,0.6533 1.9569,1.72883 2.2934,2.99007 0.3366,1.26119 0.1571,2.60477 -0.4989,3.73511 v 0 0 c -1.3659,2.35381 -4.384,3.15915 -6.7412,1.79872 l -36.0123,-20.78501 c -2.3569,-1.36043 -3.1603,-4.37136 -1.7944,-6.72518 z"
       fill-rule="evenodd"
       id="path93"
       style="stroke-width:1.25488" />
    <path
       fill="#323232"
       d="m 1215.6484,174.71317 v 0 c 1.366,-2.35381 4.3841,-3.15914 6.7411,-1.79875 l 36.0123,20.78505 c 1.1319,0.65328 1.9569,1.72883 2.2934,2.99003 0.3365,1.26123 0.1571,2.6048 -0.4989,3.73515 v 0 0 c -1.366,2.35381 -4.3841,3.1591 -6.7412,1.79872 l -36.0123,-20.78502 c -2.3569,-1.36042 -3.1604,-4.37136 -1.7944,-6.72518 z"
       fill-rule="evenodd"
       id="path94"
       style="stroke-width:1.25488" />
    <path
       fill="#323232"
       d="m 1226.96,163.40152 v 0 c 1.366,-2.35383 4.3841,-3.15915 6.7412,-1.79876 l 36.0123,20.78501 c 1.1319,0.65329 1.9568,1.72887 2.2934,2.99006 0.3365,1.26124 0.157,2.60481 -0.499,3.73515 v 0 0 c -1.3659,2.35378 -4.384,3.15911 -6.7411,1.79873 l -36.0123,-20.78501 c -2.3571,-1.36043 -3.1604,-4.3714 -1.7945,-6.72518 z"
       fill-rule="evenodd"
       id="path95"
       style="stroke-width:1.25488" />
    <path
       fill="#323232"
       d="m 1135.9998,254.35934 v 0 c 1.366,-2.35381 4.3841,-3.15914 6.7412,-1.79872 l 36.0123,20.78502 c 1.1319,0.65325 1.9568,1.72882 2.2934,2.99005 0.3365,1.26125 0.1571,2.60475 -0.499,3.73509 v 0 0 c -1.3659,2.35381 -4.384,3.15917 -6.7411,1.79875 l -36.0123,-20.78501 c -2.3571,-1.36039 -3.1604,-4.37136 -1.7945,-6.72518 z"
       fill-rule="evenodd"
       id="path96"
       style="stroke-width:1.25488" />
    <path
       fill="#323232"
       d="m 1113.6933,276.66592 v 0 c 1.3659,-2.35381 4.384,-3.1591 6.7411,-1.79867 l 36.0124,20.78501 c 1.1319,0.65325 1.9568,1.72883 2.2933,2.99006 0.3365,1.26116 0.1571,2.60474 -0.4989,3.73508 v 0 0 c -1.3659,2.35381 -4.3841,3.15917 -6.7411,1.79876 l -36.0123,-20.78502 c -2.3572,-1.36042 -3.1605,-4.3714 -1.7945,-6.72522 z"
       fill-rule="evenodd"
       id="path97"
       style="stroke-width:1.25488" />
    <path
       fill="#ffffff"
       d="m 1139.2848,226.1092 100.3026,-100.3027 20.5971,20.59713 -100.3026,100.3027 z"
       fill-rule="evenodd"
       id="path98"
       style="stroke-width:1.25488" />
    <path
       stroke="#323232"
       stroke-width="10.039"
       stroke-linejoin="round"
       stroke-linecap="butt"
       d="m 1139.2848,226.1092 100.3026,-100.3027 20.5971,20.59713 -100.3026,100.3027 z"
       fill-rule="evenodd"
       id="path99" />
    <path
       fill="#323232"
       d="m 1158.2946,227.69637 v 0 c -1.9371,-1.93709 -1.9371,-5.07769 0,-7.01477 v 0 c 0.9302,-0.93021 2.192,-1.45279 3.5074,-1.45279 1.3156,0 2.5771,0.52258 3.5074,1.45279 v 0 c 1.9371,1.93708 1.9371,5.07768 0,7.01477 v 0 c -1.9371,1.93708 -5.0776,1.93708 -7.0148,0 z"
       fill-rule="evenodd"
       id="path100"
       style="stroke-width:1.25488" />
    <path
       fill="#323232"
       d="m 1234.1598,151.83124 v 0 c -1.9371,-1.93708 -1.9371,-5.0777 0,-7.01478 v 0 c 0.9302,-0.9302 2.1918,-1.45279 3.5073,-1.45279 1.3155,0 2.5773,0.52259 3.5075,1.45279 v 0 c 1.937,1.93708 1.937,5.0777 0,7.01478 v 0 c -1.9371,1.93704 -5.0778,1.93704 -7.0148,0 z"
       fill-rule="evenodd"
       id="path101"
       style="stroke-width:1.25488" />
    <path
       fill="#323232"
       d="m 1118.3064,185.55573 52.1781,-52.17802 -15.4237,-2.71491 -29.0467,8.16468 -14.2902,12.48009 10.8889,10.88879 -5.6685,5.66844 -7.7166,7.71666 z"
       fill-rule="evenodd"
       id="path102"
       style="stroke-width:1.25488" />
    <path
       fill="#323232"
       d="m 572.69148,848.41526 84.7384,-84.73837 18.18902,18.18902 -94.499,94.49899 z"
       fill-rule="evenodd"
       id="path103"
       style="stroke-width:1.25488" />
    <path
       fill="#000000"
       fill-opacity="0"
       d="M 534.16153,828.63329 953.42616,409.36862"
       fill-rule="evenodd"
       id="path104"
       style="stroke-width:1.25488" />
    <path
       stroke="#323232"
       stroke-width="10.039"
       stroke-linejoin="round"
       stroke-linecap="butt"
       d="M 534.16153,828.63329 953.42616,409.36862"
       fill-rule="evenodd"
       id="path105" />
    <path
       fill="#323232"
       d="m 637.35762,651.47916 475.15408,-475.154 4.6118,4.61176 -475.15405,475.15398 z"
       fill-rule="evenodd"
       id="path106"
       style="stroke-width:1.25488" />
    <path
       fill="#323232"
       d="m 917.13191,367.13696 14.67452,-14.67452 4.61136,4.61144 -14.67452,14.67444 z"
       fill-rule="evenodd"
       id="path107"
       style="stroke-width:1.25488" />
    <path
       fill="#323232"
       d="m 941.3802,342.88874 14.67452,-14.67452 4.61136,4.61136 -14.67445,14.67452 z"
       fill-rule="evenodd"
       id="path108"
       style="stroke-width:1.25488" />
    <path
       fill="#323232"
       d="m 965.62853,318.64039 14.67445,-14.67452 4.61144,4.61143 -14.67453,14.67445 z"
       fill-rule="evenodd"
       id="path109"
       style="stroke-width:1.25488" />
    <path
       fill="#323232"
       d="m 989.87677,294.3921 14.67453,-14.67452 4.6113,4.61136 -14.6744,14.67453 z"
       fill-rule="evenodd"
       id="path110"
       style="stroke-width:1.25488" />
    <path
       fill="#323232"
       d="m 1014.1251,270.14379 14.6745,-14.67448 4.6114,4.61136 -14.6745,14.67449 z"
       fill-rule="evenodd"
       id="path111"
       style="stroke-width:1.25488" />
    <path
       fill="#323232"
       d="m 1038.3734,245.8955 14.6745,-14.67449 4.6114,4.61136 -14.6745,14.67453 z"
       fill-rule="evenodd"
       id="path112"
       style="stroke-width:1.25488" />
    <path
       fill="#323232"
       d="m 1062.6218,221.6472 14.6744,-14.67449 4.6115,4.6114 -14.6746,14.67449 z"
       fill-rule="evenodd"
       id="path113"
       style="stroke-width:1.25488" />
    <path
       fill="#323232"
       d="m 1086.8699,197.3989 14.6746,-14.67448 4.6113,4.61139 -14.6745,14.67449 z"
       fill-rule="evenodd"
       id="path114"
       style="stroke-width:1.25488" />
    <path
       fill="#323232"
       d="m 723.5571,560.71177 14.67445,-14.67452 4.61143,4.61144 -14.67452,14.67452 z"
       fill-rule="evenodd"
       id="path115"
       style="stroke-width:1.25488" />
    <path
       fill="#323232"
       d="m 747.80539,536.46354 14.67452,-14.67453 4.61136,4.61136 -14.67452,14.67453 z"
       fill-rule="evenodd"
       id="path116"
       style="stroke-width:1.25488" />
    <path
       fill="#323232"
       d="m 772.05367,512.2152 14.67452,-14.67445 4.61144,4.61136 -14.67452,14.67453 z"
       fill-rule="evenodd"
       id="path117"
       style="stroke-width:1.25488" />
    <path
       fill="#323232"
       d="m 796.30196,487.96692 14.67452,-14.67453 4.61136,4.61136 -14.67452,14.67453 z"
       fill-rule="evenodd"
       id="path118"
       style="stroke-width:1.25488" />
    <path
       fill="#323232"
       d="m 820.55024,463.71863 14.67453,-14.67445 4.61143,4.61136 -14.67452,14.67453 z"
       fill-rule="evenodd"
       id="path119"
       style="stroke-width:1.25488" />
    <path
       fill="#323232"
       d="m 844.79859,439.47034 14.67452,-14.67452 4.61136,4.61136 -14.67452,14.67453 z"
       fill-rule="evenodd"
       id="path120"
       style="stroke-width:1.25488" />
    <path
       fill="#323232"
       d="m 869.04685,415.222 14.67452,-14.67445 4.61137,4.61136 -14.67445,14.67452 z"
       fill-rule="evenodd"
       id="path121"
       style="stroke-width:1.25488" />
    <path
       fill="#323232"
       d="m 893.29522,390.97374 14.67453,-14.67453 4.61136,4.61144 -14.67453,14.67445 z"
       fill-rule="evenodd"
       id="path122"
       style="stroke-width:1.25488" />
    <path
       fill="#323232"
       d="m 650.24135,634.02747 14.67451,-14.67452 4.61144,4.61144 -14.67451,14.67452 z"
       fill-rule="evenodd"
       id="path123"
       style="stroke-width:1.25488" />
    <path
       fill="#323232"
       d="m 674.48969,609.77924 14.67451,-14.67453 4.61136,4.61136 -14.67452,14.67453 z"
       fill-rule="evenodd"
       id="path124"
       style="stroke-width:1.25488" />
    <path
       fill="#323232"
       d="m 698.73797,585.5309 14.67452,-14.67445 4.61143,4.61136 -14.67451,14.67453 z"
       fill-rule="evenodd"
       id="path125"
       style="stroke-width:1.25488" />
    <path
       fill="#323232"
       fill-opacity="0.6045"
       d="m 700.98847,716.82053 -42.64568,7.39952 125.11286,-125.11286 17.62308,17.62307 z"
       fill-rule="evenodd"
       id="path126"
       style="stroke-width:1.25488" />
    <path
       fill="#323232"
       d="m 1290.8797,81.388872 29.177,-29.176903 31.4686,31.468605 -29.177,29.176896 z"
       fill-rule="evenodd"
       id="path127"
       style="stroke-width:1.25488" />
    <path
       fill="#323232"
       d="m 548.92908,719.17543 37.15589,-37.15589 v 0 c 20.52062,-20.52061 42.59253,-31.71925 49.29894,-25.0128 6.70645,6.70645 -4.49215,28.77836 -25.0128,49.29898 l -37.15585,37.15589 z"
       fill-rule="evenodd"
       id="path129"
       style="stroke-width:1.25488" />
    <path
       fill="#323232"
       d="m 877.67959,426.19272 -33.12073,-19.87243 -65.73058,65.73066 19.87241,33.12066 z"
       fill-rule="evenodd"
       id="path130"
       style="stroke-width:1.25488" />
    <path
       fill="#323232"
       d="m 863.39538,399.57905 -16.34921,16.34911 20.449,20.44893 16.34913,-16.34912 z"
       fill-rule="evenodd"
       id="path131"
       style="stroke-width:1.25488" />
    <path
       fill="#323232"
       d="m 781.1543,401.52838 -27.92833,27.92835 c 3.08488,-3.08489 13.38586,2.21449 23.00785,11.83656 9.622,9.622 14.92138,19.92297 11.83649,23.00787 l 27.92842,-27.92835 v 0 c 3.08488,-3.08489 -2.2145,-13.38586 -11.83656,-23.00793 -9.62199,-9.622 -19.92298,-14.92138 -23.00787,-11.8365 z"
       fill-rule="evenodd"
       id="path132"
       style="stroke-width:1.25488" />
    <path
       fill="#323232"
       d="m 837.14515,417.15482 -44.12169,-27.36723 -16.75437,16.75437 27.36731,44.12168 z"
       fill-rule="evenodd"
       id="path133"
       style="stroke-width:1.25488" />
  </g>
</svg>
