<svg height="128" width="128" xmlns="http://www.w3.org/2000/svg">
  <g fill="#fff">
    <path d="m 127.33789,61.455074 h -6.54492 A 56.849998,56.849998 0 0 0 66.54492,7.207026 v -6.54492 h -5.08984 v 6.54492 A 56.849998,56.849998 0 0 0 7.20703,61.455074 H 0.66211 v 5.08984 h 6.54492 a 56.849998,56.849998 0 0 0 54.24805,54.248046 v 6.54493 h 5.08984 v -6.54493 a 56.849998,56.849998 0 0 0 54.24805,-54.248046 h 6.54492 z m -11.65039,0 h -5.61523 v 5.08984 h 5.61523 A 51.75,51.75 0 0 1 66.54492,115.68749 v -5.61523 h -5.08984 v 5.61523 A 51.75,51.75 0 0 1 12.3125,66.544914 h 5.61523 v -5.08984 H 12.3125 A 51.75,51.75 0 0 1 61.45508,12.312496 v 5.61523 h 5.08984 v -5.61523 a 51.75,51.75 0 0 1 49.14258,49.142578 z"/>
    <path d="m 77.25221,50.609631 q 0,4.001358 -1.79877,7.121693 -1.76207,3.12032 -4.77227,4.88239 3.56085,1.83549 5.57988,5.2862 2.01904,3.414 2.01904,7.78246 0,6.90143 -3.92794,11.04962 -3.89123,4.11149 -10.35214,4.11149 -6.46092,0 -10.38885,-4.11149 -3.89124,-4.14819 -3.89124,-11.04962 0,-4.40517 1.98233,-7.85588 2.01903,-3.48742 5.46975,-5.24949 -3.0102,-1.76207 -4.73556,-4.84568 -1.72535,-3.120335 -1.72535,-7.121693 0,-6.754588 3.63426,-10.719238 3.67097,-3.964649 9.65466,-3.964649 5.94697,0 9.58123,3.92794 3.67097,3.927939 3.67097,10.755947 z m -5.46974,24.925903 q 0,-4.58871 -2.16588,-7.34194 -2.16587,-2.78994 -5.69,-2.78994 -3.59756,0 -5.69001,2.78994 -2.05575,2.78994 -2.05575,7.34194 0,4.62542 2.01904,7.19511 2.05574,2.56968 5.80014,2.56968 3.74439,0 5.76342,-2.56968 2.01904,-2.56969 2.01904,-7.19511 z M 70.7913,50.71976 q 0,-4.074778 -1.9089,-6.644459 -1.90891,-2.56968 -4.8824,-2.56968 -3.12032,0 -4.95581,2.532971 -1.83548,2.53297 -1.83548,6.681168 0,4.184909 1.87219,6.644464 1.8722,2.45955 4.91911,2.45955 3.12032,0 4.95581,-2.49626 1.83548,-2.496265 1.83548,-6.607754 z"/>
  </g>
</svg>
