<?xml version="1.0" encoding="UTF-8" standalone="no"?>
<svg
   width="128"
   height="128"
   version="1.1"
   id="svg5"
   sodipodi:docname="loot-weapon-og-ak47.svg"
   xml:space="preserve"
   inkscape:version="1.4.2 (f4327f4, 2025-05-13)"
   xmlns:inkscape="http://www.inkscape.org/namespaces/inkscape"
   xmlns:sodipodi="http://sodipodi.sourceforge.net/DTD/sodipodi-0.dtd"
   xmlns="http://www.w3.org/2000/svg"
   xmlns:svg="http://www.w3.org/2000/svg"><defs
     id="defs5" /><sodipodi:namedview
     id="namedview5"
     pagecolor="#ffffff"
     bordercolor="#000000"
     borderopacity="0.25"
     inkscape:showpageshadow="2"
     inkscape:pageopacity="0.0"
     inkscape:pagecheckerboard="0"
     inkscape:deskcolor="#d1d1d1"
     inkscape:zoom="1.5761719"
     inkscape:cx="66.299876"
     inkscape:cy="111.34572"
     inkscape:window-width="1920"
     inkscape:window-height="1009"
     inkscape:window-x="-8"
     inkscape:window-y="-8"
     inkscape:window-maximized="1"
     inkscape:current-layer="svg5" /><g
     id="g5"
     transform="matrix(0.19645,0,0,0.2025799,15.116879,28.956856)"><path
       style="fill:#ffffff;fill-opacity:1"
       d="M 304.53531,124.35192 376.228,39.335811 338.79554,-1.268897 263.29616,80.574969 Z"
       id="path10" /><path
       style="fill:#ffffff;fill-opacity:1"
       d="m 387.33085,15.226766 92.6295,-91.677823 -36.4808,-35.846343 -9.83395,12.371753 14.59232,31.72242 -26.0124,27.59852 -41.8736,1.90334 -20.9368,25.695171 z"
       id="path11" /><path
       style="fill:#ffffff;fill-opacity:1"
       d="m 289.81039,82.546612 c 30.62279,17.698348 65.0567,24.656278 104.97775,16.150424 l 7.17797,49.348514 c -52.85491,12.53528 -99.09709,-3.36417 -143.55933,-26.91737 z"
       id="path9"
       sodipodi:nodetypes="ccccc"
       transform="translate(3.8066914,78.671623)" /><path
       id="path8"
       style="fill:#ffffff;fill-opacity:1"
       d="m 246.80083,102.781 -41.24023,32.99023 6.98047,8.24805 -88.18946,83.11328 -0.63476,28.55078 26.64844,27.28125 9.51562,-0.63476 20.9375,54.5625 30.45313,-4.44141 -13.32422,-58.36914 41.875,-49.48633 L 222.69146,199.85131 285.502,136.406 Z m -41.55664,112.93164 8.88281,9.19922 -20.62109,21.2539 -10.78516,-10.46875 z" /><path
       style="fill:#ffffff;fill-opacity:1"
       d="m 53.834747,382.2267 -59.2182217,-62.8072 87.9300867,-96.90255 14.355932,-3.58898 9.869706,-20.63665 27.81462,29.60911 z"
       id="path7"
       transform="translate(3.8066914,78.671623)" /><path
       style="fill:#333333;fill-opacity:1"
       d="m 51.870508,465.55145 c -3.22039,-1.74968 -57.4831928,-56.07183 -59.1493568,-59.21405 -1.733291,-3.26881 -1.977042,-9.90598 -0.505,-13.75082 1.132508,-2.958 80.7802268,-90.94122 84.5783168,-93.42982 1.35401,-0.88719 4.62504,-2.3755 7.26894,-3.30737 4.55171,-1.60429 5.32615,-2.46349 14.57702,-16.1724 5.373452,-7.96296 10.101782,-14.59171 10.507402,-14.73057 0.40562,-0.13886 9.10576,8.18614 19.33364,18.5 l 18.59616,18.75247 -35.68213,75.4846 c -37.222292,78.74277 -38.978852,81.96686 -47.483042,87.15288 -3.36983,2.05499 -8.9643,2.3872 -12.04195,0.71508 z m 9.17298,-16.10256 c 2.00498,-2.12578 14.39792,-27.29108 35.82657,-72.75 18.018682,-38.225 32.945722,-70.175 33.171192,-71 0.24489,-0.89605 -3.45158,-5.325 -9.18077,-11 -7.63258,-7.56039 -9.77442,-9.19375 -10.49047,-8 -0.49487,0.825 -3.30919,4.87358 -6.25405,8.99684 -5.759682,8.06446 -9.832632,11.411 -15.864752,13.03528 -3.30621,0.89027 -9.17628,6.91877 -43.84896,45.03236 -22.01746,24.20247 -40.0317398,44.54834 -40.0317398,45.21306 0,1.16187 51.8994998,53.72246 53.0467598,53.72246 0.3085,0 1.9403,-1.4625 3.62622,-3.25 z M 180.00777,347.23408 c -5.0815,-1.8115 -9.2444,-5.91359 -11.1177,-10.95527 -0.83376,-2.24396 -3.32614,-12.81324 -5.53861,-23.4873 -4.83586,-23.33055 -5.30595,-24.50074 -9.9879,-24.86256 -1.92118,-0.14847 -4.57518,-0.51202 -5.89779,-0.80789 -2.75009,-0.6152 -27.56486,-24.53756 -29.69027,-28.62251 -1.02167,-1.96361 -1.40499,-6.7369 -1.40499,-17.49564 v -14.7953 l 42.20884,-42.21761 42.20884,-42.2176 -2.41619,-2.57192 -2.4162,-2.57193 24.95234,-24.96732 24.95234,-24.967325 24.50073,24.500735 24.50073,24.50073 -30.74572,30.75771 c -16.91014,16.91675 -30.74571,31.22195 -30.74571,31.78936 0,0.5674 2.28635,3.26472 5.08077,5.99404 6.32093,6.17367 9.13961,11.49916 9.21202,17.40476 0.11268,9.19081 -1.28266,11.23603 -21.94016,32.1587 -10.64395,10.78058 -19.35289,20.23058 -19.35321,21 -3.1e-4,0.76942 1.87642,10.79339 4.17052,22.27548 3.96521,19.84604 4.36182,21.12943 8.03478,26 4.56228,6.04985 5.2696,8.24571 3.85479,11.96694 -1.33444,3.50985 -5.96814,5.59004 -22.61479,10.15238 -14.34974,3.93282 -14.46321,3.94451 -19.80746,2.03934 z M 195.727,332.26609 c 4.86334,-1.33804 9.05407,-2.64443 9.31274,-2.90309 0.25866,-0.25867 -0.50364,-2.37936 -1.69399,-4.71265 -1.29148,-2.5315 -3.93086,-13.32049 -6.54481,-26.75318 -3.89399,-20.01058 -4.25513,-23.02104 -3.25149,-27.10455 1.00267,-4.0796 3.29839,-6.78628 20.51198,-24.18392 25.00091,-25.26822 24.4199,-23.07106 9.96444,-37.68206 l -10.61356,-10.72775 31.22408,-31.25093 31.22407,-31.25092 -15.00308,-15.00308 -15.00307,-15.00308 -15.44704,15.47119 -15.44704,15.4712 2.4141,2.56969 2.4141,2.56969 -44.61285,44.71312 -44.61286,44.71312 -0.42905,10.68359 -0.42906,10.68358 10.59928,10.56642 c 10.31929,10.28729 10.71819,10.56641 15.10082,10.56641 6.20705,0 11.07398,3.47784 14.41058,10.29761 1.63352,3.3388 4.29312,13.33749 7.09831,26.68593 2.4673,11.74062 4.98456,21.94731 5.5939,22.68152 1.51882,1.83007 3.03514,1.70414 13.2195,-1.09786 z m -10.95145,-82.43911 c -3.24777,-2.12954 -7.61243,-5.65639 -9.69924,-7.83743 l -3.7942,-3.96552 18.22988,-17.79857 18.22988,-17.79858 7.2721,7.886 c 8.07572,8.75746 10.8136,13.37059 9.81072,16.53037 -0.3653,1.15096 -6.12943,7.66886 -12.80918,14.48422 -12.06115,12.30601 -12.17672,12.39149 -16.73996,12.38149 -3.64202,-0.008 -5.81961,-0.81306 -10.5,-3.88198 z m 17.49266,-17.5251 c 6.71592,-6.76105 8.12706,-9.60299 4.76826,-9.60299 -1.9377,0 -15.98946,14.66755 -15.22961,15.89701 1.32627,2.14595 3.1938,1.02236 10.46135,-6.29402 z m 140.1023,2.36736 c -30.39919,-4.163 -60.83835,-14.97301 -86.19708,-30.6116 l -9.69709,-5.98014 23.69709,-23.63408 23.69708,-23.63409 5,4.05404 c 16.44688,13.33524 36.48476,17.07827 79.8352,14.91303 13.65935,-0.68225 24.95071,-1.09129 25.09191,-0.90898 0.42747,0.55195 12.40445,61.31196 12.14007,61.58737 -0.13511,0.14075 -5.15549,1.20717 -11.15642,2.36982 -8.64723,1.67536 -15.57858,2.17831 -33.41076,2.42434 -12.375,0.17074 -25.425,-0.0901 -29,-0.57971 z m 50.8563,-13.98759 c 3.49597,-0.47412 6.48835,-1.00169 6.64974,-1.1724 0.16139,-0.1707 -1.34149,-8.54743 -3.33974,-18.61495 l -3.63317,-18.3046 -6.36908,0.68207 c -3.50299,0.37514 -15.43544,0.70479 -26.51656,0.73256 -28.05717,0.0703 -40.47098,-2.21798 -57.44524,-10.58911 l -8.29776,-4.09218 -12.9683,12.93793 c -14.98496,14.94985 -15.06753,12.86689 0.81561,20.57523 33.05701,16.04309 74.87159,22.75929 111.1045,17.84545 z m -92.4397,-88.73276 c -4.79332,-2.74829 -45.22168,-44.625215 -45.97352,-47.620765 -0.93727,-3.7344 0.17069,-7.36713 4.04322,-13.25672 2.78219,-4.23133 79.12677,-81.31401 81.33813,-82.12452 0.37815,-0.13859 11.21687,10.28450003 24.08605,23.16242 l 23.39852,23.41442 -19.96986,22.33758 c -43.40682,48.553355 -49.6058,56.053265 -52.65364,63.703665 -2.67048,6.70315 -7.15862,12.13392 -10.02783,12.13392 -0.65388,0 -2.56236,-0.7875 -4.24107,-1.75 z m 25.09715,-47.250005 c 10.35777,-11.825 24.15445,-27.40683 30.65928,-34.6263 6.50483,-7.21946 11.82697,-13.52549 11.82697,-14.0134 0,-0.4879 -6.30174,-7.17677 -14.00386,-14.86415 l -14.00386,-13.97706 -33.06154,32.99045 c -18.18385,18.14475 -34.4399,34.70318 -36.12456,36.7965 l -3.06301,3.80605 17.35775,17.46078 17.35776,17.460775 2.11138,-4.76682 c 1.31766,-2.97487 9.19085,-12.849135 20.94369,-26.266825 z m 42.98318,-77.00307 -18.98333,-19.00307 16.4932,-16.42018 16.4932,-16.42019 10.5,0.67887 c 12.03848,0.77835 19.61862,-0.0723 24.84678,-2.78828 2.00927,-1.0438 8.14526,-6.43121 13.63552,-11.97202 l 9.98231,-10.0742 -6.73231,-13.508381 c -3.85691,-7.738901 -6.7323,-14.80267 -6.7323,-16.538768 0,-4.881996 3.45485,-10.302976 10.51853,-16.504536 l 6.60118,-5.79551 11.70516,11.67467 c 6.43784,6.42106 12.12379,11.674665 12.63543,11.674665 0.51164,0 2.07989,-1.097282 3.48498,-2.438404 l 2.55472,-2.438401 15.27198,2.188401 15.27197,2.188404 -9.49389,9.452287 c -9.02531,8.985746 -9.41146,9.543384 -7.8236,11.297949 1.59256,1.759759 -0.70084,4.217142 -49.2744,52.797714 -28.01959,28.02363 -51.1758,50.95205 -51.45825,50.95205 -0.28245,0 -9.05605,-8.55138 -19.49688,-19.00307 z m 61.49811,-41.49197 41.486,-41.495038 -12.99052,-13.026485 c -7.14479,-7.164567 -13.66035,-12.899132 -14.47904,-12.743472 -3.05505,0.58084 -1.94525,4.137268 6.04203,19.362035 l 8.19614,15.62288 -14.37482,14.4613 c -19.7759,19.89486 -26.50608,23.0805 -46.70619,22.1078 l -10.01841,-0.48242 -9.30536,9.34422 -9.30537,9.34422 9.4605,9.5 c 5.20327,5.225 9.69642,9.5 9.98477,9.5 0.28835,0 19.19297,-18.67277 42.01027,-41.49504 z"
       id="path6" /></g></svg>
