<svg xmlns="http://www.w3.org/2000/svg" width="128" height="128" viewBox="0 0 33.867 33.867"><path d="M3.443 27.224c1.966 4.123 4.807 4.725 4.807 4.725l1.612-1.612v-4.194s-.017-.336.169-.522l1.438-1.438s-.586-.876-.099-1.363l.51-.51-1.576-1.577-5.509 5.51s-.228-.213-.347-.094c-.119.12-1.05.992-1.005 1.075zM10.998 20.043l1.911 1.91.238-.237s.176-.185.529-.193c.353-.008.68.148.68.148l3.518-3.518 1.245 1.245 2.403-2.792s.049-.058-.037-.127c-.086-.07-.226.168-.538-.144l-1.197-1.197s-.254-.28-.094-.44c.16-.16.307-.299.151-.454l-2.01-2.01-6.746 6.746.505.505zM14.992 22.318l1.317-1.316.545.545-.075.075s-.055.066-.006.151c.05.085.386.832.554.815.168-.017.409.014.29.186-.119.17-.203.15-.044.455.16.304.74 1.633.807 1.624.066-.009.142-.038.22.058.078.096.06.2-.792 1.064-.852.864-1.074 1.062-1.145 1.006-.055-.042-1.348-1.765-1.517-3.163-.058-.441.051-1.16-.154-1.5zM19.879 19.984l2.094-2.488s.881.754 2.059 1.397c1.177.644 1.717.812 1.717.812l-1.207 3.016s-1.804-.713-2.929-1.467c-1.125-.754-1.734-1.27-1.734-1.27zM18.503 11.558l2.117 2.117 7.849-7.85-2.116-2.115z" style="font-variation-settings:normal;opacity:1;vector-effect:none;fill:#fff;fill-opacity:1;stroke:#323232;stroke-width:.577378;stroke-linecap:butt;stroke-linejoin:miter;stroke-miterlimit:4;stroke-dasharray:none;stroke-dashoffset:0;stroke-opacity:1;-inkscape-stroke:none;paint-order:fill markers stroke;stop-color:#000;stop-opacity:1"/><path d="m25.271 1.808 2.178 2.177" style="font-variation-settings:normal;opacity:1;fill:none;fill-opacity:1;stroke:#323232;stroke-width:.36086;stroke-linecap:butt;stroke-linejoin:miter;stroke-miterlimit:4;stroke-dasharray:none;stroke-dashoffset:0;stroke-opacity:1;paint-order:fill markers stroke;stop-color:#000;stop-opacity:1"/><path d="m26.736 3.833 1.608 1.688.426-.426c.085-.084-.005-.22-.005-.22l-.319-.319.194-.202.07-.12.846-.846.066.066 1.047-1.046-.754-.754-1.053 1.052.064.064-.817.817-.119.069-.11.144c-.09.09-.152.07-.204.018-.053-.052.036-.137.036-.137l-.071-.072-.056.055-.084-.084.054-.053s-.132-.11-.234-.144c-.103-.032-.152.017-.152.017zm3.06-1.49c.16-.126.329-.212.38-.162.04.04-.217.397-.527.611-.265.183-.371.078-.042-.278z" style="font-variation-settings:normal;opacity:1;fill:#323232;fill-opacity:1;stroke:#323232;stroke-width:.0721723;stroke-linecap:butt;stroke-linejoin:miter;stroke-miterlimit:4;stroke-dasharray:none;stroke-dashoffset:0;stroke-opacity:1;paint-order:fill markers stroke;stop-color:#000;stop-opacity:1"/><path d="m28.227 3.295.804.803" style="font-variation-settings:normal;opacity:1;fill:none;fill-opacity:1;stroke:#323232;stroke-width:.36086;stroke-linecap:butt;stroke-linejoin:miter;stroke-miterlimit:4;stroke-dasharray:none;stroke-dashoffset:0;stroke-opacity:1;paint-order:fill markers stroke;stop-color:#000;stop-opacity:1"/><path d="m28.587 2.935.803.804" style="font-variation-settings:normal;fill:none;fill-opacity:1;stroke:#323232;stroke-width:.36086;stroke-linecap:butt;stroke-linejoin:miter;stroke-miterlimit:4;stroke-dasharray:none;stroke-dashoffset:0;stroke-opacity:1;paint-order:fill markers stroke;stop-color:#000"/><path d="m11.772 17.537 1.335-1.336s-.414-.224-.446-.192l-.076.075-.301-.748s-.815.298-.873.368c-.058.07-.061.13-.061.13l.125.125c-.527.464-.365.885-.177 1.1z" style="font-variation-settings:normal;opacity:1;fill:#323232;fill-opacity:1;stroke:#323232;stroke-width:.0721723;stroke-linecap:butt;stroke-linejoin:miter;stroke-miterlimit:4;stroke-dasharray:none;stroke-dashoffset:0;stroke-opacity:1;paint-order:fill markers stroke;stop-color:#000;stop-opacity:1"/><circle cx="-3.787" cy="20.141" r=".162" style="font-variation-settings:normal;opacity:1;vector-effect:none;fill:#7e7e7e;fill-opacity:1;fill-rule:evenodd;stroke:none;stroke-width:.144345;stroke-linecap:round;stroke-linejoin:round;stroke-miterlimit:4;stroke-dasharray:none;stroke-dashoffset:0;stroke-opacity:1;-inkscape-stroke:none;stop-color:#000;stop-opacity:1" transform="rotate(-45)"/><path d="m21.546 13.42-.332-.333M22.033 12.933l-.332-.333M20.468 12.56l-.725-.724M20.847 12.182l-.725-.725M21.226 11.803l-.725-.725M21.605 11.424l-.725-.725M21.984 11.045l-.725-.725M22.363 10.666l-.725-.725M22.741 10.287l-.725-.725M23.12 9.908l-.725-.725M23.5 9.53l-.726-.726M23.878 9.15l-.725-.725M24.257 8.771l-.725-.725M24.636 8.393l-.725-.725M25.015 8.014l-.725-.725M25.394 7.635l-.725-.725M25.773 7.256l-.725-.725M26.152 6.877l-.725-.725M26.53 6.498l-.724-.725M26.91 6.12l-.726-.726" style="font-variation-settings:normal;fill:none;fill-opacity:1;stroke:#323232;stroke-width:.36086;stroke-linecap:butt;stroke-linejoin:miter;stroke-miterlimit:4;stroke-dasharray:none;stroke-dashoffset:0;stroke-opacity:1;paint-order:fill markers stroke;stop-color:#000"/><path d="m26.436 5.143.725.725.618-.619-.725-.724Z" style="color:#000;fill:#323232;stroke-width:.136388;-inkscape-stroke:none;paint-order:fill markers stroke"/><path d="m22.52 12.446-.333-.333M23.493 11.472l-.332-.332M23.98 10.986l-.332-.333M24.467 10.499l-.333-.333M23.007 11.96l-.333-.333M24.954 10.012l-.333-.332M24.954 10.012l-.333-.332M25.44 9.525l-.332-.332M25.927 9.039l-.332-.333M26.414 8.552l-.333-.332M26.9 8.065l-.332-.332M27.387 7.578l-.332-.332M27.874 7.092l-.332-.333" style="font-variation-settings:normal;fill:none;fill-opacity:1;stroke:#323232;stroke-width:.36086;stroke-linecap:butt;stroke-linejoin:miter;stroke-miterlimit:4;stroke-dasharray:none;stroke-dashoffset:0;stroke-opacity:1;paint-order:fill markers stroke;stop-color:#000"/><path d="m28.233 6.733.508-.508.134-.4-.092-.085-.023.023-.66.837zM21.526 13.44l-.507.507-.401.134-.084-.092.022-.023.837-.66z" style="fill:#323232;fill-rule:evenodd;stroke-width:.36086;stroke-linecap:round;stroke-linejoin:round"/><path d="m24.954 10.012-.333-.332M19.732 9.658l.332.333M21.679 7.711l.332.333M22.166 7.224l.332.333M22.166 7.224l.332.333M22.652 6.738l.333.332M23.14 6.25l.332.333M23.626 5.764l.332.333M24.113 5.277l.332.333M19.245 10.145l.333.332M19.732 9.658l.332.333M20.219 9.171l.332.333M20.705 8.685l.333.332M21.192 8.198l.333.332M21.679 7.711l.332.333M24.6 4.79l.332.333M25.086 4.304l.333.332" style="font-variation-settings:normal;fill:none;fill-opacity:1;stroke:#323232;stroke-width:.36086;stroke-linecap:butt;stroke-linejoin:miter;stroke-miterlimit:4;stroke-dasharray:none;stroke-dashoffset:0;stroke-opacity:1;paint-order:fill markers stroke;stop-color:#000"/><path d="m25.445 3.945.508-.508.4-.134.084.092-.022.023-.837.66z" style="fill:#323232;fill-rule:evenodd;stroke-width:.36086;stroke-linecap:round;stroke-linejoin:round"/><path d="m18.272 11.118.332.333M18.758 10.632l.333.332M18.758 10.632l.333.332M17.391 11.999l.333.332M14.47 14.92l.333.332M14.957 14.433l.333.332M15.444 13.946l.333.332M15.93 13.46l.333.332M16.418 12.972l.332.333M16.904 12.486l.333.332M13.497 15.893l.333.332M13.984 15.406l.332.333" style="font-variation-settings:normal;fill:none;fill-opacity:1;stroke:#323232;stroke-width:.36086;stroke-linecap:butt;stroke-linejoin:miter;stroke-miterlimit:4;stroke-dasharray:none;stroke-dashoffset:0;stroke-opacity:1;paint-order:fill markers stroke;stop-color:#000"/><path d="m15.718 17.035.64.64s.127.127.415-.162l2.459-2.459s.182-.182 0-.365l-.584-.584z" style="font-variation-settings:normal;opacity:1;fill:#323232;fill-opacity:1;stroke:#fff;stroke-width:.216517;stroke-linecap:butt;stroke-linejoin:miter;stroke-miterlimit:4;stroke-dasharray:none;stroke-dashoffset:0;stroke-opacity:1;paint-order:fill markers stroke;stop-color:#000;stop-opacity:1"/><path d="m11.893 18.695-.88.88" style="font-variation-settings:normal;opacity:1;vector-effect:none;fill:none;fill-opacity:1;stroke:#323232;stroke-width:.577378;stroke-linecap:butt;stroke-linejoin:miter;stroke-miterlimit:4;stroke-dasharray:none;stroke-dashoffset:0;stroke-opacity:1;-inkscape-stroke:none;paint-order:fill markers stroke;stop-color:#000;stop-opacity:1"/><circle cx="3.806" cy="-24.668" r=".195" style="font-variation-settings:normal;opacity:1;vector-effect:none;fill:#323232;fill-opacity:1;fill-rule:evenodd;stroke:#323232;stroke-width:.144345;stroke-linecap:round;stroke-linejoin:round;stroke-miterlimit:4;stroke-dasharray:none;stroke-dashoffset:0;stroke-opacity:1;-inkscape-stroke:none;stop-color:#000;stop-opacity:1" transform="rotate(135)"/><path d="m15.424 19.465-.856.856" style="font-variation-settings:normal;opacity:1;fill:none;fill-opacity:1;stroke:#323232;stroke-width:.288688;stroke-linecap:round;stroke-linejoin:miter;stroke-miterlimit:4;stroke-dasharray:none;stroke-dashoffset:0;stroke-opacity:1;paint-order:fill markers stroke;stop-color:#000;stop-opacity:1"/><path d="M3.682 26.985c2.188 2.162 2.303 2.01 3.54 2.94 1.238.932 1.787 1.29 1.787 1.29l-.76.734-3.1-2.017-1.706-2.708Z" style="font-variation-settings:normal;opacity:1;fill:#323232;fill-opacity:1;stroke:#323232;stroke-width:.0721723;stroke-linecap:butt;stroke-linejoin:miter;stroke-miterlimit:4;stroke-dasharray:none;stroke-dashoffset:0;stroke-opacity:1;paint-order:fill markers stroke;stop-color:#000;stop-opacity:1"/><path d="M11.23 23.03c-.33.571-.505.778-.773 1.046l-5.174 5.173M6.814 28.068l1.425-1.425M10.6 25.074l.268.268" style="font-variation-settings:normal;opacity:1;vector-effect:none;fill:none;fill-opacity:1;stroke:#323232;stroke-width:.577378;stroke-linecap:butt;stroke-linejoin:miter;stroke-miterlimit:4;stroke-dasharray:none;stroke-dashoffset:0;stroke-opacity:1;-inkscape-stroke:none;paint-order:fill markers stroke;stop-color:#000;stop-opacity:1"/><circle cx="-15.801" cy="21.616" r=".303" style="font-variation-settings:normal;opacity:1;fill:#fff;fill-opacity:1;fill-rule:evenodd;stroke:#323232;stroke-width:.288688;stroke-linecap:round;stroke-linejoin:round;stroke-miterlimit:4;stroke-dasharray:none;stroke-dashoffset:0;stroke-opacity:1;stop-color:#000;stop-opacity:1" transform="rotate(-45)"/><circle cx="-4.918" cy="24.202" r=".119" style="font-variation-settings:normal;opacity:1;vector-effect:none;fill:#323232;fill-opacity:1;fill-rule:evenodd;stroke:#323232;stroke-width:.144345;stroke-linecap:round;stroke-linejoin:round;stroke-miterlimit:4;stroke-dasharray:none;stroke-dashoffset:0;stroke-opacity:1;-inkscape-stroke:none;stop-color:#000;stop-opacity:1" transform="rotate(-45)"/><path d="M21.467 18.169c2.054 1.824 3.885 2.29 3.885 2.29" style="font-variation-settings:normal;opacity:1;vector-effect:none;fill:none;fill-opacity:1;stroke:#323232;stroke-width:.577378;stroke-linecap:butt;stroke-linejoin:miter;stroke-miterlimit:4;stroke-dasharray:none;stroke-dashoffset:0;stroke-opacity:1;-inkscape-stroke:none;paint-order:fill markers stroke;stop-color:#000;stop-opacity:1"/><path d="m12.06 19.71.627.627s1.551-1.516 1.673-1.836c.122-.32.112-.505-.176-.564-.34-.07-2.124 1.773-2.124 1.773z" style="font-variation-settings:normal;opacity:1;fill:#323232;fill-opacity:1;stroke:#323232;stroke-width:.0721235;stroke-linecap:butt;stroke-linejoin:miter;stroke-miterlimit:4;stroke-dasharray:none;stroke-dashoffset:0;stroke-opacity:1;paint-order:fill markers stroke;stop-color:#000;stop-opacity:1"/><path d="m12.485 19.903-.434.434" style="font-variation-settings:normal;opacity:1;vector-effect:none;fill:none;fill-opacity:1;stroke:#323232;stroke-width:.577378;stroke-linecap:butt;stroke-linejoin:miter;stroke-miterlimit:4;stroke-dasharray:none;stroke-dashoffset:0;stroke-opacity:1;-inkscape-stroke:none;paint-order:fill markers stroke;stop-color:#000;stop-opacity:1"/><path d="m11.892 20.065.439.439" style="font-variation-settings:normal;opacity:1;fill:none;fill-opacity:1;stroke:#323232;stroke-width:.433033;stroke-linecap:round;stroke-linejoin:miter;stroke-miterlimit:4;stroke-dasharray:none;stroke-dashoffset:0;stroke-opacity:1;paint-order:fill markers stroke;stop-color:#000;stop-opacity:1"/><path d="m17.136 16.772 1.209 1.209" style="font-variation-settings:normal;opacity:1;vector-effect:none;fill:none;fill-opacity:1;stroke:#323232;stroke-width:.577378;stroke-linecap:round;stroke-linejoin:miter;stroke-miterlimit:4;stroke-dasharray:none;stroke-dashoffset:0;stroke-opacity:1;-inkscape-stroke:none;paint-order:fill markers stroke;stop-color:#000;stop-opacity:1"/><path d="m15.629 16.45 2.436-2.436" style="font-variation-settings:normal;opacity:1;fill:none;fill-opacity:1;stroke:#323232;stroke-width:.721723;stroke-linecap:round;stroke-linejoin:miter;stroke-miterlimit:4;stroke-dasharray:none;stroke-dashoffset:0;stroke-opacity:1;paint-order:fill markers stroke;stop-color:#000;stop-opacity:1"/><circle cx="-.513" cy="24.692" r=".112" style="font-variation-settings:normal;opacity:1;vector-effect:none;fill:#323232;fill-opacity:1;fill-rule:evenodd;stroke:#323232;stroke-width:.144345;stroke-linecap:round;stroke-linejoin:round;stroke-miterlimit:4;stroke-dasharray:none;stroke-dashoffset:0;stroke-opacity:1;-inkscape-stroke:none;stop-color:#000;stop-opacity:1" transform="rotate(-45)"/><circle cx="-.513" cy="24.903" r=".112" style="font-variation-settings:normal;vector-effect:none;fill:#323232;fill-opacity:1;fill-rule:evenodd;stroke:#323232;stroke-width:.144345;stroke-linecap:round;stroke-linejoin:round;stroke-miterlimit:4;stroke-dasharray:none;stroke-dashoffset:0;stroke-opacity:1;-inkscape-stroke:none;stop-color:#000" transform="rotate(-45)"/><path d="m16.453 17.111-4.308 4.308" style="font-variation-settings:normal;opacity:1;fill:none;fill-opacity:1;stroke:#323232;stroke-width:.433033;stroke-linecap:butt;stroke-linejoin:miter;stroke-miterlimit:4;stroke-dasharray:none;stroke-dashoffset:0;stroke-opacity:1;paint-order:fill markers stroke;stop-color:#000;stop-opacity:1"/><path d="m20.53 10.796.477-.476" style="font-variation-settings:normal;opacity:1;fill:none;fill-opacity:1;stroke:#323232;stroke-width:.288688;stroke-linecap:round;stroke-linejoin:miter;stroke-miterlimit:4;stroke-dasharray:none;stroke-dashoffset:0;stroke-opacity:1;paint-order:fill markers stroke;stop-color:#000;stop-opacity:1"/><path d="m21.507 11.773.476-.476M21.796 9.531l1.08-1.08M22.772 10.507l1.08-1.08M23.666 7.661l1.08-1.08M25.536 5.792l1.08-1.08M24.642 8.638l1.08-1.08M26.169 7.11l.39-.39" style="font-variation-settings:normal;fill:none;fill-opacity:1;stroke:#323232;stroke-width:.288688;stroke-linecap:round;stroke-linejoin:miter;stroke-miterlimit:4;stroke-dasharray:none;stroke-dashoffset:0;stroke-opacity:1;paint-order:fill markers stroke;stop-color:#000"/><circle cx="14.963" cy="23.644" r=".185" style="font-variation-settings:normal;opacity:1;vector-effect:none;fill:#323232;fill-opacity:1;fill-rule:evenodd;stroke:#323232;stroke-width:.144345;stroke-linecap:round;stroke-linejoin:round;stroke-miterlimit:4;stroke-dasharray:none;stroke-dashoffset:0;stroke-opacity:1;-inkscape-stroke:none;stop-color:#000;stop-opacity:1" transform="rotate(-45)"/><path d="M17.28 19.103c.987-.656 1.288.32 1.297.497.006.129.104.237.154.279.051.042.121.096.174.074.053-.022.094-.026.122-.06.03-.033.114-.133.114-.133l-1.282-1.355zM16.367 20.587c.532.846.87.553.944.547.075-.007.1.115.097.165-.003.05-.19.238-.19.238l-.979-.823z" style="font-variation-settings:normal;opacity:1;fill:#323232;fill-opacity:1;stroke:#323232;stroke-width:.0721235;stroke-linecap:butt;stroke-linejoin:miter;stroke-miterlimit:4;stroke-dasharray:none;stroke-dashoffset:0;stroke-opacity:1;paint-order:fill markers stroke;stop-color:#000;stop-opacity:1"/><path d="m17.308 21.29 1.514-1.514" style="font-variation-settings:normal;opacity:1;fill:none;fill-opacity:1;stroke:#323232;stroke-width:.212127;stroke-linecap:butt;stroke-linejoin:miter;stroke-miterlimit:4;stroke-dasharray:none;stroke-dashoffset:0;stroke-opacity:1;paint-order:fill markers stroke;stop-color:#000;stop-opacity:1"/><path d="M16.652 19.496c.444.963 1.147.903 1.147.903s-.24.133-.611.011c-.211-.07-.702-.448-.733-.505-.031-.056.197-.409.197-.409z" style="font-variation-settings:normal;opacity:1;fill:#323232;fill-opacity:1;stroke:#323232;stroke-width:.0721235;stroke-linecap:butt;stroke-linejoin:round;stroke-miterlimit:4;stroke-dasharray:none;stroke-dashoffset:0;stroke-opacity:1;paint-order:fill markers stroke;stop-color:#000;stop-opacity:1"/></svg>
