<svg height="128" width="128" xmlns="http://www.w3.org/2000/svg">
  <g fill="#fff">
    <path d="m 127.33881,61.46108 h -6.54492 A 56.849998,56.849998 0 0 0 66.54584,7.21303 V 0.66811 H 61.456 V 7.21303 A 56.849998,56.849998 0 0 0 7.20795,61.46108 H 0.66303 v 5.08984 H 7.20795 A 56.849998,56.849998 0 0 0 61.456,120.79897 v 6.54492 h 5.08984 v -6.54492 a 56.849998,56.849998 0 0 0 54.24805,-54.24805 h 6.54492 z m -11.65039,0 h -5.61523 v 5.08984 h 5.61523 A 51.75,51.75 0 0 1 66.54584,115.6935 v -5.61523 H 61.456 v 5.61523 A 51.75,51.75 0 0 1 12.31342,66.55092 h 5.61523 V 61.46108 H 12.31342 A 51.75,51.75 0 0 1 61.456,12.3185 v 5.61523 h 5.08984 V 12.3185 a 51.75,51.75 0 0 1 49.14258,49.14258 z" />
    <path
       d="M 69.053131,90.714577 H 62.538062 V 45.58491 l -11.200063,5.014408 v -6.149054 l 16.69029,-7.283702 h 1.024842 z"/>
  </g>
</svg>
