<svg xmlns="http://www.w3.org/2000/svg" width="128" height="128" viewBox="0 0 33.867 33.867"><path d="m25.59 3.126-1.156 1.157-.096.056-4.12 4.229-.197.008L8.578 20.02l-.048-.048-1.48 1.48s-.127.103-.093.232c.035.128.419 1.412.419 1.412l1.751 1.751 1.472.273 1.4-1.4-.951-.951 6.907-6.908 2.388 1.582.9-2.143s.048-.158-.111-.214c-.158-.055.042.205-.494-.27-.536-.476-.429-.815-.304-.939l.265-.265-2.026-2.027 7.738-7.738-.72-.72z" style="font-variation-settings:normal;vector-effect:none;fill:#fff;fill-opacity:1;stroke:#323232;stroke-width:.548424;stroke-linecap:butt;stroke-linejoin:miter;stroke-miterlimit:4;stroke-dasharray:none;stroke-dashoffset:0;stroke-opacity:1;-inkscape-stroke:none;paint-order:fill markers stroke;stop-color:#000"/><path d="m19.906 18.211-1.848-1.194-5.76 5.76.333.334.035-.034c.063-.063.431-.395 1.163.121.739.521.63.776.86 1.794.23 1.017.824 3.805.824 3.805s0 .266.455.151c.454-.115 2.454-.648 2.86-.8.406-.151.497-.303.333-.454-.163-.152-.321-.09-.54-.697-.217-.606-1.726-4.78-1.823-5.023-.097-.242-.151-.37.115-.636.267-.267 2.436-2.29 2.581-2.533.146-.242.412-.594.412-.594zM21.664 13.532l-1.955-1.955 7.24-7.24s.253.107.61.477c.358.37.515.648.406.782-.109.133-6.301 7.936-6.301 7.936zM21.92 15.923l-.837 1.98s.532.417 2.768 1.611c2.236 1.194 5.92 2.2 5.92 2.2l.503-1.958s-1.012-.188-3.654-1.35c-3.195-1.408-4.7-2.483-4.7-2.483z" style="font-variation-settings:normal;vector-effect:none;fill:#fff;fill-opacity:1;stroke:#323232;stroke-width:.548424;stroke-linecap:butt;stroke-linejoin:miter;stroke-miterlimit:4;stroke-dasharray:none;stroke-dashoffset:0;stroke-opacity:1;-inkscape-stroke:none;paint-order:fill markers stroke;stop-color:#000"/><path d="M21.582 16.5s1.505 1.075 4.7 2.482c2.642 1.164 3.654 1.351 3.654 1.351" style="font-variation-settings:normal;fill:none;fill-opacity:1;stroke:#323232;stroke-width:.411318;stroke-linecap:butt;stroke-linejoin:miter;stroke-miterlimit:4;stroke-dasharray:none;stroke-dashoffset:0;stroke-opacity:1;paint-order:fill markers stroke;stop-color:#000"/><path d="m20.04 18.265.442.903" style="font-variation-settings:normal;fill:none;fill-opacity:1;stroke:#323232;stroke-width:.205659;stroke-linecap:butt;stroke-linejoin:miter;stroke-miterlimit:4;stroke-dasharray:none;stroke-dashoffset:0;stroke-opacity:1;paint-order:fill markers stroke;stop-color:#000"/><circle cx="1.161" cy="27.571" r=".064" style="font-variation-settings:normal;vector-effect:none;fill:#323232;fill-opacity:1;fill-rule:evenodd;stroke:#323232;stroke-width:.137106;stroke-linecap:round;stroke-linejoin:round;stroke-miterlimit:4;stroke-dasharray:none;stroke-dashoffset:0;stroke-opacity:1;-inkscape-stroke:none;stop-color:#000" transform="rotate(-45)"/><path d="M17.656 20.71c.291 1.277 1.22 1.153 1.307 1.23a.756.756 0 0 1 .102.103s-.535.287-1.028.06c-.493-.227-.942-.823-.942-.823z" style="font-variation-settings:normal;fill:#323232;fill-opacity:1;stroke:#323232;stroke-width:.0685531;stroke-linecap:butt;stroke-linejoin:round;stroke-miterlimit:4;stroke-dasharray:none;stroke-dashoffset:0;stroke-opacity:1;paint-order:fill markers stroke;stop-color:#000"/><path d="M17.437 23.28c.085-.11.267-.14.479-.194.212-.055.521-.085.76-.324l1.233-1.233s.237-.255.034-.712c-.203-.458-.718-1.524-.718-1.524l.312-.318s.024.236.103.448c.079.212.406.951.566 1.245.161.294.146.867-.09 1.103l-1.273 1.272s-.154.161-.376.219c-.22.057-.484.09-.62.227l-.295.294z" style="font-variation-settings:normal;fill:#323232;fill-opacity:1;stroke:#323232;stroke-width:.0685531;stroke-linecap:butt;stroke-linejoin:miter;stroke-miterlimit:4;stroke-dasharray:none;stroke-dashoffset:0;stroke-opacity:1;paint-order:fill markers stroke;stop-color:#000"/><path d="M3.602 27.925c3.128 2.94 3.274 3.6 3.617 4.234.342.634.47.42.625.351.154-.069.463-.24.463-.24s.153.138.22.071c.067-.066.358-.006.497-.145.14-.14.327-.327.042-.806-.284-.479-1.965-3.25-2.08-3.644-.115-.393.015-1.232.446-1.663l.867-.866-1.404-1.404s-1.176 1.054-1.88 1.636c-.702.582-1.005.848-1.047.951-.043.103-.019.2-.073.255l-.115.115.085.085-.437.436s-.282.178.174.634z" style="font-variation-settings:normal;vector-effect:none;fill:#fff;fill-opacity:1;stroke:#323232;stroke-width:.548424;stroke-linecap:butt;stroke-linejoin:miter;stroke-miterlimit:4;stroke-dasharray:none;stroke-dashoffset:0;stroke-opacity:1;-inkscape-stroke:none;paint-order:fill markers stroke;stop-color:#000"/><path d="M28.307 4.866c-.663-.953-1.337-1.11-1.337-1.11l-1.361-1.361-.253.252s-.172-.09-.58-.515c-.406-.424-.518-.51-.376-.72.141-.21.257-.385.424-.346.167.038.852.424 1.011.522.159.099.578.544.578.544s.108-.09.339.082c.231.171.677.685.724.758.047.073.021.202.021.202l.33.33.232-.232-.112-.111.262-.262.295-.073.969-.968s.107-.021.394.257c.287.279.308.463.308.463L29.15 3.604l-.284.37-.045-.045-.279.28s.188.242.124.305c-.063.064-.358.352-.358.352zM7.748 29.007l1.26 2.271s.008-.642.145-.803c.125-.149.257-.422.094-.696-.162-.275-.454-.309-.68-.279-.228.03-.438-.06-.82-.493Zm.992.86a.212.212 0 1 1 .3.3.212.212 0 0 1-.3-.3zM3.898 27.046c3.272 3.175 3.668 4.063 3.996 4.656l.35.632-.717.207-2.06-2.92-2.06-2.12z" style="font-variation-settings:normal;fill:#323232;fill-opacity:1;stroke:#323232;stroke-width:.0685531;stroke-linecap:butt;stroke-linejoin:miter;stroke-miterlimit:4;stroke-dasharray:none;stroke-dashoffset:0;stroke-opacity:1;paint-order:fill markers stroke;stop-color:#000"/><circle cx="-9.058" cy="24.648" r=".18" style="font-variation-settings:normal;vector-effect:none;fill:#323232;fill-opacity:1;fill-rule:evenodd;stroke:#323232;stroke-width:.137106;stroke-linecap:round;stroke-linejoin:round;stroke-miterlimit:4;stroke-dasharray:none;stroke-dashoffset:0;stroke-opacity:1;-inkscape-stroke:none;stop-color:#000" transform="rotate(-45)"/><path d="M13.103 15.181c-.122-.122-.15-.188-.115-.223l.047-.047.173.174zM14.02 14.264c-.122-.122-.188-.15-.222-.116l-.048.048.174.173zM8.57 17.551l.164.291-.312.312s-.197.191-.143.536c.055.346.14.48.342.68l1.538-1.538-.248-.462-.085-.36Zm.66-.075a.129.129 0 1 1 .182.181.129.129 0 0 1-.181-.181zM21.482 6.68l.897-.896-.118-.118s-.242-.224-.56.094c-.319.318-.38.56-.328.715.052.154.11.206.11.206z" style="font-variation-settings:normal;fill:#323232;fill-opacity:1;stroke:#323232;stroke-width:.0685531;stroke-linecap:butt;stroke-linejoin:miter;stroke-miterlimit:4;stroke-dasharray:none;stroke-dashoffset:0;stroke-opacity:1;paint-order:fill markers stroke;stop-color:#000"/><path d="M17.955 15.86Z" style="font-variation-settings:normal;vector-effect:none;fill:none;fill-opacity:1;stroke:#323232;stroke-width:.548424;stroke-linecap:butt;stroke-linejoin:miter;stroke-miterlimit:4;stroke-dasharray:none;stroke-dashoffset:0;stroke-opacity:1;-inkscape-stroke:none;paint-order:fill markers stroke;stop-color:#000"/><path d="m17.955 15.86 1.767-1.766h.493" style="font-variation-settings:normal;vector-effect:none;fill:none;fill-opacity:1;stroke:#323232;stroke-width:.548424;stroke-linecap:butt;stroke-linejoin:round;stroke-miterlimit:4;stroke-dasharray:none;stroke-dashoffset:0;stroke-opacity:1;-inkscape-stroke:none;paint-order:fill markers stroke;stop-color:#000"/><path d="m8.578 20.02.567.566.521.315 1.617 1.62" style="font-variation-settings:normal;vector-effect:none;fill:none;fill-opacity:1;stroke:#323232;stroke-width:.548424;stroke-linecap:butt;stroke-linejoin:miter;stroke-miterlimit:4;stroke-dasharray:none;stroke-dashoffset:0;stroke-opacity:1;-inkscape-stroke:none;paint-order:fill markers stroke;stop-color:#000"/><path d="m15.344 14.273 1.161-1.162s.232-.238.469-.002c.236.237.466.497.448.758-.018.26.021.245-.321.587l-.985.985s-.215.233-.484-.036c-.27-.27-.524-.53-.537-.67-.012-.14-.018-.194.249-.46z" style="font-variation-settings:normal;fill:#323232;fill-opacity:1;stroke:#323232;stroke-width:.0685531;stroke-linecap:butt;stroke-linejoin:miter;stroke-miterlimit:4;stroke-dasharray:none;stroke-dashoffset:0;stroke-opacity:1;paint-order:fill markers stroke;stop-color:#000"/><path d="m9.666 20.901 9.086-9.086" style="font-variation-settings:normal;vector-effect:none;fill:none;fill-opacity:1;stroke:#323232;stroke-width:.548424;stroke-linecap:butt;stroke-linejoin:miter;stroke-miterlimit:4;stroke-dasharray:none;stroke-dashoffset:0;stroke-opacity:1;-inkscape-stroke:none;paint-order:fill markers stroke;stop-color:#000"/><path d="m10.63 21.683 7.362-7.362.212.212" style="font-variation-settings:normal;fill:none;fill-opacity:1;stroke:#323232;stroke-width:.411318;stroke-linecap:round;stroke-linejoin:miter;stroke-miterlimit:4;stroke-dasharray:none;stroke-dashoffset:0;stroke-opacity:1;paint-order:fill markers stroke;stop-color:#000"/><circle cx="3.941" cy="22.857" r=".283" style="font-variation-settings:normal;vector-effect:none;fill:#323232;fill-opacity:1;fill-rule:evenodd;stroke:#323232;stroke-width:.137106;stroke-linecap:round;stroke-linejoin:round;stroke-miterlimit:4;stroke-dasharray:none;stroke-dashoffset:0;stroke-opacity:1;-inkscape-stroke:none;stop-color:#000" transform="rotate(-45)"/><path d="M14.018 23.302c.879.099.994-.042 1.371-.42l1.333-1.332" style="font-variation-settings:normal;vector-effect:none;fill:none;fill-opacity:1;stroke:#323232;stroke-width:.548424;stroke-linecap:butt;stroke-linejoin:miter;stroke-miterlimit:4;stroke-dasharray:none;stroke-dashoffset:0;stroke-opacity:1;-inkscape-stroke:none;paint-order:fill markers stroke;stop-color:#000"/><path d="M16.459 21.47a.087.087 0 0 0 .025-.007c.087-.044.175-.126.165-.182-.01-.056-.218-.079-.337-.187-.118-.109-.439-.693-.439-.693l-.001.001a.422.422 0 1 0-.513.612c.845.356 1.012.471 1.1.457z" style="font-variation-settings:normal;fill:#323232;fill-opacity:1;fill-rule:evenodd;stroke:#fff;stroke-width:.137106;stroke-linecap:round;stroke-linejoin:round;stroke-miterlimit:4;stroke-dasharray:none;stroke-dashoffset:0;stroke-opacity:1;stop-color:#000"/></svg>