<svg version="1.2" xmlns="http://www.w3.org/2000/svg" viewBox="0 0 123.43250246841912 128.409619503436" width="124" height="129">
	<style>
		.s0 { fill: #f5f5f5 } 
		.s1 { fill: #353535 } 
	</style>
	<g id="Layer 1">
		<path fill-rule="evenodd" class="s0" d="m94.33 26.86c-0.12 0.13-0.22 0.32-0.22 0.43 0 0.1-0.44 0.82-0.98 1.58-1.39 1.94-25.82 25.4-26.17 25.12-0.17-0.15-0.5 0.01-1.25 0.59-0.57 0.43-1.11 0.89-1.21 1.01-0.14 0.16 0.37 0.74 1.87 2.1 1.13 1.02 2.14 1.87 2.24 1.87 0.3 0 9.18-8.57 9.18-8.86 0-0.77 1.15-2.07 5.75-6.51 6.75-6.53 6.57-6.36 6.96-6.39 0.19-0.01 1.34-1.05 2.57-2.31 1.22-1.26 2.42-2.35 2.67-2.41 0.63-0.16 1.54-1.31 1.43-1.82-0.35-1.58-1.08-3.29-1.66-3.92-0.71-0.76-0.84-0.82-1.18-0.48zm-1.7 3.62c-0.45 0.36-5.88 5.69-12.07 11.84l-11.25 11.18 0.6 0.59 0.6 0.59 2.75-2.85c1.51-1.56 3.06-3 3.44-3.19 0.38-0.18 2.88-2.47 5.56-5.08 3.57-3.46 4.92-4.89 5-5.3 0.13-0.55 2.9-3.3 5.11-5.05 0.72-0.58 1.01-0.94 1.1-1.41 0.06-0.35 0.27-0.78 0.46-0.95 0.27-0.25 0.31-0.4 0.17-0.67-0.27-0.5-0.53-0.44-1.47 0.3zm-37.35 27.27c0 0.09-0.65 0.44-1.45 0.79-1.38 0.59-1.69 0.85-6.45 5.46-4.33 4.21-5.09 5.02-5.68 6.14l-0.68 1.29 0.6 0.47 0.59 0.46-2.32 2.7c-1.28 1.48-3.15 3.64-4.15 4.8l-1.83 2.11-0.63-0.55-0.62-0.56-2.01 2.01c-1.89 1.9-2 2.05-2 2.78 0 0.48-0.11 0.87-0.3 1.02-0.23 0.2-0.27 0.47-0.16 1.38 0.11 1.03 0.67 2.36 0.99 2.36 0.07 0 6.75-6.62 14.85-14.72l14.72-14.72-0.8-0.81-0.79-0.8 0.52-0.52 0.51-0.53-0.44-0.36c-0.32-0.26-0.73-0.36-1.46-0.36-0.55 0-1.01 0.07-1.01 0.16zm-8.89 18.7c-9.58 9.53-17.51 17.34-17.62 17.34-0.1 0-0.96 0.75-1.91 1.68q-2.67 2.62-4.31 2.63c-0.81 0-1.59 0.54-3.72 2.6-1.05 1-4.14 3.97-6.87 6.6-2.89 2.78-5.68 5.29-6.66 5.98-0.93 0.66-1.73 1.23-1.77 1.27-0.05 0.04 1.52 1.69 3.48 3.67 1.96 1.98 4.16 4.28 4.9 5.09 1.18 1.32 1.37 1.46 1.64 1.24 0.65-0.54 1.1-1.75 1.12-3.02 0.04-2.07 0.53-2.81 4.16-6.25 3.63-3.45 4.51-3.99 6.16-3.79q2.91 0.34 2.91-1.57c0-0.93-0.45-3.07-1.04-4.94-0.55-1.74-0.57-2.41-0.11-3.41 0.5-1.06 1.36-2.07 3.4-3.96 1.97-1.82 2.27-2.1 15.19-14.59 5.87-5.67 9.37-8.91 9.85-9.14 0.41-0.19 1.03-0.34 1.37-0.35 0.78 0 1.19-0.22 2.41-1.25 0.82-0.69 1-0.96 1.18-1.77 0.43-2.02 1.05-2.91 3.99-5.79l2.78-2.71-1.45-1.46c-0.8-0.81-1.5-1.46-1.55-1.45-0.06 0-7.94 7.81-17.53 17.35zm3.28-13.9c-3.1 3.09-3.11 3.09-3.11 3.94 0 0.76 0.09 0.94 0.9 1.74 0.8 0.8 0.98 0.89 1.74 0.89 0.84 0 0.85 0 3.93-3.11 3.04-3.05 3.09-3.11 3.09-3.91 0-0.73-0.1-0.92-0.91-1.73-0.81-0.81-1-0.91-1.72-0.91-0.8 0-0.86 0.05-3.92 3.09zm1.3 1.5c-2.4 2.41-2.51 2.55-2.2 2.86 0.31 0.31 0.46 0.2 2.89-2.23 2.22-2.22 2.53-2.61 2.32-2.86-0.13-0.16-0.3-0.3-0.36-0.3-0.07 0-1.26 1.14-2.65 2.53zm-6.87 5.87c-0.12 0.08-0.85 1.36-1.64 2.86l-1.42 2.72-5.16 5.15c-2.84 2.84-5.17 5.29-5.17 5.45 0 0.41 0.38 0.75 0.84 0.75 0.25 0 2.17-1.79 5.67-5.3l5.29-5.3 1.41-2.74c0.78-1.5 1.42-2.83 1.42-2.94 0-0.27-0.53-0.79-0.81-0.79-0.12 0-0.31 0.07-0.43 0.14zm9.94 0.46c-0.32 0.34-0.63 0.77-0.7 0.95-0.09 0.27-0.24 0.32-0.73 0.23-0.59-0.11-0.75 0.03-5.01 4.3-3.96 3.97-4.39 4.46-4.19 4.78 0.24 0.38 0.31 0.31-2.1 2.35-0.73 0.62-0.74 0.64-0.4 1.02l0.35 0.38 0.64-0.48c0.34-0.27 0.63-0.58 0.63-0.7 0-0.13 0.37-0.58 0.81-1.02 0.72-0.7 0.85-0.77 1.06-0.51 0.13 0.16 0.38 0.29 0.55 0.29 0.31 0 9.02-8.59 9.02-8.9 0-0.09-0.13-0.32-0.3-0.5-0.27-0.3-0.24-0.36 0.42-0.79 0.96-0.6 1.43-1.15 1.35-1.57-0.11-0.58-0.77-0.5-1.4 0.17zm-15.73 0.15c-0.17 0.33-0.24 0.75-0.17 1.03 0.14 0.58-0.19 1.03-0.78 1.03-0.51 0-1.02 0.64-1.02 1.28 0 0.5-2.02 3.03-3.14 3.95l-0.71 0.56 0.61 0.62c0.73 0.74 0.27 1.11 3.98-3.21 2.33-2.71 2.62-3.11 2.37-3.36-0.24-0.24-0.23-0.36 0.09-0.99 0.2-0.39 0.36-0.75 0.36-0.81 0-0.09-1.02-0.66-1.2-0.66-0.06 0-0.23 0.25-0.39 0.56zm-0.96 3.09c-0.07 0.17-0.03 0.4 0.08 0.51 0.28 0.28 0.82 0.02 0.75-0.36-0.08-0.44-0.68-0.54-0.83-0.15zm3.68 16.98c-2.36 2.27-2.85 2.83-2.63 2.99 0.16 0.1 0.34 0.19 0.41 0.19 0.07 0 1.33 2.12 2.81 4.69 2.1 3.66 2.77 4.69 3.07 4.69 0.2 0 0.89-0.31 1.52-0.7 1.89-1.17 1.85-1.06 0.85-2.07-0.9-0.91-3.53-5.46-3.97-6.86-0.13-0.41-0.18-1.1-0.12-1.59 0.26-2 0.47-3.01 0.76-3.56 0.17-0.33 0.29-0.59 0.26-0.59-0.03 0-1.36 1.27-2.96 2.81zm-6.99 0.2c-0.5 0.29-0.42 1.23 0.14 1.6 0.44 0.28 0.51 0.28 0.94 0 1.12-0.74 0.08-2.28-1.08-1.6zm-15.11 10.63c-0.42 0.29-2.63 2.29-4.91 4.44-4.79 4.55-5.15 5.06-5.14 7.32 0 0.95 0.12 1.58 0.42 2.25 0.54 1.19 0.88 1.57 1.81 2 1.67 0.77 2.79 0.29 5.51-2.31 5.42-5.19 6.73-6.54 7.06-7.28 0.34-0.76 0.34-0.84 0.01-2.78-0.39-2.3-0.58-2.75-1.51-3.57-0.91-0.8-2.12-0.82-3.25-0.07zm-6.77 19.73c-0.47 0.46-0.49 0.9-0.09 1.48 0.44 0.62 1.55 0.51 1.94-0.2 0.26-0.47 0.26-0.57 0-1.04-0.37-0.67-1.3-0.79-1.85-0.24z"/>
		<path fill-rule="evenodd" class="s1" d="m118.16 2.89c-1.69 1.59-3.42 3.07-3.87 3.29-0.44 0.23-1.1 0.81-1.46 1.29-0.54 0.72-0.76 0.88-1.24 0.88-0.52 0-0.86-0.29-2.67-2.24-1.13-1.24-2.2-2.33-2.36-2.42-0.23-0.13-0.49 0.02-1.07 0.6l-0.77 0.77 0.58 0.61c0.69 0.73 0.69 0.74 2.11 3.97l1.12 2.55-6.21 6.01c-5.98 5.8-6.21 6-6.59 5.72-1.15-0.83-1.06-0.87-3.35 1.23-2.13 1.95-2.4 2.29-2.03 2.51 0.11 0.07 0.2 0.2 0.2 0.29 0 0.33-23.25 22.51-23.59 22.51-0.19 0-0.63 0.23-0.97 0.52l-0.63 0.53-1.73-0.22c-0.96-0.12-2.15-0.36-2.65-0.52-1.17-0.39-5.83-1.45-6.45-1.47-0.32-0.02-1.91 0.99-4.97 3.12-2.47 1.73-4.6 3.28-4.73 3.44-0.4 0.5-0.27 1.12 0.45 2.2q0.98 1.48 1.8 1.16c0.13-0.05 2.24-1.62 4.7-3.48l4.47-3.39 1.58 1.21c1.61 1.23 2.23 1.52 2.9 1.34 0.6-0.15 0.45 0.47-0.28 1.17l-0.64 0.63-0.57-0.48c-0.82-0.69-1.8-0.97-3.34-0.97-1.19 0.01-1.42 0.07-1.88 0.48-0.28 0.26-1.16 0.75-1.94 1.09-1.38 0.58-1.59 0.77-6.71 5.9l-5.28 5.3-1.17-0.62c-1.06-0.57-1.17-0.6-1.35-0.3-0.11 0.18-0.6 1.07-1.09 1.98-0.48 0.91-1.18 2.01-1.54 2.43-0.36 0.42-0.71 1.04-0.77 1.37-0.15 0.78-1.66 2.61-2.6 3.14-0.66 0.37-0.79 0.58-1.27 2.01-0.29 0.88-0.49 1.77-0.44 1.98 0.07 0.29-0.32 0.79-1.68 2.15-1.66 1.65-1.78 1.82-1.79 2.53 0 0.42-0.14 0.94-0.33 1.18-0.29 0.38-0.31 0.64-0.17 2.25 0.13 1.45 0.26 1.97 0.64 2.55l0.47 0.73-1.57 1.58c-1.64 1.66-2.61 2.31-3.48 2.31-1.53 0-2.51 0.82-12.15 10.12-3.22 3.1-5.35 4.99-6.79 6.02-2.49 1.77-2.87 2.2-2.87 3.24 0 0.74 0.09 0.86 2.09 2.74 2.5 2.36 7.48 7.63 8.91 9.42 0.98 1.23 1.05 1.28 1.83 1.28 1 0 2.01-0.68 2.96-1.99 1.18-1.63 1.53-2.48 1.59-3.97 0.03-0.75 0.16-1.57 0.29-1.81 0.23-0.43 5.53-5.48 6.08-5.8 0.15-0.08 1.01-0.17 1.91-0.2 2.42-0.08 3.86-0.87 4.59-2.52 0.64-1.45 0.35-4.11-0.82-7.66-0.35-1.07-0.36-1.2-0.09-1.72 0.31-0.6 7.01-6.97 7.33-6.96 0.4 0 0.67 0.39 2.8 4.12 1.22 2.12 2.42 4.17 2.67 4.57 0.6 0.92 1.87 1.52 2.85 1.34 0.84-0.16 3.52-1.75 4.32-2.57 1.08-1.11 1.14-2.39 0.14-3.34-0.33-0.31-0.8-0.77-1.06-1.01-0.58-0.56-3.09-5.06-3.27-5.87-0.07-0.33-0.04-0.76 0.07-0.97 0.18-0.34 0.24-0.34 0.97-0.09 1.58 0.54 2.3 0.07 3.93-2.6 0.89-1.45 1.2-2.13 1.26-2.8 0.06-0.55 0.22-1.02 0.44-1.22 0.34-0.31 0.47-1.01 0.23-1.25-0.06-0.07-0.36 0.05-0.66 0.27-0.66 0.46-0.87 0.35-0.46-0.24 0.17-0.24 0.31-0.61 0.31-0.82 0-0.23 0.56-0.95 1.4-1.78 1.34-1.33 1.38-1.4 1.08-1.74-0.3-0.34-0.25-0.41 1.11-1.74 1.17-1.15 1.53-1.4 2.02-1.4h0.6l-0.39 0.5c-0.48 0.61-0.51 1.86-0.07 2.51 0.54 0.78 9.8 10.66 10.18 10.87 0.55 0.29 1.74 0.22 2.28-0.14 0.26-0.18 1.93-1.67 3.7-3.32 3.57-3.31 3.87-3.76 3.36-5-0.15-0.36-2.53-3.07-5.27-6.03-4.27-4.59-5.09-5.39-5.65-5.5-0.9-0.16-1.48 0.01-2.25 0.69l-0.66 0.58 0.27-0.88c0.36-1.21 1.04-2 4.75-5.51 2.28-2.16 3.19-3.14 3.05-3.27-0.11-0.11-0.2-0.25-0.2-0.32 0-0.06 2.2-2.21 4.88-4.78 4.31-4.12 4.88-4.73 4.88-5.24 0-0.61-0.14-0.46 7.64-8.07l2.29-2.25 0.81 0.8 0.81 0.79 1.01-0.75c0.77-0.57 1.06-0.7 1.25-0.54 0.14 0.12 0.25 0.32 0.25 0.46 0 0.24 0.49 0.6 0.82 0.6 0.08 0 3.9 3.11 8.48 6.9l8.32 6.9-0.65 0.72c-0.36 0.39-0.65 0.78-0.64 0.85q0.01 0.51 0.96 0.69c0.67 0.12 0.71 0.09 2.49-1.81 1.63-1.72 1.81-1.98 1.71-2.47-0.12-0.62-0.42-1.05-0.74-1.05-0.13 0-0.55 0.33-0.94 0.73l-0.71 0.74-5.1-4.22c-2.8-2.33-5.11-4.36-5.15-4.53-0.12-0.57-1.39-1.72-1.9-1.72-0.54-0.01-4.51-3.16-4.74-3.77-0.07-0.2-0.31-0.36-0.56-0.37-0.4 0-0.38-0.04 0.21-0.55l0.64-0.54-0.88-0.98-0.88-0.98 0.51-0.53 0.51-0.54 0.51 0.48 0.5 0.49 1.43-1.56c1.35-1.47 1.41-1.57 1.15-1.97q-0.29-0.42-0.07-0.54c0.35-0.22 0.03-2.29-0.68-4.39-0.35-1.06-0.73-2.03-0.84-2.16-0.27-0.33 12.03-12.37 12.33-12.07 0.3 0.3 3.47-2.6 3.33-3.04-0.07-0.22 0.18-0.5 0.9-0.98 0.56-0.37 1.21-0.93 1.46-1.26 0.25-0.33 1.86-2.08 3.59-3.91 2.01-2.12 3.14-3.46 3.14-3.71 0-0.22-0.17-0.62-0.38-0.89-0.74-0.94-1.12-0.74-4.45 2.39zm-10.17 4.57c0 0.08 0.3 0.88 0.68 1.79l0.69 1.65 0.63-0.61 0.63-0.61-1.17-1.18c-1.1-1.12-1.46-1.37-1.46-1.04zm-13.66 19.4c-0.12 0.13-0.22 0.32-0.22 0.43 0 0.1-0.44 0.82-0.98 1.58-1.39 1.94-25.82 25.4-26.17 25.12-0.17-0.15-0.5 0.01-1.25 0.59-0.57 0.43-1.11 0.89-1.21 1.01-0.14 0.16 0.37 0.74 1.87 2.1 1.13 1.02 2.14 1.87 2.24 1.87 0.3 0 9.18-8.57 9.18-8.86 0-0.77 1.15-2.07 5.75-6.51 6.75-6.53 6.57-6.36 6.96-6.39 0.19-0.01 1.34-1.05 2.57-2.31 1.22-1.26 2.42-2.35 2.67-2.41 0.63-0.16 1.54-1.31 1.43-1.82-0.35-1.58-1.08-3.29-1.66-3.92-0.71-0.76-0.84-0.82-1.18-0.48zm-1.7 3.62c-0.45 0.36-5.88 5.69-12.07 11.84l-11.25 11.18 0.6 0.59 0.6 0.59 2.75-2.85c1.51-1.56 3.06-3 3.44-3.19 0.38-0.18 2.88-2.47 5.56-5.08 3.57-3.46 4.92-4.89 5-5.3 0.13-0.55 2.9-3.3 5.11-5.05 0.72-0.58 1.01-0.94 1.1-1.41 0.06-0.35 0.27-0.78 0.46-0.95 0.27-0.25 0.31-0.4 0.17-0.67-0.27-0.5-0.53-0.44-1.47 0.3zm-37.35 27.27c0 0.09-0.65 0.44-1.45 0.79-1.38 0.59-1.69 0.85-6.45 5.46-4.33 4.21-5.09 5.02-5.68 6.14l-0.68 1.29 0.6 0.47 0.59 0.46-2.32 2.7c-1.28 1.48-3.15 3.64-4.15 4.8l-1.83 2.11-0.63-0.55-0.62-0.56-2.01 2.01c-1.89 1.9-2 2.05-2 2.78 0 0.48-0.11 0.87-0.3 1.02-0.23 0.2-0.27 0.47-0.16 1.38 0.11 1.03 0.67 2.36 0.99 2.36 0.07 0 6.75-6.62 14.85-14.72l14.72-14.72-0.8-0.81-0.79-0.8 0.52-0.52 0.51-0.53-0.44-0.36c-0.32-0.26-0.73-0.36-1.46-0.36-0.55 0-1.01 0.07-1.01 0.16zm-8.89 18.7c-9.58 9.53-17.51 17.34-17.62 17.34-0.1 0-0.96 0.75-1.91 1.68q-2.67 2.62-4.31 2.63c-0.81 0-1.59 0.54-3.72 2.6-1.05 1-4.14 3.97-6.87 6.6-2.89 2.78-5.68 5.29-6.66 5.98-0.93 0.66-1.73 1.23-1.77 1.27-0.05 0.04 1.52 1.69 3.48 3.67 1.96 1.98 4.16 4.28 4.9 5.09 1.18 1.32 1.37 1.46 1.64 1.24 0.65-0.54 1.1-1.75 1.12-3.02 0.04-2.07 0.53-2.81 4.16-6.25 3.63-3.45 4.51-3.99 6.16-3.79q2.91 0.34 2.91-1.57c0-0.93-0.45-3.07-1.04-4.94-0.55-1.74-0.57-2.41-0.11-3.41 0.5-1.06 1.36-2.07 3.4-3.96 1.97-1.82 2.27-2.1 15.19-14.59 5.87-5.67 9.37-8.91 9.85-9.14 0.41-0.19 1.03-0.34 1.37-0.35 0.78 0 1.19-0.22 2.41-1.25 0.82-0.69 1-0.96 1.18-1.77 0.43-2.02 1.05-2.91 3.99-5.79l2.78-2.71-1.45-1.46c-0.8-0.81-1.5-1.46-1.55-1.45-0.06 0-7.94 7.81-17.53 17.35zm3.28-13.9c-3.1 3.09-3.11 3.09-3.11 3.94 0 0.76 0.09 0.94 0.9 1.74 0.8 0.8 0.98 0.89 1.74 0.89 0.84 0 0.85 0 3.93-3.11 3.04-3.05 3.09-3.11 3.09-3.91 0-0.73-0.1-0.92-0.91-1.73-0.81-0.81-1-0.91-1.72-0.91-0.8 0-0.86 0.05-3.92 3.09zm1.3 1.5c-2.4 2.41-2.51 2.55-2.2 2.86 0.31 0.31 0.46 0.2 2.89-2.23 2.22-2.22 2.53-2.61 2.32-2.86-0.13-0.16-0.3-0.3-0.36-0.3-0.07 0-1.26 1.14-2.65 2.53zm-6.87 5.87c-0.12 0.08-0.85 1.36-1.64 2.86l-1.42 2.72-5.16 5.15c-2.84 2.84-5.17 5.29-5.17 5.45 0 0.41 0.38 0.75 0.84 0.75 0.25 0 2.17-1.79 5.67-5.3l5.29-5.3 1.41-2.74c0.78-1.5 1.42-2.83 1.42-2.94 0-0.27-0.53-0.79-0.81-0.79-0.12 0-0.31 0.07-0.43 0.14zm9.94 0.46c-0.32 0.34-0.63 0.77-0.7 0.95-0.09 0.27-0.24 0.32-0.73 0.23-0.59-0.11-0.75 0.03-5.01 4.3-3.96 3.97-4.39 4.46-4.19 4.78 0.24 0.38 0.31 0.31-2.1 2.35-0.73 0.62-0.74 0.64-0.4 1.02l0.35 0.38 0.64-0.48c0.34-0.27 0.63-0.58 0.63-0.7 0-0.13 0.37-0.58 0.81-1.02 0.72-0.7 0.85-0.77 1.06-0.51 0.13 0.16 0.38 0.29 0.55 0.29 0.31 0 9.02-8.59 9.02-8.9 0-0.09-0.13-0.32-0.3-0.5-0.27-0.3-0.24-0.36 0.42-0.79 0.96-0.6 1.43-1.15 1.35-1.57-0.11-0.58-0.77-0.5-1.4 0.17zm-15.73 0.15c-0.17 0.33-0.24 0.75-0.17 1.03 0.14 0.58-0.19 1.03-0.78 1.03-0.51 0-1.02 0.64-1.02 1.28 0 0.5-2.02 3.03-3.14 3.95l-0.71 0.56 0.61 0.62c0.73 0.74 0.27 1.11 3.98-3.21 2.33-2.71 2.62-3.11 2.37-3.36-0.24-0.24-0.23-0.36 0.09-0.99 0.2-0.39 0.36-0.75 0.36-0.81 0-0.09-1.02-0.66-1.2-0.66-0.06 0-0.23 0.25-0.39 0.56zm-0.96 3.09c-0.07 0.17-0.03 0.4 0.08 0.51 0.28 0.28 0.82 0.02 0.75-0.36-0.08-0.44-0.68-0.54-0.83-0.15zm10.71 13.24l-1.5 1.51 0.45 0.36c0.26 0.22 0.72 0.37 1.15 0.37 0.39 0 0.75 0.09 0.79 0.21 0.08 0.26 1.64-2.28 1.64-2.68 0-0.32-0.68-1.28-0.9-1.28-0.08 0-0.81 0.68-1.63 1.51zm-7.03 3.74c-2.36 2.27-2.85 2.83-2.63 2.99 0.16 0.1 0.34 0.19 0.41 0.19 0.07 0 1.33 2.12 2.81 4.69 2.1 3.66 2.77 4.69 3.07 4.69 0.2 0 0.89-0.31 1.52-0.7 1.89-1.17 1.85-1.06 0.85-2.07-0.9-0.91-3.53-5.46-3.97-6.86-0.13-0.41-0.18-1.1-0.12-1.59 0.26-2 0.47-3.01 0.76-3.56 0.17-0.33 0.29-0.59 0.26-0.59-0.03 0-1.36 1.27-2.96 2.81zm4.61-0.83c-0.16 0.42-0.16 0.41 0.44 0.73 0.76 0.39 1.57 0.36 2.1-0.08l0.45-0.37-0.85-0.02c-0.46 0-1.05-0.13-1.31-0.28-0.6-0.34-0.69-0.34-0.83 0.02zm-11.6 1.03c-0.5 0.29-0.42 1.23 0.14 1.6 0.44 0.28 0.51 0.28 0.94 0 1.12-0.74 0.08-2.28-1.08-1.6zm-15.11 10.63c-0.42 0.29-2.63 2.29-4.91 4.44-4.79 4.55-5.15 5.06-5.14 7.32 0 0.95 0.12 1.58 0.42 2.25 0.54 1.19 0.88 1.57 1.81 2 1.67 0.77 2.79 0.29 5.51-2.31 5.42-5.19 6.73-6.54 7.06-7.28 0.34-0.76 0.34-0.84 0.01-2.78-0.39-2.3-0.58-2.75-1.51-3.57-0.91-0.8-2.12-0.82-3.25-0.07zm-1.74 5.37c-4.66 4.39-5.23 5.01-5.42 5.82-0.17 0.77 0.05 1.83 0.46 2.16 0.31 0.27 1.4-0.66 5.86-5l3.04-2.96-0.27-1.48c-0.14-0.81-0.3-1.51-0.34-1.55-0.04-0.04-1.54 1.31-3.33 3.01zm-5.03 14.36c-0.47 0.46-0.49 0.9-0.09 1.48 0.44 0.62 1.55 0.51 1.94-0.2 0.26-0.47 0.26-0.57 0-1.04-0.37-0.67-1.3-0.79-1.85-0.24z"/>
	</g>
</svg>