<svg xmlns="http://www.w3.org/2000/svg" width="128" height="128" viewBox="0 0 33.867 33.867"><path d="M27.279 1.27a.523.523 0 0 0-.3.08c-.445.257-10.134 5.945-10.134 5.945l.432.749s.453.738-.228 1.131l-2.18 1.258s-.356.177-.548.178h-.193l-.137.08-.76-1.314-9.598 5.477s-.315.247-.069.674l1.357 2.348 24.15-13.943L27.69 1.54s-.148-.251-.41-.268zM5.482 18.897 23.054 8.752l.532.922s-3.65 2.232-5.148 3.188c-1.498.955-2.458 1.834-2.438 2.497.02.663.606 4.06.663 4.676.058.616.098.865.32 1.048.222.183.74.339.39.722-.349.383-.297.833-.268 1.22.028.385.1.849.43 1.035.328.187.457.255.128.47-.33.217-.546.718-.434 1.406.112.688.195 1.146.334 1.364.139.219.209.295.207.607-.001.312.045.752-.217.904l-5.225 3.017s-1.39.651-1.959.301c-.569-.35-.811-1.66-.977-3.123-.167-1.464.254-2.514-.074-5.975-.33-3.462-.541-3.134-1.053-3.54-.437-.346-1.077-.515-1.398-.467-.3.045-1.28.088-1.385-.127Z" style="font-variation-settings:normal;opacity:1;vector-effect:none;fill:#fff;fill-opacity:1;stroke:#323232;stroke-width:.790856;stroke-linecap:butt;stroke-linejoin:miter;stroke-miterlimit:4;stroke-dasharray:none;stroke-dashoffset:0;stroke-opacity:1;-inkscape-stroke:none;paint-order:fill markers stroke;stop-color:#000;stop-opacity:1"/><path d="M20.218 11.848c1.12.16 1.265.38 1.677 1.077.412.698.563 1.088.32 1.604-.243.517-.5.739-1.044 1.052-.543.314-2.65 1.669-3.142 1.723-.492.055-.986-.055-1.193-.238-.206-.183-.553-.625-.553-.625l.332 2.276s.183-.271.39-.39c.206-.12.357-.097.697-.128.34-.03.73-.036 1.288-.358.557-.322 3.685-2.293 4.316-2.694.63-.4.929-.536.904-.705-.024-.17-.195-.291-.43-.395-.233-.103-.539-.394-1.03-1.23-.492-.835-.717-1.256-.682-1.514.034-.259.296-.694.296-.694z" style="font-variation-settings:normal;opacity:1;fill:#323232;fill-opacity:1;stroke:#323232;stroke-width:.0988572;stroke-linecap:butt;stroke-linejoin:miter;stroke-miterlimit:4;stroke-dasharray:none;stroke-dashoffset:0;stroke-opacity:1;paint-order:fill markers stroke;stop-color:#000;stop-opacity:1"/><path d="m24.095 8.151.497.838s4.254-2.48 4.778-2.809c.524-.328.714-.425.557-.697l-.306-.53Z" style="font-variation-settings:normal;opacity:1;vector-effect:none;fill:#fff;fill-opacity:1;stroke:#323232;stroke-width:.790856;stroke-linecap:butt;stroke-linejoin:miter;stroke-miterlimit:4;stroke-dasharray:none;stroke-dashoffset:0;stroke-opacity:1;-inkscape-stroke:none;paint-order:fill markers stroke;stop-color:#000;stop-opacity:1"/><path d="m24.279 9.256 3.011-1.74m-1.822.625" style="font-variation-settings:normal;opacity:1;vector-effect:none;fill:none;fill-opacity:1;stroke:#323232;stroke-width:.790856;stroke-linecap:butt;stroke-linejoin:miter;stroke-miterlimit:4;stroke-dasharray:none;stroke-dashoffset:0;stroke-opacity:1;-inkscape-stroke:none;paint-order:fill markers stroke;stop-color:#000;stop-opacity:1"/><path d="m27.87 7.183 2.327-1.344" style="font-variation-settings:normal;vector-effect:none;fill:none;fill-opacity:1;stroke:#323232;stroke-width:.790856;stroke-linecap:butt;stroke-linejoin:miter;stroke-miterlimit:4;stroke-dasharray:none;stroke-dashoffset:0;stroke-opacity:1;-inkscape-stroke:none;paint-order:fill markers stroke;stop-color:#000"/><path d="M30.346 6.152c.204-.123.187-.307-.059-.741l-.167-.28-.31.419zM13.235 9.112l3.454-1.994.854 1.479-3.592 2.073Z" style="font-variation-settings:normal;opacity:1;fill:#323232;fill-opacity:1;stroke:#323232;stroke-width:.0988572;stroke-linecap:butt;stroke-linejoin:miter;stroke-miterlimit:4;stroke-dasharray:none;stroke-dashoffset:0;stroke-opacity:1;paint-order:fill markers stroke;stop-color:#000;stop-opacity:1"/><path d="M13.593 10.462 11.5 11.67" style="font-variation-settings:normal;opacity:1;fill:none;fill-opacity:1;stroke:#323232;stroke-width:.790856;stroke-linecap:round;stroke-linejoin:miter;stroke-miterlimit:4;stroke-dasharray:none;stroke-dashoffset:0;stroke-opacity:1;paint-order:fill markers stroke;stop-color:#000;stop-opacity:1"/><path d="m27.876 1.216 1.156 2.002" style="font-variation-settings:normal;opacity:1;vector-effect:none;fill:none;fill-opacity:1;stroke:#323232;stroke-width:.790856;stroke-linecap:butt;stroke-linejoin:miter;stroke-miterlimit:4;stroke-dasharray:none;stroke-dashoffset:0;stroke-opacity:1;-inkscape-stroke:none;paint-order:fill markers stroke;stop-color:#000;stop-opacity:1"/><path d="m25.882 1.341.744-.43s-.506-.168-.554-.14c-.049.028-.232.083-.232.206 0 .122.042.364.042.364zM4.192 13.895l.897-.519s-.34-.271-.415-.227c-.076.043-.493.243-.511.299-.018.056.029.447.029.447z" style="font-variation-settings:normal;opacity:1;fill:#323232;fill-opacity:1;stroke:#323232;stroke-width:.0988572;stroke-linecap:butt;stroke-linejoin:miter;stroke-miterlimit:4;stroke-dasharray:none;stroke-dashoffset:0;stroke-opacity:1;paint-order:fill markers stroke;stop-color:#000;stop-opacity:1"/><path d="M17.466 13.695s-1.283 1.725-1.223 1.745c.11.036.287.087.417.096.202.013.483-.085.483-.085s.586.453 1.34.59c.753.135 1.278-.168 1.278-.168s-1.572-.52-2.295-2.178z" style="font-variation-settings:normal;opacity:1;fill:#323232;fill-opacity:1;stroke:#323232;stroke-width:.0988572;stroke-linecap:butt;stroke-linejoin:round;stroke-miterlimit:4;stroke-dasharray:none;stroke-dashoffset:0;stroke-opacity:1;paint-order:fill markers stroke;stop-color:#000;stop-opacity:1"/><path d="M17.96 14.674a6.239 6.239 0 0 0 1.925.696s-.06.2-.56.24c-.499.041-1.514-.272-1.514-.272z" style="font-variation-settings:normal;opacity:1;fill:#323232;fill-opacity:1;stroke:#323232;stroke-width:.0988572;stroke-linecap:butt;stroke-linejoin:round;stroke-miterlimit:4;stroke-dasharray:none;stroke-dashoffset:0;stroke-opacity:1;paint-order:fill markers stroke;stop-color:#000;stop-opacity:1"/><path d="m12.566 32.787 5.462-3.153M10.835 20.86c.57 5.946.15 7.601.453 8.38.303.78.407.958 1.177.514l3.206-1.852s.288-.074.234-.612c-.054-.537-1.16-7.967-1.16-7.967l-.8.005-.079-.026s-.886.668-1.347.79c-.46.124-1.144.22-1.387.296-.242.074-.28.323-.297.473zM4.755 14.317l1.613 2.794" style="font-variation-settings:normal;opacity:1;vector-effect:none;fill:none;fill-opacity:1;stroke:#323232;stroke-width:.790856;stroke-linecap:butt;stroke-linejoin:miter;stroke-miterlimit:4;stroke-dasharray:none;stroke-dashoffset:0;stroke-opacity:1;-inkscape-stroke:none;paint-order:fill markers stroke;stop-color:#000;stop-opacity:1"/><path d="m5.752 13.741 1.613 2.794M6.75 13.165l1.613 2.794M7.748 12.59l1.612 2.793M8.745 12.013l1.613 2.794" style="font-variation-settings:normal;vector-effect:none;fill:none;fill-opacity:1;stroke:#323232;stroke-width:.790856;stroke-linecap:butt;stroke-linejoin:miter;stroke-miterlimit:4;stroke-dasharray:none;stroke-dashoffset:0;stroke-opacity:1;-inkscape-stroke:none;paint-order:fill markers stroke;stop-color:#000"/><circle cx="-1.393" cy="21.683" r=".236" style="font-variation-settings:normal;opacity:1;vector-effect:none;fill:#323232;fill-opacity:1;fill-rule:evenodd;stroke:#323232;stroke-width:.197714;stroke-linecap:round;stroke-linejoin:round;stroke-miterlimit:4;stroke-dasharray:none;stroke-dashoffset:0;stroke-opacity:1;-inkscape-stroke:none;stop-color:#000;stop-opacity:1" transform="rotate(-30)"/></svg>