<svg height="128" width="128" xmlns="http://www.w3.org/2000/svg">
  <g fill="#fff">
    <path d="M 79.781895,89.762036 H 49.933611 v -4.87693 L 65.151103,64.717348 q 3.446854,-4.656919 4.766925,-7.62708 1.35674,-3.006829 1.35674,-6.343676 0,-4.253564 -1.980107,-6.893707 -1.980107,-2.640142 -5.20695,-2.640142 -4.07022,0 -6.30701,2.823486 -2.20012,2.786817 -2.20012,8.067103 h -6.49035 q 0,-7.370399 4.03355,-11.917312 4.03356,-4.546912 10.96393,-4.546912 6.380347,0 10.047212,3.923545 3.666865,3.886877 3.666865,10.377229 0,7.920428 -8.250446,18.73768 L 57.670701,84.22507 h 22.111194 z"/>
    <path d="m 127.33789,61.45508 h -6.54492 A 56.849998,56.849998 0 0 0 66.54492,7.20703 V 0.66211 H 61.45508 V 7.20703 A 56.849998,56.849998 0 0 0 7.20703,61.45508 H 0.66211 v 5.08984 h 6.54492 a 56.849998,56.849998 0 0 0 54.24805,54.24805 v 6.54492 h 5.08984 v -6.54492 a 56.849998,56.849998 0 0 0 54.24805,-54.24805 h 6.54492 z m -11.65039,0 h -5.61523 v 5.08984 h 5.61523 A 51.75,51.75 0 0 1 66.54492,115.6875 v -5.61523 h -5.08984 v 5.61523 A 51.75,51.75 0 0 1 12.3125,66.54492 h 5.61523 V 61.45508 H 12.3125 A 51.75,51.75 0 0 1 61.45508,12.3125 v 5.61523 h 5.08984 V 12.3125 a 51.75,51.75 0 0 1 49.14258,49.14258 z"/>
  </g>
</svg>
