<svg xmlns="http://www.w3.org/2000/svg" width="128" height="128" viewBox="0 0 33.867 33.867"><path d="M2.648 28.226c1.839 3.857 4.496 4.42 4.496 4.42l1.509-1.508v-3.923s-.017-.315.157-.488l1.346-1.346s-.548-.82-.093-1.275l.478-.477-1.475-1.475-5.153 5.154s-.214-.199-.325-.087c-.111.11-.983.928-.94 1.005zM9.715 21.508l1.788 1.788.222-.223s.165-.172.495-.18c.33-.008.637.138.637.138l3.29-3.29 1.165 1.164 2.247-2.612s.046-.054-.034-.119-.211.157-.503-.134l-1.12-1.12s-.238-.261-.088-.411c.15-.15.288-.28.142-.426l-1.88-1.88-6.311 6.311.472.472zM13.452 23.637l1.231-1.232.51.51-.07.07s-.052.062-.006.142c.046.08.361.778.519.762.157-.016.382.014.27.174-.11.16-.19.14-.04.426.15.284.692 1.527.754 1.519.063-.008.133-.035.206.054.074.09.057.187-.74.996-.798.808-1.005.993-1.072.941-.05-.04-1.26-1.651-1.419-2.96-.054-.412.048-1.085-.143-1.402zM18.023 21.453l1.958-2.328s.825.706 1.927 1.308c1.101.602 1.606.76 1.606.76l-1.129 2.82s-1.687-.666-2.74-1.372c-1.053-.705-1.622-1.188-1.622-1.188zM16.736 13.57l1.98 1.981 7.342-7.342-1.98-1.98Z" style="font-variation-settings:normal;opacity:1;vector-effect:none;fill:#fff;fill-opacity:1;stroke:#323232;stroke-width:.540115;stroke-linecap:butt;stroke-linejoin:miter;stroke-miterlimit:4;stroke-dasharray:none;stroke-dashoffset:0;stroke-opacity:1;-inkscape-stroke:none;paint-order:fill markers stroke;stop-color:#000;stop-opacity:1"/><path d="m23.067 4.45 2.037 2.037" style="font-variation-settings:normal;opacity:1;fill:none;fill-opacity:1;stroke:#323232;stroke-width:.337571;stroke-linecap:butt;stroke-linejoin:miter;stroke-miterlimit:4;stroke-dasharray:none;stroke-dashoffset:0;stroke-opacity:1;paint-order:fill markers stroke;stop-color:#000;stop-opacity:1"/><path d="m24.438 6.344 1.504 1.58.398-.399c.08-.078-.005-.206-.005-.206l-.298-.298.878-.878.044-.163.742-.742h.112l1.3-1.3.065-.113 1.229-1.23.062.063.98-.979-.706-.705-.984.984.06.06-1.203 1.202-.111.064-1.322 1.322v.127l-.75.75-.129.034-.796.796c-.084.085-.143.067-.192.018-.049-.049.035-.129.035-.129l-.067-.067-.052.052-.079-.079.05-.05s-.123-.103-.219-.134c-.096-.03-.142.015-.142.015zm6.086-4.594c.493-.49.51-.319.453-.196-.058.123-.254.364-.545.564-.247.17-.288.012.092-.368z" style="font-variation-settings:normal;opacity:1;fill:#323232;fill-opacity:1;stroke:#323232;stroke-width:.0675144;stroke-linecap:butt;stroke-linejoin:miter;stroke-miterlimit:4;stroke-dasharray:none;stroke-dashoffset:0;stroke-opacity:1;paint-order:fill markers stroke;stop-color:#000;stop-opacity:1"/><path d="m29.164 2.51.752.75" style="font-variation-settings:normal;opacity:1;fill:none;fill-opacity:1;stroke:#323232;stroke-width:.337571;stroke-linecap:butt;stroke-linejoin:miter;stroke-miterlimit:4;stroke-dasharray:none;stroke-dashoffset:0;stroke-opacity:1;paint-order:fill markers stroke;stop-color:#000;stop-opacity:1"/><path d="m29.5 2.173.752.751" style="font-variation-settings:normal;fill:none;fill-opacity:1;stroke:#323232;stroke-width:.337571;stroke-linecap:butt;stroke-linejoin:miter;stroke-miterlimit:4;stroke-dasharray:none;stroke-dashoffset:0;stroke-opacity:1;paint-order:fill markers stroke;stop-color:#000"/><path d="m10.44 19.164 1.248-1.25s-.388-.21-.417-.18l-.071.07-.282-.7s-.762.28-.817.345c-.054.065-.057.122-.057.122l.117.117c-.493.434-.34.828-.166 1.028z" style="font-variation-settings:normal;opacity:1;fill:#323232;fill-opacity:1;stroke:#323232;stroke-width:.0675144;stroke-linecap:butt;stroke-linejoin:miter;stroke-miterlimit:4;stroke-dasharray:none;stroke-dashoffset:0;stroke-opacity:1;paint-order:fill markers stroke;stop-color:#000;stop-opacity:1"/><circle cx="-5.898" cy="20.386" r=".152" style="font-variation-settings:normal;opacity:1;vector-effect:none;fill:#7e7e7e;fill-opacity:1;fill-rule:evenodd;stroke:none;stroke-width:.135029;stroke-linecap:round;stroke-linejoin:round;stroke-miterlimit:4;stroke-dasharray:none;stroke-dashoffset:0;stroke-opacity:1;-inkscape-stroke:none;stop-color:#000;stop-opacity:1" transform="rotate(-45)"/><path d="m19.583 15.312-.311-.31M20.038 14.857l-.311-.311M18.574 14.509l-.678-.678M18.928 14.154l-.678-.678M19.283 13.8l-.678-.678M19.637 13.445l-.678-.678M19.992 13.09l-.679-.677M20.346 12.736l-.678-.678M20.7 12.382l-.678-.678M21.055 12.028l-.678-.679M21.41 11.673l-.679-.678M21.764 11.319l-.678-.678M22.118 10.964l-.678-.678M22.473 10.61l-.678-.678M22.827 10.255l-.678-.678M23.182 9.9l-.678-.677M23.536 9.546l-.678-.678M23.89 9.192l-.678-.678M24.245 8.838l-.678-.679M24.6 8.483l-.679-.678" style="font-variation-settings:normal;fill:none;fill-opacity:1;stroke:#323232;stroke-width:.337571;stroke-linecap:butt;stroke-linejoin:miter;stroke-miterlimit:4;stroke-dasharray:none;stroke-dashoffset:0;stroke-opacity:1;paint-order:fill markers stroke;stop-color:#000"/><path d="m24.156 7.57.679.678.578-.579-.678-.678Z" style="color:#000;fill:#323232;stroke-width:.127586;-inkscape-stroke:none;paint-order:fill markers stroke"/><path d="m20.493 14.402-.31-.311M21.404 13.49l-.311-.31M21.86 13.036l-.312-.311M22.315 12.58l-.311-.31M20.949 13.946l-.311-.31M22.77 12.125l-.311-.311M22.77 12.125l-.311-.311M23.225 11.67l-.31-.311M23.68 11.214l-.31-.31M24.136 10.759l-.311-.311M24.591 10.304l-.31-.311M25.047 9.848l-.311-.31M25.502 9.393l-.311-.311" style="font-variation-settings:normal;fill:none;fill-opacity:1;stroke:#323232;stroke-width:.337571;stroke-linecap:butt;stroke-linejoin:miter;stroke-miterlimit:4;stroke-dasharray:none;stroke-dashoffset:0;stroke-opacity:1;paint-order:fill markers stroke;stop-color:#000"/><path d="m25.838 9.057.474-.475.126-.375-.086-.078-.021.02-.617.784zM19.564 15.33l-.475.475-.375.126-.079-.086.021-.021.783-.617z" style="fill:#323232;fill-rule:evenodd;stroke-width:.337571;stroke-linecap:round;stroke-linejoin:round"/><path d="m22.77 12.125-.311-.311M17.885 11.794l.311.31M19.707 9.972l.31.311M20.162 9.517l.31.31M20.162 9.517l.31.31M20.617 9.062l.311.31M21.073 8.606l.31.311M21.528 8.15l.31.312M21.983 7.696l.311.31M17.43 12.249l.31.31M17.885 11.794l.311.31M18.34 11.338l.312.311M18.796 10.883l.31.31M19.251 10.428l.311.31M19.707 9.972l.31.311M22.439 7.24l.31.311M22.894 6.785l.31.31" style="font-variation-settings:normal;fill:none;fill-opacity:1;stroke:#323232;stroke-width:.337571;stroke-linecap:butt;stroke-linejoin:miter;stroke-miterlimit:4;stroke-dasharray:none;stroke-dashoffset:0;stroke-opacity:1;paint-order:fill markers stroke;stop-color:#000"/><path d="m23.23 6.449.474-.475.376-.125.078.086-.021.021-.783.617z" style="fill:#323232;fill-rule:evenodd;stroke-width:.337571;stroke-linecap:round;stroke-linejoin:round"/><path d="m16.52 13.16.31.31M16.975 12.704l.31.311M16.975 12.704l.31.311M15.695 13.983l.312.311M12.963 16.715l.312.311M13.419 16.26l.31.311M13.874 15.805l.311.31M14.33 15.35l.31.31M14.785 14.894l.31.311M15.24 14.439l.311.31M12.053 17.626l.31.311M12.508 17.17l.311.312" style="font-variation-settings:normal;fill:none;fill-opacity:1;stroke:#323232;stroke-width:.337571;stroke-linecap:butt;stroke-linejoin:miter;stroke-miterlimit:4;stroke-dasharray:none;stroke-dashoffset:0;stroke-opacity:1;paint-order:fill markers stroke;stop-color:#000"/><path d="m14.13 18.694.6.6s.118.118.388-.153l2.3-2.3s.17-.17 0-.341c-.172-.17-.547-.546-.547-.546Z" style="font-variation-settings:normal;opacity:1;fill:#323232;fill-opacity:1;stroke:#fff;stroke-width:.202543;stroke-linecap:butt;stroke-linejoin:miter;stroke-miterlimit:4;stroke-dasharray:none;stroke-dashoffset:0;stroke-opacity:1;paint-order:fill markers stroke;stop-color:#000;stop-opacity:1"/><path d="m10.552 20.247-.823.823" style="font-variation-settings:normal;opacity:1;vector-effect:none;fill:none;fill-opacity:1;stroke:#323232;stroke-width:.540115;stroke-linecap:butt;stroke-linejoin:miter;stroke-miterlimit:4;stroke-dasharray:none;stroke-dashoffset:0;stroke-opacity:1;-inkscape-stroke:none;paint-order:fill markers stroke;stop-color:#000;stop-opacity:1"/><circle cx="5.916" cy="-24.622" r=".182" style="font-variation-settings:normal;opacity:1;vector-effect:none;fill:#323232;fill-opacity:1;fill-rule:evenodd;stroke:#323232;stroke-width:.135029;stroke-linecap:round;stroke-linejoin:round;stroke-miterlimit:4;stroke-dasharray:none;stroke-dashoffset:0;stroke-opacity:1;-inkscape-stroke:none;stop-color:#000;stop-opacity:1" transform="rotate(135)"/><path d="m13.855 20.967-.8.802" style="font-variation-settings:normal;opacity:1;fill:none;fill-opacity:1;stroke:#323232;stroke-width:.270057;stroke-linecap:round;stroke-linejoin:miter;stroke-miterlimit:4;stroke-dasharray:none;stroke-dashoffset:0;stroke-opacity:1;paint-order:fill markers stroke;stop-color:#000;stop-opacity:1"/><path d="M2.871 28.002c2.047 2.023 2.155 1.88 3.312 2.751 1.158.871 1.671 1.206 1.671 1.206l-.71.687-2.9-1.887-1.596-2.533Z" style="font-variation-settings:normal;opacity:1;fill:#323232;fill-opacity:1;stroke:#323232;stroke-width:.0675144;stroke-linecap:butt;stroke-linejoin:miter;stroke-miterlimit:4;stroke-dasharray:none;stroke-dashoffset:0;stroke-opacity:1;paint-order:fill markers stroke;stop-color:#000;stop-opacity:1"/><path d="M9.932 24.303c-.308.534-.473.727-.723.978l-4.84 4.84M5.8 29.015l1.334-1.333M9.343 26.215l.25.25" style="font-variation-settings:normal;opacity:1;vector-effect:none;fill:none;fill-opacity:1;stroke:#323232;stroke-width:.540115;stroke-linecap:butt;stroke-linejoin:miter;stroke-miterlimit:4;stroke-dasharray:none;stroke-dashoffset:0;stroke-opacity:1;-inkscape-stroke:none;paint-order:fill markers stroke;stop-color:#000;stop-opacity:1"/><circle cx="-17.137" cy="21.766" r=".283" style="font-variation-settings:normal;opacity:1;fill:#fff;fill-opacity:1;fill-rule:evenodd;stroke:#323232;stroke-width:.270057;stroke-linecap:round;stroke-linejoin:round;stroke-miterlimit:4;stroke-dasharray:none;stroke-dashoffset:0;stroke-opacity:1;stop-color:#000;stop-opacity:1" transform="rotate(-45)"/><circle cx="-6.957" cy="24.186" r=".111" style="font-variation-settings:normal;opacity:1;vector-effect:none;fill:#323232;fill-opacity:1;fill-rule:evenodd;stroke:#323232;stroke-width:.135029;stroke-linecap:round;stroke-linejoin:round;stroke-miterlimit:4;stroke-dasharray:none;stroke-dashoffset:0;stroke-opacity:1;-inkscape-stroke:none;stop-color:#000;stop-opacity:1" transform="rotate(-45)"/><path d="M19.509 19.755c1.921 1.707 3.634 2.142 3.634 2.142" style="font-variation-settings:normal;opacity:1;vector-effect:none;fill:none;fill-opacity:1;stroke:#323232;stroke-width:.540115;stroke-linecap:butt;stroke-linejoin:miter;stroke-miterlimit:4;stroke-dasharray:none;stroke-dashoffset:0;stroke-opacity:1;-inkscape-stroke:none;paint-order:fill markers stroke;stop-color:#000;stop-opacity:1"/><path d="m10.708 21.197.587.586s1.451-1.418 1.565-1.717c.114-.3.105-.473-.164-.528-.319-.065-1.988 1.659-1.988 1.659z" style="font-variation-settings:normal;opacity:1;fill:#323232;fill-opacity:1;stroke:#323232;stroke-width:.0674687;stroke-linecap:butt;stroke-linejoin:miter;stroke-miterlimit:4;stroke-dasharray:none;stroke-dashoffset:0;stroke-opacity:1;paint-order:fill markers stroke;stop-color:#000;stop-opacity:1"/><path d="m11.106 21.378-.406.405" style="font-variation-settings:normal;opacity:1;vector-effect:none;fill:none;fill-opacity:1;stroke:#323232;stroke-width:.540115;stroke-linecap:butt;stroke-linejoin:miter;stroke-miterlimit:4;stroke-dasharray:none;stroke-dashoffset:0;stroke-opacity:1;-inkscape-stroke:none;paint-order:fill markers stroke;stop-color:#000;stop-opacity:1"/><path d="m10.551 21.53.41.41" style="font-variation-settings:normal;opacity:1;fill:none;fill-opacity:1;stroke:#323232;stroke-width:.405086;stroke-linecap:round;stroke-linejoin:miter;stroke-miterlimit:4;stroke-dasharray:none;stroke-dashoffset:0;stroke-opacity:1;paint-order:fill markers stroke;stop-color:#000;stop-opacity:1"/><path d="m15.457 18.448 1.13 1.131" style="font-variation-settings:normal;opacity:1;vector-effect:none;fill:none;fill-opacity:1;stroke:#323232;stroke-width:.540115;stroke-linecap:round;stroke-linejoin:miter;stroke-miterlimit:4;stroke-dasharray:none;stroke-dashoffset:0;stroke-opacity:1;-inkscape-stroke:none;paint-order:fill markers stroke;stop-color:#000;stop-opacity:1"/><path d="m14.047 18.148 2.28-2.28" style="font-variation-settings:normal;opacity:1;fill:none;fill-opacity:1;stroke:#323232;stroke-width:.675144;stroke-linecap:round;stroke-linejoin:miter;stroke-miterlimit:4;stroke-dasharray:none;stroke-dashoffset:0;stroke-opacity:1;paint-order:fill markers stroke;stop-color:#000;stop-opacity:1"/><circle cx="-2.836" cy="24.644" r=".104" style="font-variation-settings:normal;opacity:1;vector-effect:none;fill:#323232;fill-opacity:1;fill-rule:evenodd;stroke:#323232;stroke-width:.135029;stroke-linecap:round;stroke-linejoin:round;stroke-miterlimit:4;stroke-dasharray:none;stroke-dashoffset:0;stroke-opacity:1;-inkscape-stroke:none;stop-color:#000;stop-opacity:1" transform="rotate(-45)"/><circle cx="-2.836" cy="24.841" r=".104" style="font-variation-settings:normal;vector-effect:none;fill:#323232;fill-opacity:1;fill-rule:evenodd;stroke:#323232;stroke-width:.135029;stroke-linecap:round;stroke-linejoin:round;stroke-miterlimit:4;stroke-dasharray:none;stroke-dashoffset:0;stroke-opacity:1;-inkscape-stroke:none;stop-color:#000" transform="rotate(-45)"/><path d="m14.818 18.766-4.03 4.03" style="font-variation-settings:normal;opacity:1;fill:none;fill-opacity:1;stroke:#323232;stroke-width:.405086;stroke-linecap:butt;stroke-linejoin:miter;stroke-miterlimit:4;stroke-dasharray:none;stroke-dashoffset:0;stroke-opacity:1;paint-order:fill markers stroke;stop-color:#000;stop-opacity:1"/><path d="m18.633 12.858.445-.445" style="font-variation-settings:normal;opacity:1;fill:none;fill-opacity:1;stroke:#323232;stroke-width:.270057;stroke-linecap:round;stroke-linejoin:miter;stroke-miterlimit:4;stroke-dasharray:none;stroke-dashoffset:0;stroke-opacity:1;paint-order:fill markers stroke;stop-color:#000;stop-opacity:1"/><path d="m19.546 13.772.445-.445M19.816 11.675l1.01-1.01M20.73 12.588l1.01-1.01M21.565 9.926l1.01-1.01M23.314 8.177l1.011-1.01M22.479 10.84l1.01-1.012M23.907 9.41l.365-.364" style="font-variation-settings:normal;fill:none;fill-opacity:1;stroke:#323232;stroke-width:.270057;stroke-linecap:round;stroke-linejoin:miter;stroke-miterlimit:4;stroke-dasharray:none;stroke-dashoffset:0;stroke-opacity:1;paint-order:fill markers stroke;stop-color:#000"/><circle cx="11.641" cy="23.664" r=".173" style="font-variation-settings:normal;opacity:1;vector-effect:none;fill:#323232;fill-opacity:1;fill-rule:evenodd;stroke:#323232;stroke-width:.135029;stroke-linecap:round;stroke-linejoin:round;stroke-miterlimit:4;stroke-dasharray:none;stroke-dashoffset:0;stroke-opacity:1;-inkscape-stroke:none;stop-color:#000;stop-opacity:1" transform="rotate(-45)"/><path d="M15.591 20.63c.924-.615 1.205.299 1.214.464.006.12.097.221.144.26.048.04.113.09.163.07.05-.02.087-.024.114-.055l.107-.125-1.2-1.268zM14.738 22.017c.497.792.813.517.883.511.07-.005.093.109.09.155-.002.047-.178.223-.178.223l-.915-.77z" style="font-variation-settings:normal;opacity:1;fill:#323232;fill-opacity:1;stroke:#323232;stroke-width:.0674687;stroke-linecap:butt;stroke-linejoin:miter;stroke-miterlimit:4;stroke-dasharray:none;stroke-dashoffset:0;stroke-opacity:1;paint-order:fill markers stroke;stop-color:#000;stop-opacity:1"/><path d="m15.618 22.675 1.416-1.417" style="font-variation-settings:normal;opacity:1;fill:none;fill-opacity:1;stroke:#323232;stroke-width:.198437;stroke-linecap:butt;stroke-linejoin:miter;stroke-miterlimit:4;stroke-dasharray:none;stroke-dashoffset:0;stroke-opacity:1;paint-order:fill markers stroke;stop-color:#000;stop-opacity:1"/><path d="M15.004 20.997c.415.9 1.073.844 1.073.844s-.224.125-.572.01c-.197-.064-.656-.419-.685-.471-.03-.053.184-.383.184-.383z" style="font-variation-settings:normal;opacity:1;fill:#323232;fill-opacity:1;stroke:#323232;stroke-width:.0674687;stroke-linecap:butt;stroke-linejoin:round;stroke-miterlimit:4;stroke-dasharray:none;stroke-dashoffset:0;stroke-opacity:1;paint-order:fill markers stroke;stop-color:#000;stop-opacity:1"/></svg>