<?xml version="1.0" encoding="UTF-8"?>
<svg width="128" height="128" version="1.1" xml:space="preserve" xmlns="http://www.w3.org/2000/svg" xmlns:xlink="http://www.w3.org/1999/xlink"><defs><linearGradient id="linearGradient2" x1="104.67" x2="23.328" y1="104.67" y2="23.327" gradientUnits="userSpaceOnUse"><stop stop-color="#fff" offset="0"/><stop stop-color="#858585" offset="1"/></linearGradient></defs><path d="m63.993 8.15c-10.38 0-22.796 3.526-30.355 7.22-8.038 3.266-14.581 7.287-19.253 14.509-6.283 9.715-9.334 24.721-7.255 48.603 5.964 2.07 11.333 1.45 16.842-0.415-1.727-7.884-1.448-15.764 0.496-22.204 2.126-7.044 6.404-12.722 12.675-13.701l2.77-0.432 0.074 2.803c0.054 2.043 0.09 4.17 0.116 6.335l0.027 6.312c-0.037 8.798-0.382 18.286-1.277 27.845 5.637 1.831 14.806 2.954 23.964 3.019l4.597-0.058c8.53-0.275 16.742-1.449 21.665-3.063-1.093-14.65-1.166-29.434-1.52-41.334l-0.097-3.283 3.18 0.824c6.238 1.617 10.55 7.376 12.76 14.507 2.02 6.51 2.353 14.37 0.64 22.248a29.764 29.764 0 0 0 12.847 1.181l4.399-0.588c1.033-18.811-1.433-37.403-6.27-46.264l-4.408-6.376c-4.647-5.357-10.62-8.399-17.665-11.074-6.746-3.458-18.358-6.614-28.95-6.614zm0 3.05c6.494 0 13.37 1.942 19.274 4.516-3.123 2.758-6.971 4.665-11.067 5.754l-7.852 17.31-6.838-16.882c-4.757-0.93-9.26-2.957-12.783-6.174 6.173-2.643 13.082-4.524 19.266-4.524zm0.58 28.539 3.512 5.327-3.497 5.053-3.53-5.053zm0 11.888 3.512 5.328-3.497 5.052-3.53-5.053 3.514-5.327zm0 11.733 3.512 5.327-3.497 5.054-3.53-5.054zm0 11.876 3.512 5.327-3.497 5.054-3.53-5.053 3.514-5.327zm25.079 13.715c-6.61 2.055-15.829 2.907-25.277 2.951-9.5 0.045-18.965-0.744-25.902-2.892-0.205 1.785-0.43 3.569-0.678 5.347 5.968 2.132 16.346 3.408 26.497 3.36 10.143-0.05 20.355-1.444 25.912-3.433a241.3 241.3 0 0 1-0.552-5.333zm1.368 9.086c-6.782 2.308-16.533 3.262-26.53 3.31-2.935 0.015-5.866-0.052-8.724-0.213l-4.227-0.315c-5.358-0.5-10.307-1.382-14.329-2.758-0.897 5.43-2.02 10.772-3.413 15.903 2.117 1.06 4.41 1.968 6.835 2.733l3.97 1.096c15.85 3.805 35.88 2.156 49.601-3.513-1.355-5.09-2.387-10.57-3.183-16.243z" fill="url(#linearGradient2)"/></svg>
