<svg xmlns="http://www.w3.org/2000/svg" viewBox="0 0 33.87 33.87"><path d="m15.33 18.67 7.5-7.5 1.75 1.03-1.45 2.15s-.34-.36-.57-.45-.39-.05-.69.25-3.11 3.14-3.2 3.29c-.07.14.04.33.12.5s1.64 4.22 1.69 4.4c.05.17.1.17.2.2.08.05.33.27.06.45s-1.77.68-2.1.72-.59.14-.66-.18c-.07-.33-.72-2.9-.9-3.62-.32-.91-1.18-1.12-1.75-.86z" style="font-variation-settings:normal;opacity:1;vector-effect:none;fill:#fff;fill-opacity:1;stroke:#323232;stroke-width:.543422;stroke-linecap:butt;stroke-linejoin:miter;stroke-miterlimit:4;stroke-dasharray:none;stroke-dashoffset:0;stroke-opacity:1;-inkscape-stroke:none;paint-order:fill markers stroke;stop-color:#000;stop-opacity:1"/><path d="M14.55 19.46v-1.11l8.17-8.19.96.56s.2-.16.33-.47.22-.62.22-.62l-.07-.07s.01-.22.37-.58l4.91-4.91-.22-.39-1.36-1.24-.09.1-.72-.69-.18-.03-15.75 15.74 2.55 2.55.21-.2c.12-.1.67-.45.67-.45zM10.72 18.27s-.3 1.15-.75 2.07C9.53 21.26 8.71 22 8.71 22l-6.68 6.68c-.41.41.4.92 1.26 1.57s2.27 2.23 2.57 2.56c.29.32.58.04.58.04l.76-.75c.4-.41.32-.3.54-.76l4.28-9.3c.2-.44 1.1-1.36 1.1-1.36zm-1.1 4.21.19.03c.38.11.72.57.73.82.01.26.04.34-.46 1.17-.51.84-1.17.39-1.38.2-.22-.17-.85-.64-.3-1.2l.62-.62c.3-.3.43-.4.6-.4zM7.47 24.6c.1 0 .23.04.34.22.25.4.94 1.6 1.01 1.83q.1.34-.18.86c-.19.34-.98 2.4-1.3 2.62-.31.22-.42-.03-.67.19-.24.22-.49.36-.76.08s-2.58-1.8-2.23-2.15l3.54-3.54s.11-.1.25-.1zM24.05 14.38l1.15-1.7s1.4.63 3.43 1.18 2.17.51 2.17.51l.4-.17.72.16-.23 2.23s-2.8-.38-4.88-1.14a50 50 0 0 1-2.76-1.07z" style="font-variation-settings:normal;opacity:1;vector-effect:none;fill:#fff;fill-opacity:1;stroke:#323232;stroke-width:.543422;stroke-linecap:butt;stroke-linejoin:miter;stroke-miterlimit:4;stroke-dasharray:none;stroke-dashoffset:0;stroke-opacity:1;-inkscape-stroke:none;paint-order:fill markers stroke;stop-color:#000;stop-opacity:1"/><path d="m28.53 2.49.88.79s.06-.11.06-.19 0-.19.15-.33l.6-.6-.54-.53-.7.7s-.4.11-.45.16" style="font-variation-settings:normal;opacity:1;vector-effect:none;fill:#323232;fill-opacity:1;stroke:none;stroke-width:.543422;stroke-linecap:butt;stroke-linejoin:miter;stroke-miterlimit:4;stroke-dasharray:none;stroke-dashoffset:0;stroke-opacity:1;-inkscape-stroke:none;paint-order:fill markers stroke;stop-color:#000;stop-opacity:1"/><circle cx="11.44" cy="22.68" r=".29" style="font-variation-settings:normal;opacity:1;vector-effect:none;fill:#323232;fill-opacity:1;fill-rule:evenodd;stroke:none;stroke-width:.135855;stroke-linecap:round;stroke-linejoin:round;stroke-miterlimit:4;stroke-dasharray:none;stroke-dashoffset:0;stroke-opacity:1;-inkscape-stroke:none;stop-color:#000;stop-opacity:1" transform="rotate(-45)"/><circle cx="17.37" cy="22.65" r=".29" style="font-variation-settings:normal;vector-effect:none;fill:#323232;fill-opacity:1;fill-rule:evenodd;stroke:none;stroke-width:.135855;stroke-linecap:round;stroke-linejoin:round;stroke-miterlimit:4;stroke-dasharray:none;stroke-dashoffset:0;stroke-opacity:1;-inkscape-stroke:none;stop-color:#000" transform="rotate(-45)"/><path d="m31.26 16.56.31-2.24" style="font-variation-settings:normal;opacity:1;vector-effect:none;fill:none;fill-opacity:1;stroke:#323232;stroke-width:.543422;stroke-linecap:butt;stroke-linejoin:miter;stroke-miterlimit:4;stroke-dasharray:none;stroke-dashoffset:0;stroke-opacity:1;-inkscape-stroke:none;paint-order:fill markers stroke;stop-color:#000;stop-opacity:1"/><path d="M24.75 13.5c3.1 1.34 4.17 1.5 4.17 1.5" style="font-variation-settings:normal;opacity:1;fill:none;fill-opacity:1;stroke:#323232;stroke-width:.54338;stroke-linecap:round;stroke-linejoin:miter;stroke-miterlimit:4;stroke-dasharray:none;stroke-dashoffset:0;stroke-opacity:1;paint-order:fill markers stroke;stop-color:#000;stop-opacity:1"/><path d="m10.67 17.37 2.44-2.44-.6-.6s-.2-.23-.34-.08l-.93.93s-.08.1-.14.37z" style="font-variation-settings:normal;opacity:1;vector-effect:none;fill:#323232;fill-opacity:1;stroke:none;stroke-width:.543422;stroke-linecap:butt;stroke-linejoin:miter;stroke-miterlimit:4;stroke-dasharray:none;stroke-dashoffset:0;stroke-opacity:1;-inkscape-stroke:none;paint-order:fill markers stroke;stop-color:#000;stop-opacity:1"/><path d="m11.99 14.62-.3-.3" style="font-variation-settings:normal;opacity:1;fill:none;fill-opacity:1;stroke:#323232;stroke-width:.271712;stroke-linecap:butt;stroke-linejoin:miter;stroke-miterlimit:4;stroke-dasharray:none;stroke-dashoffset:0;stroke-opacity:1;paint-order:fill markers stroke;stop-color:#000;stop-opacity:1"/><path d="m24.86 3.18 1.65-1.65s-.1-.13-.21-.17c-.12-.04-.45-.24-.45-.24s-.24.07-.32-.01a5 5 0 0 0-.5-.45q-.1-.07-.2.05c-.08.08-.65.61-.63.69.01.08.29.48.4.54.1.07.22.19.26.36.03.17 0 .88 0 .88" style="font-variation-settings:normal;opacity:1;vector-effect:none;fill:#323232;fill-opacity:1;stroke:none;stroke-width:.543422;stroke-linecap:butt;stroke-linejoin:miter;stroke-miterlimit:4;stroke-dasharray:none;stroke-dashoffset:0;stroke-opacity:1;-inkscape-stroke:none;paint-order:fill markers stroke;stop-color:#000;stop-opacity:1"/><path d="M19.32 18.91c1.13-.3 1.15-.26 1.35-.45.2-.2 1.46-1.48 1.61-1.65q.24-.26.12-.62c-.09-.23-.37-1.12-.37-1.12" style="font-variation-settings:normal;opacity:1;fill:none;fill-opacity:1;stroke:#323232;stroke-width:.203783;stroke-linecap:butt;stroke-linejoin:miter;stroke-miterlimit:4;stroke-dasharray:none;stroke-dashoffset:0;stroke-opacity:1;paint-order:fill markers stroke;stop-color:#000;stop-opacity:1"/><path d="M21.3 15.1c.28-.23.47-.1.68.08s.42.75.42.75.04-.22.16-.37l.62-.79-.73-.86-1.36 1.06z" style="font-variation-settings:normal;opacity:1;vector-effect:none;fill:#323232;fill-opacity:1;stroke:none;stroke-width:.543422;stroke-linecap:butt;stroke-linejoin:miter;stroke-miterlimit:4;stroke-dasharray:none;stroke-dashoffset:0;stroke-opacity:1;-inkscape-stroke:none;paint-order:fill markers stroke;stop-color:#000;stop-opacity:1"/><path d="m23.16 14.6.7.58" style="font-variation-settings:normal;opacity:1;fill:none;fill-opacity:1;stroke:#323232;stroke-width:.271712;stroke-linecap:butt;stroke-linejoin:miter;stroke-miterlimit:4;stroke-dasharray:none;stroke-dashoffset:0;stroke-opacity:1;paint-order:fill markers stroke;stop-color:#000;stop-opacity:1"/><path d="M19.45 16.7c.16 1.69 1.33 1.24 1.33 1.24s-.19.22-.58.2c-.4-.03-.8-.6-.82-.69q-.02-.12-.18-.07c-.11.03-.42.06-.42.06z" style="font-variation-settings:normal;opacity:1;fill:#323232;fill-opacity:1;stroke:#323232;stroke-width:.0679278;stroke-linecap:butt;stroke-linejoin:round;stroke-miterlimit:4;stroke-dasharray:none;stroke-dashoffset:0;stroke-opacity:1;paint-order:fill markers stroke;stop-color:#000;stop-opacity:1"/><path d="M2.49 28.34c2 1.7 3.23 2.97 3.5 3.24l.79.79-.58.57-4.22-4.06Z" style="font-variation-settings:normal;opacity:1;vector-effect:none;fill:#323232;fill-opacity:1;stroke:none;stroke-width:.543422;stroke-linecap:butt;stroke-linejoin:miter;stroke-miterlimit:4;stroke-dasharray:none;stroke-dashoffset:0;stroke-opacity:1;-inkscape-stroke:none;paint-order:fill markers stroke;stop-color:#000;stop-opacity:1"/><circle cx="-16.91" cy="26.81" r=".22" style="font-variation-settings:normal;opacity:1;vector-effect:none;fill:#323232;fill-opacity:1;fill-rule:evenodd;stroke:none;stroke-width:.135855;stroke-linecap:round;stroke-linejoin:round;stroke-miterlimit:4;stroke-dasharray:none;stroke-dashoffset:0;stroke-opacity:1;-inkscape-stroke:none;stop-color:#000;stop-opacity:1" transform="rotate(-45)"/><circle cx="-8.26" cy="23.2" r=".22" style="font-variation-settings:normal;opacity:1;vector-effect:none;fill:#323232;fill-opacity:1;fill-rule:evenodd;stroke:none;stroke-width:.135855;stroke-linecap:round;stroke-linejoin:round;stroke-miterlimit:4;stroke-dasharray:none;stroke-dashoffset:0;stroke-opacity:1;-inkscape-stroke:none;stop-color:#000;stop-opacity:1" transform="rotate(-45)"/><path d="m18.42 12.36 2.22-2.22s.24-.22.46 0l.38.37s.17.24-.07.48l-2.15 2.14s-.3.37-.55.12l-.3-.3s-.3-.28.01-.6" style="font-variation-settings:normal;opacity:1;vector-effect:none;fill:#323232;fill-opacity:1;stroke:none;stroke-width:.543422;stroke-linecap:butt;stroke-linejoin:miter;stroke-miterlimit:4;stroke-dasharray:none;stroke-dashoffset:0;stroke-opacity:1;-inkscape-stroke:none;paint-order:fill markers stroke;stop-color:#000;stop-opacity:1"/><path d="m27.77 2.53-15.8 15.8M13.51 15.24l.82.82M12.65 16.08l.77.76M20.9 9.45l1.41 1.42" style="font-variation-settings:normal;opacity:1;vector-effect:none;fill:none;fill-opacity:1;stroke:#323232;stroke-width:.543422;stroke-linecap:butt;stroke-linejoin:miter;stroke-miterlimit:4;stroke-dasharray:none;stroke-dashoffset:0;stroke-opacity:1;-inkscape-stroke:none;paint-order:fill markers stroke;stop-color:#000;stop-opacity:1"/><path d="m23.34 7.78 1.45-1.45" style="font-variation-settings:normal;opacity:1;fill:none;fill-opacity:1;stroke:#323232;stroke-width:.407567;stroke-linecap:round;stroke-linejoin:miter;stroke-miterlimit:4;stroke-dasharray:none;stroke-dashoffset:0;stroke-opacity:1;paint-order:fill markers stroke;stop-color:#000;stop-opacity:1"/><path d="m25.8 5.33 1.45-1.45" style="font-variation-settings:normal;fill:none;fill-opacity:1;stroke:#323232;stroke-width:.407567;stroke-linecap:round;stroke-linejoin:miter;stroke-miterlimit:4;stroke-dasharray:none;stroke-dashoffset:0;stroke-opacity:1;paint-order:fill markers stroke;stop-color:#000"/><path d="M16.26 19.06c1.26-.33 2.61-1.85 2.61-1.85M21.07 12.98l1.42.88" style="font-variation-settings:normal;opacity:1;vector-effect:none;fill:none;fill-opacity:1;stroke:#323232;stroke-width:.543422;stroke-linecap:butt;stroke-linejoin:miter;stroke-miterlimit:4;stroke-dasharray:none;stroke-dashoffset:0;stroke-opacity:1;-inkscape-stroke:none;paint-order:fill markers stroke;stop-color:#000;stop-opacity:1"/><path d="M28.72 4.98c.56.6.55.59.64.62s.44.47.53.44c.1-.04.4-.35.47-.44s.11-.1.05-.18c-.07-.07-.16-.13-.13-.2.03-.06-.03-.16-.1-.3-.09-.15-.11-.28-.25-.45l-.29-.37Z" style="font-variation-settings:normal;opacity:1;vector-effect:none;fill:#323232;fill-opacity:1;stroke:none;stroke-width:.543422;stroke-linecap:butt;stroke-linejoin:miter;stroke-miterlimit:4;stroke-dasharray:none;stroke-dashoffset:0;stroke-opacity:1;-inkscape-stroke:none;paint-order:fill markers stroke;stop-color:#000;stop-opacity:1"/><path d="M29.14 5.13 24.8 9.46" style="font-variation-settings:normal;opacity:1;fill:none;fill-opacity:1;stroke:#323232;stroke-width:.339639;stroke-linecap:butt;stroke-linejoin:miter;stroke-miterlimit:4;stroke-dasharray:none;stroke-dashoffset:0;stroke-opacity:1;paint-order:fill markers stroke;stop-color:#000;stop-opacity:1"/><path d="M24.45 9.3c.14-.07.37-.02.37-.02l.4-.4s-.04-.05-.04-.11l.01-.15z" style="font-variation-settings:normal;opacity:1;vector-effect:none;fill:#323232;fill-opacity:1;stroke:none;stroke-width:.543422;stroke-linecap:butt;stroke-linejoin:miter;stroke-miterlimit:4;stroke-dasharray:none;stroke-dashoffset:0;stroke-opacity:1;-inkscape-stroke:none;paint-order:fill markers stroke;stop-color:#000;stop-opacity:1"/><path d="m28.74 5.58.2.2" style="font-variation-settings:normal;opacity:1;fill:none;fill-opacity:1;stroke:#323232;stroke-width:.339639;stroke-linecap:butt;stroke-linejoin:miter;stroke-miterlimit:4;stroke-dasharray:none;stroke-dashoffset:0;stroke-opacity:1;paint-order:fill markers stroke;stop-color:#000;stop-opacity:1"/><path d="m28.33 5.98.2.2M25.92 8.4l.2.2" style="font-variation-settings:normal;fill:none;fill-opacity:1;stroke:#323232;stroke-width:.339639;stroke-linecap:butt;stroke-linejoin:miter;stroke-miterlimit:4;stroke-dasharray:none;stroke-dashoffset:0;stroke-opacity:1;paint-order:fill markers stroke;stop-color:#000"/><path d="m24.83 9.48.13.13.2-.07.67-.67-.2-.19Z" style="color:#000;fill:#323232;stroke-width:.128368;-inkscape-stroke:none;paint-order:fill markers stroke"/><path d="m26.86 8.26 1.3-1.3s.29.61.46.76a23 23 0 0 1 2.9 3.1l-.78.79s-.58-.18-1.58-1.19c-1-1-1.28-1.44-1.5-1.71-.28-.34-.45-.25-.8-.45Z" style="font-variation-settings:normal;opacity:1;vector-effect:none;fill:#fff;fill-opacity:1;stroke:#323232;stroke-width:.543422;stroke-linecap:butt;stroke-linejoin:miter;stroke-miterlimit:4;stroke-dasharray:none;stroke-dashoffset:0;stroke-opacity:1;-inkscape-stroke:none;paint-order:fill markers stroke;stop-color:#000;stop-opacity:1"/><path d="m30.41 11.4.92-.93M27.62 8.61c.6-.14.78-.56.98-.98" style="font-variation-settings:normal;opacity:1;vector-effect:none;fill:none;fill-opacity:1;stroke:#323232;stroke-width:.543422;stroke-linecap:butt;stroke-linejoin:miter;stroke-miterlimit:4;stroke-dasharray:none;stroke-dashoffset:0;stroke-opacity:1;-inkscape-stroke:none;paint-order:fill markers stroke;stop-color:#000;stop-opacity:1"/></svg>