<?xml version="1.0" encoding="UTF-8" standalone="no"?>
<!-- Created with Inkscape (http://www.inkscape.org/) -->

<svg
   width="71.099998"
   height="72"
   viewBox="0 0 18.811874 19.05"
   version="1.1"
   id="svg1"
   xml:space="preserve"
   inkscape:version="1.4 (86a8ad7, 2024-10-11)"
   sodipodi:docname="Perk_RIP_Rounds.svg"
   inkscape:export-filename="Perk_RIP_Rounds.png"
   inkscape:export-xdpi="96"
   inkscape:export-ydpi="96"
   xmlns:inkscape="http://www.inkscape.org/namespaces/inkscape"
   xmlns:sodipodi="http://sodipodi.sourceforge.net/DTD/sodipodi-0.dtd"
   xmlns="http://www.w3.org/2000/svg"
   xmlns:svg="http://www.w3.org/2000/svg"><sodipodi:namedview
     id="namedview1"
     pagecolor="#cdcdcd"
     bordercolor="#000000"
     borderopacity="0.25"
     inkscape:showpageshadow="2"
     inkscape:pageopacity="0.0"
     inkscape:pagecheckerboard="0"
     inkscape:deskcolor="#d1d1d1"
     inkscape:document-units="px"
     inkscape:zoom="5.1019224"
     inkscape:cx="51.745201"
     inkscape:cy="23.422544"
     inkscape:window-width="1920"
     inkscape:window-height="1009"
     inkscape:window-x="-8"
     inkscape:window-y="-8"
     inkscape:window-maximized="1"
     inkscape:current-layer="layer1" /><defs
     id="defs1" /><g
     inkscape:label="Layer 1"
     inkscape:groupmode="layer"
     id="layer1"><g
       id="g17"
       transform="translate(-33.390075,-0.22941346)"><path
         id="rect1-7"
         style="fill:#ffffff;fill-opacity:1;fill-rule:evenodd;stroke-width:0.529167;stroke-linecap:round;stroke-miterlimit:29"
         d="m 50.268766,0.34933268 c -0.941168,0.03016 -3.846793,2.30425212 -3.846793,2.30425212 l -2.206067,2.1822957 -1.03973,0.3116089 0.343131,0.3426148 0.900721,-0.2408122 1.300695,-1.3394531 0.504879,-0.5172811 0.352433,-0.3622518 c 0,0 0.274102,-0.2915086 0.461471,-0.2263428 0.187369,0.065166 0.10542,0.3513998 0.10542,0.3513998 -0.162061,0.2657797 -0.660942,0.8263061 -0.660942,0.8263061 0.288947,-0.2293514 1.020818,-1.1026186 1.255738,-1.2645223 0.133383,-0.091933 0.249419,-0.1655069 0.346749,-0.2144572 0.04867,-0.024472 0.09052,-0.042518 0.139009,-0.053743 0.0485,-0.011218 0.127032,-0.024897 0.197921,0.045992 0.07089,0.070887 0.05773,0.1504574 0.04651,0.1989542 -0.01122,0.048497 -0.02926,0.090348 -0.05374,0.1390096 -0.04895,0.09733 -0.123041,0.2118151 -0.214974,0.3451986 -0.16136,0.2341214 -0.987193,1.0238374 -1.215429,1.3120646 0,0 0.635825,-0.5729132 0.797884,-0.6960815 0,0 0.157613,-0.1066143 0.296622,0.00827 0.275231,-0.209989 0.74009,-0.5563431 1.380278,-0.9859863 0.66888,-0.996485 1.314165,-2.11714988 1.031978,-2.39933679 -0.04992,-0.04992 -0.126397,-0.0708161 -0.223759,-0.0676961 z M 47.911804,3.0292725 c -0.088,0.021298 -0.916167,0.9549319 -1.46761,1.2733073 -0.280277,0.161818 -0.588595,0.071313 -0.588595,0.071313 l 0.84801,-1.0552327 -1.99471,2.2024495 0.735356,0.7353557 0.03101,-0.011369 0.850594,-0.7751464 0.733289,-0.7250204 -0.458887,0.3736206 c 0,0 -0.108985,-0.3478048 0.04496,-0.6144328 0.350451,-0.6070037 1.31317,-1.4334288 1.27279,-1.4738118 -0.0013,-0.00126 -0.0034,-0.00172 -0.0062,-0.00103 z m -5.210534,2.3915852 -7.638811,7.6388103 0.274919,0.274919 7.63881,-7.6393274 z m 1.721858,0.2945557 -1.112593,0.2811198 -7.82898,7.8289798 0.01809,0.56844 0.458887,0.45837 8.06514,-8.0651404 1.071253,-0.3999756 z m -9.733256,7.7168416 -0.162264,0.162264 0.08888,0.587561 c -0.265052,-0.137829 -0.531367,-0.146638 -0.681096,0.0031 l -0.294555,0.294555 c -0.213095,0.213095 -0.106099,0.66233 0.239262,1.007691 l 1.020789,1.075795 c -0.20263,-0.209549 -0.193259,-0.506103 -0.331241,-0.660424 l -0.468886,-0.524408 c -0.186711,-0.20882 -0.197558,-0.517126 5.17e-4,-0.715201 0.09904,-0.09904 0.227918,-0.148313 0.357084,-0.148312 0.129165,0 0.258564,0.04927 0.357601,0.148312 l 0.781864,0.781864 c 0.118926,3.43e-4 0.124039,-0.109967 0.25716,-0.04074 L 35.834317,15.267369 35.16943,14.620817 35.013883,13.75627 Z m -0.267684,1.397848 c -0.04387,-3.28e-4 -0.08141,0.01216 -0.108003,0.03876 -0.08511,0.08511 -0.02558,0.28189 0.133842,0.441317 l 0.55087,0.55087 c 0.0034,-0.0038 0.0052,-0.0088 0.0088,-0.0124 l 0.294039,-0.294039 c 9.6e-4,-9.6e-4 0.0021,-0.0016 0.0031,-0.0026 l -0.549321,-0.54932 c -0.109606,-0.109606 -0.236798,-0.171876 -0.333313,-0.172599 z"
         sodipodi:nodetypes="cccccccccsccssssscsccccssccccccccccccccccccccccccccccccsscccsscccccccscccsscssscc" /><g
         id="g16"
         transform="rotate(45,39.336732,13.914309)"
         style="display:inline"><path
           id="rect1"
           style="fill:#ffffff;fill-opacity:1;fill-rule:evenodd;stroke-width:0.529167;stroke-linecap:round;stroke-miterlimit:29"
           d="m 40.001693,-3.3191772 c -0.753039,0 -1.296562,4.4601928 -1.296562,4.4601928 l -0.01705,3.102653 -0.514697,0.9554973 h 0.484724 l 0.466636,-0.8071859 -0.0275,-1.8670695 -0.0085,-0.7229533 -0.007,-0.5048787 c 0,0 -0.01217,-0.4000329 0.166399,-0.4864435 C 39.426712,0.7242244 39.57108,0.98449615 39.57108,0.98449615 39.64442,1.2870255 39.688,2.0360514 39.688,2.0360514 39.73014,1.6695595 39.63017,0.5343277 39.6818,0.25373128 c 0.02931,-0.15932263 0.05932,-0.29292208 0.09353,-0.39635823 0.01711,-0.0517181 0.03411,-0.0942009 0.06046,-0.13642578 0.02636,-0.0422249 0.07183,-0.10748698 0.172083,-0.10748698 0.100249,0 0.147273,0.0652621 0.173633,0.10748698 0.02636,0.0422249 0.04336,0.0847077 0.06046,0.13642578 0.03421,0.10343611 0.06267,0.23703562 0.09198,0.39635823 0.05145,0.27964775 0.02579,1.42177622 0.06821,1.78697102 0,0 0.04448,-0.8545199 0.07198,-1.05620615 0,0 0.05022,-0.28040274 0.350978,-0.19041764 0.30076,0.0899851 0.197001,0.50093289 0.197001,0.50093289 l -0.08837,1.8898071 -0.03914,1.1337809 0.469222,0.8805665 h 0.465605 l -0.51418,-0.9554973 -0.01705,-3.102653 c 0,0 -0.543522,-4.4601928 -1.296561,-4.4601928 z M 38.030754,5.7283325 V 16.531291 H 38.41936 V 5.7283325 Z m 3.553271,0 V 16.531291 h 0.38809 V 5.7283325 Z M 38.030754,17.05839 v 0.229444 l 0.478523,0.352433 c -0.284879,0.08996 -0.479557,0.272459 -0.479557,0.484208 v 0.415995 c 0,0.301362 0.393187,0.543636 0.8816,0.543636 h 2.180745 c 0.488413,0 0.8816,-0.242274 0.8816,-0.543636 v -0.415995 c 0,-0.211749 -0.194678,-0.39425 -0.479557,-0.484208 l 0.478007,-0.352433 V 17.05839 h -0.457853 l -0.721403,0.501262 H 39.210527 L 38.489124,17.05839 Z m 0.959631,0.781348 H 41.013 c 0.28012,0 0.505396,0.225276 0.505396,0.505395 0,0.28012 -0.225276,0.505913 -0.505396,0.505913 h -2.022615 c -0.280119,0 -0.505396,-0.225793 -0.505396,-0.505913 0,-0.280119 0.225277,-0.505395 0.505396,-0.505395 z"
           sodipodi:nodetypes="ccccccccczccsscsscscczccccccczcccccccccccscssssssccccccccssssssss" /><path
           id="rect3-4"
           style="fill:#ffffff;fill-rule:evenodd;stroke-width:0.145503;stroke-linecap:round;stroke-miterlimit:29"
           d="m 39.521118,2.7578164 c 0,0 0.281824,-0.1539207 0.365587,-0.466529 0.17012,-0.6348949 0.08532,-1.9422684 0.142491,-1.9422684 0.05711,0 -0.03901,1.2652455 0.1424,1.9422684 0.07968,0.2973889 0.402347,0.466529 0.402347,0.466529 L 40.711456,1.4118039 40.573943,4.379717 H 39.521118 L 39.374437,1.4118039 Z"
           sodipodi:nodetypes="cssscccccc" /><path
           style="fill:#ffffff;fill-opacity:1;fill-rule:evenodd;stroke:none;stroke-width:0.529167;stroke-linecap:round;stroke-miterlimit:29;stroke-dasharray:none;stroke-opacity:1"
           d="M 38.868723,5.7045489 V 16.77656 l 0.414876,0.388947 h 1.426136 L 41.17647,16.7247 V 5.7045489 L 40.58873,4.7192178 h -1.132266 z"
           id="path13"
           sodipodi:nodetypes="ccccccccc" /><rect
           style="fill:#ffffff;fill-opacity:1;fill-rule:evenodd;stroke:none;stroke-width:0.311191;stroke-linecap:round;stroke-miterlimit:29;stroke-dasharray:none;stroke-opacity:1"
           id="rect13-5"
           width="2.4418468"
           height="0.43451443"
           x="38.780769"
           y="18.122501"
           rx="0.40697452"
           ry="0.21725722" /></g></g></g></svg>
