<svg height="128" width="128" xmlns="http://www.w3.org/2000/svg">
  <g fill="#fff">
    <path d="m 127.33789,61.455074 h -6.54492 A 56.849998,56.849998 0 0 0 66.54492,7.207026 v -6.54492 h -5.08984 v 6.54492 A 56.849998,56.849998 0 0 0 7.20703,61.455074 H 0.66211 v 5.08984 h 6.54492 a 56.849998,56.849998 0 0 0 54.24805,54.248046 v 6.54493 h 5.08984 v -6.54493 a 56.849998,56.849998 0 0 0 54.24805,-54.248046 h 6.54492 z m -11.65039,0 h -5.61523 v 5.08984 h 5.61523 A 51.75,51.75 0 0 1 66.54492,115.68749 v -5.61523 h -5.08984 v 5.61523 A 51.75,51.75 0 0 1 12.3125,66.544914 h 5.61523 v -5.08984 H 12.3125 A 51.75,51.75 0 0 1 61.45508,12.312496 v 5.61523 h 5.08984 v -5.61523 a 51.75,51.75 0 0 1 49.14258,49.142578 z"/>
    <path d="m 52.556491,90.212753 h -6.542813 v -45.32184 l -11.247756,5.03576 v -6.175238 l 16.761362,-7.314717 h 1.029207 z M 65.565243,63.379872 67.880957,36.694019 H 91.148374 V 42.97953 H 73.357806 l -1.249751,14.592677 q 3.308163,-2.315715 7.13093,-2.315715 6.248753,0 9.814218,4.851973 3.565466,4.851974 3.565466,13.048868 0,8.307166 -3.896282,13.048867 -3.859524,4.741701 -10.62288,4.741701 -6.02821,0 -9.814219,-3.933039 -3.786009,-3.933039 -4.33737,-10.880182 h 6.101724 q 0.551361,4.594671 2.609773,6.947143 2.095171,2.315715 5.440092,2.315715 3.786009,0 5.917936,-3.271407 2.131928,-3.308163 2.131928,-8.895284 0,-5.256304 -2.315714,-8.564467 -2.278957,-3.308164 -6.175239,-3.308164 -3.234649,0 -5.182789,1.690839 l -1.727597,1.727597 z"/>
  </g>
</svg>
