<?xml version="1.0" encoding="UTF-8" standalone="no"?>
<!-- Created with Inkscape (http://www.inkscape.org/) -->

<svg width="144" height="144" viewBox="0 0 38.099999 38.100001" version="1.1" id="svg5" xmlns="http://www.w3.org/2000/svg" xmlns:svg="http://www.w3.org/2000/svg">
  <defs id="defs2" />
  <g id="layer1">
    <path id="path5742" style="font-variation-settings:normal;vector-effect:none;fill:#ffffff;fill-opacity:1;stroke:none;stroke-width:1.36106;stroke-linecap:butt;stroke-linejoin:miter;stroke-miterlimit:4;stroke-dasharray:none;stroke-dashoffset:0;stroke-opacity:1;-inkscape-stroke:none;paint-order:fill markers stroke;stop-color:#000000" d="m 13.442528,4.3832692 c 0,0 -1.084402,0.25837 -1.704058,0.4907392 -0.619658,0.2323703 -1.44582,0.3354445 -1.44582,0.3354445 L 9.7504388,5.932476 c 0,0 0.6713932,1.1101473 0.5164762,2.065454 -0.06493,0.4004631 -0.139305,0.8972007 -0.207234,2.034867 h 3.490946 v 3.482297 H 9.9301181 c -0.087235,2.181968 -0.1273743,3.965616 -0.050555,4.810568 0.1549149,1.704067 0.1291239,1.910606 0.1291239,1.910606 -0.1567459,7.630653 -0.1549538,6.429858 0.283972,7.10116 0.438924,0.671299 1.574981,1.497369 2.039722,1.678103 0.464744,0.180732 0.516477,0.180808 0.516477,0.180808 v -3.746584 h 12.339275 v 3.746584 c 0,0 0.05151,-7.6e-5 0.516253,-0.180808 0.464737,-0.180734 1.600801,-1.006804 2.039723,-1.678103 0.438924,-0.671302 0.440946,0.529493 0.284195,-7.10116 0,0 -0.02602,-0.206539 0.128898,-1.910606 0.07681,-0.844889 0.03616,-2.628768 -0.05102,-4.810568 h -3.638141 v -3.482297 h 3.506563 C 27.907093,8.9061551 27.834542,8.3955938 27.770055,7.99793 27.615143,7.0426233 28.286308,5.932476 28.286313,5.932476 L 27.744099,5.2094529 c 0,0 -0.826164,-0.1030787 -1.445817,-0.3354445 -0.619659,-0.2323692 -1.70406,-0.4907392 -1.70406,-0.4907392 -0.555074,1.2240014 -1.376241,3.2651104 -2.196348,3.6792212 -2.377147,0.2173866 -4.586139,0.1405009 -6.758774,0 C 14.643512,7.0726147 14.045833,5.6528254 13.442528,4.3832692 Z M 11.730262,15.230022 h 14.576451 v 3.636289 H 11.730262 Z m 0,4.689319 H 26.306713 V 23.55563 H 11.730262 Z" />
    <g id="g1" transform="matrix(1.1271549,-0.19874782,0.19874782,1.1271549,-2.5213834,0.76743889)" style="stroke-width:0.873712">
      <path id="path7358-1" style="font-variation-settings:normal;vector-effect:none;fill:#ffffff;fill-opacity:1;stroke:none;stroke-width:1.08785;stroke-linecap:butt;stroke-linejoin:miter;stroke-miterlimit:4;stroke-dasharray:none;stroke-dashoffset:0;stroke-opacity:1;-inkscape-stroke:none;paint-order:fill markers stroke;stop-color:#000000" d="m 7.6652016,10.956756 c -0.011261,-0.01826 -0.022436,-0.03684 -0.03391,-0.05485 -0.025013,-0.03923 -0.050339,-0.07795 -0.07614,-0.115965 -0.025815,-0.03802 -0.052054,-0.07539 -0.078619,-0.112188 -0.026579,-0.0368 -0.05348,-0.07295 -0.080777,-0.108563 -0.027296,-0.03561 -0.054943,-0.07065 -0.082927,-0.105097 -0.027985,-0.03445 -0.056287,-0.06833 -0.084919,-0.101629 -0.02863,-0.03332 -0.057672,-0.066 -0.086912,-0.09817 -0.029239,-0.03215 -0.05877,-0.0638 -0.08858,-0.09486 -0.029811,-0.03105 -0.059913,-0.06142 -0.090253,-0.09137 -0.03034,-0.03001 -0.060922,-0.05951 -0.091756,-0.0884 C 6.8395736,9.95682 6.8085896,9.928439 6.7773026,9.900614 6.7460136,9.872789 6.7143936,9.845521 6.6826906,9.818714 6.6509886,9.791924 6.6191356,9.765618 6.5870546,9.739836 6.5549716,9.714034 6.5228136,9.688749 6.4903936,9.663962 6.4579736,9.639182 6.4252676,9.614911 6.3925506,9.591096 6.3598336,9.56728 6.3269836,9.543951 6.2940056,9.521089 6.2610316,9.498186 6.2279626,9.4757 6.1947626,9.453781 6.1615636,9.431871 6.1283576,9.410498 6.0949746,9.389491 6.0615916,9.368474 6.0280196,9.347855 5.9944926,9.327743 5.9609636,9.30764 5.9274226,9.287934 5.8937903,9.268705 5.8601553,9.249495 5.8264113,9.230743 5.7927103,9.212367 5.7590103,9.193972 5.7253063,9.175963 5.6915765,9.158421 5.6578506,9.1408746 5.6241076,9.1237499 5.5903896,9.107022 5.5566704,9.0903239 5.5229774,9.0739547 5.4893071,9.05803 5.4556355,9.0421159 5.4220725,9.0265904 5.3884903,9.0114308 5.3549082,8.9962915 5.3213964,8.9816192 5.2879405,8.9672342 5.2544859,8.9528397 5.2211159,8.9387728 5.1878245,8.9251219 5.1545284,8.911471 5.1212251,8.8981489 5.0881375,8.8852535 5.0550463,8.8723188 5.0220469,8.859732 4.9892025,8.8474802 4.9563568,8.8352926 4.9237399,8.8234853 4.8911754,8.8119604 4.8586075,8.8004485 4.8261539,8.7890987 4.7939077,8.7782172 4.7616614,8.767337 4.7295975,8.7568442 4.6977112,8.7465586 4.6658236,8.7362741 4.6340791,8.7264951 4.6025883,8.7168554 4.5710976,8.7072146 4.539918,8.6979633 4.5088646,8.6889588 4.4467554,8.67095 4.3854261,8.6540439 4.3252907,8.6383089 4.2651563,8.6225741 4.2061245,8.6079615 4.1482752,8.5943512 4.0904245,8.5807711 4.0338813,8.5682219 3.9786242,8.5566175 3.9233675,8.5450222 3.869505,8.5342504 3.8171513,8.5245035 3.7647962,8.514686 3.7139573,8.5059301 3.6648155,8.4978482 c -0.049142,-0.00815 -0.096599,-0.015525 -0.1422189,-0.022157 -0.04562,-0.00655 -0.089513,-0.012475 -0.1313017,-0.01776 -0.041788,-0.00526 -0.081609,-0.00973 -0.1192564,-0.01379 -0.037648,-0.00406 -0.073043,-0.00744 -0.1062402,-0.0105 -0.0332,-0.00289 -0.064136,-0.00555 -0.092573,-0.00765 -0.012591,-0.00109 -0.022821,-0.00178 -0.03443,-0.00209 -0.022619,0.00944 -0.045844,0.019278 -0.066859,0.027896 -1.082355,0.4429824 -2.16635975,1.4249012 -2.16635975,1.4249012 0,0 0.60095395,-0.2391583 2.24039235,-0.1050808 1.639442,0.1340724 2.8995451,1.8841504 3.001371,2.1962824 0.101828,0.312128 0.1751189,0.359194 0.5220739,0.111734 0.2014132,-0.143664 0.656555,-0.601781 1.0957964,-1.122651 z" />
      <path id="path13750" style="font-variation-settings:normal;vector-effect:none;fill:#ffffff;fill-opacity:1;stroke:none;stroke-width:1.08785;stroke-linecap:butt;stroke-linejoin:miter;stroke-miterlimit:4;stroke-dasharray:none;stroke-dashoffset:0;stroke-opacity:1;-inkscape-stroke:none;paint-order:fill markers stroke;stop-color:#000000" d="M 8.2931001,6.2448348 C 8.1340511,6.2412648 7.964881,6.2521743 7.8093523,6.2919798 7.3213158,6.4167126 4.617218,7.6442682 3.474883,8.1213252 5.2776324,8.249577 7.0236026,9.0315813 8.0000897,10.611305 8.3174739,10.234942 8.643064,9.7995803 8.8993096,9.3615812 9.411976,7.952415 9.8890919,6.3341069 8.2931001,6.2448385 Z" />
      <path style="font-variation-settings:normal;vector-effect:none;fill:#ffffff;fill-opacity:1;stroke:none;stroke-width:1.08785;stroke-linecap:butt;stroke-linejoin:miter;stroke-miterlimit:4;stroke-dasharray:none;stroke-dashoffset:0;stroke-opacity:1;-inkscape-stroke:none;paint-order:fill markers stroke;stop-color:#000000" d="m 7.8970099,11.425091 c -0.3800644,0.388965 -0.7389321,0.855944 -1.1645294,1.07734 0,0 0.3187449,1.562172 -0.080181,2.169384 -0.3989285,0.607213 -0.6355114,0.68497 -1.1205041,0.625947 -0.2886624,-0.03513 -0.1433925,0.03596 -0.6227562,-0.278191 L 4.4137387,15.72713 c 0,0 0.228102,0.07294 0.3847381,0.113474 1.1521974,0.298105 1.4480711,0.04004 2.1667502,-0.379642 0.6180917,-0.360944 0.9078596,-0.967036 0.9575081,-1.749048 0.049651,-0.782002 -0.025726,-2.28683 -0.025725,-2.28683 z" id="path7855-7" />
      <path style="font-variation-settings:normal;vector-effect:none;fill:#ffffff;fill-opacity:1;stroke:none;stroke-width:1.08785;stroke-linecap:butt;stroke-linejoin:miter;stroke-miterlimit:4;stroke-dasharray:none;stroke-dashoffset:0;stroke-opacity:1;-inkscape-stroke:none;paint-order:fill markers stroke;stop-color:#000000" d="m 5.4962287,12.190455 c -0.4136053,1.908407 -1.5775389,3.306084 -1.5775389,3.306084 0,0 -2.2995725,-1.774016 -2.8800974,-3.093588 -0.58052262,-1.319571 -0.51799008,-1.987584 -0.51799008,-1.987584 0,0 1.36678248,-0.362706 2.54246468,-0.151877 1.0645542,0.19089 1.9159285,0.78655 2.4331617,1.926965 z" id="path8139-1" />
    </g>
    <path id="path10534" style="font-variation-settings:normal;vector-effect:none;fill:#ffffff;fill-opacity:1;stroke:none;stroke-width:0.300122;stroke-linecap:butt;stroke-linejoin:miter;stroke-miterlimit:4;stroke-dasharray:none;stroke-dashoffset:0;stroke-opacity:1;-inkscape-stroke:none;paint-order:fill markers stroke;stop-color:#000000" d="m 13.820886,26.513323 v 2.322683 c 0,0 0.02156,2.443338 0.473433,4.573621 0.219336,1.034012 2.542459,2.239522 4.724152,2.269744 2.313063,0.03204 4.491609,-1.173469 4.724152,-2.269744 0.451891,-2.13028 0.473434,-4.573621 0.473434,-4.573621 v -2.322683 z" />
    <path id="path11631" style="font-variation-settings:normal;vector-effect:none;fill:#ffffff;fill-opacity:1;stroke:none;stroke-width:0.300122;stroke-linecap:butt;stroke-linejoin:miter;stroke-miterlimit:4;stroke-dasharray:none;stroke-dashoffset:0;stroke-opacity:1;-inkscape-stroke:none;paint-order:fill markers stroke;stop-color:#000000" d="m 21.971092,7.1925253 c 0.449057,-0.1122637 1.886049,-3.1658573 1.886049,-3.1658573 0.370473,-1.0777389 0.370473,-1.3471754 0.370473,-1.3471754 0,0 -3.177091,-0.2806593 -5.209077,-0.25821 m 0,0 c -2.031988,-0.022448 -5.209074,0.25821 -5.209074,0.25821 0,0 0,0.2694365 0.370471,1.3471754 0,0 1.436987,3.0535959 1.886045,3.1658573 1.960418,0.1034035 3.927504,0.1201032 5.905113,0" />
    <g id="g2" transform="matrix(1.1271549,0.19874782,-0.19874782,1.1271549,2.4484036,-5.9634871)" style="stroke-width:0.873712">
      <path id="path7358-1-7" style="font-variation-settings:normal;vector-effect:none;fill:#ffffff;fill-opacity:1;stroke:none;stroke-width:1.08785;stroke-linecap:butt;stroke-linejoin:miter;stroke-miterlimit:4;stroke-dasharray:none;stroke-dashoffset:0;stroke-opacity:1;-inkscape-stroke:none;paint-order:fill markers stroke;stop-color:#000000" d="m 26.201465,10.956756 c 0.0112,-0.01826 0.02244,-0.03684 0.0339,-0.05485 0.02501,-0.03923 0.05034,-0.07795 0.07614,-0.115964 0.02581,-0.03802 0.05206,-0.07539 0.07861,-0.112186 0.02658,-0.0368 0.05349,-0.07295 0.08078,-0.108564 0.0273,-0.03561 0.05495,-0.07065 0.08293,-0.105097 0.02798,-0.03445 0.05628,-0.06833 0.08492,-0.101629 0.02862,-0.03332 0.05767,-0.066 0.08691,-0.09817 0.02924,-0.03215 0.05878,-0.0638 0.08858,-0.09486 0.02981,-0.03105 0.0599,-0.06142 0.09025,-0.09137 0.03034,-0.02999 0.06092,-0.05949 0.09176,-0.088389 0.03083,-0.028844 0.06181,-0.057225 0.0931,-0.08505 0.03128,-0.027825 0.0629,-0.055093 0.0946,-0.0819 0.0317,-0.026796 0.06356,-0.053099 0.09563,-0.078887 0.03208,-0.025798 0.06424,-0.051082 0.09666,-0.075873 0.03242,-0.024779 0.06512,-0.049051 0.09784,-0.072867 0.03271,-0.023816 0.06557,-0.047145 0.09854,-0.070007 0.03297,-0.022903 0.06604,-0.045388 0.09925,-0.067307 0.0332,-0.021909 0.0664,-0.043284 0.09979,-0.064291 0.03338,-0.021017 0.06695,-0.041636 0.100485,-0.061748 0.03354,-0.020103 0.06706,-0.039809 0.100695,-0.059038 0.03363,-0.01921 0.06738,-0.037962 0.101084,-0.056338 0.0337,-0.018395 0.0674,-0.036404 0.101136,-0.053946 0.03373,-0.017542 0.06747,-0.034667 0.101188,-0.051394 0.03372,-0.016698 0.06741,-0.033068 0.101084,-0.048992 0.03366,-0.015914 0.06723,-0.031439 0.100821,-0.046599 0.03358,-0.015139 0.06709,-0.029812 0.100548,-0.044197 0.03345,-0.014394 0.06682,-0.028461 0.100117,-0.042112 0.0333,-0.013651 0.0666,-0.026973 0.09969,-0.039869 0.0331,-0.012935 0.06609,-0.025521 0.09893,-0.037774 0.03284,-0.012187 0.06546,-0.023995 0.09803,-0.035519 0.03257,-0.011512 0.06502,-0.022862 0.09727,-0.033743 0.03225,-0.01088 0.06431,-0.021373 0.09619,-0.031659 0.03189,-0.010279 0.06364,-0.020063 0.09512,-0.029703 0.03148,-0.00964 0.06268,-0.018892 0.09372,-0.027896 0.06211,-0.018007 0.123437,-0.034915 0.183574,-0.05065 0.06013,-0.015735 0.119169,-0.030348 0.177015,-0.043958 0.05785,-0.013581 0.114391,-0.026129 0.169652,-0.037734 0.05526,-0.011595 0.109123,-0.022367 0.161473,-0.032114 0.05235,-0.00982 0.103194,-0.018573 0.152335,-0.026655 0.04914,-0.00815 0.0966,-0.015525 0.142218,-0.022157 0.04562,-0.00655 0.08951,-0.012475 0.131302,-0.01776 0.04179,-0.00526 0.08161,-0.00973 0.119258,-0.013789 0.03764,-0.00406 0.07304,-0.00744 0.10624,-0.0105 0.0332,-0.00289 0.06413,-0.00555 0.09257,-0.00765 0.01258,-0.00109 0.02282,-0.00178 0.03443,-0.00209 0.02262,0.00944 0.04584,0.019278 0.06685,0.027896 1.082354,0.4429824 2.16636,1.4249004 2.16636,1.4249004 0,0 -0.600955,-0.2391574 -2.240394,-0.1050798 -1.639441,0.1340724 -2.899545,1.8841494 -3.00137,2.1962824 -0.101829,0.312127 -0.175119,0.359193 -0.522075,0.111733 -0.201413,-0.143664 -0.656554,-0.601782 -1.095796,-1.122651 z" />
      <path id="path13750-0" style="font-variation-settings:normal;vector-effect:none;fill:#ffffff;fill-opacity:1;stroke:none;stroke-width:1.08785;stroke-linecap:butt;stroke-linejoin:miter;stroke-miterlimit:4;stroke-dasharray:none;stroke-dashoffset:0;stroke-opacity:1;-inkscape-stroke:none;paint-order:fill markers stroke;stop-color:#000000" d="m 25.573567,6.2448348 c 0.159049,-0.00357 0.328219,0.00734 0.483747,0.047145 0.488037,0.1247329 3.192136,1.3522885 4.33447,1.8293455 -1.802749,0.1282518 -3.54872,0.9102561 -4.525206,2.4899797 C 25.549193,10.234942 25.223604,9.7995803 24.967359,9.3615812 24.454692,7.952415 23.977576,6.3341069 25.573567,6.2448385 Z" />
      <path style="font-variation-settings:normal;vector-effect:none;fill:#ffffff;fill-opacity:1;stroke:none;stroke-width:1.08785;stroke-linecap:butt;stroke-linejoin:miter;stroke-miterlimit:4;stroke-dasharray:none;stroke-dashoffset:0;stroke-opacity:1;-inkscape-stroke:none;paint-order:fill markers stroke;stop-color:#000000" d="m 25.969657,11.425091 c 0.380064,0.388965 0.738933,0.855944 1.16453,1.07734 0,0 -0.318745,1.562172 0.08018,2.169384 0.398927,0.607213 0.63551,0.68497 1.120504,0.625947 0.288662,-0.03513 0.143391,0.03596 0.622755,-0.278191 l 0.4953,0.707559 c 0,0 -0.228101,0.07294 -0.384737,0.113474 -1.152197,0.298105 -1.448072,0.04004 -2.16675,-0.379642 -0.618092,-0.360944 -0.90786,-0.967036 -0.957508,-1.749048 -0.04964,-0.782002 0.02572,-2.28683 0.02572,-2.28683 z" id="path7855-7-2" />
      <path style="font-variation-settings:normal;vector-effect:none;fill:#ffffff;fill-opacity:1;stroke:none;stroke-width:1.08785;stroke-linecap:butt;stroke-linejoin:miter;stroke-miterlimit:4;stroke-dasharray:none;stroke-dashoffset:0;stroke-opacity:1;-inkscape-stroke:none;paint-order:fill markers stroke;stop-color:#000000" d="m 28.370439,12.190455 c 0.413604,1.908407 1.577538,3.306084 1.577538,3.306084 0,0 2.299572,-1.774016 2.880098,-3.093588 0.580523,-1.319571 0.51799,-1.987584 0.51799,-1.987584 0,0 -1.366783,-0.362706 -2.542465,-0.151877 -1.064554,0.19089 -1.915928,0.78655 -2.433161,1.926965 z" id="path8139-1-9" />
    </g>
    <path id="rect20632-9" style="fill:#ffffff;fill-rule:evenodd;stroke-width:1.40259;stroke-linecap:round;stroke-linejoin:round" d="m 28.419644,10.838768 h -3.174172 v 1.948424 h 3.174172 z" />
    <path id="rect20632-9-4" style="fill:#ffffff;fill-rule:evenodd;stroke-width:1.40259;stroke-linecap:round;stroke-linejoin:round" d="M 9.617326,10.838768 H 12.7915 v 1.948424 H 9.617326 Z" />
    <path id="rect2325" style="fill:#ffffff;stroke-width:2.52466;stroke-linecap:round;stroke-linejoin:round" d="M 12.703051,20.805858 H 25.33402 v 1.925706 H 12.703051 Z" />
    <path id="rect2325-2" style="fill:#ffffff;stroke-width:2.52466;stroke-linecap:round;stroke-linejoin:round" d="M 12.703051,16.106127 H 25.33402 v 1.925708 H 12.703051 Z" />
  </g>
</svg>
