<?xml version="1.0" encoding="UTF-8" standalone="no"?>
<!-- Created with Inkscape (http://www.inkscape.org/) -->

<svg
   width="128"
   height="128"
   viewBox="0 0 33.866667 33.866668"
   version="1.1"
   id="svg5"
   inkscape:version="1.1.2 (b8e25be833, 2022-02-05)"
   sodipodi:docname="AK-47.svg"
   xmlns:inkscape="http://www.inkscape.org/namespaces/inkscape"
   xmlns:sodipodi="http://sodipodi.sourceforge.net/DTD/sodipodi-0.dtd"
   xmlns="http://www.w3.org/2000/svg"
   xmlns:svg="http://www.w3.org/2000/svg">
  <sodipodi:namedview
     id="namedview7"
     pagecolor="#ffffff"
     bordercolor="#999999"
     borderopacity="1"
     inkscape:pageshadow="0"
     inkscape:pageopacity="0"
     inkscape:pagecheckerboard="true"
     inkscape:document-units="px"
     showgrid="false"
     units="px"
     width="1000px"
     inkscape:zoom="4"
     inkscape:cx="62.875"
     inkscape:cy="29.75"
     inkscape:window-width="2560"
     inkscape:window-height="1377"
     inkscape:window-x="-8"
     inkscape:window-y="-8"
     inkscape:window-maximized="1"
     inkscape:current-layer="layer1" />
  <defs
     id="defs2" />
  <g
     inkscape:label="Layer 1"
     inkscape:groupmode="layer"
     id="layer1">
    <path
       id="path1427"
       style="font-variation-settings:normal;opacity:1;vector-effect:none;fill:#ffffff;fill-opacity:1;stroke:#323232;stroke-width:2.2401;stroke-linecap:butt;stroke-linejoin:miter;stroke-miterlimit:4;stroke-dasharray:none;stroke-dashoffset:0;stroke-opacity:1;-inkscape-stroke:none;paint-order:fill markers stroke;stop-color:#000000;stop-opacity:1"
       d="M 71.597656 43.068359 L 39.453125 75.214844 L 39.947266 81.765625 L 39.742188 82.046875 L 45.554688 86.242188 L 74.1875 54.818359 L 69.521484 50.150391 L 74.101562 45.572266 L 71.597656 43.068359 z "
       transform="scale(0.26458334)" />
    <path
       id="path1799"
       style="font-variation-settings:normal;opacity:1;vector-effect:none;fill:#ffffff;fill-opacity:1;stroke:#323232;stroke-width:2.2401;stroke-linecap:butt;stroke-linejoin:miter;stroke-miterlimit:4;stroke-dasharray:none;stroke-dashoffset:0;stroke-opacity:1;-inkscape-stroke:none;paint-order:fill markers stroke;stop-color:#000000;stop-opacity:1"
       d="M 85.230469 30.076172 C 85.230469 30.076172 83.91974 31.126169 83.001953 31.869141 C 82.084174 32.612108 73.792969 40.859375 73.792969 40.859375 L 78.519531 45.585938 L 73.960938 50.142578 L 76.824219 53.005859 C 76.824219 53.005859 78.353609 51.258477 78.8125 50.40625 C 79.271391 49.554019 79.94878 48.614458 81.019531 47.5 C 82.090283 46.385546 87.487702 40.287684 88.798828 38.976562 C 90.10995 37.665438 91.203125 36.048828 91.203125 36.048828 L 85.230469 30.076172 z "
       transform="scale(0.26458334)" />
    <path
       style="font-variation-settings:normal;opacity:1;vector-effect:none;fill:#ffffff;fill-opacity:1;stroke:#323232;stroke-width:0.592693;stroke-linecap:butt;stroke-linejoin:miter;stroke-miterlimit:4;stroke-dasharray:none;stroke-dashoffset:0;stroke-opacity:1;-inkscape-stroke:none;paint-order:fill markers stroke;stop-color:#000000;stop-opacity:1"
       d="m 12.958029,23.088811 1.601699,-1.763586 c 0,0 0.175434,0.186998 0.117616,0.383575 -0.05781,0.196578 -0.05781,0.393155 0.08094,0.670677 0.138758,0.27752 0.93085,2.133443 1.069611,2.22595 0.138761,0.09251 0.485663,0.370028 0.196578,0.705366 -0.289084,0.335339 -0.502596,0.433216 -0.884188,0.606668 -0.381591,0.173449 -0.809435,-0.02313 -0.89038,-0.219705 -0.08094,-0.196579 -0.849908,-2.110317 -0.948197,-2.312676 -0.09829,-0.202358 -0.343684,-0.296269 -0.343684,-0.296269 z"
       id="path2583"
       sodipodi:nodetypes="ccsssssssc" />
    <path
       style="font-variation-settings:normal;opacity:1;vector-effect:none;fill:#ffffff;fill-opacity:1;stroke:#323232;stroke-width:0.592693;stroke-linecap:butt;stroke-linejoin:miter;stroke-miterlimit:4;stroke-dasharray:none;stroke-dashoffset:0;stroke-opacity:1;-inkscape-stroke:none;paint-order:fill markers stroke;stop-color:#000000;stop-opacity:1"
       d="m 17.163957,18.505308 1.653919,-1.862172 c 0,0 0.959331,0.590225 2.520386,0.856183 1.561055,0.265958 3.260873,-0.104067 3.260873,-0.104067 l 0.583849,2.496514 c 0,0 -1.885754,0.42191 -4.082795,0.07501 -2.197043,-0.346902 -3.936232,-1.461464 -3.936232,-1.461464 z"
       id="path3593"
       sodipodi:nodetypes="ccsccsc" />
    <path
       style="font-variation-settings:normal;opacity:1;vector-effect:none;fill:#ffffff;fill-opacity:1;stroke:#323232;stroke-width:0.592693;stroke-linecap:butt;stroke-linejoin:miter;stroke-miterlimit:4;stroke-dasharray:none;stroke-dashoffset:0;stroke-opacity:1;-inkscape-stroke:none;paint-order:fill markers stroke;stop-color:#000000;stop-opacity:1"
       d="m 10.009221,22.431017 1.535908,1.110728 -3.7727736,8.034156 c 0,0 -0.1226478,0.269827 -0.3025317,0.44971 -0.179884,0.179884 -0.4088263,0.425181 -0.4088263,0.425181 0,0 -0.8334272,-0.84978 -1.847318,-1.569315 C 4.1997876,30.161941 3.7173712,29.843055 3.7173712,29.843055 l 3.7121515,-4.7751 c 0,0 0.2986421,-0.39934 0.5703817,-0.40512 0.2717397,-0.0058 0.699585,-0.260176 0.9771064,-0.641768 0.2775211,-0.381591 1.0322102,-1.59005 1.0322102,-1.59005 z"
       id="path3917"
       sodipodi:nodetypes="cccscsccssc" />
    <path
       style="font-variation-settings:normal;opacity:1;fill:none;fill-opacity:1;stroke:#323232;stroke-width:0.814954;stroke-linecap:butt;stroke-linejoin:miter;stroke-miterlimit:4;stroke-dasharray:none;stroke-dashoffset:0;stroke-opacity:1;paint-order:fill markers stroke;stop-color:#000000;stop-opacity:1"
       d="M 23.112134,7.8317955 25.397478,5.5464513"
       id="path5500"
       sodipodi:nodetypes="cc" />
    <path
       style="font-variation-settings:normal;fill:none;fill-opacity:1;stroke:#323232;stroke-width:0.666781;stroke-linecap:butt;stroke-linejoin:miter;stroke-miterlimit:4;stroke-dasharray:none;stroke-dashoffset:0;stroke-opacity:1;paint-order:fill markers stroke;stop-color:#000000"
       d="M 23.865036,8.584698 30.343919,2.1058149"
       id="path5500-9"
       sodipodi:nodetypes="cc" />
    <path
       style="font-variation-settings:normal;opacity:1;vector-effect:none;fill:#323232;fill-opacity:1;stroke:none;stroke-width:0.592693;stroke-linecap:butt;stroke-linejoin:miter;stroke-miterlimit:4;stroke-dasharray:none;stroke-dashoffset:0;stroke-opacity:1;-inkscape-stroke:none;paint-order:fill markers stroke;stop-color:#000000;stop-opacity:1"
       d="m 25.107209,5.2602727 c 0,0 0.607109,0.1982813 0.936215,0.1880606 0.329107,-0.010224 0.703185,-0.3393268 0.703185,-0.3393268 l 0.588709,0.5887114 -0.695005,0.6950063 c 0,0 0.181926,0.3577228 0.106298,0.4333564 -0.07564,0.075633 -0.112432,0.124688 -0.249383,0.1022074 -0.136958,-0.022486 -0.249386,-0.0695 -0.249386,-0.0695 L 26.306982,6.799654 26.1897,6.6949642 26.12274,6.6704892 25.637055,6.3900781 c 0,0 0.103844,-0.1404399 0.0058,-0.2385582 -0.09811,-0.098119 -0.243253,-0.1410454 -0.325018,-0.059279 l -0.08176,0.081764 z"
       id="path5884"
       sodipodi:nodetypes="cscccsscccccsscc" />
    <path
       style="font-variation-settings:normal;opacity:1;vector-effect:none;fill:#323232;fill-opacity:1;stroke:none;stroke-width:0.592693;stroke-linecap:butt;stroke-linejoin:miter;stroke-miterlimit:4;stroke-dasharray:none;stroke-dashoffset:0;stroke-opacity:1;-inkscape-stroke:none;paint-order:fill markers stroke;stop-color:#000000;stop-opacity:1"
       d="m 24.008487,8.7281493 0.146668,0.1466668 0.117537,-0.1175372 -0.146157,-0.146156 z"
       id="path6238"
       sodipodi:nodetypes="ccccc" />
    <path
       id="path6739"
       style="font-variation-settings:normal;opacity:1;fill:#323232;fill-opacity:1;stroke:none;stroke-width:0.0740868;stroke-linecap:butt;stroke-linejoin:miter;stroke-miterlimit:4;stroke-dasharray:none;stroke-dashoffset:0;stroke-opacity:1;paint-order:fill markers stroke;stop-color:#000000;stop-opacity:1"
       d="m 28.127571,1.0249109 c -0.02974,0.03078 -0.0441,0.074527 -0.0441,0.1102995 0,0.057237 -0.06538,0.1471947 -0.114443,0.155371 -0.04906,0.00818 -0.17988,0.049049 -0.228939,0.130815 -0.04906,0.081765 0.19617,0.2534685 0.265671,0.3229691 0.0695,0.0695 0.151281,0.2084729 0.200341,0.3474746 0.04906,0.1390009 0.425185,1.071125 0.425185,1.0711247 l 0.596927,0.5969282 0.318878,-0.3188766 c 0,0 0.273913,-0.012284 0.37203,-0.1104019 l 0.220754,-0.220753 0.08994,0.089938 0.12268,-0.1226803 c 0,0 -0.147207,-0.1553449 -0.167649,-0.2248457 -0.02044,-0.0695 0.0082,-0.2452585 0.0082,-0.2452585 L 29.66154,2.0755202 29.514355,2.222706 28.402354,1.110705 c 0,0 -0.126755,-0.13494531 -0.204434,-0.12268025 -0.02913,0.0046 -0.0525,0.0184176 -0.07034,0.0368862 z m 0.467802,1.255861 0.232366,-0.2323661 C 28.972282,1.9038638 29.046038,1.97755 29.046038,1.97755 l 0.234155,0.2341565 c 0.09973,0.099734 0.03509,0.1037581 -0.340721,0.4795683 -0.05204,0.052035 -0.09254,0.075131 -0.179262,0.049114 -0.08673,-0.026017 -0.167685,-0.1329368 -0.209601,-0.2500163 -0.04192,-0.1170795 0.04476,-0.2096002 0.04476,-0.2096002 z"
       sodipodi:nodetypes="sssssscccscccsccccsscscssssc" />
    <path
       style="font-variation-settings:normal;opacity:1;vector-effect:none;fill:#323232;fill-opacity:1;stroke:none;stroke-width:0.592693;stroke-linecap:butt;stroke-linejoin:miter;stroke-miterlimit:4;stroke-dasharray:none;stroke-dashoffset:0;stroke-opacity:1;-inkscape-stroke:none;paint-order:fill markers stroke;stop-color:#000000;stop-opacity:1"
       d="m 13.025877,18.964011 0.495914,-0.384782 -0.216097,0.216097 4.726345,-4.726347 -0.358509,-0.358508 c 0,0 -0.213029,-0.268547 -0.474539,-10e-7 l -2.159994,2.159993 0.08818,0.549027 -2.148518,2.14852 z"
       id="path7181"
       sodipodi:nodetypes="cccccscccc" />
    <path
       style="font-variation-settings:normal;opacity:1;fill:none;fill-opacity:1;stroke:#323232;stroke-width:0.444521;stroke-linecap:butt;stroke-linejoin:miter;stroke-miterlimit:4;stroke-dasharray:none;stroke-dashoffset:0;stroke-opacity:1;paint-order:fill markers stroke;stop-color:#000000;stop-opacity:1"
       d="m 10.569314,21.633804 2.753081,-2.753081 -0.05549,-0.35786"
       id="path8100"
       sodipodi:nodetypes="ccc" />
    <path
       id="path7453"
       style="font-variation-settings:normal;opacity:1;fill:#323232;fill-opacity:1;fill-rule:evenodd;stroke:#ffffff;stroke-width:0.148173;stroke-linecap:round;stroke-linejoin:round;stroke-miterlimit:4;stroke-dasharray:none;stroke-dashoffset:0;stroke-opacity:1;stop-color:#000000;stop-opacity:1"
       d="m 13.529541,18.75615 c -0.140759,0.140706 -0.145548,0.535692 -0.176245,0.640055 -0.03274,0.11132 -0.186629,0.180082 -0.186629,0.180082 l -0.402062,0.226994 c -0.05382,0.01571 -0.102819,0.04473 -0.142479,0.08437 -0.130423,0.130423 -0.121163,0.406707 0.0093,0.537129 0.122967,0.122863 0.36591,0.121623 0.498452,0.0092 v 0 c 0,0 1.349687,-1.365241 1.457735,-1.47329 0.10805,-0.108049 0.255389,-0.06549 0.255389,-0.06549 l 1.76152,-1.787716 -0.189807,-0.189806 c 0,0 -2.684845,1.702584 -2.855104,1.813908 -0.01067,0.0069 -0.02064,0.01523 -0.03003,0.02461 z"
       sodipodi:nodetypes="csccccccscccsc" />
    <path
       style="font-variation-settings:normal;opacity:1;vector-effect:none;fill:#323232;fill-opacity:1;stroke:none;stroke-width:0.592693;stroke-linecap:butt;stroke-linejoin:miter;stroke-miterlimit:4;stroke-dasharray:none;stroke-dashoffset:0;stroke-opacity:1;-inkscape-stroke:none;paint-order:fill markers stroke;stop-color:#000000;stop-opacity:1"
       d="M 17.133424,13.480451 16.87412,13.221147 c 0,0 0.07872,-0.189847 0.08797,-0.22689 0.0093,-0.03704 0.04168,-0.338021 0.04168,-0.338021 l 1.018694,-1.018693 c 0,0 -0.01836,-0.103726 0.0046,-0.143543 0.02299,-0.03981 0.134281,-0.03241 0.134281,-0.03241 l 0.393586,-0.393586 c 0,0 0.199108,-0.11576 0.282456,0.06946 0.08334,0.185217 -1.703994,2.342993 -1.703994,2.342993 z"
       id="path9639"
       sodipodi:nodetypes="ccsccsccsc" />
    <circle
       style="font-variation-settings:normal;opacity:1;vector-effect:none;fill:#323232;fill-opacity:1;fill-rule:evenodd;stroke:none;stroke-width:0.148173;stroke-linecap:round;stroke-linejoin:round;stroke-miterlimit:4;stroke-dasharray:none;stroke-dashoffset:0;stroke-opacity:1;-inkscape-stroke:none;stop-color:#000000;stop-opacity:1"
       id="path9779"
       cx="2.9316967"
       cy="21.051373"
       r="0.18990375"
       transform="rotate(-45)" />
    <path
       style="font-variation-settings:normal;opacity:1;fill:none;fill-opacity:1;stroke:#323232;stroke-width:0.22226;stroke-linecap:butt;stroke-linejoin:miter;stroke-miterlimit:4;stroke-dasharray:none;stroke-dashoffset:0;stroke-opacity:1;paint-order:fill markers stroke;stop-color:#000000;stop-opacity:1"
       d="m 16.892641,12.883126 c -0.164379,0.16438 -0.164379,0.16438 -0.164379,0.16438 l -0.208368,-0.125022"
       id="path9894" />
    <path
       style="font-variation-settings:normal;opacity:1;fill:none;fill-opacity:1;stroke:#323232;stroke-width:0.370433;stroke-linecap:butt;stroke-linejoin:miter;stroke-miterlimit:4;stroke-dasharray:none;stroke-dashoffset:0;stroke-opacity:1;paint-order:fill markers stroke;stop-color:#000000;stop-opacity:1"
       d="m 20.289495,11.477747 3.05012,-3.0501196"
       id="path10627"
       sodipodi:nodetypes="cc" />
    <path
       style="font-variation-settings:normal;opacity:1;vector-effect:none;fill:none;fill-opacity:1;stroke:#323232;stroke-width:0.592693;stroke-linecap:round;stroke-linejoin:miter;stroke-miterlimit:4;stroke-dasharray:none;stroke-dashoffset:0;stroke-opacity:1;-inkscape-stroke:none;paint-order:fill markers stroke;stop-color:#000000;stop-opacity:1"
       d="m 20.729032,11.03821 0.669486,-0.669487"
       id="path10631"
       sodipodi:nodetypes="cc" />
    <path
       style="font-variation-settings:normal;vector-effect:none;fill:none;fill-opacity:1;stroke:#323232;stroke-width:0.592693;stroke-linecap:round;stroke-linejoin:miter;stroke-miterlimit:4;stroke-dasharray:none;stroke-dashoffset:0;stroke-opacity:1;-inkscape-stroke:none;paint-order:fill markers stroke;stop-color:#000000"
       d="M 21.997766,9.7694749 22.667253,9.0999884"
       id="path10631-6"
       sodipodi:nodetypes="cc" />
    <path
       style="font-variation-settings:normal;opacity:1;fill:none;fill-opacity:1;stroke:#323232;stroke-width:0.22226;stroke-linecap:butt;stroke-linejoin:miter;stroke-miterlimit:4;stroke-dasharray:none;stroke-dashoffset:0;stroke-opacity:1;paint-order:fill markers stroke;stop-color:#000000;stop-opacity:1"
       d="m 14.793785,21.577783 c 0.370433,0.175956 0.601955,0.07409 0.77328,-0.115761 0.17133,-0.189842 0.981649,-1.055736 0.981649,-1.055736 0,0 0.273196,-0.273195 0.04631,-0.500085 C 16.36813,19.679309 15.664307,19.02179 15.664307,19.02179"
       id="path11752" />
    <path
       style="font-variation-settings:normal;opacity:1;fill:#323232;fill-opacity:1;stroke:none;stroke-width:0.592693;stroke-linecap:butt;stroke-linejoin:miter;stroke-miterlimit:4;stroke-dasharray:none;stroke-dashoffset:0;stroke-opacity:1;paint-order:fill markers stroke;stop-color:#000000;stop-opacity:1"
       d="m 16.590388,19.896941 c 0.388956,-0.439892 0.395902,-0.451469 0.39127,-0.562597 -0.0046,-0.111131 -0.0301,-0.164381 -0.12502,-0.263936 -0.09492,-0.09955 -0.569539,-0.578806 -0.569539,-0.578806 l -0.537129,0.569544 z"
       id="path11754"
       sodipodi:nodetypes="cssccc" />
    <path
       style="font-variation-settings:normal;opacity:1;fill:#323232;fill-opacity:1;stroke:#323232;stroke-width:0.0740868;stroke-linecap:butt;stroke-linejoin:round;stroke-miterlimit:4;stroke-dasharray:none;stroke-dashoffset:0;stroke-opacity:1;paint-order:fill markers stroke;stop-color:#000000;stop-opacity:1"
       d="m 16.643869,19.779288 c 0.314325,-0.340517 0.667939,0.203 0.667939,0.203 0,0 -0.09168,-0.242292 -0.160438,-0.343792 -0.06875,-0.101506 -0.193176,-0.3045 -0.193176,-0.3045 z"
       id="path12266" />
    <path
       style="font-variation-settings:normal;opacity:1;fill:#323232;fill-opacity:1;stroke:#323232;stroke-width:0.0740868;stroke-linecap:butt;stroke-linejoin:round;stroke-miterlimit:4;stroke-dasharray:none;stroke-dashoffset:0;stroke-opacity:1;paint-order:fill markers stroke;stop-color:#000000;stop-opacity:1"
       d="m 14.715366,20.149273 c 0.08512,0.942969 0.988807,0.667935 0.988807,0.667935 0,0 -0.324144,0.147341 -0.497677,0.117874 -0.173534,-0.02947 -0.425647,-0.20955 -0.458389,-0.235743 -0.03274,-0.02619 -0.212823,0.05566 -0.288129,0.05893 -0.07531,0.0033 -0.196452,-0.02619 -0.196452,-0.02619 z"
       id="path12419" />
    <path
       style="font-variation-settings:normal;opacity:1;vector-effect:none;fill:none;fill-opacity:1;stroke:#323232;stroke-width:0.592693;stroke-linecap:butt;stroke-linejoin:miter;stroke-miterlimit:4;stroke-dasharray:none;stroke-dashoffset:0;stroke-opacity:1;-inkscape-stroke:none;paint-order:fill markers stroke;stop-color:#000000;stop-opacity:1"
       d="m 3.9301424,29.723042 c 1.5388747,1.119775 1.8597461,1.322776 2.1937153,1.63055 0.333969,0.307777 0.9691636,0.877488 0.9691636,0.877488"
       id="path12570" />
  </g>
</svg>
