<?xml version="1.0" encoding="UTF-8" standalone="no"?>
<!-- Created with Inkscape (http://www.inkscape.org/) -->

<svg
   width="128"
   height="128"
   viewBox="0 0 33.866666 33.866666"
   version="1.1"
   id="svg1"
   xml:space="preserve"
   inkscape:version="1.4.4 (dcaf3e7, 2026-05-05)"
   sodipodi:docname="loot-weapon-barrett.svg"
   xmlns:inkscape="http://www.inkscape.org/namespaces/inkscape"
   xmlns:sodipodi="http://sodipodi.sourceforge.net/DTD/sodipodi-0.dtd"
   xmlns="http://www.w3.org/2000/svg"
   xmlns:svg="http://www.w3.org/2000/svg"><sodipodi:namedview
     id="namedview1"
     pagecolor="#ffffff"
     bordercolor="#999999"
     borderopacity="1"
     inkscape:showpageshadow="0"
     inkscape:pageopacity="0"
     inkscape:pagecheckerboard="true"
     inkscape:deskcolor="#d1d1d1"
     inkscape:document-units="px"
     inkscape:zoom="8"
     inkscape:cx="56.0625"
     inkscape:cy="56.8125"
     inkscape:window-width="2560"
     inkscape:window-height="1377"
     inkscape:window-x="-8"
     inkscape:window-y="-8"
     inkscape:window-maximized="1"
     inkscape:current-layer="layer1" /><defs
     id="defs1" /><g
     inkscape:label="Layer 1"
     inkscape:groupmode="layer"
     id="layer1"><path
       id="path1"
       style="font-variation-settings:normal;opacity:1;vector-effect:none;fill:#ffffff;fill-opacity:1;stroke:#323232;stroke-width:0.568378;stroke-linecap:butt;stroke-linejoin:miter;stroke-miterlimit:4;stroke-dasharray:none;stroke-dashoffset:0;stroke-opacity:1;-inkscape-stroke:none;paint-order:fill markers stroke;stop-color:#000000;stop-opacity:1"
       d="m 24.423835,6.8171529 -14.264763,14.2647621 0.02532,0.223759 -7.3830087,7.506003 c 0,0 0.1390137,0.365787 0.2950726,0.568958 0.1560578,0.203171 0.9870207,0.9834 0.9870207,0.9834 l 6.3127914,-6.312792 1.349273,1e-6 2.119251,-2.119251 0.620632,0.620634 0.333314,-0.333314 3.081466,-4.797123 -0.215492,-0.803051 c 0,0 6.314746,-6.362701 6.868314,-6.9044885 0.553548,-0.54181 1.319189,-1.2606689 1.307416,-1.4608933 C 25.848661,8.0535315 25.819372,7.9771491 25.707479,7.8770362 25.595607,7.7769021 24.423837,6.8171524 24.423837,6.8171524 Z" /><path
       style="font-variation-settings:normal;opacity:1;vector-effect:none;fill:#ffffff;fill-opacity:1;stroke:#323232;stroke-width:0.568378;stroke-linecap:butt;stroke-linejoin:miter;stroke-miterlimit:4;stroke-dasharray:none;stroke-dashoffset:0;stroke-opacity:1;-inkscape-stroke:none;paint-order:fill markers stroke;stop-color:#000000;stop-opacity:1"
       d="m 15.576455,22.585711 2.523481,-3.914306 1.461618,1.461618 -2.706703,3.722756 z"
       id="path2"
       sodipodi:nodetypes="ccccc" /><path
       style="font-variation-settings:normal;opacity:1;vector-effect:none;fill:#ffffff;fill-opacity:1;stroke:#323232;stroke-width:0.568378;stroke-linecap:butt;stroke-linejoin:miter;stroke-miterlimit:4;stroke-dasharray:none;stroke-dashoffset:0;stroke-opacity:1;-inkscape-stroke:none;paint-order:fill markers stroke;stop-color:#000000;stop-opacity:1"
       d="m 12.311756,24.617821 0.810889,-0.810888 0.200173,0.200175 0.539569,2.013694 c 0,0 0.03175,0.171069 0.106704,0.171069 0.07495,3e-6 0.312313,0.112433 0.03331,0.324806 -0.278997,0.212373 -1.359864,0.844522 -1.399159,0.757875 -0.151465,-0.333989 -0.216102,-2.004189 -0.29149,-2.656731 z"
       id="path3"
       sodipodi:nodetypes="ccccsssc" /><path
       id="path4"
       style="font-variation-settings:normal;opacity:1;fill:#323232;fill-opacity:1;stroke:none;stroke-width:0.0710473;stroke-linecap:butt;stroke-linejoin:miter;stroke-miterlimit:4;stroke-dasharray:none;stroke-dashoffset:0;stroke-opacity:1;paint-order:fill markers stroke;stop-color:#000000;stop-opacity:1"
       d="m 29.032948,2.8330432 -4.8e-5,0.1582201 0.07913,0.079136 -0.260226,0.2602252 -3.541941,3.5777496 c 0.674292,0.5329555 0.733208,0.5859291 0.733208,0.5859291 l 3.740192,-3.7401925 c 0,0 0.19286,0.184516 0.38022,-0.00284 l 1.634255,-1.6342551 -0.326894,-0.3268941 0.04373,-0.043725 -0.364371,-0.3643714 -0.04373,0.043725 -0.333118,-0.333118 z m 0.371241,-0.089665 0.403425,-0.4034249 c 0.0416,-0.041598 0.108579,-0.041546 0.150174,4.95e-5 l 0.574155,0.5741552 c 0.0416,0.041598 0.04165,0.1085833 5e-5,0.1501746 l -0.403424,0.4034245 c -0.0416,0.041598 -0.108579,0.041546 -0.150176,-4.95e-5 L 29.404239,2.8935525 c -0.0416,-0.041598 -0.04164,-0.1085756 -5e-5,-0.1501743 z m 0.771477,-0.7714786 0.403427,-0.4034242 c 0.0416,-0.041598 0.108578,-0.041545 0.150174,4.95e-5 L 31.303422,2.14268 c 0.0416,0.041598 0.04164,0.1085756 4.8e-5,0.1501754 l -0.403424,0.4034242 c -0.0416,0.041598 -0.10858,0.041546 -0.150174,-4.95e-5 L 30.175716,2.1220756 c -0.0416,-0.041598 -0.04165,-0.1085826 -5e-5,-0.150176 z"
       sodipodi:nodetypes="cccccccccccccccssssssssssssssssss" /><g
       id="path5"
       style="opacity:1"
       transform="matrix(0.09493795,-0.09493795,0.09493795,0.09493795,-7.5596025,16.822518)"><path
         style="baseline-shift:baseline;display:inline;overflow:visible;vector-effect:none;fill:#323232;stroke:none;stroke-opacity:1;paint-order:fill markers stroke;enable-background:accumulate;stop-color:#000000;stop-opacity:1"
         d="m -12.713008,117.66797 c -1.023219,-0.0127 -2.24255,0.17409 -3.226592,0.45481 -1.304966,0.24709 -1.988957,1.21885 -2.523291,1.94749 -0.560441,0.76424 -1.139679,1.6787 -1.439453,2.83985 -0.299774,1.16115 -0.228477,2.5816 0.388672,3.88086 0.136043,0.2864 0.917771,2.87454 1.369141,5.57226 0.45137,2.69772 0.690934,5.79513 0.417969,7.79688 -0.311248,2.28248 -0.817201,4.1533 -0.914063,6.06054 -0.09686,1.90724 0.590506,4.17434 2.451172,5.50782 1.409104,1.00985 2.444545,1.58825 3.339844,1.92968 0.895298,0.34143 1.746076,0.39649 2.103515,0.39649 h 3.8378909 L -7.4297806,136.2296 h -6.3580824 c 0,0 -0.188747,-5.95913 -0.247804,-8.57344 -0.05906,-2.61431 -0.16316,-5.7711 0.297275,-7.07812 z"
         id="path14"
         sodipodi:nodetypes="csssssssssscccscc" /></g><path
       style="font-variation-settings:normal;opacity:1;fill:#323232;fill-opacity:1;stroke:none;stroke-width:0.568378;stroke-linecap:butt;stroke-linejoin:miter;stroke-miterlimit:4;stroke-dasharray:none;stroke-dashoffset:0;stroke-opacity:1;paint-order:fill markers stroke;stop-color:#000000;stop-opacity:1"
       d="M 6.4237097,32.202536 C 8.2787468,29.676152 8.219734,29.517025 8.3640151,29.472859 8.5082965,29.42869 8.8147834,29.386719 9.0444548,29.19238 9.2741229,28.998039 9.2859055,28.821373 9.0591778,28.677092 8.8324511,28.532811 8.679337,28.54459 8.5114997,28.194193 8.3436623,27.843795 8.0786572,27.054669 8.0786572,27.054669 l -0.588901,0.588901 0.1413369,0.388675 c 0,0 0.1236687,0.182558 -0.094224,0.465232 -0.2178899,0.282675 -2.146543,2.812001 -2.146543,2.812001 z"
       id="path6"
       sodipodi:nodetypes="csssscccscc" /><path
       style="font-variation-settings:normal;opacity:1;vector-effect:none;fill:none;fill-opacity:1;stroke:#323232;stroke-width:0.568378;stroke-linecap:butt;stroke-linejoin:miter;stroke-miterlimit:4;stroke-dasharray:none;stroke-dashoffset:0;stroke-opacity:1;-inkscape-stroke:none;paint-order:fill markers stroke;stop-color:#000000;stop-opacity:1"
       d="m 10.396243,24.051494 2.79415,-2.794149 0.674594,0.674594"
       id="path8"
       sodipodi:nodetypes="ccc" /><path
       style="font-variation-settings:normal;opacity:1;vector-effect:none;fill:none;fill-opacity:1;stroke:#323232;stroke-width:0.568378;stroke-linecap:butt;stroke-linejoin:miter;stroke-miterlimit:4;stroke-dasharray:none;stroke-dashoffset:0;stroke-opacity:1;-inkscape-stroke:none;paint-order:fill markers stroke;stop-color:#000000;stop-opacity:1"
       d="m 13.190393,21.257345 -0.15848,-0.591463 4.350377,-4.34943 0.302595,0.302592"
       id="path9"
       sodipodi:nodetypes="cccc" /><path
       style="font-variation-settings:normal;opacity:1;fill:none;fill-opacity:1;stroke:#323232;stroke-width:0.284189;stroke-linecap:butt;stroke-linejoin:miter;stroke-miterlimit:4;stroke-dasharray:none;stroke-dashoffset:0;stroke-opacity:1;paint-order:fill markers stroke;stop-color:#000000;stop-opacity:1"
       d="m 13.322818,24.007108 c 0.686072,-0.379841 0.783238,-0.500567 0.94813,-0.683124 0.164896,-0.18256 0.326841,-0.739072 0.326841,-0.739072"
       id="path10" /><path
       style="font-variation-settings:normal;opacity:1;fill:#323232;fill-opacity:1;stroke:#323232;stroke-width:0.0710473;stroke-linecap:butt;stroke-linejoin:round;stroke-miterlimit:4;stroke-dasharray:none;stroke-dashoffset:0;stroke-opacity:1;paint-order:fill markers stroke;stop-color:#000000;stop-opacity:1"
       d="m 13.257438,22.58113 c 0.204044,0.587144 0.799519,0.54134 0.799519,0.54134 0,0 -0.187391,0.08745 -0.445566,0.104102 -0.258177,0.01666 -0.541339,-0.374773 -0.541339,-0.374773 z"
       id="path12" /><path
       id="rect14"
       style="fill:#323232;fill-opacity:1;stroke:none;stroke-width:0.0710473;stroke-linecap:round;stroke-linejoin:round;stroke-dasharray:none;stroke-opacity:1"
       d="m 12.326069,19.521004 -0.453957,1.145024 -1.382379,1.382379 c -0.0416,0.0416 -0.04164,0.108575 -4.9e-5,0.150175 l 0.116359,0.116358 c 0.0416,0.0416 0.108577,0.04155 0.150174,-4.8e-5 l 1.38238,-1.382379 4.655503,-4.655504 -0.612019,-0.612016 z"
       sodipodi:nodetypes="cccssccccc" /><path
       style="font-variation-settings:normal;opacity:1;fill:none;fill-opacity:1;stroke:#323232;stroke-width:0.213142;stroke-linecap:round;stroke-linejoin:miter;stroke-miterlimit:4;stroke-dasharray:none;stroke-dashoffset:0;stroke-opacity:1;paint-order:fill markers stroke;stop-color:#000000;stop-opacity:1"
       d="m 14.777405,22.546634 c 0.209059,0.373952 0.209059,0.373952 0.209059,0.373952"
       id="path15" /><path
       style="font-variation-settings:normal;opacity:1;fill:none;fill-opacity:1;stroke:#323232;stroke-width:0.355236;stroke-linecap:butt;stroke-linejoin:miter;stroke-miterlimit:4;stroke-dasharray:none;stroke-dashoffset:0;stroke-opacity:1;paint-order:fill markers stroke;stop-color:#000000;stop-opacity:1"
       d="M 10.144473,20.905312 C 9.902952,20.663792 9.902952,20.663792 9.902952,20.663792"
       id="path18" /><path
       style="font-variation-settings:normal;fill:none;fill-opacity:1;stroke:#323232;stroke-width:0.355236;stroke-linecap:butt;stroke-linejoin:miter;stroke-miterlimit:4;stroke-dasharray:none;stroke-dashoffset:0;stroke-opacity:1;paint-order:fill markers stroke;stop-color:#000000"
       d="m 10.561119,20.488665 c -0.24152,-0.24152 -0.24152,-0.24152 -0.24152,-0.24152"
       id="path18-1" /><path
       style="font-variation-settings:normal;fill:none;fill-opacity:1;stroke:#323232;stroke-width:0.355236;stroke-linecap:butt;stroke-linejoin:miter;stroke-miterlimit:4;stroke-dasharray:none;stroke-dashoffset:0;stroke-opacity:1;paint-order:fill markers stroke;stop-color:#000000"
       d="M 10.977767,20.072018 C 10.736246,19.830497 10.736246,19.830497 10.736246,19.830497"
       id="path18-1-4" /><path
       style="font-variation-settings:normal;fill:none;fill-opacity:1;stroke:#323232;stroke-width:0.355236;stroke-linecap:butt;stroke-linejoin:miter;stroke-miterlimit:4;stroke-dasharray:none;stroke-dashoffset:0;stroke-opacity:1;paint-order:fill markers stroke;stop-color:#000000"
       d="M 11.394414,19.655371 C 11.152893,19.413849 11.152893,19.413849 11.152893,19.413849"
       id="path18-1-1" /><path
       style="font-variation-settings:normal;fill:none;fill-opacity:1;stroke:#323232;stroke-width:0.355236;stroke-linecap:butt;stroke-linejoin:miter;stroke-miterlimit:4;stroke-dasharray:none;stroke-dashoffset:0;stroke-opacity:1;paint-order:fill markers stroke;stop-color:#000000"
       d="M 11.811062,19.238723 C 11.569541,18.997202 11.569541,18.997202 11.569541,18.997202"
       id="path18-1-4-8" /><path
       style="font-variation-settings:normal;fill:none;fill-opacity:1;stroke:#323232;stroke-width:0.355236;stroke-linecap:butt;stroke-linejoin:miter;stroke-miterlimit:4;stroke-dasharray:none;stroke-dashoffset:0;stroke-opacity:1;paint-order:fill markers stroke;stop-color:#000000"
       d="m 12.22771,18.822074 c -0.241522,-0.24152 -0.241522,-0.24152 -0.241522,-0.24152"
       id="path18-1-8" /><path
       style="font-variation-settings:normal;fill:none;fill-opacity:1;stroke:#323232;stroke-width:0.355236;stroke-linecap:butt;stroke-linejoin:miter;stroke-miterlimit:4;stroke-dasharray:none;stroke-dashoffset:0;stroke-opacity:1;paint-order:fill markers stroke;stop-color:#000000"
       d="m 12.644356,18.405429 c -0.24152,-0.241523 -0.24152,-0.241523 -0.24152,-0.241523"
       id="path18-1-4-82" /><path
       style="font-variation-settings:normal;fill:none;fill-opacity:1;stroke:#323232;stroke-width:0.355236;stroke-linecap:butt;stroke-linejoin:miter;stroke-miterlimit:4;stroke-dasharray:none;stroke-dashoffset:0;stroke-opacity:1;paint-order:fill markers stroke;stop-color:#000000"
       d="M 13.061004,17.988781 C 12.819482,17.747259 12.819482,17.747259 12.819482,17.747259"
       id="path18-1-1-9" /><path
       style="font-variation-settings:normal;fill:none;fill-opacity:1;stroke:#323232;stroke-width:0.355236;stroke-linecap:butt;stroke-linejoin:miter;stroke-miterlimit:4;stroke-dasharray:none;stroke-dashoffset:0;stroke-opacity:1;paint-order:fill markers stroke;stop-color:#000000"
       d="M 13.477651,17.572134 C 13.23613,17.330612 13.23613,17.330612 13.23613,17.330612"
       id="path18-1-4-8-1" /><path
       style="font-variation-settings:normal;fill:none;fill-opacity:1;stroke:#323232;stroke-width:0.355236;stroke-linecap:butt;stroke-linejoin:miter;stroke-miterlimit:4;stroke-dasharray:none;stroke-dashoffset:0;stroke-opacity:1;paint-order:fill markers stroke;stop-color:#000000"
       d="M 13.894299,17.155486 C 13.652778,16.913965 13.652778,16.913965 13.652778,16.913965"
       id="path18-1-0" /><path
       style="font-variation-settings:normal;fill:none;fill-opacity:1;stroke:#323232;stroke-width:0.355236;stroke-linecap:butt;stroke-linejoin:miter;stroke-miterlimit:4;stroke-dasharray:none;stroke-dashoffset:0;stroke-opacity:1;paint-order:fill markers stroke;stop-color:#000000"
       d="M 14.310946,16.738839 C 14.069424,16.497317 14.069424,16.497317 14.069424,16.497317"
       id="path18-1-4-7" /><path
       style="font-variation-settings:normal;fill:none;fill-opacity:1;stroke:#323232;stroke-width:0.355236;stroke-linecap:butt;stroke-linejoin:miter;stroke-miterlimit:4;stroke-dasharray:none;stroke-dashoffset:0;stroke-opacity:1;paint-order:fill markers stroke;stop-color:#000000"
       d="M 14.727594,16.32219 C 14.486071,16.080671 14.486071,16.080671 14.486071,16.080671"
       id="path18-1-1-6" /><path
       style="font-variation-settings:normal;fill:none;fill-opacity:1;stroke:#323232;stroke-width:0.355236;stroke-linecap:butt;stroke-linejoin:miter;stroke-miterlimit:4;stroke-dasharray:none;stroke-dashoffset:0;stroke-opacity:1;paint-order:fill markers stroke;stop-color:#000000"
       d="M 15.144241,15.905544 C 14.90272,15.664023 14.90272,15.664023 14.90272,15.664023"
       id="path18-1-4-8-3" /><path
       style="font-variation-settings:normal;fill:none;fill-opacity:1;stroke:#323232;stroke-width:0.355236;stroke-linecap:butt;stroke-linejoin:miter;stroke-miterlimit:4;stroke-dasharray:none;stroke-dashoffset:0;stroke-opacity:1;paint-order:fill markers stroke;stop-color:#000000"
       d="M 15.56089,15.488896 C 15.319367,15.247375 15.319367,15.247375 15.319367,15.247375"
       id="path18-1-8-6" /><path
       style="font-variation-settings:normal;fill:none;fill-opacity:1;stroke:#323232;stroke-width:0.355236;stroke-linecap:butt;stroke-linejoin:miter;stroke-miterlimit:4;stroke-dasharray:none;stroke-dashoffset:0;stroke-opacity:1;paint-order:fill markers stroke;stop-color:#000000"
       d="M 15.977535,15.07225 C 15.736014,14.83073 15.736014,14.83073 15.736014,14.83073"
       id="path18-1-4-82-1" /><path
       style="font-variation-settings:normal;fill:none;fill-opacity:1;stroke:#323232;stroke-width:0.355236;stroke-linecap:butt;stroke-linejoin:miter;stroke-miterlimit:4;stroke-dasharray:none;stroke-dashoffset:0;stroke-opacity:1;paint-order:fill markers stroke;stop-color:#000000"
       d="m 16.394182,14.655603 c -0.24152,-0.241522 -0.24152,-0.241522 -0.24152,-0.241522"
       id="path18-1-1-9-5" /><path
       style="font-variation-settings:normal;fill:none;fill-opacity:1;stroke:#323232;stroke-width:0.355236;stroke-linecap:butt;stroke-linejoin:miter;stroke-miterlimit:4;stroke-dasharray:none;stroke-dashoffset:0;stroke-opacity:1;paint-order:fill markers stroke;stop-color:#000000"
       d="M 16.81083,14.238955 C 16.569309,13.997433 16.569309,13.997433 16.569309,13.997433"
       id="path18-1-4-8-1-4" /><path
       style="font-variation-settings:normal;fill:none;fill-opacity:1;stroke:#323232;stroke-width:0.355236;stroke-linecap:butt;stroke-linejoin:miter;stroke-miterlimit:4;stroke-dasharray:none;stroke-dashoffset:0;stroke-opacity:1;paint-order:fill markers stroke;stop-color:#000000"
       d="M 17.227478,13.822307 C 16.985957,13.580786 16.985957,13.580786 16.985957,13.580786"
       id="path18-1-7" /><path
       style="font-variation-settings:normal;fill:none;fill-opacity:1;stroke:#323232;stroke-width:0.355236;stroke-linecap:butt;stroke-linejoin:miter;stroke-miterlimit:4;stroke-dasharray:none;stroke-dashoffset:0;stroke-opacity:1;paint-order:fill markers stroke;stop-color:#000000"
       d="m 17.644126,13.405658 c -0.241522,-0.24152 -0.241522,-0.24152 -0.241522,-0.24152"
       id="path18-1-4-2" /><path
       style="font-variation-settings:normal;fill:none;fill-opacity:1;stroke:#323232;stroke-width:0.355236;stroke-linecap:butt;stroke-linejoin:miter;stroke-miterlimit:4;stroke-dasharray:none;stroke-dashoffset:0;stroke-opacity:1;paint-order:fill markers stroke;stop-color:#000000"
       d="m 18.060771,12.989013 c -0.24152,-0.24152 -0.24152,-0.24152 -0.24152,-0.24152"
       id="path18-1-1-60" /><path
       style="font-variation-settings:normal;fill:none;fill-opacity:1;stroke:#323232;stroke-width:0.355236;stroke-linecap:butt;stroke-linejoin:miter;stroke-miterlimit:4;stroke-dasharray:none;stroke-dashoffset:0;stroke-opacity:1;paint-order:fill markers stroke;stop-color:#000000"
       d="M 19.310714,11.739071 C 19.069193,11.497548 19.069193,11.497548 19.069193,11.497548"
       id="path18-1-4-82-7" /><path
       style="font-variation-settings:normal;fill:none;fill-opacity:1;stroke:#323232;stroke-width:0.355236;stroke-linecap:butt;stroke-linejoin:miter;stroke-miterlimit:4;stroke-dasharray:none;stroke-dashoffset:0;stroke-opacity:1;paint-order:fill markers stroke;stop-color:#000000"
       d="m 19.727362,11.322422 c -0.241521,-0.24152 -0.241521,-0.24152 -0.241521,-0.24152"
       id="path18-1-1-9-54" /><path
       style="font-variation-settings:normal;fill:none;fill-opacity:1;stroke:#323232;stroke-width:0.355236;stroke-linecap:butt;stroke-linejoin:miter;stroke-miterlimit:4;stroke-dasharray:none;stroke-dashoffset:0;stroke-opacity:1;paint-order:fill markers stroke;stop-color:#000000"
       d="M 20.144009,10.905777 C 19.902488,10.664254 19.902488,10.664254 19.902488,10.664254"
       id="path18-1-4-8-1-1" /><path
       style="font-variation-settings:normal;fill:none;fill-opacity:1;stroke:#323232;stroke-width:0.355236;stroke-linecap:butt;stroke-linejoin:miter;stroke-miterlimit:4;stroke-dasharray:none;stroke-dashoffset:0;stroke-opacity:1;paint-order:fill markers stroke;stop-color:#000000"
       d="M 20.560656,10.489129 C 20.319134,10.247608 20.319134,10.247608 20.319134,10.247608"
       id="path18-1-0-2" /><path
       style="font-variation-settings:normal;fill:none;fill-opacity:1;stroke:#323232;stroke-width:0.355236;stroke-linecap:butt;stroke-linejoin:miter;stroke-miterlimit:4;stroke-dasharray:none;stroke-dashoffset:0;stroke-opacity:1;paint-order:fill markers stroke;stop-color:#000000"
       d="M 20.977304,10.072482 C 20.735782,9.8309611 20.735782,9.8309611 20.735782,9.8309611"
       id="path18-1-4-7-0" /><path
       style="font-variation-settings:normal;fill:none;fill-opacity:1;stroke:#323232;stroke-width:0.355236;stroke-linecap:butt;stroke-linejoin:miter;stroke-miterlimit:4;stroke-dasharray:none;stroke-dashoffset:0;stroke-opacity:1;paint-order:fill markers stroke;stop-color:#000000"
       d="M 21.393951,9.6558338 C 21.152431,9.4143137 21.152431,9.4143137 21.152431,9.4143137"
       id="path18-1-1-6-0" /><path
       style="font-variation-settings:normal;fill:none;fill-opacity:1;stroke:#323232;stroke-width:0.355236;stroke-linecap:butt;stroke-linejoin:miter;stroke-miterlimit:4;stroke-dasharray:none;stroke-dashoffset:0;stroke-opacity:1;paint-order:fill markers stroke;stop-color:#000000"
       d="M 21.810597,9.2391874 C 21.569077,8.9976659 21.569077,8.9976659 21.569077,8.9976659"
       id="path18-1-4-8-3-1" /><path
       style="font-variation-settings:normal;fill:none;fill-opacity:1;stroke:#323232;stroke-width:0.355236;stroke-linecap:butt;stroke-linejoin:miter;stroke-miterlimit:4;stroke-dasharray:none;stroke-dashoffset:0;stroke-opacity:1;paint-order:fill markers stroke;stop-color:#000000"
       d="M 22.227245,8.8225396 C 21.985724,8.5810188 21.985724,8.5810188 21.985724,8.5810188"
       id="path18-1-8-6-4" /><path
       style="font-variation-settings:normal;fill:none;fill-opacity:1;stroke:#323232;stroke-width:0.355236;stroke-linecap:butt;stroke-linejoin:miter;stroke-miterlimit:4;stroke-dasharray:none;stroke-dashoffset:0;stroke-opacity:1;paint-order:fill markers stroke;stop-color:#000000"
       d="M 22.643893,8.4058932 C 22.402371,8.1643717 22.402371,8.1643717 22.402371,8.1643717"
       id="path18-1-4-82-1-6" /><path
       style="font-variation-settings:normal;fill:none;fill-opacity:1;stroke:#323232;stroke-width:0.355236;stroke-linecap:butt;stroke-linejoin:miter;stroke-miterlimit:4;stroke-dasharray:none;stroke-dashoffset:0;stroke-opacity:1;paint-order:fill markers stroke;stop-color:#000000"
       d="M 23.060542,7.9892461 C 22.81902,7.7477246 22.81902,7.7477246 22.81902,7.7477246"
       id="path18-1-1-9-5-0" /><path
       style="font-variation-settings:normal;fill:none;fill-opacity:1;stroke:#323232;stroke-width:0.355236;stroke-linecap:butt;stroke-linejoin:miter;stroke-miterlimit:4;stroke-dasharray:none;stroke-dashoffset:0;stroke-opacity:1;paint-order:fill markers stroke;stop-color:#000000"
       d="M 23.893835,7.1559497 C 23.652315,6.9144296 23.652315,6.9144296 23.652315,6.9144296"
       id="path18-1-1-9-5-0-3" /><path
       style="font-variation-settings:normal;fill:none;fill-opacity:1;stroke:#323232;stroke-width:0.355236;stroke-linecap:butt;stroke-linejoin:miter;stroke-miterlimit:4;stroke-dasharray:none;stroke-dashoffset:0;stroke-opacity:1;paint-order:fill markers stroke;stop-color:#000000"
       d="M 24.310484,6.7393026 C 24.068963,6.4977811 24.068963,6.4977811 24.068963,6.4977811"
       id="path18-1-4-8-1-4-7-3" /><path
       style="font-variation-settings:normal;opacity:1;vector-effect:none;fill:#323232;fill-opacity:1;stroke:none;stroke-width:0.568378;stroke-linecap:butt;stroke-linejoin:miter;stroke-miterlimit:4;stroke-dasharray:none;stroke-dashoffset:0;stroke-opacity:1;-inkscape-stroke:none;paint-order:fill markers stroke;stop-color:#000000;stop-opacity:1"
       d="M 9.394763,21.530096 9.752881,21.17198 c 0,0 -0.2456852,-0.266507 -0.3893474,-0.272752 -0.1436643,-0.0063 -0.1394996,0.01874 -0.2123703,0.09161 -0.072874,0.07287 -0.047889,0.160319 0.045804,0.291488 0.093694,0.131173 0.1977983,0.247769 0.197799,0.247768 z"
       id="path19"
       sodipodi:nodetypes="ccsssc" /><rect
       style="fill:#323232;fill-opacity:1;stroke:none;stroke-width:0.355236;stroke-linecap:round;stroke-linejoin:round;stroke-dasharray:none;stroke-opacity:1"
       id="rect19"
       width="1.7725915"
       height="0.23556031"
       x="-21.528564"
       y="-8.4573069"
       ry="0"
       rx="0"
       transform="rotate(-135)" /><path
       style="font-variation-settings:normal;opacity:1;vector-effect:none;fill:none;fill-opacity:1;stroke:#323232;stroke-width:0.568378;stroke-linecap:butt;stroke-linejoin:miter;stroke-miterlimit:4;stroke-dasharray:none;stroke-dashoffset:0;stroke-opacity:1;-inkscape-stroke:none;paint-order:fill markers stroke;stop-color:#000000;stop-opacity:1"
       d="M 8.1548771,20.179879 8.3839053,19.950851"
       id="path20"
       sodipodi:nodetypes="cc" /><path
       style="baseline-shift:baseline;display:inline;overflow:visible;opacity:1;vector-effect:none;fill:#323232;stroke-width:0.134263;paint-order:fill markers stroke;enable-background:accumulate;stop-color:#000000;stop-opacity:1"
       d="m 21.995581,6.3420726 1.174301,1.1743022 0.251066,-0.2510661 -1.174301,-1.1743021 c 0,0 -0.05854,-0.024742 -0.167175,0.083893 -0.102384,0.1023841 -0.08389,0.1671727 -0.08389,0.1671727 z"
       id="path21"
       sodipodi:nodetypes="ccccsc" /><path
       style="font-variation-settings:normal;opacity:1;fill:none;fill-opacity:1;stroke:#323232;stroke-width:0.426284;stroke-linecap:round;stroke-linejoin:miter;stroke-miterlimit:4;stroke-dasharray:none;stroke-dashoffset:0;stroke-opacity:1;paint-order:fill markers stroke;stop-color:#000000;stop-opacity:1"
       d="m 18.693808,13.450438 c 0.337297,-0.337297 0.337297,-0.337297 0.337297,-0.337297"
       id="path22" /><path
       style="font-variation-settings:normal;fill:none;fill-opacity:1;stroke:#323232;stroke-width:0.426284;stroke-linecap:round;stroke-linejoin:miter;stroke-miterlimit:4;stroke-dasharray:none;stroke-dashoffset:0;stroke-opacity:1;paint-order:fill markers stroke;stop-color:#000000"
       d="m 19.326761,14.083391 c 0.337295,-0.337299 0.337295,-0.337299 0.337295,-0.337299"
       id="path22-1" /><path
       style="font-variation-settings:normal;fill:none;fill-opacity:1;stroke:#323232;stroke-width:0.426284;stroke-linecap:round;stroke-linejoin:miter;stroke-miterlimit:4;stroke-dasharray:none;stroke-dashoffset:0;stroke-opacity:1;paint-order:fill markers stroke;stop-color:#000000"
       d="m 19.559953,12.584293 c 0.337295,-0.337296 0.337295,-0.337296 0.337295,-0.337296"
       id="path22-2" /><path
       style="font-variation-settings:normal;fill:none;fill-opacity:1;stroke:#323232;stroke-width:0.426284;stroke-linecap:round;stroke-linejoin:miter;stroke-miterlimit:4;stroke-dasharray:none;stroke-dashoffset:0;stroke-opacity:1;paint-order:fill markers stroke;stop-color:#000000"
       d="m 20.192904,13.217244 c 0.337297,-0.337297 0.337297,-0.337297 0.337297,-0.337297"
       id="path22-1-5" /><path
       style="font-variation-settings:normal;fill:none;fill-opacity:1;stroke:#323232;stroke-width:0.426284;stroke-linecap:round;stroke-linejoin:miter;stroke-miterlimit:4;stroke-dasharray:none;stroke-dashoffset:0;stroke-opacity:1;paint-order:fill markers stroke;stop-color:#000000"
       d="m 20.426096,11.718149 c 0.337297,-0.337297 0.337297,-0.337297 0.337297,-0.337297"
       id="path22-2-5" /><path
       style="font-variation-settings:normal;fill:none;fill-opacity:1;stroke:#323232;stroke-width:0.426284;stroke-linecap:round;stroke-linejoin:miter;stroke-miterlimit:4;stroke-dasharray:none;stroke-dashoffset:0;stroke-opacity:1;paint-order:fill markers stroke;stop-color:#000000"
       d="m 21.059049,12.351101 c 0.337297,-0.337296 0.337297,-0.337296 0.337297,-0.337296"
       id="path22-1-5-1" /><path
       style="font-variation-settings:normal;fill:none;fill-opacity:1;stroke:#323232;stroke-width:0.426284;stroke-linecap:round;stroke-linejoin:miter;stroke-miterlimit:4;stroke-dasharray:none;stroke-dashoffset:0;stroke-opacity:1;paint-order:fill markers stroke;stop-color:#000000"
       d="m 21.292242,10.852005 c 0.337297,-0.337297 0.337297,-0.337297 0.337297,-0.337297"
       id="path22-2-6" /><path
       style="font-variation-settings:normal;fill:none;fill-opacity:1;stroke:#323232;stroke-width:0.426284;stroke-linecap:round;stroke-linejoin:miter;stroke-miterlimit:4;stroke-dasharray:none;stroke-dashoffset:0;stroke-opacity:1;paint-order:fill markers stroke;stop-color:#000000"
       d="m 21.925194,11.484957 c 0.337295,-0.337296 0.337295,-0.337296 0.337295,-0.337296"
       id="path22-1-5-18" /><path
       style="font-variation-settings:normal;fill:none;fill-opacity:1;stroke:#323232;stroke-width:0.426284;stroke-linecap:round;stroke-linejoin:miter;stroke-miterlimit:4;stroke-dasharray:none;stroke-dashoffset:0;stroke-opacity:1;paint-order:fill markers stroke;stop-color:#000000"
       d="M 22.158386,9.9858601 C 22.495681,9.6485633 22.495681,9.6485633 22.495681,9.6485633"
       id="path22-2-5-9" /><path
       style="font-variation-settings:normal;fill:none;fill-opacity:1;stroke:#323232;stroke-width:0.426284;stroke-linecap:round;stroke-linejoin:miter;stroke-miterlimit:4;stroke-dasharray:none;stroke-dashoffset:0;stroke-opacity:1;paint-order:fill markers stroke;stop-color:#000000"
       d="m 22.791337,10.618811 c 0.337297,-0.337297 0.337297,-0.337297 0.337297,-0.337297"
       id="path22-1-5-1-8" /><path
       style="font-variation-settings:normal;fill:none;fill-opacity:1;stroke:#323232;stroke-width:0.426284;stroke-linecap:round;stroke-linejoin:miter;stroke-miterlimit:4;stroke-dasharray:none;stroke-dashoffset:0;stroke-opacity:1;paint-order:fill markers stroke;stop-color:#000000"
       d="M 23.02453,9.1197147 C 23.361827,8.7824191 23.361827,8.7824191 23.361827,8.7824191"
       id="path22-2-6-8" /><path
       style="font-variation-settings:normal;fill:none;fill-opacity:1;stroke:#323232;stroke-width:0.426284;stroke-linecap:round;stroke-linejoin:miter;stroke-miterlimit:4;stroke-dasharray:none;stroke-dashoffset:0;stroke-opacity:1;paint-order:fill markers stroke;stop-color:#000000"
       d="M 23.657482,9.7526681 C 23.994781,9.4153716 23.994781,9.4153716 23.994781,9.4153716"
       id="path22-1-5-18-7" /><path
       style="font-variation-settings:normal;fill:none;fill-opacity:1;stroke:#323232;stroke-width:0.426284;stroke-linecap:round;stroke-linejoin:miter;stroke-miterlimit:4;stroke-dasharray:none;stroke-dashoffset:0;stroke-opacity:1;paint-order:fill markers stroke;stop-color:#000000"
       d="M 23.890675,8.2535711 C 24.227971,7.9162748 24.227971,7.9162748 24.227971,7.9162748"
       id="path22-2-5-9-7" /><path
       style="font-variation-settings:normal;fill:none;fill-opacity:1;stroke:#323232;stroke-width:0.426284;stroke-linecap:round;stroke-linejoin:miter;stroke-miterlimit:4;stroke-dasharray:none;stroke-dashoffset:0;stroke-opacity:1;paint-order:fill markers stroke;stop-color:#000000"
       d="M 24.523628,8.8865229 C 24.860923,8.5492266 24.860923,8.5492266 24.860923,8.5492266"
       id="path22-1-5-1-8-8" /><path
       style="font-variation-settings:normal;opacity:1;fill:none;fill-opacity:1;stroke:#323232;stroke-width:0.710473;stroke-linecap:butt;stroke-linejoin:miter;stroke-miterlimit:4;stroke-dasharray:none;stroke-dashoffset:0;stroke-opacity:1;paint-order:fill markers stroke;stop-color:#000000;stop-opacity:1"
       d="m 17.374457,19.979026 c 1.305791,1.305791 1.305791,1.305791 1.305791,1.305791"
       id="path23" /><path
       id="path4054"
       style="font-variation-settings:normal;fill:#323232;fill-opacity:1;stroke:#323232;stroke-width:0.568325;stroke-linecap:butt;stroke-linejoin:miter;stroke-miterlimit:4;stroke-dasharray:none;stroke-dashoffset:0;stroke-opacity:1;paint-order:fill markers stroke;stop-color:#000000"
       d="m 7.9804829,23.421144 c 0,0 -3.3345053,3.369846 -3.5784351,3.61717 -0.2439296,0.247324 -0.1080425,0.180394 -0.058099,0.411084 v 0 c 0.1760592,0.08258 0.2941878,0.352689 0.5119357,0.131912 0.2439298,-0.247324 3.6933256,-3.658324 3.6559042,-3.723136 0.012816,-0.105716 -0.1099692,-0.229645 -0.1943971,-0.283556 -0.011109,-0.0306 -0.025635,-0.06875 -0.044945,-0.117296 -0.099123,-0.249192 -0.2919605,-0.03618 -0.2919605,-0.03618 z"
       sodipodi:nodetypes="ccccsccscc" /><path
       style="font-variation-settings:normal;opacity:1;fill:#323232;fill-opacity:1;stroke:#323232;stroke-width:0.355335;stroke-linecap:butt;stroke-linejoin:miter;stroke-miterlimit:4;stroke-dasharray:none;stroke-dashoffset:0;stroke-opacity:1;paint-order:fill markers stroke;stop-color:#000000;stop-opacity:1"
       d="m 18.301818,12.631587 -0.348729,-0.527853 0.484795,-0.484794 0.533745,0.360139 z"
       id="path24"
       sodipodi:nodetypes="ccccc" /><path
       style="font-variation-settings:normal;opacity:1;fill:none;fill-opacity:1;stroke:#323232;stroke-width:0.355335;stroke-linecap:butt;stroke-linejoin:miter;stroke-miterlimit:4;stroke-dasharray:none;stroke-dashoffset:0;stroke-opacity:1;paint-order:fill markers stroke;stop-color:#000000;stop-opacity:1"
       d="m 18.514642,11.695698 c -1.189889,1.189889 -1.189889,1.189889 -1.189889,1.189889 0,0 -0.214931,0.250597 -0.367151,0.09838 -0.15222,-0.152222 -1.900694,-1.900694 -1.900694,-1.900694 0,0 -0.133675,-0.211216 -0.34489,-1e-6 -0.211214,0.211214 -0.327521,0.327521 -0.327521,0.327521"
       id="path25" /><path
       style="baseline-shift:baseline;display:inline;overflow:visible;opacity:1;fill:#323232;fill-opacity:1;stroke:#323232;stroke-width:0.0264583;stroke-linejoin:round;stroke-dasharray:none;stroke-opacity:1;paint-order:fill markers stroke;enable-background:accumulate;stop-color:#000000;stop-opacity:1"
       d="m 12.258787,13.020766 0.545522,0.545522 c 0.121576,-0.223922 0.294325,-0.396671 0.518245,-0.518246 0.114265,-0.231234 0.287013,-0.403982 0.518246,-0.518245 0.11061,-0.23489 0.283357,-0.407638 0.518246,-0.518247 0.09599,-0.227581 0.268736,-0.400328 0.518246,-0.518245 l -0.54414,-0.544142 c -0.648581,0.725613 -1.340036,1.416148 -2.074398,2.07157 z"
       id="path26"
       sodipodi:nodetypes="cccccccc" /></g></svg>
