<?xml version="1.0" encoding="UTF-8"?>
<svg xmlns="http://www.w3.org/2000/svg" width="128" height="128" viewBox="0 0 128 128">
  <defs>
    <clipPath id="shirtClip">
      <path d="M63.993 8.15c-10.38 0-22.796 3.526-30.355 7.22-8.038 3.266-14.581 7.287-19.253 14.509C8.102 39.594 5.051 54.6 7.13 78.482c5.964 2.07 11.333 1.45 16.842-.415-1.727-7.884-1.448-15.764.496-22.204 2.126-7.044 6.404-12.722 12.675-13.701l2.77-.432.074 2.803c.054 2.043.09 4.17.116 6.335l.027 6.312c-.037 8.798-.382 18.286-1.277 27.845 5.637 1.831 14.806 2.954 23.964 3.019l4.597-.058c8.53-.275 16.742-1.449 21.665-3.063-1.093-14.65-1.166-29.434-1.52-41.334l-.097-3.283 3.18.824c6.238 1.617 10.55 7.376 12.76 14.507 2.02 6.51 2.353 14.37.64 22.248a29.764 29.764 0 0 0 12.847 1.181l4.399-.588c1.033-18.811-1.433-37.403-6.27-46.264l-4.408-6.376c-4.647-5.357-10.62-8.399-17.665-11.074-6.746-3.458-18.358-6.614-28.95-6.614zm0 3.05c6.494 0 13.37 1.942 19.274 4.516-3.123 2.758-6.971 4.665-11.067 5.754l-7.852 17.31-6.838-16.882c-4.757-.93-9.26-2.957-12.783-6.174C50.9 13.081 57.809 11.2 63.993 11.2zm.58 28.539l3.512 5.327-3.497 5.053-3.53-5.053zm0 11.888l3.512 5.328-3.497 5.052-3.53-5.053 3.514-5.327zm0 11.733l3.512 5.327-3.497 5.054-3.53-5.054zm0 11.876l3.512 5.327-3.497 5.054-3.53-5.053 3.514-5.327zm25.079 13.715c-6.61 2.055-15.829 2.907-25.277 2.951-9.5.045-18.965-.744-25.902-2.892-.205 1.785-.43 3.569-.678 5.347 5.968 2.132 16.346 3.408 26.497 3.36 10.143-.05 20.355-1.444 25.912-3.433a241.302 241.302 0 0 1-.552-5.333zm1.368 9.086c-6.782 2.308-16.533 3.262-26.53 3.31-2.935.015-5.866-.052-8.724-.213l-4.227-.315c-5.358-.5-10.307-1.382-14.329-2.758-.897 5.43-2.02 10.772-3.413 15.903 2.117 1.06 4.41 1.968 6.835 2.733l3.97 1.096c15.85 3.805 35.88 2.156 49.601-3.513-1.355-5.09-2.387-10.57-3.183-16.243z"/>
    </clipPath>
  </defs>
  <path d="M63.993 8.15c-10.38 0-22.796 3.526-30.355 7.22-8.038 3.266-14.581 7.287-19.253 14.509C8.102 39.594 5.051 54.6 7.13 78.482c5.964 2.07 11.333 1.45 16.842-.415-1.727-7.884-1.448-15.764.496-22.204 2.126-7.044 6.404-12.722 12.675-13.701l2.77-.432.074 2.803c.054 2.043.09 4.17.116 6.335l.027 6.312c-.037 8.798-.382 18.286-1.277 27.845 5.637 1.831 14.806 2.954 23.964 3.019l4.597-.058c8.53-.275 16.742-1.449 21.665-3.063-1.093-14.65-1.166-29.434-1.52-41.334l-.097-3.283 3.18.824c6.238 1.617 10.55 7.376 12.76 14.507 2.02 6.51 2.353 14.37.64 22.248a29.764 29.764 0 0 0 12.847 1.181l4.399-.588c1.033-18.811-1.433-37.403-6.27-46.264l-4.408-6.376c-4.647-5.357-10.62-8.399-17.665-11.074-6.746-3.458-18.358-6.614-28.95-6.614zm0 3.05c6.494 0 13.37 1.942 19.274 4.516-3.123 2.758-6.971 4.665-11.067 5.754l-7.852 17.31-6.838-16.882c-4.757-.93-9.26-2.957-12.783-6.174C50.9 13.081 57.809 11.2 63.993 11.2zm.58 28.539l3.512 5.327-3.497 5.053-3.53-5.053zm0 11.888l3.512 5.328-3.497 5.052-3.53-5.053 3.514-5.327zm0 11.733l3.512 5.327-3.497 5.054-3.53-5.054zm0 11.876l3.512 5.327-3.497 5.054-3.53-5.053 3.514-5.327zm25.079 13.715c-6.61 2.055-15.829 2.907-25.277 2.951-9.5.045-18.965-.744-25.902-2.892-.205 1.785-.43 3.569-.678 5.347 5.968 2.132 16.346 3.408 26.497 3.36 10.143-.05 20.355-1.444 25.912-3.433a241.302 241.302 0 0 1-.552-5.333zm1.368 9.086c-6.782 2.308-16.533 3.262-26.53 3.31-2.935.015-5.866-.052-8.724-.213l-4.227-.315c-5.358-.5-10.307-1.382-14.329-2.758-.897 5.43-2.02 10.772-3.413 15.903 2.117 1.06 4.41 1.968 6.835 2.733l3.97 1.096c15.85 3.805 35.88 2.156 49.601-3.513-1.355-5.09-2.387-10.57-3.183-16.243z" fill="#151515"/>
  <path d="M63.993 8.15c-10.38 0-22.796 3.526-30.355 7.22-8.038 3.266-14.581 7.287-19.253 14.509C8.102 39.594 5.051 54.6 7.13 78.482c5.964 2.07 11.333 1.45 16.842-.415-1.727-7.884-1.448-15.764.496-22.204 2.126-7.044 6.404-12.722 12.675-13.701l2.77-.432.074 2.803c.054 2.043.09 4.17.116 6.335l.027 6.312c-.037 8.798-.382 18.286-1.277 27.845 5.637 1.831 14.806 2.954 23.964 3.019l4.597-.058c8.53-.275 16.742-1.449 21.665-3.063-1.093-14.65-1.166-29.434-1.52-41.334l-.097-3.283 3.18.824c6.238 1.617 10.55 7.376 12.76 14.507 2.02 6.51 2.353 14.37.64 22.248a29.764 29.764 0 0 0 12.847 1.181l4.399-.588c1.033-18.811-1.433-37.403-6.27-46.264l-4.408-6.376c-4.647-5.357-10.62-8.399-17.665-11.074-6.746-3.458-18.358-6.614-28.95-6.614zm0 3.05c6.494 0 13.37 1.942 19.274 4.516-3.123 2.758-6.971 4.665-11.067 5.754l-7.852 17.31-6.838-16.882c-4.757-.93-9.26-2.957-12.783-6.174C50.9 13.081 57.809 11.2 63.993 11.2zm.58 28.539l3.512 5.327-3.497 5.053-3.53-5.053zm0 11.888l3.512 5.328-3.497 5.052-3.53-5.053 3.514-5.327zm0 11.733l3.512 5.327-3.497 5.054-3.53-5.054zm0 11.876l3.512 5.327-3.497 5.054-3.53-5.053 3.514-5.327zm25.079 13.715c-6.61 2.055-15.829 2.907-25.277 2.951-9.5.045-18.965-.744-25.902-2.892-.205 1.785-.43 3.569-.678 5.347 5.968 2.132 16.346 3.408 26.497 3.36 10.143-.05 20.355-1.444 25.912-3.433a241.302 241.302 0 0 1-.552-5.333zm1.368 9.086c-6.782 2.308-16.533 3.262-26.53 3.31-2.935.015-5.866-.052-8.724-.213l-4.227-.315c-5.358-.5-10.307-1.382-14.329-2.758-.897 5.43-2.02 10.772-3.413 15.903 2.117 1.06 4.41 1.968 6.835 2.733l3.97 1.096c15.85 3.805 35.88 2.156 49.601-3.513-1.355-5.09-2.387-10.57-3.183-16.243z" fill="#2b2727" transform="translate(0 0) scale(1)"/>
  <g clip-path="url(#shirtClip)">
    <path d="M63.993 8.15c-10.38 0-22.796 3.526-30.355 7.22-8.038 3.266-14.581 7.287-19.253 14.509C8.102 39.594 5.051 54.6 7.13 78.482c5.964 2.07 11.333 1.45 16.842-.415-1.727-7.884-1.448-15.764.496-22.204 2.126-7.044 6.404-12.722 12.675-13.701l2.77-.432.074 2.803c.054 2.043.09 4.17.116 6.335l.027 6.312c-.037 8.798-.382 18.286-1.277 27.845 5.637 1.831 14.806 2.954 23.964 3.019l4.597-.058c8.53-.275 16.742-1.449 21.665-3.063-1.093-14.65-1.166-29.434-1.52-41.334l-.097-3.283 3.18.824c6.238 1.617 10.55 7.376 12.76 14.507 2.02 6.51 2.353 14.37.64 22.248a29.764 29.764 0 0 0 12.847 1.181l4.399-.588c1.033-18.811-1.433-37.403-6.27-46.264l-4.408-6.376c-4.647-5.357-10.62-8.399-17.665-11.074-6.746-3.458-18.358-6.614-28.95-6.614zm0 3.05c6.494 0 13.37 1.942 19.274 4.516-3.123 2.758-6.971 4.665-11.067 5.754l-7.852 17.31-6.838-16.882c-4.757-.93-9.26-2.957-12.783-6.174C50.9 13.081 57.809 11.2 63.993 11.2zm.58 28.539l3.512 5.327-3.497 5.053-3.53-5.053zm0 11.888l3.512 5.328-3.497 5.052-3.53-5.053 3.514-5.327zm0 11.733l3.512 5.327-3.497 5.054-3.53-5.054zm0 11.876l3.512 5.327-3.497 5.054-3.53-5.053 3.514-5.327zm25.079 13.715c-6.61 2.055-15.829 2.907-25.277 2.951-9.5.045-18.965-.744-25.902-2.892-.205 1.785-.43 3.569-.678 5.347 5.968 2.132 16.346 3.408 26.497 3.36 10.143-.05 20.355-1.444 25.912-3.433a241.302 241.302 0 0 1-.552-5.333zm1.368 9.086c-6.782 2.308-16.533 3.262-26.53 3.31-2.935.015-5.866-.052-8.724-.213l-4.227-.315c-5.358-.5-10.307-1.382-14.329-2.758-.897 5.43-2.02 10.772-3.413 15.903 2.117 1.06 4.41 1.968 6.835 2.733l3.97 1.096c15.85 3.805 35.88 2.156 49.601-3.513-1.355-5.09-2.387-10.57-3.183-16.243z" fill="#2b2727"/>
    <path d="M63.993 8.15c-10.38 0-22.796 3.526-30.355 7.22-8.038 3.266-14.581 7.287-19.253 14.509C8.102 39.594 5.051 54.6 7.13 78.482c5.964 2.07 11.333 1.45 16.842-.415-1.727-7.884-1.448-15.764.496-22.204 2.126-7.044 6.404-12.722 12.675-13.701l2.77-.432.074 2.803c.054 2.043.09 4.17.116 6.335l.027 6.312c-.037 8.798-.382 18.286-1.277 27.845 5.637 1.831 14.806 2.954 23.964 3.019l4.597-.058c8.53-.275 16.742-1.449 21.665-3.063-1.093-14.65-1.166-29.434-1.52-41.334l-.097-3.283 3.18.824c6.238 1.617 10.55 7.376 12.76 14.507 2.02 6.51 2.353 14.37.64 22.248a29.764 29.764 0 0 0 12.847 1.181l4.399-.588c1.033-18.811-1.433-37.403-6.27-46.264l-4.408-6.376c-4.647-5.357-10.62-8.399-17.665-11.074-6.746-3.458-18.358-6.614-28.95-6.614z" fill="#1c1c1c" opacity="0.95"/>
    <g transform="translate(0 -2)">
      <path d="M63 111.521C85.6437 111.521 104 93.1652 104 70.5215C104 47.8778 85.6437 29.5215 63 29.5215C40.3563 29.5215 22 47.8778 22 70.5215C22 93.1652 40.3563 111.521 63 111.521Z" fill="#AB4809"/><path d="M62.9996 108.285C83.8568 108.285 100.765 91.3773 100.765 70.5201C100.765 49.663 83.8568 32.7549 62.9996 32.7549C42.1424 32.7549 25.2344 49.663 25.2344 70.5201C25.2344 91.3773 42.1424 108.285 62.9996 108.285Z" fill="#AB5909"/><path d="M63.0014 104.946C82.014 104.946 97.4267 89.5335 97.4267 70.521C97.4267 51.5084 82.014 36.0957 63.0014 36.0957C43.9889 36.0957 28.5762 51.5084 28.5762 70.521C28.5762 89.5335 43.9889 104.946 63.0014 104.946Z" fill="#ECE2D6"/><path d="M50.5087 59.2393C50.4824 59.2393 50.4298 59.2393 50.4035 59.2393L47.8788 59.4233C47.7473 59.4233 47.1161 59.5285 47.0898 60.3175L47.1424 67.313C47.1424 67.3393 47.1424 67.7864 47.3791 68.0494C47.5106 68.1809 47.6684 68.2598 47.9051 68.2598L50.9295 68.1283C51.061 68.102 51.2977 67.8916 51.2451 67.1026V67.0763L51.2977 59.7915C51.2977 59.7652 51.2977 59.5811 51.1662 59.4233C50.9821 59.2919 50.7191 59.2393 50.5087 59.2393Z" fill="#976120"/><path d="M58.1066 47.9562V60.9741C58.1066 61.3423 57.8436 61.9472 57.1599 62.0261C57.1336 62.0261 57.1336 62.0261 57.1073 62.0261H53.7936C53.7673 62.0261 53.741 62.0261 53.7147 62.0261C53.7147 62.0261 53.6358 62.0261 53.5569 62.0261C52.8995 62.0261 52.5576 62.368 52.505 63.0781V65.5239C52.505 65.5501 52.505 65.9709 52.768 66.2339C52.9783 66.4443 53.2939 66.5495 53.7147 66.5232L61.3414 66.1024C61.3677 66.1024 61.7359 66.1024 61.9463 65.8394C62.1041 65.6816 62.1567 65.4187 62.1304 65.0505L61.4729 42.8279C61.4729 42.6175 61.394 41.9863 60.4735 41.9863C60.4209 41.9863 60.342 41.9863 60.2894 41.9863H60.2631H60.2368C59.7635 41.9863 48.4812 42.0652 45.9828 49.9286C45.9302 50.1127 45.9039 50.2968 45.9302 50.3757C45.9302 50.3757 45.9828 50.4283 46.1406 50.4283C46.1932 50.4283 46.2195 50.4283 46.2721 50.4283C46.2984 50.4283 46.2984 50.4283 46.3247 50.4283H50.9007C50.927 50.4283 50.9533 50.4283 50.9796 50.4283C50.9796 50.4283 51.0322 50.4283 51.0848 50.4283C51.3478 50.4283 51.5319 50.2705 51.6108 49.9549C51.6108 49.9286 51.6108 49.9286 51.6371 49.9023C51.6897 49.7708 53.0835 46.4834 56.818 46.3519C56.8969 46.3519 57.4492 46.3782 57.8173 46.799C57.9488 47.0357 58.1592 47.4039 58.1066 47.9562Z" fill="#976120"/><path d="M69.6784 46.9047C69.731 46.9047 75.3853 48.2196 75.9376 54.9784V55.0047V59.2651C75.9376 59.2914 75.9376 59.3177 75.9376 59.3177C75.9376 59.3177 75.885 59.7648 76.1217 60.0278C76.2531 60.1856 76.4898 60.2645 76.7791 60.2645H79.4616C79.4879 60.2119 79.5668 60.0541 79.5668 59.7122C79.5668 59.6333 79.5931 50.0342 76.3583 46.4313C76.332 46.405 73.8336 43.5384 65.944 41.9605C65.9177 41.9605 65.8914 41.9605 65.8651 41.9342C65.8651 41.9342 65.4969 41.7764 65.1024 41.7764C64.8131 41.7764 64.6027 41.8553 64.4712 41.9868C64.3134 42.1709 64.2345 42.4601 64.2608 42.8809V47.5621C64.2608 47.7199 64.3397 49.1401 66.0229 49.1927H68.5476C68.5739 49.1138 68.6265 48.9823 68.6791 48.693C68.6265 48.4037 68.495 47.6147 68.8106 47.1676C68.9683 46.9573 69.1787 46.8521 69.4417 46.8521C69.4943 46.8784 69.5732 46.8784 69.6784 46.9047Z" fill="#976120"/><path d="M63.3945 51.5852V54.7411C63.3945 54.9252 63.4208 55.0041 63.4734 55.0304C63.5786 55.1356 63.8153 55.2145 64.1046 55.2145C64.2098 55.2145 64.2887 55.2145 64.315 55.2145C64.3413 55.2145 64.3413 55.2145 64.3676 55.2145C64.3676 55.2145 64.3676 55.2145 64.3939 55.2145L73.1251 55.6352C73.4933 55.6089 73.7563 55.53 73.8615 55.3723C73.9667 55.2145 73.9141 55.0304 73.9141 55.0304C73.9141 55.0041 73.8878 54.9515 73.8878 54.9252L73.8352 52.9265C73.6774 51.3485 72.3625 51.2696 72.0995 51.2696H72.0732L64.1572 50.9277C63.4208 51.0329 63.4208 51.5063 63.4471 51.5589C63.3945 51.5589 63.3945 51.5852 63.3945 51.5852Z" fill="#976120"/><path d="M70.8106 61.8424C70.7843 61.8424 70.7317 61.8424 70.6791 61.8424C70.1268 61.8424 69.7323 61.6846 69.4694 61.3427C69.1801 60.9745 69.2064 60.5537 69.2327 60.4222V58.3972C69.2327 57.0034 68.3911 56.8982 68.3122 56.8982L65.5508 56.7667C65.1563 56.793 64.8671 56.9508 64.683 57.1875C64.3674 57.6082 64.4463 58.1868 64.4463 58.2131C64.4463 58.2394 64.4463 58.2394 64.4463 58.2657L64.6304 65.0508C64.7093 65.7609 65.1037 66.1028 65.8138 66.1028C65.919 66.1028 65.9716 66.1028 65.9979 66.1028C66.0242 66.1028 66.0505 66.1028 66.0505 66.1028L89.6669 66.5236C89.9036 66.5236 90.0088 66.4447 90.0614 66.3658C90.2718 66.1028 90.2718 65.5505 90.2455 65.419C88.7728 54.2157 81.7773 51.7699 81.3039 51.6384C81.0146 51.6121 80.7779 51.6384 80.7253 51.7436C80.6464 51.8488 80.699 52.0855 80.7253 52.1907C80.7253 52.217 80.7516 52.2696 80.7516 52.2959L81.0146 56.0829V56.1092C81.0146 56.5563 81.8824 56.5826 81.9876 56.5826H82.0402C85.275 56.6615 85.4065 59.5018 85.4065 59.5281C85.4065 61.3953 83.513 61.895 82.5136 61.895H70.8106V61.8424Z" fill="#976120"/><path d="M80.4093 75.3605C80.4093 75.3342 80.4093 75.3079 80.4093 75.3079L80.2252 68.7858C80.1989 68.1546 80.0411 67.8916 79.8833 67.8916C79.857 67.8916 79.8307 67.8916 79.7781 67.8916H77.1483C76.9116 67.9442 76.8327 68.0757 76.8064 68.102C76.6749 68.3124 76.7801 68.628 76.7801 68.628C76.7801 68.6543 76.8064 68.7069 76.8064 68.7332L77.2009 75.5972C77.2272 76.0706 77.3586 76.3073 77.5953 76.3073C77.6216 76.3073 77.6216 76.3073 77.6479 76.3073C77.6742 76.3073 77.7005 76.3073 77.7268 76.3073L80.2778 76.2284C80.4882 76.0969 80.4093 75.3605 80.4093 75.3605Z" fill="#976120"/><path d="M90.6914 70.2854V70.2591C90.7177 69.7069 90.6125 69.3124 90.4547 69.102C90.3495 68.9968 90.2443 68.9705 90.1654 68.9705C90.1391 68.9705 90.1391 68.9705 90.1391 68.9705C90.1128 68.9705 90.0865 68.9705 90.0865 68.9705L82.7754 68.8916C82.7228 68.8916 82.7228 68.8916 82.6965 68.8916C82.6176 68.8916 82.4598 68.8916 82.4072 68.9968C82.3283 69.102 82.3546 69.365 82.4072 69.5228C82.4072 69.5491 82.4335 69.6017 82.4335 69.6543L82.4861 72.0475C82.5387 72.626 82.7754 72.626 82.9069 72.626C83.0384 72.626 83.1699 72.5734 83.1699 72.5734C83.2225 72.5472 83.2751 72.5472 83.3277 72.5472L85.7472 72.626C86.2732 72.626 86.5361 72.889 86.6676 73.0994C87.0621 73.7043 86.6939 74.6248 86.6413 74.8089C85.5105 78.0699 80.1718 78.7537 75.8851 78.7537C74.3335 78.7537 73.2026 78.6485 73.0185 78.6485C72.6766 78.6748 72.4399 78.78 72.2821 78.9378C72.098 79.1745 72.1243 79.4638 72.1243 79.4638C72.1243 79.4901 72.1243 79.4901 72.1243 79.5164V82.8826C72.1506 83.6453 72.3347 83.9346 72.4136 83.9346C72.4662 83.9083 72.4662 83.9083 72.5188 83.9083C72.5188 83.9083 72.5188 83.9083 72.5451 83.9083L83.4066 83.5664C91.2174 82.4618 90.6914 70.4169 90.6914 70.2854Z" fill="#976120"/><path d="M81.1737 87.7201C81.2526 87.2204 81.2 86.8523 81.0422 86.5893C80.8055 86.2737 80.4374 86.2211 80.4374 86.2211L77.0448 86.0107C76.3084 86.1159 76.2558 86.563 76.2558 86.5893C76.2558 86.6419 76.2295 86.6945 76.2032 86.7471C74.7568 89.6925 72.4688 90.8234 72.1269 90.9812C71.7587 91.2442 71.4431 91.3757 71.1538 91.3757C70.7857 91.3757 70.4964 91.1653 70.3649 90.7971C70.286 90.5867 70.286 90.3763 70.286 90.3237L70.1545 73.7028V73.6765C70.2071 72.9401 70.6805 72.493 71.3642 72.493C71.4957 72.493 71.6272 72.5193 71.6798 72.5193L74.0993 72.3879C74.5201 72.3616 74.6253 72.046 74.6253 71.9671L74.4938 69.1794C74.4675 68.7849 74.3623 68.3115 74.0204 68.3115C73.9678 68.3115 73.9152 68.3115 73.9152 68.3115C73.8889 68.3115 73.8363 68.3378 73.81 68.3378L66.0782 68.4693C65.8152 68.4956 65.6311 68.6008 65.4996 68.7586C65.2892 69.0479 65.3418 69.495 65.3418 69.495C65.3418 69.5213 65.3418 69.5213 65.3418 69.5476L65.6048 96.688C65.6048 97.1088 65.6837 97.4244 65.8678 97.6348C66.1307 97.9241 66.6041 98.003 66.946 98.003C67.2879 98.003 67.5772 97.9241 67.5772 97.9241C67.6035 97.9241 67.6035 97.9241 67.6298 97.9241C79.5169 96.504 81.1211 88.062 81.1737 87.7201Z" fill="#976120"/><path d="M56.8718 91.954C56.004 91.5332 53.9 89.929 53.8211 89.8501C51.7435 88.2458 51.5857 85.7211 51.5594 85.6159V78.1733C51.5331 77.7 51.4279 76.8584 50.8757 76.8584C50.8494 76.8584 50.8231 76.8584 50.8231 76.8584C50.7968 76.8584 50.7705 76.8584 50.7442 76.8584L47.299 76.9373C46.773 76.9899 46.4049 77.1477 46.2471 77.4107C46.0893 77.6474 46.1682 77.8841 46.1682 77.9104C46.1682 77.9367 46.1945 77.9892 46.1945 78.0155L46.4574 84.8007C47.0886 90.6916 49.4555 93.2426 49.4818 93.2689C53.6897 98.2131 62.1053 99.0284 62.5261 99.0547C63.1836 99.0547 63.3151 98.1079 63.3414 97.9501L63.2888 88.4825C63.2625 87.4043 62.868 87.115 62.6576 87.115L58.292 87.1939C58.1605 87.1939 58.1079 87.2728 58.0816 87.2991C57.9238 87.5095 57.9501 87.9828 57.9764 88.1932C57.9764 88.2195 57.9764 88.2195 57.9764 88.2458L58.1079 90.9283C58.1079 91.9803 57.5293 92.0592 57.3452 92.0592C57.0822 92.0592 56.9507 91.9803 56.8718 91.954Z" fill="#976120"/><path d="M63.7382 85.011C63.8697 84.8532 63.8434 84.6165 63.8434 84.6165C63.8434 84.5902 63.8434 84.5902 63.8434 84.5639V80.6716C63.7645 79.909 63.107 79.8301 62.844 79.8301L54.2706 80.0931C53.3238 80.1983 53.3501 80.7768 53.3501 80.8031C53.3501 80.8294 53.3501 80.8294 53.3501 80.8557L53.166 84.748C53.1923 85.1425 53.2975 85.6421 53.955 85.6421C54.0339 85.6421 54.1128 85.6421 54.1128 85.6421C54.1391 85.6421 54.1391 85.6421 54.1654 85.6421L63.1596 85.2214C63.4489 85.2214 63.633 85.1425 63.7382 85.011Z" fill="#976120"/><path d="M44.8528 85.5389L44.8002 81.4099C44.8002 80.5158 44.3794 80.5158 44.2216 80.5158C44.1953 80.5158 44.169 80.5158 44.169 80.5158C44.1427 80.5158 44.1164 80.5158 44.0638 80.5158C42.9329 80.4369 42.1177 80.0687 41.618 79.4112C41.0394 78.7011 41.0657 77.8596 41.092 77.6755C41.0657 75.3612 45.6943 75.0193 46.2466 74.993C47.6667 74.8615 56.3454 74.7826 56.7136 74.7826C57.2921 74.7826 57.6866 74.9404 57.897 75.256C58.0811 75.5453 58.0548 75.8346 58.0285 75.9924L58.0811 77.2284C58.0811 77.2547 58.0811 77.2547 58.0811 77.281C58.0811 77.4914 58.1337 77.5703 58.1863 77.6229C58.3441 77.807 58.6597 77.8333 58.7912 77.8596L61.8944 77.5966H61.9207C62.21 77.5966 62.3152 77.4914 62.3415 77.4388C62.4993 77.2284 62.473 76.8339 62.4467 76.7287C62.4467 76.7024 62.4467 76.7024 62.4467 76.6761L61.9996 70.417C61.9207 69.6543 61.6052 69.2861 61.0792 69.2861C60.974 69.2861 60.9214 69.3124 60.9214 69.3124C60.8951 69.3124 60.8688 69.3124 60.8425 69.3124L37.2524 70.4959H37.2261C37.1998 70.4959 37.1472 70.4959 37.1209 70.4959C36.5949 70.4959 36.2004 70.6274 35.99 70.8904C35.727 71.1797 35.7796 71.6004 35.7796 71.6004C35.7796 71.6267 35.7796 71.6793 35.7796 71.7056C35.2011 76.6761 36.9105 80.9891 36.9368 81.0417C39.1196 86.0911 42.9592 86.3541 43.7219 86.3541C43.8008 86.3541 43.8271 86.3541 43.8534 86.3541C43.8797 86.3541 43.8797 86.3541 43.906 86.3541C43.9323 86.3541 43.9849 86.3541 44.0112 86.3541C44.2742 86.3541 44.6424 86.3015 44.8265 86.0911C44.9842 85.907 44.9316 85.6178 44.9316 85.6178C44.8528 85.5915 44.8528 85.5652 44.8528 85.5389Z" fill="#976120"/><path d="M35.7019 67.97C35.8597 67.97 35.9649 67.9437 35.9649 67.9437C35.9912 67.9437 36.0175 67.9437 36.0438 67.9437L42.8815 67.7333C43.276 67.7333 43.539 67.6281 43.6968 67.444C43.9072 67.2073 43.8546 66.8391 43.8546 66.8391C43.8546 66.8128 43.8546 66.7603 43.8546 66.734L44.1176 63.6044C44.1176 63.1047 43.9072 63.1047 43.7757 63.1047C43.6705 63.1047 43.5916 63.131 43.5916 63.131C43.5653 63.131 43.5127 63.1573 43.4864 63.1573H42.6448C42.1189 63.1573 41.8822 62.9206 41.7507 62.7102C41.4877 62.2631 41.7244 61.7109 41.8033 61.5268C43.2497 57.0034 47.9835 56.793 48.0361 56.793L55.9258 56.6615C55.9521 56.6615 55.9521 56.6615 55.9784 56.6615C56.3466 56.6878 56.5307 56.3722 56.5833 56.2407L56.6885 53.3741C56.6622 53.2426 56.6622 53.0585 56.6359 52.6377C56.6096 51.9014 56.294 51.9014 56.1888 51.9014C56.1099 51.9014 56.0573 51.9277 56.0573 51.9277C56.031 51.9277 56.0047 51.954 55.9521 51.954L46.8264 52.4273C41.5929 53.0059 39.2523 55.7673 39.226 55.7936C35.8334 59.7121 35.0971 67.0232 35.0971 67.1021C35.0708 67.3388 35.0971 67.6544 35.2285 67.8122C35.36 67.9437 35.5441 67.97 35.7019 67.97Z" fill="#976120"/><path d="M91.8769 86.1955C96.2951 77.7536 94.4542 65.6035 94.4279 65.4983C91.7454 51.5335 78.3855 42.2763 78.254 42.1974C73.7832 39.5149 68.4182 38.1211 62.3695 38.1211C57.136 38.1211 53.3227 39.1993 53.2964 39.1993C42.7242 42.1711 36.3073 52.6644 36.2284 52.7696C32.678 58.5816 31.2579 69.7324 31.2053 70.2321C30.6793 84.8543 37.8589 91.2186 37.9378 91.2975C37.9641 91.3238 37.9904 91.3501 38.0167 91.4027C42.6716 99.3976 55.9 102.185 56.0315 102.212C58.2406 102.685 60.5286 102.922 62.8692 102.922C70.3118 102.922 75.9397 100.528 75.9923 100.502C76.0186 100.502 76.0449 100.476 76.0449 100.476C85.1181 98.2404 91.798 86.327 91.8769 86.1955ZM81.857 94.5586C81.3836 94.9793 75.3086 99.9498 63.5792 99.9498C60.8442 99.9498 57.9776 99.6605 55.0584 99.1083C55.0321 99.1083 55.0058 99.1083 54.9795 99.082C54.4535 98.8716 41.7774 93.7433 37.3592 85.4591C37.0436 85.0383 33.9667 80.7516 33.1777 71.2314C33.1777 71.2051 33.1777 71.2051 33.1777 71.1788C33.1777 71.0473 33.6774 57.7664 40.8307 49.377C41.1726 48.9299 47.8788 40.0935 62.9481 39.5412C62.9481 39.5412 62.9481 39.5412 62.9744 39.5412C63.0796 39.5412 73.941 39.6464 83.5664 48.4829C83.6716 48.5881 93.4548 58.0557 93.4548 73.2564C93.4285 73.4142 92.4818 87.7208 81.857 94.5586Z" fill="#976120"/><path d="M62.3696 81.5922C69.1235 81.5922 74.5986 76.2348 74.5986 69.6262C74.5986 63.0175 69.1235 57.6602 62.3696 57.6602C55.6157 57.6602 50.1406 63.0175 50.1406 69.6262C50.1406 76.2348 55.6157 81.5922 62.3696 81.5922Z" fill="#50464F"/><path d="M62.4471 80.4626C68.5038 80.4626 73.4138 75.5527 73.4138 69.4959C73.4138 63.4392 68.5038 58.5293 62.4471 58.5293C56.3904 58.5293 51.4805 63.4392 51.4805 69.4959C51.4805 75.5527 56.3904 80.4626 62.4471 80.4626Z" fill="#AB5909"/><path d="M62.4485 78.8052C67.5902 78.8052 71.7583 74.637 71.7583 69.4954C71.7583 64.3537 67.5902 60.1855 62.4485 60.1855C57.3068 60.1855 53.1387 64.3537 53.1387 69.4954C53.1387 74.637 57.3068 78.8052 62.4485 78.8052Z" fill="#758078"/><path d="M78.7267 105.863C79.2044 105.65 79.4193 105.09 79.2067 104.613C78.9941 104.135 78.4345 103.92 77.9568 104.133C77.4791 104.345 77.2641 104.905 77.4768 105.383C77.6894 105.86 78.249 106.075 78.7267 105.863Z" fill="#544741"/><path d="M48.0606 36.9309C48.5384 36.7183 48.7533 36.1587 48.5407 35.681C48.3281 35.2033 47.7684 34.9884 47.2907 35.201C46.813 35.4136 46.5981 35.9732 46.8107 36.4509C47.0233 36.9286 47.5829 37.1435 48.0606 36.9309Z" fill="#544741"/><path d="M99.1013 84.3872C99.2889 83.8991 99.0453 83.3514 98.5571 83.1638C98.069 82.9762 97.5213 83.2199 97.3337 83.708C97.1462 84.1961 97.3898 84.7438 97.8779 84.9314C98.3661 85.119 98.9138 84.8753 99.1013 84.3872Z" fill="#544741"/><path d="M28.6734 57.3365C28.8608 56.8484 28.6169 56.3008 28.1288 56.1134C27.6406 55.9261 27.093 56.1699 26.9056 56.6581C26.7183 57.1463 26.9621 57.6939 27.4503 57.8812C27.9385 58.0686 28.4861 57.8247 28.6734 57.3365Z" fill="#544741"/><path d="M97.8676 56.0448C98.3452 55.8321 98.56 55.2724 98.3473 54.7948C98.1346 54.3171 97.5749 54.1023 97.0973 54.3151C96.6196 54.5278 96.4049 55.0874 96.6176 55.5651C96.8303 56.0427 97.3899 56.2575 97.8676 56.0448Z" fill="#544741"/><path d="M28.9281 86.7137C29.4058 86.501 29.6206 85.9414 29.4078 85.4637C29.1951 84.9861 28.6355 84.7713 28.1578 84.984C27.6802 85.1967 27.4654 85.7564 27.6781 86.234C27.8908 86.7117 28.4505 86.9264 28.9281 86.7137Z" fill="#544741"/><path d="M77.4117 35.651C77.5991 35.1628 77.3552 34.6152 76.867 34.4279C76.3789 34.2405 75.8313 34.4844 75.6439 34.9725C75.4566 35.4607 75.7004 36.0083 76.1886 36.1957C76.6767 36.383 77.2244 36.1392 77.4117 35.651Z" fill="#544741"/><path d="M50.359 106.074C50.5463 105.586 50.3025 105.038 49.8143 104.851C49.3261 104.663 48.7785 104.907 48.5912 105.395C48.4038 105.884 48.6477 106.431 49.1358 106.619C49.624 106.806 50.1716 106.562 50.359 106.074Z" fill="#544741"/><path d="M90.3345 97.8687C90.7043 97.4989 90.7043 96.8995 90.3345 96.5298C89.9648 96.16 89.3654 96.16 88.9956 96.5298C88.6259 96.8995 88.6259 97.4989 88.9956 97.8687C89.3654 98.2384 89.9648 98.2384 90.3345 97.8687Z" fill="#544741"/><path d="M37.0083 44.5174C37.378 44.1477 37.3781 43.5483 37.0085 43.1785C36.6388 42.8087 36.0393 42.8086 35.6695 43.1783C35.2998 43.548 35.2997 44.1474 35.6694 44.5172C36.039 44.887 36.6385 44.8871 37.0083 44.5174Z" fill="#544741"/><path d="M100.74 71.4668C101.263 71.4668 101.686 71.0429 101.686 70.52C101.686 69.9971 101.263 69.5732 100.74 69.5732C100.217 69.5732 99.793 69.9971 99.793 70.52C99.793 71.0429 100.217 71.4668 100.74 71.4668Z" fill="#544741"/><path d="M25.2905 71.4668C25.8134 71.4668 26.2373 71.0429 26.2373 70.52C26.2373 69.9971 25.8134 69.5732 25.2905 69.5732C24.7676 69.5732 24.3438 69.9971 24.3438 70.52C24.3438 71.0429 24.7676 71.4668 25.2905 71.4668Z" fill="#544741"/><path d="M90.3481 44.532C90.7179 44.1624 90.718 43.5629 90.3483 43.1931C89.9786 42.8234 89.3792 42.8233 89.0094 43.1929C88.6396 43.5626 88.6395 44.1621 89.0092 44.5319C89.3789 44.9016 89.9783 44.9017 90.3481 44.532Z" fill="#544741"/><path d="M36.9926 97.8572C37.3624 97.4876 37.3625 96.8881 36.9928 96.5183C36.6232 96.1485 36.0237 96.1485 35.6539 96.5181C35.2841 96.8878 35.2841 97.4873 35.6537 97.857C36.0234 98.2268 36.6229 98.2269 36.9926 97.8572Z" fill="#544741"/><path d="M63.0054 33.7548C63.5282 33.7548 63.9521 33.331 63.9521 32.8081C63.9521 32.2852 63.5282 31.8613 63.0054 31.8613C62.4825 31.8613 62.0586 32.2852 62.0586 32.8081C62.0586 33.331 62.4825 33.7548 63.0054 33.7548Z" fill="#544741"/><path d="M63.0054 109.207C63.5282 109.207 63.9521 108.783 63.9521 108.26C63.9521 107.737 63.5282 107.313 63.0054 107.313C62.4825 107.313 62.0586 107.737 62.0586 108.26C62.0586 108.783 62.4825 109.207 63.0054 109.207Z" fill="#544741"/>
    </g>
    <circle cx="64" cy="69" r="14.5" fill="none" stroke="#000" stroke-width="3" opacity="0.9"/>
  </g>
  <path d="M63.993 8.15c-10.38 0-22.796 3.526-30.355 7.22-8.038 3.266-14.581 7.287-19.253 14.509C8.102 39.594 5.051 54.6 7.13 78.482c5.964 2.07 11.333 1.45 16.842-.415-1.727-7.884-1.448-15.764.496-22.204 2.126-7.044 6.404-12.722 12.675-13.701l2.77-.432.074 2.803c.054 2.043.09 4.17.116 6.335l.027 6.312c-.037 8.798-.382 18.286-1.277 27.845 5.637 1.831 14.806 2.954 23.964 3.019l4.597-.058c8.53-.275 16.742-1.449 21.665-3.063-1.093-14.65-1.166-29.434-1.52-41.334l-.097-3.283 3.18.824c6.238 1.617 10.55 7.376 12.76 14.507 2.02 6.51 2.353 14.37.64 22.248a29.764 29.764 0 0 0 12.847 1.181l4.399-.588c1.033-18.811-1.433-37.403-6.27-46.264l-4.408-6.376c-4.647-5.357-10.62-8.399-17.665-11.074-6.746-3.458-18.358-6.614-28.95-6.614zm0 3.05c6.494 0 13.37 1.942 19.274 4.516-3.123 2.758-6.971 4.665-11.067 5.754l-7.852 17.31-6.838-16.882c-4.757-.93-9.26-2.957-12.783-6.174C50.9 13.081 57.809 11.2 63.993 11.2zm.58 28.539l3.512 5.327-3.497 5.053-3.53-5.053zm0 11.888l3.512 5.328-3.497 5.052-3.53-5.053 3.514-5.327zm0 11.733l3.512 5.327-3.497 5.054-3.53-5.054zm0 11.876l3.512 5.327-3.497 5.054-3.53-5.053 3.514-5.327zm25.079 13.715c-6.61 2.055-15.829 2.907-25.277 2.951-9.5.045-18.965-.744-25.902-2.892-.205 1.785-.43 3.569-.678 5.347 5.968 2.132 16.346 3.408 26.497 3.36 10.143-.05 20.355-1.444 25.912-3.433a241.302 241.302 0 0 1-.552-5.333zm1.368 9.086c-6.782 2.308-16.533 3.262-26.53 3.31-2.935.015-5.866-.052-8.724-.213l-4.227-.315c-5.358-.5-10.307-1.382-14.329-2.758-.897 5.43-2.02 10.772-3.413 15.903 2.117 1.06 4.41 1.968 6.835 2.733l3.97 1.096c15.85 3.805 35.88 2.156 49.601-3.513-1.355-5.09-2.387-10.57-3.183-16.243z" fill="none" stroke="#000000" stroke-width="3" stroke-linejoin="round"/>
</svg>