<svg xmlns="http://www.w3.org/2000/svg" width="128" height="128" viewBox="0 0 33.867 33.867"><path d="M20.674 4.308 7.947 17.102l-.434.011-1.09 1.09s-.802.735-.145 1.391l3.033 3.01c.14.115.802.43 1.272-.04L24.668 8.48s.212-.1-.078-.39l-1.746-1.746Z" style="font-variation-settings:normal;opacity:1;fill:#fff;fill-opacity:1;stroke:#323232;stroke-width:.754;stroke-linecap:butt;stroke-linejoin:miter;stroke-miterlimit:4;stroke-dasharray:none;stroke-dashoffset:0;stroke-opacity:1;paint-order:fill markers stroke;stop-color:#000;stop-opacity:1"/><path d="M7.947 17.102h3.96s.429-.005.751-.328l3.605-3.605.075-.279 6.515-6.515" style="font-variation-settings:normal;opacity:1;fill:none;fill-opacity:1;stroke:#323232;stroke-width:.654;stroke-linecap:butt;stroke-linejoin:miter;stroke-miterlimit:4;stroke-dasharray:none;stroke-dashoffset:0;stroke-opacity:1;paint-order:fill markers stroke;stop-color:#000;stop-opacity:1"/><path d="m17.99 16.543-3.538 3.538c.96.211 1.438.507 1.862 1.153.287.5.822 1.444 1.14 1.967.32.523 2.03 2.596 2.22 2.643.188.047 1.195-1.026 1.258-1.09.063-.062.035-.15.035-.15l2.543-2.542zM24.134 22.846l-2.258 2.258s5.318 5.271 5.672 5.625c.354.354.464.338.598.283.133-.055 1.824-1.935 1.927-2.084.102-.15 0-.22 0-.22z" style="font-variation-settings:normal;opacity:1;fill:#fff;fill-opacity:1;stroke:#323232;stroke-width:.754;stroke-linecap:butt;stroke-linejoin:miter;stroke-miterlimit:4;stroke-dasharray:none;stroke-dashoffset:0;stroke-opacity:1;paint-order:fill markers stroke;stop-color:#000;stop-opacity:1"/><path d="m15.454 19.113 5.485 5.485-1.146 1.146-1.686-1.875-1.568-2.558-1.018-.952-.813-.333z" style="font-variation-settings:normal;opacity:1;fill:#323232;fill-opacity:1;stroke:#323232;stroke-width:.0692192;stroke-linecap:butt;stroke-linejoin:miter;stroke-miterlimit:4;stroke-dasharray:none;stroke-dashoffset:0;stroke-opacity:1;paint-order:fill markers stroke;stop-color:#000;stop-opacity:1"/><path d="m27.889 30.992 2.125-2.125" style="font-variation-settings:normal;opacity:1;fill:none;fill-opacity:1;stroke:#323232;stroke-width:.654;stroke-linecap:butt;stroke-linejoin:miter;stroke-miterlimit:4;stroke-dasharray:none;stroke-dashoffset:0;stroke-opacity:1;paint-order:fill markers stroke;stop-color:#000;stop-opacity:1"/><path d="m8.224 22.878.528.538c.18.166.531.276.774.306l.083.01c.399.05.74-.024.74-.024s.574.52.79.815c.218.295.418.506.257.667-.162.162-.607.584-.93.785-.322.2-.773.484-1.05.439-.279-.044-.69-.345-.752-.684-.06-.34-.69-2.28-.723-2.403-.033-.123-.005-.162.078-.245l.205-.204z" style="font-variation-settings:normal;opacity:1;fill:#fff;fill-opacity:1;stroke:#323232;stroke-width:.754;stroke-linecap:butt;stroke-linejoin:miter;stroke-miterlimit:4;stroke-dasharray:none;stroke-dashoffset:0;stroke-opacity:1;paint-order:fill markers stroke;stop-color:#000;stop-opacity:1"/><path d="M18.936 17.35c.594.185.61.28 1.262-.232.653-.512 1.444-1.13 1.68-1.483.236-.354.539-1.027-.106-1.798-.645-.77-1.13-1.38-1.13-1.38" style="font-variation-settings:normal;opacity:1;fill:none;fill-opacity:1;stroke:#323232;stroke-width:.446;stroke-linecap:butt;stroke-linejoin:miter;stroke-miterlimit:4;stroke-dasharray:none;stroke-dashoffset:0;stroke-opacity:1;paint-order:fill markers stroke;stop-color:#000;stop-opacity:1"/><path d="M19.77 13.558c.601-.012.558.031.696-.075.137-.106.31-.216.405-.46.094-.244.145-.602.145-.602z" style="font-variation-settings:normal;opacity:1;fill:#323232;fill-opacity:1;stroke:#323232;stroke-width:.169;stroke-linecap:butt;stroke-linejoin:miter;stroke-miterlimit:4;stroke-dasharray:none;stroke-dashoffset:0;stroke-opacity:1;paint-order:fill markers stroke;stop-color:#000;stop-opacity:1"/><path d="M19.167 14.16c.584 1.44 1.363 1.473 1.468 1.58.106.105.095.205.095.205s-.256.1-.812-.145c-.557-.244-1.519-.873-1.519-.873z" style="font-variation-settings:normal;opacity:1;fill:#323232;fill-opacity:1;stroke:#323232;stroke-width:.169;stroke-linecap:butt;stroke-linejoin:round;stroke-miterlimit:4;stroke-dasharray:none;stroke-dashoffset:0;stroke-opacity:1;paint-order:fill markers stroke;stop-color:#000;stop-opacity:1"/><path d="M8.217 24.85c-1.149-1.21-.873-1.171-1.424-1.675-.55-.503-3.029-2.871-3.154-3.107-.126-.236-.441-1.023.275-1.644.716-.622 2.643-1.747 3.626-2.573.984-.826 2.062-1.95 2.416-2.053.354-.102.32.02.367.1.047.078 0 0-.33.314-.248.217-2.004 1.82-2.98 2.544-.975.724-2.572 1.77-2.792 2.037-.22.268-.433.795.15 1.361.581.567 3.468 3.186 3.468 3.186z" style="font-variation-settings:normal;opacity:1;fill:#323232;fill-opacity:1;stroke:#323232;stroke-width:.169;stroke-linecap:butt;stroke-linejoin:miter;stroke-miterlimit:4;stroke-dasharray:none;stroke-dashoffset:0;stroke-opacity:1;paint-order:fill markers stroke;stop-color:#000;stop-opacity:1"/><path d="M5.45 18.66c.024-.251.219-.482.219-.482l-.412-.409-.245.203s.125.22.273.41c.081.106.085.172.165.279zM19.705 3.66c-.134-.003-.34.018-.477.155-.22.22-.26.637-.307.913-.047.275.02.428.02.428l1.191-1.191-.29-.291s-.056-.011-.137-.014z" style="font-variation-settings:normal;opacity:1;fill:#323232;fill-opacity:1;stroke:#323232;stroke-width:.169;stroke-linecap:butt;stroke-linejoin:miter;stroke-miterlimit:4;stroke-dasharray:none;stroke-dashoffset:0;stroke-opacity:1;paint-order:fill markers stroke;stop-color:#000;stop-opacity:1"/><path d="M16.615 8.161c-.224-.224-.327-.545-.283-.708.043-.162.562-.688.743-.814.181-.126.323-.189.452-.059l.315.315zM22.331 5.042l.88.827.725.75.072-.072-.226-.393 1.59-1.592.191-.05.992-.993s-.15-.377-.469-.686c-.32-.308-.598-.342-.598-.342l-.976.977-.035.13-.474.474s-.37.058-.431.119c-.062.06-.153.17-.17.242-.017.072-.08.142-.08.142l.066.066-.4.4-.031-.007-.19.189-.266-.267-.089.005zM11.627 14.14l2.18-2.18s.345-.378.701-.022l.924.923s.222.222-.045.49l-2.442 2.442s-.178.289-.445.022l-1.062-1.063s-.25-.172.189-.612z" style="font-variation-settings:normal;opacity:1;fill:#323232;fill-opacity:1;stroke:#323232;stroke-width:.0692192;stroke-linecap:butt;stroke-linejoin:miter;stroke-miterlimit:4;stroke-dasharray:none;stroke-dashoffset:0;stroke-opacity:1;paint-order:fill markers stroke;stop-color:#000;stop-opacity:1"/><circle cx="-7.061" cy="21.575" r=".223" style="font-variation-settings:normal;opacity:1;fill:#323232;fill-opacity:1;fill-rule:evenodd;stroke:#323232;stroke-width:.138;stroke-linecap:round;stroke-linejoin:round;stroke-miterlimit:4;stroke-dasharray:none;stroke-dashoffset:0;stroke-opacity:1;stop-color:#000;stop-opacity:1" transform="rotate(-45)"/><circle cx="2.79" cy="21.836" r=".278" style="font-variation-settings:normal;opacity:1;fill:#323232;fill-opacity:1;fill-rule:evenodd;stroke:#323232;stroke-width:.138;stroke-linecap:round;stroke-linejoin:round;stroke-miterlimit:4;stroke-dasharray:none;stroke-dashoffset:0;stroke-opacity:1;stop-color:#000;stop-opacity:1" transform="rotate(-45)"/><circle cx="10.491" cy="22.103" r=".442" style="font-variation-settings:normal;opacity:1;fill:none;fill-opacity:1;fill-rule:evenodd;stroke:#323232;stroke-width:.415315;stroke-linecap:round;stroke-linejoin:round;stroke-miterlimit:4;stroke-dasharray:none;stroke-dashoffset:0;stroke-opacity:1;stop-color:#000;stop-opacity:1" transform="rotate(-45)"/></svg>