<?xml version="1.0" encoding="UTF-8" standalone="no"?>
<!-- Created with Inkscape (http://www.inkscape.org/) -->

<svg
   width="128"
   height="128"
   viewBox="0 0 33.866665 33.866667"
   version="1.1"
   id="svg5"
   inkscape:version="1.1.2 (b8e25be833, 2022-02-05)"
   sodipodi:docname="loot-weapon-sw500.svg"
   xmlns:inkscape="http://www.inkscape.org/namespaces/inkscape"
   xmlns:sodipodi="http://sodipodi.sourceforge.net/DTD/sodipodi-0.dtd"
   xmlns="http://www.w3.org/2000/svg"
   xmlns:svg="http://www.w3.org/2000/svg">
  <sodipodi:namedview
     id="namedview7"
     pagecolor="#ffffff"
     bordercolor="#999999"
     borderopacity="1"
     inkscape:pageshadow="0"
     inkscape:pageopacity="0"
     inkscape:pagecheckerboard="true"
     inkscape:document-units="px"
     showgrid="false"
     inkscape:lockguides="false"
     units="px"
     inkscape:zoom="5.6568542"
     inkscape:cx="68.147416"
     inkscape:cy="53.740115"
     inkscape:window-width="2560"
     inkscape:window-height="1377"
     inkscape:window-x="-8"
     inkscape:window-y="-8"
     inkscape:window-maximized="1"
     inkscape:current-layer="layer1" />
  <defs
     id="defs2" />
  <g
     inkscape:label="Layer 1"
     inkscape:groupmode="layer"
     id="layer1">
    <path
       style="font-variation-settings:normal;opacity:1;vector-effect:none;fill:#ffffff;fill-opacity:1;stroke:#323232;stroke-width:0.772948;stroke-linecap:butt;stroke-linejoin:miter;stroke-miterlimit:4;stroke-dasharray:none;stroke-dashoffset:0;stroke-opacity:1;-inkscape-stroke:none;paint-order:fill markers stroke;stop-color:#000000;stop-opacity:1"
       d="m 5.1694685,20.049124 c 0.3768505,1.463131 0.8732474,1.671165 1.049854,1.827771 0.1766068,0.156607 0.6286841,0.246515 0.848224,0.242893 0.2195398,-0.0037 0.7201395,-0.0536 0.8838889,-0.111201 0.1637487,-0.05761 0.6535274,-0.143989 0.7910015,-0.161795 0.1374739,-0.0178 0.5982667,0.0595 0.5982667,0.0595 l 0.3697168,0.867012 c 0,0 0.3866006,0.370725 -0.028822,0.540919 -0.4154234,0.170193 -1.1134539,0.3033 -1.2795862,0.799715 -0.166133,0.496416 0.03873,0.926649 0.2226494,1.064246 0.1839188,0.137596 0.4535715,0.274933 0.3190062,0.500379 -0.1345658,0.225446 -0.1603559,0.671287 -0.059386,0.920814 0.1009688,0.249529 0.2111827,0.344311 0.3144529,0.432698 0.1032698,0.08839 0.2879292,0.182027 0.2035819,0.352615 -0.084348,0.170588 -0.2479903,0.595916 -0.1974284,0.819213 0.050562,0.223298 0.2064134,0.568642 0.1059764,0.696279 -0.1004372,0.127641 -0.7525415,0.91334 -1.2553426,1.203631 -0.502801,0.290292 -1.13997,0.649454 -1.7846156,0.799624 C 5.6262613,31.053606 5.3880457,30.799346 5.2467693,30.471708 5.1054919,30.144068 4.8206444,27.818463 4.7599805,27.426867 4.6993168,27.035272 4.5273549,25.802459 4.4881562,24.980559 4.4489576,24.158657 4.5567706,22.746902 4.444607,22.341508 4.3324435,21.936113 4.0601892,21.283594 4.092568,21.203955 c 0.032379,-0.07963 0.4351386,-0.573367 0.5049471,-0.648499 0.069809,-0.07513 0.571953,-0.506332 0.5719534,-0.506332 z"
       id="path1428"
       sodipodi:nodetypes="cssssccsssssssssssssssssc" />
    <path
       style="font-variation-settings:normal;opacity:1;vector-effect:none;fill:#ffffff;fill-opacity:1;stroke:#323232;stroke-width:0.772948;stroke-linecap:butt;stroke-linejoin:miter;stroke-miterlimit:4;stroke-dasharray:none;stroke-dashoffset:0;stroke-opacity:1;-inkscape-stroke:none;paint-order:fill markers stroke;stop-color:#000000;stop-opacity:1"
       d="m 6.0612522,19.095729 c 0.2474602,1.518853 0.6686167,1.832764 0.8356061,1.90873 0.1669893,0.07597 0.7341656,0.0056 0.9496552,-0.06386 0.2664068,-0.08585 0.6466885,-0.160878 0.9521978,-0.164882 0.3055087,-0.004 0.6612906,0.04883 0.6612906,0.04883 0,0 0.1202734,-0.174049 0.4894458,-0.439431 0.3691733,-0.26538 1.1645373,-0.802943 1.6352313,-0.952808 0.470692,-0.149863 1.024485,-0.275475 1.800196,-0.723331 l 2.419478,-1.396887 -0.89149,-1.544106 0.160024,-0.597217 -1.972702,-3.41682 -0.360152,0.207933 c 0,0 -0.330495,0.184656 -0.45802,0.209031 -0.127525,0.02438 -0.246721,-0.01147 -0.246721,-0.01147 l -0.715685,0.413201 2.313925,4.007839 -4.9181627,2.839501 -2.3160585,-4.01153 -0.87016,0.502387 c 0,0 0.7725118,1.717507 0.5321014,3.184883 z"
       id="path1885"
       sodipodi:nodetypes="cssscssscccccsccccccc" />
    <path
       style="font-variation-settings:normal;opacity:1;vector-effect:none;fill:#ffffff;fill-opacity:1;stroke:#323232;stroke-width:0.772948;stroke-linecap:butt;stroke-linejoin:miter;stroke-miterlimit:4;stroke-dasharray:none;stroke-dashoffset:0;stroke-opacity:1;-inkscape-stroke:none;paint-order:fill markers stroke;stop-color:#000000;stop-opacity:1"
       d="m 14.124083,11.320197 1.575873,2.729492 14.074499,-8.1259159 c 0,0 -0.01112,-0.1851284 -0.01523,-0.4787747 -0.0041,-0.2936467 -0.02641,-0.8902297 -0.105579,-1.0273573 L 29.050443,3.3728597 C 28.936288,3.1893774 28.746338,2.883331 28.671401,2.9212987 Z"
       id="path4941"
       sodipodi:nodetypes="cccssccc" />
    <path
       style="font-variation-settings:normal;opacity:1;vector-effect:none;fill:#ffffff;fill-opacity:1;stroke:#323232;stroke-width:0.772948;stroke-linecap:butt;stroke-linejoin:miter;stroke-miterlimit:4;stroke-dasharray:none;stroke-dashoffset:0;stroke-opacity:1;-inkscape-stroke:none;paint-order:fill markers stroke;stop-color:#000000;stop-opacity:1"
       d="m 7.3548062,14.861728 1.7748119,3.074065 1.1020589,-0.636274 c 0.276279,-0.54578 0.893898,-1.027671 1.684252,-1.477231 L 11.303412,14.761377 9.5875251,15.550813 11.129141,14.45953 10.359714,13.126844 Z"
       id="path7934"
       sodipodi:nodetypes="ccccccccc" />
    <path
       style="font-variation-settings:normal;opacity:1;fill:#323232;fill-opacity:1;stroke:#323232;stroke-width:0.0966186;stroke-linecap:butt;stroke-linejoin:round;stroke-miterlimit:4;stroke-dasharray:none;stroke-dashoffset:0;stroke-opacity:1;paint-order:fill markers stroke;stop-color:#000000;stop-opacity:1"
       d="M 5.7088576,19.147651 C 5.5563072,18.913586 5.5457369,18.850036 5.3005583,18.817459 c -0.2451775,-0.03258 -0.5411151,-0.122912 -0.8025812,-0.0329 -0.2614658,0.09001 -0.5258684,0.207235 -0.5258684,0.207235 0,0 0.076443,-0.384144 0.4149535,-0.534255 0.2283986,-0.101285 0.5538318,-0.171745 0.7176205,-0.144416 0.1637881,0.02732 0.3491139,-0.149322 0.3578623,-0.284972 0.00875,-0.135648 -0.039107,-0.747152 -0.039107,-0.747152 l 0.3460836,-0.199812 z"
       id="path10194"
       sodipodi:nodetypes="csscsssccc" />
    <path
       style="font-variation-settings:normal;opacity:1;fill:none;fill-opacity:1;stroke:#323232;stroke-width:0.483092;stroke-linecap:butt;stroke-linejoin:miter;stroke-miterlimit:4;stroke-dasharray:none;stroke-dashoffset:0;stroke-opacity:1;paint-order:fill markers stroke;stop-color:#000000;stop-opacity:1"
       d="m 10.00223,22.8592 c 0.685387,0.387879 0.995592,0.321965 1.576012,0.03039 0.580421,-0.291571 0.893584,-0.533324 1.4196,-1.28105 0.526015,-0.747727 0.394532,-1.30316 0.300408,-1.636136 -0.158684,-0.56137 -0.738668,-0.665664 -0.738668,-0.665664"
       id="path11721"
       sodipodi:nodetypes="csssc" />
    <path
       style="font-variation-settings:normal;opacity:1;fill:none;fill-opacity:1;stroke:#323232;stroke-width:0.483092;stroke-linecap:butt;stroke-linejoin:miter;stroke-miterlimit:4;stroke-dasharray:none;stroke-dashoffset:0;stroke-opacity:1;paint-order:fill markers stroke;stop-color:#000000;stop-opacity:1"
       d="M 13.257014,19.848203 C 13.007787,19.326047 13.38644,18.889722 13.38644,18.889722"
       id="path12136"
       sodipodi:nodetypes="cc" />
    <path
       style="font-variation-settings:normal;opacity:1;fill:#323232;fill-opacity:1;stroke:#323232;stroke-width:0.193236;stroke-linecap:butt;stroke-linejoin:round;stroke-miterlimit:4;stroke-dasharray:none;stroke-dashoffset:0;stroke-opacity:1;paint-order:fill markers stroke;stop-color:#000000;stop-opacity:1"
       d="m 10.935377,19.974044 c -0.299217,2.218782 1.317593,1.708021 1.317593,1.708021 0,0 -0.674981,0.415381 -1.160666,0.03409 -0.485683,-0.381285 -0.655407,-0.901457 -0.655407,-0.901457 0,0 -0.177688,0.10694 -0.394219,0.101356 -0.2165326,-0.0056 -0.3966457,-0.02349 -0.3966457,-0.02349 z"
       id="path12304"
       sodipodi:nodetypes="ccscscc" />
    <path
       style="font-variation-settings:normal;opacity:1;vector-effect:none;fill:none;fill-opacity:1;stroke:#323232;stroke-width:0.772948;stroke-linecap:butt;stroke-linejoin:miter;stroke-miterlimit:4;stroke-dasharray:none;stroke-dashoffset:0;stroke-opacity:1;-inkscape-stroke:none;paint-order:fill markers stroke;stop-color:#000000;stop-opacity:1"
       d="m 15.075307,12.74374 14.4984,-8.3706561"
       id="path13679"
       sodipodi:nodetypes="cc" />
    <circle
       style="font-variation-settings:normal;opacity:1;vector-effect:none;fill:#323232;fill-opacity:1;fill-rule:evenodd;stroke:none;stroke-width:0.193236;stroke-linecap:round;stroke-linejoin:round;stroke-miterlimit:4;stroke-dasharray:none;stroke-dashoffset:0;stroke-opacity:1;-inkscape-stroke:none;stop-color:#000000;stop-opacity:1"
       id="path16233"
       cx="-3.2751536"
       cy="16.199842"
       r="0.33553267"
       transform="rotate(-30)" />
    <path
       style="font-variation-settings:normal;opacity:1;fill:none;fill-opacity:1;stroke:#323232;stroke-width:0.386475;stroke-linecap:butt;stroke-linejoin:miter;stroke-miterlimit:4;stroke-dasharray:none;stroke-dashoffset:0;stroke-opacity:1;paint-order:fill markers stroke;stop-color:#000000;stop-opacity:1"
       d="M 5.2658514,15.464291 5.1232302,15.217263"
       id="path16348"
       sodipodi:nodetypes="cc" />
    <path
       style="font-variation-settings:normal;opacity:1;vector-effect:none;fill:#323232;fill-opacity:1;stroke:none;stroke-width:0.772948;stroke-linecap:butt;stroke-linejoin:miter;stroke-miterlimit:4;stroke-dasharray:none;stroke-dashoffset:0;stroke-opacity:1;-inkscape-stroke:none;paint-order:fill markers stroke;stop-color:#000000;stop-opacity:1"
       d="m 5.3794029,15.346402 0.7687843,-0.443858 c 0,0 0.126384,0.0163 0.1991194,0.01432 0.072735,-0.0019 0.1938017,-0.03648 0.1938017,-0.03648 l 0.041706,0.07223 -1.0592189,0.611541 z"
       id="path16463"
       sodipodi:nodetypes="ccscccc" />
    <path
       style="font-variation-settings:normal;opacity:1;vector-effect:none;fill:none;fill-opacity:1;stroke:#323232;stroke-width:0.772948;stroke-linecap:butt;stroke-linejoin:miter;stroke-miterlimit:4;stroke-dasharray:none;stroke-dashoffset:0;stroke-opacity:1;-inkscape-stroke:none;paint-order:fill markers stroke;stop-color:#000000;stop-opacity:1"
       d="m 27.405781,3.8870818 1.39114,2.4095272"
       id="path16865"
       sodipodi:nodetypes="cc" />
    <path
       style="font-variation-settings:normal;opacity:1;vector-effect:none;fill:#323232;fill-opacity:1;stroke:none;stroke-width:0.772948;stroke-linecap:butt;stroke-linejoin:miter;stroke-miterlimit:4;stroke-dasharray:none;stroke-dashoffset:0;stroke-opacity:1;-inkscape-stroke:none;paint-order:fill markers stroke;stop-color:#000000;stop-opacity:1"
       d="m 23.357232,5.3799802 3.95058,-2.2808682 -0.115711,-0.2004174 -0.549896,0.1107021 -0.02887,-0.050007 c 0,0 -0.09235,-0.1034002 -0.289759,-0.015543 -0.197413,0.087857 -1.071678,0.5490814 -1.071678,0.5490814 l 0.152339,0.2638604 -1.56554,0.9038649 c 0,0 -0.08762,0.217689 -0.187558,0.3537439 -0.09993,0.136055 -0.293907,0.3655838 -0.293907,0.3655829 z"
       id="path16869"
       sodipodi:nodetypes="cccccscccsc" />
    <path
       style="font-variation-settings:normal;opacity:1;fill:none;fill-opacity:1;stroke:#323232;stroke-width:0.772948;stroke-linecap:round;stroke-linejoin:miter;stroke-miterlimit:4;stroke-dasharray:none;stroke-dashoffset:0;stroke-opacity:1;paint-order:fill markers stroke;stop-color:#000000;stop-opacity:1"
       d="M 9.5875255,15.550814 10.401217,15.081029"
       id="path19765"
       sodipodi:nodetypes="cc" />
    <path
       style="font-variation-settings:normal;opacity:1;vector-effect:none;fill:none;fill-opacity:1;stroke:#323232;stroke-width:0.772948;stroke-linecap:butt;stroke-linejoin:miter;stroke-miterlimit:4;stroke-dasharray:none;stroke-dashoffset:0;stroke-opacity:1;-inkscape-stroke:none;paint-order:fill markers stroke;stop-color:#000000;stop-opacity:1"
       d="m 13.995518,13.367156 -1.633275,0.942973"
       id="path20357"
       sodipodi:nodetypes="cc" />
  </g>
</svg>
