<svg version="1.2" xmlns="http://www.w3.org/2000/svg" viewBox="0 0 128 128" width="128" height="128">
	<style>
		.s0 { fill: #353535 } 
		.s1 { fill: #f9f9f9 } 
	</style>
	<g id="Layer 1">
		<path fill-rule="evenodd" class="s0" d="m105.5 5.38l-5.38 5.39-1.23-1.22c-0.68-0.67-1.32-1.22-1.42-1.22-0.11 0-1.04 0.85-2.08 1.88l-1.88 1.87 1.32 1.34 1.32 1.33-14.46 13.97c-10.98 10.63-14.51 13.93-14.71 13.76-0.2-0.16-0.63 0.22-1.81 1.57-0.94 1.08-1.5 1.9-1.44 2.08 0.08 0.19-1.58 1.99-4.8 5.21-4.75 4.76-4.93 4.91-5.51 4.75-1.31-0.38-2.61 0.4-2.99 1.77-0.25 0.92-1.07 2.28-1.72 2.9q-0.53 0.49-1.66 0.64c-0.62 0.09-1.26 0.27-1.42 0.4-0.45 0.37-0.36 1.08 0.21 1.61l0.5 0.48-1.47 1.54c-2.72 2.86-3.72 4.79-4.54 8.74-0.52 2.54-0.98 3.99-1.44 4.52-0.16 0.19-0.62 0.4-1.03 0.48-1.61 0.3-2.23 0.7-3.08 2-0.99 1.53-2.46 4.62-2.46 5.18 0 0.23-0.42 0.9-0.93 1.49-0.82 0.97-14.23 20.8-17.22 25.47l-1.17 1.84 4.43 4.33c8.32 8.14 9.5 9.19 10.3 9.19 1.02 0 1.62-0.29 2.68-1.26 1.03-0.95 1.51-1.73 1.51-2.47 0-0.27-0.32-1.72-0.7-3.21-0.97-3.82-1.21-6.07-1.07-10.11 0.23-6.79 2.13-11.93 6.79-18.42 0.32-0.45 1.6-1.81 2.85-3.03l2.26-2.21 0.7 0.43c0.92 0.57 2.37 2.15 3.05 3.3 0.3 0.52 0.91 1.83 1.36 2.93 1.39 3.41 2.64 5.13 4.24 5.84 1.56 0.7 1.73 0.6 6.31-3.99l4.15-4.15-1.51-0.96c-2.05-1.32-4.48-3.37-5.59-4.73-2.27-2.78-2.46-4.71-0.54-5.33 0.42-0.14 1.36-0.55 2.09-0.92 3.19-1.61 4.22-3.31 4.95-8.28 0.26-1.76 0.53-3.26 0.6-3.33 0.07-0.06 0.71 0.44 1.42 1.13 1.27 1.22 1.3 1.24 1.65 0.85 0.36-0.39 0.37-0.39 1.12 0 0.41 0.22 2.71 2.23 5.11 4.48 4.9 4.6 7.17 6.66 8.56 7.77l0.95 0.77 3.81-5.35c2.1-2.94 4.03-5.63 4.28-5.97l0.47-0.63-7.36-6.68c-5.48-4.97-7.37-6.8-7.37-7.14 0-0.25-0.32-0.78-0.71-1.18l-0.7-0.73 5.17-5.17 5.16-5.17 1.82-0.67 1.81-0.67 8.56-8.69c7.68-7.79 8.64-8.83 9.23-10.06 0.37-0.75 0.78-1.35 0.92-1.32 0.14 0.03 1.12-0.82 2.17-1.87 1.53-1.54 1.86-1.97 1.67-2.2-0.18-0.23-0.13-0.39 0.27-0.76 0.41-0.39 0.51-0.67 0.51-1.51 0-1.03-0.02-1.06-1.58-2.58-0.87-0.85-1.75-1.61-1.97-1.68-0.33-0.12 0.31-0.84 4.01-4.55 2.43-2.43 4.42-4.51 4.42-4.62 0-0.12-0.99-1.19-2.19-2.39l-2.19-2.18zm0 3.46l-5.38 5.38-1.26-1.25c-0.93-0.92-1.35-1.21-1.61-1.1-0.3 0.11-0.13 0.36 1.01 1.52l1.37 1.38-14.9 14.41c-8.2 7.92-15.5 14.97-16.23 15.67l-1.32 1.27 0.98 0.97 0.99 0.98 13.95-14.05c13.05-13.13 14.08-14.11 15.69-15.04 1.82-1.04 3.25-2.2 3.25-2.61 0-0.14-0.18-0.42-0.41-0.63-0.42-0.37-0.38-0.42 4.88-5.67 2.91-2.92 5.29-5.4 5.29-5.52 0-0.12-0.21-0.41-0.46-0.65l-0.47-0.44zm-1.52 9.06c-1.26 1.27-2.4 2.18-3.66 2.93-1.65 0.99-2.63 1.9-9.92 9.2l-8.09 8.1 0.42 0.98 0.42 0.98-0.64 1.01-0.65 1 0.6 0.6 0.59 0.59 1.37-0.52c1.33-0.52 1.53-0.7 9.55-8.86l8.18-8.32 1.32-2.83 1.32-2.82 0.56 0.54c0.43 0.4 0.62 0.47 0.8 0.3 0.17-0.18 0.17-0.31 0-0.51-0.18-0.22-0.01-0.49 0.78-1.28l1.02-0.99-0.96-0.97c-0.53-0.54-1.01-0.98-1.07-0.98-0.07 0-0.94 0.83-1.94 1.85zm-29.73 28.49l-5.34 5.34 1.28 1.27 1.28 1.26 4.76-4.77 4.77-4.77-1.06-1.08c-0.58-0.59-1.06-1.17-1.06-1.29 0-0.12 0.19-0.46 0.42-0.76 0.23-0.29 0.39-0.53 0.35-0.53-0.03 0-2.47 2.4-5.4 5.33zm-18.78 11.89c-6.91 6.92-10.35 10.52-10.91 11.4-0.82 1.27-1.76 3.69-1.62 4.13 0.07 0.2 5.61 2.01 6.14 2 0.12 0 4.72-4.56 10.22-10.13l9.99-10.13-1.86-1.85-1.86-1.86 0.88-0.9c1.02-1.04 1.01-1.45-0.06-2.26-0.36-0.28-0.7-0.51-0.75-0.51-0.04 0-4.62 4.55-10.17 10.11zm11.26 3.36l-4.12 4.12 1.28 1.26 1.27 1.27 3.2-5.12c2.45-3.93 3.14-5.17 2.97-5.38-0.13-0.15-0.28-0.27-0.36-0.27-0.07 0-1.98 1.85-4.24 4.12zm4.48 1.44c-0.92 1.47-2.08 3.33-2.57 4.12l-0.91 1.45 5.42 5.08c5.73 5.35 6.83 6.35 7.01 6.35 0.17 0 5.63-7.65 5.63-7.89 0-0.17-12.17-11.34-12.71-11.67-0.11-0.06-0.96 1.08-1.87 2.56zm-16.36 10.66c-3.56 3.57-11.13 11.9-11.14 12.24 0 0.06 0.26 0.26 0.57 0.45 0.84 0.5 2.67 2.43 3.43 3.63 0.37 0.59 0.95 1.76 1.3 2.61 0.34 0.85 0.88 2.09 1.19 2.77 0.59 1.28 1.72 2.73 2.12 2.73 0.13 0 1.46-1.22 2.94-2.71l2.71-2.71-1.18-0.88c-3.7-2.8-6.37-6.54-6.37-8.93 0-1.71 1.26-3.5 2.72-3.89 0.46-0.12 1.47-0.55 2.24-0.96 1.5-0.78 2.31-1.68 2.85-3.16 0.29-0.79 1.01-5.2 0.87-5.34-0.03-0.03-1.95 1.83-4.25 4.15zm0.48 0.18c-0.86 0.43-1.65 1.46-1.79 2.36-0.1 0.61-0.04 0.76 0.41 1.06 0.43 0.28 0.64 0.3 1.23 0.11 0.74-0.25 2.15-1.64 2.15-2.13 0-0.16 0.05-0.42 0.12-0.59 0.14-0.37-0.59-1.15-1.08-1.15-0.2 0.01-0.66 0.16-1.04 0.34zm-12.96 2.47c-0.66 3.01-1.91 4.78-3.56 5.04-0.44 0.07-0.85 0.21-0.9 0.3-0.11 0.17 2.89 3.43 3.15 3.43 0.14 0 6.72-7.44 6.72-7.6 0-0.08-0.97-0.4-4.42-1.44-0.86-0.26-0.87-0.26-0.99 0.27zm-6.96 8.73c-0.35 0.77-0.64 1.53-0.64 1.69 0.01 0.24 2.24 2.42 2.48 2.42 0.05 0 0.52-0.51 1.05-1.12l0.97-1.13-1.46-1.57c-0.8-0.86-1.53-1.59-1.61-1.62-0.08-0.03-0.44 0.57-0.79 1.33zm-2.83 5.18c-1.94 2.65-14.56 21.62-14.63 22-0.28 1.42 5.15 6.77 10.09 9.94l0.89 0.57-0.15-0.58c-0.72-2.82-0.96-4.73-1.06-8.4-0.1-3.41-0.05-4.31 0.3-6.41 0.54-3.16 1.58-6.3 3.08-9.35 1.16-2.35 1.71-3.26 3.51-5.83l0.84-1.2-0.89-0.9c-0.49-0.5-0.96-0.91-1.05-0.91-0.08 0-0.5 0.48-0.93 1.07zm-9.32 16.87c-1.26 1.15-2.6 3.07-3.02 4.31-0.58 1.72-0.39 2.11 2.33 4.82 2.02 2.02 2.5 2.4 3.03 2.4 0.44 0 0.72-0.15 0.95-0.5 0.31-0.46 0.29-0.7-0.23-3.5-0.38-2.07-0.56-3.76-0.57-5.41-0.02-2.13-0.07-2.44-0.42-2.7-0.64-0.46-1.08-0.34-2.07 0.58zm-0.49 4.53l-0.46 0.94 0.65 0.65 0.65 0.64-0.14-1.53c-0.07-0.84-0.16-1.55-0.19-1.58-0.03-0.04-0.26 0.36-0.51 0.88z"/>
		<path fill-rule="evenodd" class="s1" d="m105.49 8.84l-5.37 5.38-1.26-1.24c-0.93-0.92-1.35-1.21-1.61-1.11-0.3 0.11-0.13 0.37 1.01 1.52l1.37 1.38-14.9 14.41c-8.2 7.92-15.5 14.98-16.23 15.68l-1.32 1.27 0.98 0.97 0.99 0.97 13.95-14.05c13.05-13.13 14.08-14.11 15.69-15.04 1.82-1.04 3.25-2.19 3.25-2.61 0-0.14-0.18-0.42-0.41-0.63-0.42-0.37-0.38-0.41 4.88-5.67 2.91-2.91 5.29-5.4 5.29-5.52 0-0.11-0.21-0.41-0.46-0.65l-0.47-0.43zm-1.52 9.05c-1.26 1.27-2.4 2.19-3.66 2.94-1.65 0.98-2.63 1.89-9.92 9.19l-8.09 8.1 0.42 0.98 0.42 0.99-0.64 1-0.65 1.01 0.6 0.59 0.59 0.6 1.37-0.53c1.33-0.52 1.53-0.7 9.55-8.85l8.18-8.33 1.32-2.82 1.32-2.83 0.56 0.54c0.43 0.4 0.62 0.48 0.8 0.3 0.17-0.17 0.17-0.3 0-0.51-0.18-0.22-0.01-0.49 0.78-1.27l1.01-1-0.95-0.97c-0.53-0.53-1.01-0.97-1.08-0.97-0.06 0-0.93 0.83-1.93 1.84zm-29.73 28.5l-5.34 5.34 1.28 1.26 1.27 1.27 4.77-4.77 4.77-4.78-1.06-1.07c-0.59-0.59-1.06-1.18-1.06-1.3 0-0.12 0.19-0.46 0.42-0.76 0.23-0.29 0.39-0.53 0.35-0.53-0.03 0-2.47 2.4-5.4 5.34zm-18.78 11.89c-6.91 6.92-10.35 10.51-10.91 11.39-0.82 1.28-1.76 3.7-1.62 4.13 0.07 0.21 5.6 2.01 6.14 2.01 0.12-0.01 4.72-4.56 10.22-10.13l9.99-10.13-1.86-1.86-1.86-1.86 0.88-0.9c1.02-1.03 1.01-1.45-0.06-2.26-0.36-0.28-0.7-0.51-0.75-0.51-0.04 0-4.62 4.55-10.17 10.12zm11.26 3.35l-4.12 4.12 1.28 1.27 1.27 1.26 3.2-5.11c2.45-3.93 3.14-5.18 2.97-5.39-0.13-0.14-0.29-0.27-0.36-0.27-0.07 0-1.98 1.86-4.24 4.12zm4.48 1.44c-0.92 1.47-2.08 3.33-2.58 4.13l-0.9 1.45 5.42 5.07c5.72 5.36 6.83 6.36 7.01 6.36 0.17 0 5.63-7.66 5.63-7.89 0-0.17-12.17-11.34-12.71-11.67-0.12-0.07-0.96 1.08-1.87 2.55zm-16.36 10.66c-3.56 3.57-11.13 11.9-11.14 12.25 0 0.06 0.25 0.26 0.56 0.44 0.85 0.5 2.68 2.44 3.44 3.64 0.36 0.58 0.95 1.75 1.3 2.6 0.34 0.85 0.88 2.1 1.19 2.77 0.59 1.28 1.72 2.74 2.12 2.74 0.13 0 1.46-1.22 2.94-2.71l2.71-2.71-1.18-0.89c-3.7-2.79-6.38-6.54-6.37-8.92 0-1.71 1.26-3.51 2.71-3.9 0.47-0.12 1.48-0.55 2.25-0.95 1.5-0.79 2.31-1.69 2.85-3.16 0.29-0.8 1.01-5.21 0.87-5.34-0.03-0.04-1.95 1.83-4.25 4.14zm0.48 0.18c-0.86 0.43-1.65 1.46-1.79 2.37-0.1 0.6-0.04 0.76 0.41 1.05 0.43 0.29 0.64 0.31 1.22 0.11 0.75-0.24 2.16-1.64 2.16-2.12 0-0.16 0.05-0.43 0.12-0.6 0.14-0.37-0.6-1.15-1.09-1.14-0.19 0-0.65 0.15-1.03 0.33zm-12.96 2.48c-0.66 3-1.91 4.77-3.56 5.03-0.44 0.08-0.85 0.21-0.9 0.3-0.11 0.17 2.89 3.44 3.15 3.44 0.14 0 6.72-7.44 6.72-7.61 0-0.08-0.97-0.39-4.43-1.44-0.85-0.26-0.86-0.26-0.98 0.28zm-6.96 8.73c-0.35 0.76-0.64 1.52-0.64 1.68 0.01 0.24 2.24 2.42 2.48 2.42 0.05 0 0.52-0.5 1.05-1.12l0.97-1.12-1.46-1.57c-0.81-0.87-1.53-1.6-1.61-1.63-0.08-0.03-0.44 0.57-0.79 1.34zm-2.83 5.17c-1.94 2.65-14.56 21.62-14.63 22-0.28 1.43 5.15 6.77 10.09 9.94l0.89 0.57-0.15-0.58c-0.72-2.81-0.96-4.73-1.06-8.4-0.1-3.41-0.05-4.31 0.3-6.4 0.54-3.16 1.58-6.31 3.08-9.35 1.16-2.36 1.71-3.27 3.51-5.84l0.84-1.19-0.89-0.91c-0.49-0.5-0.96-0.91-1.05-0.91-0.08 0-0.5 0.48-0.93 1.07zm-9.33 16.87c-1.25 1.15-2.59 3.08-3.01 4.32-0.58 1.72-0.39 2.1 2.33 4.82 2.02 2.02 2.5 2.4 3.03 2.4 0.44 0 0.72-0.15 0.95-0.5 0.3-0.47 0.29-0.71-0.23-3.51-0.38-2.07-0.56-3.76-0.57-5.41-0.03-2.13-0.07-2.44-0.42-2.69-0.64-0.47-1.08-0.35-2.08 0.57z"/>
	</g>
</svg>