<svg xmlns="http://www.w3.org/2000/svg" width="128" height="128" viewBox="0 0 33.867 33.867"><path d="M7.29 21.89c-1.003 5.309-.065 6.934.659 8.233s1.617 2.343 1.896 2.552c.28.209.396.274.396.274l3.369-1.946s.488-.321.86-.02c.371.3.671.43.958.332.286-.1.44-.36.44-.36s-1.084-1.647-1.666-2.976a15.3 15.3 0 0 1-1.046-3.505c-.131-.822-.136-1.242-.136-1.242l-1.152-.069s-.217-.574-.352-1.038c-.15-.514-.255-.956-.255-.956s-.26-.133-.74-.345c-.461-.203-.579-.234-.67-.162-.145.116-.44.267-.812.284-.254.012-.389.025-.389.025s-.074.138-.113.239c-.142.364-.284.87-.284.87z" style="font-variation-settings:normal;opacity:1;vector-effect:none;fill:#fff;fill-opacity:1;stroke:#323232;stroke-width:.805386;stroke-linecap:butt;stroke-linejoin:miter;stroke-miterlimit:4;stroke-dasharray:none;stroke-dashoffset:0;stroke-opacity:1;-inkscape-stroke:none;paint-order:fill markers stroke;stop-color:#000;stop-opacity:1"/><path d="M7.432 21.081c.228-.647.443-1.2.655-1.21s.689.025.944-.037c.255-.061.335-.127.54-.265.204-.138.648-.057.944.056s1.712.802 1.712.802.151.824.253 1.148c.101.325.177.559.177.559l.401.02s.045-.357.46-.736.527-.416 1.042-.713l1.14-.658s-.297-.986.077-1.763 1.198-1.154 2.04-1.64l4.271-2.466s-.103-1.478.521-2.551c.533-.917.95-1.624 2.82-2.739l.873-.504-.504-.874s-.287-.527.278-.853l.926-.535-.915-1.585 1.1-.635-1.442-2.497-.337.194-.125-.218-7.789 4.497 3.616 6.262-6.302 3.639-3.616-6.262-1.625.938s-.342.184-.194.442c.15.258 1.105 1.753.752 3.04s-.521 1.984-1.457 2.524L6.89 17.488s-.46.234-.265.571.845 1.943.807 3.022z" style="font-variation-settings:normal;opacity:1;vector-effect:none;fill:#fff;fill-opacity:1;stroke:#323232;stroke-width:.805386;stroke-linecap:butt;stroke-linejoin:miter;stroke-miterlimit:4;stroke-dasharray:none;stroke-dashoffset:0;stroke-opacity:1;-inkscape-stroke:none;paint-order:fill markers stroke;stop-color:#000;stop-opacity:1"/><path d="M16.089 20.076c.767 1.313 1.815 1.446 2.48 1.351s.858-.261 1.736-.861c.877-.6 2.128-1.313 2.553-1.904s.581-1.13.397-1.837c-.183-.706-.368-1.058-1.088-1.399s-1.41-.26-1.41-.26l1.677-.968s-.027.377.346.974c.373.598.474.907.784 1.12s.338.31.318.405-.413 1.63-.674 2.052-.933.828-1.322 1.11c-.39.28-2.498 1.74-2.93 1.85-.432.109-1.172.219-1.756-.08-.583-.298-.766-.566-1.195-.776s-.977-.268-.977-.268z" style="font-variation-settings:normal;opacity:1;fill:#323232;fill-opacity:1;stroke:#323232;stroke-width:.100674;stroke-linecap:butt;stroke-linejoin:miter;stroke-miterlimit:4;stroke-dasharray:none;stroke-dashoffset:0;stroke-opacity:1;paint-order:fill markers stroke;stop-color:#000;stop-opacity:1"/><path d="M18.58 16.46c.056.893.05.962-.001 1.197s-.094 1.035.539 1.613c.632.579 1.334.441 1.48.45s.13.16.13.16-.2.19-.652.198c-.453.01-1.212-.26-1.578-.618-.366-.359-.685-1.025-.787-1.348-.103-.324-.146-.43-.37-.478-.224-.049-.284.09-.43.145a7 7 0 0 1-.574.154z" style="font-variation-settings:normal;opacity:1;fill:#323232;fill-opacity:1;stroke:#323232;stroke-width:.100674;stroke-linecap:butt;stroke-linejoin:round;stroke-miterlimit:4;stroke-dasharray:none;stroke-dashoffset:0;stroke-opacity:1;paint-order:fill markers stroke;stop-color:#000;stop-opacity:1"/><circle cx="2.234" cy="24.112" r=".343" style="font-variation-settings:normal;opacity:1;vector-effect:none;fill:#323232;fill-opacity:1;fill-rule:evenodd;stroke:#323232;stroke-width:.201347;stroke-linecap:round;stroke-linejoin:round;stroke-miterlimit:4;stroke-dasharray:none;stroke-dashoffset:0;stroke-opacity:1;-inkscape-stroke:none;stop-color:#000;stop-opacity:1" transform="rotate(-30)"/><path d="m18.58 9.893-2.37 1.311c-.631.35-1.242.39-1.407.196-.166-.196-.252-.277 0-.78.251-.502.259-.448 3.013-2.038l-.635-1.119-.399-.107s-1.794 1.07-2.138 1.228c-.344.16-.815.26-1.043.391-.228.132-.836.522-.836.522-.314.142.517 1.627 1.137 2.656s.653 1.13 1.043 1.578c.391.448.502.503.502.503l.561-.324c.274-.84 1.52-1.442 2.406-1.954l1.02-.589z" style="font-variation-settings:normal;opacity:1;vector-effect:none;fill:#fff;fill-opacity:1;stroke:#323232;stroke-width:.805386;stroke-linecap:butt;stroke-linejoin:miter;stroke-miterlimit:4;stroke-dasharray:none;stroke-dashoffset:0;stroke-opacity:1;-inkscape-stroke:none;paint-order:fill markers stroke;stop-color:#000;stop-opacity:1"/><path d="m26.087 4.537-6.966 4.022M26.257 6.553l-6.07 3.504" style="font-variation-settings:normal;opacity:1;vector-effect:none;fill:none;fill-opacity:1;stroke:#323232;stroke-width:.805386;stroke-linecap:butt;stroke-linejoin:miter;stroke-miterlimit:4;stroke-dasharray:none;stroke-dashoffset:0;stroke-opacity:1;-inkscape-stroke:none;paint-order:fill markers stroke;stop-color:#000;stop-opacity:1"/><path d="M9.884 9.944c-.217-.66-.224-.647-.034-.756.189-.109.781-.41.872-.382s.458.446.458.446zM23.262 2.138c.04-.135.198-.252.244-.299s.04-.069.029-.201c-.01-.133-.038-.283-.038-.283s.536-.296.688-.364.293-.123.425.026c.132.148.267.268.267.268z" style="font-variation-settings:normal;opacity:1;fill:#323232;fill-opacity:1;stroke:#323232;stroke-width:.100674;stroke-linecap:butt;stroke-linejoin:miter;stroke-miterlimit:4;stroke-dasharray:none;stroke-dashoffset:0;stroke-opacity:1;paint-order:fill markers stroke;stop-color:#000;stop-opacity:1"/><path d="m11.246 9.366 6.494-3.75" style="font-variation-settings:normal;opacity:1;fill:none;fill-opacity:1;stroke:#323232;stroke-width:.604038;stroke-linecap:butt;stroke-linejoin:miter;stroke-miterlimit:4;stroke-dasharray:none;stroke-dashoffset:0;stroke-opacity:1;paint-order:fill markers stroke;stop-color:#000;stop-opacity:1"/><path d="M7.8 16.707c.08-.984 1.995-2.38 1.995-2.38l.118-.412s-.286-.337-.969-.604c-.682-.266-1.67-.079-1.75-.125-.08-.047-.153-.242-.071-.33.082-.086.57-.223 1.265-.188.694.035 1.833.475 1.833.475l-.155 1.357-1.314 1.75z" style="font-variation-settings:normal;opacity:1;fill:#323232;fill-opacity:1;stroke:#323232;stroke-width:.100674;stroke-linecap:butt;stroke-linejoin:miter;stroke-miterlimit:4;stroke-dasharray:none;stroke-dashoffset:0;stroke-opacity:1;paint-order:fill markers stroke;stop-color:#000;stop-opacity:1"/><path d="M8.253 18.268c-.271.156-.49.437-.231.919.156.27.528.408.799.252.018-.01.114-.051.13-.064.11-.034.28-.093.352-.083.104.015.565.196.65.232.087.036.19.075.266.031.075-.043.24-.193.268-.3.03-.107.064-.366.01-.4a9 9 0 0 0-1.52-.64.91.91 0 0 0-.724.053" style="font-variation-settings:normal;opacity:1;fill:#323232;fill-opacity:1;fill-rule:evenodd;stroke:#fff;stroke-width:.201347;stroke-linecap:round;stroke-linejoin:round;stroke-miterlimit:4;stroke-dasharray:none;stroke-dashoffset:0;stroke-opacity:1;stop-color:#000;stop-opacity:1"/><path d="M10.311 12.77c1.107-.638 1.256-.575 1.596.014l1.415 2.452s.403.795.698.625l.658-.38" style="font-variation-settings:normal;opacity:1;fill:none;fill-opacity:1;stroke:#323232;stroke-width:.604038;stroke-linecap:butt;stroke-linejoin:miter;stroke-miterlimit:4;stroke-dasharray:none;stroke-dashoffset:0;stroke-opacity:1;paint-order:fill markers stroke;stop-color:#000;stop-opacity:1"/><circle cx="-4.554" cy="28.397" r=".492" style="font-variation-settings:normal;opacity:1;fill:none;fill-opacity:1;fill-rule:evenodd;stroke:#323232;stroke-width:.402694;stroke-linecap:round;stroke-linejoin:round;stroke-miterlimit:4;stroke-dasharray:none;stroke-dashoffset:0;stroke-opacity:1;stop-color:#000;stop-opacity:1" transform="rotate(-30)"/><path d="m9.489 32.285 5.493-3.172" style="font-variation-settings:normal;opacity:1;fill:none;fill-opacity:1;stroke:#323232;stroke-width:.604038;stroke-linecap:butt;stroke-linejoin:miter;stroke-miterlimit:4;stroke-dasharray:none;stroke-dashoffset:0;stroke-opacity:1;paint-order:fill markers stroke;stop-color:#000;stop-opacity:1"/></svg>