<svg xmlns="http://www.w3.org/2000/svg" width="128" height="128" viewBox="0 0 33.867 33.867"><g transform="translate(1.607 -1.36)scale(.93306)"><path d="M1.334 22.71c-1.004 5.31-.066 6.935.658 8.234s1.617 2.343 1.896 2.552.396.274.396.274l3.369-1.945s.488-.322.86-.021c.371.3.671.431.958.332.286-.1.44-.36.44-.36s-1.084-1.647-1.666-2.975A15.3 15.3 0 0 1 7.2 25.296c-.131-.823-.136-1.243-.136-1.243l-1.152-.068s-.217-.575-.352-1.039c-.15-.514-.255-.956-.255-.956s-.26-.133-.74-.345c-.462-.203-.579-.234-.67-.162-.145.116-.44.267-.813.284a9 9 0 0 0-.388.025s-.074.138-.114.239c-.14.364-.283.87-.283.87z" style="font-variation-settings:normal;vector-effect:none;fill:#fff;fill-opacity:1;stroke:#323232;stroke-width:.805386;stroke-linecap:butt;stroke-linejoin:miter;stroke-miterlimit:4;stroke-dasharray:none;stroke-dashoffset:0;stroke-opacity:1;-inkscape-stroke:none;paint-order:fill markers stroke;stop-color:#000"/><path d="M1.475 21.902c.227-.647.443-1.2.655-1.21s.688.025.944-.037c.255-.061.335-.127.54-.265.204-.138.647-.057.944.056s1.711.802 1.711.802.152.824.254 1.148c.101.325.177.559.177.559l.4.02s.046-.357.462-.736c.415-.379.526-.416 1.041-.713l1.14-.658s-.297-.986.077-1.762c.374-.777 1.198-1.155 2.04-1.641l4.271-2.466s-.103-1.478.521-2.55c.533-.918.949-1.625 2.819-2.74l.874-.504-.504-.874s-.287-.527.278-.853l.926-.534-.915-1.586 1.1-.635-1.442-2.497-.337.195-.126-.218-7.788 4.496 3.616 6.263L8.85 16.6l-3.616-6.262-1.625.938s-.343.184-.194.442 1.105 1.754.752 3.04c-.354 1.288-.521 1.984-1.457 2.524L.933 18.31s-.46.234-.265.571c.194.337.844 1.943.807 3.022z" style="font-variation-settings:normal;vector-effect:none;fill:#fff;fill-opacity:1;stroke:#323232;stroke-width:.805386;stroke-linecap:butt;stroke-linejoin:miter;stroke-miterlimit:4;stroke-dasharray:none;stroke-dashoffset:0;stroke-opacity:1;-inkscape-stroke:none;paint-order:fill markers stroke;stop-color:#000"/><path d="M10.131 20.897c.768 1.313 1.816 1.446 2.481 1.351s.858-.261 1.735-.861 2.129-1.313 2.554-1.904.58-1.13.397-1.836c-.184-.707-.368-1.059-1.088-1.4s-1.411-.26-1.411-.26l1.678-.968s-.027.377.345.975c.373.597.475.906.785 1.12.31.213.337.309.318.404s-.413 1.63-.674 2.052-.933.829-1.322 1.11c-.39.28-2.498 1.74-2.93 1.85-.432.109-1.172.219-1.756-.08-.583-.298-.766-.566-1.195-.776s-.977-.268-.977-.268z" style="font-variation-settings:normal;fill:#323232;fill-opacity:1;stroke:#323232;stroke-width:.100674;stroke-linecap:butt;stroke-linejoin:miter;stroke-miterlimit:4;stroke-dasharray:none;stroke-dashoffset:0;stroke-opacity:1;paint-order:fill markers stroke;stop-color:#000"/><path d="M12.622 17.282c.057.892.05.961 0 1.196-.052.235-.094 1.035.539 1.613.632.579 1.334.441 1.48.45s.129.16.129.16-.199.19-.651.198c-.453.01-1.212-.26-1.578-.618-.366-.359-.685-1.025-.788-1.348s-.145-.43-.369-.478c-.224-.049-.285.09-.43.145-.145.056-.574.154-.574.154z" style="font-variation-settings:normal;fill:#323232;fill-opacity:1;stroke:#323232;stroke-width:.100674;stroke-linecap:butt;stroke-linejoin:round;stroke-miterlimit:4;stroke-dasharray:none;stroke-dashoffset:0;stroke-opacity:1;paint-order:fill markers stroke;stop-color:#000"/><circle cx="-3.335" cy="21.845" r=".343" style="font-variation-settings:normal;vector-effect:none;fill:#323232;fill-opacity:1;fill-rule:evenodd;stroke:#323232;stroke-width:.201347;stroke-linecap:round;stroke-linejoin:round;stroke-miterlimit:4;stroke-dasharray:none;stroke-dashoffset:0;stroke-opacity:1;-inkscape-stroke:none;stop-color:#000" transform="rotate(-30)"/><path d="m12.623 10.714-2.37 1.311c-.631.35-1.242.39-1.407.196-.166-.195-.253-.277 0-.78.25-.502.259-.448 3.013-2.038l-.635-1.119-.399-.106S9.031 9.246 8.687 9.405s-.815.26-1.043.391c-.228.132-.836.522-.836.522-.314.142.517 1.627 1.137 2.656s.652 1.13 1.043 1.578.502.503.502.503l.56-.324c.275-.84 1.52-1.442 2.407-1.954l1.02-.589z" style="font-variation-settings:normal;vector-effect:none;fill:#fff;fill-opacity:1;stroke:#323232;stroke-width:.805386;stroke-linecap:butt;stroke-linejoin:miter;stroke-miterlimit:4;stroke-dasharray:none;stroke-dashoffset:0;stroke-opacity:1;-inkscape-stroke:none;paint-order:fill markers stroke;stop-color:#000"/><path d="M20.13 5.358 13.164 9.38M20.3 7.374l-6.07 3.504" style="font-variation-settings:normal;vector-effect:none;fill:none;fill-opacity:1;stroke:#323232;stroke-width:.805386;stroke-linecap:butt;stroke-linejoin:miter;stroke-miterlimit:4;stroke-dasharray:none;stroke-dashoffset:0;stroke-opacity:1;-inkscape-stroke:none;paint-order:fill markers stroke;stop-color:#000"/><path d="M3.927 10.765c-.217-.66-.224-.646-.035-.756.19-.109.782-.41.873-.382s.458.446.458.446zM17.305 2.96c.04-.136.198-.253.244-.3s.039-.069.028-.201c-.01-.133-.037-.283-.037-.283s.536-.296.688-.364.293-.122.425.026.267.268.267.268z" style="font-variation-settings:normal;fill:#323232;fill-opacity:1;stroke:#323232;stroke-width:.100674;stroke-linecap:butt;stroke-linejoin:miter;stroke-miterlimit:4;stroke-dasharray:none;stroke-dashoffset:0;stroke-opacity:1;paint-order:fill markers stroke;stop-color:#000"/><path d="m5.289 10.187 6.493-3.75" style="font-variation-settings:normal;fill:none;fill-opacity:1;stroke:#323232;stroke-width:.604038;stroke-linecap:butt;stroke-linejoin:miter;stroke-miterlimit:4;stroke-dasharray:none;stroke-dashoffset:0;stroke-opacity:1;paint-order:fill markers stroke;stop-color:#000"/><path d="M1.843 17.528c.08-.984 1.994-2.38 1.994-2.38l.12-.412s-.288-.337-.97-.603c-.682-.267-1.67-.08-1.75-.126-.08-.047-.153-.242-.071-.329s.57-.224 1.265-.189c.694.036 1.833.475 1.833.475l-.155 1.357-1.315 1.75z" style="font-variation-settings:normal;fill:#323232;fill-opacity:1;stroke:#323232;stroke-width:.100674;stroke-linecap:butt;stroke-linejoin:miter;stroke-miterlimit:4;stroke-dasharray:none;stroke-dashoffset:0;stroke-opacity:1;paint-order:fill markers stroke;stop-color:#000"/><path d="M2.296 19.089c-.271.156-.49.437-.231.919.156.27.528.408.799.252.018-.01.114-.051.13-.064.11-.034.28-.093.351-.083.105.015.566.196.652.232s.19.075.265.031c.075-.043.24-.193.268-.3s.064-.366.009-.4a9 9 0 0 0-1.519-.64.91.91 0 0 0-.724.053" style="font-variation-settings:normal;fill:#323232;fill-opacity:1;fill-rule:evenodd;stroke:#fff;stroke-width:.201347;stroke-linecap:round;stroke-linejoin:round;stroke-miterlimit:4;stroke-dasharray:none;stroke-dashoffset:0;stroke-opacity:1;stop-color:#000"/><path d="M4.354 13.592c1.107-.64 1.256-.576 1.596.013l1.415 2.452s.403.795.698.625l.658-.38" style="font-variation-settings:normal;fill:none;fill-opacity:1;stroke:#323232;stroke-width:.604038;stroke-linecap:butt;stroke-linejoin:miter;stroke-miterlimit:4;stroke-dasharray:none;stroke-dashoffset:0;stroke-opacity:1;paint-order:fill markers stroke;stop-color:#000"/><circle cx="-10.123" cy="26.13" r=".492" style="font-variation-settings:normal;fill:none;fill-opacity:1;fill-rule:evenodd;stroke:#323232;stroke-width:.402694;stroke-linecap:round;stroke-linejoin:round;stroke-miterlimit:4;stroke-dasharray:none;stroke-dashoffset:0;stroke-opacity:1;stop-color:#000" transform="rotate(-30)"/><path d="m3.532 33.106 5.493-3.172" style="font-variation-settings:normal;fill:none;fill-opacity:1;stroke:#323232;stroke-width:.604038;stroke-linecap:butt;stroke-linejoin:miter;stroke-miterlimit:4;stroke-dasharray:none;stroke-dashoffset:0;stroke-opacity:1;paint-order:fill markers stroke;stop-color:#000"/></g><g transform="translate(11.733 1.744)scale(.93306)"><path d="M1.334 22.71c-1.004 5.31-.066 6.935.658 8.234s1.617 2.343 1.896 2.552.396.274.396.274l3.369-1.945s.488-.322.86-.021c.371.3.671.431.958.332.286-.1.44-.36.44-.36s-1.084-1.647-1.666-2.975A15.3 15.3 0 0 1 7.2 25.296c-.131-.823-.136-1.243-.136-1.243l-1.152-.068s-.217-.575-.352-1.039c-.15-.514-.255-.956-.255-.956s-.26-.133-.74-.345c-.462-.203-.579-.234-.67-.162-.145.116-.44.267-.813.284a9 9 0 0 0-.388.025s-.074.138-.114.239c-.14.364-.283.87-.283.87z" style="font-variation-settings:normal;vector-effect:none;fill:#fff;fill-opacity:1;stroke:#323232;stroke-width:.805386;stroke-linecap:butt;stroke-linejoin:miter;stroke-miterlimit:4;stroke-dasharray:none;stroke-dashoffset:0;stroke-opacity:1;-inkscape-stroke:none;paint-order:fill markers stroke;stop-color:#000"/><path d="M1.475 21.902c.227-.647.443-1.2.655-1.21s.688.025.944-.037c.255-.061.335-.127.54-.265.204-.138.647-.057.944.056s1.711.802 1.711.802.152.824.254 1.148c.101.325.177.559.177.559l.4.02s.046-.357.462-.736c.415-.379.526-.416 1.041-.713l1.14-.658s-.297-.986.077-1.762c.374-.777 1.198-1.155 2.04-1.641l4.271-2.466s-.103-1.478.521-2.55c.533-.918.949-1.625 2.819-2.74l.874-.504-.504-.874s-.287-.527.278-.853l.926-.534-.915-1.586 1.1-.635-1.442-2.497-.337.195-.126-.218-7.788 4.496 3.616 6.263L8.85 16.6l-3.616-6.262-1.625.938s-.343.184-.194.442 1.105 1.754.752 3.04c-.354 1.288-.521 1.984-1.457 2.524L.933 18.31s-.46.234-.265.571c.194.337.844 1.943.807 3.022z" style="font-variation-settings:normal;vector-effect:none;fill:#fff;fill-opacity:1;stroke:#323232;stroke-width:.805386;stroke-linecap:butt;stroke-linejoin:miter;stroke-miterlimit:4;stroke-dasharray:none;stroke-dashoffset:0;stroke-opacity:1;-inkscape-stroke:none;paint-order:fill markers stroke;stop-color:#000"/><path d="M10.131 20.897c.768 1.313 1.816 1.446 2.481 1.351s.858-.261 1.735-.861 2.129-1.313 2.554-1.904.58-1.13.397-1.836c-.184-.707-.368-1.059-1.088-1.4s-1.411-.26-1.411-.26l1.678-.968s-.027.377.345.975c.373.597.475.906.785 1.12.31.213.337.309.318.404s-.413 1.63-.674 2.052-.933.829-1.322 1.11c-.39.28-2.498 1.74-2.93 1.85-.432.109-1.172.219-1.756-.08-.583-.298-.766-.566-1.195-.776s-.977-.268-.977-.268z" style="font-variation-settings:normal;fill:#323232;fill-opacity:1;stroke:#323232;stroke-width:.100674;stroke-linecap:butt;stroke-linejoin:miter;stroke-miterlimit:4;stroke-dasharray:none;stroke-dashoffset:0;stroke-opacity:1;paint-order:fill markers stroke;stop-color:#000"/><path d="M12.622 17.282c.057.892.05.961 0 1.196-.052.235-.094 1.035.539 1.613.632.579 1.334.441 1.48.45s.129.16.129.16-.199.19-.651.198c-.453.01-1.212-.26-1.578-.618-.366-.359-.685-1.025-.788-1.348s-.145-.43-.369-.478c-.224-.049-.285.09-.43.145-.145.056-.574.154-.574.154z" style="font-variation-settings:normal;fill:#323232;fill-opacity:1;stroke:#323232;stroke-width:.100674;stroke-linecap:butt;stroke-linejoin:round;stroke-miterlimit:4;stroke-dasharray:none;stroke-dashoffset:0;stroke-opacity:1;paint-order:fill markers stroke;stop-color:#000"/><circle cx="-3.335" cy="21.845" r=".343" style="font-variation-settings:normal;vector-effect:none;fill:#323232;fill-opacity:1;fill-rule:evenodd;stroke:#323232;stroke-width:.201347;stroke-linecap:round;stroke-linejoin:round;stroke-miterlimit:4;stroke-dasharray:none;stroke-dashoffset:0;stroke-opacity:1;-inkscape-stroke:none;stop-color:#000" transform="rotate(-30)"/><path d="m12.623 10.714-2.37 1.311c-.631.35-1.242.39-1.407.196-.166-.195-.253-.277 0-.78.25-.502.259-.448 3.013-2.038l-.635-1.119-.399-.106S9.031 9.246 8.687 9.405s-.815.26-1.043.391c-.228.132-.836.522-.836.522-.314.142.517 1.627 1.137 2.656s.652 1.13 1.043 1.578.502.503.502.503l.56-.324c.275-.84 1.52-1.442 2.407-1.954l1.02-.589z" style="font-variation-settings:normal;vector-effect:none;fill:#fff;fill-opacity:1;stroke:#323232;stroke-width:.805386;stroke-linecap:butt;stroke-linejoin:miter;stroke-miterlimit:4;stroke-dasharray:none;stroke-dashoffset:0;stroke-opacity:1;-inkscape-stroke:none;paint-order:fill markers stroke;stop-color:#000"/><path d="M20.13 5.358 13.164 9.38M20.3 7.374l-6.07 3.504" style="font-variation-settings:normal;vector-effect:none;fill:none;fill-opacity:1;stroke:#323232;stroke-width:.805386;stroke-linecap:butt;stroke-linejoin:miter;stroke-miterlimit:4;stroke-dasharray:none;stroke-dashoffset:0;stroke-opacity:1;-inkscape-stroke:none;paint-order:fill markers stroke;stop-color:#000"/><path d="M3.927 10.765c-.217-.66-.224-.646-.035-.756.19-.109.782-.41.873-.382s.458.446.458.446zM17.305 2.96c.04-.136.198-.253.244-.3s.039-.069.028-.201c-.01-.133-.037-.283-.037-.283s.536-.296.688-.364.293-.122.425.026.267.268.267.268z" style="font-variation-settings:normal;fill:#323232;fill-opacity:1;stroke:#323232;stroke-width:.100674;stroke-linecap:butt;stroke-linejoin:miter;stroke-miterlimit:4;stroke-dasharray:none;stroke-dashoffset:0;stroke-opacity:1;paint-order:fill markers stroke;stop-color:#000"/><path d="m5.289 10.187 6.493-3.75" style="font-variation-settings:normal;fill:none;fill-opacity:1;stroke:#323232;stroke-width:.604038;stroke-linecap:butt;stroke-linejoin:miter;stroke-miterlimit:4;stroke-dasharray:none;stroke-dashoffset:0;stroke-opacity:1;paint-order:fill markers stroke;stop-color:#000"/><path d="M1.843 17.528c.08-.984 1.994-2.38 1.994-2.38l.12-.412s-.288-.337-.97-.603c-.682-.267-1.67-.08-1.75-.126-.08-.047-.153-.242-.071-.329s.57-.224 1.265-.189c.694.036 1.833.475 1.833.475l-.155 1.357-1.315 1.75z" style="font-variation-settings:normal;fill:#323232;fill-opacity:1;stroke:#323232;stroke-width:.100674;stroke-linecap:butt;stroke-linejoin:miter;stroke-miterlimit:4;stroke-dasharray:none;stroke-dashoffset:0;stroke-opacity:1;paint-order:fill markers stroke;stop-color:#000"/><path d="M2.296 19.089c-.271.156-.49.437-.231.919.156.27.528.408.799.252.018-.01.114-.051.13-.064.11-.034.28-.093.351-.083.105.015.566.196.652.232s.19.075.265.031c.075-.043.24-.193.268-.3s.064-.366.009-.4a9 9 0 0 0-1.519-.64.91.91 0 0 0-.724.053" style="font-variation-settings:normal;fill:#323232;fill-opacity:1;fill-rule:evenodd;stroke:#fff;stroke-width:.201347;stroke-linecap:round;stroke-linejoin:round;stroke-miterlimit:4;stroke-dasharray:none;stroke-dashoffset:0;stroke-opacity:1;stop-color:#000"/><path d="M4.354 13.592c1.107-.64 1.256-.576 1.596.013l1.415 2.452s.403.795.698.625l.658-.38" style="font-variation-settings:normal;fill:none;fill-opacity:1;stroke:#323232;stroke-width:.604038;stroke-linecap:butt;stroke-linejoin:miter;stroke-miterlimit:4;stroke-dasharray:none;stroke-dashoffset:0;stroke-opacity:1;paint-order:fill markers stroke;stop-color:#000"/><circle cx="-10.123" cy="26.13" r=".492" style="font-variation-settings:normal;fill:none;fill-opacity:1;fill-rule:evenodd;stroke:#323232;stroke-width:.402694;stroke-linecap:round;stroke-linejoin:round;stroke-miterlimit:4;stroke-dasharray:none;stroke-dashoffset:0;stroke-opacity:1;stop-color:#000" transform="rotate(-30)"/><path d="m3.532 33.106 5.493-3.172" style="font-variation-settings:normal;fill:none;fill-opacity:1;stroke:#323232;stroke-width:.604038;stroke-linecap:butt;stroke-linejoin:miter;stroke-miterlimit:4;stroke-dasharray:none;stroke-dashoffset:0;stroke-opacity:1;paint-order:fill markers stroke;stop-color:#000"/></g></svg>