<svg xmlns="http://www.w3.org/2000/svg" width="128" height="128" viewBox="0 0 33.867 33.867"><path d="M3.452 30.772c2.67 1.769 2.734 1.897 2.97 2.047.235.15.267.183.418-.096.15-.279 4.186-8.862 4.186-8.862l-1.494-1.067s-.42.49-.844 1.051c-.425.56-.615.902-.963 1.023-.349.122-.561.288-1.039.902-.477.614-3.237 4.056-3.388 4.374-.152.319-.245.368.154.628ZM9.94 22.062l1.57 1.133 7.465-8.118-1.233-1.233 1.201-1.2-.761-.762-8.33 8.48ZM12.259 23.54l1.613-1.752s.199.09.36.359c.16.268.042.75.225 1.276.182.525.327.96.729 1.522.402.563.412.852-.054 1.319-.466.466-1.303.37-1.496.187-.193-.182-.316-.691-.552-1.538-.236-.847-.487-1.163-.825-1.372zM16.37 19.102l1.714-1.88s1.554 1.038 3.373 1.19c1.82.152 2.957-.227 2.957-.227l.841 2.54s-2.477.781-5.162.098c-2.502-.637-3.722-1.721-3.722-1.721z" style="font-variation-settings:normal;opacity:1;vector-effect:none;fill:#fff;fill-opacity:1;stroke:#323232;stroke-width:.533605;stroke-linecap:butt;stroke-linejoin:miter;stroke-miterlimit:4;stroke-dasharray:none;stroke-dashoffset:0;stroke-opacity:1;-inkscape-stroke:none;paint-order:fill markers stroke;stop-color:#000;stop-opacity:1"/><path d="m19.723 14.67-.84-.84 1.23-1.228-1.325-1.325s2.68-2.627 2.798-2.713c.118-.086.15-.107.37.091s.814.74 1.093 1.083c.279.343.322.396.257.525-.064.129-2.36 2.821-2.655 3.18-.16.197-.207.394-.35.599-.165.236-.426.476-.578.628z" style="font-variation-settings:normal;opacity:1;vector-effect:none;fill:#fff;fill-opacity:1;stroke:#323232;stroke-width:.533605;stroke-linecap:butt;stroke-linejoin:miter;stroke-miterlimit:4;stroke-dasharray:none;stroke-dashoffset:0;stroke-opacity:1;-inkscape-stroke:none;paint-order:fill markers stroke;stop-color:#000;stop-opacity:1"/><path d="m14.82 19.782.705.705s.311-.372.349-.402c.038-.03.064-.064.2-.11.137-.045.513.254.513.254s-.266-.341-.33-.428c-.065-.087-.781-.728-.781-.728z" style="font-variation-settings:normal;opacity:1;fill:#323232;fill-opacity:1;stroke:#323232;stroke-width:.0667007;stroke-linecap:butt;stroke-linejoin:round;stroke-miterlimit:4;stroke-dasharray:none;stroke-dashoffset:0;stroke-opacity:1;paint-order:fill markers stroke;stop-color:#000;stop-opacity:1"/><path d="M27.336 1.763s-.046.053.034.132c.08.08.254.216.28.212.027-.003.095.035.114.22.02.186.3 1.141.364 1.259.064.117.118.148-.015.28L26.29 5.69s-.084-.038-.175.008c-.09.045-.443.254-.822.216-.38-.038-.66-.197-.777-.08-.118.118-1.99 2.028-2.05 2.05-.061.024-.19.122-.334.266.273.22.75.667.951.883.201.216.413.482.413.482l.118-.118-.054-.092 1.944-1.944.194.194-2.093 2.093a.81.81 0 0 0 .087.133l2.225-2.225s.077.105.123.06c.045-.046.174-.152.174-.205 0-.053-.03-.114-.03-.114l3.33-3.332h.085l.432-.432-.315-.314.52-.52-.47-.47h-.095l-.45.45-1.135-1.135s-.083-.099-.155-.178c-.072-.08-.106-.091-.258.06Zm.997.577c.1-.1.144-.114.227-.032.126.126.394.303.233.464l-.437.437s-.118.118-.153-.056c-.035-.175-.18-.496-.088-.587.097-.098.165-.174.218-.226zM23.97 7.477c.64-.64.71-.695.838-.692.17.004.28.06.136.204L23.25 8.684s-.14.216-.277.08c-.136-.137.144-.433.144-.433l.853-.854zm2.844-1.42c.029-.03.057-.05.057-.05l1.756-1.755s.08-.087.13-.036c.052.051.073.046.116.003.043-.043.174-.2.228-.147.054.054-.005.096-.239.33L27.013 6.25s-.102.134-.222.013c-.076-.075-.025-.157.023-.207z" style="font-variation-settings:normal;opacity:1;fill:#323232;fill-opacity:1;stroke:#323232;stroke-width:.0667007;stroke-linecap:butt;stroke-linejoin:miter;stroke-miterlimit:4;stroke-dasharray:none;stroke-dashoffset:0;stroke-opacity:1;paint-order:fill markers stroke;stop-color:#000;stop-opacity:1"/><path d="M14.354 22.204c.254.041.334.022.591-.235l.811-.811s.27-.262-.06-.592l-.33-.33" style="font-variation-settings:normal;opacity:1;fill:none;fill-opacity:1;stroke:#323232;stroke-width:.200102;stroke-linecap:butt;stroke-linejoin:miter;stroke-miterlimit:4;stroke-dasharray:none;stroke-dashoffset:0;stroke-opacity:1;paint-order:fill markers stroke;stop-color:#000;stop-opacity:1"/><path d="M14.128 20.462c-.011.762.55.792.819.728.249-.06.326-.122.326-.122s-.205.25-.455.304c-.25.053-.652-.152-.716-.209-.065-.057-.118-.034-.216.004a.319.319 0 0 1-.353-.057c-.136-.114.595-.648.595-.648z" style="font-variation-settings:normal;opacity:1;fill:#323232;fill-opacity:1;stroke:#323232;stroke-width:.0667007;stroke-linecap:butt;stroke-linejoin:round;stroke-miterlimit:4;stroke-dasharray:none;stroke-dashoffset:0;stroke-opacity:1;paint-order:fill markers stroke;stop-color:#000;stop-opacity:1"/><path d="M14.457 17.022c-.236-.235-.327-.434-.027-.734l2.02-2.02s.186-.175.36 0l.544.543-2.55 2.55z" style="font-variation-settings:normal;opacity:1;fill:#323232;fill-opacity:1;stroke:#323232;stroke-width:.0667007;stroke-linecap:butt;stroke-linejoin:miter;stroke-miterlimit:4;stroke-dasharray:none;stroke-dashoffset:0;stroke-opacity:1;paint-order:fill markers stroke;stop-color:#000;stop-opacity:1"/><path d="m10.119 22.218 2.452-2.452-.007-.402 2.409-2.409" style="font-variation-settings:normal;opacity:1;fill:none;fill-opacity:1;stroke:#323232;stroke-width:.400205;stroke-linecap:butt;stroke-linejoin:miter;stroke-miterlimit:4;stroke-dasharray:none;stroke-dashoffset:0;stroke-opacity:1;paint-order:fill markers stroke;stop-color:#000;stop-opacity:1"/><path d="M12.968 19.18c-.255.174-.166.293-.216.562-.05.27-.102.21-.72.634v.001a.434.434 0 0 0-.11.603.434.434 0 0 0 .603.112.434.434 0 0 0 .048-.038v.001l.022-.022a.434.434 0 0 0 .005-.006l2.832-2.977-.364-.312z" style="font-variation-settings:normal;opacity:1;vector-effect:none;fill:#323232;fill-opacity:1;fill-rule:evenodd;stroke:#fff;stroke-width:.133401;stroke-linecap:round;stroke-linejoin:round;stroke-miterlimit:4;stroke-dasharray:none;stroke-dashoffset:0;stroke-opacity:1;-inkscape-stroke:none;stop-color:#000;stop-opacity:1"/><path d="m16.842 14.65.826-.825" style="font-variation-settings:normal;opacity:1;fill:none;fill-opacity:1;stroke:#323232;stroke-width:.400205;stroke-linecap:butt;stroke-linejoin:miter;stroke-miterlimit:4;stroke-dasharray:none;stroke-dashoffset:0;stroke-opacity:1;paint-order:fill markers stroke;stop-color:#000;stop-opacity:1"/><path d="m20.159 11.6.436-.436" style="font-variation-settings:normal;opacity:1;vector-effect:none;fill:none;fill-opacity:1;stroke:#323232;stroke-width:.533605;stroke-linecap:round;stroke-linejoin:miter;stroke-miterlimit:4;stroke-dasharray:none;stroke-dashoffset:0;stroke-opacity:1;-inkscape-stroke:none;paint-order:fill markers stroke;stop-color:#000;stop-opacity:1"/><path d="m21.515 10.244.436-.436" style="font-variation-settings:normal;vector-effect:none;fill:none;fill-opacity:1;stroke:#323232;stroke-width:.533605;stroke-linecap:round;stroke-linejoin:miter;stroke-miterlimit:4;stroke-dasharray:none;stroke-dashoffset:0;stroke-opacity:1;-inkscape-stroke:none;paint-order:fill markers stroke;stop-color:#000"/><path d="m19.605 12.155 2.883-2.884" style="font-variation-settings:normal;opacity:1;fill:none;fill-opacity:1;stroke:#323232;stroke-width:.400205;stroke-linecap:butt;stroke-linejoin:miter;stroke-miterlimit:4;stroke-dasharray:none;stroke-dashoffset:0;stroke-opacity:1;paint-order:fill markers stroke;stop-color:#000;stop-opacity:1"/><circle cx="2.266" cy="20.749" r=".141" style="font-variation-settings:normal;opacity:1;vector-effect:none;fill:#323232;fill-opacity:1;fill-rule:evenodd;stroke:#323232;stroke-width:.133401;stroke-linecap:round;stroke-linejoin:round;stroke-miterlimit:4;stroke-dasharray:none;stroke-dashoffset:0;stroke-opacity:1;-inkscape-stroke:none;stop-color:#000;stop-opacity:1" transform="rotate(-45)"/><path d="m15.605 13.442.156.157 1.147-1.147" style="font-variation-settings:normal;opacity:1;fill:none;fill-opacity:1;stroke:#323232;stroke-width:.133401;stroke-linecap:butt;stroke-linejoin:miter;stroke-miterlimit:4;stroke-dasharray:none;stroke-dashoffset:0;stroke-opacity:1;paint-order:fill markers stroke;stop-color:#000;stop-opacity:1"/><path d="M15.995 13.411c.09.069.083.104.046.167-.038.062.027.185.027.185l2.093-2.092s-.284-.238-.409-.113c-.125.125-.386.415-.502.415-.117 0-.188.05-.182.135.007.086-.04.177-.128.264l-.087.088s.13.138.104.2c-.025.063-.295.355-.424.472-.13.117-.207.077-.207.077l-.14-.006z" style="font-variation-settings:normal;opacity:1;fill:#323232;fill-opacity:1;stroke:#323232;stroke-width:.0667007;stroke-linecap:butt;stroke-linejoin:miter;stroke-miterlimit:4;stroke-dasharray:none;stroke-dashoffset:0;stroke-opacity:1;paint-order:fill markers stroke;stop-color:#000;stop-opacity:1"/><path d="M9.8 21.287h-.212" style="font-variation-settings:normal;opacity:1;vector-effect:none;fill:none;fill-opacity:1;stroke:#323232;stroke-width:.533605;stroke-linecap:butt;stroke-linejoin:miter;stroke-miterlimit:4;stroke-dasharray:none;stroke-dashoffset:0;stroke-opacity:1;-inkscape-stroke:none;paint-order:fill markers stroke;stop-color:#000;stop-opacity:1"/></svg>