<?xml version="1.0" encoding="UTF-8" standalone="no"?>
<svg
   width="128"
   height="128"
   version="1.1"
   id="svg63"
   sodipodi:docname="loot-weapon-og-saiga.svg"
   inkscape:version="1.4.2 (f4327f4, 2025-05-13)"
   xml:space="preserve"
   xmlns:inkscape="http://www.inkscape.org/namespaces/inkscape"
   xmlns:sodipodi="http://sodipodi.sourceforge.net/DTD/sodipodi-0.dtd"
   xmlns="http://www.w3.org/2000/svg"
   xmlns:svg="http://www.w3.org/2000/svg"
   xmlns:rdf="http://www.w3.org/1999/02/22-rdf-syntax-ns#"
   xmlns:cc="http://creativecommons.org/ns#"
   xmlns:dc="http://purl.org/dc/elements/1.1/"><metadata
     id="metadata67"><rdf:RDF><cc:Work
         rdf:about=""><dc:format>image/svg+xml</dc:format><dc:type
           rdf:resource="http://purl.org/dc/dcmitype/StillImage" /></cc:Work></rdf:RDF></metadata><sodipodi:namedview
     pagecolor="#ffffff"
     bordercolor="#666666"
     borderopacity="1"
     objecttolerance="10"
     gridtolerance="10"
     guidetolerance="10"
     inkscape:pageopacity="0"
     inkscape:pageshadow="2"
     inkscape:window-width="1920"
     inkscape:window-height="1009"
     id="namedview65"
     showgrid="true"
     inkscape:zoom="1.3409091"
     inkscape:cx="-152.50847"
     inkscape:cy="35.423729"
     inkscape:window-x="-8"
     inkscape:window-y="-8"
     inkscape:window-maximized="1"
     inkscape:current-layer="svg63"
     inkscape:object-paths="true"
     inkscape:snap-intersection-paths="true"
     inkscape:snap-smooth-nodes="true"
     inkscape:snap-midpoints="true"
     inkscape:showpageshadow="2"
     inkscape:pagecheckerboard="0"
     inkscape:deskcolor="#d1d1d1"><inkscape:grid
       type="xygrid"
       id="grid5055"
       empspacing="4"
       spacingy="2"
       spacingx="2"
       originx="-3.7950775e-07"
       originy="-7.377879e-07"
       units="px" /></sodipodi:namedview><defs
     id="defs37"><linearGradient
       id="linearGradient987"><stop
         id="stop983"
         stop-color="#66a000"
         offset="0"
         style="stop-color:#5d3b00;stop-opacity:1" /><stop
         id="stop985"
         stop-color="#0e2608"
         offset="1"
         style="stop-color:#d38600;stop-opacity:1" /></linearGradient></defs><g
     id="g39"
     transform="matrix(0.20901744,0,0,0.21119553,106.89344,35.981532)"><g
       id="g38"
       transform="translate(-7.9631252,-2.9312215)"><path
         style="fill:#ffffff;fill-opacity:1"
         d="m -403.8305,408.67796 69.72881,-135.72881 -25.35593,-20.1356 -108.13559,113.35593 z"
         id="path38"
         transform="translate(7.9631252,2.9312215)" /><path
         style="fill:#ffffff;fill-opacity:1"
         d="m -336.71186,206.57627 -16.40678,-0.74577 -1.11864,14.54238 33.9322,33.55932 26.84746,-14.54237 8.94915,8.57627 7.08475,50.33898 35.79661,-10.81356 -10.44068,-8.94915 -10.0678,-71.59322 27.22034,-28.33898 14.54237,6.71186 26.84746,-44.74576 -39.15254,-34.30509 z"
         id="path39"
         transform="translate(7.9631252,2.9312215)" /><path
         style="fill:#ffffff;fill-opacity:1"
         d="m -166.91822,159.91427 32.81356,23.11864 49.220329,13.42373 -10.067794,42.88136 -58.915255,-13.79661 -40.64406,-32.44068 z"
         id="path40" /><path
         style="fill:#ffffff;fill-opacity:1"
         d="M -166.91822,124.11766 -68.10467,11.134611 -95.325005,-19.81454 -203.83348,87.575288 Z"
         id="path41" /><path
         style="fill:#ffffff;fill-opacity:1"
         d="m -48.71484,-15.339965 -26.847457,-29.084744 17.152542,-13.423729 8.949152,13.050846 91.728812,-94.711868 18.271186,13.42373 -97.322032,92.101698 z"
         id="path42" /></g><path
       style="fill:#333333;fill-opacity:1"
       d="m -408.98305,420.98861 c -2.03447,-0.85676 -54.35094,-43.67139 -60.20379,-49.26943 -3.56336,-3.40822 -4.79103,-7.23218 -3.788,-11.79893 0.60884,-2.77203 28.44019,-29.75098 92.41978,-89.58922 9.06968,-8.48261 12.54138,-14.42412 14.54398,-24.89077 0.81825,-4.27662 1.72652,-8.01445 2.01837,-8.3063 0.29185,-0.29185 8.82599,7.72084 18.96477,17.80598 l 18.43414,18.3366 -3.71226,4.21736 c -2.73789,3.11041 -11.29587,20.72005 -32.60483,67.09055 -36.33595,79.07074 -33.88758,74.1892 -38.09093,75.94547 -3.83138,1.60085 -5.09641,1.67356 -7.98123,0.45869 z m 33.29016,-81.78352 30.29016,-65.74746 -5.71191,-5.17496 -5.71191,-5.17496 -2.68819,4.17496 c -3.22122,5.00279 -17.04078,18.52708 -63.0603,61.71296 -19.02559,17.8541 -34.75203,32.912 -34.94764,33.462 -0.37343,1.05 48.80792,42.35191 50.53963,42.44257 0.55,0.0288 14.63057,-29.53401 31.29016,-65.69511 z m 94.44009,-34.79874 c -1.21813,-0.85321 -2.66298,-2.38877 -3.21078,-3.41235 -0.54781,-1.02359 -2.12983,-12.00553 -3.51561,-24.4043 -1.38577,-12.39878 -2.95701,-23.69376 -3.49164,-25.09995 -0.53463,-1.40618 -2.07195,-3.05784 -3.41626,-3.67035 -3.48067,-1.5859 -10.17007,1.87283 -18.26168,9.44214 l -6.42211,6.00756 -22.91656,-22.83755 c -15.12928,-15.07712 -23.11917,-23.76 -23.51279,-25.55215 -0.33059,-1.50518 0.0472,-4.20869 0.84798,-6.06818 1.89165,-4.39257 10.46233,-12.65319 14.21495,-13.70069 3.74841,-1.04633 8.57636,0.21956 10.98404,2.88002 1.85726,2.05225 2.146,1.7843 54.65471,-50.7174 l 52.78759,-52.78053 5.76396,5.54653 c 3.17017,3.0506 14.10399,13.43877 24.29738,23.08483 l 18.53342,17.53829 -16.14255,24.50075 c -17.58464,26.6895 -17.69117,26.79461 -27.15685,26.79461 -2.43876,0 -4.26038,0.3375 -4.04805,0.75 4.86064,9.44264 5.254,16.35193 1.4091,24.7503 -2.94513,6.433 -11.06004,14.80308 -16.12882,16.63598 -1.95847,0.70819 -3.49968,1.95092 -3.49968,2.82191 0,0.85603 1.13026,9.65313 2.51169,19.54911 2.18519,15.65383 2.80561,18.25354 4.77284,19.99934 7.49795,6.65398 7.66745,14.39603 0.41701,19.04712 -12.44222,7.98156 -33.87852,12.81228 -39.47129,8.89496 z m 19.26975,-14.94684 c 2.75,-0.77759 5.9,-2.07235 7,-2.87725 1.98531,-1.45269 1.98276,-1.4818 -0.34627,-3.96096 -2.083,-2.21729 -2.77389,-5.46368 -6.15733,-28.93263 -2.09608,-14.53931 -4.80886,-31.33919 -6.0284,-37.33307 l -2.21734,-10.89797 17.86728,-17.21605 17.86728,-17.21604 3.54956,3.46604 c 1.95225,1.90633 3.98058,3.45617 4.50739,3.44409 0.98626,-0.0226 22.72285,-32.23855 23.25566,-34.46736 0.1638,-0.68522 -6.3612,-7.59423 -14.5,-15.35335 l -14.79783,-14.1075 -52.66901,52.64057 -52.66901,52.64057 -5.22751,-4.69998 c -2.87513,-2.58499 -5.72407,-4.53467 -6.33099,-4.33262 -3.16668,1.05422 -0.52096,4.49415 14.10341,18.33701 l 15.79311,14.94915 6.20048,-4.19878 c 7.52274,-5.09417 14.60543,-6.91321 20.65103,-5.30378 5.31119,1.41393 13.13143,9.26434 14.55178,14.60794 0.94053,3.5384 5.09472,37.50538 5.0961,41.6685 6.7e-4,2.02288 0.44582,1.98656 10.50061,-0.85653 z m 15.5,-82.42818 c 0,-3.26317 -1.52033,-3.1638 -4.89703,0.32006 -2.65997,2.74439 -3.09218,3.80103 -2.50757,6.1303 l 0.70636,2.81436 3.34912,-3.65452 c 1.84202,-2.00999 3.34912,-4.53458 3.34912,-5.6102 z m 140,35.95837 c -22.85355,-4.28099 -55.9171,-13.75894 -63.82219,-18.29518 -6.94362,-3.98451 -21.70284,-15.52181 -30.63955,-23.95096 l -8.9448,-8.4368 15.71554,-23.73542 15.71554,-23.73543 8.73773,7.42372 c 12.26494,10.42051 24.61497,19.35484 31.69426,22.92845 6.72064,3.39257 26.39385,8.63215 42.793474,11.39721 6.16992,1.04028 10.75,2.28847 10.75,2.92966 0,0.61443 -1.12925,7.23044 -2.50944,14.70224 -2.26362,12.25434 -6.45343,38.11131 -6.47997,39.99044 -0.0145,1.02949 -2.01038,0.84266 -13.010594,-1.21793 z m 1.47957,-17.28207 c 0.3136,-1.7875 1.44149,-8.18 2.50643,-14.20555 1.06493,-6.02555 1.83341,-11.05837 1.70773,-11.18405 -0.12567,-0.12567 -5.39567,-1.39051 -11.71111,-2.81074 -24.89115,-5.59757 -33.34407,-9.35325 -51.04965,-22.68165 -6.80841,-5.12522 -12.42813,-8.70235 -12.78908,-8.14063 -0.35414,0.55111 -3.97487,6.0235 -8.04608,12.16087 l -7.40219,11.15885 2.40219,2.57924 c 3.43895,3.69241 16.52856,14.14408 22.40219,17.8875 6.13169,3.90788 22.22768,9.30092 41.5,13.90478 14.40394,3.44088 17.85352,4.24296 19.20469,4.46538 0.38757,0.0638 0.96127,-1.3465 1.27488,-3.134 z m -95.4661,-116.94856 -23.48654,-23.1105 60.879,-60.38043 60.879,-60.380424 14.107534,13.784954 c 7.75915,7.58173 15.42516,15.5284696 17.03559,17.6594296 3.61622,4.78508 4.52607,12.25825 2.16783,17.8058204 -1.42072,3.34213 -105.961304,117.88666 -107.489534,117.77568 -0.33349,-0.0242 -11.17529,-10.44376 -24.09288,-23.15453 z M -128.544,60.45763 c 35.689974,-38.68341 47.054364,-51.5994304 47.057204,-53.4821104 0.003,-1.80612 -2.64648,-5.14232 -9.72749,-12.25 -5.35218,-5.3723396 -10.191354,-9.7678896 -10.753714,-9.7678896 -0.56236,0 -23.7458,22.7501496 -51.51876,50.55588 l -50.49629,50.55588 13.32513,13.00241 c 7.32881,7.15133 13.71557,12.86368 14.19279,12.69412 0.47722,-0.16956 22.04173,-23.25829 47.92113,-51.30829 z m 51.229804,-88.304157 c -19.98299,-19.38783 -21.36567,-20.962415 -21.87735,-24.91364 -0.52716,-4.070786 -0.33533,-4.435969 5.50373,-10.477272 5.40662,-5.593874 6.46837,-6.259476 9.98499,-6.259476 2.72368,0 5.01288,0.822094 7.43627,2.670506 l 3.50122,2.670506 3.34947,-3.455778 3.34947,-3.455778 5.80451,5.743943 5.80451,5.743944 32.44039,-32.428868 c 18.7575096,-18.75086 32.35467,-33.10384 32.23716,-34.02915 -0.11177,-0.88016 5.99328,-8.09259 13.56678,-16.02763 l 13.77,-14.42735 12.66282,12.66282 12.66281,12.66281 -13.81397,14.58805 c -9.64124,10.1815 -14.30703,14.43155 -15.44627,14.06997 -1.14701,-0.36405 -11.27505,9.128102 -34.06624036,31.927383 -32.37268964,32.384186 -32.43034964,32.449411 -30.53857964,34.539801 1.88909,2.08742 1.85089,2.138646 -11.5526,15.492696 l -13.44797,13.3983596 z m 25.80985,-2.673872 c 3.32098,-3.426373 3.34323,-3.508764 1.49816,-5.547537 -1.86227,-2.057784 -1.63524,-2.307194 40.0706696,-44.021971 23.0689504,-23.073853 42.6393604,-41.952463 43.4898004,-41.952463 0.85044,0 3.5228,-2.01395 5.93857,-4.47545 l 4.39232,-4.47545 -2.93411,-2.52333 c -1.61376,-1.38783 -3.17792,-2.52388 -3.4759,-2.52455 -1.52433,-0.003 -8.96205,8.82598 -8.48552,10.07327 0.35372,0.92586 -14.14664,16.11218 -41.36944,43.326465 l -41.91405,41.900954 -6.13918,-5.339702 -6.13919,-5.339702 -3.68604,3.686035 -3.68603,3.686035 8.45854,8.502712 c 4.6522,4.676492 8.9427,8.502713 9.53446,8.502713 0.59175,0 2.59287,-1.565113 4.44694,-3.478029 z"
       id="path37" /></g></svg>
