<svg xmlns="http://www.w3.org/2000/svg" width="128" height="128" viewBox="0 0 33.866666 33.866668"><path d="m15.332505 18.674401 7.501231-7.501231 1.750917 1.027218-1.450723 2.154351s-.344563-.365594-.573838-.452936c-.229274-.08734-.387584-.04913-.687825.251111-.300241.300241-3.111767 3.139317-3.192828 3.282139-.08106.142822.03474.335825.11194.505666.0772.169842 1.634272 4.22044 1.688862 4.395127.05459.174685.09826.174685.191062.212897.0928.03821.338454.262029.07097.442174-.267489.180144-1.774153.682365-2.101688.71512-.327535.03275-.589564.141932-.660531-.180145-.07097-.322077-.720578-2.90415-.906182-3.61381-.317847-.91213-1.177422-1.124602-1.742816-.857507z" style="font-variation-settings:normal;opacity:1;vector-effect:none;fill:#fff;fill-opacity:1;stroke:#323232;stroke-width:.543422;stroke-linecap:butt;stroke-linejoin:miter;stroke-miterlimit:4;stroke-dasharray:none;stroke-dashoffset:0;stroke-opacity:1;-inkscape-stroke:none;paint-order:fill markers stroke;stop-color:#000;stop-opacity:1"/><path d="m14.553828 19.45993-.01196-1.114294 8.182906-8.182907.957292.555847s.207284-.154907.330109-.468796c.122826-.313888.218357-.622318.218357-.622318l-.07097-.070965s.01091-.212899.371207-.573188l4.913034-4.913034-.223319-.3868-1.359771-1.23996-.08734.087342-.720578-.676908-.185606-.03275-15.74293 15.74293 2.54932 2.549319s.09219-.09219.20682-.19591c.114634-.103724.673429-.457608.673429-.457608zM10.718726 18.272787s-.307712 1.1463-.747758 2.06499c-.440045.918691-1.258321 1.659847-1.258321 1.659847l-6.68538 6.68538c-.409166.409165.39367.918857 1.25832 1.567346.86465.648487 2.27754 2.231156 2.570903 2.5554.293368.324248.586528.046509.586528.046509l.756543-.756543c.409164-.409165.324373-.293337.540535-.756543.216163-.463204 4.068299-8.854995 4.276742-9.29504.208443-.440045 1.110526-1.363225 1.110526-1.363225l-2.408638-2.408121zm-1.099675 4.207495c.056261-.000492.115982.010374.186035.030489.389865.111941.729703.567408.737423.822172.0077.254763.042373.336184-.467155 1.169954-.509526.833769-1.165909.386061-1.37821.204639-.212303-.181421-.845235-.652348-.289388-1.208195.26381-.263811.45899-.466338.611849-.618567.292979-.291772.430663-.399016.599446-.400492zM7.468278 24.6047c.107338-.007601.232984.035208.341064.21084.247044.401446.941827 1.605979 1.011308 1.829862.069481.223882.00028.524863-.185001.864547-.185283.339683-.972803 2.393012-1.289327 2.616895-.316524.223882-.424751-.02341-.671794.192753-.247042.216163-.49409.355469-.764294.085266-.270203-.270202-2.578276-1.806469-2.230872-2.153874l3.543453-3.543453s.107457-.093063.245463-.102836zM24.052639 14.378991l1.151608-1.696724s1.395224.630975 3.425945 1.176866c2.030722.545894 2.172654.513139 2.172654.513139l.398501-.169225.72058.152851-.229049 2.237156s-2.794971-.382125-4.880282-1.146374c-2.08531-.76425-2.759957-1.067689-2.759957-1.067689z" style="font-variation-settings:normal;opacity:1;vector-effect:none;fill:#fff;fill-opacity:1;stroke:#323232;stroke-width:.543422;stroke-linecap:butt;stroke-linejoin:miter;stroke-miterlimit:4;stroke-dasharray:none;stroke-dashoffset:0;stroke-opacity:1;-inkscape-stroke:none;paint-order:fill markers stroke;stop-color:#000;stop-opacity:1"/><path d="m28.532158 2.487187.878889.791543s.05459-.109179.05732-.188333c.0027-.079153.0082-.188332.152849-.332995l.592293-.592294-.534975-.534975-.706931.706932s-.384854.106449-.439445.150122z" style="font-variation-settings:normal;opacity:1;vector-effect:none;fill:#323232;fill-opacity:1;stroke:none;stroke-width:.543422;stroke-linecap:butt;stroke-linejoin:miter;stroke-miterlimit:4;stroke-dasharray:none;stroke-dashoffset:0;stroke-opacity:1;-inkscape-stroke:none;paint-order:fill markers stroke;stop-color:#000;stop-opacity:1"/><circle cx="11.437616" cy="22.682837" r=".289503" style="font-variation-settings:normal;opacity:1;vector-effect:none;fill:#323232;fill-opacity:1;fill-rule:evenodd;stroke:none;stroke-width:.135855;stroke-linecap:round;stroke-linejoin:round;stroke-miterlimit:4;stroke-dasharray:none;stroke-dashoffset:0;stroke-opacity:1;-inkscape-stroke:none;stop-color:#000;stop-opacity:1" transform="rotate(-45)"/><circle cx="17.365871" cy="22.654488" r=".289503" style="font-variation-settings:normal;vector-effect:none;fill:#323232;fill-opacity:1;fill-rule:evenodd;stroke:none;stroke-width:.135855;stroke-linecap:round;stroke-linejoin:round;stroke-miterlimit:4;stroke-dasharray:none;stroke-dashoffset:0;stroke-opacity:1;-inkscape-stroke:none;stop-color:#000" transform="rotate(-45)"/><path d="m31.255463 16.562683.316524-2.246546" style="font-variation-settings:normal;opacity:1;vector-effect:none;fill:none;fill-opacity:1;stroke:#323232;stroke-width:.543422;stroke-linecap:butt;stroke-linejoin:miter;stroke-miterlimit:4;stroke-dasharray:none;stroke-dashoffset:0;stroke-opacity:1;-inkscape-stroke:none;paint-order:fill markers stroke;stop-color:#000;stop-opacity:1"/><path d="M24.747428 13.497807c3.103476 1.343297 4.172708 1.509279 4.172708 1.509279" style="font-variation-settings:normal;opacity:1;fill:none;fill-opacity:1;stroke:#323232;stroke-width:.54338;stroke-linecap:round;stroke-linejoin:miter;stroke-miterlimit:4;stroke-dasharray:none;stroke-dashoffset:0;stroke-opacity:1;paint-order:fill markers stroke;stop-color:#000;stop-opacity:1"/><path d="m10.669846 17.369433 2.439548-2.439549-.594446-.594447s-.196863-.235463-.343544-.08878l-.930272.93027s-.0772.100362-.138961.370565c-.06176.270204-.432325 1.821941-.432325 1.821941z" style="font-variation-settings:normal;opacity:1;vector-effect:none;fill:#323232;fill-opacity:1;stroke:none;stroke-width:.543422;stroke-linecap:butt;stroke-linejoin:miter;stroke-miterlimit:4;stroke-dasharray:none;stroke-dashoffset:0;stroke-opacity:1;-inkscape-stroke:none;paint-order:fill markers stroke;stop-color:#000;stop-opacity:1"/><path d="m11.98615 14.616923-.300241-.300242" style="font-variation-settings:normal;opacity:1;fill:none;fill-opacity:1;stroke:#323232;stroke-width:.271712;stroke-linecap:butt;stroke-linejoin:miter;stroke-miterlimit:4;stroke-dasharray:none;stroke-dashoffset:0;stroke-opacity:1;paint-order:fill markers stroke;stop-color:#000;stop-opacity:1"/><path d="m24.86323 3.176048 1.644377-1.644377s-.09264-.131244-.212301-.173703c-.119662-.04246-.443904-.235464-.443904-.235464s-.243182.065622-.324244-.01544c-.08106-.08106-.436189-.42074-.505666-.451624-.06948-.03088-.108082-.03088-.189143.050181-.08106.08106-.648487.617606-.633046.694808.01544.0772.289503.474785.393724.540405.104221.065621.231602.185283.266343.358984.03474.173702.0039.87623.0039.87623z" style="font-variation-settings:normal;opacity:1;vector-effect:none;fill:#323232;fill-opacity:1;stroke:none;stroke-width:.543422;stroke-linecap:butt;stroke-linejoin:miter;stroke-miterlimit:4;stroke-dasharray:none;stroke-dashoffset:0;stroke-opacity:1;-inkscape-stroke:none;paint-order:fill markers stroke;stop-color:#000;stop-opacity:1"/><path d="M19.320207 18.90959c1.130992-.304944 1.150293-.254762 1.347155-.451624.196862-.196862 1.459097-1.482258 1.617358-1.64824.158265-.16598.204583-.389865.115801-.617607-.08878-.227743-.374423-1.123272-.374423-1.123272" style="font-variation-settings:normal;opacity:1;fill:none;fill-opacity:1;stroke:#323232;stroke-width:.203783;stroke-linecap:butt;stroke-linejoin:miter;stroke-miterlimit:4;stroke-dasharray:none;stroke-dashoffset:0;stroke-opacity:1;paint-order:fill markers stroke;stop-color:#000;stop-opacity:1"/><path d="M21.296548 15.107447c.283714-.237394.470926-.111942.683228.06948.212303.181422.418816.750779.418816.750779s.04246-.220023.165982-.366704c.123521-.146682.613746-.78745.613746-.78745l-.731479-.86658-1.356165 1.066529z" style="font-variation-settings:normal;opacity:1;vector-effect:none;fill:#323232;fill-opacity:1;stroke:none;stroke-width:.543422;stroke-linecap:butt;stroke-linejoin:miter;stroke-miterlimit:4;stroke-dasharray:none;stroke-dashoffset:0;stroke-opacity:1;-inkscape-stroke:none;paint-order:fill markers stroke;stop-color:#000;stop-opacity:1"/><path d="m23.16288 14.599851.704458.584796" style="font-variation-settings:normal;opacity:1;fill:none;fill-opacity:1;stroke:#323232;stroke-width:.271712;stroke-linecap:butt;stroke-linejoin:miter;stroke-miterlimit:4;stroke-dasharray:none;stroke-dashoffset:0;stroke-opacity:1;paint-order:fill markers stroke;stop-color:#000;stop-opacity:1"/><path d="M19.453962 16.702232c.158309 1.686808 1.32652 1.239177 1.32652 1.239177s-.185604.218357-.584105.191062c-.398502-.02729-.791545-.595023-.81338-.682364-.02184-.08734-.07643-.08734-.185604-.06551-.109178.02184-.414879.05459-.414879.05459z" style="font-variation-settings:normal;opacity:1;fill:#323232;fill-opacity:1;stroke:#323232;stroke-width:.0679278;stroke-linecap:butt;stroke-linejoin:round;stroke-miterlimit:4;stroke-dasharray:none;stroke-dashoffset:0;stroke-opacity:1;paint-order:fill markers stroke;stop-color:#000;stop-opacity:1"/><path d="M2.490411 28.343538c2.007224 1.69842 3.226997 2.964514 3.497201 3.234718l.78745.78745-.571287.571286-4.222889-4.053047Z" style="font-variation-settings:normal;opacity:1;vector-effect:none;fill:#323232;fill-opacity:1;stroke:none;stroke-width:.543422;stroke-linecap:butt;stroke-linejoin:miter;stroke-miterlimit:4;stroke-dasharray:none;stroke-dashoffset:0;stroke-opacity:1;-inkscape-stroke:none;paint-order:fill markers stroke;stop-color:#000;stop-opacity:1"/><circle cx="-16.906691" cy="26.809225" r=".223883" style="font-variation-settings:normal;opacity:1;vector-effect:none;fill:#323232;fill-opacity:1;fill-rule:evenodd;stroke:none;stroke-width:.135855;stroke-linecap:round;stroke-linejoin:round;stroke-miterlimit:4;stroke-dasharray:none;stroke-dashoffset:0;stroke-opacity:1;-inkscape-stroke:none;stop-color:#000;stop-opacity:1" transform="rotate(-45)"/><circle cx="-8.258332" cy="23.20038" r=".218357" style="font-variation-settings:normal;opacity:1;vector-effect:none;fill:#323232;fill-opacity:1;fill-rule:evenodd;stroke:none;stroke-width:.135855;stroke-linecap:round;stroke-linejoin:round;stroke-miterlimit:4;stroke-dasharray:none;stroke-dashoffset:0;stroke-opacity:1;-inkscape-stroke:none;stop-color:#000;stop-opacity:1" transform="rotate(-45)"/><path d="m18.419811 12.359417 2.215667-2.215667s.243178-.227747.467065-.0039l.37399.37399s.169842.239322-.06948.478645l-2.142324 2.142324s-.312664.366705-.559706.119663l-.296789-.296789s-.30108-.285648.01158-.598307z" style="font-variation-settings:normal;opacity:1;vector-effect:none;fill:#323232;fill-opacity:1;stroke:none;stroke-width:.543422;stroke-linecap:butt;stroke-linejoin:miter;stroke-miterlimit:4;stroke-dasharray:none;stroke-dashoffset:0;stroke-opacity:1;-inkscape-stroke:none;paint-order:fill markers stroke;stop-color:#000;stop-opacity:1"/><path d="M27.773368 2.530857 11.975231 18.328993M13.51465 15.239239l.818839.81884M12.652139 16.079916l.764249.764248M20.901887 9.453418l1.412777 1.412776" style="font-variation-settings:normal;opacity:1;vector-effect:none;fill:none;fill-opacity:1;stroke:#323232;stroke-width:.543422;stroke-linecap:butt;stroke-linejoin:miter;stroke-miterlimit:4;stroke-dasharray:none;stroke-dashoffset:0;stroke-opacity:1;-inkscape-stroke:none;paint-order:fill markers stroke;stop-color:#000;stop-opacity:1"/><path d="m23.34072 7.782347 1.452075-1.452076" style="font-variation-settings:normal;opacity:1;fill:none;fill-opacity:1;stroke:#323232;stroke-width:.407567;stroke-linecap:round;stroke-linejoin:miter;stroke-miterlimit:4;stroke-dasharray:none;stroke-dashoffset:0;stroke-opacity:1;paint-order:fill markers stroke;stop-color:#000;stop-opacity:1"/><path d="m25.795707 5.327358 1.452075-1.452075" style="font-variation-settings:normal;fill:none;fill-opacity:1;stroke:#323232;stroke-width:.407567;stroke-linecap:round;stroke-linejoin:miter;stroke-miterlimit:4;stroke-dasharray:none;stroke-dashoffset:0;stroke-opacity:1;paint-order:fill markers stroke;stop-color:#000"/><path d="M16.255331 19.056272c1.266095-.324244 2.617109-1.845101 2.617109-1.845101M21.068806 12.976702l1.420495.88781" style="font-variation-settings:normal;opacity:1;vector-effect:none;fill:none;fill-opacity:1;stroke:#323232;stroke-width:.543422;stroke-linecap:butt;stroke-linejoin:miter;stroke-miterlimit:4;stroke-dasharray:none;stroke-dashoffset:0;stroke-opacity:1;-inkscape-stroke:none;paint-order:fill markers stroke;stop-color:#000;stop-opacity:1"/><path d="M28.723276 4.982549c.551985.598307.544265.582868.633043.617612.08878.03474.440045.470925.536545.436184.0965-.034738.393726-.347404.467065-.436183.07335-.088777.111939-.104225.04632-.177563-.06561-.073347-.1544-.131243-.127379-.196864.02702-.06562-.03088-.162122-.108083-.308802-.077201-.14668-.104221-.274064-.243183-.451625-.138959-.177564-.285643-.362845-.285643-.362845Z" style="font-variation-settings:normal;opacity:1;vector-effect:none;fill:#323232;fill-opacity:1;stroke:none;stroke-width:.543422;stroke-linecap:butt;stroke-linejoin:miter;stroke-miterlimit:4;stroke-dasharray:none;stroke-dashoffset:0;stroke-opacity:1;-inkscape-stroke:none;paint-order:fill markers stroke;stop-color:#000;stop-opacity:1"/><path d="M29.136301 5.12537 24.80533 9.456342" style="font-variation-settings:normal;opacity:1;fill:none;fill-opacity:1;stroke:#323232;stroke-width:.339639;stroke-linecap:butt;stroke-linejoin:miter;stroke-miterlimit:4;stroke-dasharray:none;stroke-dashoffset:0;stroke-opacity:1;paint-order:fill markers stroke;stop-color:#000;stop-opacity:1"/><path d="M24.454341 9.299927c.136473-.070966.363017-.019106.363017-.019106l.398501-.398502s-.03821-.054588-.03548-.111908c.0027-.057319.01091-.147391.01091-.147391z" style="font-variation-settings:normal;opacity:1;vector-effect:none;fill:#323232;fill-opacity:1;stroke:none;stroke-width:.543422;stroke-linecap:butt;stroke-linejoin:miter;stroke-miterlimit:4;stroke-dasharray:none;stroke-dashoffset:0;stroke-opacity:1;-inkscape-stroke:none;paint-order:fill markers stroke;stop-color:#000;stop-opacity:1"/><path d="m28.736868 5.579667.193793.193792" style="font-variation-settings:normal;opacity:1;fill:none;fill-opacity:1;stroke:#323232;stroke-width:.339639;stroke-linecap:butt;stroke-linejoin:miter;stroke-miterlimit:4;stroke-dasharray:none;stroke-dashoffset:0;stroke-opacity:1;paint-order:fill markers stroke;stop-color:#000;stop-opacity:1"/><path d="m28.334273 5.982262.193793.193792M25.9187 8.397836l.193792.193792" style="font-variation-settings:normal;fill:none;fill-opacity:1;stroke:#323232;stroke-width:.339639;stroke-linecap:butt;stroke-linejoin:miter;stroke-miterlimit:4;stroke-dasharray:none;stroke-dashoffset:0;stroke-opacity:1;paint-order:fill markers stroke;stop-color:#000"/><path d="m24.832827 9.483839.130951.13095.197624-.071982.668568-.668568-.193771-.193771Z" style="color:#000;fill:#323232;stroke-width:.128368;-inkscape-stroke:none;paint-order:fill markers stroke"/><path d="m26.86335 8.257354 1.304694-1.304695s.277923.617606.455485.764287c.177563.146682.79517.70253 1.64438 1.598059.849209.89553 1.256501 1.50729 1.256501 1.50729l-.785028.785028s-.577682-.178887-1.581294-1.182498c-1.003611-1.003612-1.279956-1.440408-1.507291-1.719706-.270202-.331964-.439802-.24969-.787447-.447765Z" style="font-variation-settings:normal;opacity:1;vector-effect:none;fill:#fff;fill-opacity:1;stroke:#323232;stroke-width:.543422;stroke-linecap:butt;stroke-linejoin:miter;stroke-miterlimit:4;stroke-dasharray:none;stroke-dashoffset:0;stroke-opacity:1;-inkscape-stroke:none;paint-order:fill markers stroke;stop-color:#000;stop-opacity:1"/><path d="m30.41003 11.390695.922559-.922559M27.620517 8.612102c.606034-.14206.780986-.566554.977148-.977149" style="font-variation-settings:normal;opacity:1;vector-effect:none;fill:none;fill-opacity:1;stroke:#323232;stroke-width:.543422;stroke-linecap:butt;stroke-linejoin:miter;stroke-miterlimit:4;stroke-dasharray:none;stroke-dashoffset:0;stroke-opacity:1;-inkscape-stroke:none;paint-order:fill markers stroke;stop-color:#000;stop-opacity:1"/></svg>