<?xml version="1.0" encoding="UTF-8" standalone="no"?>
<!-- Created with Inkscape (http://www.inkscape.org/) -->

<svg
   width="128"
   height="128"
   viewBox="0 0 33.866666 33.866667"
   version="1.1"
   id="svg5"
   inkscape:version="1.4.4 (dcaf3e7, 2026-05-05)"
   sodipodi:docname="loot-weapon-ash12.svg"
   xmlns:inkscape="http://www.inkscape.org/namespaces/inkscape"
   xmlns:sodipodi="http://sodipodi.sourceforge.net/DTD/sodipodi-0.dtd"
   xmlns="http://www.w3.org/2000/svg"
   xmlns:svg="http://www.w3.org/2000/svg">
  <sodipodi:namedview
     id="namedview7"
     pagecolor="#ffffff"
     bordercolor="#999999"
     borderopacity="1"
     inkscape:pageshadow="0"
     inkscape:pageopacity="0"
     inkscape:pagecheckerboard="true"
     inkscape:document-units="px"
     showgrid="false"
     units="px"
     inkscape:zoom="6.4070145"
     inkscape:cx="47.057799"
     inkscape:cy="51.115851"
     inkscape:window-width="2560"
     inkscape:window-height="1377"
     inkscape:window-x="-8"
     inkscape:window-y="-8"
     inkscape:window-maximized="1"
     inkscape:current-layer="layer1"
     inkscape:showpageshadow="0"
     inkscape:deskcolor="#d1d1d1" />
  <defs
     id="defs2" />
  <g
     inkscape:label="Layer 1"
     inkscape:groupmode="layer"
     id="layer1">
    <path
       style="font-variation-settings:normal;opacity:1;vector-effect:none;fill:#ffffff;fill-opacity:1;stroke:#323232;stroke-width:0.559991;stroke-linecap:butt;stroke-linejoin:miter;stroke-miterlimit:4;stroke-dasharray:none;stroke-dashoffset:0;stroke-opacity:1;-inkscape-stroke:none;paint-order:fill markers stroke;stop-color:#000000;stop-opacity:1"
       d="m 3.1532584,27.923703 c 2.4582019,1.911939 3.5725899,3.397791 3.8566495,3.812953 0.2840591,0.415162 0.5244152,0.589967 0.7429229,0.04371 0.2185084,-0.546269 1.2017878,-1.660657 1.4093716,-1.890089 0.20758,-0.22943 1.3001186,-1.300118 1.4093726,-1.409372 0.109253,-0.109248 0.109247,-0.19666 -0.03277,-0.622739 -0.142033,-0.426092 -0.5845094,-1.513167 -0.158417,-2.463673 0.426087,-0.950501 1.758983,-1.463993 2.22877,-1.715273 0.469789,-0.251288 1.961102,-0.868568 1.961102,-0.868568 l 1.229107,-1.447614 c 0,0 0.142017,-0.10925 0.07101,-0.333221 -0.07101,-0.223967 -0.573583,-1.666117 -0.562652,-1.86277 0.01094,-0.19666 0.03824,-0.322297 0.174804,-0.458865 l 4.47563,-4.475635 1.178239,-0.899634 0.357805,-0.357804 c 0,0 0.158419,-0.174809 0.344151,-0.131109 0.185723,0.04371 0.344145,0.131103 0.420621,0.05465 L 28.956218,6.2014074 26.210115,3.4553045 4.6817078,24.983706 4.6336458,24.935644 c 0,0 -0.7538651,0.764754 -1.108921,1.163552 -0.3550711,0.39877 -0.7156122,0.74292 -0.8521736,0.966894 -0.1365605,0.223973 -0.019119,0.43428 0.4807189,0.857637 z"
       id="path986"
       sodipodi:nodetypes="csssssssccssscccssccccssc" />
    <path
       style="font-variation-settings:normal;opacity:1;vector-effect:none;fill:#ffffff;fill-opacity:1;stroke:#323232;stroke-width:0.559991;stroke-linecap:butt;stroke-linejoin:miter;stroke-miterlimit:4;stroke-dasharray:none;stroke-dashoffset:0;stroke-opacity:1;-inkscape-stroke:none;paint-order:fill markers stroke;stop-color:#000000;stop-opacity:1"
       d="m 18.46779,16.875364 1.851847,-1.851846 0.674724,0.674719 c 0,0 0.18573,0.18573 0.08193,0.355076 -0.10379,0.169339 -0.06009,0.365999 0.05465,0.666448 0.114718,0.300448 0.983279,2.829667 0.983279,2.829667 0,0 0.04371,0.142026 0.147498,0.147491 0.103789,0.0053 0.551729,0.202119 0.202118,0.420627 -0.349608,0.21851 -1.518626,0.688295 -1.829998,0.748381 -0.311372,0.06009 -0.775701,0.316839 -0.895881,-0.262203 -0.120177,-0.579043 -0.731992,-2.982624 -0.824862,-3.283073 -0.09286,-0.300442 -0.445287,-0.445287 -0.445287,-0.445287 z"
       id="path990"
       sodipodi:nodetypes="cccsscsssssc" />
    <path
       style="font-variation-settings:normal;opacity:1;vector-effect:none;fill:#ffffff;fill-opacity:1;stroke:#323232;stroke-width:0.559991;stroke-linecap:butt;stroke-linejoin:miter;stroke-miterlimit:4;stroke-dasharray:none;stroke-dashoffset:0;stroke-opacity:1;-inkscape-stroke:none;paint-order:fill markers stroke;stop-color:#000000;stop-opacity:1"
       d="m 14.648714,23.69306 0.464489,-0.212661 1.47824,-1.740445 c 0,0 0.287651,-0.372391 0.123766,-0.864037 -0.16388,-0.491637 -0.308172,-0.919994 -0.308172,-0.919994 0,0 1.052972,0.718817 1.774042,1.19953 0.721075,0.480718 1.649733,1.04883 1.649733,1.04883 l -2.037582,3.446953 c 0,0 -0.775696,-0.327761 -1.802684,-0.983285 -1.026982,-0.655518 -1.341832,-0.974891 -1.341832,-0.974891 z"
       id="path1238"
       sodipodi:nodetypes="cccscsccsc" />
    <path
       style="font-variation-settings:normal;opacity:1;vector-effect:none;fill:none;fill-opacity:1;stroke:#323232;stroke-width:0.559991;stroke-linecap:butt;stroke-linejoin:miter;stroke-miterlimit:4;stroke-dasharray:none;stroke-dashoffset:0;stroke-opacity:1;-inkscape-stroke:none;paint-order:fill markers stroke;stop-color:#000000;stop-opacity:1"
       d="m 3.3183278,26.347039 c 3.4300755,3.012902 5.1605611,4.202619 5.1605611,4.202619"
       id="path3266" />
    <path
       style="font-variation-settings:normal;opacity:1;vector-effect:none;fill:#ffffff;fill-opacity:1;stroke:#323232;stroke-width:0.559991;stroke-linecap:butt;stroke-linejoin:miter;stroke-miterlimit:4;stroke-dasharray:none;stroke-dashoffset:0;stroke-opacity:1;-inkscape-stroke:none;paint-order:fill markers stroke;stop-color:#000000;stop-opacity:1"
       d="m 12.838582,15.714627 1.338356,-1.338356 -0.480713,-0.480712 c 0,0 -0.240362,-0.262211 -0.0053,-0.497102 l 4.081716,-4.0817235 c 0,0 0.288038,-0.2443248 0.544782,0.01241 l 0.453404,0.453399 0.587979,-0.587984 -1.513161,-1.5131602 -4.258509,4.2585117 0.05259,0.322807 c 0,0 -0.0041,0.08799 -0.151666,0.235488 l -1.037908,1.037907 c 0,0 -0.171492,0.254592 -0.390001,-0.07316 -0.218511,-0.327759 -0.35761,-0.425039 -0.35761,-0.425039 0,0 -0.101044,-0.09015 -0.191194,0 l -0.308644,0.308644 c 0,0 -0.0792,0.06282 0.01365,0.221237 0.09285,0.158428 0.966897,1.480388 1.087069,1.61149 0.120198,0.131087 0.535162,0.535342 0.535162,0.535342 z"
       id="path4229"
       sodipodi:nodetypes="cccscscccccscscscsscc" />
    <path
       id="path5450"
       style="font-variation-settings:normal;opacity:1;fill:#323232;fill-opacity:1;stroke:none;stroke-width:0.0699991;stroke-linecap:butt;stroke-linejoin:miter;stroke-miterlimit:4;stroke-dasharray:none;stroke-dashoffset:0;stroke-opacity:1;paint-order:fill markers stroke;stop-color:#000000;stop-opacity:1"
       d="m 27.238856,3.7238566 0.04077,0.04077 -0.06383,0.063829 1.162233,1.1622325 0.06383,-0.063832 0.04977,0.049766 1.472546,-1.4725463 -1.252767,-1.2527613 z m 0.373888,0.1382973 0.491455,-0.4914547 0.697209,0.6972087 -0.491454,0.4914484 z m 0.71937,-0.7193694 0.451234,-0.4512338 0.697208,0.6972087 -0.451233,0.4512338 z"
       sodipodi:nodetypes="ccccccccccccccccccc" />
    <path
       id="rect8888"
       style="fill:#323232;stroke:#323232;stroke-width:0.0699991;stroke-linecap:round;stroke-linejoin:round"
       d="m 11.171188,19.892479 2.203951,-2.203952 c 0.07751,-0.07752 0.268149,-0.222229 0.521374,0.031 0.244104,0.244108 0.109055,0.44331 0.031,0.521368 l -2.203951,2.20395 z"
       sodipodi:nodetypes="ccsccc" />
    <path
       style="font-variation-settings:normal;opacity:1;vector-effect:none;fill:none;fill-opacity:1;stroke:#323232;stroke-width:0.559991;stroke-linecap:butt;stroke-linejoin:miter;stroke-miterlimit:4;stroke-dasharray:none;stroke-dashoffset:0;stroke-opacity:1;-inkscape-stroke:none;paint-order:fill markers stroke;stop-color:#000000;stop-opacity:1"
       d="m 4.8903855,27.508542 6.3214475,-6.32144 0.262205,0.262209 0.648934,-0.648934 3.064564,-3.064558 c 0,0 0.262202,-0.229435 0.05465,-0.437016 -0.207589,-0.207579 -0.31682,-0.30593 -0.131108,-0.491643 L 27.333268,4.5849762"
       id="path10678"
       sodipodi:nodetypes="cccscssc" />
    <rect
       style="fill:#323232;fill-opacity:1;stroke:#ffffff;stroke-width:0.279996;stroke-linecap:round;stroke-linejoin:round;stroke-miterlimit:4;stroke-dasharray:none;stroke-opacity:1"
       id="rect10352"
       width="3.7548683"
       height="1.0498391"
       x="-6.3252568"
       y="22.928368"
       transform="rotate(-45)" />
    <path
       style="font-variation-settings:normal;opacity:1;fill:none;fill-opacity:1;stroke:#323232;stroke-width:0.349994;stroke-linecap:butt;stroke-linejoin:miter;stroke-miterlimit:4;stroke-dasharray:none;stroke-dashoffset:0;stroke-opacity:1;paint-order:fill markers stroke;stop-color:#000000;stop-opacity:1"
       d="m 21.240177,15.862118 1.297388,-1.297383 c 0,0 0.202101,-0.191211 0.210313,-0.488912 0.0082,-0.297713 -0.07648,-0.475253 -0.256746,-0.655519 L 21.851998,12.78117"
       id="path12003"
       sodipodi:nodetypes="ccssc" />
    <path
       style="font-variation-settings:normal;opacity:1;fill:#323232;fill-opacity:1;stroke:#323232;stroke-width:0.0699991;stroke-linecap:butt;stroke-linejoin:round;stroke-miterlimit:4;stroke-dasharray:none;stroke-dashoffset:0;stroke-opacity:1;paint-order:fill markers stroke;stop-color:#000000;stop-opacity:1"
       d="m 20.988896,13.611494 c 0.234893,1.218182 1.080423,0.938783 1.080423,0.938783 -0.141285,0.237169 -0.408898,0.157061 -0.563124,0.124237 -0.390585,-0.08468 -0.894221,-0.735259 -0.894221,-0.735259 z"
       id="path12483"
       sodipodi:nodetypes="ccccc" />
    <path
       style="font-variation-settings:normal;opacity:1;vector-effect:none;fill:none;fill-opacity:1;stroke:#323232;stroke-width:0.559991;stroke-linecap:butt;stroke-linejoin:miter;stroke-miterlimit:4;stroke-dasharray:none;stroke-dashoffset:0;stroke-opacity:1;-inkscape-stroke:none;paint-order:fill markers stroke;stop-color:#000000;stop-opacity:1"
       d="m 16.783684,21.240558 c 1.64551,1.166537 2.595729,1.637786 2.595729,1.637786"
       id="path14525" />
    <path
       style="font-variation-settings:normal;opacity:1;fill:#323232;fill-opacity:1;stroke:#323232;stroke-width:0.139997;stroke-linecap:butt;stroke-linejoin:miter;stroke-miterlimit:4;stroke-dasharray:none;stroke-dashoffset:0;stroke-opacity:1;paint-order:fill markers stroke;stop-color:#000000;stop-opacity:1"
       d="m 21.398599,9.2959855 c 0.748382,-0.7483893 0.748382,-0.7483893 0.748382,-0.7483893 0,0 0.07923,-0.090117 -0.101058,-0.2048481 C 21.86565,8.2280384 21.548821,8.0040623 21.406786,7.7637019 21.264763,7.5233485 21.177354,7.3813183 21.062642,7.3048362 c -0.114714,-0.076474 -0.207583,0.032767 -0.300448,0.1256437 -0.09286,0.092865 -0.11745,0.1611496 -0.09014,0.3414209 0.0273,0.1802648 0.139297,0.7620433 0.18027,0.9341128 0.04094,0.1720772 0.215778,0.4124309 0.319567,0.5162259 0.103789,0.103789 0.1748,0.125642 0.226702,0.07375 z"
       id="path14640" />
    <path
       style="font-variation-settings:normal;opacity:1;fill:none;fill-opacity:1;stroke:#323232;stroke-width:0.559991;stroke-linecap:butt;stroke-linejoin:miter;stroke-miterlimit:4;stroke-dasharray:none;stroke-dashoffset:0;stroke-opacity:1;paint-order:fill markers stroke;stop-color:#000000;stop-opacity:1"
       d="m 15.002542,15.764536 0.91227,-0.912264"
       id="path14930" />
    <path
       style="font-variation-settings:normal;opacity:1;fill:none;fill-opacity:1;stroke:#323232;stroke-width:0.349994;stroke-linecap:butt;stroke-linejoin:miter;stroke-miterlimit:4;stroke-dasharray:none;stroke-dashoffset:0;stroke-opacity:1;paint-order:fill markers stroke;stop-color:#000000;stop-opacity:1"
       d="M 15.892376,14.911452 22.445625,8.3582083"
       id="path14932"
       sodipodi:nodetypes="cc" />
    <path
       style="font-variation-settings:normal;opacity:1;fill:none;fill-opacity:1;stroke:#323232;stroke-width:0.279996;stroke-linecap:butt;stroke-linejoin:miter;stroke-miterlimit:4;stroke-dasharray:none;stroke-dashoffset:0;stroke-opacity:1;paint-order:fill markers stroke;stop-color:#000000;stop-opacity:1"
       d="M 21.432437,9.6428195 C 22.413564,8.6616921 22.413564,8.6616921 22.413564,8.6616921"
       id="path15302" />
    <path
       style="font-variation-settings:normal;opacity:1;fill:none;fill-opacity:1;stroke:#323232;stroke-width:0.419994;stroke-linecap:round;stroke-linejoin:miter;stroke-miterlimit:4;stroke-dasharray:none;stroke-dashoffset:0;stroke-opacity:1;paint-order:fill markers stroke;stop-color:#000000;stop-opacity:1"
       d="M 23.380665,7.3961591 C 23.894399,6.8824212 23.894399,6.8824212 23.894399,6.8824212"
       id="path15417" />
    <path
       style="font-variation-settings:normal;fill:none;fill-opacity:1;stroke:#323232;stroke-width:0.419994;stroke-linecap:round;stroke-linejoin:miter;stroke-miterlimit:4;stroke-dasharray:none;stroke-dashoffset:0;stroke-opacity:1;paint-order:fill markers stroke;stop-color:#000000"
       d="M 24.485395,6.2914306 C 24.999132,5.7776921 24.999132,5.7776921 24.999132,5.7776921"
       id="path15417-7" />
    <path
       style="font-variation-settings:normal;fill:none;fill-opacity:1;stroke:#323232;stroke-width:0.419994;stroke-linecap:round;stroke-linejoin:miter;stroke-miterlimit:4;stroke-dasharray:none;stroke-dashoffset:0;stroke-opacity:1;paint-order:fill markers stroke;stop-color:#000000"
       d="M 25.590128,5.1866957 C 26.103862,4.6729579 26.103862,4.6729579 26.103862,4.6729579"
       id="path15417-7-1" />
    <path
       style="font-variation-settings:normal;opacity:1;fill:none;fill-opacity:1;stroke:#323232;stroke-width:0.349994;stroke-linecap:butt;stroke-linejoin:miter;stroke-miterlimit:4;stroke-dasharray:none;stroke-dashoffset:0;stroke-opacity:1;paint-order:fill markers stroke;stop-color:#000000;stop-opacity:1"
       d="M 15.094665,14.332568 C 14.824266,14.062169 14.824266,14.062169 14.824266,14.062169"
       id="path15869" />
    <path
       style="font-variation-settings:normal;fill:none;fill-opacity:1;stroke:#323232;stroke-width:0.349994;stroke-linecap:butt;stroke-linejoin:miter;stroke-miterlimit:4;stroke-dasharray:none;stroke-dashoffset:0;stroke-opacity:1;paint-order:fill markers stroke;stop-color:#000000"
       d="M 15.553535,13.873704 C 15.283131,13.603305 15.283131,13.603305 15.283131,13.603305"
       id="path15869-8" />
    <path
       style="font-variation-settings:normal;fill:none;fill-opacity:1;stroke:#323232;stroke-width:0.349994;stroke-linecap:butt;stroke-linejoin:miter;stroke-miterlimit:4;stroke-dasharray:none;stroke-dashoffset:0;stroke-opacity:1;paint-order:fill markers stroke;stop-color:#000000"
       d="m 16.012395,13.414846 c -0.2704,-0.270405 -0.2704,-0.270405 -0.2704,-0.270405"
       id="path15869-8-2" />
    <path
       style="font-variation-settings:normal;fill:none;fill-opacity:1;stroke:#323232;stroke-width:0.349994;stroke-linecap:butt;stroke-linejoin:miter;stroke-miterlimit:4;stroke-dasharray:none;stroke-dashoffset:0;stroke-opacity:1;paint-order:fill markers stroke;stop-color:#000000"
       d="M 16.471258,12.955975 C 16.20086,12.685576 16.20086,12.685576 16.20086,12.685576"
       id="path15869-8-0" />
    <path
       style="font-variation-settings:normal;fill:none;fill-opacity:1;stroke:#323232;stroke-width:0.349994;stroke-linecap:butt;stroke-linejoin:miter;stroke-miterlimit:4;stroke-dasharray:none;stroke-dashoffset:0;stroke-opacity:1;paint-order:fill markers stroke;stop-color:#000000"
       d="m 16.930129,12.497112 c -0.270406,-0.2704 -0.270406,-0.2704 -0.270406,-0.2704"
       id="path15869-8-2-8" />
    <path
       style="font-variation-settings:normal;fill:none;fill-opacity:1;stroke:#323232;stroke-width:0.349994;stroke-linecap:butt;stroke-linejoin:miter;stroke-miterlimit:4;stroke-dasharray:none;stroke-dashoffset:0;stroke-opacity:1;paint-order:fill markers stroke;stop-color:#000000"
       d="M 17.388994,12.038247 C 17.118587,11.767848 17.118587,11.767848 17.118587,11.767848"
       id="path15869-8-5" />
    <path
       style="font-variation-settings:normal;fill:none;fill-opacity:1;stroke:#323232;stroke-width:0.349994;stroke-linecap:butt;stroke-linejoin:miter;stroke-miterlimit:4;stroke-dasharray:none;stroke-dashoffset:0;stroke-opacity:1;paint-order:fill markers stroke;stop-color:#000000"
       d="M 17.847858,11.579383 C 17.577452,11.308977 17.577452,11.308977 17.577452,11.308977"
       id="path15869-8-2-3" />
    <path
       style="font-variation-settings:normal;fill:none;fill-opacity:1;stroke:#323232;stroke-width:0.349994;stroke-linecap:butt;stroke-linejoin:miter;stroke-miterlimit:4;stroke-dasharray:none;stroke-dashoffset:0;stroke-opacity:1;paint-order:fill markers stroke;stop-color:#000000"
       d="M 18.306721,11.120519 C 18.036317,10.850113 18.036317,10.850113 18.036317,10.850113"
       id="path15869-8-0-2" />
    <path
       style="font-variation-settings:normal;fill:none;fill-opacity:1;stroke:#323232;stroke-width:0.349994;stroke-linecap:butt;stroke-linejoin:miter;stroke-miterlimit:4;stroke-dasharray:none;stroke-dashoffset:0;stroke-opacity:1;paint-order:fill markers stroke;stop-color:#000000"
       d="M 18.765586,10.661654 C 18.495181,10.391249 18.495181,10.391249 18.495181,10.391249"
       id="path15869-8-2-8-7" />
    <path
       style="font-variation-settings:normal;fill:none;fill-opacity:1;stroke:#323232;stroke-width:0.349994;stroke-linecap:butt;stroke-linejoin:miter;stroke-miterlimit:4;stroke-dasharray:none;stroke-dashoffset:0;stroke-opacity:1;paint-order:fill markers stroke;stop-color:#000000"
       d="m 20.223296,9.2039445 c -0.2704,-0.2704002 -0.2704,-0.2704002 -0.2704,-0.2704002"
       id="path15869-8-0-5" />
    <path
       style="font-variation-settings:normal;fill:none;fill-opacity:1;stroke:#323232;stroke-width:0.349994;stroke-linecap:butt;stroke-linejoin:miter;stroke-miterlimit:4;stroke-dasharray:none;stroke-dashoffset:0;stroke-opacity:1;paint-order:fill markers stroke;stop-color:#000000"
       d="M 20.68216,8.7450791 C 20.411761,8.4746744 20.411761,8.4746744 20.411761,8.4746744"
       id="path15869-8-2-8-0" />
    <path
       style="font-variation-settings:normal;fill:none;fill-opacity:1;stroke:#323232;stroke-width:0.349994;stroke-linecap:butt;stroke-linejoin:miter;stroke-miterlimit:4;stroke-dasharray:none;stroke-dashoffset:0;stroke-opacity:1;paint-order:fill markers stroke;stop-color:#000000"
       d="M 17.20117,8.0875851 C 16.930771,7.8171803 16.930771,7.8171803 16.930771,7.8171803"
       id="path15869-8-0-5-6" />
    <path
       style="font-variation-settings:normal;fill:none;fill-opacity:1;stroke:#323232;stroke-width:0.349994;stroke-linecap:butt;stroke-linejoin:miter;stroke-miterlimit:4;stroke-dasharray:none;stroke-dashoffset:0;stroke-opacity:1;paint-order:fill markers stroke;stop-color:#000000"
       d="m 17.660034,7.6287208 c -0.2704,-0.2704054 -0.2704,-0.2704054 -0.2704,-0.2704054"
       id="path15869-8-2-8-0-1" />
    <path
       style="font-variation-settings:normal;fill:none;fill-opacity:1;stroke:#323232;stroke-width:0.349994;stroke-linecap:butt;stroke-linejoin:miter;stroke-miterlimit:4;stroke-dasharray:none;stroke-dashoffset:0;stroke-opacity:1;paint-order:fill markers stroke;stop-color:#000000"
       d="M 16.742311,8.5464493 C 16.471906,8.2760439 16.471906,8.2760439 16.471906,8.2760439"
       id="path15869-8-0-5-6-4" />
    <path
       style="font-variation-settings:normal;fill:none;fill-opacity:1;stroke:#323232;stroke-width:0.349994;stroke-linecap:butt;stroke-linejoin:miter;stroke-miterlimit:4;stroke-dasharray:none;stroke-dashoffset:0;stroke-opacity:1;paint-order:fill markers stroke;stop-color:#000000"
       d="M 16.283446,9.0053142 C 16.013041,8.7349144 16.013041,8.7349144 16.013041,8.7349144"
       id="path15869-8-0-5-6-8" />
    <path
       style="font-variation-settings:normal;fill:none;fill-opacity:1;stroke:#323232;stroke-width:0.349994;stroke-linecap:butt;stroke-linejoin:miter;stroke-miterlimit:4;stroke-dasharray:none;stroke-dashoffset:0;stroke-opacity:1;paint-order:fill markers stroke;stop-color:#000000"
       d="M 15.824583,9.4641775 C 15.554178,9.1937785 15.554178,9.1937785 15.554178,9.1937785"
       id="path15869-8-0-5-6-4-0" />
    <path
       style="font-variation-settings:normal;fill:none;fill-opacity:1;stroke:#323232;stroke-width:0.349994;stroke-linecap:butt;stroke-linejoin:miter;stroke-miterlimit:4;stroke-dasharray:none;stroke-dashoffset:0;stroke-opacity:1;paint-order:fill markers stroke;stop-color:#000000"
       d="M 15.365718,9.9230485 C 15.095312,9.6526425 15.095312,9.6526425 15.095312,9.6526425"
       id="path15869-8-0-5-6-8-8" />
    <path
       style="font-variation-settings:normal;fill:none;fill-opacity:1;stroke:#323232;stroke-width:0.349994;stroke-linecap:butt;stroke-linejoin:miter;stroke-miterlimit:4;stroke-dasharray:none;stroke-dashoffset:0;stroke-opacity:1;paint-order:fill markers stroke;stop-color:#000000"
       d="M 14.906854,10.381913 C 14.636448,10.111508 14.636448,10.111508 14.636448,10.111508"
       id="path15869-8-0-5-6-4-0-8" />
    <path
       style="font-variation-settings:normal;fill:none;fill-opacity:1;stroke:#323232;stroke-width:0.349994;stroke-linecap:butt;stroke-linejoin:miter;stroke-miterlimit:4;stroke-dasharray:none;stroke-dashoffset:0;stroke-opacity:1;paint-order:fill markers stroke;stop-color:#000000"
       d="M 21.596029,7.8312108 C 21.325625,7.5608103 21.325625,7.5608103 21.325625,7.5608103"
       id="path15869-8-2-3-4" />
    <path
       style="font-variation-settings:normal;fill:none;fill-opacity:1;stroke:#323232;stroke-width:0.349994;stroke-linecap:butt;stroke-linejoin:miter;stroke-miterlimit:4;stroke-dasharray:none;stroke-dashoffset:0;stroke-opacity:1;paint-order:fill markers stroke;stop-color:#000000"
       d="M 22.058752,7.3684864 C 21.788353,7.0980817 21.788353,7.0980817 21.788353,7.0980817"
       id="path15869-8-0-2-9" />
    <path
       style="font-variation-settings:normal;fill:none;fill-opacity:1;stroke:#323232;stroke-width:0.349994;stroke-linecap:butt;stroke-linejoin:miter;stroke-miterlimit:4;stroke-dasharray:none;stroke-dashoffset:0;stroke-opacity:1;paint-order:fill markers stroke;stop-color:#000000"
       d="M 22.517616,6.9096166 C 22.247217,6.6392175 22.247217,6.6392175 22.247217,6.6392175"
       id="path15869-8-2-8-7-0" />
    <path
       style="font-variation-settings:normal;fill:none;fill-opacity:1;stroke:#323232;stroke-width:0.349994;stroke-linecap:butt;stroke-linejoin:miter;stroke-miterlimit:4;stroke-dasharray:none;stroke-dashoffset:0;stroke-opacity:1;paint-order:fill markers stroke;stop-color:#000000"
       d="M 22.976488,6.4507524 C 22.706082,6.1803533 22.706082,6.1803533 22.706082,6.1803533"
       id="path15869-8-2-8-0-7" />
    <path
       style="font-variation-settings:normal;fill:none;fill-opacity:1;stroke:#323232;stroke-width:0.349994;stroke-linecap:butt;stroke-linejoin:miter;stroke-miterlimit:4;stroke-dasharray:none;stroke-dashoffset:0;stroke-opacity:1;paint-order:fill markers stroke;stop-color:#000000"
       d="M 23.435345,5.9918881 C 23.164947,5.7214884 23.164947,5.7214884 23.164947,5.7214884"
       id="path15869-8-2-8-0-7-7" />
    <path
       style="font-variation-settings:normal;fill:none;fill-opacity:1;stroke:#323232;stroke-width:0.349994;stroke-linecap:butt;stroke-linejoin:miter;stroke-miterlimit:4;stroke-dasharray:none;stroke-dashoffset:0;stroke-opacity:1;paint-order:fill markers stroke;stop-color:#000000"
       d="M 23.89035,5.5368883 C 23.619946,5.2664836 23.619946,5.2664836 23.619946,5.2664836"
       id="path15869-8-2-3-4-1" />
    <path
       style="font-variation-settings:normal;fill:none;fill-opacity:1;stroke:#323232;stroke-width:0.349994;stroke-linecap:butt;stroke-linejoin:miter;stroke-miterlimit:4;stroke-dasharray:none;stroke-dashoffset:0;stroke-opacity:1;paint-order:fill markers stroke;stop-color:#000000"
       d="M 24.353079,5.0741597 C 24.082674,4.8037607 24.082674,4.8037607 24.082674,4.8037607"
       id="path15869-8-0-2-9-4" />
    <path
       style="font-variation-settings:normal;fill:none;fill-opacity:1;stroke:#323232;stroke-width:0.349994;stroke-linecap:butt;stroke-linejoin:miter;stroke-miterlimit:4;stroke-dasharray:none;stroke-dashoffset:0;stroke-opacity:1;paint-order:fill markers stroke;stop-color:#000000"
       d="M 24.811945,4.6152955 C 24.541538,4.3448901 24.541538,4.3448901 24.541538,4.3448901"
       id="path15869-8-2-8-7-0-4" />
    <path
       style="font-variation-settings:normal;fill:none;fill-opacity:1;stroke:#323232;stroke-width:0.559991;stroke-linecap:butt;stroke-linejoin:miter;stroke-miterlimit:4;stroke-dasharray:none;stroke-dashoffset:0;stroke-opacity:1;paint-order:fill markers stroke;stop-color:#000000"
       d="M 25.088056,3.8693898 24.888954,3.6702826"
       id="path15869-8-2-8-7-0-4-5"
       sodipodi:nodetypes="cc" />
    <path
       style="font-variation-settings:normal;opacity:1;vector-effect:none;fill:#323232;fill-opacity:1;stroke:none;stroke-width:0.559991;stroke-linecap:butt;stroke-linejoin:miter;stroke-miterlimit:4;stroke-dasharray:none;stroke-dashoffset:0;stroke-opacity:1;-inkscape-stroke:none;paint-order:fill markers stroke;stop-color:#000000;stop-opacity:1"
       d="M 25.151453,3.8059976 25.675869,3.2815761 23.987904,1.5936104 c 0,0 -0.193432,-0.216823 -0.323555,-0.0867 l -0.32678,0.3267795 c 0,0 -0.114435,0.1641591 0.02488,0.3034542 l 1.204516,1.2045239 0.117451,-0.01912 z"
       id="path18087"
       sodipodi:nodetypes="cccscsccc" />
    <path
       style="font-variation-settings:normal;fill:none;fill-opacity:1;stroke:#323232;stroke-width:0.349994;stroke-linecap:butt;stroke-linejoin:miter;stroke-miterlimit:4;stroke-dasharray:none;stroke-dashoffset:0;stroke-opacity:1;paint-order:fill markers stroke;stop-color:#000000"
       d="m 23.199578,12.196145 c 0.270405,0.270406 0.270405,0.270406 0.270405,0.270406"
       id="path15869-8-2-8-7-0-4-4" />
    <path
       style="font-variation-settings:normal;fill:none;fill-opacity:1;stroke:#323232;stroke-width:0.349994;stroke-linecap:butt;stroke-linejoin:miter;stroke-miterlimit:4;stroke-dasharray:none;stroke-dashoffset:0;stroke-opacity:1;paint-order:fill markers stroke;stop-color:#000000"
       d="m 23.928841,12.007681 c -0.2704,-0.2704 -0.2704,-0.2704 -0.2704,-0.2704"
       id="path15869-8-2-8-0-4" />
    <path
       style="color:#000000;fill:#323232;stroke-width:0.132281;-inkscape-stroke:none;paint-order:fill markers stroke"
       d="m 22.452942,12.942927 0.434546,0.106219 0.247362,-0.247362 -0.270381,-0.270376 z"
       id="path15869-8-2-8-7-0-4-4-1"
       sodipodi:nodetypes="ccccc" />
    <path
       style="font-variation-settings:normal;fill:none;fill-opacity:1;stroke:#323232;stroke-width:0.349994;stroke-linecap:butt;stroke-linejoin:miter;stroke-miterlimit:4;stroke-dasharray:none;stroke-dashoffset:0;stroke-opacity:1;paint-order:fill markers stroke;stop-color:#000000"
       d="M 24.387712,11.548816 C 24.117313,11.278417 24.117313,11.278417 24.117313,11.278417"
       id="path15869-8-2-8-0-4-4" />
    <path
       style="font-variation-settings:normal;fill:none;fill-opacity:1;stroke:#323232;stroke-width:0.349994;stroke-linecap:butt;stroke-linejoin:miter;stroke-miterlimit:4;stroke-dasharray:none;stroke-dashoffset:0;stroke-opacity:1;paint-order:fill markers stroke;stop-color:#000000"
       d="M 24.846575,11.089958 C 24.57617,10.819553 24.57617,10.819553 24.57617,10.819553"
       id="path15869-8-2-8-0-4-2" />
    <path
       style="font-variation-settings:normal;fill:none;fill-opacity:1;stroke:#323232;stroke-width:0.349994;stroke-linecap:butt;stroke-linejoin:miter;stroke-miterlimit:4;stroke-dasharray:none;stroke-dashoffset:0;stroke-opacity:1;paint-order:fill markers stroke;stop-color:#000000"
       d="M 25.305441,10.631094 C 25.03504,10.360688 25.03504,10.360688 25.03504,10.360688"
       id="path15869-8-2-8-0-4-4-0" />
    <path
       style="font-variation-settings:normal;fill:none;fill-opacity:1;stroke:#323232;stroke-width:0.349994;stroke-linecap:butt;stroke-linejoin:miter;stroke-miterlimit:4;stroke-dasharray:none;stroke-dashoffset:0;stroke-opacity:1;paint-order:fill markers stroke;stop-color:#000000"
       d="M 25.764311,10.172228 C 25.493905,9.9018235 25.493905,9.9018235 25.493905,9.9018235"
       id="path15869-8-2-8-0-4-5" />
    <path
       style="font-variation-settings:normal;fill:none;fill-opacity:1;stroke:#323232;stroke-width:0.349994;stroke-linecap:butt;stroke-linejoin:miter;stroke-miterlimit:4;stroke-dasharray:none;stroke-dashoffset:0;stroke-opacity:1;paint-order:fill markers stroke;stop-color:#000000"
       d="M 26.223174,9.7133645 C 25.952769,9.4429595 25.952769,9.4429595 25.952769,9.4429595"
       id="path15869-8-2-8-0-4-4-1" />
    <path
       style="color:#000000;fill:#323232;stroke-width:0.132281;-inkscape-stroke:none;paint-order:fill markers stroke"
       d="M 28.12337,7.2725045 28.393753,7.5428802 29.379068,6.5575651 29.108686,6.287183 Z"
       id="path15869-8-2-8-0-4-4-0-6-8-2"
       sodipodi:nodetypes="ccccc" />
    <path
       style="font-variation-settings:normal;fill:none;fill-opacity:1;stroke:#323232;stroke-width:0.349994;stroke-linecap:butt;stroke-linejoin:miter;stroke-miterlimit:4;stroke-dasharray:none;stroke-dashoffset:0;stroke-opacity:1;paint-order:fill markers stroke;stop-color:#000000"
       d="M 14.447989,10.840777 C 14.177585,10.570378 14.177585,10.570378 14.177585,10.570378"
       id="path15869-8-0-5-6-8-0" />
    <path
       style="color:#000000;fill:#323232;stroke-width:0.132281;-inkscape-stroke:none;paint-order:fill markers stroke"
       d="m 13.186162,11.561835 0.122886,0.417873 0.803861,-0.803862 -0.270382,-0.270376 z"
       id="path15869-8-0-5-6-4-0-0"
       sodipodi:nodetypes="ccccc" />
    <path
       style="font-variation-settings:normal;opacity:1;vector-effect:none;fill:none;fill-opacity:1;stroke:#323232;stroke-width:0.559991;stroke-linecap:butt;stroke-linejoin:miter;stroke-miterlimit:4;stroke-dasharray:none;stroke-dashoffset:0;stroke-opacity:1;-inkscape-stroke:none;paint-order:fill markers stroke;stop-color:#000000;stop-opacity:1"
       d="m 13.459615,12.006569 -1.324901,1.324906"
       id="path21921" />
    <circle
       style="font-variation-settings:normal;opacity:1;vector-effect:none;fill:#323232;fill-opacity:1;fill-rule:evenodd;stroke:none;stroke-width:0.139997;stroke-linecap:round;stroke-linejoin:round;stroke-miterlimit:4;stroke-dasharray:none;stroke-dashoffset:0;stroke-opacity:1;-inkscape-stroke:none;stop-color:#000000;stop-opacity:1"
       id="path22025"
       cx="-0.308166"
       cy="17.780617"
       r="0.24855176"
       transform="rotate(-45)" />
    <circle
       style="font-variation-settings:normal;opacity:1;vector-effect:none;fill:#323232;fill-opacity:1;fill-rule:evenodd;stroke:none;stroke-width:0.139997;stroke-linecap:round;stroke-linejoin:round;stroke-miterlimit:4;stroke-dasharray:none;stroke-dashoffset:0;stroke-opacity:1;-inkscape-stroke:none;stop-color:#000000;stop-opacity:1"
       id="path22129"
       cx="-16.294544"
       cy="20.097862"
       r="0.29742751"
       inkscape:transform-center-x="0.0093816661"
       transform="rotate(-63.164105)"
       inkscape:transform-center-y="0.018539347" />
    <path
       style="font-variation-settings:normal;opacity:1;fill:none;fill-opacity:1;stroke:#323232;stroke-width:0.419994;stroke-linecap:butt;stroke-linejoin:miter;stroke-miterlimit:4;stroke-dasharray:none;stroke-dashoffset:0;stroke-opacity:1;paint-order:fill markers stroke;stop-color:#000000;stop-opacity:1"
       d="m 10.594787,23.595395 -0.434192,0.858231"
       id="path22863"
       inkscape:transform-center-x="0.2091234"
       inkscape:transform-center-y="0.43046213" />
    <path
       style="font-variation-settings:normal;opacity:1;vector-effect:none;fill:none;fill-opacity:1;stroke:#323232;stroke-width:0.559991;stroke-linecap:butt;stroke-linejoin:miter;stroke-miterlimit:4;stroke-dasharray:none;stroke-dashoffset:0;stroke-opacity:1;-inkscape-stroke:none;paint-order:fill markers stroke;stop-color:#000000;stop-opacity:1"
       d="m 10.178902,24.417435 -0.141645,0.279969"
       id="path22978"
       sodipodi:nodetypes="cc"
       inkscape:transform-center-x="0.4787349"
       inkscape:transform-center-y="0.96337114" />
    <path
       id="path23238"
       style="font-variation-settings:normal;opacity:1;fill:#323232;fill-opacity:1;fill-rule:evenodd;stroke:#ffffff;stroke-width:0.139997;stroke-linecap:round;stroke-linejoin:round;stroke-miterlimit:4;stroke-dasharray:none;stroke-dashoffset:0;stroke-opacity:1;stop-color:#000000;stop-opacity:1"
       d="m 19.657571,13.499721 c -0.02424,0.02424 -0.0012,-0.0012 -0.07028,0.07241 l -0.519669,0.519674 c 0,0 -0.122031,0.121843 -0.06,0.245198 0.07672,0.152522 0.264646,0.06567 0.376665,0.0041 0.07295,-0.04024 0.297595,-0.142609 0.465805,-0.232785 0.0059,-0.0029 0.18869,-0.078 0.263256,-0.152607 0.125831,-0.125879 0.125807,-0.329915 -4.8e-5,-0.455765 -0.125861,-0.125807 -0.329862,-0.125808 -0.455722,6e-6 z"
       sodipodi:nodetypes="cccssscccc" />
    <path
       style="font-variation-settings:normal;opacity:1;vector-effect:none;fill:none;fill-opacity:1;stroke:#323232;stroke-width:0.559991;stroke-linecap:butt;stroke-linejoin:miter;stroke-miterlimit:4;stroke-dasharray:none;stroke-dashoffset:0;stroke-opacity:1;-inkscape-stroke:none;paint-order:fill markers stroke;stop-color:#000000;stop-opacity:1"
       d="m 19.819764,12.132324 1.189705,1.189716"
       id="path24998" />
    <path
       style="font-variation-settings:normal;vector-effect:none;fill:#323232;fill-opacity:1;stroke:none;stroke-width:0.559991;stroke-linecap:butt;stroke-linejoin:miter;stroke-miterlimit:4;stroke-dasharray:none;stroke-dashoffset:0;stroke-opacity:1;-inkscape-stroke:none;paint-order:fill markers stroke;stop-color:#000000"
       d="m 2.5972703,27.228948 4.8235402,4.82354 0.8620954,-1.493195 -5.0028045,-4.056885 z"
       id="path26136" />
    <path
       style="font-variation-settings:normal;opacity:1;fill:#ffffff;fill-opacity:1;stroke:#323232;stroke-width:0.560123;stroke-linecap:butt;stroke-linejoin:miter;stroke-miterlimit:4;stroke-dasharray:none;stroke-dashoffset:0;stroke-opacity:1;paint-order:fill markers stroke;stop-color:#000000;stop-opacity:1"
       d="m 26.831212,9.4292355 1.380334,-1.3803341 v 0 c 0.400856,0.3155365 0.417262,0.5165118 0.478285,0.6820391 0.06117,0.1659523 0.526615,0.639993 1.027235,1.047883 0.504294,0.4108855 1.455681,1.5795665 1.455681,1.5795665 -0.292512,0.471462 -0.660735,0.839682 -1.104665,1.104665 0,0 -1.243671,-1.048251 -1.574036,-1.461211 -0.330369,-0.412958 -0.764343,-1.1146205 -1.048252,-1.1404305 -0.29442,-0.02677 -0.614581,-0.43218 -0.614582,-0.432178 z"
       id="path1"
       sodipodi:nodetypes="sccssccsss" />
    <path
       style="font-variation-settings:normal;opacity:1;fill:none;fill-opacity:1;stroke:#323232;stroke-width:0.560123;stroke-linecap:butt;stroke-linejoin:miter;stroke-miterlimit:4;stroke-dasharray:none;stroke-dashoffset:0;stroke-opacity:1;paint-order:fill markers stroke;stop-color:#000000;stop-opacity:1"
       d="m 27.600371,9.8900365 c 0.831358,-0.395124 1.08946,-1.159096 1.08946,-1.159096"
       id="path2" />
  </g>
</svg>
