<svg xmlns="http://www.w3.org/2000/svg" width="128" height="128" viewBox="0 0 33.87 33.87"><path d="M3.45 30.77c2.67 1.77 2.74 1.9 2.97 2.05.24.15.27.18.42-.1s4.19-8.86 4.19-8.86l-1.5-1.07s-.42.5-.84 1.05c-.43.57-.62.9-.97 1.03-.34.12-.56.29-1.03.9-.48.61-3.24 4.06-3.4 4.37-.14.32-.24.37.16.63ZM9.94 22.06l1.57 1.14 7.47-8.12-1.24-1.24 1.2-1.2-.76-.76-8.33 8.48ZM12.26 23.54l1.61-1.75s.2.09.36.36c.16.26.04.75.23 1.27.18.53.32.96.73 1.53.4.56.4.85-.06 1.31s-1.3.37-1.5.2c-.19-.2-.31-.7-.55-1.55-.23-.84-.48-1.16-.82-1.37zM16.37 19.1l1.71-1.88a8 8 0 0 0 6.33.96l.85 2.54s-2.48.79-5.17.1a9.5 9.5 0 0 1-3.72-1.72z" style="font-variation-settings:normal;opacity:1;vector-effect:none;fill:#fff;fill-opacity:1;stroke:#323232;stroke-width:.533605;stroke-linecap:butt;stroke-linejoin:miter;stroke-miterlimit:4;stroke-dasharray:none;stroke-dashoffset:0;stroke-opacity:1;-inkscape-stroke:none;paint-order:fill markers stroke;stop-color:#000;stop-opacity:1"/><path d="m19.72 14.67-.84-.84 1.23-1.23-1.32-1.32s2.68-2.63 2.8-2.72c.11-.08.15-.1.37.1s.81.73 1.09 1.08c.28.34.32.4.26.52-.07.13-2.36 2.82-2.66 3.18-.16.2-.2.4-.35.6-.16.24-.42.48-.58.63z" style="font-variation-settings:normal;opacity:1;vector-effect:none;fill:#fff;fill-opacity:1;stroke:#323232;stroke-width:.533605;stroke-linecap:butt;stroke-linejoin:miter;stroke-miterlimit:4;stroke-dasharray:none;stroke-dashoffset:0;stroke-opacity:1;-inkscape-stroke:none;paint-order:fill markers stroke;stop-color:#000;stop-opacity:1"/><path d="m14.82 19.78.7.7.35-.4c.04-.03.07-.06.2-.1.14-.05.52.25.52.25l-.33-.43c-.07-.09-.78-.73-.78-.73z" style="font-variation-settings:normal;opacity:1;fill:#323232;fill-opacity:1;stroke:#323232;stroke-width:.0667007;stroke-linecap:butt;stroke-linejoin:round;stroke-miterlimit:4;stroke-dasharray:none;stroke-dashoffset:0;stroke-opacity:1;paint-order:fill markers stroke;stop-color:#000;stop-opacity:1"/><path d="M27.34 1.76s-.05.06.03.14c.08.07.25.21.28.2s.1.04.11.23c.02.18.3 1.14.37 1.26.06.11.12.14-.02.28L26.3 5.69s-.08-.04-.17 0c-.1.05-.45.26-.83.22-.38-.03-.66-.2-.77-.08-.12.12-2 2.03-2.05 2.05q-.12.05-.34.27c.27.22.75.67.95.88l.42.48.11-.11-.05-.1 1.94-1.94.2.2-2.1 2.09.1.13 2.22-2.22s.07.1.12.05c.05-.04.17-.15.17-.2q-.01-.1-.03-.11l3.33-3.34h.09l.43-.43-.31-.31.52-.52-.47-.47h-.1l-.45.45-1.13-1.14-.16-.18c-.07-.08-.1-.09-.26.07Zm1 .58c.1-.1.14-.11.22-.03.13.12.4.3.23.46l-.43.44s-.12.12-.16-.06c-.03-.17-.18-.5-.09-.58zm-4.37 5.14c.64-.64.71-.7.84-.7.17 0 .28.07.13.2l-1.69 1.7s-.14.22-.28.08c-.13-.13.15-.43.15-.43zm2.84-1.42.06-.05 1.76-1.76s.08-.08.13-.03q.06.07.11 0c.05-.04.18-.2.23-.15s0 .1-.24.33l-1.85 1.85s-.1.13-.22.01c-.07-.07-.02-.15.02-.2z" style="font-variation-settings:normal;opacity:1;fill:#323232;fill-opacity:1;stroke:#323232;stroke-width:.0667007;stroke-linecap:butt;stroke-linejoin:miter;stroke-miterlimit:4;stroke-dasharray:none;stroke-dashoffset:0;stroke-opacity:1;paint-order:fill markers stroke;stop-color:#000;stop-opacity:1"/><path d="M14.35 22.2c.26.05.34.03.6-.23l.8-.81s.28-.26-.05-.6l-.33-.32" style="font-variation-settings:normal;opacity:1;fill:none;fill-opacity:1;stroke:#323232;stroke-width:.200102;stroke-linecap:butt;stroke-linejoin:miter;stroke-miterlimit:4;stroke-dasharray:none;stroke-dashoffset:0;stroke-opacity:1;paint-order:fill markers stroke;stop-color:#000;stop-opacity:1"/><path d="M14.13 20.46c-.01.76.55.8.82.73.25-.06.32-.12.32-.12s-.2.25-.45.3-.65-.15-.72-.2q-.08-.07-.21 0a.3.3 0 0 1-.36-.06c-.13-.11.6-.65.6-.65z" style="font-variation-settings:normal;opacity:1;fill:#323232;fill-opacity:1;stroke:#323232;stroke-width:.0667007;stroke-linecap:butt;stroke-linejoin:round;stroke-miterlimit:4;stroke-dasharray:none;stroke-dashoffset:0;stroke-opacity:1;paint-order:fill markers stroke;stop-color:#000;stop-opacity:1"/><path d="M14.46 17.02c-.24-.23-.33-.43-.03-.73l2.02-2.02s.19-.18.36 0l.54.54-2.55 2.55z" style="font-variation-settings:normal;opacity:1;fill:#323232;fill-opacity:1;stroke:#323232;stroke-width:.0667007;stroke-linecap:butt;stroke-linejoin:miter;stroke-miterlimit:4;stroke-dasharray:none;stroke-dashoffset:0;stroke-opacity:1;paint-order:fill markers stroke;stop-color:#000;stop-opacity:1"/><path d="m10.12 22.22 2.45-2.45v-.4l2.4-2.41" style="font-variation-settings:normal;opacity:1;fill:none;fill-opacity:1;stroke:#323232;stroke-width:.400205;stroke-linecap:butt;stroke-linejoin:miter;stroke-miterlimit:4;stroke-dasharray:none;stroke-dashoffset:0;stroke-opacity:1;paint-order:fill markers stroke;stop-color:#000;stop-opacity:1"/><path d="M12.97 19.18c-.26.17-.17.3-.22.56s-.1.21-.72.64h0a.43.43 0 0 0-.1.6.43.43 0 0 0 .6.11l.04-.04h0l.02-.02h.01l2.83-2.98-.36-.31z" style="font-variation-settings:normal;opacity:1;vector-effect:none;fill:#323232;fill-opacity:1;fill-rule:evenodd;stroke:#fff;stroke-width:.133401;stroke-linecap:round;stroke-linejoin:round;stroke-miterlimit:4;stroke-dasharray:none;stroke-dashoffset:0;stroke-opacity:1;-inkscape-stroke:none;stop-color:#000;stop-opacity:1"/><path d="m16.84 14.65.83-.82" style="font-variation-settings:normal;opacity:1;fill:none;fill-opacity:1;stroke:#323232;stroke-width:.400205;stroke-linecap:butt;stroke-linejoin:miter;stroke-miterlimit:4;stroke-dasharray:none;stroke-dashoffset:0;stroke-opacity:1;paint-order:fill markers stroke;stop-color:#000;stop-opacity:1"/><path d="m20.16 11.6.44-.44" style="font-variation-settings:normal;opacity:1;vector-effect:none;fill:none;fill-opacity:1;stroke:#323232;stroke-width:.533605;stroke-linecap:round;stroke-linejoin:miter;stroke-miterlimit:4;stroke-dasharray:none;stroke-dashoffset:0;stroke-opacity:1;-inkscape-stroke:none;paint-order:fill markers stroke;stop-color:#000;stop-opacity:1"/><path d="m21.52 10.24.43-.43" style="font-variation-settings:normal;vector-effect:none;fill:none;fill-opacity:1;stroke:#323232;stroke-width:.533605;stroke-linecap:round;stroke-linejoin:miter;stroke-miterlimit:4;stroke-dasharray:none;stroke-dashoffset:0;stroke-opacity:1;-inkscape-stroke:none;paint-order:fill markers stroke;stop-color:#000"/><path d="m19.6 12.15 2.89-2.88" style="font-variation-settings:normal;opacity:1;fill:none;fill-opacity:1;stroke:#323232;stroke-width:.400205;stroke-linecap:butt;stroke-linejoin:miter;stroke-miterlimit:4;stroke-dasharray:none;stroke-dashoffset:0;stroke-opacity:1;paint-order:fill markers stroke;stop-color:#000;stop-opacity:1"/><circle cx="2.27" cy="20.75" r=".14" style="font-variation-settings:normal;opacity:1;vector-effect:none;fill:#323232;fill-opacity:1;fill-rule:evenodd;stroke:#323232;stroke-width:.133401;stroke-linecap:round;stroke-linejoin:round;stroke-miterlimit:4;stroke-dasharray:none;stroke-dashoffset:0;stroke-opacity:1;-inkscape-stroke:none;stop-color:#000;stop-opacity:1" transform="rotate(-45)"/><path d="m15.6 13.44.16.16 1.15-1.15" style="font-variation-settings:normal;opacity:1;fill:none;fill-opacity:1;stroke:#323232;stroke-width:.133401;stroke-linecap:butt;stroke-linejoin:miter;stroke-miterlimit:4;stroke-dasharray:none;stroke-dashoffset:0;stroke-opacity:1;paint-order:fill markers stroke;stop-color:#000;stop-opacity:1"/><path d="M16 13.41q.11.09.04.17c-.04.06.03.18.03.18l2.1-2.09s-.3-.24-.42-.11c-.12.12-.38.41-.5.41q-.19 0-.18.14 0 .12-.13.26l-.09.09s.13.14.1.2-.29.36-.42.47c-.13.12-.2.08-.2.08h-.14z" style="font-variation-settings:normal;opacity:1;fill:#323232;fill-opacity:1;stroke:#323232;stroke-width:.0667007;stroke-linecap:butt;stroke-linejoin:miter;stroke-miterlimit:4;stroke-dasharray:none;stroke-dashoffset:0;stroke-opacity:1;paint-order:fill markers stroke;stop-color:#000;stop-opacity:1"/><path d="M9.8 21.29H9.6" style="font-variation-settings:normal;opacity:1;vector-effect:none;fill:none;fill-opacity:1;stroke:#323232;stroke-width:.533605;stroke-linecap:butt;stroke-linejoin:miter;stroke-miterlimit:4;stroke-dasharray:none;stroke-dashoffset:0;stroke-opacity:1;-inkscape-stroke:none;paint-order:fill markers stroke;stop-color:#000;stop-opacity:1"/></svg>
