<svg height="128" width="128" xmlns="http://www.w3.org/2000/svg">
  <g fill="#fff">
    <path d="m 127.33778,61.45497 h -6.54492 A 56.849998,56.849998 0 0 0 66.54481,7.20692 V 0.662 H 61.45497 V 7.20692 A 56.849998,56.849998 0 0 0 7.20692,61.45497 H 0.662 v 5.08984 h 6.54492 a 56.849998,56.849998 0 0 0 54.24805,54.24805 v 6.54492 h 5.08984 v -6.54492 a 56.849998,56.849998 0 0 0 54.24805,-54.24805 h 6.54492 z m -11.65039,0 h -5.61523 v 5.08984 h 5.61523 a 51.75,51.75 0 0 1 -49.14258,49.14258 v -5.61523 h -5.08984 v 5.61523 A 51.75,51.75 0 0 1 12.31239,66.54481 h 5.61523 V 61.45497 H 12.31239 A 51.75,51.75 0 0 1 61.45497,12.31239 v 5.61523 h 5.08984 v -5.61523 a 51.75,51.75 0 0 1 49.14258,49.14258 z"/>
    <path d="m 71.00765,71.882249 h 5.94277 v 5.539245 H 71.00765 V 89.820599 H 64.51463 V 77.421494 H 44.33857 V 73.422967 L 64.18448,36.409071 h 6.82317 z m -19.47906,0 H 64.51463 V 46.4971 Z"/>
  </g>
</svg>
