<svg xmlns="http://www.w3.org/2000/svg" width="128" height="128" viewBox="0 0 33.87 33.87"><g transform="translate(.5 3.06)scale(.87338)"><path d="M24.47.23a.5.5 0 0 0-.3.08L14.03 6.25l.43.75s.46.74-.22 1.13L12.06 9.4s-.36.18-.55.18h-.2l-.13.08-.76-1.31-9.6 5.47s-.32.25-.07.68l1.36 2.35L26.26 2.89 24.88.5s-.15-.24-.41-.26zM20.24 7.71 2.67 17.86c.1.21 1.08.17 1.38.12.32-.04.97.13 1.4.47.51.4.73.08 1.05 3.54s-.09 4.51.08 5.98c.16 1.46.4 2.77.98 3.12.57.35 1.95-.3 1.95-.3l5.23-3.02c.26-.15.22-.6.22-.9 0-.32-.07-.4-.21-.61a5 5 0 0 1-.33-1.36c-.12-.7.1-1.2.43-1.4.33-.23.2-.3-.13-.48-.33-.19-.4-.65-.43-1.04-.03-.38-.08-.83.27-1.22.35-.38-.17-.53-.39-.72s-.26-.43-.32-1.04-.64-4.02-.66-4.68.94-1.54 2.43-2.5c1.5-.95 5.15-3.19 5.15-3.19z" style="font-variation-settings:normal;vector-effect:none;fill:#fff;fill-opacity:1;stroke:#323232;stroke-width:.790856;stroke-linecap:butt;stroke-linejoin:miter;stroke-miterlimit:4;stroke-dasharray:none;stroke-dashoffset:0;stroke-opacity:1;-inkscape-stroke:none;paint-order:fill markers stroke;stop-color:#000"/><path d="M17.4 10.8c1.12.17 1.27.39 1.68 1.09s.57 1.08.32 1.6-.5.74-1.04 1.05c-.55.32-2.65 1.67-3.14 1.72s-.99-.05-1.2-.23c-.2-.19-.55-.63-.55-.63l.33 2.28s.18-.27.4-.4c.2-.11.35-.09.69-.12s.73-.04 1.29-.36c.55-.32 3.68-2.3 4.31-2.7s.93-.53.9-.7c-.02-.17-.19-.29-.42-.4-.24-.1-.54-.39-1.03-1.22-.5-.84-.72-1.26-.69-1.52s.3-.7.3-.7z" style="font-variation-settings:normal;fill:#323232;fill-opacity:1;stroke:#323232;stroke-width:.0988572;stroke-linecap:butt;stroke-linejoin:miter;stroke-miterlimit:4;stroke-dasharray:none;stroke-dashoffset:0;stroke-opacity:1;paint-order:fill markers stroke;stop-color:#000"/><path d="m21.28 7.11.5.84s4.25-2.48 4.78-2.81c.52-.33.71-.43.55-.7l-.3-.53Z" style="font-variation-settings:normal;vector-effect:none;fill:#fff;fill-opacity:1;stroke:#323232;stroke-width:.790856;stroke-linecap:butt;stroke-linejoin:miter;stroke-miterlimit:4;stroke-dasharray:none;stroke-dashoffset:0;stroke-opacity:1;-inkscape-stroke:none;paint-order:fill markers stroke;stop-color:#000"/><path d="m21.47 8.22 3-1.74M25.06 6.14l2.32-1.34" style="font-variation-settings:normal;vector-effect:none;fill:none;fill-opacity:1;stroke:#323232;stroke-width:.790856;stroke-linecap:butt;stroke-linejoin:miter;stroke-miterlimit:4;stroke-dasharray:none;stroke-dashoffset:0;stroke-opacity:1;-inkscape-stroke:none;paint-order:fill markers stroke;stop-color:#000"/><path d="M27.53 5.11c.2-.12.19-.3-.06-.74l-.16-.28-.31.42zM10.42 8.07l3.46-2 .85 1.49-3.6 2.07z" style="font-variation-settings:normal;fill:#323232;fill-opacity:1;stroke:#323232;stroke-width:.0988572;stroke-linecap:butt;stroke-linejoin:miter;stroke-miterlimit:4;stroke-dasharray:none;stroke-dashoffset:0;stroke-opacity:1;paint-order:fill markers stroke;stop-color:#000"/><path d="m10.78 9.42-2.1 1.21" style="font-variation-settings:normal;fill:none;fill-opacity:1;stroke:#323232;stroke-width:.790856;stroke-linecap:round;stroke-linejoin:miter;stroke-miterlimit:4;stroke-dasharray:none;stroke-dashoffset:0;stroke-opacity:1;paint-order:fill markers stroke;stop-color:#000"/><path d="m25.06.18 1.16 2" style="font-variation-settings:normal;vector-effect:none;fill:none;fill-opacity:1;stroke:#323232;stroke-width:.790856;stroke-linecap:butt;stroke-linejoin:miter;stroke-miterlimit:4;stroke-dasharray:none;stroke-dashoffset:0;stroke-opacity:1;-inkscape-stroke:none;paint-order:fill markers stroke;stop-color:#000"/><path d="m23.07.3.74-.43s-.5-.17-.55-.14-.23.08-.23.2.04.37.04.37zM1.38 12.85l.9-.51s-.34-.28-.42-.23c-.08.04-.5.24-.51.3s.03.44.03.44z" style="font-variation-settings:normal;fill:#323232;fill-opacity:1;stroke:#323232;stroke-width:.0988572;stroke-linecap:butt;stroke-linejoin:miter;stroke-miterlimit:4;stroke-dasharray:none;stroke-dashoffset:0;stroke-opacity:1;paint-order:fill markers stroke;stop-color:#000"/><path d="M14.65 12.66s-1.28 1.72-1.22 1.74c.1.04.29.09.42.1.2 0 .48-.09.48-.09s.59.45 1.34.59 1.28-.17 1.28-.17-1.57-.52-2.3-2.17z" style="font-variation-settings:normal;fill:#323232;fill-opacity:1;stroke:#323232;stroke-width:.0988572;stroke-linecap:butt;stroke-linejoin:round;stroke-miterlimit:4;stroke-dasharray:none;stroke-dashoffset:0;stroke-opacity:1;paint-order:fill markers stroke;stop-color:#000"/><path d="M15.15 13.63c.92.54 1.92.7 1.92.7s-.06.2-.56.24S15 14.3 15 14.3z" style="font-variation-settings:normal;fill:#323232;fill-opacity:1;stroke:#323232;stroke-width:.0988572;stroke-linecap:butt;stroke-linejoin:round;stroke-miterlimit:4;stroke-dasharray:none;stroke-dashoffset:0;stroke-opacity:1;paint-order:fill markers stroke;stop-color:#000"/><path d="m9.75 31.75 5.47-3.16M8.02 19.82c.57 5.95.15 7.6.46 8.38.3.78.4.96 1.17.51l3.2-1.85s.3-.07.24-.61-1.16-7.97-1.16-7.97h-.8l-.08-.02s-.88.67-1.34.8c-.46.12-1.15.21-1.4.29-.23.07-.27.32-.29.47zM1.94 13.28l1.61 2.8M2.94 12.7l1.61 2.8M3.94 12.13l1.61 2.79M4.93 11.55l1.62 2.8M5.93 10.97l1.61 2.8" style="font-variation-settings:normal;vector-effect:none;fill:none;fill-opacity:1;stroke:#323232;stroke-width:.790856;stroke-linecap:butt;stroke-linejoin:miter;stroke-miterlimit:4;stroke-dasharray:none;stroke-dashoffset:0;stroke-opacity:1;-inkscape-stroke:none;paint-order:fill markers stroke;stop-color:#000"/><circle cx="-3.31" cy="19.38" r=".24" style="font-variation-settings:normal;vector-effect:none;fill:#323232;fill-opacity:1;fill-rule:evenodd;stroke:#323232;stroke-width:.197714;stroke-linecap:round;stroke-linejoin:round;stroke-miterlimit:4;stroke-dasharray:none;stroke-dashoffset:0;stroke-opacity:1;-inkscape-stroke:none;stop-color:#000" transform="rotate(-30)"/></g><g transform="matrix(-.87338 0 0 .87338 33.37 3.06)"><path d="M24.47.23a.5.5 0 0 0-.3.08L14.03 6.25l.43.75s.46.74-.22 1.14l-2.18 1.25s-.36.18-.55.18h-.2l-.13.08-.76-1.31-9.6 5.47s-.32.25-.07.68l1.36 2.35L26.26 2.89 24.88.5s-.15-.25-.41-.27zM20.24 7.71 2.67 17.86c.1.21 1.08.17 1.38.12.32-.04.97.13 1.4.47.51.4.73.08 1.05 3.54s-.09 4.51.08 5.98c.16 1.46.4 2.77.98 3.12.57.35 1.95-.3 1.95-.3l5.23-3.02c.26-.15.22-.6.22-.9s-.07-.4-.21-.61a5 5 0 0 1-.33-1.36c-.12-.7.1-1.2.43-1.4.33-.23.2-.3-.13-.48-.33-.19-.4-.65-.43-1.04-.03-.38-.08-.83.27-1.22.35-.38-.17-.53-.39-.72s-.26-.43-.32-1.04-.64-4.02-.66-4.68.94-1.54 2.43-2.5c1.5-.95 5.15-3.19 5.15-3.19z" style="font-variation-settings:normal;vector-effect:none;fill:#fff;fill-opacity:1;stroke:#323232;stroke-width:.790856;stroke-linecap:butt;stroke-linejoin:miter;stroke-miterlimit:4;stroke-dasharray:none;stroke-dashoffset:0;stroke-opacity:1;-inkscape-stroke:none;paint-order:fill markers stroke;stop-color:#000"/><path d="M17.4 10.8c1.12.17 1.27.39 1.68 1.09s.57 1.08.32 1.6-.5.74-1.04 1.05c-.55.32-2.65 1.67-3.14 1.72s-.99-.05-1.2-.23c-.2-.19-.55-.63-.55-.63l.33 2.28s.18-.27.4-.4c.2-.11.35-.09.69-.12s.73-.04 1.29-.36c.55-.32 3.68-2.3 4.31-2.7s.93-.53.9-.7c-.02-.17-.19-.29-.42-.4-.24-.1-.54-.39-1.03-1.22-.5-.84-.72-1.26-.69-1.52s.3-.7.3-.7z" style="font-variation-settings:normal;fill:#323232;fill-opacity:1;stroke:#323232;stroke-width:.0988572;stroke-linecap:butt;stroke-linejoin:miter;stroke-miterlimit:4;stroke-dasharray:none;stroke-dashoffset:0;stroke-opacity:1;paint-order:fill markers stroke;stop-color:#000"/><path d="m21.28 7.11.5.84s4.25-2.48 4.78-2.81c.52-.33.71-.43.55-.7l-.3-.53Z" style="font-variation-settings:normal;vector-effect:none;fill:#fff;fill-opacity:1;stroke:#323232;stroke-width:.790856;stroke-linecap:butt;stroke-linejoin:miter;stroke-miterlimit:4;stroke-dasharray:none;stroke-dashoffset:0;stroke-opacity:1;-inkscape-stroke:none;paint-order:fill markers stroke;stop-color:#000"/><path d="m21.47 8.22 3-1.74M25.06 6.14l2.32-1.34" style="font-variation-settings:normal;vector-effect:none;fill:none;fill-opacity:1;stroke:#323232;stroke-width:.790856;stroke-linecap:butt;stroke-linejoin:miter;stroke-miterlimit:4;stroke-dasharray:none;stroke-dashoffset:0;stroke-opacity:1;-inkscape-stroke:none;paint-order:fill markers stroke;stop-color:#000"/><path d="M27.53 5.11c.2-.12.19-.3-.06-.74l-.16-.28-.31.42zM10.42 8.07l3.46-2 .85 1.49-3.6 2.07z" style="font-variation-settings:normal;fill:#323232;fill-opacity:1;stroke:#323232;stroke-width:.0988572;stroke-linecap:butt;stroke-linejoin:miter;stroke-miterlimit:4;stroke-dasharray:none;stroke-dashoffset:0;stroke-opacity:1;paint-order:fill markers stroke;stop-color:#000"/><path d="m10.78 9.42-2.1 1.21" style="font-variation-settings:normal;fill:none;fill-opacity:1;stroke:#323232;stroke-width:.790856;stroke-linecap:round;stroke-linejoin:miter;stroke-miterlimit:4;stroke-dasharray:none;stroke-dashoffset:0;stroke-opacity:1;paint-order:fill markers stroke;stop-color:#000"/><path d="m25.06.18 1.16 2" style="font-variation-settings:normal;vector-effect:none;fill:none;fill-opacity:1;stroke:#323232;stroke-width:.790856;stroke-linecap:butt;stroke-linejoin:miter;stroke-miterlimit:4;stroke-dasharray:none;stroke-dashoffset:0;stroke-opacity:1;-inkscape-stroke:none;paint-order:fill markers stroke;stop-color:#000"/><path d="m23.07.3.74-.43s-.5-.17-.55-.14-.23.08-.23.2.04.37.04.37zM1.38 12.85l.9-.51s-.34-.28-.42-.23c-.08.04-.5.24-.51.3s.03.44.03.44z" style="font-variation-settings:normal;fill:#323232;fill-opacity:1;stroke:#323232;stroke-width:.0988572;stroke-linecap:butt;stroke-linejoin:miter;stroke-miterlimit:4;stroke-dasharray:none;stroke-dashoffset:0;stroke-opacity:1;paint-order:fill markers stroke;stop-color:#000"/><path d="M14.65 12.66s-1.28 1.72-1.22 1.74c.1.04.29.09.42.1.2 0 .48-.09.48-.09s.59.45 1.34.59 1.28-.17 1.28-.17-1.57-.52-2.3-2.17z" style="font-variation-settings:normal;fill:#323232;fill-opacity:1;stroke:#323232;stroke-width:.0988572;stroke-linecap:butt;stroke-linejoin:round;stroke-miterlimit:4;stroke-dasharray:none;stroke-dashoffset:0;stroke-opacity:1;paint-order:fill markers stroke;stop-color:#000"/><path d="M15.15 13.63c.92.54 1.92.7 1.92.7s-.06.2-.56.24S15 14.3 15 14.3z" style="font-variation-settings:normal;fill:#323232;fill-opacity:1;stroke:#323232;stroke-width:.0988572;stroke-linecap:butt;stroke-linejoin:round;stroke-miterlimit:4;stroke-dasharray:none;stroke-dashoffset:0;stroke-opacity:1;paint-order:fill markers stroke;stop-color:#000"/><path d="m9.75 31.75 5.47-3.16M8.02 19.82c.57 5.95.15 7.6.46 8.38.3.78.4.96 1.17.51l3.2-1.85s.3-.07.24-.61-1.16-7.97-1.16-7.97h-.8l-.08-.02s-.88.67-1.34.8c-.46.12-1.15.21-1.4.29-.23.07-.27.32-.29.47zM1.94 13.28l1.61 2.8M2.94 12.7l1.61 2.8M3.94 12.13l1.61 2.79M4.93 11.55l1.62 2.8M5.93 10.97l1.61 2.8" style="font-variation-settings:normal;vector-effect:none;fill:none;fill-opacity:1;stroke:#323232;stroke-width:.790856;stroke-linecap:butt;stroke-linejoin:miter;stroke-miterlimit:4;stroke-dasharray:none;stroke-dashoffset:0;stroke-opacity:1;-inkscape-stroke:none;paint-order:fill markers stroke;stop-color:#000"/><circle cx="-3.31" cy="19.38" r=".24" style="font-variation-settings:normal;vector-effect:none;fill:#323232;fill-opacity:1;fill-rule:evenodd;stroke:#323232;stroke-width:.197714;stroke-linecap:round;stroke-linejoin:round;stroke-miterlimit:4;stroke-dasharray:none;stroke-dashoffset:0;stroke-opacity:1;-inkscape-stroke:none;stop-color:#000" transform="rotate(-30)"/></g></svg>
