<svg xmlns="http://www.w3.org/2000/svg" width="128" height="128" viewBox="0 0 33.87 33.87"><path d="M27.28 1.27a.5.5 0 0 0-.3.08L16.84 7.29l.44.75s.45.74-.23 1.14l-2.18 1.25s-.36.18-.55.18h-.2l-.13.08-.76-1.31-9.6 5.47s-.31.25-.07.68l1.36 2.35L29.07 3.93l-1.38-2.4s-.15-.24-.41-.26zM5.48 18.9 23.05 8.75l.54.92s-3.65 2.24-5.15 3.2c-1.5.95-2.46 1.83-2.44 2.49s.6 4.06.66 4.68c.06.61.1.86.32 1.04.23.19.74.34.4.72-.36.39-.3.84-.28 1.22.03.39.1.85.43 1.04s.46.25.13.47-.54.72-.43 1.4q.15 1.04.33 1.37c.14.22.21.3.21.6 0 .32.05.76-.22.91l-5.22 3.02s-1.4.65-1.96.3-.81-1.66-.98-3.12.26-2.52-.07-5.98-.54-3.13-1.05-3.54a2.2 2.2 0 0 0-1.4-.47c-.3.05-1.28.1-1.39-.12Z" style="font-variation-settings:normal;opacity:1;vector-effect:none;fill:#fff;fill-opacity:1;stroke:#323232;stroke-width:.790856;stroke-linecap:butt;stroke-linejoin:miter;stroke-miterlimit:4;stroke-dasharray:none;stroke-dashoffset:0;stroke-opacity:1;-inkscape-stroke:none;paint-order:fill markers stroke;stop-color:#000;stop-opacity:1"/><path d="M20.22 11.85c1.12.16 1.26.38 1.67 1.08.42.7.57 1.08.33 1.6-.25.52-.5.74-1.05 1.05-.54.32-2.65 1.67-3.14 1.72s-.99-.05-1.2-.23c-.2-.19-.55-.63-.55-.63l.34 2.28s.18-.27.38-.4c.21-.11.36-.09.7-.12s.73-.04 1.29-.36 3.69-2.3 4.32-2.7.92-.53.9-.7-.2-.29-.43-.4c-.23-.1-.54-.39-1.03-1.22-.5-.84-.72-1.26-.68-1.52s.3-.7.3-.7z" style="font-variation-settings:normal;opacity:1;fill:#323232;fill-opacity:1;stroke:#323232;stroke-width:.0988572;stroke-linecap:butt;stroke-linejoin:miter;stroke-miterlimit:4;stroke-dasharray:none;stroke-dashoffset:0;stroke-opacity:1;paint-order:fill markers stroke;stop-color:#000;stop-opacity:1"/><path d="m24.1 8.15.5.84s4.25-2.48 4.77-2.81.71-.43.56-.7l-.3-.53Z" style="font-variation-settings:normal;opacity:1;vector-effect:none;fill:#fff;fill-opacity:1;stroke:#323232;stroke-width:.790856;stroke-linecap:butt;stroke-linejoin:miter;stroke-miterlimit:4;stroke-dasharray:none;stroke-dashoffset:0;stroke-opacity:1;-inkscape-stroke:none;paint-order:fill markers stroke;stop-color:#000;stop-opacity:1"/><path d="m24.28 9.26 3.01-1.74m-1.82.62" style="font-variation-settings:normal;opacity:1;vector-effect:none;fill:none;fill-opacity:1;stroke:#323232;stroke-width:.790856;stroke-linecap:butt;stroke-linejoin:miter;stroke-miterlimit:4;stroke-dasharray:none;stroke-dashoffset:0;stroke-opacity:1;-inkscape-stroke:none;paint-order:fill markers stroke;stop-color:#000;stop-opacity:1"/><path d="m27.87 7.18 2.33-1.34" style="font-variation-settings:normal;vector-effect:none;fill:none;fill-opacity:1;stroke:#323232;stroke-width:.790856;stroke-linecap:butt;stroke-linejoin:miter;stroke-miterlimit:4;stroke-dasharray:none;stroke-dashoffset:0;stroke-opacity:1;-inkscape-stroke:none;paint-order:fill markers stroke;stop-color:#000"/><path d="M30.35 6.15c.2-.12.18-.3-.06-.74l-.17-.28-.31.42zM13.23 9.11l3.46-2 .85 1.49-3.59 2.07Z" style="font-variation-settings:normal;opacity:1;fill:#323232;fill-opacity:1;stroke:#323232;stroke-width:.0988572;stroke-linecap:butt;stroke-linejoin:miter;stroke-miterlimit:4;stroke-dasharray:none;stroke-dashoffset:0;stroke-opacity:1;paint-order:fill markers stroke;stop-color:#000;stop-opacity:1"/><path d="m13.6 10.46-2.1 1.21" style="font-variation-settings:normal;opacity:1;fill:none;fill-opacity:1;stroke:#323232;stroke-width:.790856;stroke-linecap:round;stroke-linejoin:miter;stroke-miterlimit:4;stroke-dasharray:none;stroke-dashoffset:0;stroke-opacity:1;paint-order:fill markers stroke;stop-color:#000;stop-opacity:1"/><path d="m27.88 1.22 1.15 2" style="font-variation-settings:normal;opacity:1;vector-effect:none;fill:none;fill-opacity:1;stroke:#323232;stroke-width:.790856;stroke-linecap:butt;stroke-linejoin:miter;stroke-miterlimit:4;stroke-dasharray:none;stroke-dashoffset:0;stroke-opacity:1;-inkscape-stroke:none;paint-order:fill markers stroke;stop-color:#000;stop-opacity:1"/><path d="m25.88 1.34.75-.43s-.51-.17-.56-.14-.23.08-.23.2.04.37.04.37zM4.2 13.9l.89-.52s-.34-.28-.42-.23c-.07.04-.49.24-.5.3-.03.05.02.44.02.44z" style="font-variation-settings:normal;opacity:1;fill:#323232;fill-opacity:1;stroke:#323232;stroke-width:.0988572;stroke-linecap:butt;stroke-linejoin:miter;stroke-miterlimit:4;stroke-dasharray:none;stroke-dashoffset:0;stroke-opacity:1;paint-order:fill markers stroke;stop-color:#000;stop-opacity:1"/><path d="M17.47 13.7s-1.29 1.72-1.23 1.74c.11.04.29.09.42.1.2 0 .48-.09.48-.09s.59.45 1.34.59 1.28-.17 1.28-.17-1.57-.52-2.3-2.17z" style="font-variation-settings:normal;opacity:1;fill:#323232;fill-opacity:1;stroke:#323232;stroke-width:.0988572;stroke-linecap:butt;stroke-linejoin:round;stroke-miterlimit:4;stroke-dasharray:none;stroke-dashoffset:0;stroke-opacity:1;paint-order:fill markers stroke;stop-color:#000;stop-opacity:1"/><path d="M17.96 14.67c.93.54 1.92.7 1.92.7s-.05.2-.55.24-1.52-.27-1.52-.27z" style="font-variation-settings:normal;opacity:1;fill:#323232;fill-opacity:1;stroke:#323232;stroke-width:.0988572;stroke-linecap:butt;stroke-linejoin:round;stroke-miterlimit:4;stroke-dasharray:none;stroke-dashoffset:0;stroke-opacity:1;paint-order:fill markers stroke;stop-color:#000;stop-opacity:1"/><path d="m12.57 32.79 5.46-3.16M10.84 20.86c.57 5.95.15 7.6.45 8.38s.4.96 1.18.51l3.2-1.85s.29-.07.24-.61c-.06-.54-1.16-7.97-1.16-7.97h-.8l-.08-.02s-.89.67-1.35.8c-.46.12-1.15.21-1.39.29s-.28.32-.3.47zM4.75 14.32l1.62 2.8" style="font-variation-settings:normal;opacity:1;vector-effect:none;fill:none;fill-opacity:1;stroke:#323232;stroke-width:.790856;stroke-linecap:butt;stroke-linejoin:miter;stroke-miterlimit:4;stroke-dasharray:none;stroke-dashoffset:0;stroke-opacity:1;-inkscape-stroke:none;paint-order:fill markers stroke;stop-color:#000;stop-opacity:1"/><path d="m5.75 13.74 1.62 2.8M6.75 13.17l1.61 2.79M7.75 12.59l1.61 2.8M8.75 12.01l1.6 2.8" style="font-variation-settings:normal;vector-effect:none;fill:none;fill-opacity:1;stroke:#323232;stroke-width:.790856;stroke-linecap:butt;stroke-linejoin:miter;stroke-miterlimit:4;stroke-dasharray:none;stroke-dashoffset:0;stroke-opacity:1;-inkscape-stroke:none;paint-order:fill markers stroke;stop-color:#000"/><circle cx="-1.39" cy="21.68" r=".24" style="font-variation-settings:normal;opacity:1;vector-effect:none;fill:#323232;fill-opacity:1;fill-rule:evenodd;stroke:#323232;stroke-width:.197714;stroke-linecap:round;stroke-linejoin:round;stroke-miterlimit:4;stroke-dasharray:none;stroke-dashoffset:0;stroke-opacity:1;-inkscape-stroke:none;stop-color:#000;stop-opacity:1" transform="rotate(-30)"/></svg>
