<svg xmlns="http://www.w3.org/2000/svg" width="128" height="128" viewBox="0 0 33.867 33.867"><path d="M3.187 27.42c2.003 4.201 4.898 4.814 4.898 4.814l1.643-1.643v-4.273s-.018-.342.171-.532l1.466-1.465s-.597-.893-.1-1.39l.52-.52-1.606-1.605-5.614 5.613s-.233-.216-.354-.095c-.121.122-1.07 1.011-1.024 1.095zM10.885 20.102l1.948 1.947.242-.242s.18-.188.54-.197c.358-.008.693.15.693.15l3.584-3.584 1.269 1.269 2.448-2.845s.05-.059-.038-.13c-.088-.071-.23.171-.547-.146l-1.22-1.22s-.26-.285-.097-.448c.163-.163.314-.305.155-.464l-2.048-2.047-6.874 6.874.514.514zM14.956 22.42l1.341-1.341.556.556-.077.076s-.056.067-.006.154.393.848.564.83c.172-.017.417.015.296.19-.121.174-.207.153-.044.463.162.31.753 1.664.821 1.655.068-.009.145-.038.225.06.08.097.062.203-.807 1.084-.869.88-1.094 1.082-1.167 1.025-.056-.043-1.374-1.798-1.546-3.224-.059-.449.052-1.182-.156-1.527zM19.935 20.042l2.133-2.536s.899.769 2.099 1.425c1.2.656 1.749.827 1.749.827l-1.23 3.073s-1.837-.727-2.984-1.495c-1.147-.768-1.767-1.294-1.767-1.294zM18.533 11.456l2.157 2.157 7.998-7.998-2.156-2.156z" style="font-variation-settings:normal;opacity:1;vector-effect:none;fill:#fff;fill-opacity:1;stroke:#323232;stroke-width:.588342;stroke-linecap:butt;stroke-linejoin:miter;stroke-miterlimit:4;stroke-dasharray:none;stroke-dashoffset:0;stroke-opacity:1;-inkscape-stroke:none;paint-order:fill markers stroke;stop-color:#000;stop-opacity:1"/><path d="m25.337 1.613 2.219 2.22" style="font-variation-settings:normal;opacity:1;fill:none;fill-opacity:1;stroke:#323232;stroke-width:.367713;stroke-linecap:butt;stroke-linejoin:miter;stroke-miterlimit:4;stroke-dasharray:none;stroke-dashoffset:0;stroke-opacity:1;paint-order:fill markers stroke;stop-color:#000;stop-opacity:1"/><path d="m26.922 3.584 1.639 1.72.434-.434c.086-.085-.006-.224-.006-.224l-.324-.325.197-.206.071-.123.862-.862.068.068 1.067-1.066-.768-.769-1.073 1.073.065.065-.833.833-.233.216c-.06.036-.06-.027-.11-.05-.052-.054-.06-.07-.06-.07l-.074-.074-.088-.084s-.133-.112-.238-.146c-.104-.033-.155.017-.155.017zM11.674 17.548l1.36-1.36s-.422-.23-.454-.197l-.077.077-.307-.763s-.83.305-.89.376c-.059.07-.062.133-.062.133l.127.127c-.536.472-.371.901-.18 1.12z" style="font-variation-settings:normal;opacity:1;fill:#323232;fill-opacity:1;stroke:#323232;stroke-width:.0735428;stroke-linecap:butt;stroke-linejoin:miter;stroke-miterlimit:4;stroke-dasharray:none;stroke-dashoffset:0;stroke-opacity:1;paint-order:fill markers stroke;stop-color:#000;stop-opacity:1"/><circle cx="-3.858" cy="20.068" r=".165" style="font-variation-settings:normal;opacity:1;vector-effect:none;fill:#7e7e7e;fill-opacity:1;fill-rule:evenodd;stroke:none;stroke-width:.147086;stroke-linecap:round;stroke-linejoin:round;stroke-miterlimit:4;stroke-dasharray:none;stroke-dashoffset:0;stroke-opacity:1;-inkscape-stroke:none;stop-color:#000;stop-opacity:1" transform="rotate(-45)"/><path d="m21.634 13.353-.339-.34M22.13 12.857l-.339-.339M22.626 12.36l-.339-.338M23.618 11.369l-.339-.339M24.114 10.873l-.339-.339M24.61 10.377l-.339-.339M23.122 11.865l-.339-.339M25.106 9.88l-.339-.338M25.106 9.88l-.339-.338M25.602 9.385l-.339-.339M26.098 8.889l-.339-.339M26.594 8.393l-.339-.339M27.09 7.897l-.339-.339M27.586 7.4l-.339-.338M28.082 6.905l-.339-.339" style="font-variation-settings:normal;fill:none;fill-opacity:1;stroke:#323232;stroke-width:.367713;stroke-linecap:butt;stroke-linejoin:miter;stroke-miterlimit:4;stroke-dasharray:none;stroke-dashoffset:0;stroke-opacity:1;paint-order:fill markers stroke;stop-color:#000"/><path d="m28.448 6.539.517-.517.137-.409-.094-.085-.023.023-.673.853zM21.613 13.373l-.517.517-.408.137-.086-.094.023-.023.853-.672z" style="fill:#323232;fill-rule:evenodd;stroke-width:.367713;stroke-linecap:round;stroke-linejoin:round"/><path d="m25.106 9.88-.339-.338M19.785 9.52l.339.339M21.769 7.536l.339.339M22.265 7.04l.339.339M22.265 7.04l.339.339M22.761 6.544l.339.339M23.257 6.048l.339.339M23.753 5.552l.339.339M24.249 5.056l.339.339M19.29 10.016l.338.339M19.785 9.52l.339.339M20.281 9.024l.339.339M20.777 8.528l.339.339M21.273 8.032l.339.339M21.769 7.536l.339.339M24.745 4.56l.339.339M25.241 4.064l.339.339" style="font-variation-settings:normal;fill:none;fill-opacity:1;stroke:#323232;stroke-width:.367713;stroke-linecap:butt;stroke-linejoin:miter;stroke-miterlimit:4;stroke-dasharray:none;stroke-dashoffset:0;stroke-opacity:1;paint-order:fill markers stroke;stop-color:#000"/><path d="m25.607 3.698.517-.517.409-.137.085.094-.023.023-.853.672z" style="fill:#323232;fill-rule:evenodd;stroke-width:.367713;stroke-linecap:round;stroke-linejoin:round"/><path d="m18.297 11.008.339.339M18.793 10.512l.339.339M18.793 10.512l.339.339M17.4 11.905l.339.339M14.424 14.881l.339.339M14.92 14.385l.339.339M15.416 13.89l.339.338M15.912 13.393l.339.339M16.408 12.897l.339.339M16.904 12.401l.339.339M13.432 15.873l.339.339M13.928 15.377l.339.339" style="font-variation-settings:normal;fill:none;fill-opacity:1;stroke:#323232;stroke-width:.367713;stroke-linecap:butt;stroke-linejoin:miter;stroke-miterlimit:4;stroke-dasharray:none;stroke-dashoffset:0;stroke-opacity:1;paint-order:fill markers stroke;stop-color:#000"/><path d="m15.695 17.037.652.652s.13.129.423-.165l2.505-2.505s.187-.186 0-.373l-.595-.595z" style="font-variation-settings:normal;opacity:1;fill:#323232;fill-opacity:1;stroke:#fff;stroke-width:.220629;stroke-linecap:butt;stroke-linejoin:miter;stroke-miterlimit:4;stroke-dasharray:none;stroke-dashoffset:0;stroke-opacity:1;paint-order:fill markers stroke;stop-color:#000;stop-opacity:1"/><path d="m11.797 18.728-.896.896" style="font-variation-settings:normal;opacity:1;vector-effect:none;fill:none;fill-opacity:1;stroke:#323232;stroke-width:.588342;stroke-linecap:butt;stroke-linejoin:miter;stroke-miterlimit:4;stroke-dasharray:none;stroke-dashoffset:0;stroke-opacity:1;-inkscape-stroke:none;paint-order:fill markers stroke;stop-color:#000;stop-opacity:1"/><circle cx="3.878" cy="-24.682" r=".198" style="font-variation-settings:normal;opacity:1;vector-effect:none;fill:#323232;fill-opacity:1;fill-rule:evenodd;stroke:#323232;stroke-width:.147086;stroke-linecap:round;stroke-linejoin:round;stroke-miterlimit:4;stroke-dasharray:none;stroke-dashoffset:0;stroke-opacity:1;-inkscape-stroke:none;stop-color:#000;stop-opacity:1" transform="rotate(135)"/><path d="m15.396 19.513-.873.872" style="font-variation-settings:normal;opacity:1;fill:none;fill-opacity:1;stroke:#323232;stroke-width:.29417;stroke-linecap:round;stroke-linejoin:miter;stroke-miterlimit:4;stroke-dasharray:none;stroke-dashoffset:0;stroke-opacity:1;paint-order:fill markers stroke;stop-color:#000;stop-opacity:1"/><path d="M3.43 27.176c2.23 2.203 2.347 2.047 3.608 2.996 1.261.95 1.82 1.313 1.82 1.313l-.773.75-3.16-2.056-1.738-2.76Z" style="font-variation-settings:normal;opacity:1;fill:#323232;fill-opacity:1;stroke:#323232;stroke-width:.0735428;stroke-linecap:butt;stroke-linejoin:miter;stroke-miterlimit:4;stroke-dasharray:none;stroke-dashoffset:0;stroke-opacity:1;paint-order:fill markers stroke;stop-color:#000;stop-opacity:1"/><path d="M11.122 23.146c-.336.582-.515.792-.788 1.066l-5.272 5.271M6.622 28.28l1.452-1.453M10.48 25.229l.273.273" style="font-variation-settings:normal;opacity:1;vector-effect:none;fill:none;fill-opacity:1;stroke:#323232;stroke-width:.588342;stroke-linecap:butt;stroke-linejoin:miter;stroke-miterlimit:4;stroke-dasharray:none;stroke-dashoffset:0;stroke-opacity:1;-inkscape-stroke:none;paint-order:fill markers stroke;stop-color:#000;stop-opacity:1"/><circle cx="-16.101" cy="21.572" r=".309" style="font-variation-settings:normal;opacity:1;fill:#fff;fill-opacity:1;fill-rule:evenodd;stroke:#323232;stroke-width:.29417;stroke-linecap:round;stroke-linejoin:round;stroke-miterlimit:4;stroke-dasharray:none;stroke-dashoffset:0;stroke-opacity:1;stop-color:#000;stop-opacity:1" transform="rotate(-45)"/><circle cx="-5.012" cy="24.207" r=".121" style="font-variation-settings:normal;opacity:1;vector-effect:none;fill:#323232;fill-opacity:1;fill-rule:evenodd;stroke:#323232;stroke-width:.147086;stroke-linecap:round;stroke-linejoin:round;stroke-miterlimit:4;stroke-dasharray:none;stroke-dashoffset:0;stroke-opacity:1;-inkscape-stroke:none;stop-color:#000;stop-opacity:1" transform="rotate(-45)"/><path d="M21.554 18.192c2.093 1.86 3.958 2.334 3.958 2.334" style="font-variation-settings:normal;opacity:1;vector-effect:none;fill:none;fill-opacity:1;stroke:#323232;stroke-width:.588342;stroke-linecap:butt;stroke-linejoin:miter;stroke-miterlimit:4;stroke-dasharray:none;stroke-dashoffset:0;stroke-opacity:1;-inkscape-stroke:none;paint-order:fill markers stroke;stop-color:#000;stop-opacity:1"/><path d="m11.967 19.763.639.638s1.581-1.544 1.705-1.87c.124-.327.114-.515-.179-.575-.347-.071-2.165 1.807-2.165 1.807z" style="font-variation-settings:normal;opacity:1;fill:#323232;fill-opacity:1;stroke:#323232;stroke-width:.0734931;stroke-linecap:butt;stroke-linejoin:miter;stroke-miterlimit:4;stroke-dasharray:none;stroke-dashoffset:0;stroke-opacity:1;paint-order:fill markers stroke;stop-color:#000;stop-opacity:1"/><path d="m12.4 19.96-.442.442" style="font-variation-settings:normal;opacity:1;vector-effect:none;fill:none;fill-opacity:1;stroke:#323232;stroke-width:.588342;stroke-linecap:butt;stroke-linejoin:miter;stroke-miterlimit:4;stroke-dasharray:none;stroke-dashoffset:0;stroke-opacity:1;-inkscape-stroke:none;paint-order:fill markers stroke;stop-color:#000;stop-opacity:1"/><path d="m11.796 20.125.447.447" style="font-variation-settings:normal;opacity:1;fill:none;fill-opacity:1;stroke:#323232;stroke-width:.441256;stroke-linecap:round;stroke-linejoin:miter;stroke-miterlimit:4;stroke-dasharray:none;stroke-dashoffset:0;stroke-opacity:1;paint-order:fill markers stroke;stop-color:#000;stop-opacity:1"/><path d="M17.14 16.769 18.372 18" style="font-variation-settings:normal;opacity:1;vector-effect:none;fill:none;fill-opacity:1;stroke:#323232;stroke-width:.588342;stroke-linecap:round;stroke-linejoin:miter;stroke-miterlimit:4;stroke-dasharray:none;stroke-dashoffset:0;stroke-opacity:1;-inkscape-stroke:none;paint-order:fill markers stroke;stop-color:#000;stop-opacity:1"/><path d="m15.604 16.442 2.483-2.483" style="font-variation-settings:normal;opacity:1;fill:none;fill-opacity:1;stroke:#323232;stroke-width:.735428;stroke-linecap:round;stroke-linejoin:miter;stroke-miterlimit:4;stroke-dasharray:none;stroke-dashoffset:0;stroke-opacity:1;paint-order:fill markers stroke;stop-color:#000;stop-opacity:1"/><circle cx="-.523" cy="24.706" r=".114" style="font-variation-settings:normal;opacity:1;vector-effect:none;fill:#323232;fill-opacity:1;fill-rule:evenodd;stroke:#323232;stroke-width:.147086;stroke-linecap:round;stroke-linejoin:round;stroke-miterlimit:4;stroke-dasharray:none;stroke-dashoffset:0;stroke-opacity:1;-inkscape-stroke:none;stop-color:#000;stop-opacity:1" transform="rotate(-45)"/><circle cx="-.523" cy="24.921" r=".114" style="font-variation-settings:normal;vector-effect:none;fill:#323232;fill-opacity:1;fill-rule:evenodd;stroke:#323232;stroke-width:.147086;stroke-linecap:round;stroke-linejoin:round;stroke-miterlimit:4;stroke-dasharray:none;stroke-dashoffset:0;stroke-opacity:1;-inkscape-stroke:none;stop-color:#000" transform="rotate(-45)"/><path d="m20.6 10.68.484-.485" style="font-variation-settings:normal;opacity:1;fill:none;fill-opacity:1;stroke:#323232;stroke-width:.40005;stroke-linecap:round;stroke-linejoin:miter;stroke-miterlimit:4;stroke-dasharray:none;stroke-dashoffset:0;stroke-opacity:1;paint-order:fill markers stroke;stop-color:#000;stop-opacity:1"/><path d="m21.495 11.575.485-.485M21.889 9.39l1.1-1.1M22.784 10.286l1.101-1.1M23.794 7.485l1.1-1.1M25.699 5.58l1.1-1.1M24.69 8.38l1.1-1.1M26.245 6.825l.398-.398" style="font-variation-settings:normal;fill:none;fill-opacity:1;stroke:#323232;stroke-width:.40005;stroke-linecap:round;stroke-linejoin:miter;stroke-miterlimit:4;stroke-dasharray:none;stroke-dashoffset:0;stroke-opacity:1;paint-order:fill markers stroke;stop-color:#000"/><circle cx="15.247" cy="23.639" r=".189" style="font-variation-settings:normal;opacity:1;vector-effect:none;fill:#323232;fill-opacity:1;fill-rule:evenodd;stroke:#323232;stroke-width:.147086;stroke-linecap:round;stroke-linejoin:round;stroke-miterlimit:4;stroke-dasharray:none;stroke-dashoffset:0;stroke-opacity:1;-inkscape-stroke:none;stop-color:#000;stop-opacity:1" transform="rotate(-45)"/><path d="M17.286 19.144c1.007-.668 1.313.327 1.322.507.007.13.106.241.158.284.051.043.123.098.177.075.054-.022.095-.026.124-.06l.116-.136-1.307-1.381zM16.357 20.656c.541.863.885.564.961.557.077-.006.102.118.1.17-.004.05-.195.241-.195.241l-.997-.838z" style="font-variation-settings:normal;opacity:1;fill:#323232;fill-opacity:1;stroke:#323232;stroke-width:.0734931;stroke-linecap:butt;stroke-linejoin:miter;stroke-miterlimit:4;stroke-dasharray:none;stroke-dashoffset:0;stroke-opacity:1;paint-order:fill markers stroke;stop-color:#000;stop-opacity:1"/><path d="m17.315 21.372 1.543-1.542" style="font-variation-settings:normal;opacity:1;fill:none;fill-opacity:1;stroke:#323232;stroke-width:.216155;stroke-linecap:butt;stroke-linejoin:miter;stroke-miterlimit:4;stroke-dasharray:none;stroke-dashoffset:0;stroke-opacity:1;paint-order:fill markers stroke;stop-color:#000;stop-opacity:1"/><path d="M16.647 19.545c.452.98 1.168.92 1.168.92s-.243.135-.622.011c-.215-.07-.715-.457-.747-.514-.032-.057.2-.417.2-.417z" style="font-variation-settings:normal;opacity:1;fill:#323232;fill-opacity:1;stroke:#323232;stroke-width:.0734931;stroke-linecap:butt;stroke-linejoin:round;stroke-miterlimit:4;stroke-dasharray:none;stroke-dashoffset:0;stroke-opacity:1;paint-order:fill markers stroke;stop-color:#000;stop-opacity:1"/></svg>