<svg xmlns="http://www.w3.org/2000/svg" width="128" height="128" viewBox="0 0 33.867 33.867"><g transform="matrix(.86211 0 0 .86211 .95 1.31)"><path d="M24.466.23a.524.524 0 0 0-.3.08c-.446.257-10.134 5.944-10.134 5.944l.432.75s.453.738-.229 1.13l-2.179 1.259s-.356.177-.549.178h-.192l-.138.08-.758-1.314L.82 13.814s-.316.247-.07.674l1.357 2.348 24.15-13.942L24.876.499s-.148-.251-.41-.269zM20.24 7.712 2.668 17.857c.106.214 1.085.172 1.386.127.32-.048.961.121 1.398.468.511.405.724.077 1.053 3.539.328 3.46-.093 4.511.073 5.975.167 1.463.409 2.773.978 3.123.57.35 1.958-.301 1.958-.301l5.225-3.017c.263-.152.217-.592.218-.904.001-.312-.068-.389-.207-.607-.14-.218-.222-.676-.334-1.364-.112-.688.104-1.189.434-1.405.33-.216.2-.284-.13-.47-.327-.187-.4-.651-.429-1.037-.028-.386-.08-.836.27-1.22.349-.383-.169-.538-.391-.72-.222-.184-.263-.433-.32-1.049-.057-.615-.643-4.013-.663-4.676-.02-.664.94-1.542 2.437-2.497a485.488 485.488 0 0 1 5.149-3.188z" style="font-variation-settings:normal;vector-effect:none;fill:#fff;fill-opacity:1;stroke:#323232;stroke-width:.790856;stroke-linecap:butt;stroke-linejoin:miter;stroke-miterlimit:4;stroke-dasharray:none;stroke-dashoffset:0;stroke-opacity:1;-inkscape-stroke:none;paint-order:fill markers stroke;stop-color:#000"/><path d="M17.404 10.808c1.12.16 1.265.38 1.677 1.078.413.697.564 1.087.321 1.603-.243.517-.5.739-1.044 1.052-.543.314-2.651 1.669-3.142 1.723-.492.055-.986-.055-1.193-.238-.207-.183-.554-.625-.554-.625l.333 2.276s.183-.271.39-.39c.206-.12.357-.097.696-.128.34-.03.731-.036 1.289-.358.557-.322 3.685-2.293 4.316-2.694.63-.4.928-.536.904-.705-.024-.17-.195-.291-.43-.395-.233-.103-.54-.394-1.03-1.23-.492-.835-.717-1.256-.682-1.514.034-.259.296-.694.296-.694z" style="font-variation-settings:normal;fill:#323232;fill-opacity:1;stroke:#323232;stroke-width:.0988572;stroke-linecap:butt;stroke-linejoin:miter;stroke-miterlimit:4;stroke-dasharray:none;stroke-dashoffset:0;stroke-opacity:1;paint-order:fill markers stroke;stop-color:#000"/><path d="m21.282 7.111.497.838s4.254-2.48 4.777-2.809c.524-.328.715-.425.558-.697l-.307-.53Z" style="font-variation-settings:normal;vector-effect:none;fill:#fff;fill-opacity:1;stroke:#323232;stroke-width:.790856;stroke-linecap:butt;stroke-linejoin:miter;stroke-miterlimit:4;stroke-dasharray:none;stroke-dashoffset:0;stroke-opacity:1;-inkscape-stroke:none;paint-order:fill markers stroke;stop-color:#000"/><path d="m21.465 8.216 3.012-1.74M25.056 6.143l2.327-1.344" style="font-variation-settings:normal;vector-effect:none;fill:none;fill-opacity:1;stroke:#323232;stroke-width:.790856;stroke-linecap:butt;stroke-linejoin:miter;stroke-miterlimit:4;stroke-dasharray:none;stroke-dashoffset:0;stroke-opacity:1;-inkscape-stroke:none;paint-order:fill markers stroke;stop-color:#000"/><path d="M27.533 5.112c.204-.123.187-.307-.059-.741l-.168-.28-.31.419zM10.421 8.072l3.454-1.994.854 1.479-3.591 2.073z" style="font-variation-settings:normal;fill:#323232;fill-opacity:1;stroke:#323232;stroke-width:.0988572;stroke-linecap:butt;stroke-linejoin:miter;stroke-miterlimit:4;stroke-dasharray:none;stroke-dashoffset:0;stroke-opacity:1;paint-order:fill markers stroke;stop-color:#000"/><path d="M10.78 9.422 8.687 10.63" style="font-variation-settings:normal;fill:none;fill-opacity:1;stroke:#323232;stroke-width:.790856;stroke-linecap:round;stroke-linejoin:miter;stroke-miterlimit:4;stroke-dasharray:none;stroke-dashoffset:0;stroke-opacity:1;paint-order:fill markers stroke;stop-color:#000"/><path d="m25.063.176 1.156 2.002" style="font-variation-settings:normal;vector-effect:none;fill:none;fill-opacity:1;stroke:#323232;stroke-width:.790856;stroke-linecap:butt;stroke-linejoin:miter;stroke-miterlimit:4;stroke-dasharray:none;stroke-dashoffset:0;stroke-opacity:1;-inkscape-stroke:none;paint-order:fill markers stroke;stop-color:#000"/><path d="m23.069.301.744-.43s-.506-.168-.555-.14c-.048.028-.231.083-.231.206 0 .122.042.364.042.364zM1.378 12.855l.898-.519s-.34-.271-.416-.227c-.075.043-.492.243-.51.299-.018.056.028.447.028.447z" style="font-variation-settings:normal;fill:#323232;fill-opacity:1;stroke:#323232;stroke-width:.0988572;stroke-linecap:butt;stroke-linejoin:miter;stroke-miterlimit:4;stroke-dasharray:none;stroke-dashoffset:0;stroke-opacity:1;paint-order:fill markers stroke;stop-color:#000"/><path d="M14.653 12.655S13.37 14.38 13.43 14.4c.11.036.286.087.417.096.202.013.483-.085.483-.085s.586.453 1.34.59c.752.135 1.278-.168 1.278-.168s-1.572-.52-2.295-2.178z" style="font-variation-settings:normal;fill:#323232;fill-opacity:1;stroke:#323232;stroke-width:.0988572;stroke-linecap:butt;stroke-linejoin:round;stroke-miterlimit:4;stroke-dasharray:none;stroke-dashoffset:0;stroke-opacity:1;paint-order:fill markers stroke;stop-color:#000"/><path d="M15.147 13.634a6.239 6.239 0 0 0 1.924.696s-.059.2-.558.24c-.5.041-1.515-.272-1.515-.272z" style="font-variation-settings:normal;fill:#323232;fill-opacity:1;stroke:#323232;stroke-width:.0988572;stroke-linecap:butt;stroke-linejoin:round;stroke-miterlimit:4;stroke-dasharray:none;stroke-dashoffset:0;stroke-opacity:1;paint-order:fill markers stroke;stop-color:#000"/><path d="m9.752 31.748 5.463-3.154M8.022 19.82c.57 5.946.15 7.601.453 8.38.303.78.406.958 1.177.514l3.206-1.852s.288-.074.234-.612c-.054-.537-1.16-7.967-1.16-7.967l-.8.005-.08-.026s-.885.668-1.346.79c-.46.124-1.145.22-1.387.296-.242.075-.28.323-.297.473zM1.942 13.277l1.612 2.794M2.94 12.701l1.612 2.794M3.937 12.125 5.55 14.92M4.934 11.55l1.613 2.793M5.932 10.973l1.613 2.794" style="font-variation-settings:normal;vector-effect:none;fill:none;fill-opacity:1;stroke:#323232;stroke-width:.790856;stroke-linecap:butt;stroke-linejoin:miter;stroke-miterlimit:4;stroke-dasharray:none;stroke-dashoffset:0;stroke-opacity:1;-inkscape-stroke:none;paint-order:fill markers stroke;stop-color:#000"/><circle cx="-3.309" cy="19.376" r=".236" style="font-variation-settings:normal;vector-effect:none;fill:#323232;fill-opacity:1;fill-rule:evenodd;stroke:#323232;stroke-width:.197714;stroke-linecap:round;stroke-linejoin:round;stroke-miterlimit:4;stroke-dasharray:none;stroke-dashoffset:0;stroke-opacity:1;-inkscape-stroke:none;stop-color:#000" transform="rotate(-30)"/></g><g transform="matrix(.86211 0 0 .86211 8.786 5.17)"><path d="M24.465.23a.523.523 0 0 0-.299.08c-.446.257-10.134 5.945-10.134 5.945l.432.75s.452.737-.229 1.13l-2.18 1.258s-.356.177-.548.178l-.192.001-.137.08-.76-1.315L.82 13.814s-.316.247-.07.674l1.358 2.348 24.15-13.943L24.876.5s-.148-.252-.41-.27zM20.24 7.712 2.668 17.858c.106.214 1.085.17 1.386.126.32-.048.961.122 1.398.468.511.406.724.077 1.053 3.538.328 3.462-.093 4.512.073 5.976.166 1.464.409 2.773.978 3.123.57.35 1.958-.301 1.958-.301l5.225-3.017c.263-.151.217-.592.218-.904.001-.312-.068-.389-.207-.607-.14-.218-.223-.676-.334-1.364-.112-.687.104-1.19.434-1.405.329-.216.2-.284-.13-.47-.328-.187-.4-.651-.428-1.037-.029-.386-.081-.836.268-1.22.35-.383-.168-.537-.39-.72-.222-.183-.262-.433-.32-1.049-.057-.616-.643-4.013-.663-4.676-.02-.664.94-1.541 2.437-2.497 1.498-.956 5.148-3.188 5.148-3.188z" style="font-variation-settings:normal;vector-effect:none;fill:#fff;fill-opacity:1;stroke:#323232;stroke-width:.790856;stroke-linecap:butt;stroke-linejoin:miter;stroke-miterlimit:4;stroke-dasharray:none;stroke-dashoffset:0;stroke-opacity:1;-inkscape-stroke:none;paint-order:fill markers stroke;stop-color:#000"/><path d="M17.404 10.808c1.12.16 1.265.38 1.677 1.078.413.697.564 1.087.321 1.603-.243.517-.5.739-1.044 1.052-.543.314-2.651 1.669-3.142 1.723-.492.055-.986-.055-1.193-.238-.207-.183-.554-.625-.554-.625l.333 2.276s.183-.271.39-.39c.206-.12.357-.097.696-.128.34-.03.731-.036 1.289-.358.557-.322 3.685-2.293 4.316-2.694.63-.4.928-.536.904-.705-.024-.17-.195-.291-.43-.395-.233-.103-.54-.394-1.03-1.23-.492-.835-.717-1.256-.682-1.514.034-.259.296-.694.296-.694z" style="font-variation-settings:normal;fill:#323232;fill-opacity:1;stroke:#323232;stroke-width:.0988572;stroke-linecap:butt;stroke-linejoin:miter;stroke-miterlimit:4;stroke-dasharray:none;stroke-dashoffset:0;stroke-opacity:1;paint-order:fill markers stroke;stop-color:#000"/><path d="m21.282 7.111.497.838s4.254-2.48 4.777-2.809c.524-.328.715-.425.558-.697l-.307-.53Z" style="font-variation-settings:normal;vector-effect:none;fill:#fff;fill-opacity:1;stroke:#323232;stroke-width:.790856;stroke-linecap:butt;stroke-linejoin:miter;stroke-miterlimit:4;stroke-dasharray:none;stroke-dashoffset:0;stroke-opacity:1;-inkscape-stroke:none;paint-order:fill markers stroke;stop-color:#000"/><path d="m21.465 8.216 3.012-1.74M25.056 6.143l2.327-1.344" style="font-variation-settings:normal;vector-effect:none;fill:none;fill-opacity:1;stroke:#323232;stroke-width:.790856;stroke-linecap:butt;stroke-linejoin:miter;stroke-miterlimit:4;stroke-dasharray:none;stroke-dashoffset:0;stroke-opacity:1;-inkscape-stroke:none;paint-order:fill markers stroke;stop-color:#000"/><path d="M27.533 5.112c.204-.123.187-.307-.059-.741l-.168-.28-.31.419zM10.421 8.072l3.454-1.994.854 1.479-3.591 2.073z" style="font-variation-settings:normal;fill:#323232;fill-opacity:1;stroke:#323232;stroke-width:.0988572;stroke-linecap:butt;stroke-linejoin:miter;stroke-miterlimit:4;stroke-dasharray:none;stroke-dashoffset:0;stroke-opacity:1;paint-order:fill markers stroke;stop-color:#000"/><path d="M10.78 9.422 8.687 10.63" style="font-variation-settings:normal;fill:none;fill-opacity:1;stroke:#323232;stroke-width:.790856;stroke-linecap:round;stroke-linejoin:miter;stroke-miterlimit:4;stroke-dasharray:none;stroke-dashoffset:0;stroke-opacity:1;paint-order:fill markers stroke;stop-color:#000"/><path d="m25.063.176 1.156 2.002" style="font-variation-settings:normal;vector-effect:none;fill:none;fill-opacity:1;stroke:#323232;stroke-width:.790856;stroke-linecap:butt;stroke-linejoin:miter;stroke-miterlimit:4;stroke-dasharray:none;stroke-dashoffset:0;stroke-opacity:1;-inkscape-stroke:none;paint-order:fill markers stroke;stop-color:#000"/><path d="m23.069.301.744-.43s-.506-.168-.555-.14c-.048.028-.231.083-.231.206 0 .122.042.364.042.364zM1.378 12.855l.898-.519s-.34-.271-.416-.227c-.075.043-.492.243-.51.299-.018.056.028.447.028.447z" style="font-variation-settings:normal;fill:#323232;fill-opacity:1;stroke:#323232;stroke-width:.0988572;stroke-linecap:butt;stroke-linejoin:miter;stroke-miterlimit:4;stroke-dasharray:none;stroke-dashoffset:0;stroke-opacity:1;paint-order:fill markers stroke;stop-color:#000"/><path d="M14.653 12.655S13.37 14.38 13.43 14.4c.11.036.286.087.417.096.202.013.483-.085.483-.085s.586.453 1.34.59c.752.135 1.278-.168 1.278-.168s-1.572-.52-2.295-2.178z" style="font-variation-settings:normal;fill:#323232;fill-opacity:1;stroke:#323232;stroke-width:.0988572;stroke-linecap:butt;stroke-linejoin:round;stroke-miterlimit:4;stroke-dasharray:none;stroke-dashoffset:0;stroke-opacity:1;paint-order:fill markers stroke;stop-color:#000"/><path d="M15.147 13.634a6.239 6.239 0 0 0 1.924.696s-.059.2-.558.24c-.5.041-1.515-.272-1.515-.272z" style="font-variation-settings:normal;fill:#323232;fill-opacity:1;stroke:#323232;stroke-width:.0988572;stroke-linecap:butt;stroke-linejoin:round;stroke-miterlimit:4;stroke-dasharray:none;stroke-dashoffset:0;stroke-opacity:1;paint-order:fill markers stroke;stop-color:#000"/><path d="m9.752 31.748 5.463-3.154M8.022 19.82c.57 5.946.15 7.601.453 8.38.303.78.406.958 1.177.514l3.206-1.852s.288-.074.234-.612c-.054-.537-1.16-7.967-1.16-7.967l-.8.005-.08-.026s-.885.668-1.346.79c-.46.124-1.145.22-1.387.296-.242.075-.28.323-.297.473zM1.942 13.277l1.612 2.794M2.94 12.701l1.612 2.794M3.937 12.125 5.55 14.92M4.934 11.55l1.613 2.793M5.932 10.973l1.613 2.794" style="font-variation-settings:normal;vector-effect:none;fill:none;fill-opacity:1;stroke:#323232;stroke-width:.790856;stroke-linecap:butt;stroke-linejoin:miter;stroke-miterlimit:4;stroke-dasharray:none;stroke-dashoffset:0;stroke-opacity:1;-inkscape-stroke:none;paint-order:fill markers stroke;stop-color:#000"/><circle cx="-3.309" cy="19.376" r=".236" style="font-variation-settings:normal;vector-effect:none;fill:#323232;fill-opacity:1;fill-rule:evenodd;stroke:#323232;stroke-width:.197714;stroke-linecap:round;stroke-linejoin:round;stroke-miterlimit:4;stroke-dasharray:none;stroke-dashoffset:0;stroke-opacity:1;-inkscape-stroke:none;stop-color:#000" transform="rotate(-30)"/></g></svg>