<?xml version="1.0" encoding="UTF-8" standalone="no"?>
<svg
   width="136.561"
   height="136.561"
   version="1.1"
   id="svg8"
   sodipodi:docname="loot-weapon-og-m9-dual.svg"
   inkscape:version="1.4.2 (f4327f4, 2025-05-13)"
   xmlns:inkscape="http://www.inkscape.org/namespaces/inkscape"
   xmlns:sodipodi="http://sodipodi.sourceforge.net/DTD/sodipodi-0.dtd"
   xmlns="http://www.w3.org/2000/svg"
   xmlns:svg="http://www.w3.org/2000/svg">
  <defs
     id="defs8" />
  <sodipodi:namedview
     id="namedview8"
     pagecolor="#ffffff"
     bordercolor="#000000"
     borderopacity="0.25"
     inkscape:showpageshadow="2"
     inkscape:pageopacity="0.0"
     inkscape:pagecheckerboard="0"
     inkscape:deskcolor="#d1d1d1"
     inkscape:zoom="3.1523438"
     inkscape:cx="62.334572"
     inkscape:cy="48.693927"
     inkscape:window-width="1920"
     inkscape:window-height="1009"
     inkscape:window-x="-8"
     inkscape:window-y="-8"
     inkscape:window-maximized="1"
     inkscape:current-layer="svg8" />
  <g
     id="g17"
     transform="translate(-11.263594,4.2803343)">
    <g
       transform="translate(5.7637458,-7.1099176)"
       id="g8">
      <path
         d="M 20.999825,71.395697 20.407026,61.528956 100.4041,15.341947 103.52502,20.747532 88.845115,32.225203 Z"
         fill="#ffffff"
         stroke="#323232"
         stroke-width="2.775"
         id="path1"
         sodipodi:nodetypes="cccccc" />
      <path
         style="baseline-shift:baseline;display:inline;overflow:visible;opacity:1;vector-effect:none;fill:#ffffff;enable-background:accumulate;stop-color:#000000;stop-opacity:1"
         d="m 105.00301,23.307508 -14.679896,11.477664 2.774504,4.805572 15.979892,-9.225997 z M 21.328388,74.619551 c -6.086156,3.729005 -5.922315,9.476026 -7.429825,12.306538 0,0 10.600656,-10.55561 16.059093,-6.620275 L 40.240621,125.02975 63.569173,111.56164 54.140826,84.204163 c 1.325673,-2.130757 1.829817,-4.3915 5.80738,-6.102667 0,0 16.670535,-6.640091 15.416622,-14.145139 l -0.793873,-4.515571 c -2.613,-5.513 -2.220513,-7.871917 0.532487,-9.461917 L 90.22005,41.252109 87.519551,36.40381 Z m 34.893567,-11.907765 6.254,-3.61 c 3.126,-1.806 7.026,-0.827 8.425,1.596 1.399,2.423 0.646,6.896 -2.48,8.701 l -6.253,3.61 c -3.127,1.805 -8,0.581 -9.4,-1.842 -1.398,-2.423 0.328,-6.65 3.454,-8.455 z"
         id="path12" />
      <path
         style="fill:#212121;fill-opacity:1;stroke:none;stroke-width:2.775;stroke-dasharray:none;stroke-opacity:1"
         d="M 20.48989,93.313561 35.536349,43.421857 53.591694,45.165906 45.423068,97.239011 25.057089,96.468225 Z"
         id="path9"
         transform="rotate(-30,80.815397,70.530529)"
         sodipodi:nodetypes="cccccc" />
      <path
         style="baseline-shift:baseline;display:inline;overflow:visible;opacity:1;vector-effect:none;fill:#323232;enable-background:accumulate;stop-color:#000000;stop-opacity:1"
         d="m 105.40625,21.230469 -16.886719,13.205078 4.070313,7.050781 18.382816,-10.613281 z m -0.80664,4.154297 2.58203,4.472656 -13.576171,7.83789 -1.478516,-2.560546 z m -16.552735,9.113281 -67.427734,38.929687 -0.01563,0.0078 c -6.637111,4.066577 -6.808086,10.731962 -7.929688,12.83789 l 2.203125,1.636719 c 0,0 2.57699,-2.555488 5.755859,-4.603515 1.589435,-1.024014 3.322364,-1.902068 4.845704,-2.279297 1.34129,-0.332148 2.390864,-0.222076 3.28125,0.259765 L 39.308594,127.16992 65.253906,112.19141 55.658203,84.349609 c 1.136838,-2.024175 1.572128,-3.567709 4.837891,-4.972656 l -0.03516,0.01367 c 0,0 4.267273,-1.692833 8.419922,-4.382813 2.076325,-1.344989 4.14144,-2.936601 5.673828,-4.791015 1.532389,-1.854414 2.579042,-4.086337 2.177735,-6.488281 v -0.0059 l -0.828125,-4.707031 -0.08008,-0.169922 c -1.262181,-2.662994 -1.696437,-4.460316 -1.615235,-5.498047 0.0812,-1.037731 0.443996,-1.50731 1.587891,-2.167969 l 16.300781,-9.408203 z m -1.054688,3.8125 1.351563,2.423828 -13.933594,8.042969 c -1.609105,0.929341 -2.818708,2.436038 -2.96875,4.353515 -0.145615,1.860911 0.514982,3.954164 1.78711,6.679688 l 0.767578,4.375 c 0.225649,1.35058 -0.339404,2.762274 -1.580078,4.263672 -1.240674,1.501397 -3.108399,2.977304 -5.042969,4.230468 -3.86914,2.506329 -7.9375,4.132813 -7.9375,4.132813 l -0.01758,0.0078 -0.01758,0.0059 c -4.345994,1.869668 -5.261023,4.753576 -6.4375,6.644531 l -0.34961,0.560547 9.271485,26.900392 -20.710938,11.95703 -9.980469,-43.402344 -0.423828,-0.306641 c -1.776109,-1.28051 -3.957562,-1.340837 -5.957031,-0.845703 -1.999469,0.495135 -3.94056,1.517653 -5.683594,2.640625 -0.901892,0.581056 -1.517286,1.131187 -2.283203,1.720703 0.795503,-2.443526 1.943248,-4.892848 5.207031,-6.892578 z m -22.28125,18.548828 c -0.996606,0.15815 -1.992962,0.499837 -2.929687,1.041016 l -6.253906,3.609375 c -1.873407,1.081733 -3.253274,2.812174 -4.013672,4.673828 -0.760398,1.861653 -0.944336,3.947669 0.05273,5.675781 v 0.002 c 0.998243,1.727672 2.900217,2.724884 4.962891,3.167969 2.062673,0.443085 4.380662,0.30803 6.332031,-0.81836 l 6.253906,-3.611328 c 1.951031,-1.126555 3.111903,-3.040741 3.589844,-4.988281 0.477941,-1.94754 0.336705,-3.982389 -0.601562,-5.607422 -1.407305,-2.437383 -4.402759,-3.61898 -7.392579,-3.144531 z m 0.40625,2.779297 c 1.97265,-0.271519 3.890836,0.554836 4.582032,1.751953 0.460733,0.797967 0.640856,2.212634 0.310547,3.558594 -0.330309,1.34596 -1.108235,2.569602 -2.283204,3.248047 l -6.251953,3.609375 c -1.17563,0.67861 -2.857704,0.83318 -4.363281,0.509765 -1.504886,-0.323266 -2.738288,-1.148622 -3.140625,-1.84375 -0.40093,-0.694888 -0.423274,-1.931388 0.111328,-3.240234 0.534602,-1.308847 1.581392,-2.595093 2.833985,-3.31836 l 6.253906,-3.611328 c 0.626275,-0.361821 1.289716,-0.573556 1.947265,-0.664062 z"
         id="path13" />
      <path
         d="m 55.225314,65.342384 c 0.472,1.163 1.862,2.431 3.161,3.161 1.156,0.65 2.278,0.861 3.866,0.94 -0.898,0.545 -4.3,-0.206 -4.806,-0.397 -0.975,-0.358 -3.207,-2.28 -4.22,-2.55 z"
         fill="#323232"
         stroke="#323232"
         stroke-width="0.783"
         id="path4" />
      <path
         d="M 42.675089,118.13237 58.390411,109.05979 45.470724,66.268895 33.964407,74.731518 Z"
         fill="none"
         stroke="#323232"
         stroke-width="2.775"
         id="path5"
         style="fill:#ffffff;fill-opacity:1;stroke-width:2.775;stroke-linejoin:round;stroke-dasharray:none"
         sodipodi:nodetypes="ccccc" />
      <circle
         transform="rotate(-30)"
         r="1.585"
         cy="88.371246"
         cx="-2.6521378"
         fill="none"
         stroke="#323232"
         stroke-width="2.378"
         id="circle5" />
      <circle
         transform="rotate(-30)"
         cx="-11.241138"
         cy="118.85024"
         r="1.585"
         fill="none"
         stroke="#323232"
         stroke-width="2.378"
         id="circle6" />
      <path
         d="m 64.139094,116.98947 -18.729137,10.81327 -2.106954,-3.64823 18.729526,-10.81372 z"
         fill="#323232"
         stroke="#323232"
         stroke-width="1.421"
         id="path7"
         sodipodi:nodetypes="ccccc" />
      <path
         style="baseline-shift:baseline;display:inline;overflow:visible;opacity:1;vector-effect:none;fill:#323232;enable-background:accumulate;stop-color:#000000;stop-opacity:1"
         d="m 5.4998484,72.33516 c 5.1070496,-2.020139 8.0868806,-1.590668 11.8469706,0.259825 l 0.781218,-5.083029 C 14.092525,65.569836 7.0838509,69.097183 5.4998484,72.33516 Z"
         id="path8"
         sodipodi:nodetypes="cccc" />
    </g>
    <g
       transform="matrix(-1,0,0,1,153.32423,-7.1095795)"
       id="g16">
      <path
         d="M 20.999825,71.395697 20.407026,61.528956 100.4041,15.341947 103.52502,20.747532 88.845115,32.225203 Z"
         fill="#ffffff"
         stroke="#323232"
         stroke-width="2.775"
         id="path2"
         sodipodi:nodetypes="cccccc" />
      <path
         style="baseline-shift:baseline;display:inline;overflow:visible;opacity:1;vector-effect:none;fill:#ffffff;enable-background:accumulate;stop-color:#000000;stop-opacity:1"
         d="m 105.00301,23.307508 -14.679896,11.477664 2.774504,4.805572 15.979892,-9.225997 z M 21.328388,74.619551 c -6.086156,3.729005 -5.922315,9.476026 -7.429825,12.306538 0,0 10.600656,-10.55561 16.059093,-6.620275 L 40.240621,125.02975 63.569173,111.56164 54.140826,84.204163 c 1.325673,-2.130757 1.829817,-4.3915 5.80738,-6.102667 0,0 16.670535,-6.640091 15.416622,-14.145139 l -0.793873,-4.515571 c -2.613,-5.513 -2.220513,-7.871917 0.532487,-9.461917 L 90.22005,41.252109 87.519551,36.40381 Z m 34.893567,-11.907765 6.254,-3.61 c 3.126,-1.806 7.026,-0.827 8.425,1.596 1.399,2.423 0.646,6.896 -2.48,8.701 l -6.253,3.61 c -3.127,1.805 -8,0.581 -9.4,-1.842 -1.398,-2.423 0.328,-6.65 3.454,-8.455 z"
         id="path3" />
      <path
         style="fill:#212121;fill-opacity:1;stroke:none;stroke-width:2.775;stroke-dasharray:none;stroke-opacity:1"
         d="M 20.48989,93.313561 35.536349,43.421857 53.591694,45.165906 45.423068,97.239011 25.057089,96.468225 Z"
         id="path6"
         transform="rotate(-30,80.815397,70.530529)"
         sodipodi:nodetypes="cccccc" />
      <path
         style="baseline-shift:baseline;display:inline;overflow:visible;opacity:1;vector-effect:none;fill:#323232;enable-background:accumulate;stop-color:#000000;stop-opacity:1"
         d="m 105.40625,21.230469 -16.886719,13.205078 4.070313,7.050781 18.382816,-10.613281 z m -0.80664,4.154297 2.58203,4.472656 -13.576171,7.83789 -1.478516,-2.560546 z m -16.552735,9.113281 -67.427734,38.929687 -0.01563,0.0078 c -6.637111,4.066577 -6.808086,10.731962 -7.929688,12.83789 l 2.203125,1.636719 c 0,0 2.57699,-2.555488 5.755859,-4.603515 1.589435,-1.024014 3.322364,-1.902068 4.845704,-2.279297 1.34129,-0.332148 2.390864,-0.222076 3.28125,0.259765 L 39.308594,127.16992 65.253906,112.19141 55.658203,84.349609 c 1.136838,-2.024175 1.572128,-3.567709 4.837891,-4.972656 l -0.03516,0.01367 c 0,0 4.267273,-1.692833 8.419922,-4.382813 2.076325,-1.344989 4.14144,-2.936601 5.673828,-4.791015 1.532389,-1.854414 2.579042,-4.086337 2.177735,-6.488281 v -0.0059 l -0.828125,-4.707031 -0.08008,-0.169922 c -1.262181,-2.662994 -1.696437,-4.460316 -1.615235,-5.498047 0.0812,-1.037731 0.443996,-1.50731 1.587891,-2.167969 l 16.300781,-9.408203 z m -1.054688,3.8125 1.351563,2.423828 -13.933594,8.042969 c -1.609105,0.929341 -2.818708,2.436038 -2.96875,4.353515 -0.145615,1.860911 0.514982,3.954164 1.78711,6.679688 l 0.767578,4.375 c 0.225649,1.35058 -0.339404,2.762274 -1.580078,4.263672 -1.240674,1.501397 -3.108399,2.977304 -5.042969,4.230468 -3.86914,2.506329 -7.9375,4.132813 -7.9375,4.132813 l -0.01758,0.0078 -0.01758,0.0059 c -4.345994,1.869668 -5.261023,4.753576 -6.4375,6.644531 l -0.34961,0.560547 9.271485,26.900392 -20.710938,11.95703 -9.980469,-43.402344 -0.423828,-0.306641 c -1.776109,-1.28051 -3.957562,-1.340837 -5.957031,-0.845703 -1.999469,0.495135 -3.94056,1.517653 -5.683594,2.640625 -0.901892,0.581056 -1.517286,1.131187 -2.283203,1.720703 0.795503,-2.443526 1.943248,-4.892848 5.207031,-6.892578 z m -22.28125,18.548828 c -0.996606,0.15815 -1.992962,0.499837 -2.929687,1.041016 l -6.253906,3.609375 c -1.873407,1.081733 -3.253274,2.812174 -4.013672,4.673828 -0.760398,1.861653 -0.944336,3.947669 0.05273,5.675781 v 0.002 c 0.998243,1.727672 2.900217,2.724884 4.962891,3.167969 2.062673,0.443085 4.380662,0.30803 6.332031,-0.81836 l 6.253906,-3.611328 c 1.951031,-1.126555 3.111903,-3.040741 3.589844,-4.988281 0.477941,-1.94754 0.336705,-3.982389 -0.601562,-5.607422 -1.407305,-2.437383 -4.402759,-3.61898 -7.392579,-3.144531 z m 0.40625,2.779297 c 1.97265,-0.271519 3.890836,0.554836 4.582032,1.751953 0.460733,0.797967 0.640856,2.212634 0.310547,3.558594 -0.330309,1.34596 -1.108235,2.569602 -2.283204,3.248047 l -6.251953,3.609375 c -1.17563,0.67861 -2.857704,0.83318 -4.363281,0.509765 -1.504886,-0.323266 -2.738288,-1.148622 -3.140625,-1.84375 -0.40093,-0.694888 -0.423274,-1.931388 0.111328,-3.240234 0.534602,-1.308847 1.581392,-2.595093 2.833985,-3.31836 l 6.253906,-3.611328 c 0.626275,-0.361821 1.289716,-0.573556 1.947265,-0.664062 z"
         id="path10" />
      <path
         d="m 55.225314,65.342384 c 0.472,1.163 1.862,2.431 3.161,3.161 1.156,0.65 2.278,0.861 3.866,0.94 -0.898,0.545 -4.3,-0.206 -4.806,-0.397 -0.975,-0.358 -3.207,-2.28 -4.22,-2.55 z"
         fill="#323232"
         stroke="#323232"
         stroke-width="0.783"
         id="path11" />
      <path
         d="M 42.675089,118.13237 58.390411,109.05979 45.470724,66.268895 33.964407,74.731518 Z"
         fill="none"
         stroke="#323232"
         stroke-width="2.775"
         id="path14"
         style="fill:#ffffff;fill-opacity:1;stroke-width:2.775;stroke-linejoin:round;stroke-dasharray:none"
         sodipodi:nodetypes="ccccc" />
      <circle
         transform="rotate(-30)"
         r="1.585"
         cy="88.371246"
         cx="-2.6521378"
         fill="none"
         stroke="#323232"
         stroke-width="2.378"
         id="circle14" />
      <circle
         transform="rotate(-30)"
         cx="-11.241138"
         cy="118.85024"
         r="1.585"
         fill="none"
         stroke="#323232"
         stroke-width="2.378"
         id="circle15" />
      <path
         d="m 64.139094,116.98947 -18.729137,10.81327 -2.106954,-3.64823 18.729526,-10.81372 z"
         fill="#323232"
         stroke="#323232"
         stroke-width="1.421"
         id="path15"
         sodipodi:nodetypes="ccccc" />
      <path
         style="baseline-shift:baseline;display:inline;overflow:visible;opacity:1;vector-effect:none;fill:#323232;enable-background:accumulate;stop-color:#000000;stop-opacity:1"
         d="m 5.4998484,72.33516 c 5.1070496,-2.020139 8.0868806,-1.590668 11.8469706,0.259825 l 0.781218,-5.083029 C 14.092525,65.569836 7.0838509,69.097183 5.4998484,72.33516 Z"
         id="path16"
         sodipodi:nodetypes="cccc" />
    </g>
  </g>
</svg>
