<svg xmlns="http://www.w3.org/2000/svg" width="128" height="128" viewBox="0 0 33.87 33.87"><g transform="matrix(.93306 0 0 .93306 1.6 -1.36)"><path d="M1.33 22.71c-1 5.31-.06 6.93.66 8.23a10.7 10.7 0 0 0 1.9 2.56l.4.27 3.36-1.95s.5-.32.86-.02c.37.3.67.44.96.34.29-.1.44-.36.44-.36s-1.08-1.65-1.66-2.98a15.34 15.34 0 0 1-1.05-3.5c-.13-.83-.14-1.25-.14-1.25l-1.15-.07s-.22-.57-.35-1.03l-.26-.96-.74-.34c-.46-.2-.57-.24-.67-.17-.14.12-.44.27-.8.29-.26 0-.4.02-.4.02l-.11.24c-.14.36-.28.87-.28.87z" style="font-variation-settings:normal;vector-effect:none;fill:#fff;fill-opacity:1;stroke:#323232;stroke-width:.805386;stroke-linecap:butt;stroke-linejoin:miter;stroke-miterlimit:4;stroke-dasharray:none;stroke-dashoffset:0;stroke-opacity:1;-inkscape-stroke:none;paint-order:fill markers stroke;stop-color:#000"/><path d="M1.47 21.9c.23-.64.45-1.2.66-1.2.21-.02.69.02.94-.04.26-.07.34-.13.54-.27s.65-.06.95.06c.3.1 1.7.8 1.7.8a15.08 15.08 0 0 0 .44 1.7l.4.02s.05-.35.46-.73c.42-.38.53-.42 1.04-.71l1.14-.66s-.3-.99.08-1.76c.37-.78 1.2-1.16 2.04-1.64L16.13 15s-.1-1.48.52-2.55c.54-.92.95-1.63 2.82-2.74l.88-.5-.5-.88s-.3-.53.27-.85l.93-.54-.92-1.58 1.1-.64-1.44-2.5-.34.2-.12-.22-7.8 4.5 3.62 6.26-6.3 3.64-3.61-6.26-1.63.94s-.34.18-.2.44c.15.26 1.11 1.75.76 3.04-.36 1.29-.52 1.98-1.46 2.52L.93 18.31s-.46.23-.26.57c.2.34.84 1.94.8 3.02z" style="font-variation-settings:normal;vector-effect:none;fill:#fff;fill-opacity:1;stroke:#323232;stroke-width:.805386;stroke-linecap:butt;stroke-linejoin:miter;stroke-miterlimit:4;stroke-dasharray:none;stroke-dashoffset:0;stroke-opacity:1;-inkscape-stroke:none;paint-order:fill markers stroke;stop-color:#000"/><path d="M10.13 20.9c.77 1.31 1.82 1.44 2.48 1.35.67-.1.86-.26 1.74-.86.87-.6 2.13-1.32 2.55-1.9.43-.6.58-1.14.4-1.84-.19-.71-.37-1.06-1.09-1.4-.72-.34-1.41-.26-1.41-.26l1.68-.97s-.03.38.34.97c.38.6.48.91.79 1.12.3.22.33.31.31.4a12 12 0 0 1-.67 2.06c-.26.42-.93.83-1.32 1.1-.39.29-2.5 1.75-2.93 1.86-.43.1-1.17.22-1.76-.08-.58-.3-.76-.57-1.2-.78a3.4 3.4 0 0 0-.97-.26z" style="font-variation-settings:normal;fill:#323232;fill-opacity:1;stroke:#323232;stroke-width:.100674;stroke-linecap:butt;stroke-linejoin:miter;stroke-miterlimit:4;stroke-dasharray:none;stroke-dashoffset:0;stroke-opacity:1;paint-order:fill markers stroke;stop-color:#000"/><path d="M12.62 17.28c.06.9.05.96 0 1.2a1.8 1.8 0 0 0 .54 1.61c.63.58 1.34.44 1.48.45.15.01.13.16.13.16s-.2.19-.65.2c-.45 0-1.21-.26-1.58-.62a3.9 3.9 0 0 1-.79-1.35c-.1-.32-.14-.43-.37-.48-.22-.04-.28.1-.43.15-.14.06-.57.15-.57.15z" style="font-variation-settings:normal;fill:#323232;fill-opacity:1;stroke:#323232;stroke-width:.100674;stroke-linecap:butt;stroke-linejoin:round;stroke-miterlimit:4;stroke-dasharray:none;stroke-dashoffset:0;stroke-opacity:1;paint-order:fill markers stroke;stop-color:#000"/><circle cx="-3.34" cy="21.84" r=".34" style="font-variation-settings:normal;vector-effect:none;fill:#323232;fill-opacity:1;fill-rule:evenodd;stroke:#323232;stroke-width:.201347;stroke-linecap:round;stroke-linejoin:round;stroke-miterlimit:4;stroke-dasharray:none;stroke-dashoffset:0;stroke-opacity:1;-inkscape-stroke:none;stop-color:#000" transform="rotate(-30)"/><path d="m12.62 10.71-2.37 1.32c-.63.34-1.24.39-1.4.2-.17-.2-.26-.29 0-.79.25-.5.25-.45 3-2.04l-.63-1.12-.4-.1S9.04 9.25 8.7 9.4c-.35.15-.82.25-1.05.39l-.83.52c-.32.14.51 1.63 1.14 2.65.62 1.03.65 1.13 1.04 1.58.39.45.5.5.5.5l.56-.32c.27-.84 1.52-1.44 2.4-1.95l1.03-.6z" style="font-variation-settings:normal;vector-effect:none;fill:#fff;fill-opacity:1;stroke:#323232;stroke-width:.805386;stroke-linecap:butt;stroke-linejoin:miter;stroke-miterlimit:4;stroke-dasharray:none;stroke-dashoffset:0;stroke-opacity:1;-inkscape-stroke:none;paint-order:fill markers stroke;stop-color:#000"/><path d="m20.13 5.36-6.97 4.02M20.3 7.37l-6.07 3.5" style="font-variation-settings:normal;vector-effect:none;fill:none;fill-opacity:1;stroke:#323232;stroke-width:.805386;stroke-linecap:butt;stroke-linejoin:miter;stroke-miterlimit:4;stroke-dasharray:none;stroke-dashoffset:0;stroke-opacity:1;-inkscape-stroke:none;paint-order:fill markers stroke;stop-color:#000"/><path d="M3.93 10.76c-.22-.65-.23-.64-.04-.75.2-.11.78-.41.87-.38.1.02.46.44.46.44zM17.3 2.96c.05-.14.2-.25.25-.3.04-.05.04-.07.03-.2l-.04-.28.69-.37c.15-.07.3-.12.42.03.13.15.27.27.27.27z" style="font-variation-settings:normal;fill:#323232;fill-opacity:1;stroke:#323232;stroke-width:.100674;stroke-linecap:butt;stroke-linejoin:miter;stroke-miterlimit:4;stroke-dasharray:none;stroke-dashoffset:0;stroke-opacity:1;paint-order:fill markers stroke;stop-color:#000"/><path d="m5.29 10.19 6.5-3.75" style="font-variation-settings:normal;fill:none;fill-opacity:1;stroke:#323232;stroke-width:.604038;stroke-linecap:butt;stroke-linejoin:miter;stroke-miterlimit:4;stroke-dasharray:none;stroke-dashoffset:0;stroke-opacity:1;paint-order:fill markers stroke;stop-color:#000"/><path d="M1.84 17.53c.08-.99 2-2.38 2-2.38l.12-.41s-.3-.34-.97-.6c-.69-.27-1.67-.09-1.75-.13-.08-.05-.16-.25-.07-.33.08-.09.57-.23 1.26-.2.7.04 1.83.48 1.83.48l-.15 1.36-1.32 1.75z" style="font-variation-settings:normal;fill:#323232;fill-opacity:1;stroke:#323232;stroke-width:.100674;stroke-linecap:butt;stroke-linejoin:miter;stroke-miterlimit:4;stroke-dasharray:none;stroke-dashoffset:0;stroke-opacity:1;paint-order:fill markers stroke;stop-color:#000"/><path d="M2.3 19.09c-.28.15-.5.44-.24.92.16.27.53.4.8.25L3 20.2c.11-.04.28-.1.36-.09.1.02.56.2.65.24.08.03.19.07.26.03.08-.05.24-.2.27-.3.03-.11.06-.37 0-.4a9 9 0 0 0-1.51-.64.91.91 0 0 0-.72.05z" style="font-variation-settings:normal;fill:#323232;fill-opacity:1;fill-rule:evenodd;stroke:#fff;stroke-width:.201347;stroke-linecap:round;stroke-linejoin:round;stroke-miterlimit:4;stroke-dasharray:none;stroke-dashoffset:0;stroke-opacity:1;stop-color:#000"/><path d="M4.35 13.6c1.11-.65 1.26-.58 1.6 0l1.42 2.46s.4.8.7.62l.65-.38" style="font-variation-settings:normal;fill:none;fill-opacity:1;stroke:#323232;stroke-width:.604038;stroke-linecap:butt;stroke-linejoin:miter;stroke-miterlimit:4;stroke-dasharray:none;stroke-dashoffset:0;stroke-opacity:1;paint-order:fill markers stroke;stop-color:#000"/><circle cx="-10.12" cy="26.13" r=".49" style="font-variation-settings:normal;fill:none;fill-opacity:1;fill-rule:evenodd;stroke:#323232;stroke-width:.402694;stroke-linecap:round;stroke-linejoin:round;stroke-miterlimit:4;stroke-dasharray:none;stroke-dashoffset:0;stroke-opacity:1;stop-color:#000" transform="rotate(-30)"/><path d="m3.53 33.1 5.5-3.17" style="font-variation-settings:normal;fill:none;fill-opacity:1;stroke:#323232;stroke-width:.604038;stroke-linecap:butt;stroke-linejoin:miter;stroke-miterlimit:4;stroke-dasharray:none;stroke-dashoffset:0;stroke-opacity:1;paint-order:fill markers stroke;stop-color:#000"/></g><g transform="matrix(.93306 0 0 .93306 11.73 1.74)"><path d="M1.33 22.71c-1 5.31-.06 6.93.66 8.23a10.7 10.7 0 0 0 1.9 2.56l.4.27 3.36-1.95s.5-.32.86-.02c.37.3.67.44.96.34.29-.1.44-.36.44-.36s-1.08-1.65-1.66-2.98a15.34 15.34 0 0 1-1.05-3.5c-.13-.83-.14-1.25-.14-1.25l-1.15-.07s-.22-.57-.35-1.03l-.26-.96-.74-.34c-.46-.2-.57-.24-.67-.17-.14.12-.44.27-.8.29-.26 0-.4.02-.4.02l-.11.24c-.14.36-.28.87-.28.87z" style="font-variation-settings:normal;vector-effect:none;fill:#fff;fill-opacity:1;stroke:#323232;stroke-width:.805386;stroke-linecap:butt;stroke-linejoin:miter;stroke-miterlimit:4;stroke-dasharray:none;stroke-dashoffset:0;stroke-opacity:1;-inkscape-stroke:none;paint-order:fill markers stroke;stop-color:#000"/><path d="M1.47 21.9c.23-.64.45-1.2.66-1.2.21-.02.69.02.94-.04.26-.07.34-.13.54-.27s.65-.06.95.06c.3.1 1.7.8 1.7.8a15.08 15.08 0 0 0 .44 1.7l.4.02s.05-.35.46-.73c.42-.38.53-.42 1.04-.71l1.14-.66s-.3-.99.08-1.76c.37-.78 1.2-1.16 2.04-1.64L16.13 15s-.1-1.48.52-2.55c.54-.92.95-1.63 2.82-2.74l.88-.5-.5-.88s-.3-.53.27-.85l.93-.54-.92-1.58 1.1-.64-1.44-2.5-.34.2-.12-.22-7.8 4.5 3.62 6.26-6.3 3.64-3.61-6.26-1.63.94s-.34.18-.2.44c.15.26 1.11 1.75.76 3.04-.36 1.29-.52 1.98-1.46 2.52L.93 18.31s-.46.23-.26.57c.2.34.84 1.94.8 3.02z" style="font-variation-settings:normal;vector-effect:none;fill:#fff;fill-opacity:1;stroke:#323232;stroke-width:.805386;stroke-linecap:butt;stroke-linejoin:miter;stroke-miterlimit:4;stroke-dasharray:none;stroke-dashoffset:0;stroke-opacity:1;-inkscape-stroke:none;paint-order:fill markers stroke;stop-color:#000"/><path d="M10.13 20.9c.77 1.31 1.82 1.44 2.48 1.35.67-.1.86-.26 1.74-.86.87-.6 2.13-1.32 2.55-1.9.43-.6.58-1.14.4-1.84-.19-.71-.37-1.06-1.09-1.4-.72-.34-1.41-.26-1.41-.26l1.68-.97s-.03.38.34.97c.38.6.48.91.79 1.12.3.22.33.31.31.4a12 12 0 0 1-.67 2.06c-.26.42-.93.83-1.32 1.1-.39.29-2.5 1.75-2.93 1.86-.43.1-1.17.22-1.76-.08-.58-.3-.76-.57-1.2-.78a3.4 3.4 0 0 0-.97-.26z" style="font-variation-settings:normal;fill:#323232;fill-opacity:1;stroke:#323232;stroke-width:.100674;stroke-linecap:butt;stroke-linejoin:miter;stroke-miterlimit:4;stroke-dasharray:none;stroke-dashoffset:0;stroke-opacity:1;paint-order:fill markers stroke;stop-color:#000"/><path d="M12.62 17.28c.06.9.05.96 0 1.2a1.8 1.8 0 0 0 .54 1.61c.63.58 1.34.44 1.48.45.15.01.13.16.13.16s-.2.19-.65.2c-.45 0-1.21-.26-1.58-.62a3.9 3.9 0 0 1-.79-1.35c-.1-.32-.14-.43-.37-.48-.22-.04-.28.1-.43.15-.14.06-.57.15-.57.15z" style="font-variation-settings:normal;fill:#323232;fill-opacity:1;stroke:#323232;stroke-width:.100674;stroke-linecap:butt;stroke-linejoin:round;stroke-miterlimit:4;stroke-dasharray:none;stroke-dashoffset:0;stroke-opacity:1;paint-order:fill markers stroke;stop-color:#000"/><circle cx="-3.34" cy="21.84" r=".34" style="font-variation-settings:normal;vector-effect:none;fill:#323232;fill-opacity:1;fill-rule:evenodd;stroke:#323232;stroke-width:.201347;stroke-linecap:round;stroke-linejoin:round;stroke-miterlimit:4;stroke-dasharray:none;stroke-dashoffset:0;stroke-opacity:1;-inkscape-stroke:none;stop-color:#000" transform="rotate(-30)"/><path d="m12.62 10.71-2.37 1.32c-.63.34-1.24.39-1.4.2-.17-.2-.26-.29 0-.79.25-.5.25-.45 3-2.04l-.63-1.12-.4-.1S9.04 9.25 8.7 9.4c-.35.15-.82.25-1.05.39l-.83.52c-.32.14.51 1.63 1.14 2.65.62 1.03.65 1.13 1.04 1.58.39.45.5.5.5.5l.56-.32c.27-.84 1.52-1.44 2.4-1.95l1.03-.6z" style="font-variation-settings:normal;vector-effect:none;fill:#fff;fill-opacity:1;stroke:#323232;stroke-width:.805386;stroke-linecap:butt;stroke-linejoin:miter;stroke-miterlimit:4;stroke-dasharray:none;stroke-dashoffset:0;stroke-opacity:1;-inkscape-stroke:none;paint-order:fill markers stroke;stop-color:#000"/><path d="m20.13 5.36-6.97 4.02M20.3 7.37l-6.07 3.5" style="font-variation-settings:normal;vector-effect:none;fill:none;fill-opacity:1;stroke:#323232;stroke-width:.805386;stroke-linecap:butt;stroke-linejoin:miter;stroke-miterlimit:4;stroke-dasharray:none;stroke-dashoffset:0;stroke-opacity:1;-inkscape-stroke:none;paint-order:fill markers stroke;stop-color:#000"/><path d="M3.93 10.76c-.22-.65-.23-.64-.04-.75.2-.11.78-.41.87-.38.1.02.46.44.46.44zM17.3 2.96c.05-.14.2-.25.25-.3.04-.05.04-.07.03-.2l-.04-.28.69-.37c.15-.07.3-.12.42.03.13.15.27.27.27.27z" style="font-variation-settings:normal;fill:#323232;fill-opacity:1;stroke:#323232;stroke-width:.100674;stroke-linecap:butt;stroke-linejoin:miter;stroke-miterlimit:4;stroke-dasharray:none;stroke-dashoffset:0;stroke-opacity:1;paint-order:fill markers stroke;stop-color:#000"/><path d="m5.29 10.19 6.5-3.75" style="font-variation-settings:normal;fill:none;fill-opacity:1;stroke:#323232;stroke-width:.604038;stroke-linecap:butt;stroke-linejoin:miter;stroke-miterlimit:4;stroke-dasharray:none;stroke-dashoffset:0;stroke-opacity:1;paint-order:fill markers stroke;stop-color:#000"/><path d="M1.84 17.53c.08-.99 2-2.38 2-2.38l.12-.41s-.3-.34-.97-.6c-.69-.27-1.67-.09-1.75-.13-.08-.05-.16-.25-.07-.33.08-.09.57-.23 1.26-.2.7.04 1.83.48 1.83.48l-.15 1.36-1.32 1.75z" style="font-variation-settings:normal;fill:#323232;fill-opacity:1;stroke:#323232;stroke-width:.100674;stroke-linecap:butt;stroke-linejoin:miter;stroke-miterlimit:4;stroke-dasharray:none;stroke-dashoffset:0;stroke-opacity:1;paint-order:fill markers stroke;stop-color:#000"/><path d="M2.3 19.09c-.28.15-.5.44-.24.92.16.27.53.4.8.25L3 20.2c.11-.04.28-.1.36-.09.1.02.56.2.65.24.08.03.19.07.26.03.08-.05.24-.2.27-.3.03-.11.06-.37 0-.4a9 9 0 0 0-1.51-.64.91.91 0 0 0-.72.05z" style="font-variation-settings:normal;fill:#323232;fill-opacity:1;fill-rule:evenodd;stroke:#fff;stroke-width:.201347;stroke-linecap:round;stroke-linejoin:round;stroke-miterlimit:4;stroke-dasharray:none;stroke-dashoffset:0;stroke-opacity:1;stop-color:#000"/><path d="M4.35 13.6c1.11-.65 1.26-.58 1.6 0l1.42 2.46s.4.8.7.62l.65-.38" style="font-variation-settings:normal;fill:none;fill-opacity:1;stroke:#323232;stroke-width:.604038;stroke-linecap:butt;stroke-linejoin:miter;stroke-miterlimit:4;stroke-dasharray:none;stroke-dashoffset:0;stroke-opacity:1;paint-order:fill markers stroke;stop-color:#000"/><circle cx="-10.12" cy="26.13" r=".49" style="font-variation-settings:normal;fill:none;fill-opacity:1;fill-rule:evenodd;stroke:#323232;stroke-width:.402694;stroke-linecap:round;stroke-linejoin:round;stroke-miterlimit:4;stroke-dasharray:none;stroke-dashoffset:0;stroke-opacity:1;stop-color:#000" transform="rotate(-30)"/><path d="m3.53 33.1 5.5-3.17" style="font-variation-settings:normal;fill:none;fill-opacity:1;stroke:#323232;stroke-width:.604038;stroke-linecap:butt;stroke-linejoin:miter;stroke-miterlimit:4;stroke-dasharray:none;stroke-dashoffset:0;stroke-opacity:1;paint-order:fill markers stroke;stop-color:#000"/></g></svg>