<?xml version="1.0" encoding="UTF-8" standalone="no"?>
<svg
   width="128"
   height="128"
   version="1.1"
   id="svg8"
   sodipodi:docname="loot-weapon-og-m870.svg"
   xml:space="preserve"
   inkscape:version="1.4.2 (f4327f4, 2025-05-13)"
   xmlns:inkscape="http://www.inkscape.org/namespaces/inkscape"
   xmlns:sodipodi="http://sodipodi.sourceforge.net/DTD/sodipodi-0.dtd"
   xmlns="http://www.w3.org/2000/svg"
   xmlns:svg="http://www.w3.org/2000/svg"><defs
     id="defs8" /><sodipodi:namedview
     id="namedview8"
     pagecolor="#ffffff"
     bordercolor="#000000"
     borderopacity="0.25"
     inkscape:showpageshadow="2"
     inkscape:pageopacity="0.0"
     inkscape:pagecheckerboard="0"
     inkscape:deskcolor="#d1d1d1"
     inkscape:zoom="6.3046875"
     inkscape:cx="26.567534"
     inkscape:cy="83.033457"
     inkscape:window-width="1920"
     inkscape:window-height="1009"
     inkscape:window-x="-8"
     inkscape:window-y="-8"
     inkscape:window-maximized="1"
     inkscape:current-layer="g8" /><g
     id="g8"><path
       style="fill:#ffffff;fill-opacity:1"
       d="m 40.525403,74.071871 2.22057,11.261462 -1.903346,8.247832 -5.154895,-0.475837 -12.847583,21.888472 -10.30979,-9.59603 19.826518,-21.174722 2.537795,-1.110285 z"
       id="path13" /><path
       style="fill:#ffffff;fill-opacity:1"
       d="m 56.526484,59.554689 6.056409,10.654793 -14.916711,13.570843 -2.803893,-14.6924 z"
       id="path11"
       sodipodi:nodetypes="ccccc" /><path
       style="fill:#ffffff;fill-opacity:1"
       d="m 59.779,79.742719 c -0.522187,2.826806 2.189396,4.440949 -2.579582,8.860302 -3.173683,1.39179 -5.306699,0.181913 -7.626589,-0.560779 l 5.495631,-3.252516 z"
       id="path12"
       sodipodi:nodetypes="ccccc" /><path
       style="fill:#ffffff;fill-opacity:1"
       d="M 63.286245,61.858736 85.333333,45.521685 88.8228,49.804213 66.299876,68.203222 Z"
       id="path10" /><path
       style="fill:#ffffff;fill-opacity:1"
       d="M 60.114002,56.307311 110.86989,13.006196 115.31103,17.923172 62.651797,61.3829 Z"
       id="path9"
       sodipodi:nodetypes="ccccc" /><path
       style="fill:#333333;fill-opacity:1"
       d="M 16.742549,111.43502 10.71094,105.52901 20.804582,94.841965 c 8.935537,-9.46086 10.26544,-10.801773 11.590976,-11.68693 0.823534,-0.549933 1.736193,-1.255203 2.028133,-1.567265 0.291939,-0.312062 1.979582,-2.883632 3.750317,-5.714599 1.770735,-2.830967 3.261057,-5.105883 3.311826,-5.055368 0.05077,0.05051 0.181487,1.179623 0.290484,2.509131 0.215301,2.626168 0.705888,4.793028 2.055746,9.079947 1.253832,3.981963 1.211425,3.596792 0.510163,4.633633 -1.181923,1.747514 -1.560709,3.881722 -1.041176,5.866333 0.141122,0.539086 0.256586,1.072546 0.256586,1.185467 0,0.274679 -1.799297,0.955651 -2.853225,1.079846 -0.584683,0.0689 -1.273997,-0.01129 -2.241144,-0.260733 -1.642588,-0.423641 -2.074991,-0.442176 -2.845241,-0.121961 -0.486746,0.202355 -0.812018,0.657791 -2.157619,3.02103 -2.192737,3.851044 -6.034288,10.869074 -8.533822,15.590214 -1.152268,2.17642 -2.107947,3.95334 -2.123731,3.94872 -0.01578,-0.005 -2.742921,-2.66611 -6.060306,-5.91441 z m 6.218661,-0.1618 c 0.442018,-0.81908 1.341539,-2.4849 1.998937,-3.70182 0.657397,-1.21692 2.705272,-4.92572 4.550834,-8.241768 3.122642,-5.610673 3.408998,-6.06298 4.125325,-6.516064 1.602884,-1.013842 3.029977,-1.193257 5.131723,-0.645161 0.705612,0.18401 1.340663,0.335876 1.411224,0.337481 0.07056,0.0016 0.128293,-0.537238 0.128293,-1.197427 0,-1.568418 0.388646,-3.221566 1.079114,-4.590125 l 0.556278,-1.102584 -0.890354,-2.908775 c -0.489694,-1.599827 -0.9432,-3.189058 -1.00779,-3.531626 -0.06459,-0.342568 -0.180107,-0.62285 -0.256704,-0.62285 -0.0766,0 -0.722612,0.946069 -1.435588,2.102376 -1.468965,2.382369 -2.316171,3.294371 -4.327212,4.658166 -1.178165,0.798978 -2.792469,2.421182 -9.921331,9.96989 -4.682817,4.958607 -8.737363,9.280427 -9.010102,9.604037 l -0.495889,0.5884 3.658959,3.64354 c 2.012428,2.00396 3.713332,3.64355 3.779787,3.64355 0.06645,0 0.482478,-0.67015 0.924496,-1.48924 z M 52.90601,90.972 c -1.592807,-0.272291 -3.716737,-1.642959 -4.721584,-3.047054 l -0.335882,-0.469335 2.0499,-1.808281 2.0499,-1.808282 0.55149,0.33457 c 0.759719,0.460893 1.211962,0.420916 1.884461,-0.166582 0.71203,-0.622033 1.036561,-1.588463 0.80416,-2.394731 -0.09166,-0.318007 -0.109673,-0.625641 -0.04002,-0.683632 0.06965,-0.05799 0.511518,-0.404943 0.981926,-0.771005 0.470408,-0.366062 1.614296,-1.3027 2.541974,-2.081419 l 1.686687,-1.415853 0.4226,0.903503 c 0.910644,1.946921 1.250436,3.268981 1.246039,4.848084 -0.0023,0.82598 -0.08396,1.846433 -0.181465,2.267675 -0.444767,1.921466 -2.015637,4.102554 -3.730516,5.179664 -1.512231,0.949828 -3.579502,1.391355 -5.209668,1.112678 z m 3.272496,-3.157005 c 1.134091,-0.562305 2.317162,-1.873625 2.765106,-3.064854 0.348074,-0.925641 0.512459,-3.482147 0.223017,-3.468338 -0.446083,0.02128 -1.048314,0.840761 -1.221267,1.661822 -0.538961,2.558622 -2.532188,4.371306 -4.696976,4.271532 -0.616756,-0.02843 -1.04407,0.03959 -1.233999,0.19643 -0.26482,0.218679 -0.231786,0.266178 0.3732,0.536618 1.037464,0.463764 2.70509,0.405165 3.790919,-0.13321 z M 45.656574,81.658548 C 43.979233,75.483566 43.418954,72.717224 43.18045,69.43284 l -0.05046,-0.694819 5.30278,-4.649076 c 2.91653,-2.556992 5.809532,-5.093846 6.428894,-5.637453 l 1.126113,-0.988377 4.487716,6.56128 4.487717,6.561281 -0.653164,0.558303 c -0.35924,0.307067 -4.383919,3.822865 -8.943732,7.812886 -4.559813,3.990021 -8.33163,7.254546 -8.381815,7.254502 -0.05018,-4.5e-5 -0.647753,-2.048814 -1.327929,-4.552819 z m 9.278196,-5.923059 c 3.480022,-3.047106 6.304506,-5.623488 6.276631,-5.725293 -0.02788,-0.101805 -1.32742,-2.054724 -2.887878,-4.33982 l -2.837197,-4.154721 -0.362213,0.3207 c -0.709666,0.628331 -9.08705,7.927473 -9.135924,7.960052 -0.166818,0.111199 0.78635,5.375383 1.428835,7.891206 0.902069,3.532296 0.91873,3.588069 1.071855,3.588069 0.06522,0 2.965869,-2.493087 6.445891,-5.540193 z m 9.577404,-8.794272 C 63.571358,65.520278 61.58923,62.60922 60.107445,60.4722 58.62566,58.33518 57.41329,56.517871 57.41329,56.433736 c 0,-0.113673 35.942849,-30.487741 52.74068,-44.56934 0.83241,-0.697805 1.5715,-1.197934 1.64841,-1.115452 0.82064,0.880067 5.46209,7.124642 5.3601,7.211442 -2.19816,1.870768 -7.166,6.02409 -17.498002,14.629061 -7.009079,5.837483 -12.88614,10.7457 -13.060135,10.907148 -0.3048,0.282818 -0.237055,0.394482 1.854495,3.056773 l 2.17085,2.763231 -0.652997,0.533998 c -0.359149,0.293699 -5.808531,4.842156 -12.109738,10.107682 -6.301207,5.265526 -11.498919,9.57206 -11.550472,9.570074 -0.05155,-0.002 -0.863491,-1.166197 -1.804307,-2.587136 z m 12.059549,-9.418912 c 5.221529,-4.358085 9.663515,-8.091575 9.871082,-8.296645 l 0.377393,-0.372854 -0.805037,-1.05816 c -0.44277,-0.581988 -0.893991,-1.041525 -1.002712,-1.021193 -0.274755,0.05138 -19.533353,16.339451 -19.547772,16.53264 -0.0187,0.250614 1.253917,2.138026 1.442301,2.139061 0.09408,5.18e-4 4.443217,-3.564765 9.664745,-7.922849 z M 85.5725,40.849487 C 97.886045,30.58175 108.14398,22.004899 108.3679,21.789818 l 0.40714,-0.391056 -1.14828,-1.463163 -1.14829,-1.463162 -2.16683,1.824613 c -1.19175,1.003537 -11.211491,9.439108 -22.266078,18.745712 -11.054588,9.306605 -20.322558,17.134003 -20.59549,17.394219 l -0.49624,0.47312 0.923884,1.37017 c 0.508136,0.753594 1.009977,1.340393 1.115202,1.303999 0.105225,-0.03639 10.266037,-8.467046 22.579582,-18.734783 z m 26.33371,-22.015076 c 0.22397,-0.175285 0.686,-0.562256 1.02675,-0.859937 l 0.61955,-0.541237 -1.0853,-1.430536 c -0.59691,-0.786794 -1.1363,-1.43378 -1.19863,-1.437747 -0.0623,-0.004 -0.58422,0.384277 -1.15975,0.862764 -0.69009,0.573727 -0.99609,0.935957 -0.89863,1.063742 0.74953,0.982735 2.14152,2.661651 2.20676,2.661651 0.0451,0 0.26529,-0.143415 0.48925,-0.3187 z"
       id="path8"
       sodipodi:nodetypes="scssssssssssssssscssssssssscssssssscssssscccsssssscsssssssssssssssscsscccsssssssscsssssssssssssscsssssscssssssscccssscssssscscssss" /></g></svg>
