<?xml version="1.0" encoding="UTF-8" standalone="no"?>
<svg
   width="128"
   height="128"
   version="1.1"
   id="svg5"
   sodipodi:docname="loot-weapon-og-m39.svg"
   xml:space="preserve"
   inkscape:version="1.4.2 (f4327f4, 2025-05-13)"
   xmlns:inkscape="http://www.inkscape.org/namespaces/inkscape"
   xmlns:sodipodi="http://sodipodi.sourceforge.net/DTD/sodipodi-0.dtd"
   xmlns="http://www.w3.org/2000/svg"
   xmlns:svg="http://www.w3.org/2000/svg"><defs
     id="defs5" /><sodipodi:namedview
     id="namedview5"
     pagecolor="#ffffff"
     bordercolor="#000000"
     borderopacity="0.25"
     inkscape:showpageshadow="2"
     inkscape:pageopacity="0.0"
     inkscape:pagecheckerboard="0"
     inkscape:deskcolor="#d1d1d1"
     inkscape:zoom="4.4580873"
     inkscape:cx="42.282707"
     inkscape:cy="94.995897"
     inkscape:window-width="1920"
     inkscape:window-height="1009"
     inkscape:window-x="-8"
     inkscape:window-y="-8"
     inkscape:window-maximized="1"
     inkscape:current-layer="svg5" /><g
     id="g7"
     transform="matrix(0.11291963,0,0,0.12556221,70.219524,22.998532)"><path
       style="fill:#ffffff;fill-opacity:1"
       d="m 281.55443,-84.676341 -23.96831,-26.986609 24.7435,-17.13011 16.3868,26.42913 z"
       id="path12"
       sodipodi:nodetypes="ccccc" /><path
       style="fill:#ffffff;fill-opacity:1"
       d="M 179.54895,104.04957 213.17472,78.037175 348.31227,-69.789343 391.45477,-105.95291 358.46344,-142.75093 149.09541,62.810409 Z"
       id="path11"
       sodipodi:nodetypes="ccccccc" /><path
       style="fill:#ffffff;fill-opacity:1"
       d="m -319.76208,508.82776 40.60471,54.56257 48.21809,-3.80669 49.48699,77.40273 46.94919,-16.49566 -46.94919,-126.88972 46.94919,-44.4114 25.37795,-1.2689 60.907058,-69.78934 -63.444858,-82.47831 -96.43618,96.43618 -55.83148,6.34448 8.88228,36.79802 z"
       id="path8"
       sodipodi:nodetypes="cccccccccccccc" /><path
       style="fill:#ffffff;fill-opacity:1"
       d="m -416.32204,790.47353 15.25318,-13.45869 -18.84216,-92.41631 78.95762,-111.25848 -18.84216,-28.71186 -157.91525,157.01801 z"
       id="path7"
       sodipodi:nodetypes="ccccccc" /><path
       style="fill:#ffffff;fill-opacity:1"
       d="M -10.785626,399.06815 50.121437,458.70632 7.6133829,525.32342 -63.444857,458.07187 Z"
       id="path9" /><path
       style="fill:#ffffff;fill-opacity:1"
       d="M -22.840149,320.39653 157.9777,144.01983 105.95291,90.091698 -79.94052,271.54399 Z"
       id="path10" /><path
       style="fill:#333333;fill-opacity:1"
       d="m -426.98081,805.31279 c -7.30413,-6.96659 -29.16892,-27.42703 -39.24895,-36.72805 -15.22256,-14.04609 -2.13912,-2.26326 -32.28401,-30.5 -27.60486,-25.85748 -28.32209,-26.87455 -26.9118,-38.16212 0.61524,-4.92425 6.83443,-14.75537 11.09432,-17.53757 48.19791,-46.63858 95.64114,-94.08303 142.8382,-141.7365 14.05112,-14.24987 15.38067,-14.4857 24.84151,-4.40619 3.43695,3.66169 9.64965,10.07419 13.80602,14.25 14.25719,14.32389 14.48251,16.01017 3.9542,29.59238 -6.35471,8.19799 -52.11912,73.87233 -76.33946,106.79749 -5.10372,22.07729 7.93521,58.28011 17.41014,80.22288 4.83487,10.66309 4.38402,12.5696 -5.70239,24.11349 -22.25282,25.4684 -21.7532,25.2579 -33.45778,14.09419 z m 13.89005,-32.04676 c -4.4007,-13.87259 -11.16255,-40.63874 -15.86032,-55.18129 -8.8811,-27.49254 -8.9015,-27.84119 -2.20148,-37.6262 15.03535,-22.36958 30.45499,-44.74214 46.1669,-66.8738 l 27.30274,-38.89954 c 0.40989,-0.58399 6.30996,-9.99944 4.44578,-11.86362 -2.60819,-2.60819 -7.49884,1.28659 -30.27333,24.10886 -12.15936,12.18487 -31.50937,31.22461 -43.00001,42.31054 -25.56019,24.65993 -48.02609,46.89038 -55.4509,54.86975 -3.05736,3.28571 -7.68472,7.7549 -10.28304,9.93155 -6.16899,5.16784 -6.01401,16.4282 0.22786,16.55493 2.51069,0.0511 69.19304,66.32241 74.86716,67.9502 3.81037,1.09311 5.4174,-0.99807 4.05864,-5.28138 z m 230.05839,-121.43788 c -18.18679,-12.05675 -35.9716,-64.1157 -46.08456,-73.98647 -5.26549,-5.13937 -7.32254,-5.38658 -15.89755,-1.91048 -7.45386,3.02162 -19.25862,4.50544 -28.15937,3.53953 -6.33607,-0.68758 -8.17523,-2.31737 -33.56537,-29.74428 -4.76483,-5.14706 -11.91939,-12.67268 -15.89901,-16.7236 -22.3234,-22.72333 -22.16963,-20.45917 -2.68939,-39.59835 56.07306,-55.09134 58.77086,-59.08469 48.40868,-71.65581 -10.10247,-12.25604 12.13874,-46.9446 34.27607,-39.16395 18.07801,6.35391 25.39227,3.23258 50.4047,-21.51 8.89041,-8.7945 24.3181,-23.865 34.28375,-33.49 9.96565,-9.625 23.40933,-22.675 29.87486,-29 19.66765,-19.24019 19.17177,-19.20396 34.214482,-2.5 11.954096,13.27425 55.204708,58.65598 57.27721,60.75731 10.77631,10.92621 11.12059,13.95201 2.68873,23.63052 -2.68912,3.08669 -8.75601,10.11217 -13.48198,15.61217 -17.889967,19.44387 -34.029021,40.50002 -52.1396,59.73825 -3.510012,3.70603 -6.462292,7.30603 -6.560622,8 -0.0983,0.69396 -0.21082,8.01175 -0.25,16.26175 -0.11772,24.79371 -15.72467,47.9753 -38.41031,57.05229 -19.53592,9.22918 17.4807,55.16547 24.83909,68.78805 11.30717,21.18911 -49.71164,52.63168 -63.12981,45.90307 z m 29.53214,-53.65877 c -10.80046,-25.95479 -49.25309,-81.02572 -31.65233,-113.98878 5.20885,-7.59857 19.49281,-22.46791 31.79293,-33.09586 8.31033,-7.18057 15.45707,-15.63989 15.45707,-15.63989 4.97909,-4.79815 6.7935,-7.20153 12.87739,-0.7255 4.23635,4.50941 11.6231,0.87547 19.27666,-10.13481 2.37019,-3.40973 32.065223,-37.86224 38.148592,-44.5479 4.44762,-4.88795 6.69736,-8.95383 6.69736,-12.10389 0,-3.35483 -28.617347,-30.04812 -42.757432,-46.82528 -6.12882,-7.51968 -7.85249,-6.71013 -27.81745,13.06486 -77.46076,76.72374 -70.87275,71.81312 -96.91659,72.24038 -24.54252,0.40262 -27.37056,2.01848 -18.57108,10.61094 7.32369,7.15139 6.98901,11.56421 -1.90067,25.06109 -11.29876,20.97101 -29.06631,36.98757 -45.15109,54.14404 -16.118,12.46032 -10.73877,17.12156 -0.40846,29.32509 51.00099,69.12791 57.0956,-22.31932 94.54689,54.58276 1.86105,3.82146 4.59094,8.74811 6.06643,10.94811 1.47548,2.2 4.34311,7.15 6.3725,11 25.29492,47.98745 39.87141,6.7951 33.93928,-3.91536 z m 3.19356,-96.87007 c 6.67274,-3.86684 12.15645,-15.72117 8.00874,-17.31279 -5.639,-2.16389 -17.26028,7.21761 -17.52603,14.14822 -0.15925,4.1535 4.90498,5.83739 9.51729,3.16457 z M 8.5974425,541.84727 c -14.3478879,-8.7609 -102.0560815,-70.71854 -88.3981405,-88.13051 8.81066,-10.31653 10.73744,-12.53508 14.6737,-16.89561 2.35156,-2.60502 5.84342,-6.53641 7.7597,-8.73641 1.91627,-2.2 5.16727,-5.87954 7.22444,-8.17676 2.05716,-2.29722 6.4403,-7.41572 9.7403,-11.37444 10.85628,-13.02333 23.65101,-27.43461 25.07164,-28.23932 2.63133,-1.49049 4.54864,0.004 40.79011,31.79052 20.78711,18.23199 44.8838,38.5 44.8838,38.5 1.755365,11.34023 -51.670846,97.4142 -61.7455495,91.26253 z m 3.7499995,-39.06951 c 4.375264,-7.4272 16.432579,-23.51365 23.44494,-30.33469 8.45975,-8.22892 6.20073,-14.15587 -10.63338,-27.89856 -3.05886,-2.49713 -7.81156,-6.6128 -10.56156,-9.14592 -27.13377,-24.99391 -27.71207,-25.23597 -35.8967,-15.02525 -5.939838,9.75729 -27.402455,27.56312 -28.6033,37.30719 0,2.73789 0.49466,3.25805 11,11.56702 4.83795,3.82647 10.35217,8.51708 23.90816,20.33719 18.7251805,16.32738 21.9055505,17.86197 27.34184,13.19302 z m -40.99103,-159.44302 c -2.21237,-1.7875 -6.64354,-6.175 -9.84705,-9.75 -3.20351,-3.575 -9.22306,-10.1 -13.37677,-14.5 -8.35128,-8.84645 -31.00746,-33.13655 -38.33876,-41.1037 -9.1651,-9.95999 -24.111582,6.83885 113.8034,-127.90744 24.19988,-23.64387 51.64988,-50.604905 61,-59.913415 26.352478,-26.2352 22.685448,-26.06345 44.310748,-2.07544 6.66611,7.39442 13.49717,14.530595 37.43946,39.111705 19.59049,20.11319 21.35594,14.3904 -15.69871,50.88829 -16.75169,16.5 -53.541198,52.81098 -81.754458,80.69107 -28.21325,27.88008 -58.49683,57.80009 -67.2968295,66.4889 -22.8317005,22.54322 -23.9083505,23.18656 -30.2410305,18.07003 z m 34.6730405,-59.5 c 15.3225995,-15.2625 48.4346695,-48 73.5823795,-72.75 25.147698,-24.75 48.257158,-47.68236 51.354358,-50.9608 3.09719,-3.27843 7.54375,-7.87415 9.88125,-10.21269 6.88679,-6.88986 6.60754,-7.45685 -14.1977,-28.8265 -4.81926,-4.95 -10.82478,-11.16502 -13.3456,-13.81115 -7.06264,-7.413715 -1.23782,-11.807275 -58.083168,43.81114 -12.92905,12.65 -39.28351,38.57509 -58.5654495,57.61131 -19.2819405,19.03623 -36.6580205,36.13623 -38.6135105,38 -22.49373,21.43884 -23.4008,23.48379 -14.50933,32.71068 3.53939,3.67291 7.64353,8.02801 9.12032,9.67801 25.22925,28.18837 19.21226,28.78019 53.3764505,-5.25 z M 180.92481,120.82948 c -1.46995,-0.9596 -7.39453,-6.91973 -13.16573,-13.24473 -5.77119,-6.325 -15.96304,-17.125005 -22.64854,-24.000005 -14.68576,-15.10202 -16.71436,-21.07554 -8.70973,-25.64719 1.29226,-0.73805 25.08092,-23.48469 53.58488,-51.2376899 27.92848,-27.1926901 35.50378,-34.5048601 53.51805,-51.6591401 30.03857,-28.60455 29.80262,-28.05514 17.60812,-41.00131 -12.32943,-13.089416 -14.66356,-20.152845 -10.62938,-32.166055 4.62962,-13.78635 26.2573,-23.52182 36.72942,-16.53335 5.73999,3.83052 10.88216,8.08726 13.43634,11.12273 3.00866,3.5756 8.23695,6.122 12.5697,6.122 2.57331,0 33.93349,-28.38024 37.13294,-33.60446 1.42965,-2.3344 10.52004,-8.39554 12.59147,-8.39554 2.28508,0 51.51121,48.39172 52.54298,51.65234 1.07196,3.38762 -0.70492,5.27473 -47.17146,50.097665 -11.49822,11.0915 -11.72891,11.25 -16.37438,11.25 -8.4611,0 -0.20813,-7.2802 -75.12479,66.2698 -48.35653,47.47439 -46.12278,44.88715 -45.8967,53.15982 0.16205,5.92962 0.16205,5.92962 -22.00302,27.750005 -22.88741,22.53148 -23.51879,22.98409 -27.99017,20.06511 z m 7.67233,-35.620865 c 1.41998,-1.03831 2.06201,-3.26104 2.61541,-9.05459 1.00229,-10.4931 48.86621,-61.14657 113.92938,-120.56928 5.72096,-5.225 14.01384,-12.92372 18.42863,-17.10826 16.20494,-15.3598 21.27211,-20.185253 21.98677,-19.89175 5.79313,2.379182 32.78377,-26.660475 32.78377,-26.660475 0,0 -2.6184,-4.78827 -5.37953,-8 -11.2801,-13.12099 -10.70993,-13.23327 -30.01411,5.91048 -8.45779,8.3875 -20.54655,20.290585 -26.86391,26.451305 -6.31736,6.16072 -17.66907,17.41072 -25.22602,25 -16.87204,16.94423 -59.24544,57.83318013 -81.73449,78.87111 -47.10553,44.06603 -48.01826,45.60672 -34.67484,58.53134 8.29405,8.03372 10.61579,9.10363 14.14894,6.52012 z M 290.77152,-98.216578 c 0.5065,-2.612172 -10.65006,-15.617692 -12.54987,-14.500242 -10.77505,6.33778 -1.76315,11.92952 -0.49129,13.786993 6.82026,9.96062 12.61453,2.913458 13.04116,0.713249 z"
       id="path6"
       sodipodi:nodetypes="sssssssssssssssscsssssssssssssssssssssssssssssssssssssssssssssssssssssssssssssccsssssssssssssssssssssssssssssscsssssssssssssssssssssssssssscsssssssssss" /></g></svg>
