<?xml version="1.0" encoding="UTF-8" standalone="no"?>
<svg
   width="176"
   height="176"
   version="1.1"
   id="svg31"
   sodipodi:docname="player-helmet-grenadie-2.svg"
   inkscape:version="1.3.2 (091e20e, 2023-11-25)"
   xmlns:inkscape="http://www.inkscape.org/namespaces/inkscape"
   xmlns:sodipodi="http://sodipodi.sourceforge.net/DTD/sodipodi-0.dtd"
   xmlns="http://www.w3.org/2000/svg"
   xmlns:svg="http://www.w3.org/2000/svg"
   xmlns:rdf="http://www.w3.org/1999/02/22-rdf-syntax-ns#"
   xmlns:cc="http://creativecommons.org/ns#"
   xmlns:dc="http://purl.org/dc/elements/1.1/">
  <metadata
     id="metadata35">
    <rdf:RDF>
      <cc:Work
         rdf:about="">
        <dc:format>image/svg+xml</dc:format>
        <dc:type
           rdf:resource="http://purl.org/dc/dcmitype/StillImage" />
        <dc:title />
      </cc:Work>
    </rdf:RDF>
  </metadata>
  <sodipodi:namedview
     pagecolor="#ffffff"
     bordercolor="#666666"
     borderopacity="1"
     objecttolerance="10"
     gridtolerance="10"
     guidetolerance="10"
     inkscape:pageopacity="0"
     inkscape:pageshadow="2"
     inkscape:window-width="1472"
     inkscape:window-height="891"
     id="namedview33"
     showgrid="true"
     inkscape:zoom="2.6818182"
     inkscape:cx="38.966101"
     inkscape:cy="104.22034"
     inkscape:window-x="0"
     inkscape:window-y="37"
     inkscape:window-maximized="0"
     inkscape:current-layer="svg31"
     inkscape:showpageshadow="0"
     inkscape:pagecheckerboard="0"
     inkscape:deskcolor="#d1d1d1">
    <inkscape:grid
       type="xygrid"
       id="grid4685"
       empspacing="4"
       spacingy="1"
       spacingx="1"
       originx="0"
       originy="0"
       units="px"
       visible="true" />
  </sodipodi:namedview>
  <defs
     id="defs25">
    <clipPath
       id="e">
      <path
         d="M188 128c0 80-69.756 119.362-69.756 119.362C64 244 8.638 193.922 8.638 128S64 12 118.244 8.638C118.244 8.638 188 48 188 128z"
         fill="#252525"
         fill-opacity=".601"
         stroke-width="12.537"
         id="path2" />
    </clipPath>
    <clipPath
       id="e-8">
      <path
         d="m 188,128 c 0,80 -69.756,119.362 -69.756,119.362 C 64,244 8.638,193.922 8.638,128 8.638,62.078 64,12 118.244,8.638 118.244,8.638 188,48 188,128 Z"
         fill="#252525"
         fill-opacity="0.601"
         stroke-width="12.537"
         id="path2-06" />
    </clipPath>
  </defs>
  <path
     d="m 188,128 c 0,80 -69.756,119.362 -69.756,119.362 C 64,244 8.638,193.922 8.638,128 8.638,62.078 64,12 118.244,8.638 118.244,8.638 188,48 188,128 Z"
     clip-path="url(#e)"
     transform="matrix(0.52122,0,0,0.52122,24.170001,21.284)"
     id="path27"
     inkscape:connector-curvature="0"
     style="fill:#2d2d2d;stroke:#090909;stroke-width:37.259" />
  <path
     id="path68"
     style="fill:#fff00f;fill-opacity:1;fill-rule:evenodd;stroke:#000000;stroke-width:6;stroke-linecap:square;stroke-linejoin:miter;stroke-dasharray:none;stroke-opacity:1;paint-order:normal"
     d="m 52.010625,100.83865 10.50255,-6.705512 h 7.0028 c 2.71101,6.298552 8.86774,10.377112 15.67752,10.385712 9.451675,-3e-5 17.113665,-7.725512 17.113535,-17.255295 -3e-5,-9.529646 -7.662,-17.254926 -17.113535,-17.254976 -6.81556,0.0022 -12.98018,4.081565 -15.69362,10.385379 h -3.19042 l -0.0171,-12.918311 -14.28067,10.671479 z"
     sodipodi:nodetypes="ccccccccccc" />
</svg>
