<?xml version="1.0" encoding="UTF-8" standalone="no"?>
<svg
   width="148"
   height="148"
   version="1.1"
   id="svg2"
   sodipodi:docname="player-bugler.svg"
   inkscape:version="1.4.3 (0d15f75, 2025-12-25)"
   xml:space="preserve"
   xmlns:inkscape="http://www.inkscape.org/namespaces/inkscape"
   xmlns:sodipodi="http://sodipodi.sourceforge.net/DTD/sodipodi-0.dtd"
   xmlns="http://www.w3.org/2000/svg"
   xmlns:svg="http://www.w3.org/2000/svg"><defs
     id="defs2" /><sodipodi:namedview
     id="namedview2"
     pagecolor="#ffffff"
     bordercolor="#000000"
     borderopacity="0.25"
     inkscape:showpageshadow="2"
     inkscape:pageopacity="0.0"
     inkscape:pagecheckerboard="0"
     inkscape:deskcolor="#d1d1d1"
     inkscape:zoom="2.5285194"
     inkscape:cx="53.390929"
     inkscape:cy="94.521719"
     inkscape:window-width="1470"
     inkscape:window-height="894"
     inkscape:window-x="-140"
     inkscape:window-y="184"
     inkscape:window-maximized="0"
     inkscape:current-layer="g6" /><g
     id="g5"
     transform="matrix(1.0457976,0,0,1.0457976,85.001869,-102.60591)"><g
       id="g6"
       transform="translate(0.40484432)"><g
         id="g24"
         transform="matrix(1.0593687,0,0,1.0637856,-275.40114,-259.56926)"
         style="stroke-width:0.900745"><circle
           style="fill:#b3b3b3;fill-opacity:1;fill-rule:evenodd;stroke:none;stroke-width:10.8089;stroke-dasharray:none;stroke-opacity:1;paint-order:stroke fill markers"
           id="path11-6"
           cx="242.34799"
           cy="394.88562"
           r="24.10948" /><g
           id="g21"
           transform="translate(-72.207194,-47.730179)"
           style="fill:#cccccc;fill-opacity:1;stroke-width:0.900745"><g
             id="path3354-7-2-2-3-9-0-8-4"
             transform="matrix(0.32925577,0,0,0.32925577,-510.04047,591.73081)"
             style="fill:#cccccc;fill-opacity:1;stroke:#000000;stroke-width:0.900745"><path
               id="path18"
               style="color:#000000;fill:#cccccc;fill-opacity:1;stroke:#000000;stroke-width:32.8284;stroke-dasharray:none;stroke-opacity:1;paint-order:stroke fill markers"
               d="m 2688.3588,-404.98041 c -2.0111,2.3075 -4.112,4.60575 -6.5666,6.80393 -11.5723,10.36343 -28.3115,18.11057 -50.1961,20.14486 l -74.8017,6.95223 -1.6669,-17.92631 -26.4624,27.01404 108.7206,11.56728 c 26.0159,2.76762 43.5273,11.5339 55.9204,21.21855 9.3373,-27.42625 7.0795,-52.40484 -4.9473,-75.77458 z"
               sodipodi:nodetypes="csccccccc" /></g><path
             id="path20"
             style="color:#000000;opacity:0.998;fill:#cccccc;fill-opacity:1;fill-rule:evenodd;stroke:#000000;stroke-width:10.8089;stroke-linecap:round;stroke-dasharray:none;stroke-dashoffset:6.00189;stroke-opacity:1;paint-order:stroke fill markers"
             d="m 314.85547,410.31445 c -1.11091,-0.0151 -2.23508,0.0263 -3.36914,0.125 -18.15432,1.68507 -31.23721,17.47866 -29.75,35.54297 0.66822,8.11643 5.53432,16.06117 8.5906,19.18991 2.82628,2.8933 6.89219,5.17054 12.22193,6.04852 l -27.8262,5.95884 c -3.62414,0.77609 -6.66348,0.19249 -9.20899,-0.45117 -0.90344,4.00236 -0.17287,8.42341 2.16797,11.99804 2.4627,-1.61537 5.38985,-3.45923 9.20703,-4.25586 l 43.52149,-9.08203 0.0644,-0.0137 c 0.12686,-0.0236 0.25996,-0.0483 0.40039,-0.0762 16.44463,-3.29609 27.70402,-18.32917 26.24219,-35.03711 -1.48668,-16.9916 -15.53144,-29.72059 -32.26172,-29.94727 z m -0.43359,7.66211 c 13.51053,-8e-5 24.58994,11.07934 24.58984,24.58985 10e-5,13.51051 -11.07934,24.58992 -24.58984,24.58984 -13.5105,8e-5 -24.58992,-11.07933 -24.58985,-24.58984 -7e-5,-13.51051 11.07935,-24.58993 24.58985,-24.58985 z"
             sodipodi:nodetypes="ccsscsccccccsscccccc" /></g></g></g></g></svg>
