<?xml version="1.0" encoding="UTF-8" standalone="no"?>
<svg
   width="148"
   height="148"
   version="1.1"
   id="svg2"
   sodipodi:docname="player-last-man.svg"
   inkscape:version="1.4.3 (0d15f75, 2025-12-25)"
   xml:space="preserve"
   xmlns:inkscape="http://www.inkscape.org/namespaces/inkscape"
   xmlns:sodipodi="http://sodipodi.sourceforge.net/DTD/sodipodi-0.dtd"
   xmlns="http://www.w3.org/2000/svg"
   xmlns:svg="http://www.w3.org/2000/svg"><defs
     id="defs2" /><sodipodi:namedview
     id="namedview2"
     pagecolor="#ffffff"
     bordercolor="#000000"
     borderopacity="0.25"
     inkscape:showpageshadow="2"
     inkscape:pageopacity="0.0"
     inkscape:pagecheckerboard="0"
     inkscape:deskcolor="#d1d1d1"
     inkscape:zoom="2.5285194"
     inkscape:cx="53.390929"
     inkscape:cy="94.521719"
     inkscape:window-width="1470"
     inkscape:window-height="894"
     inkscape:window-x="611"
     inkscape:window-y="54"
     inkscape:window-maximized="0"
     inkscape:current-layer="g6" /><g
     id="g5"
     transform="matrix(1.0457976,0,0,1.0457976,85.001869,-102.60591)"><g
       id="g6"
       transform="translate(0.40484432)"><g
         id="g77"
         transform="matrix(0.95620797,0,0,0.95620797,-288.74426,-424.43111)"><path
           style="fill:#cccccc;fill-opacity:1;stroke:#000000;stroke-width:6;stroke-dasharray:none;stroke-opacity:1;paint-order:normal"
           inkscape:connector-curvature="0"
           id="path885"
           d="m 290.54571,678.94055 -33.99175,-23.32892 c 0,0 -11.32957,-51.35023 -28.32395,-91.28933 l 62.3157,28.52792 62.30971,-28.52792 c -16.99438,39.9391 -28.32397,91.28933 -28.32397,91.28933 z"
           sodipodi:nodetypes="ccccccc" /><path
           id="path885-0"
           style="fill:#b3b3b3;fill-opacity:1;stroke:#000000;stroke-width:6;stroke-dasharray:none;stroke-opacity:1;paint-order:normal"
           d="m 253.17117,591.13831 c 8.4756,25.56543 13.75897,47.2913 15.78125,56.00195 l 21.5918,14.82031 21.58984,-14.81836 c 2.0218,-8.70876 7.30489,-30.4362 15.78125,-56.0039 l -37.36914,17.10937 z" /><path
           id="path885-0-9"
           style="fill:#999999;fill-opacity:1;stroke:#000000;stroke-width:6;stroke-dasharray:none;stroke-opacity:1;paint-order:normal"
           d="m 275.60476,616.80237 c 1.2763,4.58629 2.31003,8.53666 3.23242,12.15234 0.0659,0.25602 0.12528,0.48751 0.18946,0.73829 0.78817,3.10625 1.49838,5.96405 2.08203,8.39453 0.0356,0.14807 0.088,0.35374 0.12305,0.5 l 9.3125,6.39062 9.3125,-6.39258 h 0.002 c 0.0168,-0.07 0.0397,-0.16184 0.0566,-0.23242 0.61937,-2.58223 1.3837,-5.66829 2.23828,-9.02734 0.0119,-0.0462 0.0213,-0.0884 0.0332,-0.13477 0.93528,-3.67259 1.99335,-7.70044 3.29688,-12.38476 l -14.9375,6.83789 -0.004,-0.002 z" /></g></g></g></svg>
