<?xml version="1.0" encoding="UTF-8" standalone="no"?>
<svg
   width="148"
   height="148"
   version="1.1"
   id="svg2"
   sodipodi:docname="player-grenadier.svg"
   inkscape:version="1.4.3 (0d15f75, 2025-12-25)"
   xml:space="preserve"
   xmlns:inkscape="http://www.inkscape.org/namespaces/inkscape"
   xmlns:sodipodi="http://sodipodi.sourceforge.net/DTD/sodipodi-0.dtd"
   xmlns="http://www.w3.org/2000/svg"
   xmlns:svg="http://www.w3.org/2000/svg"><defs
     id="defs2" /><sodipodi:namedview
     id="namedview2"
     pagecolor="#ffffff"
     bordercolor="#000000"
     borderopacity="0.25"
     inkscape:showpageshadow="2"
     inkscape:pageopacity="0.0"
     inkscape:pagecheckerboard="0"
     inkscape:deskcolor="#d1d1d1"
     inkscape:zoom="2.5285194"
     inkscape:cx="53.390929"
     inkscape:cy="94.521719"
     inkscape:window-width="1470"
     inkscape:window-height="894"
     inkscape:window-x="416"
     inkscape:window-y="33"
     inkscape:window-maximized="0"
     inkscape:current-layer="g6" /><g
     id="g5"
     transform="matrix(1.0457976,0,0,1.0457976,85.001869,-102.60591)"><g
       id="g6"
       transform="translate(0.40484432)"><g
         id="g74"
         transform="matrix(0.95620797,0,0,0.95620797,-595.42862,-199.91549)"><path
           id="path68-7-6-79-6"
           style="fill:#b3b3b3;fill-opacity:1;fill-rule:evenodd;stroke:#000000;stroke-width:6;stroke-linecap:square;stroke-linejoin:miter;stroke-dasharray:none;stroke-opacity:1;paint-order:normal"
           d="m 604.20117,346.93164 2.51563,3.93945 v 27.99219 l -8.46485,3.64258 c -8.15415,3.50971 -13.30219,11.33264 -13.3164,20.0332 0.005,12.19088 9.70884,21.88494 22.18945,21.88477 12.48252,-5e-5 22.18923,-9.69701 22.19141,-21.89063 v -0.002 -0.002 c -0.004,-8.70935 -5.1539,-16.54313 -13.31641,-20.05664 l -8.46484,-3.64454 v -29.88867 l 13.18359,-0.0176 -1.48828,-1.99024 z" /><path
           id="path68-7-6-79"
           style="fill:#cccccc;fill-opacity:1;fill-rule:evenodd;stroke:#000000;stroke-width:6;stroke-linecap:square;stroke-linejoin:miter;stroke-dasharray:none;stroke-opacity:1;paint-order:normal"
           d="m 578.65293,332.93001 14.0645,22.02859 v 14.68804 c -13.21091,5.68623 -21.76551,18.59969 -21.78354,32.88288 7e-5,19.82441 16.2039,35.8951 36.19216,35.89482 19.98799,-8e-5 36.1914,-16.07068 36.1915,-35.89482 -0.004,-14.29533 -8.56089,-27.22531 -21.78284,-32.91664 v -6.69175 l 27.09556,-0.0359 -22.38293,-29.95305 z"
           sodipodi:nodetypes="ccccccccccc" /><path
           style="fill:none;stroke:#000000;stroke-width:6;stroke-linecap:butt;stroke-linejoin:miter;stroke-dasharray:none;stroke-opacity:1"
           d="M 607.15802,402.62902 V 343.95304"
           id="path72"
           sodipodi:nodetypes="cc" /><circle
           style="fill:#b3b3b3;fill-opacity:1;fill-rule:evenodd;stroke:#000000;stroke-width:6;stroke-linecap:square;stroke-linejoin:miter;stroke-dasharray:none;stroke-opacity:1;paint-order:normal"
           id="path72-5"
           cx="607.15802"
           cy="402.66922"
           r="22.787588" /><path
           style="color:#000000;fill:#000000;-inkscape-stroke:none"
           d="m 593.84129,341.29709 4.74174,6 h 19.55862 l 6.50712,8.23046 h 6.87806 l -10.2758,-14.23046 z"
           id="path73"
           sodipodi:nodetypes="ccccccc" /></g></g></g></svg>
