<?xml version="1.0" encoding="UTF-8" standalone="no"?>
<svg
   width="148"
   height="148"
   version="1.1"
   id="svg1"
   sodipodi:docname="player-star-resized.svg"
   inkscape:version="1.4.3 (0d15f75, 2025-12-25)"
   xml:space="preserve"
   xmlns:inkscape="http://www.inkscape.org/namespaces/inkscape"
   xmlns:sodipodi="http://sodipodi.sourceforge.net/DTD/sodipodi-0.dtd"
   xmlns="http://www.w3.org/2000/svg"
   xmlns:svg="http://www.w3.org/2000/svg"><defs
     id="defs1" /><sodipodi:namedview
     id="namedview1"
     pagecolor="#ffffff"
     bordercolor="#000000"
     borderopacity="0.25"
     inkscape:showpageshadow="2"
     inkscape:pageopacity="0.0"
     inkscape:pagecheckerboard="0"
     inkscape:deskcolor="#d1d1d1"
     inkscape:zoom="0.53631757"
     inkscape:cx="263.83622"
     inkscape:cy="150.09764"
     inkscape:current-layer="svg1"
     inkscape:window-width="1008"
     inkscape:window-height="895"
     inkscape:window-x="0"
     inkscape:window-y="33"
     inkscape:window-maximized="0" /><path
     d="m 74,53.527 6.578,19.644 20.717,0.188 -16.65,12.328 6.224,19.76 L 74,93.419 57.13,105.447 63.355,85.687 46.705,73.359 67.422,73.171 Z"
     id="path3"
     style="fill:#ffffff;fill-opacity:1" /><g
     id="g1"
     transform="matrix(0.83753876,0,0,0.83753882,12.021534,12.168337)"
     style="opacity:1;stroke-width:1.02334"><path
       d="m 74,53.527 6.578,19.644 20.717,0.188 -16.65,12.328 6.224,19.76 L 74,93.419 57.13,105.447 63.355,85.687 46.705,73.359 67.422,73.171 Z"
       id="path3-0"
       style="fill:#ffffff;fill-opacity:1;stroke-width:1.02334" /><path
       d="M 74,12.43 58.166,59.704 8.313,60.153 48.38,89.82 33.403,137.374 74,108.433 114.596,137.374 99.619,89.82 139.688,60.154 89.834,59.704 Z m 0,40.368661 6.578,19.644 20.717,0.188 -16.65,12.328 6.224,19.759999 L 74,92.690661 57.13,104.71866 l 6.225,-19.759999 -16.65,-12.328 20.717,-0.188 z"
       fill="#c9c9c9"
       stroke="#0a0a0a"
       stroke-width="6"
       id="path1-8"
       style="fill:#c9c9c9;fill-opacity:1;stroke-width:7.16385;stroke-dasharray:none"
       sodipodi:nodetypes="cccccccccccccccccccccc" /></g></svg>
