<?xml version="1.0" encoding="UTF-8" standalone="no"?>
<svg
   width="148"
   height="148"
   version="1.1"
   id="svg2"
   sodipodi:docname="player-recon-small.svg"
   inkscape:version="1.4.3 (0d15f75, 2025-12-25)"
   xml:space="preserve"
   xmlns:inkscape="http://www.inkscape.org/namespaces/inkscape"
   xmlns:sodipodi="http://sodipodi.sourceforge.net/DTD/sodipodi-0.dtd"
   xmlns="http://www.w3.org/2000/svg"
   xmlns:svg="http://www.w3.org/2000/svg"><defs
     id="defs2" /><sodipodi:namedview
     id="namedview2"
     pagecolor="#ffffff"
     bordercolor="#000000"
     borderopacity="0.25"
     inkscape:showpageshadow="2"
     inkscape:pageopacity="0.0"
     inkscape:pagecheckerboard="0"
     inkscape:deskcolor="#d1d1d1"
     inkscape:zoom="2.5285194"
     inkscape:cx="53.390929"
     inkscape:cy="94.521719"
     inkscape:window-width="1470"
     inkscape:window-height="894"
     inkscape:window-x="0"
     inkscape:window-y="33"
     inkscape:window-maximized="0"
     inkscape:current-layer="g6" /><g
     id="g5"
     transform="matrix(1.0457976,0,0,1.0457976,85.001869,-102.60591)"><g
       id="g6"
       transform="translate(0.40484432)"><g
         id="g26"
         transform="matrix(0.82424358,0,0,0.81996193,-216.21665,206.38658)"
         style="stroke-width:1.16313"><path
           style="fill:#bebebe;fill-opacity:1;fill-rule:nonzero;stroke:#090909;stroke-width:6.97877;stroke-linecap:butt;stroke-linejoin:miter;stroke-miterlimit:4;stroke-dasharray:none;stroke-opacity:1"
           d="m 320.08446,-88.185063 -41.11405,27.47888 v -21.27094 c -10.65518,6.56193 -21.91339,13.22735 -29.8545,17.39362 -8.24269,-4.16629 -19.70009,-10.93596 -30.45579,-17.49787 v 21.03701 l -40.61095,-27.1407 c 0,0 2.5131,22.18463 12.56516,37.80827 4.38937,6.06423 17.65643,15.89862 28.04579,23.12284 v 10.90504 c 8.64477,9.2700199 18.99646,16.14502987 30.45579,16.14502987 11.25828,0 21.31027,-6.66628997 29.8545,-15.72800987 v -10.97114 c 10.45587,-7.25058 24.08973,-17.31307 28.54892,-23.47376 10.05205,-15.62364 12.56513,-37.80827 12.56513,-37.80827 z"
           id="path4550"
           inkscape:connector-curvature="0"
           sodipodi:nodetypes="ccccccccccscccc" /><path
           id="path4550-9"
           style="fill:#b3b3b3;fill-opacity:1;fill-rule:nonzero;stroke:#090909;stroke-width:6.97877;stroke-linecap:butt;stroke-linejoin:miter;stroke-miterlimit:4;stroke-dasharray:none;stroke-opacity:1"
           d="m 264.96953,-57.423203 c -3.22369,1.83448 -6.59091,3.78899 -9.34961,5.23633 l -6.38477,3.34961 -6.43554,-3.25196 c -3.04719,-1.5402 -6.64394,-3.60101 -10.13868,-5.56445 v 35.31641 c 5.89449,5.27966 11.62128,8.13281 16.45508,8.13281 4.69596,0 10.12623,-2.6692 15.85352,-7.74414 z"
           sodipodi:nodetypes="ccccccscc" /><g
           id="g23"
           transform="translate(-1e-4)"
           style="stroke-width:1.16313"><path
             style="color:#000000;fill:#000000;stroke-width:1.16313;-inkscape-stroke:none"
             d="m 194.21122,-65.240032 c 0,0 2.10834,8.374126 6.50043,11.49226 l 30.2278,21.460025 3.44336,-4.914062 z"
             id="path22"
             sodipodi:nodetypes="csccc" /><path
             style="color:#000000;fill:#000000;stroke-width:1.16313;-inkscape-stroke:none"
             d="m 303.41944,-65.240032 c 0,0 -2.10834,8.374126 -6.50043,11.49226 l -30.2278,21.460025 -3.44336,-4.914062 z"
             id="path22-4"
             sodipodi:nodetypes="csccc" /></g></g></g></g></svg>
