<?xml version="1.0" encoding="UTF-8" standalone="no"?>
<svg width="128" height="128" version="1.1" xml:space="preserve" xmlns="http://www.w3.org/2000/svg" xmlns:svg="http://www.w3.org/2000/svg">
  <path style="fill:#ffffff" d="M 40.083984 16.167969 L 32.111328 48.056641 L 95.888672 48.056641 L 87.916016 16.167969 L 64 24.140625 L 40.083984 16.167969 z M 24.140625 56.027344 L 16.167969 64 L 111.83203 64 L 103.85938 56.027344 L 24.140625 56.027344 z M 36.097656 71.972656 A 19.930161 19.930161 0 0 0 16.167969 91.902344 A 19.930161 19.930161 0 0 0 36.097656 111.83203 A 19.930161 19.930161 0 0 0 55.625 95.888672 L 72.375 95.888672 A 19.930161 19.930161 0 0 0 91.902344 111.83203 A 19.930161 19.930161 0 0 0 111.83203 91.902344 A 19.930161 19.930161 0 0 0 91.902344 71.972656 A 19.930161 19.930161 0 0 0 72.375 87.916016 L 55.625 87.916016 A 19.930161 19.930161 0 0 0 36.097656 71.972656 z M 36.097656 79.943359 A 11.958096 11.958096 0 0 1 48.056641 91.902344 A 11.958096 11.958096 0 0 1 36.097656 103.85938 A 11.958096 11.958096 0 0 1 24.140625 91.902344 A 11.958096 11.958096 0 0 1 36.097656 79.943359 z M 91.902344 79.943359 A 11.958096 11.958096 0 0 1 103.85938 91.902344 A 11.958096 11.958096 0 0 1 91.902344 103.85938 A 11.958096 11.958096 0 0 1 79.943359 91.902344 A 11.958096 11.958096 0 0 1 91.902344 79.943359 z " />
</svg>
